<?xml version="1.0" encoding="utf-8"?>
<!-- Generator: Adobe Illustrator 28.6.0, SVG Export Plug-In . SVG Version: 9.03 Build 54939)  -->
<!DOCTYPE svg PUBLIC "-//W3C//DTD SVG 1.1//EN" "http://www.w3.org/Graphics/SVG/1.1/DTD/svg11.dtd" [
	<!ENTITY st0 "fill:#020203;">
	<!ENTITY st1 "fill:#E73B33;">
	<!ENTITY st2 "fill:#E5231E;">
	<!ENTITY st3 "fill:#FFFFFF;">
	<!ENTITY st4 "fill:#FFFFFF;stroke:#FFFFFF;stroke-width:10;stroke-miterlimit:10;">
	<!ENTITY st5 "fill:#FFFFFF;stroke:#FFFFFF;stroke-width:12.6265;stroke-miterlimit:10;">
	<!ENTITY st6 "fill:#BD271F;">
	<!ENTITY st7 "fill:none;">
	<!ENTITY st8 "fill:none;stroke:#FFFFFF;stroke-width:3.2659;stroke-miterlimit:10;">
	<!ENTITY st9 "fill:#1F090B;">
]>
<svg version="1.1" id="Capa_1" xmlns="http://www.w3.org/2000/svg" xmlns:xlink="http://www.w3.org/1999/xlink" x="0px" y="0px"
	 viewBox="0 0 841.9 1190.6" style="enable-background:new 0 0 841.9 1190.6;" xml:space="preserve">
<g>
	<path style="&st0;" d="M43.8,45.9c1.4,0,2.2,0.6,2.2,2c0,1.5-1,2.2-2.4,2.2h-0.5v1.9h-1.4v-6.1H43.8z M43.8,49.1
		c0.5,0,0.9-0.3,0.9-1.1c0-0.7-0.4-1.1-0.9-1.1h-0.6v2.1H43.8z"/>
	<path style="&st0;" d="M49.8,52.1l-0.9-2.2h-0.6v2.2h-1.4v-6.1H49c1.3,0,2.2,0.6,2.2,1.8c0,0.9-0.4,1.4-1,1.6l1.3,2.7H49.8z
		 M48.3,48.8h0.5c0.6,0,0.9-0.2,0.9-0.9c0-0.6-0.3-0.9-0.9-0.9h-0.5V48.8z"/>
	<path style="&st0;" d="M53.7,52.1h-1.4v-6.1h1.4V52.1z"/>
	<path style="&st0;" d="M59.8,45.9v6.1h-2l-1.3-3.6c-0.1-0.4-0.3-0.8-0.4-1.3H56c0.1,1,0.1,2.4,0.1,3.3v1.6h-1.3v-6.1h2l1.3,3.6
		c0.1,0.4,0.3,0.8,0.4,1.3h0.1c-0.1-1-0.2-2.1-0.2-3.1v-1.8H59.8z"/>
	<path style="&st0;" d="M65.3,47.1h-1.6v5h-1.4v-5h-1.6v-1.1h4.7V47.1z"/>
	<path style="&st0;" d="M72.7,49c0,2.2-1.1,3.1-2.6,3.1s-2.6-0.9-2.6-3.1c0-2.2,1.1-3.1,2.6-3.1S72.7,46.8,72.7,49z M71.2,49
		c0-1.5-0.4-2.1-1.1-2.1c-0.7,0-1.1,0.6-1.1,2.1s0.4,2.1,1.1,2.1C70.8,51.1,71.2,50.6,71.2,49z"/>
	<path style="&st0;" d="M78.5,45.9v6.1h-2l-1.3-3.6c-0.1-0.4-0.3-0.8-0.4-1.3h-0.1c0.1,1,0.1,2.4,0.1,3.3v1.6h-1.3v-6.1h2l1.3,3.6
		c0.1,0.4,0.3,0.8,0.4,1.3h0.1c-0.1-1-0.2-2.1-0.2-3.1v-1.8H78.5z"/>
	<path style="&st0;" d="M85.8,47.1h-1.6v5h-1.4v-5h-1.6v-1.1h4.7V47.1z"/>
	<path style="&st0;" d="M91.5,45.9v6.1H90v-2.5h-2v2.5h-1.4v-6.1H88v2.4h2v-2.4H91.5z"/>
	<path style="&st0;" d="M94.2,52.1h-1.4v-6.1h1.4V52.1z"/>
	<path style="&st0;" d="M100.1,50.1c-0.3,1.4-1.1,2-2.3,2c-1.7,0-2.6-1.1-2.6-3.1c0-1.9,1-3.1,2.6-3.1c1.3,0,2.1,0.7,2.3,1.9
		l-1.5,0.3c-0.1-0.9-0.4-1.2-0.9-1.2c-0.6,0-1,0.7-1,2.1c0,1.3,0.4,2.2,1,2.2c0.5,0,0.8-0.3,0.9-1.2L100.1,50.1z"/>
	<path style="&st0;" d="M102.4,47.6c0,0.3,0,0.7-0.1,1h0c0.2-0.3,0.4-0.7,0.7-1l1.3-1.6h1.8l-2.3,2.5l2.3,3.6h-1.7l-1.5-2.5
		l-0.5,0.5v2h-1.4v-6.1h1.4V47.6z"/>
	<path style="&st0;" d="M110.6,45.9c1.4,0,2.2,0.6,2.2,2c0,1.5-1,2.2-2.4,2.2h-0.5v1.9h-1.4v-6.1H110.6z M110.5,49.1
		c0.5,0,0.9-0.3,0.9-1.1c0-0.7-0.4-1.1-0.9-1.1h-0.6v2.1H110.5z"/>
	<path style="&st0;" d="M118.1,52.1h-1.4l-0.4-1.4h-1.9l-0.3,1.4h-1.3l1.6-6.1h2.2L118.1,52.1z M115.6,47.6
		c-0.1-0.3-0.1-0.6-0.2-0.8h0c0,0.3-0.1,0.6-0.2,0.8l-0.5,1.9h1.3L115.6,47.6z"/>
	<path style="&st0;" d="M120.8,45.9c1.4,0,2.2,0.6,2.2,2c0,1.5-1,2.2-2.4,2.2h-0.5v1.9h-1.4v-6.1H120.8z M120.8,49.1
		c0.5,0,0.9-0.3,0.9-1.1c0-0.7-0.4-1.1-0.9-1.1h-0.6v2.1H120.8z"/>
	<path style="&st0;" d="M127.7,51v1.1h-3.7v-6.1h3.7V47h-2.3v1.4h2v1h-2V51H127.7z"/>
	<path style="&st0;" d="M131.4,52.1l-0.9-2.2h-0.6v2.2h-1.4v-6.1h2.1c1.3,0,2.2,0.6,2.2,1.8c0,0.9-0.4,1.4-1,1.6l1.3,2.7H131.4z
		 M129.9,48.8h0.5c0.6,0,0.9-0.2,0.9-0.9c0-0.6-0.3-0.9-0.9-0.9h-0.5V48.8z"/>
	<path style="&st0;" d="M140.4,52.1H139l-0.4-1.4h-1.9l-0.3,1.4h-1.3l1.6-6.1h2.2L140.4,52.1z M137.9,47.6c-0.1-0.3-0.1-0.6-0.2-0.8
		h0c0,0.3-0.1,0.6-0.2,0.8l-0.5,1.9h1.3L137.9,47.6z"/>
	<path style="&st0;" d="M146,45.9v6.1h-2l-1.3-3.6c-0.1-0.4-0.3-0.8-0.4-1.3h-0.1c0.1,1,0.1,2.4,0.1,3.3v1.6h-1.3v-6.1h2l1.3,3.6
		c0.1,0.4,0.3,0.8,0.4,1.3h0.1c-0.1-1-0.2-2.1-0.2-3.1v-1.8H146z"/>
	<path style="&st0;" d="M149.3,45.9c1.7,0,2.7,0.9,2.7,3c0,2.2-1.2,3.1-2.8,3.1h-2v-6.1H149.3z M149.3,51c0.8,0,1.3-0.5,1.3-2
		c0-1.5-0.5-2-1.5-2h-0.5V51H149.3z"/>
	<path style="&st0;" d="M159.4,50.1c-0.3,1.4-1.1,2-2.3,2c-1.7,0-2.6-1.1-2.6-3.1c0-1.9,1-3.1,2.6-3.1c1.3,0,2.1,0.7,2.3,1.9
		l-1.5,0.3c-0.1-0.9-0.4-1.2-0.9-1.2c-0.6,0-1,0.7-1,2.1c0,1.3,0.4,2.2,1,2.2c0.5,0,0.8-0.3,0.9-1.2L159.4,50.1z"/>
	<path style="&st0;" d="M165.2,45.9v3.9c0,1.6-1,2.3-2.5,2.3c-1.4,0-2.5-0.7-2.5-2.3v-3.9h1.4v3.9c0,0.9,0.4,1.3,1,1.3
		c0.6,0,1-0.4,1-1.3v-3.9H165.2z"/>
	<path style="&st0;" d="M170.7,47.1H169v5h-1.4v-5H166v-1.1h4.7V47.1z"/>
	<path style="&st0;" d="M178,52.1h-1.4l-0.4-1.4h-1.9l-0.3,1.4h-1.3l1.6-6.1h2.2L178,52.1z M175.5,47.6c-0.1-0.3-0.1-0.6-0.2-0.8h0
		c0,0.3-0.1,0.6-0.2,0.8l-0.5,1.9h1.3L175.5,47.6z"/>
	<path style="&st0;" d="M183.6,45.9v6.1h-2l-1.3-3.6c-0.1-0.4-0.3-0.8-0.4-1.3h-0.1c0.1,1,0.1,2.4,0.1,3.3v1.6h-1.3v-6.1h2l1.3,3.6
		c0.1,0.4,0.3,0.8,0.4,1.3h0.1c-0.1-1-0.2-2.1-0.2-3.1v-1.8H183.6z"/>
	<path style="&st0;" d="M186.9,45.9c1.7,0,2.7,0.9,2.7,3c0,2.2-1.2,3.1-2.8,3.1h-2v-6.1H186.9z M186.9,51c0.8,0,1.3-0.5,1.3-2
		c0-1.5-0.5-2-1.5-2h-0.5V51H186.9z"/>
	<path style="&st0;" d="M195.3,52.1l-0.9-2.2h-0.6v2.2h-1.4v-6.1h2.1c1.3,0,2.2,0.6,2.2,1.8c0,0.9-0.4,1.4-1,1.6l1.3,2.7H195.3z
		 M193.8,48.8h0.5c0.6,0,0.9-0.2,0.9-0.9c0-0.6-0.3-0.9-0.9-0.9h-0.5V48.8z"/>
	<path style="&st0;" d="M201.4,51v1.1h-3.7v-6.1h3.7V47h-2.3v1.4h2v1h-2V51H201.4z"/>
	<path style="&st0;" d="M208.3,45.9v6.1h-1.3v-2.4c0-0.8,0-1.7,0.1-2.5h-0.1l-1.2,4.9h-1.2l-1.2-4.9h-0.1c0.1,0.8,0.1,1.7,0.1,2.5
		v2.4h-1.3v-6.1h2.1l0.6,2.4c0.2,0.6,0.3,1.5,0.3,2.1h0.1c0-0.6,0.2-1.5,0.3-2.1l0.6-2.4H208.3z"/>
	<path style="&st0;" d="M214.5,49c0,2.2-1.1,3.1-2.6,3.1s-2.6-0.9-2.6-3.1c0-2.2,1.1-3.1,2.6-3.1S214.5,46.8,214.5,49z M212.9,49
		c0-1.5-0.4-2.1-1.1-2.1c-0.7,0-1.1,0.6-1.1,2.1s0.4,2.1,1.1,2.1C212.6,51.1,212.9,50.6,212.9,49z"/>
	<path style="&st0;" d="M220.1,45.9l-1.5,6.1h-2.3l-1.5-6.1h1.5l0.8,3.4c0.1,0.6,0.2,1,0.3,1.6h0.1c0.1-0.6,0.1-1,0.3-1.6l0.8-3.4
		H220.1z"/>
	<path style="&st0;" d="M224.6,51v1.1h-3.7v-6.1h3.7V47h-2.3v1.4h2v1h-2V51H224.6z"/>
	<path style="&st0;" d="M232,52.1h-1.4l-0.4-1.4h-1.9l-0.3,1.4h-1.3l1.6-6.1h2.2L232,52.1z M229.5,47.6c-0.1-0.3-0.1-0.6-0.2-0.8h0
		c0,0.3-0.1,0.6-0.2,0.8l-0.5,1.9h1.3L229.5,47.6z"/>
	<path style="&st0;" d="M236.5,51v1.1h-3.8v-6.1h1.4v5H236.5z"/>
	<path style="&st0;" d="M241.1,51v1.1h-3.8v-6.1h1.4v5H241.1z"/>
	<path style="&st0;" d="M247.9,47.1h-1.6v5h-1.4v-5h-1.6v-1.1h4.7V47.1z"/>
	<path style="&st0;" d="M253.6,45.9v6.1h-1.4v-2.5h-2v2.5h-1.4v-6.1h1.4v2.4h2v-2.4H253.6z"/>
	<path style="&st0;" d="M258.6,51v1.1h-3.7v-6.1h3.7V47h-2.3v1.4h2v1h-2V51H258.6z"/>
	<path style="&st0;" d="M263.3,45.9c1.7,0,2.7,0.9,2.7,3c0,2.2-1.2,3.1-2.8,3.1h-2v-6.1H263.3z M263.3,51c0.8,0,1.3-0.5,1.3-2
		c0-1.5-0.5-2-1.5-2h-0.5V51H263.3z"/>
	<path style="&st0;" d="M271.7,52.1h-1.4l-0.4-1.4H268l-0.3,1.4h-1.3l1.6-6.1h2.2L271.7,52.1z M269.1,47.6c-0.1-0.3-0.1-0.6-0.2-0.8
		h0c0,0.3-0.1,0.6-0.2,0.8l-0.5,1.9h1.3L269.1,47.6z"/>
	<path style="&st0;" d="M275.3,52.1l-0.9-2.2h-0.6v2.2h-1.4v-6.1h2.1c1.3,0,2.2,0.6,2.2,1.8c0,0.9-0.4,1.4-1,1.6l1.3,2.7H275.3z
		 M273.8,48.8h0.5c0.6,0,0.9-0.2,0.9-0.9c0-0.6-0.3-0.9-0.9-0.9h-0.5V48.8z"/>
	<path style="&st0;" d="M279.1,47.6c0,0.3,0,0.7-0.1,1h0c0.2-0.3,0.4-0.7,0.7-1l1.3-1.6h1.8l-2.3,2.5l2.3,3.6h-1.7l-1.5-2.5
		l-0.5,0.5v2h-1.4v-6.1h1.4V47.6z"/>
	<path style="&st0;" d="M290.1,52.1h-1.4l-0.4-1.4h-1.9l-0.3,1.4h-1.3l1.6-6.1h2.2L290.1,52.1z M287.6,47.6
		c-0.1-0.3-0.1-0.6-0.2-0.8h0c0,0.3-0.1,0.6-0.2,0.8l-0.5,1.9h1.3L287.6,47.6z"/>
	<path style="&st0;" d="M293.7,52.1l-0.9-2.2h-0.6v2.2h-1.4v-6.1h2.1c1.3,0,2.2,0.6,2.2,1.8c0,0.9-0.4,1.4-1,1.6l1.3,2.7H293.7z
		 M292.2,48.8h0.5c0.6,0,0.9-0.2,0.9-0.9c0-0.6-0.3-0.9-0.9-0.9h-0.5V48.8z"/>
	<path style="&st0;" d="M299.8,51v1.1h-3.7v-6.1h3.7V47h-2.3v1.4h2v1h-2V51H299.8z"/>
	<path style="&st0;" d="M305.5,52.1H304l-0.4-1.4h-1.9l-0.3,1.4h-1.3l1.6-6.1h2.2L305.5,52.1z M303,47.6c-0.1-0.3-0.1-0.6-0.2-0.8h0
		c0,0.3-0.1,0.6-0.2,0.8l-0.5,1.9h1.3L303,47.6z"/>
	<path style="&st0;" d="M307.2,50c0.1,0.7,0.4,1.1,1.1,1.1c0.4,0,0.6-0.2,0.6-0.6c0-0.4-0.3-0.6-1.2-0.9c-1.1-0.4-1.7-0.9-1.7-1.9
		c0-1.2,0.8-1.8,2.1-1.8c1.3,0,2,0.6,2.2,1.8l-1.4,0.3c-0.1-0.7-0.3-1.1-0.9-1.1c-0.4,0-0.6,0.2-0.6,0.6c0,0.4,0.3,0.6,1.2,0.9
		c1.3,0.4,1.8,0.9,1.8,1.9c0,1.1-0.8,1.9-2.2,1.9c-1.4,0-2.3-0.6-2.4-1.9L307.2,50z"/>
	<path style="&st0;" d="M43.8,61.2c1.4,0,2.2,0.6,2.2,2c0,1.5-1,2.2-2.4,2.2h-0.5v1.9h-1.4v-6.1H43.8z M43.8,64.3
		c0.5,0,0.9-0.3,0.9-1.1c0-0.7-0.4-1.1-0.9-1.1h-0.6v2.1H43.8z"/>
	<path style="&st0;" d="M51.8,61.2v3.9c0,1.6-1,2.3-2.5,2.3c-1.4,0-2.5-0.7-2.5-2.3v-3.9h1.4V65c0,0.9,0.4,1.3,1,1.3
		c0.6,0,1-0.4,1-1.3v-3.9H51.8z"/>
	<path style="&st0;" d="M57.3,62.3h-1.6v5h-1.4v-5h-1.6v-1.1h4.7V62.3z"/>
	<path style="&st0;" d="M61.3,67.3h-1.4v-6.1h1.4V67.3z"/>
	<path style="&st0;" d="M66.8,62.3h-1.6v5h-1.4v-5h-1.6v-1.1h4.7V62.3z"/>
	<path style="&st0;" d="M74,65.3c-0.3,1.4-1.1,2-2.3,2c-1.7,0-2.6-1.1-2.6-3.1c0-1.9,1-3.1,2.6-3.1c1.3,0,2.1,0.7,2.3,1.9l-1.5,0.3
		c-0.1-0.9-0.4-1.2-0.9-1.2c-0.6,0-1,0.7-1,2.1c0,1.3,0.4,2.2,1,2.2c0.5,0,0.8-0.3,0.9-1.2L74,65.3z"/>
	<path style="&st0;" d="M78.6,66.2v1.1h-3.8v-6.1h1.4v5H78.6z"/>
	<path style="&st0;" d="M84.2,64.2c0,2.2-1.1,3.1-2.6,3.1S79,66.4,79,64.2c0-2.2,1.1-3.1,2.6-3.1S84.2,62,84.2,64.2z M82.7,64.2
		c0-1.5-0.4-2.1-1.1-2.1c-0.7,0-1.1,0.6-1.1,2.1c0,1.5,0.4,2.1,1.1,2.1C82.3,66.3,82.7,65.8,82.7,64.2z"/>
	<path style="&st0;" d="M86.2,65.2c0.1,0.7,0.4,1.1,1.1,1.1c0.4,0,0.6-0.2,0.6-0.6c0-0.4-0.3-0.6-1.2-0.9c-1.1-0.4-1.7-0.9-1.7-1.9
		c0-1.2,0.8-1.8,2.1-1.8c1.3,0,2,0.6,2.2,1.8l-1.4,0.3C87.8,62.4,87.5,62,87,62c-0.4,0-0.6,0.2-0.6,0.6c0,0.4,0.3,0.6,1.2,0.9
		c1.3,0.4,1.8,0.9,1.8,1.9c0,1.1-0.8,1.9-2.2,1.9c-1.4,0-2.3-0.6-2.4-1.9L86.2,65.2z"/>
	<path style="&st0;" d="M94,66.2v1.1h-3.7v-6.1h3.7v1.1h-2.3v1.4h2v1h-2v1.5H94z"/>
	<path style="&st0;" d="M100.9,62.3h-1.6v5h-1.4v-5h-1.6v-1.1h4.7V62.3z"/>
	<path style="&st0;" d="M106.4,64.2c0,2.2-1.1,3.1-2.6,3.1s-2.6-0.9-2.6-3.1c0-2.2,1.1-3.1,2.6-3.1S106.4,62,106.4,64.2z
		 M104.9,64.2c0-1.5-0.4-2.1-1.1-2.1c-0.7,0-1.1,0.6-1.1,2.1c0,1.5,0.4,2.1,1.1,2.1C104.5,66.3,104.9,65.8,104.9,64.2z"/>
	<path style="&st0;" d="M113.9,67.3h-1.4l-0.4-1.4h-1.9l-0.3,1.4h-1.3l1.6-6.1h2.2L113.9,67.3z M111.4,62.8
		c-0.1-0.3-0.1-0.6-0.2-0.8h0c0,0.3-0.1,0.6-0.2,0.8l-0.5,1.9h1.3L111.4,62.8z"/>
	<path style="&st0;" d="M119.9,62.9c0,0.5-0.2,1.7-0.3,2.2l-0.4,2.1h-2l-1.2-6.1h1.5l0.6,3.1c0.1,0.7,0.2,1.2,0.2,1.7h0.1
		c0.1-0.5,0.1-1,0.3-1.7l0.6-3.1h1.4l0.7,3.1c0.2,0.7,0.2,1.3,0.3,1.7h0.1c0-0.5,0.1-1,0.2-1.7l0.5-3.1h1.5l-1.2,6.1h-2l-0.4-2.2
		C120.2,64.7,120,63.4,119.9,62.9L119.9,62.9z"/>
	<path style="&st0;" d="M129.2,67.3h-1.4l-0.4-1.4h-1.9l-0.3,1.4h-1.3l1.6-6.1h2.2L129.2,67.3z M126.6,62.8
		c-0.1-0.3-0.1-0.6-0.2-0.8h0c0,0.3-0.1,0.6-0.2,0.8l-0.5,1.9h1.3L126.6,62.8z"/>
	<path style="&st0;" d="M133.7,66.2v1.1h-3.8v-6.1h1.4v5H133.7z"/>
	<path style="&st0;" d="M138.2,66.2v1.1h-3.8v-6.1h1.4v5H138.2z"/>
	<path style="&st0;" d="M145.6,67.3h-1.4l-0.4-1.4h-1.9l-0.3,1.4h-1.3l1.6-6.1h2.2L145.6,67.3z M143.1,62.8
		c-0.1-0.3-0.1-0.6-0.2-0.8h0c0,0.3-0.1,0.6-0.2,0.8l-0.5,1.9h1.3L143.1,62.8z"/>
	<path style="&st0;" d="M151.2,61.2v6.1h-2l-1.3-3.6c-0.1-0.4-0.3-0.8-0.4-1.3h-0.1c0.1,1,0.1,2.4,0.1,3.3v1.6h-1.3v-6.1h2l1.3,3.6
		c0.1,0.4,0.3,0.8,0.4,1.3h0.1c-0.1-1-0.2-2.1-0.2-3.1v-1.8H151.2z"/>
	<path style="&st0;" d="M154.5,61.2c1.7,0,2.7,0.9,2.7,3c0,2.2-1.2,3.1-2.8,3.1h-2v-6.1H154.5z M154.5,66.2c0.8,0,1.3-0.5,1.3-2
		c0-1.5-0.5-2-1.5-2h-0.5v4.1H154.5z"/>
	<path style="&st0;" d="M161,65.2c0.1,0.7,0.4,1.1,1.1,1.1c0.4,0,0.6-0.2,0.6-0.6c0-0.4-0.3-0.6-1.2-0.9c-1.1-0.4-1.7-0.9-1.7-1.9
		c0-1.2,0.8-1.8,2.1-1.8c1.3,0,2,0.6,2.2,1.8l-1.4,0.3c-0.1-0.7-0.3-1.1-0.9-1.1c-0.4,0-0.6,0.2-0.6,0.6c0,0.4,0.3,0.6,1.2,0.9
		c1.3,0.4,1.8,0.9,1.8,1.9c0,1.1-0.8,1.9-2.2,1.9c-1.4,0-2.3-0.6-2.4-1.9L161,65.2z"/>
	<path style="&st0;" d="M167,61.2c1.4,0,2.2,0.6,2.2,2c0,1.5-1,2.2-2.4,2.2h-0.5v1.9H165v-6.1H167z M167,64.3c0.5,0,0.9-0.3,0.9-1.1
		c0-0.7-0.4-1.1-0.9-1.1h-0.6v2.1H167z"/>
	<path style="&st0;" d="M173,67.3l-0.9-2.2h-0.6v2.2h-1.4v-6.1h2.1c1.3,0,2.2,0.6,2.2,1.8c0,0.9-0.4,1.4-1,1.6l1.3,2.7H173z
		 M171.5,64h0.5c0.6,0,0.9-0.2,0.9-0.9c0-0.6-0.3-0.9-0.9-0.9h-0.5V64z"/>
	<path style="&st0;" d="M180.2,67.3h-1.4l-0.4-1.4h-1.9l-0.3,1.4h-1.3l1.6-6.1h2.2L180.2,67.3z M177.7,62.8
		c-0.1-0.3-0.1-0.6-0.2-0.8h0c0,0.3-0.1,0.6-0.2,0.8l-0.5,1.9h1.3L177.7,62.8z"/>
	<path style="&st0;" d="M183.4,65.3v2h-1.5v-2l-2-4.1h1.6l1,2.1c0.1,0.2,0.2,0.4,0.3,0.7c0.1-0.2,0.2-0.4,0.3-0.7l0.9-2.1h1.5
		L183.4,65.3z"/>
	<path style="&st0;" d="M185.6,67.9h-0.4l2.5-7.3h0.4L185.6,67.9z"/>
	<path style="&st0;" d="M190.4,61.2c1.4,0,2.2,0.6,2.2,2c0,1.5-1,2.2-2.4,2.2h-0.5v1.9h-1.4v-6.1H190.4z M190.3,64.3
		c0.5,0,0.9-0.3,0.9-1.1c0-0.7-0.4-1.1-0.9-1.1h-0.6v2.1H190.3z"/>
	<path style="&st0;" d="M198,67.3h-1.4l-0.4-1.4h-1.9l-0.3,1.4h-1.3l1.6-6.1h2.2L198,67.3z M195.4,62.8c-0.1-0.3-0.1-0.6-0.2-0.8h0
		c0,0.3-0.1,0.6-0.2,0.8l-0.5,1.9h1.3L195.4,62.8z"/>
	<path style="&st0;" d="M200.1,67.3h-1.4v-6.1h1.4V67.3z"/>
	<path style="&st0;" d="M206.3,61.2v6.1h-2l-1.3-3.6c-0.1-0.4-0.3-0.8-0.4-1.3h-0.1c0.1,1,0.1,2.4,0.1,3.3v1.6h-1.3v-6.1h2l1.3,3.6
		c0.1,0.4,0.3,0.8,0.4,1.3h0.1C205,65,205,64,205,63v-1.8H206.3z"/>
	<path style="&st0;" d="M211.7,62.3h-1.6v5h-1.4v-5H207v-1.1h4.7V62.3z"/>
	<path style="&st0;" d="M215.8,67.3h-1.4v-6.1h1.4V67.3z"/>
	<path style="&st0;" d="M221.2,62.3h-1.6v5h-1.4v-5h-1.6v-1.1h4.7V62.3z"/>
	<path style="&st0;" d="M44.7,80.5v2h-1.5v-2l-2-4.1h1.6l1,2.1c0.1,0.2,0.2,0.4,0.3,0.7c0.1-0.2,0.2-0.4,0.3-0.7l0.9-2.1h1.5
		L44.7,80.5z"/>
	<path style="&st0;" d="M52.1,79.4c0,2.2-1.1,3.1-2.6,3.1s-2.6-0.9-2.6-3.1c0-2.2,1.1-3.1,2.6-3.1S52.1,77.2,52.1,79.4z M50.5,79.4
		c0-1.5-0.4-2.1-1.1-2.1c-0.7,0-1.1,0.6-1.1,2.1s0.4,2.1,1.1,2.1C50.1,81.5,50.5,81,50.5,79.4z"/>
	<path style="&st0;" d="M57.9,76.4v3.9c0,1.6-1,2.3-2.5,2.3c-1.4,0-2.5-0.7-2.5-2.3v-3.9h1.4v3.9c0,0.9,0.4,1.3,1,1.3
		c0.6,0,1-0.4,1-1.3v-3.9H57.9z"/>
	<path style="&st0;" d="M65.6,80.5c-0.3,1.4-1.1,2-2.3,2c-1.7,0-2.6-1.1-2.6-3.1c0-1.9,1-3.1,2.6-3.1c1.3,0,2.1,0.7,2.3,1.9
		l-1.5,0.3c-0.1-0.9-0.4-1.2-0.9-1.2c-0.6,0-1,0.7-1,2.1c0,1.3,0.4,2.2,1,2.2c0.5,0,0.8-0.3,0.9-1.2L65.6,80.5z"/>
	<path style="&st0;" d="M71.3,82.5h-1.4L69.5,81h-1.9l-0.3,1.4h-1.3l1.6-6.1h2.2L71.3,82.5z M68.7,78c-0.1-0.3-0.1-0.6-0.2-0.8h0
		c0,0.3-0.1,0.6-0.2,0.8L67.8,80h1.3L68.7,78z"/>
	<path style="&st0;" d="M76.8,76.4v6.1h-2l-1.3-3.6c-0.1-0.4-0.3-0.8-0.4-1.3h-0.1c0.1,1,0.1,2.4,0.1,3.3v1.6H72v-6.1h2l1.3,3.6
		c0.1,0.4,0.3,0.8,0.4,1.3h0.1c-0.1-1-0.2-2.1-0.2-3.1v-1.8H76.8z"/>
	<path style="&st0;" d="M84.8,76.4v3.9c0,1.6-1,2.3-2.5,2.3c-1.4,0-2.5-0.7-2.5-2.3v-3.9h1.4v3.9c0,0.9,0.4,1.3,1,1.3
		c0.6,0,1-0.4,1-1.3v-3.9H84.8z"/>
	<path style="&st0;" d="M87.1,80.5c0.1,0.7,0.4,1.1,1.1,1.1c0.4,0,0.6-0.2,0.6-0.6c0-0.4-0.3-0.6-1.2-0.9c-1.1-0.4-1.7-0.9-1.7-1.9
		c0-1.2,0.8-1.8,2.1-1.8c1.3,0,2,0.6,2.2,1.8l-1.4,0.3c-0.1-0.7-0.3-1.1-0.9-1.1c-0.4,0-0.6,0.2-0.6,0.6c0,0.4,0.3,0.6,1.2,0.9
		c1.3,0.4,1.8,0.9,1.8,1.9c0,1.1-0.8,1.9-2.2,1.9c-1.4,0-2.3-0.6-2.4-1.9L87.1,80.5z"/>
	<path style="&st0;" d="M94.9,81.4v1.1h-3.7v-6.1h3.7v1.1h-2.3v1.4h2v1h-2v1.5H94.9z"/>
	<path style="&st0;" d="M100.4,82.5l-0.9-2.2h-0.6v2.2h-1.4v-6.1h2.1c1.3,0,2.2,0.6,2.2,1.8c0,0.9-0.4,1.4-1,1.6l1.3,2.7H100.4z
		 M98.9,79.2h0.5c0.6,0,0.9-0.2,0.9-0.9c0-0.6-0.3-0.9-0.9-0.9h-0.5V79.2z"/>
	<path style="&st0;" d="M106.6,81.4v1.1h-3.7v-6.1h3.7v1.1h-2.3v1.4h2v1h-2v1.5H106.6z"/>
	<path style="&st0;" d="M109.5,76.4c1.7,0,2.7,0.9,2.7,3c0,2.2-1.2,3.1-2.8,3.1h-2v-6.1H109.5z M109.5,81.5c0.8,0,1.3-0.5,1.3-2
		c0-1.5-0.5-2-1.5-2h-0.5v4.1H109.5z"/>
	<path style="&st0;" d="M116,80.5c0.1,0.7,0.4,1.1,1.1,1.1c0.4,0,0.6-0.2,0.6-0.6c0-0.4-0.3-0.6-1.2-0.9c-1.1-0.4-1.7-0.9-1.7-1.9
		c0-1.2,0.8-1.8,2.1-1.8c1.3,0,2,0.6,2.2,1.8l-1.4,0.3c-0.1-0.7-0.3-1.1-0.9-1.1c-0.4,0-0.6,0.2-0.6,0.6c0,0.4,0.3,0.6,1.2,0.9
		c1.3,0.4,1.8,0.9,1.8,1.9c0,1.1-0.8,1.9-2.2,1.9c-1.4,0-2.3-0.6-2.4-1.9L116,80.5z"/>
	<path style="&st0;" d="M122,76.4c1.4,0,2.2,0.6,2.2,2c0,1.5-1,2.2-2.4,2.2h-0.5v1.9H120v-6.1H122z M121.9,79.5
		c0.5,0,0.9-0.3,0.9-1.1c0-0.7-0.4-1.1-0.9-1.1h-0.6v2.1H121.9z"/>
	<path style="&st0;" d="M128,82.5l-0.9-2.2h-0.6v2.2h-1.4v-6.1h2.1c1.3,0,2.2,0.6,2.2,1.8c0,0.9-0.4,1.4-1,1.6l1.3,2.7H128z
		 M126.5,79.2h0.5c0.6,0,0.9-0.2,0.9-0.9c0-0.6-0.3-0.9-0.9-0.9h-0.5V79.2z"/>
	<path style="&st0;" d="M135.2,82.5h-1.4l-0.4-1.4h-1.9l-0.3,1.4h-1.3l1.6-6.1h2.2L135.2,82.5z M132.7,78c-0.1-0.3-0.1-0.6-0.2-0.8
		h0c0,0.3-0.1,0.6-0.2,0.8l-0.5,1.9h1.3L132.7,78z"/>
	<path style="&st0;" d="M138.3,80.5v2h-1.5v-2l-2-4.1h1.6l1,2.1c0.1,0.2,0.2,0.4,0.3,0.7c0.1-0.2,0.2-0.4,0.3-0.7l0.9-2.1h1.5
		L138.3,80.5z"/>
	<path style="&st0;" d="M144.2,77.4V79h2v1h-2v2.4h-1.4v-6.1h3.7v1.1H144.2z"/>
	<path style="&st0;" d="M152.1,79.4c0,2.2-1.1,3.1-2.6,3.1s-2.6-0.9-2.6-3.1c0-2.2,1.1-3.1,2.6-3.1S152.1,77.2,152.1,79.4z
		 M150.5,79.4c0-1.5-0.4-2.1-1.1-2.1c-0.7,0-1.1,0.6-1.1,2.1s0.4,2.1,1.1,2.1C150.2,81.5,150.5,81,150.5,79.4z"/>
	<path style="&st0;" d="M155.9,82.5l-0.9-2.2h-0.6v2.2H153v-6.1h2.1c1.3,0,2.2,0.6,2.2,1.8c0,0.9-0.4,1.4-1,1.6l1.3,2.7H155.9z
		 M154.4,79.2h0.5c0.6,0,0.9-0.2,0.9-0.9c0-0.6-0.3-0.9-0.9-0.9h-0.5V79.2z"/>
	<path style="&st0;" d="M164.3,77.5h-1.6v5h-1.4v-5h-1.6v-1.1h4.7V77.5z"/>
	<path style="&st0;" d="M170,76.4v6.1h-1.4v-2.5h-2v2.5h-1.4v-6.1h1.4v2.4h2v-2.4H170z"/>
	<path style="&st0;" d="M175,81.4v1.1h-3.7v-6.1h3.7v1.1h-2.3v1.4h2v1h-2v1.5H175z"/>
	<path style="&st0;" d="M181.9,77.5h-1.6v5h-1.4v-5h-1.6v-1.1h4.7V77.5z"/>
	<path style="&st0;" d="M187.4,79.4c0,2.2-1.1,3.1-2.6,3.1s-2.6-0.9-2.6-3.1c0-2.2,1.1-3.1,2.6-3.1S187.4,77.2,187.4,79.4z
		 M185.9,79.4c0-1.5-0.4-2.1-1.1-2.1c-0.7,0-1.1,0.6-1.1,2.1s0.4,2.1,1.1,2.1C185.5,81.5,185.9,81,185.9,79.4z"/>
	<path style="&st0;" d="M193.2,76.4v6.1h-2l-1.3-3.6c-0.1-0.4-0.3-0.8-0.4-1.3h-0.1c0.1,1,0.1,2.4,0.1,3.3v1.6h-1.3v-6.1h2l1.3,3.6
		c0.1,0.4,0.3,0.8,0.4,1.3h0.1c-0.1-1-0.2-2.1-0.2-3.1v-1.8H193.2z"/>
	<path style="&st0;" d="M199.2,79.1c0,0.2,0,0.4,0,0.7c0,1.8-0.9,2.8-2.4,2.8c-1.7,0-2.6-1.1-2.6-3.1c0-1.9,1-3.1,2.6-3.1
		c1.3,0,2.1,0.7,2.3,1.9l-1.5,0.3c-0.1-0.9-0.4-1.2-0.9-1.2c-0.7,0-1.1,0.7-1.1,2.1c0,1.5,0.4,2.2,1.2,2.2c0.6,0,0.9-0.5,0.9-1.5
		h-1.1v-1H199.2z"/>
	<path style="&st0;" d="M205.1,76.4v3.9c0,1.6-1,2.3-2.5,2.3c-1.4,0-2.5-0.7-2.5-2.3v-3.9h1.4v3.9c0,0.9,0.4,1.3,1,1.3
		c0.6,0,1-0.4,1-1.3v-3.9H205.1z"/>
	<path style="&st0;" d="M210.1,81.4v1.1h-3.7v-6.1h3.7v1.1h-2.3v1.4h2v1h-2v1.5H210.1z"/>
	<path style="&st0;" d="M212.2,81.8c0,0.4-0.3,0.8-0.8,0.8c-0.4,0-0.8-0.3-0.8-0.8s0.3-0.8,0.8-0.8C211.9,81,212.2,81.4,212.2,81.8z
		 M212.1,80.6h-1.2v-4.2h1.2V80.6z"/>
	<path style="&st0;" d="M43.3,97.7h-1.4v-6.1h1.4V97.7z"/>
	<path style="&st0;" d="M47.7,92.6v1.6h2v1h-2v2.4h-1.4v-6.1H50v1.1H47.7z"/>
	<path style="&st0;" d="M54.5,96.6v1.1h-3.7v-6.1h3.7v1.1h-2.3v1.4h2v1h-2v1.5H54.5z"/>
	<path style="&st0;" d="M59.1,96.6v1.1h-3.7v-6.1H59v1.1h-2.3v1.4h2v1h-2v1.5H59.1z"/>
	<path style="&st0;" d="M63.7,96.6v1.1H60v-6.1h1.4v5H63.7z"/>
	<path style="&st0;" d="M69.2,94.5c0.8,0.1,1.5,0.4,1.5,1.4c0,1.2-0.9,1.8-2.2,1.8h-2.2v-6.1h2c1.2,0,2.1,0.4,2.1,1.6
		C70.4,93.9,69.9,94.3,69.2,94.5L69.2,94.5z M67.7,92.6v1.5h0.5c0.4,0,0.8-0.2,0.8-0.8c0-0.5-0.4-0.8-0.8-0.8H67.7z M68.4,96.6
		c0.5,0,0.9-0.2,0.9-0.8c0-0.5-0.3-0.7-0.9-0.7h-0.8v1.5H68.4z"/>
	<path style="&st0;" d="M75.3,96.6v1.1h-3.7v-6.1h3.7v1.1H73v1.4h2v1h-2v1.5H75.3z"/>
	<path style="&st0;" d="M80.4,92.7h-1.6v5h-1.4v-5h-1.6v-1.1h4.7V92.7z"/>
	<path style="&st0;" d="M85.5,92.7h-1.6v5h-1.4v-5h-1.6v-1.1h4.7V92.7z"/>
	<path style="&st0;" d="M90.1,96.6v1.1h-3.7v-6.1H90v1.1h-2.3v1.4h2v1h-2v1.5H90.1z"/>
	<path style="&st0;" d="M93.8,97.7l-0.9-2.2h-0.6v2.2h-1.4v-6.1H93c1.3,0,2.2,0.6,2.2,1.8c0,0.9-0.4,1.4-1,1.6l1.3,2.7H93.8z
		 M92.3,94.4h0.5c0.6,0,0.9-0.2,0.9-0.9c0-0.6-0.3-0.9-0.9-0.9h-0.5V94.4z"/>
</g>
<g>
	<path d="M306,963.1h-18.7l-27.4-99h22.6L306,963.1z M337.6,864.1l-27,99l-8.9-36.1l13.1-62.9H337.6z"/>
	<path d="M349.1,889.6c0-17.7,11-27,32.9-27.6v16.1c-6.4,0.8-9.6,4.2-9.6,10.5v49.9c0,6.4,3.2,10,9.6,10.6v16
		c-21.9-0.9-32.9-11-32.9-30.2V889.6z M396,888.6c0-6.4-3.2-9.9-9.9-10.5v-16.2c22.4,0.1,33.6,9.6,33.6,28.2v45.2
		c0,19.4-11.2,29.2-33.6,29.7v-16c6.6-0.6,9.9-4.1,9.9-10.6V888.6z"/>
	<path d="M503.4,864.1v16.6H433v-16.6H503.4z M456.7,884.6h22.7v78.5h-22.7V884.6z"/>
	<path d="M539.7,864.1v99h-22.9v-99H539.7z M543.2,864.1h29.7v16.6h-29.7V864.1z M543.2,903.4h28v16.5h-28V903.4z M572.9,963.1
		h-29.7V946h29.7V963.1z"/>
	<path d="M66.4,1020.9c0-17.7,11-27,32.9-27.6v16.1c-6.4,0.8-9.6,4.2-9.6,10.5v49.9c0,6.4,3.2,10,9.6,10.6v16
		c-21.9-0.9-32.9-11-32.9-30.2V1020.9z M113.2,1019.9c0-6.4-3.2-9.9-9.9-10.5v-16.2c22.4,0.1,33.6,9.6,33.6,28.2v45.2
		c0,19.4-11.2,29.2-33.6,29.7v-16c6.6-0.6,9.9-4.1,9.9-10.6V1019.9z"/>
	<path d="M174.6,1065c0.2,8.7,4.5,13.5,12.6,14.2v17.1c-23-0.9-34.5-11.2-34.5-31.4H174.6z M192.7,1096.4v-17
		c7.4-0.6,11.1-3.4,11.1-8c-0.5-3-2.5-6.1-5.9-8.7c-11.5-8.5-21.2-16-30.9-22.5c-6.8-5.4-10.9-12.4-12.4-20.9
		c0-16.5,10.7-25,32.4-25.6v16.7c-7.5,0.9-9.6,3.5-9.6,9.4c0,2.8,1.1,4.9,3.4,6.5c9.1,5.5,31.9,22.1,32.1,22.1
		c8.9,6.4,13.2,14,13.2,22.9C226.2,1087.5,215.1,1095.9,192.7,1096.4z M202.5,1022.3c0-6.9-3.2-10.9-9.7-11.9v-16.7
		c21.9,0.9,32.7,10.4,32.7,28.6H202.5z"/>
	<path d="M292.1,995.4l25.1,99h-23.9l-4.6-20.7H269l3.2-16.5h13.1l-7.7-40.2l-17.5,77.5h-22.5l25.1-99H292.1z"/>
	<path d="M329.6,1094.4v-99h23v99H329.6z M356.1,1031.6l10.4-16.9l38,79.6h-24.4l-19.2-41.4l-4.7,7V1031.6z M402.5,995.4l-23.9,34.2
		l-9.2-18.9l9.1-15.4H402.5z"/>
	<path d="M467.9,995.4l25.1,99h-23.9l-4.6-20.7h-19.7l3.2-16.5h13.1l-7.7-40.2l-17.5,77.5h-22.5l25.1-99H467.9z"/>
	<path d="M505.4,1078.8h22v15.6h-22V1078.8z"/>
	<path d="M567.9,1094.4h-16.6l-24.1-99h22L567.9,1094.4z M593.7,995.4l22.4,99h-17.7l-14.2-68.7l-13.1,60.4l-7.7-40.7l11.2-49.9
		H593.7z M609.4,1044.8l9.6-49.4h22l-22.2,89L609.4,1044.8z"/>
	<path d="M654.2,995.4h23.4v99h-23.4V995.4z"/>
	<path d="M716.9,995.4v99h-21.2v-99H716.9z M744.4,1087.8l-24.7-50.1v-34.5l24.7,50.5V1087.8z M768.7,995.4v99H747v-99H768.7z"/>
</g>
<g>
	<path style="&st0;" d="M160.9,270.4h-31.2c-0.3-4.7-0.4-9.4-0.4-14.1c0-3,0.1-5.9,0.1-8.8c0.2-6.2,1-11.9,2.4-17.2
		c1.2-4.3,2.7-8.2,4.7-11.9c0.5-1,1.1-1.9,1.7-2.9c1.1-1.7,2.3-3.4,3.6-4.9c0.5-0.7,1.1-1.3,1.7-2c0.5-0.6,1.1-1.2,1.7-1.7
		c0.5-0.5,1.1-1.1,1.7-1.6c8.7-7.6,20.7-12.1,35.6-13.3c1.2-0.1,2.3-0.2,3.4-0.2h1.7c1.1,0,2.1,0.1,3.2,0.2c1.1,0.1,2.2,0.1,3.4,0.2
		c1.3,0.1,2.6,0.3,3.9,0.5c1.1,0.1,2.2,0.3,3.2,0.5c1.3,0.3,2.5,0.6,3.9,1c1,0.3,2,0.5,3.1,0.8c1.3,0.4,2.5,0.9,3.8,1.3
		c1,0.3,1.9,0.7,2.8,1.1c1.3,0.5,2.6,1.1,3.9,1.7c0.9,0.4,1.8,0.7,2.6,1.2l0,0.1l-14.1,24.3c-2.9-1.2-5.9-2.1-9-2.9
		c-2.6-0.6-5.1-1.1-7.4-1.4c-12.6-1.9-20.7,1.4-26.3,12.1c0,0-0.2,0.4-0.6,1.4C162.5,237.3,159.4,247.7,160.9,270.4z"/>
	<path style="&st0;" d="M281.3,450c-1.8,1.4-5,1-7.6,1.5c0.6-2.5,0.4-5.4,1.7-7.3c7.3-10,15.2-19.2,29.3-18.6c0.5,0,0.9,0.1,1.5,0.2
		c0.5,0.1,1.1,0.2,1.7,0.4c1.3,0.4,2.6,1,4.1,1.8c0.5,0.3,1.1,0.6,1.6,0.9c1.6,1,3.3,2.1,5,3.3h0c0.5,0.4,1.1,0.8,1.6,1.3
		c1.1,0.9,2.1,1.7,3.1,2.6c0.5,0.4,1,0.9,1.4,1.4c3.2,3.1,5.5,6.3,5.9,8.7c0.2,1.2-2.5,4.2-3.7,4.2c-2.7-0.2-5.4-1.8-8-2.9
		C305.9,441.9,293.3,440.1,281.3,450z"/>
	<path style="&st0;" d="M250.4,563c0-30.4,4.4-59.2,26.5-82.5c6.4-6.7,14.1-8.3,22.7-8.9c12.2-0.4,28.3,10.8,35.9,29.9
		c5.4,13.5,9,27.6,13.1,41.7c0.8,2.8,0.7,5.9,0.5,8.9c-0.4,6.3-4.3,7.5-8.9,4.7c-9-5.5-16.4-12-19.8-23.2
		c-2.7-8.8-9.1-16.9-15.1-24.2c-5.2-6.4-11.3-6.1-15.5,0.6c-6,9.9-11.1,20.5-15.4,31.3c-2.7,6.6,0,8.3,8,6.9c3.7-0.7,7.7-1.6,11.3-1
		c2.8,0.3,8.1,1,8,4c-0.2,2.8-5.1,2.5-7.8,3.1c-7.8,1.8-15.7,2.7-23.3,4.9c-5.1,1.5-9.9,4.3-14.6,7
		C252.2,567.9,250.4,567.3,250.4,563z"/>
	<path style="&st0;" d="M305.6,746.3c29.4,10.7,60.4,17,92.8,19.5l-2.9,20.4c-0.8,0-1.6,0-2.4-0.1c-10.5-0.5-20.8-1.4-30.7-2.6
		c-29.9-3.8-56.2-10.8-74.3-16.4c-1.3-0.4-2.6-0.8-3.8-1.2c-1.6-0.5-3.1-1-4.6-1.5c-2.7-1-5.1-1.8-7.2-2.4c-1.1-0.4-2.1-0.7-3-1.1
		c-3.7-1.4-6-2.3-6.5-2.7c-17.9-7.2-35-16.8-50.9-29.3c-17.1-13.6-30.7-29.1-41.5-46.3c-3.7-5.9-7-12-10.1-18.4
		c-0.1-0.4-0.4-0.7-0.6-1.1c-17.2-30.9-17.1-61.8-14.4-81.2c0.1-0.9,0.3-1.8,0.4-2.7c0.2-1.1,0.3-2.1,0.5-3.1c0.3-1.6,0.6-3,0.8-4.3
		c0.3-1.6,0.7-3.1,1-4.3c0.1-0.2,0.1-0.5,0.2-0.7c0.1-0.3,0.2-0.7,0.3-1c0.1-0.3,0.1-0.5,0.2-0.7c0.3-0.9,0.5-1.7,0.7-2.2
		c0-0.1,0.1-0.3,0.1-0.4c0-0.1,0.1-0.2,0.1-0.3c0-0.1,0.1-0.1,0.1-0.2c0-0.1,0-0.2,0-0.2c0.1-0.5,0.2-0.9,0.3-1.4
		c0.1-0.5,0.2-1,0.4-1.5c0.1-0.6,0.3-1.2,0.4-1.8c0-0.1,0-0.1,0.1-0.2c0.2-0.9,0.4-1.7,0.7-2.6c0.3-1.2,0.7-2.4,1.1-3.7
		c0.4-1.2,0.8-2.4,1.2-3.7c0.2-0.7,0.3-1.4,0.5-2.2c0.4-2.1,0.7-4.3,0.7-6.6c0-2.2-0.1-4.4-0.2-6.6h35.4c0.3,4,0.5,7.9,0.6,11.9
		c0.1,3.7,0.4,8.3-1.5,11.1c-14.7,21.8-13.8,46.8-10.1,70.2c6,37.5,27.4,66.2,59.3,87.5c19.5,13.1,39.8,23.6,60.8,31.8
		C301.7,744.8,303.6,745.6,305.6,746.3z"/>
	<path style="&st0;" d="M391.3,587.7c-0.7-3.2,1.6-8.3,4.3-10.8c8.3-7.5,31.9-9.2,41.2-2.8c3.7,2.6,7.8,8.1,7.5,12
		c-0.2,3.4-5.9,7.6-10,9.1c-5,1.9-11,1.3-17.7,1.9c-4.9-0.4-11-0.1-16.6-1.8C396.6,594.3,392.1,590.8,391.3,587.7z"/>
	<path style="&st0;" d="M411.2,722.1c-13.1-0.1-27.6-10.8-33.4-27.6c-2.8-8.3-5.7-16.6-7.2-25.2c-0.9-5.7-3.1-7.1-8.2-6.5
		c-11.2,1.4-21.1-2.7-30.9-7.6c-5.1-2.5-6.1-5.7-5.1-10.1c0.4-2,2.7-4.4,4.8-5.1c1.3-0.4,4.2,1.6,5.3,3.2c4.4,6.7,11.3,8.3,18.5,9.3
		c21.3,2.6,39.2-4.2,54.1-19.5c4.7-4.7,6.5-7.9,13.6,0c14.1,15.9,32.5,25.8,55.3,17.2c3.7-1.4,7-4,10.4-6.2c2.2-1.3,4.9-4.4,6-3.9
		c2.9,1.4,6,4,7,6.9c0.5,1.5-2.6,5.7-4.8,6.5c-9.9,3.6-19.8,7.2-29.9,9.2c-5.6,1.1-8,2.2-8.7,8.3c-1.6,13.4-6.3,26-13.8,37.2
		C437.2,718.5,426.7,722.6,411.2,722.1z"/>
	<path style="&st0;" d="M506.9,449.7c-1.4,0.5-2.9,0.4-4.4,0.6c-0.1-1.6-0.7-3.4-0.2-4.7c7.5-19.6,32.7-25,47.3-10.1
		c3.9,3.9,6.9,8.4,10.3,12.8c0.7,0.9,1.1,2.2,2.7,5.4c-3.4-1.1-5.6-1.2-7-2.2c-10.1-7.6-21.3-11-33.7-7.9
		C516.6,444.6,511.9,447.6,506.9,449.7z"/>
	<path style="&st0;" d="M501.7,486.7c19.1-24.1,43.5-18.2,57,6.2c10.1,18.2,14.8,38.3,16,57.6c0,4.6,1.1,8.3-0.3,10.4
		c-1.5,2.3-6.6,5.1-7.9,4.3c-11.6-7.5-24.3-10.5-37.9-11.1c-2.4-0.1-4.7-1.5-7-2.4c-1.1-0.4-2-0.9-3-1.3c1.2-0.5,2.2-1.4,3.4-1.5
		c7.2-0.5,14.8-2.5,21.5-0.9c7.4,1.7,9.5-0.5,7.4-6.2c-4.1-11-8.9-21.7-14.5-31.9c-3.4-6.2-10.3-7.5-15-1.5
		c-6.3,8.2-12.5,17.1-16.2,26.6c-4.5,11.3-13.1,17.1-23.2,21.6c-0.8,0.4-4.3-2.2-4.2-3.2C480.3,529.3,486.5,505.9,501.7,486.7z"/>
	<path style="&st0;" d="M684.6,598.4c0.1,2.6,0.2,5.2,0.1,7.8c-0.1,1.5-0.2,2.9-0.3,4.4c-0.2,2.3-0.3,4.7-0.5,6.9
		c-0.1,0.8-0.2,1.7-0.4,2.5c-0.1,0.8-0.2,1.6-0.4,2.4c-0.3,2.2-0.6,4.3-1,6.3c-0.4,1.8-0.7,3.5-1.2,5.2c-0.5,2-0.9,4-1.5,6
		c-0.5,1.8-1.1,3.5-1.6,5.3c-0.3,0.9-0.6,2-0.9,2.9c-0.3,1-0.7,2-1,3c-0.6,1.7-1.3,3.4-1.9,5c-0.2,0.6-0.4,1.1-0.7,1.7
		c-0.2,0.6-0.4,1.2-0.7,1.8c0,0,0,0-0.1,0.1c0,0,0,0.1,0,0.2c0,0.2-0.1,0.5-0.3,1c-0.6,1.9-2,5.7-4.9,11.2c-0.2,0.4-0.5,0.8-0.7,1.2
		c-0.2,0.4-0.5,0.8-0.7,1.3c-0.5,0.8-1,1.7-1.5,2.6c0,0,0,0.1-0.1,0.1c-0.5,0.9-1.1,1.8-1.8,2.8c-0.3,0.5-0.7,1.1-1.1,1.7
		c-0.9,1.3-1.8,2.6-2.8,4c-1,1.4-2,2.7-3.1,4.2c-0.1,0.2-0.3,0.3-0.3,0.5c-0.1,0.1-0.1,0.1-0.2,0.2c-1.6,2-3.3,4.1-5.2,6.3l-0.1,0.1
		c-1.4,1.7-3,3.6-4.7,5.4c-0.1,0.1-0.2,0.3-0.3,0.4c-0.1,0.1-0.3,0.3-0.4,0.4c0,0-0.1,0.1-0.1,0.1c-0.6,0.7-1.3,1.4-2,2.2
		c-0.9,1-1.8,2-2.7,3c0,0-0.1,0.1-0.1,0.1c-2.7,2.8-5.5,5.6-8.5,8c-5.4,4.4-11,8.6-16.7,12.8c0,0-0.1,0.1-0.1,0.1
		c-2.1,1.5-25,17-67.4,31.6c-23.7,8-53.4,15.8-89.2,20.6c-2.2,0.4-4.5,0.8-7.1,1c-0.1,0-0.1,0-0.2,0c-1.8,0.1-8.2,1.6-10,1.6
		c-0.9,0-1.8,0-2.7,0.1c-1.1,0.1-2.1,0.2-3.2,0.3l-2.7-19l-0.1-0.7c20.5-2,33.4-5.6,52.1-9.1c18.9-3.6,37.3-9,54.9-16.6
		c6.4-2.7,12.7-5.8,18.9-9.2c17.8-9.7,36.2-19.8,51.2-33.2c18-16.1,32.4-36.4,37.9-61c1.3-5.8,2.7-11.5,3.8-17.3
		c0.2-1,0.4-2.1,0.5-3.1c0,0,0,0,0-0.1c0.3-2,0.6-4.1,0.8-6.1c0.1-1.3,0.2-2.5,0.2-3.8c0-0.8,0.1-1.6,0.1-2.4c0-1.1,0-2.2-0.1-3.2
		c0-0.8-0.1-1.5-0.2-2.3c0-0.1,0-0.2,0-0.3c-0.1-0.7-0.2-1.4-0.3-2.1c-0.3-2.3-0.8-4.6-1.6-7c-3.1-9.9-5.6-20-7.8-30
		c-0.9-4.6-0.4-9.4-0.1-14c0.1-1.1,0.2-2.2,0.3-3.3c0.2-2.1,0.4-4.1,0.7-6.2c0.1-1.1,0.3-2.1,0.4-3.2h35.2
		c-1.7,12.7,0.2,26.6,3.1,39.2c0.9,4,1.6,8,2.1,12c0.2,0.9,0.2,1.8,0.2,2.7c0.4,3,0.7,6,0.9,9.1V598.4z"/>
	<path style="&st0;" d="M685.9,296.5l31.3,0c0,0,0,0,0,0.1c-0.3,1.4-0.6,2.8-0.9,4.3c-0.6,2.8-1.3,5.6-2,8.4
		c-0.3,1.4-0.7,2.8-1.1,4.3c-0.7,2.7-1.4,5.5-2.2,8.3l0,0l0.1,0c-1.2,4.5-2.4,9-3.7,13.5c0,0.1,0,0.1-0.1,0.2
		c-3.7,13.4-7.7,26.8-11.9,40.1c0,0.1,0,0.1-0.1,0.2c-5.5,17.8-11.3,35.5-17.2,53.1c-0.2,0.6-0.4,1.3-0.6,1.9
		c-0.3,1.1-0.6,2.2-0.8,3.3c-1.7,9.1-0.4,17.5,0.2,26.7c1,14,3.2,28,3.6,42.1h-37.5c-0.8-9.2-2-18.4-3-27.6c-0.3-3.1-0.6-6.1-1-9.2
		c-2.2-22.9-11.7-43.2-23.1-62.6c-1.1-1.8-2.2-3.6-3.4-5.3c-11.5-17.9-26.7-32.6-42.9-46.1c-7.4-6.2-16.1-11.7-26.4-9.3
		c-7.2,1.7-14.2,4.9-20.6,8.6c-27.1,15.9-45.3,39.9-58,68.1c-3.5,7.8-4.5,16.7-7,25.1c-2.2,7.5-5.7,15.6-13.9,16.5
		c-14,1.4-28.3-0.4-42.4,0.8c-11.1,1-14.8-6.5-19.5-13.3c-2.1-2.9-2.5-6.9-4.2-10.3c-9.4-19.4-18.2-39.1-28.7-57.8
		c-4.6-8.3-12.1-15.5-19.7-21.4c-7.1-5.5-15.6-9.7-24.2-12.4c-9.2-2.9-19-8.8-28.9-1.8c-20.6,14.7-38.6,31.9-53.3,52.6
		c-1.4,1.9-2.7,3.9-4,5.8c-16.6,25.1-25.8,52.9-29.4,82c-0.2,1.2-0.3,2.3-0.4,3.5c-0.1,1.3-0.2,2.5-0.3,3.7
		c-0.1,1.2-0.1,2.4-0.2,3.6c-0.1,2.3-0.1,4.7,0,7h-34.6c-0.1-3.9-0.1-7.8-0.1-11.7c-0.2-2.4-0.2-4.9-0.2-7.4c0-1.2,0-2.3,0-3.5
		c0-0.2,0-0.4,0-0.6c0-0.5,0-0.9,0-1.4c0-1.3,0.1-2.6,0.2-3.9c0.1-1.3,0.2-2.5,0.3-3.8c0-0.7,0.1-1.5,0.2-2.2
		c0.1-1.3,0.3-2.6,0.5-3.9c0.8-5.5,1.9-11,3.3-16.4c0.3-1.1,0.6-2.1,0.9-3.2c0.3-1.1,0.6-2.1,0.9-3.2c0.3-1.1,0.7-2.1,1.1-3.2
		c0.1-0.3,0.2-0.6,0.3-0.9c0.2-0.5,0.3-1.1,0.4-1.6c0.1-0.3,0.1-0.5,0.2-0.8c0-0.2,0.1-0.3,0.1-0.5c0-0.2,0.1-0.3,0.1-0.5
		c0.7-4.3,0.1-8.4-0.9-12.4c-0.6-2.7-1.6-5.4-2.4-8c-0.8-2.7-1.6-5.3-2.2-8c-6.7-34.4-14.3-68.5-22.5-102.5c-0.5-2.2-1-4.3-1.5-6.5
		l31,0c0.5,3.3,1.1,6.4,1.7,9.6c3.9,20.1,8.4,40.1,13,60c0.5,2.5,3.1,4.6,4.8,6.9c1.6-2.3,3.7-4.4,4.7-7c0.9-2.3,0.9-5.1,0.4-7.6
		c-1.8-10.3-4-20.6-6.2-30.9c-2.2-10.3-4.9-20.6-6.6-31c-1.2-7.3,2-10.9,10.1-11.3c8.1-0.3,13.1,2.5,15.6,10.1
		c1.6,5.2,3.5,10.4,5.1,15.6c0.1,0.5,0.3,1.1,0.5,1.4c1.5,4,2.8,3.3,6.3-0.6c13.1-15,26.5-29.6,43.2-40.9c4.7-3.2,4-7,1.1-10.1
		c-4-4.3-8.9-7.7-13.5-11.5c-6.1-5.1-12.3-10.2-18.9-14.6l14.5-23l0,0c3.6,2.4,7,5,10.4,7.7c10.2,8,19.9,16.6,30.3,24.5
		c0.7,0.5,1.6,0.9,2.5,1.2c0.1,0.1,0.2,0.1,0.3,0.1c0.1,0,0.2,0.1,0.3,0c0.1,0,0.2,0,0.3,0c0.7,0.1,1.4,0.3,2.1,0.3h2.2
		c0.7-0.1,1.5-0.4,2-0.6c25.6-14.9,53-24.3,82.1-28.8c9.2-1.4,18.4-2.3,27.7-3.5c9.2-0.1,18.4-0.2,27.6-0.2
		c27.4,1.4,54.3,5.9,79.6,16.6c16.8,7,32.6,16.1,48.7,24.6c0.7,0.4,1.4,0.7,2.1,1.1c0,0,0.1,0,0.1,0c0.3,0.1,0.5,0.2,0.8,0.3
		c0.3,0.1,0.5,0.3,0.8,0.4c0.1,0,0.2,0,0.3,0c0.2,0.1,0.5,0.3,0.8,0.3c0.3,0.1,0.6,0.3,0.9,0.3c0.2,0.1,0.3,0.1,0.4,0.1
		c0.1,0,0.1,0,0.2,0h1.2c0.4,0,0.7-0.2,1.1-0.2h0.7c0.4-0.1,0.8-0.3,1.2-0.5c0.2-0.1,0.4-0.1,0.7-0.3c0.4-0.2,0.9-0.6,1.3-1
		c0.2-0.2,0.4-0.3,0.7-0.5c0.3-0.2,0.6-0.5,0.8-0.7c0,0,0.1,0,0.1-0.1l0.1,0c0.3-0.3,0.6-0.6,0.8-0.9l0.4-0.4
		c4.6-5.1,9.2-10,14-14.9c1-1,2-2,3-3c3-3,6.1-5.9,9.3-8.7c2.1-1.9,4.3-3.7,6.5-5.5c1.1-0.9,2.2-1.8,3.4-2.6
		c1.1-0.9,2.2-1.7,3.4-2.5c0.3-0.2,0.6-0.4,1-0.7c0.3-0.2,0.7-0.4,1-0.7c-0.7,0.4-1.3,0.9-2,1.4l15.5,24.6c-1.8,1.3-3.6,2.5-5.4,3.8
		c0,0,0,0,0,0c-1.8,1.3-3.5,2.7-5.2,4.1c-1.7,1.4-3.5,2.8-5.1,4.3c-3.4,2.9-6.7,5.9-9.9,8.9c-1.5,1.4-2.9,2.8-4.3,4.2
		c-1.8,1.7-3.5,3.5-5.2,5.3c-1.6,1.6-3.1,3.2-4.7,4.9c-2.6,2.8-2.2,3.7,0.9,6.6c13.8,13.4,26.8,27.5,39.7,41.7
		c0.3,0.3,0.6,0.7,0.9,1c3.8,4.2,6.1,5.2,8.4-0.5c1.2-2.8,1.4-5.8,2.6-8.5c3.2-6.8,5.4-14.8,10.4-19.7c3.8-3.6,10.6-9.2,17.6-3.4
		c4.1,3.3,2.5,10.6,2.6,11.1c0.2,2.8-0.6,5.9-1.4,8.7c-5.2,20.8-11.3,41.4-15.4,62.4c-1.1,5.4,3.6,12.1,5.6,18.1
		c1.1-0.8,3-1.4,3.3-2.5c4-14.6,8.4-29.2,12-43.9c0,0,0.3-0.9,0.7-2.7c0.1-0.3,0.2-0.7,0.3-1.1c0.2-0.8,0.5-1.8,0.8-2.8
		c0.1-0.5,0.3-1.1,0.4-1.7c0-0.2,0.1-0.3,0.1-0.5c0.2-0.8,0.4-1.8,0.7-2.8c0.5-2.1,1.2-4.5,1.8-7.1c0.7-3,1.5-6.2,2.3-9.6
		c0.1-0.3,0.1-0.6,0.2-0.8c0.2-0.9,0.4-1.9,0.6-2.8c0.1-0.2,0.1-0.4,0.1-0.6c0.8-3.6,1.6-7.4,2.4-11.3c0-0.1,0-0.2,0-0.2
		C685.3,299.7,685.6,298.1,685.9,296.5z"/>
	<path style="&st0;" d="M721.1,270.4h-31.2c0-0.2,0-0.4,0.1-0.6c0.4-4.1,0.8-8.1,0.9-11.9c0.3-8.7-0.2-16.2-2.1-21.4
		c-0.2-0.5-0.4-0.9-0.5-1.3c-0.3-0.6-0.6-1.1-0.9-1.6c-0.1-0.2-0.3-0.5-0.4-0.7c-6.9-11.6-19.4-14.8-30.3-10.4
		c-4,1.6-7.8,3.3-11.4,5.2c-0.3,0.1-0.6,0.3-0.9,0.5l-14.6-25.1c-0.9,0.4-1.8,0.9-2.6,1.4c0.4-0.2,0.8-0.4,1.2-0.7
		c0.4-0.3,0.9-0.5,1.4-0.7c2.7-1.4,5.4-2.6,8.3-3.8c4.3-1.8,8.7-3.3,13.1-4.3c2.7-0.7,5.5-1.3,8.3-1.6c0.3-0.1,0.6-0.1,0.9-0.2
		c2.6-0.4,5.2-0.5,7.8-0.5h1.6c1.1,0,2,0.1,3.1,0.1c0.7,0.1,1.4,0.2,2.2,0.2c1.1,0.1,2.1,0.3,3.2,0.4c0.6,0.1,1.3,0.2,2,0.3
		c1.2,0.2,2.3,0.5,3.5,0.8c0.6,0.1,1.2,0.2,1.8,0.4c1.7,0.5,3.5,1.1,5.2,1.7c5.8,2.2,10.7,5,14.5,8.4c1.5,1.3,2.8,2.6,4.1,4.1v0
		c1.3,1.4,2.4,2.9,3.4,4.5c2.1,3.1,3.7,6.5,5,10.1c2.6,7.1,3.7,15.1,4.1,23.4C722.2,254.9,721.9,262.7,721.1,270.4z"/>
	<path style="&st0;" d="M721.9,247.1c-0.4-8.3-1.5-16.3-4.1-23.4c-1.3-3.6-2.9-7-5-10.1c-1-1.6-2.1-3.1-3.4-4.5v0
		c-1.3-1.5-2.6-2.8-4.1-4.1c-3.9-3.4-8.7-6.3-14.5-8.4c-1.7-0.6-3.5-1.2-5.2-1.7c-0.6-0.2-1.2-0.2-1.8-0.4c-1.2-0.3-2.3-0.6-3.5-0.8
		c-0.7-0.1-1.4-0.2-2-0.3c-1.1-0.2-2.2-0.3-3.2-0.4c-0.7,0-1.4-0.1-2.2-0.2c-1,0-2-0.1-3.1-0.1h-1.6c-2.6,0-5.2,0.1-7.8,0.5
		c-0.4,0.1-0.7,0.1-0.9,0.2c-2.8,0.4-5.5,0.9-8.3,1.6c-4.3,1.1-8.7,2.5-13.1,4.3c-2.8,1.2-5.6,2.4-8.3,3.8c-0.5,0.2-0.9,0.5-1.4,0.7
		c-0.4,0.2-0.8,0.5-1.2,0.7c0.8-0.5,1.7-0.9,2.6-1.4l14.6,25.1c0.3-0.2,0.6-0.3,0.9-0.5c3.7-1.9,7.5-3.7,11.4-5.2
		c10.9-4.4,23.4-1.2,30.3,10.4c0.1,0.2,0.3,0.5,0.4,0.7c0.3,0.5,0.6,1.1,0.9,1.6c0.2,0.4,0.3,0.8,0.5,1.3c1.9,5.2,2.4,12.7,2.1,21.4
		c-0.1,3.8-0.5,7.7-0.9,11.9c0,0.2,0,0.4-0.1,0.6h31.2C721.9,262.7,722.2,254.9,721.9,247.1z M305.6,746.3c-2-0.7-3.9-1.5-5.9-2.2
		c-21-8.2-41.3-18.7-60.8-31.8c-31.9-21.3-53.4-50-59.3-87.5c-3.7-23.4-4.6-48.4,10.1-70.2c1.9-2.8,1.6-7.3,1.5-11.1
		c-0.1-4-0.3-7.9-0.6-11.9h-35.4c0.1,2.2,0.2,4.4,0.2,6.6c0,2.2-0.3,4.5-0.7,6.6c-0.2,0.7-0.3,1.5-0.5,2.2c-0.4,1.2-0.8,2.4-1.2,3.7
		c-0.4,1.3-0.7,2.5-1.1,3.7c-0.2,0.9-0.5,1.7-0.7,2.6c0,0.1,0,0.1-0.1,0.2c-0.1,0.6-0.3,1.2-0.4,1.8c-0.1,0.5-0.3,1-0.4,1.5
		c-0.1,0.4-0.2,0.9-0.3,1.4c0,0,0,0.1,0,0.2c0,0,0,0.1-0.1,0.2c0,0.1-0.1,0.2-0.1,0.3c0,0.1-0.1,0.2-0.1,0.4
		c-0.2,0.5-0.4,1.3-0.7,2.2c-0.1,0.2-0.1,0.5-0.2,0.7c-0.1,0.3-0.2,0.6-0.3,1c0,0.2-0.1,0.4-0.2,0.7c-0.3,1.3-0.7,2.7-1,4.3
		c-0.3,1.3-0.6,2.7-0.8,4.3c-0.2,1-0.3,2-0.5,3.1c-0.1,0.9-0.3,1.8-0.4,2.7c-2.7,19.4-2.8,50.4,14.4,81.2c0.2,0.4,0.4,0.7,0.6,1.1
		c3.1,6.3,6.4,12.4,10.1,18.4c10.8,17.3,24.4,32.8,41.5,46.3c15.9,12.6,32.9,22.1,50.9,29.3c0.6,0.4,2.9,1.3,6.5,2.7
		c0.9,0.3,1.9,0.7,3,1.1c2.1,0.7,4.5,1.5,7.2,2.4c1.5,0.5,3,1,4.6,1.5c1.2,0.4,2.5,0.8,3.8,1.2c18.1,5.6,44.4,12.6,74.3,16.4
		c9.9,1.3,20.2,2.1,30.7,2.6c0.8,0,1.6,0.1,2.4,0.1l2.9-20.4C366,763.3,335,757,305.6,746.3z M685.9,296.5c-0.3,1.6-0.6,3.2-0.9,4.8
		c0,0.1,0,0.1,0,0.2c-0.8,3.9-1.6,7.7-2.4,11.3c0,0.2-0.1,0.4-0.1,0.6c-0.2,0.9-0.4,1.9-0.6,2.8c-0.1,0.3-0.1,0.5-0.2,0.8
		c-0.8,3.4-1.6,6.6-2.3,9.6c-0.6,2.6-1.3,5-1.8,7.1c-0.3,1-0.5,1.9-0.7,2.8c-0.1,0.2-0.1,0.3-0.1,0.5c-0.2,0.6-0.3,1.1-0.4,1.7
		c-0.3,1.1-0.5,2-0.8,2.8c-0.1,0.4-0.2,0.8-0.3,1.1c-0.5,1.8-0.7,2.7-0.7,2.7c-3.6,14.7-8,29.3-12,43.9c-0.3,1.1-2.1,1.6-3.3,2.5
		c-2-6-6.7-12.7-5.6-18.1c4.1-21,10.1-41.6,15.4-62.4c0.7-2.8,1.6-5.9,1.4-8.7c-0.1-0.5,1.5-7.8-2.6-11.1
		c-7.1-5.7-13.8-0.2-17.6,3.4c-5.1,4.9-7.3,12.9-10.4,19.7c-1.2,2.7-1.4,5.7-2.6,8.5c-2.3,5.7-4.6,4.7-8.4,0.5
		c-0.3-0.3-0.6-0.7-0.9-1c-12.8-14.2-25.9-28.3-39.7-41.7c-3.1-3-3.5-3.8-0.9-6.6c1.6-1.6,3.1-3.3,4.7-4.9c1.7-1.8,3.5-3.5,5.2-5.3
		c1.4-1.4,2.9-2.8,4.3-4.2c3.3-3.1,6.5-6,9.9-8.9c1.7-1.5,3.4-2.9,5.1-4.3c1.7-1.4,3.5-2.7,5.2-4.1c0,0,0,0,0,0
		c1.8-1.3,3.6-2.6,5.4-3.8l-15.5-24.6c0.7-0.5,1.3-1,2-1.4c-0.3,0.2-0.7,0.4-1,0.7c-0.4,0.2-0.7,0.4-1,0.7c-1.2,0.8-2.3,1.7-3.4,2.5
		c-1.1,0.8-2.2,1.7-3.4,2.6c-2.2,1.8-4.3,3.6-6.5,5.5c-3.2,2.8-6.3,5.7-9.3,8.7c-1,1-2,2-3,3c-4.8,4.8-9.4,9.8-14,14.9l-0.4,0.4
		c-0.3,0.3-0.6,0.6-0.8,0.9l-0.1,0c0,0,0,0.1-0.1,0.1c-0.2,0.2-0.5,0.5-0.8,0.7c-0.2,0.2-0.4,0.4-0.7,0.5c-0.4,0.4-0.9,0.7-1.3,1
		c-0.2,0.2-0.4,0.2-0.7,0.3c-0.4,0.2-0.8,0.4-1.2,0.5H565c-0.4,0-0.7,0.2-1.1,0.2h-1.2c-0.1,0-0.1,0-0.2,0c-0.1,0-0.2-0.1-0.4-0.1
		c-0.3,0-0.7-0.1-0.9-0.3c-0.3,0-0.6-0.2-0.8-0.3c-0.1,0-0.2,0-0.3,0c-0.3-0.1-0.6-0.3-0.8-0.4c-0.3-0.1-0.5-0.2-0.8-0.3
		c0,0-0.1,0-0.1,0c-0.7-0.4-1.3-0.7-2.1-1.1c-16.1-8.5-32-17.6-48.7-24.6c-25.3-10.7-52.2-15.2-79.6-16.6c-9.3,0-18.5,0.1-27.6,0.2
		c-9.3,1.2-18.5,2.1-27.7,3.5c-29.1,4.5-56.5,13.9-82.1,28.8c-0.5,0.3-1.3,0.5-2,0.6h-2.2c-0.7,0-1.4-0.1-2.1-0.3
		c-0.1,0-0.2,0-0.3,0c-0.1,0-0.2,0-0.3,0c-0.1,0-0.2,0-0.3-0.1c-1-0.3-1.9-0.7-2.5-1.2c-10.4-7.8-20-16.5-30.3-24.5
		c-3.4-2.7-6.9-5.2-10.4-7.7l0,0l-14.5,23c6.5,4.4,12.8,9.5,18.9,14.6c4.5,3.8,9.5,7.2,13.5,11.5c3,3.2,3.7,7-1.1,10.1
		c-16.7,11.3-30.2,26-43.2,40.9c-3.4,3.9-4.8,4.6-6.3,0.6c-0.2-0.4-0.4-0.9-0.5-1.4c-1.6-5.2-3.4-10.3-5.1-15.6
		c-2.5-7.5-7.5-10.3-15.6-10.1c-8.1,0.4-11.3,4-10.1,11.3c1.8,10.4,4.5,20.7,6.6,31c2.2,10.3,4.3,20.6,6.2,30.9
		c0.5,2.5,0.5,5.3-0.4,7.6c-0.9,2.5-3.1,4.6-4.7,7c-1.7-2.2-4.2-4.3-4.8-6.9c-4.6-19.9-9.1-39.9-13-60c-0.6-3.2-1.2-6.4-1.7-9.6
		l-31,0c0.4,2.2,0.9,4.4,1.5,6.5c8.2,34,15.8,68.1,22.5,102.5c0.5,2.7,1.4,5.3,2.2,8c0.8,2.7,1.7,5.4,2.4,8c1,4,1.6,8.1,0.9,12.4
		c0,0.1-0.1,0.3-0.1,0.5c0,0.1-0.1,0.3-0.1,0.5c0,0.3-0.1,0.5-0.2,0.8c-0.1,0.5-0.2,1.1-0.4,1.6c-0.1,0.3-0.2,0.6-0.3,0.9
		c-0.3,1.1-0.7,2.1-1.1,3.2c-0.3,1.1-0.6,2.1-0.9,3.2c-0.3,1.1-0.6,2.2-0.9,3.2c-1.4,5.4-2.5,10.8-3.3,16.4
		c-0.2,1.3-0.3,2.6-0.5,3.9c-0.1,0.7-0.2,1.4-0.2,2.2c-0.1,1.3-0.2,2.5-0.3,3.8c-0.1,1.3-0.2,2.6-0.2,3.9c0,0.5,0,0.9,0,1.4
		c0,0.2,0,0.4,0,0.6c0,1.2,0,2.3,0,3.5c0,2.4,0,4.9,0.2,7.4c0,3.9,0,7.8,0.1,11.7h34.6c-0.1-2.3-0.1-4.7,0-7c0-1.2,0.1-2.4,0.2-3.6
		c0.1-1.2,0.1-2.4,0.3-3.7c0.1-1.1,0.2-2.3,0.4-3.5c3.6-29.1,12.8-56.9,29.4-82c1.3-1.9,2.6-3.9,4-5.8
		c14.7-20.7,32.7-37.9,53.3-52.6c9.8-7,19.7-1.1,28.9,1.8c8.6,2.7,17.1,6.9,24.2,12.4c7.6,5.9,15.1,13.1,19.7,21.4
		c10.5,18.8,19.3,38.5,28.7,57.8c1.7,3.4,2.1,7.4,4.2,10.3c4.6,6.8,8.3,14.3,19.5,13.3c14.1-1.3,28.4,0.6,42.4-0.8
		c8.1-0.8,11.7-8.9,13.9-16.5c2.4-8.3,3.5-17.2,7-25.1c12.7-28.2,30.9-52.2,58-68.1c6.3-3.7,13.4-6.9,20.6-8.6
		c10.2-2.4,18.9,3.2,26.4,9.3c16.2,13.6,31.5,28.3,42.9,46.1c1.2,1.7,2.3,3.5,3.4,5.3c11.4,19.4,20.9,39.7,23.1,62.6
		c0.3,3.1,0.6,6.1,1,9.2c1,9.2,2.2,18.4,3,27.6h37.5c-0.4-14.1-2.6-28.1-3.6-42.1c-0.6-9.2-2-17.6-0.2-26.7c0.2-1.1,0.5-2.2,0.8-3.3
		c0.2-0.6,0.4-1.3,0.6-1.9c5.9-17.6,11.7-35.3,17.2-53.1c0,0,0.1-0.1,0.1-0.2c4.2-13.3,8.2-26.7,11.9-40.1c0,0,0.1-0.1,0.1-0.2
		c1.3-4.5,2.5-9,3.7-13.5l-0.1,0l0,0c0.7-2.7,1.5-5.5,2.2-8.3c0.3-1.4,0.7-2.9,1.1-4.3c0.7-2.8,1.3-5.6,2-8.4
		c0.3-1.5,0.6-2.9,0.9-4.3c0,0,0-0.1,0-0.1L685.9,296.5z M684.6,598.4v-3.7c-0.1-3.1-0.5-6.1-0.9-9.1c-0.1-0.9-0.1-1.8-0.2-2.7
		c-0.5-3.9-1.3-8-2.1-12c-2.9-12.6-4.8-26.5-3.1-39.2H643c-0.1,1.1-0.2,2.1-0.4,3.2c-0.2,2.1-0.5,4.1-0.7,6.2
		c-0.1,1.1-0.2,2.2-0.3,3.3c-0.3,4.6-0.7,9.5,0.1,14c2.2,10,4.7,20.1,7.8,30c0.7,2.3,1.2,4.6,1.6,7c0.1,0.7,0.2,1.4,0.3,2.1
		c0,0.1,0,0.2,0,0.3c0.1,0.8,0.1,1.5,0.2,2.3c0.1,1.1,0.1,2.1,0.1,3.2c0,0.8,0,1.6-0.1,2.4c0,1.3-0.1,2.5-0.2,3.8
		c-0.2,2-0.5,4.1-0.8,6.1c0,0,0,0,0,0.1c-0.2,1-0.3,2.1-0.5,3.1c-1.1,5.8-2.6,11.6-3.8,17.3c-5.4,24.6-19.8,44.9-37.9,61
		c-15,13.4-33.3,23.5-51.2,33.2c-6.2,3.4-12.5,6.4-18.9,9.2c-17.6,7.6-36,13-54.9,16.6c-18.6,3.5-31.6,7.1-52.1,9.1l0.1,0.7l2.7,19
		c1.1-0.1,2.1-0.2,3.2-0.3c1-0.1,1.9-0.1,2.7-0.1c1.8-0.1,8.2-1.6,10-1.6c0.1,0,0.1,0,0.2,0c2.6-0.2,4.9-0.6,7.1-1
		c35.7-4.8,65.4-12.5,89.2-20.6c42.4-14.6,65.3-30.1,67.4-31.6c0.1,0,0.1-0.1,0.1-0.1c5.7-4.1,11.3-8.3,16.7-12.8
		c3-2.4,5.8-5.2,8.5-8c0-0.1,0.1-0.1,0.1-0.1c0.9-1,1.8-2,2.7-3c0.7-0.8,1.4-1.5,2-2.2c0,0,0.1-0.1,0.1-0.1c0.1-0.1,0.2-0.3,0.4-0.4
		c0.1-0.1,0.2-0.3,0.3-0.4c1.7-1.9,3.3-3.7,4.7-5.4l0.1-0.1c1.9-2.2,3.6-4.2,5.2-6.3c0-0.1,0.1-0.2,0.2-0.2c0.1-0.2,0.2-0.3,0.3-0.5
		c1.1-1.4,2.1-2.8,3.1-4.2c1-1.4,1.9-2.7,2.8-4c0.3-0.6,0.7-1.1,1.1-1.7c0.6-1,1.2-1.9,1.8-2.8c0,0,0-0.1,0.1-0.1
		c0.5-0.9,1.1-1.8,1.5-2.6c0.2-0.4,0.5-0.8,0.7-1.3c0.2-0.4,0.4-0.8,0.7-1.2c3-5.5,4.3-9.4,4.9-11.2c0.1-0.4,0.2-0.8,0.3-1
		c0-0.1,0.1-0.2,0-0.2c0.1-0.1,0.1-0.1,0.1-0.1c0.3-0.6,0.5-1.2,0.7-1.8c0.2-0.6,0.5-1.1,0.7-1.7c0.7-1.7,1.4-3.4,1.9-5
		c0.3-1,0.7-1.9,1-3c0.3-1,0.6-2,0.9-2.9c0.5-1.8,1.1-3.5,1.6-5.3c0.6-1.9,1-4,1.5-6c0.4-1.7,0.8-3.4,1.2-5.2c0.4-2.1,0.7-4.2,1-6.3
		c0.2-0.8,0.2-1.6,0.4-2.4c0.2-0.8,0.2-1.7,0.4-2.5c0.2-2.2,0.4-4.6,0.5-6.9c0.1-1.5,0.2-2.9,0.3-4.4
		C684.7,603.6,684.7,601,684.6,598.4z M218.8,199.3c-1.3-0.6-2.5-1.2-3.9-1.7c-0.9-0.4-1.9-0.7-2.8-1.1c-1.3-0.4-2.5-1-3.8-1.3
		c-1.1-0.3-2.1-0.5-3.1-0.8c-1.3-0.4-2.6-0.7-3.9-1c-1.1-0.2-2.2-0.4-3.2-0.5c-1.3-0.2-2.6-0.5-3.9-0.5c-1.1-0.1-2.2-0.1-3.4-0.2
		c-1.1-0.1-2.2-0.2-3.2-0.2H186c-1.1,0-2.2,0.1-3.4,0.2c-14.9,1.2-26.9,5.7-35.6,13.3c-0.6,0.5-1.2,1-1.7,1.6
		c-0.6,0.6-1.2,1.2-1.7,1.7c-0.6,0.6-1.2,1.3-1.7,2c-1.3,1.5-2.5,3.2-3.6,4.9c-0.6,1-1.2,1.9-1.7,2.9c-2,3.6-3.6,7.6-4.7,11.9
		c-1.4,5.3-2.2,11-2.4,17.2c-0.1,2.9-0.1,5.8-0.1,8.8c0,4.7,0.1,9.4,0.4,14.1h31.2c-1.5-22.7,1.6-33.1,3.1-36.4
		c0.4-1,0.6-1.4,0.6-1.4c5.6-10.7,13.7-13.9,26.3-12.1c2.3,0.2,4.8,0.7,7.4,1.4c3.1,0.8,6.1,1.7,9,2.9l14.1-24.3l0-0.1
		C220.6,200,219.7,199.6,218.8,199.3z"/>
	<path style="&st0;" d="M501.4,646.9c-1-2.8-4.1-5.4-7-6.9c-1.1-0.5-3.9,2.6-6,3.9c-3.4,2.2-6.7,4.8-10.4,6.2
		c-22.8,8.7-41.1-1.3-55.3-17.2c-7.1-7.9-9-4.7-13.6,0c-14.9,15.3-32.8,22.1-54.1,19.5c-7.1-0.9-14-2.5-18.5-9.3
		c-1.1-1.6-4-3.6-5.3-3.2c-2,0.7-4.3,3.1-4.8,5.1c-1,4.3,0,7.6,5.1,10.1c9.9,4.9,19.7,9,30.9,7.6c5.1-0.6,7.3,0.9,8.2,6.5
		c1.4,8.6,4.3,16.9,7.2,25.2c5.8,16.8,20.3,27.5,33.4,27.6c15.5,0.5,26-3.6,32.9-13.9c7.5-11.2,12.2-23.8,13.8-37.2
		c0.7-6.1,3.2-7.2,8.7-8.3c10.1-2,20-5.6,29.9-9.2C498.8,652.6,502,648.4,501.4,646.9z"/>
	<path style="&st1;" d="M437.4,696.8c0.1,3.8-0.7,7.1-2.5,9.7c0,0,0,0,0,0c-0.3,0.5-0.6,0.9-1,1.4c-0.1,0.2-0.3,0.3-0.5,0.5
		c-0.1,0.1-0.3,0.3-0.4,0.4c-0.4,0.4-0.8,0.8-1.3,1.2c-0.5,0.4-1,0.7-1.5,1.1c-3.7,2.2-8.6,3.4-14.7,3.4
		c-13.5,0.1-26.4-9.4-26.4-19.4c0-0.7,0.3-1.5,0.7-2.4c0.2-0.3,0.3-0.6,0.5-0.9c0.2-0.4,0.5-0.8,0.8-1.2c0.1,0,0.1-0.1,0.1-0.2
		c0.3-0.4,0.7-0.9,1.2-1.4c0.7-0.9,1.6-1.8,2.6-2.7c1.1-0.9,2.2-1.9,3.4-2.8c5.3-4.2,11.7-7.7,15.7-7.6
		C422.6,676,437.2,688.9,437.4,696.8z"/>
	<path style="&st0;" d="M349.2,552c-0.4,6.3-4.3,7.5-8.9,4.7c-9-5.5-16.4-12-19.8-23.2c-2.7-8.8-9.1-16.9-15.1-24.2
		c-5.2-6.4-11.3-6.1-15.5,0.6c-6,9.9-11.1,20.5-15.4,31.3c-2.7,6.6,0,8.3,8,6.9c3.7-0.7,7.7-1.6,11.3-1c2.8,0.3,8.1,1,8,4
		c-0.2,2.8-5.1,2.5-7.8,3.1c-7.8,1.8-15.7,2.7-23.3,4.9c-5.1,1.5-9.9,4.3-14.6,7c-3.8,2-5.6,1.4-5.6-3c0-30.4,4.4-59.2,26.5-82.5
		c6.4-6.7,14.1-8.3,22.7-8.9c12.2-0.4,28.3,10.8,35.9,29.9c5.4,13.5,9,27.6,13.1,41.7C349.5,545.9,349.4,549,349.2,552z"/>
	<path style="&st0;" d="M574.4,560.9c-1.5,2.3-6.6,5.1-7.9,4.3c-11.6-7.5-24.3-10.5-37.9-11.1c-2.4-0.1-4.7-1.5-7-2.4
		c-1.1-0.4-2-0.9-3-1.3c1.2-0.5,2.2-1.4,3.4-1.5c7.2-0.5,14.8-2.5,21.5-0.9c7.4,1.7,9.5-0.5,7.4-6.2c-4.1-11-8.9-21.7-14.5-31.9
		c-3.4-6.2-10.3-7.5-15-1.5c-6.3,8.2-12.5,17.1-16.2,26.6c-4.5,11.3-13.1,17.1-23.2,21.6c-0.8,0.4-4.3-2.2-4.2-3.2
		c2.6-24.2,8.8-47.6,23.9-66.7c19.1-24.1,43.5-18.2,57,6.2c10.1,18.2,14.8,38.3,16,57.6C574.7,555.1,575.8,558.9,574.4,560.9z"/>
	<path style="&st0;" d="M444.3,586.1c-0.2,3.4-5.9,7.6-10,9.1c-5,1.9-11,1.3-17.7,1.9c-4.9-0.4-11-0.1-16.6-1.8
		c-3.5-0.9-8-4.4-8.7-7.6c-0.7-3.2,1.6-8.3,4.3-10.8c8.3-7.5,31.9-9.2,41.2-2.8C440.6,576.7,444.6,582.3,444.3,586.1z"/>
	<path style="&st0;" d="M330.7,446.2c0.2,1.2-2.5,4.2-3.7,4.2c-2.7-0.2-5.4-1.8-8-2.9c-13-5.6-25.6-7.4-37.7,2.5
		c-1.8,1.4-5,1-7.6,1.5c0.6-2.5,0.4-5.4,1.7-7.3c7.3-10,15.2-19.2,29.3-18.6c0.5,0,0.9,0.1,1.5,0.2c0.5,0.1,1.1,0.2,1.7,0.4
		c1.3,0.4,2.6,1,4.1,1.8c0.5,0.3,1.1,0.6,1.6,0.9c1.6,1,3.3,2.1,5,3.3h0c0.5,0.4,1.1,0.8,1.6,1.3c1.1,0.9,2.1,1.7,3.1,2.6
		c0.5,0.4,1,0.9,1.4,1.4C328,440.6,330.3,443.8,330.7,446.2z"/>
	<path style="&st0;" d="M562.5,453.5c-3.4-1.1-5.6-1.2-7-2.2c-10.1-7.6-21.3-11-33.7-7.9c-5.2,1.3-9.9,4.2-14.9,6.3
		c-1.4,0.5-2.9,0.4-4.4,0.6c-0.1-1.6-0.7-3.4-0.2-4.7c7.5-19.6,32.7-25,47.3-10.1c3.9,3.9,6.9,8.4,10.3,12.8
		C560.6,449.1,561,450.4,562.5,453.5z"/>
</g>
</svg>
