<?xml version="1.0" encoding="utf-8"?>
<!-- Generator: Adobe Illustrator 27.4.0, SVG Export Plug-In . SVG Version: 6.00 Build 0)  -->
<svg version="1.1" id="Capa_1" xmlns="http://www.w3.org/2000/svg" xmlns:xlink="http://www.w3.org/1999/xlink" x="0px" y="0px"
	 viewBox="0 0 138.92 102.68" style="enable-background:new 0 0 138.92 102.68;" xml:space="preserve">
<style type="text/css">
	.st0{fill:#FFFFFF;}
	.st1{fill:#FC0000;}
	.st2{fill:#BE251E;}
	.st3{fill:#010100;}
</style>
<rect x="-35.78" y="-183.26" class="st0" width="475.48" height="554.54"/>
<g>
	<g>
		<g>
			<g>
				<g>
					<path class="st0" d="M36.95,15.65c0.14,0,0.28,0.01,0.43,0.02c0.15,0.01,0.3,0.01,0.45,0.03c0.18,0.01,0.35,0.04,0.53,0.07
						c0.14,0.02,0.29,0.04,0.43,0.07c0.17,0.04,0.34,0.08,0.52,0.13c0.13,0.04,0.27,0.07,0.41,0.11c0.17,0.05,0.34,0.12,0.51,0.18
						c0.13,0.04,0.26,0.09,0.38,0.14c0.18,0.07,0.35,0.15,0.52,0.23c0.12,0.05,0.24,0.1,0.35,0.16c0.19,0.09,0.36,0.18,0.54,0.28
						c0.1,0.06,0.21,0.11,0.31,0.17c0.2,0.11,0.4,0.23,0.6,0.35c0.07,0.05,0.15,0.1,0.23,0.14c0.27,0.18,0.54,0.36,0.81,0.54
						c0.48,0.33,0.94,0.67,1.4,1.03c1.37,1.07,2.67,2.23,4.06,3.28c0.09,0.07,0.21,0.12,0.34,0.16c0.04,0.01,0.08,0.01,0.13,0.02
						c0.09,0.02,0.18,0.04,0.28,0.04c0.02,0,0.05,0.01,0.07,0.01c0.05,0,0.09-0.01,0.13-0.01c0.03-0.01,0.07-0.01,0.1-0.01
						c0.1-0.02,0.2-0.05,0.27-0.09c3.43-2,7.11-3.25,11.01-3.86c1.23-0.19,2.47-0.31,3.71-0.47c1.23-0.01,2.47-0.02,3.71-0.03
						c3.68,0.19,7.29,0.8,10.68,2.23c2.25,0.94,4.38,2.16,6.54,3.3c0.1,0.05,0.19,0.1,0.28,0.14v0.01c0.04,0.02,0.08,0.03,0.12,0.05
						c0.05,0.02,0.1,0.05,0.15,0.06c0.03,0.02,0.07,0.03,0.11,0.04c0.04,0.02,0.09,0.03,0.13,0.04s0.07,0.01,0.11,0.02
						c0.04,0,0.09,0.01,0.13,0.01c0.05,0,0.09-0.01,0.14-0.02c0.03,0,0.07,0,0.1-0.01c0.05-0.02,0.11-0.04,0.16-0.07
						c0.03-0.01,0.06-0.02,0.09-0.04c0.06-0.03,0.12-0.08,0.18-0.13c0.03-0.02,0.06-0.04,0.09-0.07c0.08-0.06,0.16-0.14,0.24-0.23
						l0.06-0.06c2.55-2.81,5.21-5.49,8.88-6.99c0.58-0.24,1.17-0.44,1.75-0.58c0.37-0.1,0.74-0.17,1.11-0.22
						c0.04-0.01,0.08-0.01,0.13-0.02c0.35-0.05,0.7-0.07,1.05-0.07h0.22c0.14,0,0.27,0.01,0.41,0.01c0.1,0.01,0.19,0.02,0.29,0.02
						c0.14,0.02,0.28,0.04,0.43,0.06c0.09,0.01,0.18,0.03,0.27,0.04c0.16,0.03,0.31,0.07,0.47,0.11c0.08,0.02,0.16,0.03,0.24,0.05
						c0.23,0.07,0.47,0.14,0.7,0.23c0.78,0.29,1.43,0.67,1.95,1.13c1.59,1.38,2.12,3.42,2.22,5.66c0.14,3.41-0.58,6.77-1.45,10.03
						c-1.3,4.83-2.84,9.6-4.42,14.35c-0.49,1.48-0.25,2.8-0.15,4.27c0.21,2.98,0.83,5.95,0.24,9.02c-0.36,1.84-0.09,3.91,0.33,5.77
						c0.12,0.54,0.22,1.08,0.29,1.61c0.02,0.12,0.02,0.24,0.03,0.36c0.05,0.4,0.1,0.81,0.12,1.22v0.5c0.01,0.35,0.02,0.7,0.01,1.05
						c-0.01,0.2-0.03,0.39-0.04,0.59c-0.02,0.31-0.04,0.63-0.07,0.93c-0.02,0.11-0.03,0.22-0.05,0.33s-0.03,0.22-0.05,0.33
						c-0.04,0.29-0.09,0.57-0.14,0.85c-0.05,0.24-0.1,0.47-0.16,0.7c-0.06,0.27-0.12,0.54-0.2,0.8c-0.06,0.24-0.14,0.47-0.21,0.71
						c-0.08,0.26-0.17,0.53-0.26,0.79c-0.08,0.22-0.17,0.45-0.26,0.67c-0.03,0.08-0.06,0.15-0.09,0.23
						c-0.03,0.08-0.06,0.16-0.1,0.24c0,0-0.33,1.52-2.28,4.08c-0.03,0.03-0.05,0.06-0.07,0.1c-0.21,0.27-0.44,0.55-0.69,0.84v0.01
						c-0.05,0.1-0.11,0.18-0.16,0.23c-0.2,0.2-0.38,0.4-0.59,0.61c-0.09,0.1-0.18,0.2-0.28,0.31c-0.48,0.53-0.96,1.05-1.51,1.49
						c-0.73,0.59-1.48,1.16-2.24,1.71c0,0-0.01,0.01-0.02,0.01c-0.28,0.2-3.35,2.28-9.04,4.23c-3.18,1.08-7.17,2.12-11.96,2.76
						c-0.3,0.06-0.62,0.11-0.98,0.14c-0.24,0.01-1.1,0.21-1.34,0.22c-0.12,0-0.24,0-0.37,0.01c-1.42,0.17-2.85,0.25-4.26,0.25
						c-0.57,0-1.14-0.01-1.7-0.04c-1.41-0.06-2.79-0.18-4.12-0.35c-4.01-0.51-7.54-1.44-9.97-2.19c-0.17-0.05-0.35-0.11-0.51-0.16
						c-0.22-0.07-0.42-0.14-0.62-0.2c-0.36-0.13-0.68-0.24-0.96-0.33c-0.14-0.05-0.28-0.1-0.4-0.14c-0.49-0.19-0.8-0.31-0.88-0.35
						v-0.01c-2.4-0.97-4.69-2.25-6.82-3.93c-2.3-1.82-4.12-3.9-5.57-6.22c-0.49-0.79-0.94-1.61-1.35-2.46
						c-0.02-0.05-0.05-0.1-0.08-0.15c-3.64-6.54-1.49-13.11-1.34-13.56c0.01-0.02,0.01-0.03,0.01-0.03c0.07-0.34,0.16-0.67,0.25-1
						c0.09-0.33,0.2-0.66,0.31-0.99c0.03-0.09,0.04-0.19,0.07-0.29c0.06-0.28,0.1-0.58,0.1-0.88c-0.01-0.86-0.08-1.73-0.12-2.59
						c-0.02-1.25-0.03-2.5-0.04-3.75c-0.02-0.33-0.02-0.66-0.02-0.99c0-0.87,0.05-1.73,0.17-2.59c0.17-1.18,0.45-2.34,0.83-3.48
						c0.07-0.2,0.11-0.39,0.14-0.58c0.09-0.58,0.01-1.13-0.12-1.67c-0.09-0.36-0.21-0.72-0.32-1.08c-0.11-0.36-0.22-0.71-0.29-1.07
						c-0.9-4.61-1.92-9.19-3.02-13.75c-0.51-2.08-0.7-4.17-0.7-6.28c0-0.4,0.01-0.79,0.02-1.18c0.14-4.44,2.63-7.09,7.12-7.43
						c0.16-0.01,0.31-0.02,0.46-0.02H36.95 M36.95,14.65h-0.23c-0.16,0-0.32,0.01-0.49,0.02c-5,0.38-7.93,3.44-8.09,8.4
						c-0.01,0.41-0.02,0.8-0.02,1.21c0,2.39,0.24,4.52,0.73,6.52c1.18,4.89,2.16,9.37,3.01,13.7c0.08,0.39,0.19,0.75,0.29,1.1
						l0.02,0.07l0.09,0.28c0.08,0.25,0.16,0.5,0.22,0.75c0.13,0.53,0.16,0.91,0.1,1.27c-0.03,0.16-0.05,0.29-0.1,0.4
						c-0.41,1.22-0.7,2.45-0.88,3.67c-0.12,0.87-0.18,1.76-0.18,2.73c0,0.34,0,0.68,0.02,1.02c0.01,1.24,0.02,2.49,0.04,3.73
						c0.01,0.32,0.03,0.61,0.05,0.9c0.03,0.56,0.07,1.14,0.07,1.69c0,0.18-0.02,0.4-0.07,0.63c-0.02,0.06-0.03,0.12-0.04,0.18
						l-0.01,0.05c-0.11,0.33-0.23,0.68-0.32,1.03c-0.09,0.32-0.18,0.65-0.25,1c-0.29,0.87-2.31,7.63,1.42,14.34l0.04,0.07
						c0.43,0.9,0.91,1.76,1.41,2.58c1.57,2.51,3.47,4.63,5.8,6.48c2.06,1.63,4.4,2.98,6.93,4.02l0.06,0.03
						c0.11,0.06,0.31,0.14,0.93,0.37l0.02,0.01l0.06,0.02c0.11,0.04,0.25,0.09,0.38,0.13c0.3,0.1,0.61,0.2,0.96,0.33l0.03,0.01
						l0.03,0.01c0.11,0.03,0.22,0.07,0.34,0.11l0.26,0.09l0.17,0.05c0.12,0.04,0.24,0.08,0.36,0.11c3.41,1.05,6.82,1.8,10.13,2.22
						c1.39,0.18,2.8,0.3,4.2,0.36c0.59,0.02,1.17,0.04,1.74,0.04c1.51,0,2.98-0.08,4.38-0.25c0.04,0,0.1,0,0.16,0
						c0.03,0,0.06,0,0.09,0c0.23-0.01,0.47-0.05,0.86-0.13c0.21-0.04,0.42-0.08,0.54-0.09c0.38-0.03,0.73-0.08,1.09-0.15
						c4.25-0.57,8.32-1.51,12.12-2.8c5.12-1.76,8.14-3.59,9.02-4.18h0.11l0.25-0.24c0.78-0.57,1.53-1.14,2.22-1.7
						c0.59-0.47,1.11-1.03,1.62-1.6l0.26-0.29c0.09-0.09,0.2-0.2,0.3-0.31c0.09-0.09,0.18-0.19,0.27-0.28
						c0.11-0.11,0.21-0.25,0.3-0.39c0.23-0.27,0.44-0.53,0.64-0.78l0.06-0.08l0.01-0.03l0,0c1.79-2.34,2.31-3.89,2.43-4.35
						c0.03-0.08,0.06-0.15,0.09-0.23l0.04-0.09l0.05-0.13c0.08-0.21,0.18-0.45,0.26-0.68c0.1-0.29,0.19-0.57,0.28-0.84l0.08-0.26
						c0.05-0.16,0.1-0.32,0.14-0.48c0.09-0.29,0.15-0.58,0.21-0.85c0.06-0.21,0.11-0.46,0.16-0.71c0.06-0.33,0.11-0.62,0.15-0.92
						c0.01-0.03,0.02-0.1,0.03-0.17c0.01-0.04,0.01-0.08,0.02-0.12c0.01-0.07,0.02-0.14,0.03-0.21c0.01-0.04,0.01-0.08,0.02-0.12
						l0.01-0.04l0-0.04c0.03-0.3,0.05-0.62,0.07-0.92l0-0.01l0-0.05c0-0.09,0.01-0.18,0.02-0.27c0.01-0.11,0.02-0.21,0.02-0.32
						c0.01-0.39,0-0.76-0.01-1.13l0-0.47c-0.02-0.48-0.07-0.89-0.13-1.34l0-0.05c-0.01-0.12-0.01-0.23-0.03-0.35
						c-0.06-0.49-0.17-1.07-0.3-1.66c-0.5-2.19-0.6-3.95-0.32-5.36c0.47-2.45,0.22-4.79-0.02-7.06c-0.08-0.73-0.16-1.48-0.21-2.22
						c-0.02-0.25-0.04-0.51-0.06-0.76c-0.1-1.13-0.18-2.1,0.16-3.13c1.52-4.58,3.11-9.49,4.44-14.4c0.86-3.22,1.63-6.7,1.48-10.33
						c-0.13-2.95-0.95-4.97-2.56-6.37c-0.61-0.54-1.37-0.98-2.26-1.31c-0.21-0.08-0.45-0.16-0.68-0.23l-0.08-0.02
						c-0.11-0.03-0.17-0.04-0.23-0.05L103.74,15l-0.08-0.02c-0.15-0.04-0.3-0.07-0.45-0.1l-0.04-0.01l-0.04,0l-0.08-0.01
						c-0.06-0.01-0.13-0.02-0.19-0.03l-0.39-0.06l-0.07-0.01l-0.08,0c-0.06,0-0.11-0.01-0.16-0.01l-0.05-0.01l-0.08,0
						c-0.06,0-0.11,0-0.17,0c-0.08,0-0.16-0.01-0.24-0.01h-0.22c-0.42,0-0.81,0.03-1.19,0.08l-0.03,0l-0.03,0.01
						c-0.03,0-0.07,0.01-0.1,0.01c-0.43,0.06-0.82,0.14-1.2,0.24c-0.58,0.14-1.22,0.35-1.87,0.62c-3.91,1.6-6.71,4.45-9.24,7.24
						l-0.03,0.03l-0.02,0.02l-0.02,0.02c-0.03,0.04-0.06,0.07-0.09,0.1l-0.05,0.04l-0.01,0.01l-0.01,0.01l-0.06,0.04l-0.02,0.01
						l-0.02,0.01l-0.01,0l0,0l-0.02,0l-0.05-0.03l-0.1-0.02l-0.16-0.07c-0.04-0.02-0.08-0.04-0.13-0.06l-0.11-0.06
						c-0.45-0.24-0.92-0.49-1.39-0.74c-1.68-0.9-3.41-1.83-5.22-2.59c-3.16-1.33-6.76-2.09-11.01-2.31l-0.03,0l-0.03,0l-3.71,0.03
						l-0.06,0l-0.06,0.01c-0.44,0.06-0.89,0.11-1.33,0.16c-0.79,0.09-1.6,0.19-2.41,0.31c-4.08,0.64-7.88,1.97-11.3,3.95
						c-0.01,0-0.03,0-0.05,0.01c-0.03,0-0.06,0-0.09,0c-0.01,0-0.04-0.01-0.06-0.02c-0.04-0.01-0.08-0.01-0.11-0.02
						c-0.75-0.57-1.49-1.18-2.2-1.77c-0.59-0.49-1.2-1-1.82-1.48c-0.49-0.39-0.97-0.73-1.45-1.07l-0.5-0.33l-0.32-0.22l-0.05-0.03
						l-0.06-0.03c-0.03-0.02-0.07-0.04-0.1-0.06l-0.03-0.02l-0.03-0.02c-0.21-0.13-0.42-0.25-0.63-0.37
						c-0.03-0.02-0.1-0.06-0.17-0.09c-0.04-0.02-0.07-0.04-0.1-0.06c-0.22-0.12-0.4-0.22-0.6-0.32c-0.13-0.07-0.27-0.13-0.42-0.19
						c-0.15-0.07-0.34-0.16-0.54-0.24c-0.13-0.05-0.29-0.11-0.45-0.16l-0.12-0.04c-0.14-0.05-0.27-0.1-0.41-0.14
						c-0.08-0.02-0.15-0.04-0.22-0.06c-0.06-0.02-0.12-0.03-0.18-0.05c-0.22-0.06-0.4-0.1-0.58-0.15c-0.17-0.04-0.32-0.06-0.47-0.08
						l-0.06-0.01c-0.19-0.03-0.37-0.06-0.56-0.07c-0.12-0.01-0.23-0.02-0.35-0.03l-0.13-0.01C37.26,14.66,37.1,14.65,36.95,14.65
						L36.95,14.65z"/>
				</g>
				<g>
					<path class="st1" d="M49.12,92.94c-0.33-0.1-0.67-0.22-0.99-0.34l0.33-0.94c0.29,0.09,0.61,0.2,0.98,0.34L49.12,92.94z"/>
					<path class="st0" d="M48.31,92.13c0.28,0.09,0.6,0.2,0.96,0.33C48.95,92.36,48.62,92.25,48.31,92.13 M48.62,91.18l-0.67,1.88
						c0.29,0.11,0.63,0.23,1.02,0.35l0.64-1.9C49.24,91.39,48.91,91.28,48.62,91.18L48.62,91.18z"/>
				</g>
			</g>
		</g>
	</g>
	<g>
		<path class="st2" d="M67.29,80.6c-1.04-0.02-3.34,1.76-3.34,2.58c0,1.33,1.73,2.6,3.54,2.6c1.9,0,2.98-0.88,2.93-2.38
			C70.39,82.36,68.44,80.62,67.29,80.6z"/>
		<g>
			<path d="M98.19,84.27c0.2-0.21,0.39-0.42,0.59-0.62c0.05-0.05,0.11-0.13,0.16-0.23C98.71,83.69,98.46,83.98,98.19,84.27z"/>
			<path d="M48.31,92.13c0.31,0.12,0.64,0.23,0.96,0.33C48.91,92.33,48.59,92.22,48.31,92.13z"/>
			<path d="M107.16,33.08c0.87-3.26,1.59-6.62,1.45-10.03c-0.1-2.24-0.63-4.28-2.22-5.66c-0.52-0.46-1.17-0.84-1.95-1.13
				c-0.23-0.09-0.47-0.16-0.7-0.23c-0.08-0.02-0.16-0.03-0.24-0.05c-0.16-0.04-0.31-0.08-0.47-0.11c-0.09-0.01-0.18-0.03-0.27-0.04
				c-0.15-0.02-0.29-0.04-0.43-0.06c-0.1,0-0.19-0.01-0.29-0.02c-0.14,0-0.27-0.01-0.41-0.01h-0.22c-0.35,0-0.7,0.02-1.05,0.07
				c-0.05,0.01-0.09,0.01-0.13,0.02c-0.37,0.05-0.74,0.12-1.11,0.22c-0.58,0.14-1.17,0.34-1.75,0.58c-3.67,1.5-6.33,4.18-8.88,6.99
				l-0.06,0.06c-0.08,0.09-0.16,0.17-0.24,0.23c-0.03,0.03-0.06,0.05-0.09,0.07c-0.06,0.05-0.12,0.1-0.18,0.13
				c-0.03,0.02-0.06,0.03-0.09,0.04c-0.05,0.03-0.11,0.05-0.16,0.07c-0.03,0.01-0.07,0.01-0.1,0.01c-0.05,0.01-0.09,0.02-0.14,0.02
				c-0.04,0-0.09-0.01-0.13-0.01c-0.04-0.01-0.07-0.01-0.11-0.02c-0.04-0.01-0.09-0.02-0.13-0.04c-0.04-0.01-0.08-0.02-0.11-0.04
				c-0.05-0.01-0.1-0.04-0.15-0.06c-0.04-0.02-0.08-0.03-0.12-0.05v-0.01c-0.09-0.04-0.18-0.09-0.28-0.14
				c-2.16-1.14-4.29-2.36-6.54-3.3c-3.39-1.43-7-2.04-10.68-2.23c-1.24,0.01-2.48,0.02-3.71,0.03c-1.24,0.16-2.48,0.28-3.71,0.47
				c-3.9,0.61-7.58,1.86-11.01,3.86c-0.07,0.04-0.17,0.07-0.27,0.09c-0.03,0-0.07,0-0.1,0.01c-0.04,0-0.08,0.01-0.13,0.01
				c-0.02,0-0.05-0.01-0.07-0.01c-0.1,0-0.19-0.02-0.28-0.04c-0.05-0.01-0.09-0.01-0.13-0.02c-0.13-0.04-0.25-0.09-0.34-0.16
				c-1.39-1.05-2.69-2.21-4.06-3.28c-0.46-0.36-0.92-0.7-1.4-1.03c-0.27-0.18-0.54-0.36-0.81-0.54c-0.08-0.04-0.16-0.09-0.23-0.14
				c-0.2-0.12-0.4-0.24-0.6-0.35c-0.1-0.06-0.21-0.11-0.31-0.17c-0.18-0.1-0.35-0.19-0.54-0.28c-0.11-0.06-0.23-0.11-0.35-0.16
				c-0.17-0.08-0.34-0.16-0.52-0.23c-0.12-0.05-0.25-0.1-0.38-0.14c-0.17-0.06-0.34-0.13-0.51-0.18c-0.14-0.04-0.28-0.07-0.41-0.11
				c-0.18-0.05-0.35-0.09-0.52-0.13c-0.14-0.03-0.29-0.05-0.43-0.07c-0.18-0.03-0.35-0.06-0.53-0.07c-0.15-0.02-0.3-0.02-0.45-0.03
				c-0.15-0.01-0.29-0.02-0.43-0.02h-0.23c-0.15,0-0.3,0.01-0.46,0.02c-4.49,0.34-6.98,2.99-7.12,7.43
				c-0.01,0.39-0.02,0.78-0.02,1.18c0,2.11,0.19,4.2,0.7,6.28c1.1,4.56,2.12,9.14,3.02,13.75c0.07,0.36,0.18,0.71,0.29,1.07
				c0.11,0.36,0.23,0.72,0.32,1.08c0.13,0.54,0.21,1.09,0.12,1.67c-0.03,0.19-0.07,0.38-0.14,0.58c-0.38,1.14-0.66,2.3-0.83,3.48
				c-0.12,0.86-0.17,1.72-0.17,2.59c0,0.33,0,0.66,0.02,0.99c0.01,1.25,0.02,2.5,0.04,3.75c0.04,0.86,0.11,1.73,0.12,2.59
				c0,0.3-0.04,0.6-0.1,0.88c-0.03,0.1-0.04,0.2-0.07,0.29c-0.11,0.33-0.22,0.66-0.31,0.99c-0.09,0.33-0.18,0.66-0.25,1
				c0,0,0,0.01-0.01,0.03c-0.15,0.45-2.3,7.02,1.34,13.56c0.03,0.05,0.06,0.1,0.08,0.15c0.41,0.85,0.86,1.67,1.35,2.46
				c1.45,2.32,3.27,4.4,5.57,6.22c2.13,1.68,4.42,2.96,6.82,3.93v0.01c0.08,0.04,0.39,0.16,0.88,0.35c0.12,0.04,0.26,0.09,0.4,0.14
				c0.28,0.09,0.6,0.2,0.96,0.33c0.2,0.06,0.4,0.13,0.62,0.2c0.16,0.05,0.34,0.11,0.51,0.16c2.43,0.75,5.96,1.68,9.97,2.19
				c1.33,0.17,2.71,0.29,4.12,0.35c1.95,0.08,3.96,0.03,5.96-0.21c0.13-0.01,0.25-0.01,0.37-0.01c0.24-0.01,1.1-0.21,1.34-0.22
				c0.36-0.03,0.68-0.08,0.98-0.14c4.79-0.64,8.78-1.68,11.96-2.76c5.69-1.95,8.76-4.03,9.04-4.23c0.01,0,0.02-0.01,0.02-0.01
				c0.76-0.55,1.51-1.12,2.24-1.71c0.55-0.44,1.03-0.96,1.51-1.49c0.1-0.11,0.19-0.21,0.28-0.31c0.27-0.29,0.52-0.58,0.75-0.85
				c0.25-0.29,0.48-0.57,0.69-0.84c0.02-0.04,0.04-0.07,0.07-0.1c1.95-2.56,2.28-4.08,2.28-4.08c0.04-0.08,0.07-0.16,0.1-0.24
				c0.03-0.08,0.06-0.15,0.09-0.23c0.09-0.22,0.18-0.45,0.26-0.67c0.09-0.26,0.18-0.53,0.26-0.79c0.07-0.24,0.15-0.47,0.21-0.71
				c0.08-0.26,0.14-0.53,0.2-0.8c0.06-0.23,0.11-0.46,0.16-0.7c0.05-0.28,0.1-0.56,0.14-0.85c0.02-0.11,0.03-0.22,0.05-0.33
				s0.03-0.22,0.05-0.33c0.03-0.3,0.05-0.62,0.07-0.93c0.01-0.2,0.03-0.39,0.04-0.59c0.01-0.35,0-0.7-0.01-1.05v-0.5
				c-0.02-0.41-0.07-0.82-0.12-1.22c-0.01-0.12-0.01-0.24-0.03-0.36c-0.07-0.53-0.17-1.07-0.29-1.61c-0.42-1.86-0.69-3.93-0.33-5.77
				c0.59-3.07-0.03-6.04-0.24-9.02c-0.1-1.47-0.34-2.79,0.15-4.27C104.32,42.68,105.86,37.91,107.16,33.08z M34.02,30.97
				c-0.1-0.48-0.18-0.97-0.26-1.46c-0.03-0.17-0.05-0.33-0.08-0.49c-0.77-5.07-0.15-7.16,0.09-7.73c0.06-0.13,0.09-0.18,0.09-0.18
				c0.75-1.43,1.84-1.87,3.53-1.62c0.31,0.03,0.64,0.1,0.99,0.18c2.39,0.59,4.31,2.09,6.17,3.65c0.61,0.51,1.27,0.97,1.81,1.55
				c0.4,0.42,0.49,0.93-0.14,1.36c-2.24,1.51-4.05,3.48-5.8,5.49c-0.46,0.52-0.64,0.62-0.84,0.08c-0.03-0.05-0.05-0.12-0.07-0.19
				c-0.21-0.7-0.46-1.39-0.68-2.09c-0.34-1.01-1-1.39-2.09-1.35c-1.09,0.05-1.52,0.53-1.36,1.51c0.24,1.4,0.6,2.77,0.89,4.16
				c0.29,1.38,0.58,2.76,0.83,4.15c0.06,0.33,0.06,0.71-0.06,1.02c-0.13,0.34-0.41,0.62-0.63,0.93c-0.22-0.3-0.57-0.58-0.64-0.92
				C35.15,36.35,34.55,33.67,34.02,30.97z M98.47,75.23c-0.73,3.3-2.66,6.02-5.08,8.18c-2.01,1.8-4.47,3.15-6.86,4.45
				c-0.83,0.45-1.67,0.86-2.53,1.23c-2.36,1.02-4.83,1.74-7.36,2.22c-3.28,0.62-6.61,0.95-9.91,1.41c-5.19-0.25-10.11-1.21-14.75-3
				c-2.82-1.1-5.54-2.51-8.16-4.26c-4.28-2.86-7.16-6.71-7.96-11.74c-0.5-3.14-0.62-6.49,1.35-9.42c0.25-0.37,0.22-0.98,0.2-1.48
				c-0.07-2.63-0.53-5.3-0.2-7.87c0.49-3.9,1.72-7.63,3.95-11c0.17-0.26,0.35-0.52,0.54-0.78c1.97-2.78,4.38-5.08,7.15-7.05
				c1.32-0.94,2.64-0.15,3.87,0.24c1.15,0.37,2.3,0.93,3.25,1.67c1.02,0.79,2.03,1.76,2.65,2.87c1.41,2.52,2.59,5.16,3.85,7.76
				c0.22,0.45,0.28,0.99,0.56,1.38c0.62,0.91,1.12,1.92,2.61,1.79c1.89-0.17,3.81,0.08,5.69-0.11c1.09-0.11,1.57-1.2,1.86-2.21
				c0.33-1.12,0.47-2.31,0.94-3.36c1.7-3.79,4.14-7,7.78-9.14c0.85-0.5,1.8-0.93,2.76-1.15c1.37-0.32,2.54,0.42,3.54,1.25
				c2.18,1.82,4.22,3.79,5.76,6.19c0.16,0.23,0.31,0.47,0.45,0.71c1.53,2.6,2.81,5.32,3.1,8.39c0.21,2.2,0.54,4.39,0.64,6.59
				c0.07,1.3-0.21,2.61-0.3,3.93c-0.04,0.62-0.1,1.27,0.02,1.88c0.29,1.35,0.63,2.7,1.04,4.03C99.6,71.03,98.93,73.13,98.47,75.23z
				 M102.23,36.24c-0.49,1.97-1.07,3.93-1.61,5.89c-0.04,0.14-0.29,0.22-0.44,0.33c-0.27-0.81-0.9-1.7-0.75-2.43
				c0.55-2.82,1.36-5.58,2.06-8.37c0.1-0.38,0.22-0.79,0.19-1.17c-0.01-0.07,0.2-1.05-0.35-1.49c-0.95-0.77-1.86-0.02-2.37,0.46
				c-0.68,0.65-0.97,1.73-1.4,2.64c-0.16,0.36-0.19,0.77-0.35,1.14c-0.31,0.77-0.62,0.63-1.13,0.07c-0.04-0.04-0.08-0.09-0.12-0.13
				c-1.72-1.91-3.47-3.8-5.32-5.6c-0.41-0.4-0.47-0.51-0.12-0.89c2.33-2.46,4.81-4.71,7.82-6.24c0.49-0.26,1-0.49,1.53-0.7
				c1.46-0.59,3.14-0.16,4.06,1.4c0.02,0.03,0.04,0.07,0.06,0.1c0.04,0.07,0.08,0.14,0.12,0.22c0.02,0.05,0.04,0.11,0.07,0.17
				c0.39,1.08,0.35,2.91,0.1,4.92C103.74,30.97,102.23,36.24,102.23,36.24z"/>
			<path class="st0" d="M98.92,68.83c-0.41-1.33-0.75-2.68-1.04-4.03c-0.12-0.61-0.06-1.26-0.02-1.88c0.09-1.32,0.37-2.63,0.3-3.93
				c-0.1-2.2-0.43-4.39-0.64-6.59c-0.29-3.07-1.57-5.79-3.1-8.39c-0.14-0.24-0.29-0.48-0.45-0.71c-1.54-2.4-3.58-4.37-5.76-6.19
				c-1-0.83-2.17-1.57-3.54-1.25c-0.96,0.22-1.91,0.65-2.76,1.15c-3.64,2.14-6.08,5.35-7.78,9.14c-0.47,1.05-0.61,2.24-0.94,3.36
				c-0.29,1.01-0.77,2.1-1.86,2.21c-1.88,0.19-3.8-0.06-5.69,0.11c-1.49,0.13-1.99-0.88-2.61-1.79c-0.28-0.39-0.34-0.93-0.56-1.38
				c-1.26-2.6-2.44-5.24-3.85-7.76c-0.62-1.11-1.63-2.08-2.65-2.87c-0.95-0.74-2.1-1.3-3.25-1.67c-1.23-0.39-2.55-1.18-3.87-0.24
				c-2.77,1.97-5.18,4.27-7.15,7.05c-0.19,0.26-0.37,0.52-0.54,0.78c-2.23,3.37-3.46,7.1-3.95,11c-0.33,2.57,0.13,5.24,0.2,7.87
				c0.02,0.5,0.05,1.11-0.2,1.48c-1.97,2.93-1.85,6.28-1.35,9.42c0.8,5.03,3.68,8.88,7.96,11.74c2.62,1.75,5.34,3.16,8.16,4.26
				c4.64,1.79,9.56,2.75,14.75,3c3.3-0.46,6.63-0.79,9.91-1.41c2.53-0.48,5-1.2,7.36-2.22c0.86-0.37,1.7-0.78,2.53-1.23
				c2.39-1.3,4.85-2.65,6.86-4.45c2.42-2.16,4.35-4.88,5.08-8.18C98.93,73.13,99.6,71.03,98.92,68.83z M79.16,49.67
				c1.01-2.63,4.39-3.36,6.34-1.36c0.52,0.52,0.93,1.13,1.38,1.71c0.1,0.13,0.15,0.3,0.36,0.72c-0.46-0.14-0.75-0.16-0.94-0.3
				c-1.35-1.02-2.86-1.48-4.52-1.06c-0.7,0.17-1.33,0.57-2,0.85c-0.18,0.07-0.39,0.06-0.59,0.08C79.17,50.1,79.09,49.85,79.16,49.67
				z M64.85,67.29c1.11-1,4.28-1.23,5.53-0.37c0.5,0.35,1.04,1.09,1,1.61c-0.03,0.45-0.79,1.02-1.34,1.22
				C69.37,70,68.57,69.92,67.67,70c-0.65-0.06-1.48-0.02-2.23-0.24c-0.47-0.13-1.07-0.6-1.17-1.02
				C64.17,68.31,64.49,67.62,64.85,67.29z M48.72,49.5c0.98-1.34,2.04-2.58,3.93-2.5c0.99,0.01,3.32,1.82,3.49,2.76
				c0.03,0.16-0.34,0.57-0.5,0.56c-0.37-0.03-0.73-0.24-1.08-0.39c-1.75-0.75-3.44-0.99-5.05,0.34c-0.24,0.19-0.67,0.14-1.02,0.2
				C48.57,50.14,48.54,49.75,48.72,49.5z M52.75,58.22c-0.7-0.86-1.52-0.82-2.08,0.09c-0.81,1.33-1.49,2.75-2.07,4.2
				c-0.36,0.89,0,1.12,1.07,0.92c0.5-0.1,1.03-0.21,1.52-0.14c0.38,0.04,1.09,0.14,1.07,0.54c-0.03,0.38-0.68,0.33-1.05,0.41
				c-1.04,0.24-2.11,0.36-3.13,0.65c-0.69,0.2-1.33,0.58-1.96,0.93c-0.51,0.27-0.75,0.19-0.75-0.4c0.01-4.07,0.59-7.94,3.56-11.07
				c0.86-0.9,1.9-1.12,3.04-1.19c1.64-0.06,3.79,1.45,4.82,4.01c0.72,1.81,1.2,3.71,1.76,5.59c0.11,0.37,0.09,0.79,0.07,1.19
				c-0.05,0.85-0.58,1.01-1.2,0.63c-1.21-0.74-2.19-1.61-2.65-3.11C54.4,60.29,53.55,59.2,52.75,58.22z M78.39,77.56
				c-1.32,0.48-2.65,0.96-4.01,1.23c-0.75,0.15-1.08,0.3-1.17,1.12c-0.21,1.8-0.85,3.49-1.85,4.99c-0.93,1.39-2.34,1.94-4.42,1.87
				c-1.76-0.01-3.7-1.45-4.48-3.7c-0.38-1.11-0.77-2.23-0.96-3.38c-0.13-0.76-0.42-0.96-1.1-0.88c-1.51,0.18-2.83-0.37-4.15-1.02
				c-0.68-0.33-0.82-0.77-0.69-1.35c0.06-0.27,0.37-0.59,0.64-0.68c0.18-0.05,0.56,0.21,0.71,0.43c0.6,0.9,1.52,1.12,2.48,1.24
				c2.85,0.35,5.26-0.56,7.25-2.61c0.63-0.64,0.88-1.06,1.83,0c1.9,2.13,4.36,3.46,7.42,2.3c0.5-0.19,0.94-0.54,1.4-0.83
				c0.29-0.18,0.66-0.6,0.81-0.53c0.39,0.19,0.8,0.54,0.94,0.92C79.11,76.88,78.69,77.45,78.39,77.56z M88.83,65.15
				c-0.2,0.31-0.88,0.68-1.06,0.57c-1.56-1.01-3.26-1.41-5.08-1.48c-0.32-0.01-0.63-0.2-0.94-0.32c-0.14-0.05-0.27-0.12-0.4-0.18
				c0.16-0.07,0.3-0.19,0.46-0.2c0.96-0.07,1.98-0.33,2.88-0.12c0.99,0.23,1.28-0.07,0.99-0.84c-0.55-1.47-1.19-2.91-1.95-4.28
				c-0.46-0.83-1.39-1.01-2.01-0.2c-0.85,1.1-1.68,2.29-2.18,3.57c-0.61,1.52-1.76,2.29-3.11,2.9c-0.11,0.05-0.58-0.3-0.57-0.43
				c0.35-3.24,1.18-6.38,3.21-8.95c2.56-3.23,5.83-2.44,7.65,0.84c1.36,2.44,1.99,5.14,2.15,7.72
				C88.87,64.37,89.02,64.87,88.83,65.15z"/>
			<path class="st0" d="M104.28,26.56c-0.54,4.41-2.05,9.68-2.05,9.68c-0.49,1.97-1.07,3.93-1.61,5.89
				c-0.04,0.14-0.29,0.22-0.44,0.33c-0.27-0.81-0.9-1.7-0.75-2.43c0.55-2.82,1.36-5.58,2.06-8.37c0.1-0.38,0.22-0.79,0.19-1.17
				c-0.01-0.07,0.2-1.05-0.35-1.49c-0.95-0.77-1.86-0.02-2.37,0.46c-0.68,0.65-0.97,1.73-1.4,2.64c-0.16,0.36-0.19,0.77-0.35,1.14
				c-0.31,0.77-0.62,0.63-1.13,0.07c-0.04-0.04-0.08-0.09-0.12-0.13c-1.72-1.91-3.47-3.8-5.32-5.6c-0.41-0.4-0.47-0.51-0.12-0.89
				c2.33-2.46,4.81-4.71,7.82-6.24c0.49-0.26,1-0.49,1.53-0.7c1.46-0.59,3.14-0.16,4.06,1.4c0.02,0.03,0.04,0.07,0.06,0.1
				c0.04,0.07,0.08,0.14,0.12,0.22c0.02,0.05,0.04,0.11,0.07,0.17C104.57,22.72,104.53,24.55,104.28,26.56z"/>
			<path class="st0" d="M46.22,26.23c-2.24,1.51-4.05,3.48-5.8,5.49c-0.46,0.52-0.64,0.62-0.84,0.08c-0.03-0.05-0.05-0.12-0.07-0.19
				c-0.21-0.7-0.46-1.39-0.68-2.09c-0.34-1.01-1-1.39-2.09-1.35c-1.09,0.05-1.52,0.53-1.36,1.51c0.24,1.4,0.6,2.77,0.89,4.16
				c0.29,1.38,0.58,2.76,0.83,4.15c0.06,0.33,0.06,0.71-0.06,1.02c-0.13,0.34-0.41,0.62-0.63,0.93c-0.22-0.3-0.57-0.58-0.64-0.92
				c-0.62-2.67-1.22-5.35-1.75-8.05c-0.1-0.48-0.18-0.97-0.26-1.46c-0.03-0.17-0.05-0.33-0.08-0.49c-0.77-5.07-0.15-7.16,0.09-7.73
				c0.06-0.13,0.09-0.18,0.09-0.18c0.75-1.43,1.84-1.87,3.53-1.62c0.31,0.03,0.64,0.1,0.99,0.18c2.39,0.59,4.31,2.09,6.17,3.65
				c0.61,0.51,1.27,0.97,1.81,1.55C46.76,25.29,46.85,25.8,46.22,26.23z"/>
			<path d="M78.1,75.76c-0.15-0.07-0.52,0.35-0.81,0.53c-0.46,0.29-0.9,0.64-1.4,0.83c-3.06,1.16-5.52-0.17-7.42-2.3
				c-0.95-1.06-1.2-0.64-1.83,0c-1.99,2.05-4.4,2.96-7.25,2.61c-0.96-0.12-1.88-0.34-2.48-1.24c-0.15-0.22-0.53-0.48-0.71-0.43
				c-0.27,0.09-0.58,0.41-0.64,0.68c-0.13,0.58,0.01,1.02,0.69,1.35c1.32,0.65,2.64,1.2,4.15,1.02c0.68-0.08,0.97,0.12,1.1,0.88
				c0.19,1.15,0.58,2.27,0.96,3.38c0.78,2.25,2.72,3.69,4.48,3.7c2.08,0.07,3.49-0.48,4.42-1.87c1-1.5,1.64-3.19,1.85-4.99
				c0.09-0.82,0.42-0.97,1.17-1.12c1.36-0.27,2.69-0.75,4.01-1.23c0.3-0.11,0.72-0.68,0.65-0.88C78.9,76.3,78.49,75.95,78.1,75.76z
				 M70.12,84.67c-0.04,0.07-0.09,0.13-0.14,0.19c-0.04,0.05-0.08,0.09-0.12,0.13c-0.05,0.06-0.11,0.11-0.17,0.16
				c-0.07,0.05-0.13,0.09-0.2,0.14c-0.49,0.3-1.15,0.46-1.97,0.46c-1.81,0.01-3.54-1.26-3.54-2.6c0-0.1,0.04-0.22,0.1-0.35
				c0.13-0.25,0.37-0.54,0.68-0.83c0.14-0.13,0.29-0.26,0.45-0.38c0.71-0.57,1.57-1.03,2.1-1.02c1.16,0.02,3.11,1.75,3.14,2.8
				C70.46,83.88,70.35,84.32,70.12,84.67z"/>
			<path d="M58.62,63.95c-0.05,0.85-0.58,1.01-1.2,0.63c-1.21-0.74-2.19-1.61-2.65-3.11c-0.37-1.18-1.22-2.27-2.02-3.25
				c-0.7-0.86-1.52-0.82-2.08,0.09c-0.81,1.33-1.49,2.75-2.07,4.2c-0.36,0.89,0,1.12,1.07,0.92c0.5-0.1,1.03-0.21,1.52-0.14
				c0.38,0.04,1.09,0.14,1.07,0.54c-0.03,0.38-0.68,0.33-1.05,0.41c-1.04,0.24-2.11,0.36-3.13,0.65c-0.69,0.2-1.33,0.58-1.96,0.93
				c-0.51,0.27-0.75,0.19-0.75-0.4c0.01-4.07,0.59-7.94,3.56-11.07c0.86-0.9,1.9-1.12,3.04-1.19c1.64-0.06,3.79,1.45,4.82,4.01
				c0.72,1.81,1.2,3.71,1.76,5.59C58.66,63.13,58.64,63.55,58.62,63.95z"/>
			<path d="M88.83,65.15c-0.2,0.31-0.88,0.68-1.06,0.57c-1.56-1.01-3.26-1.41-5.08-1.48c-0.32-0.01-0.63-0.2-0.94-0.32
				c-0.14-0.05-0.27-0.12-0.4-0.18c0.16-0.07,0.3-0.19,0.46-0.2c0.96-0.07,1.98-0.33,2.88-0.12c0.99,0.23,1.28-0.07,0.99-0.84
				c-0.55-1.47-1.19-2.91-1.95-4.28c-0.46-0.83-1.39-1.01-2.01-0.2c-0.85,1.1-1.68,2.29-2.18,3.57c-0.61,1.52-1.76,2.29-3.11,2.9
				c-0.11,0.05-0.58-0.3-0.57-0.43c0.35-3.24,1.18-6.38,3.21-8.95c2.56-3.23,5.83-2.44,7.65,0.84c1.36,2.44,1.99,5.14,2.15,7.72
				C88.87,64.37,89.02,64.87,88.83,65.15z"/>
			<path d="M71.38,68.53c-0.03,0.45-0.79,1.02-1.34,1.22C69.37,70,68.57,69.92,67.67,70c-0.65-0.06-1.48-0.02-2.23-0.24
				c-0.47-0.13-1.07-0.6-1.17-1.02c-0.1-0.43,0.22-1.12,0.58-1.45c1.11-1,4.28-1.23,5.53-0.37C70.88,67.27,71.42,68.01,71.38,68.53z
				"/>
			<path d="M56.14,49.76c0.03,0.16-0.34,0.57-0.5,0.56c-0.37-0.03-0.73-0.24-1.08-0.39c-1.75-0.75-3.44-0.99-5.05,0.34
				c-0.24,0.19-0.67,0.14-1.02,0.2c0.08-0.33,0.05-0.72,0.23-0.97c0.98-1.34,2.04-2.58,3.93-2.5
				C53.64,47.01,55.97,48.82,56.14,49.76z"/>
			<path d="M87.24,50.74c-0.46-0.14-0.75-0.16-0.94-0.3c-1.35-1.02-2.86-1.48-4.52-1.06c-0.7,0.17-1.33,0.57-2,0.85
				c-0.18,0.07-0.39,0.06-0.59,0.08c-0.02-0.21-0.1-0.46-0.03-0.64c1.01-2.63,4.39-3.36,6.34-1.36c0.52,0.52,0.93,1.13,1.38,1.71
				C86.98,50.15,87.03,50.32,87.24,50.74z"/>
		</g>
	</g>
</g>
</svg>
