<?xml version="1.0" encoding="utf-8"?>
<!-- Generator: Adobe Illustrator 27.4.0, SVG Export Plug-In . SVG Version: 6.00 Build 0)  -->
<svg version="1.1" id="Capa_1" xmlns="http://www.w3.org/2000/svg" xmlns:xlink="http://www.w3.org/1999/xlink" x="0px" y="0px"
	 viewBox="0 0 138.92 85.3" style="enable-background:new 0 0 138.92 85.3;" xml:space="preserve">
<style type="text/css">
	.st0{fill:#FFFFFF;}
	.st1{fill:#FC0000;}
	.st2{fill:#BE251E;}
	.st3{fill:#010100;}
</style>
<rect x="-35.78" y="-383.32" class="st0" width="475.48" height="554.54"/>
<g>
	<g>
		<path d="M46.76,3.05c-0.97-1.15-1.67-1.69-2.2-1.69c-0.3,0-1.17,0.18-5.2,1.68c-4.6,1.72-4.6,1.91-4.6,2.16v20.75
			c0,1.61,0.43,3.01,1.27,4.16c0.88,1.2,1.66,1.78,2.39,1.78c0.67,0,2.41-0.54,5.31-1.67c4.43-1.72,4.43-1.95,4.43-2.2V6.1
			C48.16,5.18,47.69,4.16,46.76,3.05z M42.95,27.31c-0.44,0.33-0.87,0.5-1.28,0.5c-0.43,0-1.73,0-1.73-2.64V5.95
			c0.41-0.31,0.84-0.46,1.27-0.46c0.43,0,1.74,0,1.74,2.64V27.31z"/>
	</g>
	<g>
		<path d="M63.45,23.26v4.41c0,0.45-0.55,1.13-4.62,2.78c-4.04,1.64-4.92,1.83-5.22,1.83c-0.43,0-0.67-0.46-0.75-0.62
			c-0.17-0.33-0.4-0.82-0.71-1.51c-0.29-0.67-0.58-1.23-0.86-1.69c-0.3-0.55-0.65-0.82-1.07-0.82h-0.25v-1.19l0.15-0.07
			c0.41-0.18,0.97-0.45,1.66-0.81c2.5-1.39,2.65-1.39,2.76-1.39c0.54,0,1.04,0.74,1.7,2.46c0.81,2.12,1.18,2.14,1.19,2.14
			c0.2,0,0.39-0.08,0.58-0.25c0.18-0.16,0.26-0.38,0.26-0.67v-4.87c0-1.51-0.54-1.51-0.72-1.51c-0.09,0-0.48,0.1-2.36,0.92
			c-2.19,0.95-2.41,0.95-2.52,0.95c-0.75,0-1.39-0.54-1.9-1.62c-0.48-1.02-0.73-2.28-0.73-3.74v-4.21c0-0.44,0.51-1.12,4.25-2.78
			c3.71-1.65,4.53-1.84,4.82-1.84c0.32,0,0.6,0.18,0.83,0.52c0.18,0.28,0.33,0.5,0.43,0.68c0.11,0.17,0.27,0.46,0.5,0.86
			c0.22,0.4,0.4,0.73,0.56,0.99c0.3,0.55,0.64,0.81,1.07,0.81h0.25v1.2l-0.15,0.06c-0.4,0.18-0.95,0.45-1.62,0.81
			c-2.55,1.4-2.7,1.4-2.81,1.4c-0.53,0-0.99-0.64-1.5-2.08c-0.61-1.69-0.96-1.74-0.99-1.74c-0.13,0-0.46,0-0.46,0.92v4.79
			c0,0.49,0.06,1.31,0.46,1.31c0.04-0.01,0.4-0.13,2.31-0.99c2.07-0.93,2.61-1.03,2.83-1.03c0.73,0,1.36,0.55,1.89,1.64
			C63.2,20.34,63.45,21.67,63.45,23.26z"/>
	</g>
	<g>
		<path d="M79.8,28.16c-0.6-0.14-1.04-0.38-1.31-0.71s-0.41-0.95-0.41-1.85V14.56c0-1.24-0.41-2.46-1.22-3.61
			c-0.82-1.19-1.72-1.79-2.66-1.79c-0.33,0-1.41,0.23-6.87,2.16l-0.17,0.06v1.6h0.25c2.17,0,3.65,0.28,4.38,0.83
			c0.68,0.51,1.04,1.42,1.07,2.72l-1.89,0.6c-1.36,0.42-2.74,0.96-4.09,1.61c-1.5,0.73-2.17,1.29-2.17,1.83v6.39
			c0,1.15,0.41,2.19,1.23,3.09c0.29,0.35,0.64,0.69,1.03,0.99c0.38,0.3,0.65,0.51,0.82,0.6c0.16,0.09,0.27,0.16,0.34,0.21l0.13,0.08
			l4.69-2.51c0.1,0.39,0.35,0.81,0.75,1.24c0.52,0.56,1.09,0.97,1.69,1.22l0.11,0.04l4.49-2.51v-1.2L79.8,28.16z M71.61,27.61
			c-0.43,0-0.83-0.18-1.19-0.56c-0.36-0.39-0.53-0.87-0.53-1.49v-2.54c0-1.45,0.31-2.48,0.93-3.05c0.35-0.32,0.68-0.56,0.97-0.7
			c0.26-0.12,0.63-0.27,1.11-0.45v8.32C72.44,27.45,72.01,27.61,71.61,27.61z"/>
	</g>
	<g>
		<path d="M110.68,28.16c-0.59-0.14-1.03-0.38-1.3-0.71c-0.28-0.33-0.41-0.95-0.41-1.85V14.56c0-1.24-0.41-2.46-1.22-3.61
			c-0.83-1.19-1.72-1.79-2.66-1.79c-0.34,0-1.41,0.23-6.87,2.16l-0.17,0.06v1.6h0.25c2.17,0,3.64,0.28,4.38,0.83
			c0.68,0.51,1.03,1.42,1.06,2.72l-1.88,0.6c-1.36,0.42-2.74,0.96-4.1,1.61c-1.5,0.73-2.17,1.29-2.17,1.83v6.39
			c0,0.32,0.03,0.63,0.1,0.93c-0.49-0.05-0.93-0.18-1.35-0.38c-1.46-0.6-2.99-3-4.57-7.11c3.98-1.55,3.99-1.88,3.99-2.13v-4.25
			c0-1.23-0.47-2.36-1.4-3.35c-0.94-1.01-1.79-1.51-2.6-1.51c-0.33,0-1.09,0.25-4.04,2.14V8.17c0-1.19,0.38-2.27,1.12-3.2
			c0.3-0.38,0.68-0.75,1.13-1.11c0.45-0.37,0.8-0.61,1.04-0.74l0.23-0.11L88.38,1.3l-0.23,0.14c-2.63,1.55-5.67,3.22-9.03,4.98
			l-0.14,0.07v1.5h0.25c0.49,0,0.83,0.11,1.01,0.35c0.2,0.25,0.3,0.71,0.3,1.35v19.3c0,0.53,0.27,1.1,0.81,1.67
			c0.51,0.56,1.08,0.97,1.69,1.22l0.11,0.04l4.17-2.35v-1.21l-0.2-0.04c-0.94-0.19-1.4-0.99-1.4-2.45v-2.83
			c0.52,1.42,1.26,3.06,2.2,4.91c1.36,2.69,2.45,3.94,3.4,3.94c0.43,0,1.39-0.24,4.7-2.38l0.11-0.07v-0.36
			c0.18,0.34,0.41,0.66,0.69,0.97c0.3,0.35,0.65,0.69,1.03,0.99s0.66,0.51,0.83,0.6c0.15,0.09,0.27,0.16,0.34,0.21l0.13,0.08
			l4.69-2.51c0.1,0.4,0.35,0.81,0.75,1.24c0.52,0.56,1.09,0.97,1.69,1.22l0.11,0.04l4.49-2.51v-1.2L110.68,28.16z M88.73,18.11
			l-0.56,0.28c-1.31,0.63-2.04,0.86-2.45,0.93v-5.71l1-0.16c1.35,0,2.01,1,2.01,3.06V18.11z M102.49,27.61
			c-0.43,0-0.82-0.18-1.18-0.56c-0.36-0.39-0.54-0.87-0.54-1.49v-2.54c0-1.45,0.32-2.48,0.94-3.05c0.34-0.32,0.67-0.55,0.97-0.7
			c0.26-0.12,0.63-0.27,1.11-0.45v8.32C103.33,27.45,102.9,27.61,102.49,27.61z"/>
	</g>
	<g>
		<path d="M28.06,36.52c-1.04-1.25-1.78-1.83-2.33-1.83c-0.33,0-1.23,0.31-5.14,2.68c-0.11-0.43-0.39-0.88-0.86-1.37
			c-0.59-0.62-1.19-1.05-1.78-1.29l-0.11-0.04l-4.51,2.54v1.28l0.2,0.04c1.03,0.21,1.53,1.08,1.53,2.68v21.94
			c0,1.38-0.24,2.42-0.71,3.07c-0.51,0.66-1.04,1-1.58,1h-0.4l0.96,1.93l9.05-3.8v-1.73h-0.25c-0.6,0-0.99-0.18-1.17-0.54
			c-0.21-0.41-0.31-1.13-0.31-2.13v-4.09c1.44-0.46,3.26-1.12,5.41-1.99c3.52-1.42,3.52-1.65,3.52-1.88V39.81
			C29.58,38.83,29.07,37.72,28.06,36.52z M20.65,54.42V39.77c0.5-0.34,0.98-0.51,1.4-0.51c1.28,0,1.91,0.94,1.91,2.88v10.38
			c0,0.5-0.66,0.95-1.22,1.24C21.98,54.15,21.28,54.37,20.65,54.42z"/>
	</g>
	<g>
		<path d="M45.51,48.37v2.22l-4.64,2.61l-0.94-0.77v-0.12c0-2.99-0.36-3.71-0.58-3.87c-0.42-0.3-1.05-0.47-1.89-0.49V61.2
			c0,1.6,0.5,2.48,1.54,2.68l0.2,0.04v1.28l-4.51,2.55l-0.11-0.05c-0.66-0.26-1.27-0.7-1.83-1.31c-0.58-0.62-0.87-1.23-0.87-1.8
			V50.53c0-1.18-0.21-2.08-0.61-2.65c-0.39-0.55-0.8-0.83-1.22-0.83H29.8v-1.33l4.88-2.66l0.1,0.03c0.21,0.06,0.44,0.14,0.72,0.24
			c0.3,0.11,0.69,0.4,1.19,0.88c0.4,0.39,0.64,0.82,0.73,1.29c0.27-0.18,0.77-0.51,1.66-1.13c1.66-1.14,2.18-1.29,2.45-1.29
			c0.99,0,1.92,0.63,2.75,1.89C45.1,46.19,45.51,47.34,45.51,48.37z"/>
	</g>
	<g>
		<path d="M59.96,44.9c-1.05-1.24-1.8-1.82-2.37-1.82c-0.33,0-1.27,0.19-5.64,1.81c-4.99,1.87-4.99,2.08-4.99,2.34v14.06
			c0,1.74,0.46,3.26,1.38,4.51c0.95,1.29,1.79,1.92,2.57,1.92c0.74,0,2.62-0.59,5.77-1.81c4.8-1.87,4.8-2.13,4.8-2.38V48.2
			C61.48,47.21,60.97,46.1,59.96,44.9z M52.54,48.03c0.46-0.34,0.93-0.51,1.4-0.51c1.29,0,1.91,0.94,1.91,2.88v12.38
			c-0.48,0.36-0.95,0.55-1.4,0.55c-1.28,0-1.91-0.95-1.91-2.89V48.03z"/>
	</g>
	<g>
		<path d="M71.31,63.88l0.21,0.04v1.28l-4.51,2.55l-0.12-0.05c-0.65-0.26-1.26-0.7-1.82-1.31c-0.58-0.62-0.87-1.23-0.87-1.8V46.33
			h-1.81l0.55-2.28h0.19c0.78,0,1.76-0.55,2.9-1.64c1.16-1.1,1.85-2.29,2.07-3.53l0.03-0.21h1.65v5.04H72l-0.53,2.58h-1.69V61.2
			C69.78,62.8,70.28,63.68,71.31,63.88z"/>
	</g>
	<g>
		<path d="M85.5,44.9c-1.05-1.24-1.8-1.82-2.37-1.82c-0.33,0-1.27,0.19-5.64,1.81c-4.99,1.87-4.99,2.08-4.99,2.34v14.06
			c0,1.74,0.46,3.26,1.38,4.51c0.95,1.29,1.79,1.92,2.58,1.92c0.73,0,2.61-0.59,5.76-1.81c4.8-1.87,4.8-2.13,4.8-2.38V48.2
			C87.02,47.21,86.51,46.1,85.5,44.9z M78.08,48.03c0.46-0.34,0.93-0.51,1.4-0.51c1.29,0,1.91,0.94,1.91,2.88v12.38
			c-0.48,0.36-0.95,0.55-1.4,0.55c-1.28,0-1.91-0.95-1.91-2.89V48.03z"/>
	</g>
	<g>
		<path d="M104.81,50.66v1.26l-0.15,0.07c-0.61,0.28-1.67,0.78-3.15,1.5c-2.27,1.1-2.4,1.1-2.5,1.1c-0.43,0-0.95-0.44-1.85-3.63
			c-0.84-2.96-1.25-3.25-1.33-3.27c-0.18,0-0.35,0.09-0.51,0.26v11.6c0,2.07,0.86,3.3,2.61,3.78c0.93,0.22,2.07,0.33,3.37,0.33h0.25
			v1.66l-0.17,0.06c-6.99,2.34-7.34,2.34-7.49,2.34c-0.93,0-1.87-0.64-2.79-1.9c-0.9-1.24-1.36-2.71-1.36-4.36V47.23
			c0-0.26,0-0.47,5.01-2.34c4.39-1.62,5.33-1.81,5.66-1.81c0.32,0,0.55,0.38,0.83,1.41c0.23,0.82,0.49,1.81,0.79,2.97
			c0.29,1.13,0.59,1.97,0.9,2.5c0.28,0.47,0.81,0.7,1.63,0.7H104.81z"/>
	</g>
	<g>
		<path d="M118.83,44.9c-1.05-1.24-1.8-1.82-2.37-1.82c-0.33,0-1.27,0.19-5.64,1.81c-4.99,1.87-4.99,2.08-4.99,2.34v14.06
			c0,1.74,0.47,3.26,1.39,4.51c0.94,1.29,1.79,1.92,2.57,1.92c0.73,0,2.62-0.59,5.77-1.81c4.79-1.87,4.79-2.13,4.79-2.38V48.2
			C120.35,47.21,119.84,46.1,118.83,44.9z M111.42,48.03c0.45-0.34,0.93-0.51,1.4-0.51c1.28,0,1.91,0.94,1.91,2.88v12.38
			c-0.49,0.36-0.96,0.55-1.4,0.55c-1.29,0-1.91-0.95-1.91-2.89V48.03z"/>
	</g>
	<g>
		<path d="M130.39,63.92v1.28l-4.51,2.55l-0.11-0.05c-0.65-0.26-1.27-0.7-1.83-1.31c-0.57-0.62-0.87-1.23-0.87-1.8V41.17
			c0-1.6-0.5-2.48-1.53-2.68l-0.2-0.04v-1.28l4.51-2.55l0.11,0.05c0.65,0.26,1.26,0.71,1.82,1.31c0.58,0.62,0.87,1.23,0.87,1.8V61.2
			c0,1.6,0.51,2.48,1.54,2.68L130.39,63.92z"/>
	</g>
</g>
</svg>
