<?xml version="1.0" encoding="utf-8"?>
<!-- Generator: Adobe Illustrator 27.4.0, SVG Export Plug-In . SVG Version: 6.00 Build 0)  -->
<svg version="1.1" id="Capa_1" xmlns="http://www.w3.org/2000/svg" xmlns:xlink="http://www.w3.org/1999/xlink" x="0px" y="0px"
	 viewBox="0 0 138.92 66.55" style="enable-background:new 0 0 138.92 66.55;" xml:space="preserve">
<style type="text/css">
	.st0{fill:#FFFFFF;}
	.st1{fill:#FC0000;}
	.st2{fill:#BE251E;}
	.st3{fill:#010100;}
</style>
<rect x="-35.78" y="-295.62" class="st0" width="475.48" height="554.54"/>
<g>
	<g>
		<g>
			<path class="st1" d="M59.56,29.12c-2.3-1.07-3.07-1.58-3.33-1.77l-0.21-0.14c-0.23-0.12-0.35-0.47-0.37-1.02
				c0-1.07,0.21-1.42,0.26-1.47c0.23-0.33,0.56-0.6,0.95-0.84c0.4-0.21,0.74-0.35,0.88-0.37c0.02,0.02,0.47,0.16,1.67,1.42
				c1.02,1.07,1.79,2.26,2.26,3.58l0.54,1.47l1.26-0.93c1.79-1.35,3.58-2.7,5.37-4.05l0.65-0.47l-0.23-0.79
				c-0.7-2.42-2.33-4.56-4.86-6.4c-2.54-1.81-4.86-2.67-6.95-2.56c-1.28,0.07-2.98,1.02-5.35,2.95c-2.23,1.86-3.61,3.19-4.33,4.28
				c-0.79,1.37-1.16,2.95-1.12,4.72c0.02,1.72,0.33,3.16,0.86,4.26c0.56,1.21,1.72,2.33,3.51,3.42c1.65,1.02,3.44,1.95,5.33,2.79
				c2.19,0.95,3.12,1.51,3.67,1.93c0,0,0.16,0.19,0.16,0.95c0.02,1.07-0.21,1.51-0.3,1.65c-0.21,0.23-0.51,0.49-0.93,0.74
				c-0.35,0.21-0.65,0.33-0.77,0.35c-0.05,0-0.47-0.19-1.65-1.42c-1.02-1.09-1.77-2.3-2.26-3.61l-0.53-1.44l-1.23,0.88
				c-1.74,1.26-3.49,2.49-5.23,3.67l-0.56,0.42c0.09-1,0.16-2.56,0.09-5.09l-0.16-5.56c-0.14-4.63-0.53-6-0.81-6.61
				c-0.67-1.44-2.23-3.21-4.77-5.4c-2.7-2.28-4.63-3.37-6.12-3.42c-1.49-0.02-3.37,0.93-5.93,3.07c-2.44,2.07-3.84,3.67-4.4,5.05
				c-0.28,0.65-0.56,1.98-0.33,6.51l0.28,5.47c0.23,4.56,0.65,5.93,0.95,6.56c0.67,1.49,2.26,3.4,4.7,5.72
				c2.6,2.47,4.49,3.67,5.95,3.74c0.07,0,0.12,0.02,0.19,0.02c1.47,0,3.28-1.02,5.65-3.16c2.3-2.09,3.77-3.88,4.35-5.35
				c0.12-0.26,0.21-0.6,0.3-1.23l0.16,0.56c0.74,2.4,2.35,4.58,4.84,6.51c2.44,1.91,4.58,2.84,6.56,2.84h0.21
				c1.28-0.05,2.93-0.98,5.23-2.91c2.14-1.81,3.51-3.21,4.26-4.35c0.79-1.4,1.19-3.07,1.19-4.98c0-1.98-0.23-3.28-0.67-3.95
				C67.47,33.59,64.66,31.59,59.56,29.12z M37.72,40.47c-0.16,0.44-0.51,0.91-1,1.42c-0.42,0.42-0.65,0.51-0.65,0.51
				c-0.05,0-0.33-0.12-0.88-0.67c-0.53-0.58-0.93-1.12-1.16-1.6c-0.05-0.12-0.33-0.86-0.49-4.26l-0.23-5.49
				c-0.14-3.35,0.07-4.07,0.09-4.16c0.19-0.42,0.51-0.88,1.02-1.4c0.49-0.47,0.72-0.53,0.72-0.53c0.02,0,0.3,0.07,0.88,0.67
				c0.58,0.56,0.98,1.07,1.19,1.54c0.05,0.09,0.33,0.84,0.44,4.26l0.21,5.51C37.98,39.66,37.77,40.38,37.72,40.47z"/>
		</g>
	</g>
	<g>
		<g>
			<path class="st1" d="M92.26,21.73c-0.63-1.56-2.09-3.37-4.54-5.49c-2.54-2.21-4.49-3.26-6.09-3.14
				c-1.53,0.09-3.44,1.33-6.05,3.84c-2.47,2.4-3.95,4.33-4.58,5.91c-0.28,0.7-0.6,2.16-0.6,6.75l-0.02,19.72l0.05,1.21l1.21-0.05
				c2.19-0.09,4.33-0.19,6.49-0.28l1.12-0.05l0.05-7.28c1.42-0.07,2.84-0.14,4.26-0.19l-0.12,7.3l1.23-0.05
				c2.16-0.07,4.33-0.12,6.51-0.14l1.12-0.02l0.44-21.19C92.82,23.91,92.52,22.45,92.26,21.73z M83.73,28.8l-0.07,5.7
				c-1.44,0.07-2.88,0.14-4.3,0.21l0.02-5.51c0.02-3.47,0.28-4.28,0.35-4.44c0.21-0.49,0.58-1.05,1.14-1.65
				c0.54-0.6,0.81-0.72,0.81-0.72c0.05,0,0.28,0.07,0.77,0.56c0.51,0.51,0.86,1,1.07,1.47C83.57,24.52,83.77,25.24,83.73,28.8z"/>
		</g>
	</g>
	<g>
		<g>
			<path class="st1" d="M113.15,29.98c1.77,1.91,2.98,3.58,3.58,5.02c0.23,0.56,0.53,1.88,0.77,6.81c0.19,3.56,0.23,6.28,0.14,8.07
				l-0.07,1.26l-1.23-0.16c-2.16-0.26-4.33-0.49-6.49-0.65l-1.12-0.09l0.05-1.12c0.07-1.51,0.02-3.98-0.16-7.28
				c-0.21-4.37-0.47-5.26-0.53-5.42c-0.72-1.49-1.51-2.26-2.4-2.3l-0.67-0.02l-0.53,15.89l-1.16-0.05
				c-2.16-0.09-4.33-0.14-6.49-0.16h-1.19l0.6-22.79c0.09-3.12-0.14-4.51-0.35-5.14c-0.3-0.88-1.02-2.07-2.07-3.4l-0.77-0.98l1-0.7
				c2-1.44,4-2.86,6-4.26l0.65-0.47l0.65,0.44c1.26,0.84,2.26,2.28,3.02,4.4c0.74,2,1.07,4.44,0.98,7.23l-0.05,1.7l0.28,0.02
				c0.3,0.05,0.56-0.21,0.91-0.56c0.56-0.51,0.98-1,1.23-1.44c0.07-0.09,0.4-0.79,0.98-4.28c0.42-2.54,0.65-4.35,0.7-5.37l0.05-1.16
				l1.16,0.05c2.28,0.09,4.56,0.26,6.84,0.47l1.09,0.09l-0.05,1.12c-0.07,1.35-0.33,3.37-0.84,6.21c-0.67,3.79-1.05,4.86-1.33,5.35
				C115.85,27.31,114.8,28.49,113.15,29.98z"/>
		</g>
	</g>
</g>
</svg>
