<?xml version="1.0" encoding="UTF-8"?>
<svg id="Capa_1" data-name="Capa 1" xmlns="http://www.w3.org/2000/svg" viewBox="0 0 182.41 400.77">
  <defs>
    <style>
      .cls-1 {
        fill: #fc0000;
      }

      .cls-2 {
        fill: #fff;
      }

      .cls-3 {
        fill: #be251e;
      }
    </style>
  </defs>
  <rect x="-452.44" y="-67.34" width="941.9" height="554.54"/>
  <g>
    <g>
      <path class="cls-2" d="m88.95,305.23c-1.03-.01-2.06-.03-3.09-.08l-.66-.04c-1.11-.05-2.18-.14-3.17-.25-1.41-.16-2.96-.69-4.75-1.62-.38-.18-.71-.42-.97-.71-.13-.14-.25-.28-.35-.42-.07-.09-.15-.21-.22-.36-.04-.07-.11-.18-.15-.31-.1-.19-.16-.39-.2-.58-.03-.1-.06-.21-.08-.33l-.05-.03v-.11s-.23-.22-.23-.22l.17-.19c-.02-.19-.04-.39-.05-.63-.01-.36-.02-.71-.02-1.06,0-3.15.48-6.42,1.54-10.62.48-1.98.75-4.05,1.01-6.07.09-.71.18-1.42.28-2.13.04-.29.06-.59.06-.89,0-.61-.08-1.22-.22-1.81-.15-.62-.37-1.27-.67-1.99-.09-.21-.19-.43-.28-.64-.22-.49-.39-1-.55-1.48-.09-.26-.17-.52-.27-.78-.44-1.22-.9-2.44-1.36-3.64l-.45-1.19c-.93-2.44-1.89-4.97-2.78-7.48-.47-1.25-.94-2.6-1.45-4.13-.22-.67-.4-1.33-.54-1.96-.31-1.39-.47-2.87-.47-4.42,0-.48.01-.97.04-1.46.15-2.34.65-4.86,1.54-7.7.2-.65.31-1.27.32-1.85,0-.19-.01-.39-.03-.56-.08-.74-.31-1.5-.73-2.36-.98-2.04-1.92-4.12-2.88-6.34-1-2.31-1.96-4.64-2.67-6.42-.15-.37-.28-.74-.4-1.13-.11-.37-.21-.75-.31-1.15-.16-.77-.28-1.56-.34-2.34l-.05-.62c-.17-2.27-.35-4.62-.35-6.93,0-.77.02-1.52.06-2.27.05-.74.19-1.52.43-2.39.14-.51.31-1.02.48-1.53l.22-.64c.18-.53.37-1.07.53-1.59.31-1.01.64-2.02.98-3.02.38-1.16.77-2.32,1.12-3.48.05-.16.08-.33.08-.52v-.1c0-.24-.03-.44-.08-.6-.62-2.08-1.27-4.13-1.91-6.18-1.39-4.42-2.82-8.98-3.96-13.54-.09-.36-.19-.71-.3-1.03l-.08-.23-.09-.23c-.03-.08-.05-.13-.08-.18l-.05-.11s-.04-.08-.06-.12l-.17-.33c-.04-.06-.07-.11-.12-.17l-.05-.07-.02-.05-.02-.02c-.07-.1-.14-.2-.23-.29l-.06-.06-.02-.03c-.18-.2-.38-.38-.62-.55-.42-.32-.96-.59-1.69-.85-.48-.17-1.01-.38-1.57-.62-.07-.03-.15-.06-.24-.11l-.39-.18c-.17-.08-.31-.15-.46-.22-.14-.07-.5-.24-.5-.24l-.06-.06-.38-.19-.32-.18s-.4-.23-.49-.28h-.06l-.11-.1s-.6-.37-.6-.37c-.16-.1-.33-.21-.5-.33-.03,0-.08-.04-.13-.09-.24-.16-.46-.32-.7-.49-.02,0-.07-.05-.13-.08l-.12-.08c-.09-.06-.14-.11-.19-.15-.04-.03-.08-.07-.13-.1-.12-.09-.21-.15-.29-.24-.1-.07-.26-.2-.42-.32l-.14-.11c-.2-.15-.4-.32-.59-.49-.07-.04-.11-.09-.14-.11-.02,0-.07-.05-.12-.11-.03-.03-.26-.22-.26-.22-.29-.26-.56-.51-.84-.76-.27-.25-.53-.51-.8-.78l-.4-.39c-.23-.23-.46-.47-.66-.7l-.04-.04c-.18-.18-.3-.31-.42-.45l-.2-.23c-1.92-2.16-3.55-4.55-4.84-7.1-.32-.64-.62-1.29-.9-1.94-.83-1.95-1.5-4.03-1.98-6.17-.08-.35-.11-.7-.13-1.04-.02-.26-.04-.53-.09-.79-.03-.16-.07-.32-.12-.45-.16-.43-.34-.81-.55-1.14-.1-.15-.21-.31-.33-.45-.11-.13-.23-.23-.32-.28-1.01-.64-1.97-1.45-3.04-2.55-.68-.7-1.32-1.44-1.94-2.16l-.59-.69c-.33-.39-.66-.78-.97-1.2-.87-1.15-1.65-2.38-2.4-3.58h-.22v-.19h-.02s-.01-.19-.01-.19c-.14-.23-.29-.46-.43-.69,0,0-.19-.3-.23-.35-.14-.24-.26-.43-.39-.61l-.09-.13h0s-.01-.02-.01-.02v-.06s-.04-.15-.04-.15v-.06c-.03-.08-.04-.18-.05-.27v-.12s-.05-.03-.05-.03v-.21c-.01-.24,0-.47.04-.71.07-.64.33-1.27.74-1.81.38-.47.82-.83,1.32-1.07,0,0,.12-.05.13-.05-.01-.17,0-.34.02-.51.04-.89.41-1.73,1.05-2.38.68-.69,1.61-1.07,2.63-1.08.1-.75.38-1.46.79-2.04.51-.75,1.23-1.3,2.09-1.58.38-.12.77-.17,1.21-.17.47,0,.92.07,1.34.22l.34.12v.03c.39.17.76.4,1.1.68.59-.78,1.42-1.35,2.33-1.61.29-.1.63-.14.95-.18h.26c.2,0,.41,0,.6.05.17.02.36.06.56.12.33.08.69.23,1.04.43.66.4,1.23.94,1.64,1.58.02.02.05.07.09.12l.1.11v.09s.03.02.03.03l.08.08v.12c.04.09.07.15.08.23l.03.18c.03.14.07.3.16.43l.03.03.06.08.04.04.08.07.03.05.07.07.04.06c.33.42.66.85.97,1.29.31.4.64.81.97,1.21.18.22.5.42.85.52,1.01.32,1.98.55,2.95.73.3.06.57.09.82.09.32,0,.49-.03.64-.07l.06-.02h.02c.38-.09.73-.13,1.08-.13s.69.05.94.1c.07,0,.11.02.15.03.13.03.27.06.4.1-2.79-6.58-.89-12.75-.65-13.46h0c.08-.36.17-.71.27-1.06.11-.4.23-.76.34-1.11.02-.06.03-.1.03-.13.01-.06.02-.12.04-.19.06-.26.09-.55.09-.84-.01-.69-.05-1.4-.09-2.1l-.04-.71c-.02-1.39-.03-2.75-.04-4.12-.02-.34-.02-.71-.02-1.08,0-1.05.06-2,.19-2.9.2-1.33.51-2.65.93-3.9.07-.2.1-.38.13-.55.09-.6-.01-1.16-.12-1.64-.08-.29-.17-.61-.27-.91l-.07-.23c-.13-.42-.25-.82-.33-1.22-.9-4.62-1.98-9.54-3.3-15.02-.52-2.11-.77-4.39-.77-6.98,0-.42.01-.83.02-1.23.16-5.25,3.09-8.3,8.25-8.69.24-.01.39-.02.55-.02h.25c.14,0,.28.01.43.02h.22c.12.02.25.02.37.04.15.01.31.04.47.06l.12.02c.2.03.37.05.53.09.18.04.37.08.58.14.13.04.27.08.43.11.16.04.3.1.46.16l.15.06c.09.02.21.07.33.12l.09.04c.21.08.4.17.6.26l.1.04c.11.05.22.1.32.16.17.07.38.18.59.3.06.04.11.06.15.08.07.04.14.07.21.12.17.09.38.21.59.34l.13.09s.04.03.13.07c.37.24.66.44.95.62.55.39,1.05.76,1.57,1.16.66.52,1.3,1.05,1.94,1.58.81.67,1.65,1.37,2.5,2.01.03.02.1.06.21.09l.15.02c.06.02.11.03.16.03h.05l.08.02s.14-.03.18-.03c-.03,0,.04-.03.08-.05,3.65-2.13,7.76-3.57,12.19-4.27.84-.13,1.69-.23,2.55-.33.51-.06,1.02-.12,1.52-.19l4.11-.03c4.6.24,8.48,1.05,11.88,2.48,1.98.83,3.89,1.86,5.74,2.85.48.26.97.52,1.45.78,0,0,.22.11.26.13l.32.12h0s.18.07.18.07v.5l.12-.49h.05s.13-.02.13-.02l.06-.04.08-.03c.06-.03.09-.06.12-.08l.04-.04.11-.08s.1-.1.16-.16l.4.31-.32-.38c2.73-3,5.74-6.07,9.89-7.77.69-.29,1.36-.5,1.98-.65.4-.11.79-.19,1.19-.24l.17-.03c.42-.06.82-.08,1.26-.08h.68c.16.02.24.03.32.03h.12c.14.03.29.05.44.08l.26.03c.16.03.29.06.41.09l.16.04c.15.03.21.04.27.05l.18.06c.22.07.45.14.66.23.87.32,1.64.76,2.27,1.32,1.64,1.42,2.46,3.5,2.6,6.54.16,3.88-.68,7.64-1.61,11.12-1.47,5.48-3.2,10.8-4.84,15.72-.41,1.24-.32,2.35-.2,3.63.02.28.05.56.07.84.06.81.14,1.62.23,2.43.26,2.45.52,4.97.03,7.56-.32,1.63-.21,3.62.36,6.11.14.64.25,1.25.33,1.8.02.1.02.21.03.31v.12s.03.18.03.18c.04.38.09.77.11,1.16v.57c.01.38.02.76.01,1.16l-.04.65c-.02.35-.05.71-.08,1.04l-.05.4c-.02.1-.03.16-.04.23l-.02.13c-.02.2-.06.41-.1.62l-.05.31-.05.23c-.04.2-.09.39-.14.58-.06.28-.13.59-.22.9-.03.12-.07.27-.12.43-.03.11-.06.21-.09.33-.1.31-.2.6-.3.9,0,0-.13.35-.17.45.76-.33,1.54-.5,2.29-.5.51,0,1,.08,1.45.23.13.04.26.07.4.09h.02s.05,0,.09,0c.09,0,.18,0,.26,0h.13c.18,0,.38-.02.58-.04.95-.11,1.95-.29,2.98-.54.12-.03.26-.08.39-.14.19-.08.38-.21.53-.35.05-.07.15-.17.25-.27.08-.09.17-.18.25-.27l.21-.24c.11-.13.22-.26.33-.38.21-.26.45-.52.69-.8l.34-.39.18-.19.06-.05.03-.03.07-.05s.04-.04.08-.11c.06-.1.09-.19.12-.31l.53-.03-.48-.12.04-.13c.07-.2.16-.38.27-.55.02-.04.08-.13.18-.23.08-.11.19-.25.31-.38l.19-.17s.13-.13.25-.22c.02-.02.09-.09.18-.15.11-.08.17-.13.24-.18.06-.05.14-.08.21-.12.06-.05.13-.09.21-.13.14-.07.24-.11.32-.14.03-.02.13-.06.23-.1.04-.03.14-.06.21-.07l.27-.08c.15-.04.23-.05.31-.06.18-.03.27-.04.36-.04.02,0,.13-.02.22-.02h.26c.07,0,.14,0,.21,0l.2.02c.64.06,1.25.29,1.82.67.5.31.96.75,1.35,1.32.47-.34.96-.58,1.49-.73.21-.05.4-.08.59-.11l.09-.04h.13s.27,0,.27,0h.28c.43.04.82.12,1.19.26,1.53.59,2.54,2.05,2.66,3.79h.03c.94.05,1.86.49,2.52,1.23.71.81,1.02,1.87.88,2.96.55.28,1.03.7,1.38,1.21.38.55.6,1.2.64,1.87.01.15.01.34,0,.5,0,.04-.01.15-.02.24-.01.09-.03.2-.06.3-.03.14-.04.22-.07.31l-.11.31-.04.06c-.28.37-.54.74-.81,1.11l-.55.76c-1.15,1.59-2.34,3.23-3.75,4.65l-.64.65c-1.56,1.59-3.17,3.22-5.22,4.37-.46.25-.9.84-1.35,1.79-.17.36-.24.79-.3,1.24-.05.33-.1.68-.2,1.02-.19.64-.39,1.27-.61,1.89-.09.27-.2.53-.3.8l-.12.29c-.1.26-.2.52-.31.8-.16.37-.31.72-.48,1.08-.09.23-.21.48-.33.74,0,0-.49.94-.58,1.14,0,0-.1.17-.11.19v.06h-.01v.02l.04.08-.03.11.03.14-.09.2c-1.92,3.19-4.41,6.13-7.4,8.73-1.02.87-2.11,1.8-3.25,2.64-1.15.84-2.31,1.61-3.45,2.29-2.58,1.5-5.14,2.51-7.82,3.09-.18.04-.5.37-.58.6-.86,2.58-1.7,5.18-2.54,7.78-.72,2.21-1.43,4.42-2.16,6.63-.14.43-.27.86-.41,1.29-.51,1.63-1.04,3.32-1.79,4.89-1.44,2.99-.44,5.71.61,8.59l.15.42c.32.87.66,1.74.99,2.61,1.03,2.66,2.1,5.4,2.65,8.31.9,4.76.93,8.6.11,12.11-.32,1.37-.74,2.74-1.15,4.06-.41,1.34-.84,2.72-1.16,4.1-.09.42-.1.93-.02,1.51.06.5.17,1.01.27,1.5,0,0,.22,1.04.31,1.45.6,2.83,1.23,5.75.78,8.83-.97,6.57-5.13,11.9-10.6,13.58-.31.09-.63.12-.91.13-.11.01-.21.01-.32.03-.52.04-1.02.06-1.52.09l-.67.03-3.05-.18v-.16l-.12-.11-.63-.74c-.36-.42-.71-.85-1.08-1.26-2.31-2.65-3.11-5.87-3.78-9.21l-.02-.1c-.02-.09-.03-.17-.05-.22-.04-.11-.05-.15-.07-.18l-.1-.11-.07-.04-.06-.02-.03-.03h-.02s-.1-.08-.1-.08c-.18-.08-.28-.1-.37-.13h-.07l-.04-.02h-.09s-.02.05-.03.07v.04c-.03.13-.04.23-.05.36-.01.14-.02.29-.03.44-.03.28-.05.55-.03.8.25,2.01-.18,3.94-.59,5.81-.12.55-.24,1.1-.35,1.66-.49,2.57-.81,5.27-.94,8.02-.09,1.82-.08,3.68-.06,5.48.01,1.33.02,2.66-.01,3.99-.08,2.93.33,6.04,1.27,9.79,1,3.99,2.03,8.1,2.2,12.3.06,1.42-.14,3.02-.61,4.75-.59,2.24-2.87,2.98-4.1,3.38-1.7.55-3.57.86-5.4.92-.6.01-1.2.02-1.79.02h-.22Z"/>
      <path class="cls-2" d="m61.63,56.66c.15,0,.3.01.47.02.16.01.33.01.49.03.2.02.38.05.58.08.15.02.32.04.47.08.19.04.37.08.57.14.14.04.29.08.45.12.18.05.37.13.56.2.14.04.28.1.41.15.2.08.38.16.57.25.13.06.26.11.38.18.21.09.4.19.59.3.11.07.23.12.34.19.22.12.44.25.66.38.07.06.16.11.25.15.29.2.59.4.89.59.52.37,1.02.74,1.53,1.13,1.49,1.17,2.92,2.44,4.44,3.59.09.07.23.13.37.17.04,0,.08,0,.14.02.1.03.2.05.31.05.02,0,.05,0,.07,0,.06,0,.1,0,.14,0,.04,0,.08,0,.11,0,.11-.02.22-.06.3-.1,3.75-2.19,7.77-3.55,12.04-4.22,1.34-.21,2.7-.34,4.06-.52,1.34-.01,2.7-.02,4.05-.03,4.03.21,7.97.88,11.68,2.44,2.46,1.03,4.79,2.36,7.15,3.61.11.05.21.11.31.15h0s.09.05.13.07c.05.02.11.05.16.06.04.02.08.04.12.05.05.02.1.03.15.04.04,0,.07,0,.12.02.04,0,.09,0,.14,0s.1,0,.15-.02c.03,0,.08,0,.11,0,.06-.02.12-.04.18-.08.03,0,.06-.02.09-.04.07-.03.14-.09.2-.14.03-.02.07-.05.1-.08.09-.06.17-.15.26-.25.02-.02.05-.04.07-.07,2.79-3.07,5.69-6,9.71-7.64.63-.26,1.28-.48,1.91-.63.41-.11.81-.19,1.22-.24.04-.02.08-.02.14-.03.38-.05.76-.07,1.15-.07h.24c.15,0,.29.01.44.01.11.01.21.02.32.02.15.02.31.04.47.07.1.01.2.03.3.04.17.03.34.08.51.12.09.02.18.03.26.05.25.08.52.16.77.26.85.31,1.56.73,2.13,1.23,1.74,1.51,2.32,3.74,2.43,6.19.15,3.73-.64,7.4-1.59,10.97-1.42,5.28-3.1,10.5-4.83,15.69-.54,1.62-.27,3.06-.16,4.67.23,3.26.9,6.51.26,9.86-.4,2.01-.1,4.28.36,6.31.13.59.24,1.18.32,1.76.02.13.02.27.03.4.05.43.11.88.13,1.33v.55c.01.38.02.76.01,1.15-.01.21-.03.42-.04.64-.02.34-.05.69-.08,1.02-.02.12-.03.24-.05.36-.03.12-.04.24-.06.36-.04.32-.1.62-.15.93-.06.26-.11.51-.18.76-.06.3-.13.59-.22.88-.06.26-.15.51-.22.78-.09.28-.19.57-.29.86-.09.24-.18.49-.28.73-.04.09-.07.17-.1.25-.03.09-.07.18-.11.27,0,0-.04.17-.16.5.24-.18.51-.35.78-.49h.01s.01-.03.03-.03c.01,0,.02,0,.03,0,.03-.02.08-.04.12-.06.72-.35,1.5-.54,2.27-.54.44,0,.88.07,1.29.2.16.05.31.08.47.11h.04s.05,0,.07,0c.12,0,.24.02.35.02h.13c.21,0,.42-.02.63-.04,1.01-.12,2.04-.31,3.05-.55.16-.04.33-.1.48-.17.25-.11.48-.27.66-.44.17-.2.36-.38.53-.58.18-.2.35-.41.53-.6.23-.28.46-.54.7-.81.11-.13.23-.26.35-.4.04-.04.08-.09.13-.14h.01s.07-.06.11-.1c.1-.07.16-.16.22-.26.11-.17.15-.35.2-.51.02-.07.03-.12.05-.18.05-.15.12-.29.21-.42.03-.06.07-.11.12-.16h.01c.1-.14.2-.27.31-.39.05-.04.09-.08.14-.12.07-.08.15-.15.24-.22.04-.04.09-.09.15-.13.08-.06.15-.12.24-.18.05-.04.12-.07.19-.1.07-.06.15-.1.24-.15.06-.03.13-.06.19-.08.09-.05.17-.08.25-.11.07-.04.15-.05.21-.07.09-.03.18-.05.26-.08.08-.02.15-.03.22-.04.09,0,.18-.03.28-.03.07,0,.15-.02.22-.02.09,0,.17,0,.26,0,.04,0,.09,0,.13,0,.06,0,.13,0,.21.02.59.06,1.13.27,1.61.59.49.3.9.72,1.23,1.21.05.07.11.15.15.23.02.03.05.08.07.11.01.03.03.07.05.1l.05-.04.07-.07s.05-.04.07-.06c.47-.39,1-.67,1.56-.83.17-.04.34-.07.51-.09.05,0,.11,0,.16-.02.09,0,.19,0,.27,0h.24c.36.03.71.1,1.05.23,1.5.58,2.4,2.12,2.35,3.82.07,0,.15,0,.21,0,.08,0,.16,0,.22,0,.89.05,1.67.44,2.23,1.07.71.81.93,1.89.69,2.93.62.23,1.16.65,1.53,1.19.33.48.52,1.04.55,1.61.01.14.01.3,0,.44,0,.06-.01.14-.02.21-.01.08-.03.17-.05.26-.02.09-.03.17-.06.26-.03.08-.05.15-.08.23-.44.58-.85,1.17-1.28,1.76-1.19,1.64-2.37,3.28-3.78,4.7-1.76,1.77-3.49,3.67-5.75,4.94-.69.38-1.2,1.25-1.56,2.01-.34.71-.31,1.57-.53,2.34-.19.63-.39,1.25-.6,1.87-.12.36-.27.71-.41,1.07-.1.26-.2.52-.31.79-.15.36-.3.7-.47,1.05-.1.25-.21.49-.33.74-.19.38-.39.75-.58,1.13-.05.08-.1.18-.16.27h0s-.01.02-.01.03c-.01.07-.01.12-.01.18,0,.02,0,.05.01.07,0,.03,0,.06.01.08-.01.04,0,.09.01.13-1.92,3.19-4.37,6.06-7.3,8.61-1.05.9-2.11,1.79-3.22,2.61-1.1.81-2.24,1.57-3.41,2.26-2.36,1.37-4.89,2.43-7.67,3.03-.38.09-.82.55-.95.92-1.59,4.8-3.12,9.62-4.7,14.42-.67,2.06-1.25,4.17-2.18,6.12-1.6,3.33-.36,6.36.74,9.4,1.31,3.58,2.9,7.05,3.62,10.84.75,3.98,1.04,7.95.11,11.9-.65,2.75-1.67,5.41-2.31,8.16-.12.53-.11,1.11-.03,1.69.07.58.2,1.16.32,1.73.67,3.26,1.54,6.48,1.04,9.91-.9,6.1-4.66,11.46-10.25,13.18-.36.11-.76.1-1.13.14-.72.05-1.44.08-2.16.12-.83-.05-1.68-.1-2.52-.15,0-.01-.01-.02-.01-.02h-.01s-.01-.02-.01-.02c-.01-.03-.03-.05-.05-.06h0s-.04-.01-.04-.01c-.01-.01-.02,0-.03-.01s-.01-.01-.02-.01c0,0-.01,0-.02.01h-.05c-.58-.68-1.13-1.35-1.71-2.01-2.25-2.58-3.02-5.77-3.67-8.98-.03-.15-.05-.29-.1-.41-.03-.1-.07-.2-.14-.29-.03-.04-.06-.09-.1-.12-.04-.04-.08-.08-.13-.11,0-.01-.01-.01-.01-.01-.04-.03-.08-.06-.13-.08h-.01s-.06-.04-.09-.05c-.05-.04-.11-.07-.17-.09-.15-.07-.27-.1-.39-.13-.03-.01-.06-.02-.09-.02-.07-.02-.14-.04-.2-.04-.01,0-.03-.01-.05-.01-.01,0-.02.01-.03.01-.07,0-.13.03-.18.05-.01.01-.04.01-.05.02-.06.03-.11.09-.14.16-.01.01-.02.04-.03.06-.02.06-.05.13-.07.22,0,.02-.01.05-.01.08-.02.11-.03.22-.04.37-.02.43-.1.88-.06,1.32.31,2.52-.47,4.89-.93,7.33-.51,2.66-.82,5.38-.95,8.09-.16,3.15,0,6.32-.07,9.48-.09,3.38.47,6.68,1.29,9.92,1.01,4.02,2.02,8.04,2.18,12.2.07,1.53-.19,3.12-.59,4.6-.48,1.83-2.21,2.53-3.77,3.04-1.68.54-3.5.84-5.26.89-.59.01-1.19.02-1.78.02h-.14c-1.02-.01-2.04-.03-3.07-.08-.22-.01-.43-.03-.66-.04-1.05-.05-2.1-.13-3.14-.25-1.58-.18-3.16-.83-4.58-1.57-.33-.16-.61-.36-.83-.6-.11-.12-.22-.24-.31-.37-.09-.11-.15-.23-.22-.36-.04-.06-.08-.14-.1-.22-.09-.15-.14-.33-.18-.5-.06-.18-.09-.35-.12-.54-.02-.01-.02-.02-.02-.03-.01-.01-.01-.02,0-.03-.05-.26-.07-.53-.08-.81-.01-.35-.02-.7-.02-1.04,0-3.58.65-7.04,1.53-10.5.66-2.7.91-5.5,1.3-8.25.04-.32.06-.64.06-.96,0-.65-.08-1.3-.24-1.93-.17-.69-.41-1.38-.69-2.06-.09-.22-.19-.44-.29-.66-.33-.73-.53-1.49-.8-2.23-.5-1.37-1.02-2.74-1.53-4.09-1.04-2.74-2.08-5.46-3.06-8.21-.51-1.36-.99-2.74-1.45-4.12-.21-.63-.39-1.27-.53-1.91-.32-1.42-.46-2.87-.46-4.31,0-.47.01-.95.04-1.43.16-2.54.74-5.09,1.52-7.58.22-.71.33-1.37.34-1.99,0-.22-.01-.43-.03-.62-.09-.83-.35-1.64-.78-2.53-1-2.09-1.95-4.19-2.87-6.32-.92-2.12-1.8-4.26-2.67-6.41-.14-.35-.27-.71-.38-1.08-.11-.36-.21-.73-.3-1.12-.16-.75-.27-1.52-.33-2.27-.19-2.5-.4-5.01-.4-7.51,0-.76.02-1.5.06-2.24.05-.77.2-1.52.41-2.28.14-.5.3-1,.47-1.51.25-.74.52-1.5.75-2.24.67-2.18,1.45-4.33,2.1-6.51.07-.2.1-.43.1-.66v-.1c0-.26-.03-.53-.11-.76-1.97-6.56-4.2-13.05-5.86-19.68-.1-.38-.2-.74-.31-1.07-.03-.09-.05-.16-.08-.24s-.06-.15-.09-.23c-.03-.1-.08-.19-.12-.27-.03-.09-.08-.18-.12-.27-.03-.07-.08-.15-.12-.23,0,0-.01-.02-.01-.02-.05-.09-.1-.16-.16-.24-.01-.03-.03-.06-.05-.1t-.02-.02c-.09-.13-.18-.25-.29-.36-.01-.02-.02-.03-.03-.04-.21-.24-.45-.45-.72-.65-.48-.36-1.07-.65-1.82-.92-.52-.18-1.04-.39-1.54-.61-.07-.03-.14-.06-.22-.1-.14-.06-.28-.13-.42-.19-.15-.07-.29-.14-.43-.21s-.28-.14-.43-.21c-.02-.02-.04-.03-.06-.04-.05-.03-.1-.05-.14-.08-.2-.11-.41-.22-.61-.33-.19-.11-.39-.22-.59-.34-.01,0-.02,0-.03-.02-.02,0-.05-.02-.08-.04-.17-.11-.35-.22-.52-.33-.16-.1-.33-.21-.49-.32-.04-.02-.07-.04-.1-.07-.24-.16-.47-.32-.71-.5-.1-.06-.19-.13-.29-.19-.11-.08-.2-.17-.31-.24-.07-.05-.14-.1-.21-.17-.2-.15-.41-.32-.6-.47-.21-.16-.41-.33-.6-.5-.04-.02-.07-.05-.09-.07-.04-.03-.09-.07-.12-.11-.08-.06-.15-.13-.23-.19-.3-.27-.59-.53-.88-.8-.4-.37-.79-.77-1.19-1.16-.23-.23-.45-.47-.65-.7-.04-.03-.06-.06-.09-.08-.19-.2-.37-.41-.56-.62-1.91-2.15-3.5-4.49-4.77-6.99-.31-.62-.61-1.27-.88-1.91-.83-1.94-1.48-3.97-1.95-6.08-.13-.59-.11-1.21-.22-1.81-.04-.19-.08-.38-.16-.56-.15-.4-.34-.81-.58-1.2-.12-.18-.24-.36-.38-.52-.13-.15-.29-.3-.46-.39-1.1-.7-2.04-1.56-2.91-2.46-.89-.91-1.7-1.89-2.52-2.83-.32-.38-.64-.76-.95-1.17-.91-1.2-1.71-2.48-2.52-3.77h0s-.01,0-.01,0c0,0-.02,0-.02-.02-.19-.33-.4-.65-.6-.96-.05-.08-.1-.16-.15-.23-.12-.21-.25-.41-.38-.6,0-.02-.01-.02-.01-.03-.01-.03-.03-.07-.04-.11,0-.03-.01-.07-.02-.11-.03-.12-.03-.24-.05-.36,0-.02-.01-.05-.01-.08,0-.04,0-.07-.02-.09h0c-.01-.23,0-.43.03-.64.06-.57.28-1.11.64-1.57.31-.39.69-.71,1.14-.92.15-.06.31-.13.46-.17-.05-.27-.06-.53-.03-.79.04-.79.35-1.52.91-2.09.59-.6,1.41-.93,2.3-.93.14,0,.28,0,.43.02.03-.84.29-1.64.74-2.27.44-.65,1.07-1.14,1.84-1.39.35-.11.7-.15,1.06-.15.4,0,.8.06,1.18.19h0c.55.2,1.06.52,1.5.93.02,0,.03.04.04.05.06.04.1.08.14.13.09-.14.19-.29.3-.43.53-.7,1.26-1.22,2.09-1.46.27-.09.57-.13.86-.16h.21c.17,0,.35,0,.51.04.18.02.34.06.51.11.32.08.63.21.93.38.57.34,1.09.83,1.47,1.42.04.05.08.11.11.16.01,0,.02.04.02.05.01.02.02.04.04.06.01.02.02.04.03.06.01,0,.02.02.02.04t.01.02c.02.07.06.15.07.21l.03.18c.04.2.1.43.25.64.03.06.07.1.12.15.02.03.03.04.06.06.02.02.04.03.05.05.02.03.04.06.07.08.02.02.04.04.06.08.33.41.65.84.96,1.27.33.42.66.84,1,1.24.26.32.69.56,1.09.68.99.31,1.99.56,3.01.74.29.06.6.1.91.1h.08c.25,0,.47-.03.69-.09h.01c.33-.08.67-.13,1.02-.13h.02c.28,0,.56.04.83.09.05,0,.08,0,.12.02.28.06.55.14.81.24.05.02.08.04.11.06.21.08.42.18.61.29-3.57-6.96-1.34-13.8-1.18-14.28.01-.02.01-.03.01-.03.08-.37.18-.73.28-1.09.1-.37.22-.73.34-1.09.03-.1.04-.2.07-.31.07-.31.11-.64.11-.97-.01-.94-.08-1.89-.13-2.83-.02-1.37-.03-2.73-.04-4.1-.02-.36-.02-.72-.02-1.08,0-.95.05-1.89.18-2.83.19-1.29.49-2.56.91-3.81.08-.22.12-.43.15-.63.1-.64.01-1.24-.13-1.83-.1-.39-.23-.79-.35-1.18s-.24-.78-.32-1.17c-.98-5.04-2.1-10.05-3.3-15.04-.56-2.27-.76-4.56-.76-6.86,0-.44.01-.87.02-1.29.15-4.86,2.87-7.76,7.78-8.13.18-.01.34-.02.51-.02h.25m0-1h-.25c-.17,0-.33.01-.51.02h-.05c-5.39.41-8.56,3.72-8.72,9.1-.01.44-.02.87-.02,1.32,0,2.63.26,4.95.79,7.1,1.31,5.47,2.39,10.37,3.29,14.99.09.44.22.86.34,1.27l.08.24c.09.3.19.6.26.9.1.41.19.92.11,1.43-.02.15-.05.3-.1.44-.44,1.3-.76,2.64-.96,4.01-.13.93-.19,1.9-.19,2.98,0,.38,0,.76.02,1.14.01,1.32.02,2.69.04,4.06l.04.74c.04.69.08,1.4.09,2.09,0,.23-.03.49-.09.74-.01.03-.03.11-.04.18v.07c-.13.35-.25.72-.36,1.11-.1.35-.2.71-.28,1.09-.26.79-2.01,6.57.32,12.93-.2-.03-.43-.05-.67-.05-.39,0-.76.04-1.15.13h-.02l-.14.04c-.11.03-.25.05-.47.06h-.04c-.22,0-.45-.03-.71-.08-.98-.17-1.93-.41-2.91-.72-.26-.08-.5-.22-.61-.36-.35-.41-.67-.82-.99-1.23-.33-.46-.64-.86-.92-1.22-.06-.09-.11-.15-.16-.2-.06-.08-.12-.14-.16-.17l-.02-.02-.03-.04c-.04-.05-.06-.16-.08-.25l-.02-.15c-.02-.1-.04-.18-.07-.25v-.23l-.19-.2-.05-.11h-.01s-.02-.04-.03-.06c-.04-.06-.09-.13-.13-.2-.45-.69-1.06-1.28-1.77-1.7-.41-.23-.8-.39-1.2-.49-.14-.04-.35-.1-.61-.13-.19-.03-.41-.05-.66-.05h-.31c-.34.05-.71.1-1.07.22-.82.24-1.61.73-2.23,1.4-.17-.12-.34-.22-.52-.31v-.06l-.68-.24c-.47-.16-.98-.24-1.5-.24s-.94.06-1.36.2c-.98.32-1.79.93-2.37,1.78-.37.52-.64,1.15-.79,1.83-.99.1-1.89.52-2.56,1.21-.72.73-1.13,1.67-1.19,2.71-.01.07-.01.14-.02.22-.51.27-.96.64-1.34,1.12-.48.61-.77,1.33-.85,2.09-.03.24-.05.5-.03.78l.02.39.04.04c.01.09.02.18.04.27v.03l.03.12s.01.05.02.07v.14l.18.26c.12.17.23.35.34.53l.02.04.03.04c.04.05.08.12.12.18l.08.13c.12.19.25.38.37.58v.34h.02v.4h.45c.71,1.14,1.46,2.3,2.28,3.38.32.43.66.83.98,1.21.21.24.4.46.6.69.63.73,1.28,1.48,1.97,2.2.69.71,1.76,1.76,3.09,2.6l.03.02.04.02s.08.06.17.16c.1.11.2.26.3.42.17.27.33.62.48,1v.03s.02.03.02.03c.04.08.07.22.1.36.04.2.06.45.08.72.03.35.06.72.14,1.1.48,2.17,1.16,4.27,2.01,6.26.28.65.58,1.31.91,1.96,1.32,2.59,2.97,5.02,4.92,7.21l.2.22c.13.14.25.29.38.42l.08.08.03.02c.22.25.44.49.65.7l.4.39c.27.27.54.54.82.79.27.25.54.49.81.74l.08.07.03.03.04.03s.04.03.06.05c.03.02.05.05.08.07.05.05.1.1.15.14.03.03.08.07.14.11.21.19.41.35.6.5l.13.1c.14.11.28.23.43.33.11.1.2.17.27.22l.02.02.02.02s.05.04.08.06c.06.05.12.1.18.14l.04.03.04.02s.06.04.09.06c.05.03.1.07.15.1.22.17.44.32.66.47.06.05.12.09.19.13.16.11.33.22.48.31l.26.17.25.16s.08.05.11.07c.03.02.05.03.08.05.11.07.23.13.34.2l.21.12.33.18.26.14s.06.04.09.06l.04.04.16.07c.14.07.27.13.41.2.15.07.3.15.45.22.09.04.15.07.21.1.07.03.14.07.21.1.09.04.17.08.25.11.56.25,1.1.46,1.61.64.67.24,1.17.49,1.55.77.21.15.37.3.51.44l.02.04.11.11s.09.1.15.19l.02.05.1.13s.05.07.08.11c.02.04.05.09.07.13l.03.05.06.12s.02.05.03.07l.02.07.03.06.02.05s.03.05.04.07v.03s.02.02.02.02l.05.13.04.1s.02.07.04.11l.03.1c.11.33.21.69.29,1.01,1.14,4.56,2.58,9.13,3.96,13.55.63,2.02,1.29,4.11,1.91,6.17.03.09.07.22.07.47v.1c0,.13-.02.25-.04.33-.36,1.2-.75,2.38-1.13,3.52-.33.99-.67,2.01-.98,3.03-.16.52-.34,1.05-.52,1.57l-.22.64c-.14.43-.33.99-.49,1.56-.25.9-.39,1.71-.44,2.48-.04.78-.06,1.53-.06,2.3,0,2.33.18,4.68.35,6.96l.05.63c.07.82.18,1.62.35,2.4.1.42.2.8.32,1.2.11.36.24.74.41,1.16.72,1.78,1.67,4.12,2.68,6.44.97,2.24,1.91,4.32,2.89,6.35.4.82.61,1.52.69,2.21.02.15.02.33.02.51-.01.51-.11,1.09-.3,1.69-.9,2.88-1.41,5.43-1.56,7.81-.03.45-.04.94-.04,1.49,0,1.58.16,3.1.48,4.53.14.65.33,1.32.56,2.01.52,1.55.99,2.91,1.46,4.15.88,2.48,1.84,4.99,2.76,7.42l.3.79.17.44c.46,1.2.92,2.42,1.36,3.64.09.25.18.51.26.76.16.5.33,1.02.57,1.54.1.22.19.42.28.63.29.7.5,1.33.64,1.92.14.55.21,1.12.21,1.69,0,.28-.02.56-.05.84-.1.69-.19,1.41-.28,2.12-.26,2-.52,4.06-1,6.01-1.08,4.24-1.56,7.55-1.56,10.74,0,.35.01.71.02,1.07.01.23.02.52.07.82v.39l.09.1c.02.11.05.22.09.34.05.19.11.41.22.62.05.13.11.24.16.33.08.16.17.3.28.46.12.17.25.31.37.44.3.33.69.61,1.13.83,1.82.95,3.43,1.5,4.9,1.66,1,.12,2.08.2,3.21.26.11.01.22.01.32.02.11.01.22.02.34.02.9.04,1.86.07,3.11.08h.15c.6,0,1.2-.01,1.8-.02,1.89-.05,3.81-.38,5.55-.94,1.32-.43,3.77-1.23,4.43-3.74.48-1.77.69-3.42.62-4.9-.16-4.26-1.2-8.4-2.21-12.4-.94-3.7-1.34-6.77-1.26-9.65.03-1.34.02-2.69.01-4-.01-1.79-.03-3.65.06-5.45.13-2.73.45-5.41.93-7.95.1-.55.23-1.1.35-1.65.42-1.91.85-3.88.59-5.99-.02-.17.01-.42.03-.68.01-.1.02-.2.03-.3h.04s.03.02.03.02l.05.03v.02s.04.07.04.07c.01.03.01.08.02.13l.02.1c.69,3.41,1.51,6.7,3.9,9.44.37.42.72.84,1.08,1.27.18.21.36.43.54.64v.07l.08.04v.39h.25s.05.01.05.01l.64.04.82.05,1.7.1h.12l.72-.04c.49-.02.97-.05,1.46-.08.13-.01.23-.02.33-.03.31-.02.66-.04,1.02-.15,5.74-1.77,9.93-7.13,10.95-13.99.46-3.17-.17-6.14-.79-9.01-.09-.42-.18-.83-.26-1.25l-.04-.2c-.11-.5-.21-.98-.26-1.45-.07-.54-.07-.99.01-1.35.31-1.35.74-2.73,1.15-4.06.41-1.33.83-2.7,1.16-4.09.84-3.57.81-7.49-.1-12.32-.56-2.95-1.63-5.72-2.67-8.4-.34-.86-.67-1.73-.99-2.6l-.15-.42c-1.01-2.78-1.97-5.41-.62-8.2.77-1.61,1.3-3.31,1.82-4.96.14-.43.27-.86.41-1.29.72-2.2,1.44-4.4,2.15-6.61.84-2.6,1.69-5.21,2.55-7.81.03-.06.17-.22.25-.27,2.71-.59,5.3-1.62,7.92-3.13,1.17-.69,2.35-1.47,3.5-2.32,1.08-.8,2.09-1.64,3.28-2.66,3.04-2.64,5.56-5.62,7.51-8.85l.21-.36-.06-.25.04-.16-.02-.04v-.03c.1-.18.2-.37.29-.55.1-.19.2-.38.3-.58.13-.27.25-.52.35-.78.16-.33.31-.67.48-1.07.12-.28.22-.55.32-.82l.12-.3c.11-.27.22-.54.31-.81.22-.66.42-1.28.61-1.9.11-.39.16-.75.22-1.1.06-.42.12-.81.26-1.1.5-1.05.89-1.43,1.14-1.57,2.12-1.19,3.76-2.86,5.34-4.47l.63-.64c1.43-1.44,2.63-3.09,3.79-4.69l.09-.13c.15-.21.3-.41.45-.62.27-.38.54-.75.82-1.12l.09-.12.05-.14c.02-.05.04-.1.05-.15l.03-.08c.05-.14.07-.24.09-.34v-.06c.04-.12.06-.24.08-.35.01-.09.02-.2.03-.29.01-.18.01-.38,0-.56-.04-.74-.29-1.47-.72-2.11-.33-.48-.77-.89-1.27-1.2.06-1.11-.3-2.18-1.03-3.01-.65-.73-1.51-1.2-2.47-1.36-.26-1.75-1.34-3.19-2.93-3.8-.41-.16-.85-.25-1.33-.29h-.32c-.06,0-.12,0-.18,0h-.28l-.06.03h-.02c-.21.02-.42.06-.62.11-.46.13-.89.31-1.28.55-.36-.44-.77-.8-1.22-1.08-.61-.4-1.3-.66-2.03-.73-.03,0-.09,0-.14,0-.12-.02-.21-.02-.31-.02-.06,0-.12,0-.18,0h-.08c-.1,0-.2,0-.3.02-.09,0-.17,0-.26.03h-.05c-.13.03-.24.04-.35.07h-.05s-.05.03-.05.03l-.07.02s-.11.03-.16.05c-.06,0-.17.04-.3.1-.08.03-.16.07-.25.11-.08.03-.16.07-.23.1h-.02s-.06.04-.06.04c-.06.03-.14.08-.23.14-.08.04-.17.09-.26.15-.07.05-.13.1-.2.15l-.05.04c-.1.07-.17.14-.23.19-.1.08-.19.16-.27.25-.01,0-.03.02-.04.03l-.06.05-.08.08c-.12.13-.23.26-.33.4-.09.1-.17.2-.23.3-.13.19-.23.4-.3.62-.02.06-.03.11-.05.17v.05s-.03.08-.03.08c-.02.06-.04.14-.05.16l-.02.03h-.01s-.06.07-.06.07l-.06.04-.05.05c-.05.05-.09.09-.12.13l-.03.03-.04.05-.16.18c-.07.08-.14.15-.2.23-.23.25-.46.51-.69.79-.11.12-.21.24-.32.36-.07.08-.13.15-.2.23-.09.11-.17.19-.25.27-.09.09-.17.18-.26.28-.1.09-.23.17-.34.22-.11.05-.22.09-.32.12-1,.24-1.99.42-2.93.53-.17.02-.37.02-.56.03h-.08c-.06,0-.12,0-.19,0s-.13-.02-.17-.02c-.09-.02-.18-.04-.27-.07-.48-.16-1.02-.25-1.59-.25-.49,0-.98.06-1.47.19.04-.12.08-.24.12-.36v-.03s.02-.03.02-.03c.03-.11.06-.21.09-.31.05-.15.09-.3.13-.46.09-.28.16-.58.23-.91.05-.19.09-.37.14-.56l.05-.2v-.03s.02-.03.02-.03l.05-.3c.04-.22.08-.44.1-.67l.02-.11s.01-.09.02-.14v-.04s.02-.04.02-.04c.01-.07.02-.15.03-.22.01-.05.01-.09.02-.14v-.04s.01-.04.01-.04c.03-.34.06-.7.08-1.05.01-.12.01-.22.02-.32.01-.11.02-.22.02-.33.01-.43,0-.83-.01-1.22v-.52c-.02-.46-.07-.86-.11-1.24l-.02-.2v-.07c-.01-.12-.01-.25-.03-.37-.08-.56-.19-1.17-.33-1.82-.55-2.42-.66-4.35-.36-5.9.51-2.66.24-5.23-.02-7.71-.08-.79-.17-1.62-.23-2.42-.02-.29-.04-.57-.07-.85-.11-1.23-.2-2.3.18-3.44,1.65-4.94,3.37-10.26,4.85-15.75.94-3.52,1.78-7.32,1.62-11.27-.14-3.19-1.02-5.39-2.77-6.91-.68-.59-1.5-1.07-2.44-1.41-.2-.08-.43-.16-.67-.23l-.14-.05h-.03s-.03-.02-.03-.02c-.07-.02-.14-.03-.21-.04h-.08s-.14-.05-.14-.05c-.14-.04-.28-.07-.41-.09h-.04s-.04-.01-.04-.01h-.1s-.1-.03-.15-.03c-.15-.03-.29-.05-.43-.06h-.07s-.12-.02-.12-.02c-.07,0-.13-.01-.2-.01h-.31c-.08,0-.17-.01-.25-.01h-.24c-.46,0-.88.03-1.28.08-.07.01-.14.02-.23.04-.42.06-.83.14-1.26.25-.62.15-1.32.38-2.03.67-4.25,1.73-7.3,4.85-10.07,7.89h0l-.03.03-.02.02-.02.02s-.07.08-.1.11l-.08.06-.02.03h-.01s-.04.04-.04.04l-.02.02h0l-.06.02h-.02s-.01,0-.01,0h-.01l-.42-.17s-.06-.03-.09-.04c-.05-.03-.1-.05-.15-.07-.48-.25-.95-.51-1.43-.77-1.86-1-3.78-2.03-5.78-2.87-3.45-1.45-7.38-2.27-12.01-2.52h-1.56s-2.55.03-2.55.03h-.12c-.51.08-1.02.14-1.53.2-.84.1-1.71.2-2.56.34-4.47.7-8.62,2.15-12.34,4.31-.02,0-.05,0-.07,0h-.1l-.06-.02-.08-.02s-.06,0-.08,0h-.01c-.84-.64-1.66-1.32-2.46-1.98-.65-.53-1.29-1.07-1.94-1.58-.54-.41-1.05-.79-1.57-1.16l-.02-.02h-.02c-.29-.19-.58-.39-.86-.58l-.08-.05-.08-.04-.07-.06-.08-.04c-.22-.13-.44-.26-.67-.38l-.21-.12s-.07-.03-.1-.05c-.26-.15-.47-.26-.68-.35-.1-.05-.2-.1-.31-.15l-.1-.04c-.2-.09-.4-.18-.62-.27l-.09-.04c-.12-.05-.24-.09-.37-.13l-.12-.04c-.17-.06-.33-.13-.49-.17-.17-.04-.31-.08-.44-.12-.21-.06-.41-.11-.62-.15-.19-.05-.37-.07-.52-.09l-.14-.02c-.18-.03-.34-.05-.52-.07-.11-.01-.25-.02-.38-.03h-.14s-.06-.01-.06-.01c-.29-.01-.44-.02-.59-.02h0Z"/>
    </g>
    <g>
      <path class="cls-1" d="m146.17.18c-4.58,19.92-9.16,32.33-16.44,55.84-.12.03-.24.04-.36.08-.63.15-1.33.38-2.06.68-4.28,1.75-7.33,4.88-10.09,7.92-.27.3-.39.34-.39.34-.05,0-.36-.16-.58-.28-.51-.27-1.02-.55-1.53-.82-1.84-.98-3.73-2-5.71-2.83-3.46-1.45-7.39-2.27-12.04-2.52h-1.13l-2.99.03h-.14c-.48.07-.97.12-1.45.17-.86.11-1.75.21-2.64.35-4.46.7-8.63,2.15-12.37,4.32h-.05c-.12,0-.23-.02-.26-.04-.78-.59-1.59-1.27-2.37-1.91-1.15-.95-2.34-1.94-3.61-2.81-2.08-1.42-4.89-3.06-8.3-3.06-.09,0-.17,0-.27.01h-.04C53.67,30.43,45.51,5.52,43.74.19h102.43Z"/>
      <path class="cls-1" d="m136.47,123.5c.13,0,.27.02.39.05.26.07.45.18.57.26.02,0,.04.02.04.03.25-.02.49-.04.74-.05.79-.05,1.58-.13,2.38-.18.32-.06.65-.13.97-.2.12-.03.21-.06.27-.1h.03s.03-.02.03-.02c.12-.05.22-.12.3-.19.09-.1.17-.19.26-.28.08-.09.17-.18.25-.27l.25-.29c.09-.1.18-.21.25-.29.23-.28.47-.55.7-.81.12-.14.25-.29.38-.43l.04-.04.02-.02s.07-.08.12-.13l.11-.09.03-.03.02-.02h.01s.01-.03.01-.03c.02-.03.04-.11.06-.18v-.02c.03-.09.05-.19.09-.28.09-.25.2-.47.3-.62.06-.1.14-.21.22-.3,1.04-1.35,2.55-2.12,4.14-2.12.1,0,.2,0,.31,0h.13s.11.02.15.02c1.25.15,2.41.79,3.25,1.78.39-.22.8-.4,1.23-.51.43-.1.82-.16,1.2-.16h.1c.2-.47.8-.81,1-1.28,1.54-3.78,3.15-7.55,4.86-11.26,2.21-4.86,4.58-9.64,6.78-14.51,2.13-4.7,4.18-9.45,6.2-14.19,1.71-3.99,3.31-8.02,5.01-12,.81-1.88,1.74-3.72,2.61-5.57V1.76c0-.37-.03-.75.01-1.14.05-.48-.09-.6-.58-.58-1.32.04-2.66.01-3.99.01-1.62,3.95-3.3,7.86-4.84,11.83-1.64,4.25-3.25,8.51-4.68,12.83-4.84,14.58-9.61,29.19-14.4,43.78-1.36,4.13-2.72,8.26-4.06,12.39-2.69,8.42-5.35,16.85-8.05,25.26-1.33,4.13-2.78,8.23-4.12,12.37-.54,1.65-.97,3.34-1.45,5.02h0c.1-.02.23-.03.35-.03Z"/>
      <path class="cls-1" d="m69.56,235.45c-1.33-2.76-2.58-5.59-3.71-8.28-1.49-3.46-2.87-6.98-4.78-10.19-5.89-9.92-12.14-19.62-18.23-29.41-2.99-4.8-5.98-9.59-8.93-14.4-1.78-2.9-3.44-5.88-5.24-8.77-1.98-3.18-4.13-6.26-6.11-9.44-2.82-4.53-5.54-9.13-8.34-13.67-3.64-5.89-7.31-11.76-11.01-17.61-.78-1.22-1.76-2.32-2.64-3.47v38.68c.2.15.43.27.59.45,2.34,2.68,4.66,5.38,7,8.06,1.28,1.46,2.59,2.89,3.87,4.36,2.17,2.5,4.3,5.03,6.47,7.54,1.88,2.18,3.81,4.31,5.69,6.49,2.04,2.36,4.02,4.77,6.05,7.14,1.66,1.95,3.39,3.84,5.03,5.81,2.19,2.63,4.31,5.32,6.48,7.97,2.69,3.28,5.42,6.53,8.1,9.82,2.32,2.84,4.6,5.71,6.89,8.58,2.79,3.5,5.61,6.98,8.32,10.54,1.38,1.81,2.55,3.79,3.85,5.66.09.14.35.16.58.2.15-.56.3-1.12.49-1.7.47-1.55.36-2.73-.42-4.36Z"/>
      <path class="cls-1" d="m26.9,124.64c.03-1.13.47-2.17,1.24-2.93.68-.69,1.57-1.11,2.55-1.23.39-1.73,1.58-3.1,3.21-3.62.44-.14.89-.2,1.39-.2s1.04.09,1.54.26l.74.26v.07c.14.08.28.16.42.25.82-.85,1.87-1.37,3-1.52L2.39.11C1.62.11.59-.19.19.2c-.37.37-.09,1.42-.09,2.18v79.27c.2.14.47.25.57.45,1.02,1.98,1.96,3.99,3,5.95,1.72,3.28,3.5,6.52,5.22,9.8,1.6,3.06,3.14,6.15,4.7,9.22.11.23.21.45.33.67,1.85,3.27,3.76,6.5,5.52,9.81,1.76,3.32,3.28,6.78,5.37,9.92.14-.61.4-1.18.78-1.66.35-.51.8-.89,1.31-1.17Z"/>
      <path class="cls-1" d="m123.69,231.63c.31-.25.68-.46.93-.77,2.45-3.06,4.89-6.13,7.31-9.23,2.92-3.74,5.84-7.49,8.71-11.27,2.59-3.43,5.06-6.95,7.67-10.36,3.3-4.31,6.7-8.54,10.03-12.83,2.78-3.58,5.49-7.22,8.28-10.79,3.19-4.08,6.4-8.14,9.69-12.14,1.94-2.36,4.04-4.59,6.07-6.87v-37.16c-.41.33-.93.57-1.2.99-2.24,3.47-4.45,6.96-6.65,10.45-.82,1.3-1.62,2.62-2.37,3.96-2.63,4.71-5.21,9.45-7.86,14.15-1.61,2.86-3.35,5.64-5.01,8.48-2.38,4.08-4.73,8.17-7.1,12.25-1.61,2.77-3.24,5.53-4.84,8.3-2.21,3.83-4.38,7.69-6.6,11.52-2.55,4.39-5.15,8.75-7.69,13.15-1.7,2.95-3.36,5.92-4.96,8.93-.63,1.18-1.18,2.44-1.54,3.72-.43,1.53-.77,3.1-1.09,4.66-.07,1.43-.26,2.79-.57,4.11-.26,1.11-.58,2.19-.91,3.26-.15.76-.31,1.52-.45,2.28-.07.38.1.8.15,1.21Z"/>
      <path class="cls-1" d="m68.43,247.49c-.19-.84-.58-1.64-1.38-2.38-4.39-4.07-8.62-8.32-12.94-12.47-1.81-1.75-3.65-3.46-5.53-5.14-1.01-.9-2.16-1.65-3.17-2.55-1.86-1.65-3.64-3.39-5.51-5.04-1.5-1.32-3.1-2.52-4.61-3.82-3.17-2.75-6.28-5.58-9.48-8.3-3.52-2.99-7.14-5.86-10.68-8.82-4.03-3.36-8.03-6.77-12.07-10.12-.74-.62-1.65-1.03-2.49-1.54v19.34c.92.58,1.84,1.16,2.76,1.75,2.74,1.75,5.51,3.47,8.21,5.27,4.26,2.83,8.44,5.8,12.74,8.57,7.14,4.61,14.36,9.08,21.51,13.68,2.16,1.39,4.17,3.03,6.28,4.5,1.88,1.32,3.83,2.54,5.71,3.86,3.18,2.23,6.32,4.51,9.48,6.77.43.3,1.03.64,1.21.03-.12-1.15-.13-2.35-.04-3.59Z"/>
      <path class="cls-1" d="m123.94,246.28c-.08.54-.19,1.07-.31,1.59l.03.75c.61-.39,1.26-.74,1.84-1.17,3.99-2.95,7.92-6,11.97-8.87,5.03-3.56,10.2-6.92,15.22-10.49,4.13-2.93,8.13-6.05,12.21-9.05,5.81-4.27,11.64-8.51,17.47-12.77v-20.86c-.89.69-1.84,1.31-2.67,2.07-4.08,3.78-8.13,7.59-12.19,11.4-4.36,4.09-8.73,8.17-13.05,12.3-4.2,4.01-8.37,8.04-12.5,12.12-4.99,4.93-9.93,9.91-14.9,14.86-1.22,1.22-2.41,2.45-3.08,3.91.15,1.38.17,2.78-.04,4.21Z"/>
      <path class="cls-1" d="m29.58,247.2c4.09,1.3,8.12,2.79,12.2,4.13,2.88.95,5.81,1.77,8.7,2.7,2.26.73,4.51,1.52,6.75,2.31,1.33.47,2.63,1.03,3.97,1.48,1.11.37,2.27.57,3.39.93,1.63.52,3.23,1.16,4.87,1.65.39.12.89-.12,1.34-.2-.47-1.18-.67-2.61-1.48-3.47-.87-.92-2.31-1.31-3.5-1.93-5.85-3.06-11.7-6.11-17.54-9.17-6.95-3.64-13.88-7.34-20.86-10.93-8.92-4.59-17.89-9.1-26.84-13.64v17.44c1.15.2,2.34.27,3.44.62,3.15.98,6.25,2.13,9.39,3.12,5.37,1.69,10.79,3.25,16.17,4.96Z"/>
      <path class="cls-1" d="m169.31,228.89c-3.16,1.7-6.37,3.32-9.49,5.1-5.24,3-10.4,6.13-15.63,9.15-5.51,3.17-11.05,6.27-16.59,9.39-6.26,3.53-12.55,7.01-18.78,10.61-2.03,1.17-3.89,2.64-5.83,3.99-.19.13-.33.33-.5.5.24.04.5.13.73.1.37-.06.72-.2,1.07-.33,5.45-1.99,10.92-3.91,16.33-5.99,7.93-3.05,15.79-6.27,23.71-9.32,6.84-2.63,13.74-5.12,20.6-7.69,3.77-1.41,7.5-2.91,11.28-4.29,2.02-.74,4.09-1.31,6.14-1.96v-15.93c-.46.13-.96.18-1.37.4-3.88,2.06-7.77,4.18-11.67,6.27Z"/>
      <path class="cls-1" d="m73.09,265.86c-.16-.37-.34-.72-.58-1.03-.33-.42-1.25-.4-1.91-.55-5.34-1.18-10.69-2.36-16.03-3.52-3.96-.86-7.93-1.7-11.9-2.54-2.95-.63-5.9-1.25-8.85-1.89-3.37-.74-6.73-1.54-10.11-2.25-5.31-1.12-10.63-2.2-15.95-3.26-2.39-.48-4.79-.87-7.19-1.3v13.65c1.2.06,2.4.12,3.59.18,13.44.71,26.88,1.4,40.32,2.15,5.35.3,10.69.71,16.04,1.15,3.78.31,7.54.76,11.31,1.1.63.06,1.28-.08,1.93-.13-.07-.18-.13-.35-.2-.53-.16-.41-.31-.83-.47-1.23Z"/>
      <path class="cls-1" d="m155.96,255.95c-7.04,1.86-14.05,3.78-21.07,5.7-6.41,1.75-12.83,3.45-19.2,5.33-3.15.93-6.19,2.21-9.27,3.35-.4.15-.75.4-1.13.6.46.03.92.13,1.36.08,1.54-.19,3.07-.46,4.61-.64,4.56-.53,9.12-1,13.68-1.54,5.17-.6,10.33-1.25,15.49-1.87,1.36-.16,2.72-.24,4.08-.42,2.59-.34,5.17-.8,7.77-1.05,3.61-.35,7.24-.55,10.86-.83,6.41-.5,12.82-1.01,19.24-1.51v-13.27c-3.06.56-6.14.98-9.16,1.7-5.78,1.37-11.53,2.86-17.26,4.37Z"/>
      <path class="cls-1" d="m159.24,272.8c-11.81.15-23.62.38-35.43.59-.3.01-.6.1-.89.16.29.19.55.51.86.54,1.6.19,3.23.26,4.83.47,3.37.46,6.74.96,10.1,1.5,3.66.6,7.36,1.09,10.96,1.95,9.36,2.25,18.57,5.01,27.42,8.88,1.68.74,3.52,1.11,5.29,1.66v-15.93c-.25.03-.5.09-.75.09-7.47.05-14.93,0-22.39.09Z"/>
      <path class="cls-1" d="m75.38,271.93c-.15-.26-.39-.46-.92-.49-1.98-.11-3.93-.58-5.9-.73-9.09-.71-18.19-.62-27.29-.13-4.34.23-8.67.61-13,.89-3.66.24-7.31.43-10.97.63-5.58.31-11.15.61-16.73.91v6.07c1.52-.26,3.06-.44,4.56-.8,8.61-2.05,17.32-3.47,26.1-4.47,3.42-.39,6.88-.57,10.33-.72,4.36-.19,8.72-.38,13.08-.32,6.57.09,13.13.41,19.7.57.44.01.89-.37,1.33-.6-.07-.2-.13-.41-.21-.61-.03-.06-.06-.13-.08-.2Z"/>
      <path class="cls-1" d="m64.24,201.68c.32-1.05.67-2.11,1.01-3.13.37-1.1.75-2.25,1.09-3.37.08-.25.07-.61-.01-.89-.62-2.07-1.28-4.18-1.92-6.21-1.38-4.41-2.81-8.96-3.95-13.52-.42-1.7-.87-2.52-1.72-3.13-.38-.29-.88-.53-1.53-.76-4.35-1.55-8.3-4.31-12.06-8.37-.08.47-.2.83-.1,1.1.43,1.2.94,2.38,1.45,3.55,1.25,2.88,2.53,5.74,3.79,8.62,1.79,4.1,3.55,8.22,5.37,12.32,1.54,3.47,3.14,6.92,4.69,10.39.88,1.96,1.7,3.93,2.57,5.89.07.16.25.26.38.4h.01c.14-.45.29-.89.44-1.33.16-.54.33-1.05.49-1.56Z"/>
      <path class="cls-1" d="m136.13,168.59c-.15.07-.3.13-.45.2-2.39,1.42-5.11,2.63-8.19,3.3-.07.05-.18.17-.2.21-.87,2.63-1.72,5.27-2.57,7.91-.7,2.17-1.4,4.35-2.12,6.52-.15.46-.3.91-.44,1.37-.51,1.62-1.04,3.29-1.8,4.87-.01.01-.01.02-.01.03-.18.57-.35,1.14-.52,1.7-.37,2.15.38,4.24,1.18,6.42l.15.4c.31.85.64,1.7.97,2.55.12.32.25.64.37.96.37-.37.8-.7,1.1-1.12.32-.46.55-.99.77-1.51.77-1.76,1.49-3.54,2.29-5.29,2.39-5.2,4.82-10.39,7.22-15.59,1.14-2.47,2.27-4.94,3.36-7.44,1.19-2.73,2.32-5.48,3.47-8.22.09-.21.11-.44.17-.66-.07.03-.15.06-.22.08-.66.54-1.37,1.08-2.11,1.62-.78.65-1.55,1.26-2.42,1.69Z"/>
      <path class="cls-1" d="m105.73,260l-.63-.75c-.19-.23-.39-.45-.58-.68-.05.05-.1.08-.16.15-1.34,1.67-2.44,3.54-3.63,5.33-.08.13-.07.31-.11.47.17-.01.4.04.49-.05,1.53-1.47,3.52-2.42,4.93-4.03l-.06-.16-.25-.28Z"/>
      <path class="cls-1" d="m99.26,257.37c.07.48.11.76.16,1.03.31-.41.69-.79.9-1.25.07-.16-.29-.51-.45-.78-.22.37-.45.74-.61,1Z"/>
      <path class="cls-3" d="m94.83,127.64c-1.14-.02-3.65,1.93-3.65,2.82,0,1.46,1.89,2.85,3.87,2.84,2.08,0,3.25-.96,3.2-2.61-.03-1.14-2.15-3.04-3.42-3.05Z"/>
      <g>
        <path class="cls-3" d="m87.31,170.17c-1.08-.5-1.44-.74-1.56-.83l-.1-.07c-.11-.05-.16-.22-.17-.48,0-.5.1-.67.12-.69.11-.15.26-.28.45-.39.19-.1.35-.16.42-.18.01,0,.22.08.79.67.48.5.84,1.06,1.06,1.68l.25.69.59-.44c.84-.63,1.68-1.27,2.53-1.9l.31-.22-.11-.37c-.33-1.14-1.09-2.14-2.29-3.01-1.19-.85-2.29-1.26-3.27-1.2-.6.03-1.4.48-2.52,1.39-1.05.87-1.69,1.5-2.03,2.01-.37.65-.55,1.39-.52,2.22.01.81.15,1.49.4,2,.26.57.81,1.09,1.65,1.61.78.48,1.62.92,2.5,1.31,1.03.45,1.47.71,1.73.91,0,0,.08.09.08.45.01.5-.1.71-.14.78-.1.11-.24.23-.44.35-.16.1-.31.15-.36.16-.02,0-.22-.09-.78-.67-.48-.51-.83-1.08-1.06-1.69l-.25-.68-.58.42c-.82.59-1.64,1.17-2.46,1.73l-.26.2c.04-.47.08-1.2.04-2.39l-.08-2.61c-.07-2.18-.25-2.82-.38-3.11-.32-.68-1.05-1.51-2.24-2.54-1.27-1.07-2.18-1.59-2.88-1.61-.7,0-1.59.44-2.79,1.44-1.15.97-1.8,1.73-2.07,2.37-.13.31-.26.93-.15,3.06l.13,2.57c.11,2.14.31,2.79.45,3.08.32.7,1.06,1.6,2.21,2.69,1.22,1.16,2.11,1.73,2.8,1.76.03,0,.05,0,.09,0,.69,0,1.54-.48,2.66-1.49,1.08-.98,1.77-1.83,2.04-2.52.05-.12.1-.28.14-.58l.08.26c.35,1.13,1.1,2.15,2.27,3.06,1.15.9,2.15,1.33,3.08,1.33h.1c.6-.02,1.38-.46,2.46-1.37,1.01-.85,1.65-1.51,2-2.04.37-.66.56-1.44.56-2.34s-.11-1.54-.32-1.86c-.46-.83-1.78-1.77-4.18-2.93Zm-10.26,5.34c-.08.21-.24.43-.47.67-.2.2-.31.24-.31.24-.02,0-.15-.05-.42-.32-.25-.27-.44-.52-.55-.75-.02-.05-.15-.4-.23-2l-.11-2.58c-.07-1.57.03-1.91.04-1.96.09-.2.24-.42.48-.66.23-.22.34-.25.34-.25.01,0,.14.03.42.32.27.26.46.5.56.72.02.04.15.39.21,2l.1,2.59c.06,1.6-.04,1.93-.06,1.98Z"/>
        <path class="cls-3" d="m102.69,166.69c-.3-.73-.98-1.59-2.13-2.58-1.19-1.04-2.11-1.53-2.86-1.48-.72.04-1.62.62-2.84,1.8-1.16,1.13-1.86,2.03-2.15,2.78-.13.33-.28,1.02-.28,3.17v9.27s.01.57.01.57l.57-.02c1.03-.04,2.03-.09,3.05-.13l.52-.02.02-3.42c.67-.03,1.33-.07,2-.09l-.05,3.43.58-.02c1.02-.03,2.03-.05,3.06-.07h.53s.21-9.97.21-9.97c.02-2.19-.12-2.88-.24-3.22Zm-4.02,3.33l-.03,2.68c-.68.03-1.36.07-2.02.1v-2.59c.02-1.63.14-2.01.17-2.09.1-.23.27-.49.54-.78.25-.28.38-.34.38-.34.02,0,.13.03.36.26.24.24.4.47.5.69.03.06.13.4.1,2.07Z"/>
        <path class="cls-3" d="m112.51,170.58c.83.9,1.4,1.68,1.68,2.36.11.26.25.89.36,3.2.09,1.67.11,2.95.07,3.79l-.03.59-.58-.08c-1.02-.12-2.03-.23-3.05-.31l-.52-.04.02-.52c.03-.71.01-1.87-.08-3.42-.1-2.06-.22-2.47-.25-2.55-.34-.7-.71-1.06-1.13-1.08h-.32s-.25,7.46-.25,7.46l-.55-.02c-1.02-.04-2.03-.07-3.05-.08h-.56l.28-10.72c.04-1.47-.07-2.12-.16-2.42-.14-.42-.48-.97-.97-1.6l-.36-.46.47-.33c.94-.68,1.88-1.34,2.82-2l.31-.22.31.21c.59.39,1.06,1.07,1.42,2.07.35.94.5,2.09.46,3.4l-.02.8h.13c.14.03.26-.09.43-.25.26-.24.46-.47.58-.68.03-.04.19-.37.46-2.01.2-1.19.31-2.04.33-2.53l.02-.55.55.02c1.07.04,2.14.12,3.21.22l.51.04-.02.52c-.03.63-.15,1.59-.39,2.92-.32,1.78-.49,2.29-.62,2.52-.24.49-.74,1.05-1.51,1.75Z"/>
      </g>
    </g>
    <g>
      <path d="m128.59,131.68c.22-.23.43-.46.65-.68.05-.05.12-.14.17-.25-.25.3-.52.62-.82.93Z"/>
      <path d="m74.05,140.28c.34.13.7.25,1.05.36-.39-.14-.74-.26-1.05-.36Z"/>
      <path d="m138.4,75.71c.95-3.56,1.74-7.24,1.59-10.97-.11-2.45-.69-4.68-2.43-6.19-.57-.5-1.28-.92-2.13-1.24-.25-.1-.51-.17-.77-.25-.09-.02-.17-.03-.26-.05-.17-.04-.34-.09-.51-.12-.1-.01-.2-.03-.3-.04-.16-.02-.32-.04-.47-.07-.11,0-.21-.01-.32-.02-.15,0-.3-.01-.45-.01h-.24c-.38,0-.77.02-1.15.08-.05.01-.1.01-.14.02-.4.05-.81.13-1.21.24-.63.15-1.28.37-1.91.63-4.01,1.64-6.92,4.57-9.71,7.64-.02.02-.04.04-.07.07-.09.1-.17.19-.26.25-.03.03-.07.05-.1.08-.07.05-.13.11-.2.14-.03.02-.07.03-.1.04-.05.03-.12.05-.18.08-.03,0-.08,0-.11,0-.05,0-.1.02-.15.02-.04,0-.1,0-.14,0-.04,0-.08,0-.12-.02-.04,0-.1-.02-.14-.04-.04,0-.09-.02-.12-.04-.05,0-.11-.04-.16-.07-.04-.02-.09-.03-.13-.05h0c-.1-.05-.2-.11-.31-.16-2.36-1.25-4.69-2.58-7.15-3.61-3.71-1.56-7.65-2.23-11.68-2.44-1.36.01-2.71.02-4.06.03-1.36.17-2.71.31-4.06.51-4.26.67-8.29,2.03-12.04,4.22-.08.04-.19.08-.3.1-.03,0-.08,0-.11,0-.04,0-.09,0-.14,0-.02,0-.05,0-.08,0-.11,0-.21-.02-.31-.04-.05,0-.1,0-.14-.02-.14-.04-.27-.1-.37-.17-1.52-1.15-2.94-2.42-4.44-3.59-.5-.39-1.01-.77-1.53-1.13-.3-.2-.59-.39-.89-.59-.09-.04-.17-.1-.25-.15-.22-.13-.44-.26-.66-.38-.11-.07-.23-.12-.34-.19-.2-.11-.38-.21-.59-.31-.12-.07-.25-.12-.38-.17-.19-.09-.37-.17-.57-.25-.13-.05-.27-.11-.42-.15-.19-.07-.37-.14-.56-.2-.15-.04-.31-.08-.45-.12-.2-.05-.38-.1-.57-.14-.15-.03-.32-.05-.47-.08-.2-.03-.38-.07-.58-.08-.16-.02-.33-.02-.49-.03s-.32-.02-.47-.02h-.25c-.16,0-.33.01-.5.02-4.91.37-7.63,3.27-7.79,8.12-.01.43-.02.85-.02,1.29,0,2.31.21,4.59.77,6.87,1.2,4.99,2.32,9.99,3.3,15.04.08.39.2.78.32,1.17s.25.79.35,1.18c.14.59.23,1.19.13,1.83-.03.21-.08.42-.15.63-.42,1.25-.72,2.52-.91,3.81-.13.94-.19,1.88-.19,2.83,0,.36,0,.72.02,1.08.01,1.37.02,2.73.04,4.1.04.94.12,1.89.13,2.83,0,.33-.04.66-.11.96-.03.11-.04.22-.08.32-.12.36-.24.72-.34,1.08s-.2.72-.27,1.09c0,0,0,0-.01.03-.16.49-2.52,7.68,1.47,14.83.03.05.07.11.09.16.45.93.94,1.83,1.48,2.69,1.59,2.54,3.58,4.81,6.09,6.8,2.33,1.84,4.83,3.24,7.46,4.3h0c.09.05.43.18.96.39.13.04.28.1.44.15.31.1.66.22,1.05.36.22.07.44.14.68.22.17.05.37.12.56.17,2.66.82,6.52,1.84,10.9,2.39,1.45.19,2.96.32,4.51.38,2.13.09,4.33.03,6.52-.23.14,0,.27,0,.4,0,.26,0,1.2-.23,1.47-.24.39-.03.74-.09,1.07-.15,5.24-.7,9.6-1.84,13.08-3.02,6.22-2.13,9.58-4.41,9.89-4.63.01,0,.02,0,.02,0,.83-.6,1.65-1.22,2.45-1.87.6-.48,1.13-1.05,1.65-1.63.11-.12.21-.23.31-.34.3-.32.57-.63.82-.93.27-.32.52-.62.75-.92.02-.04.04-.08.08-.11,2.13-2.8,2.49-4.46,2.49-4.46.04-.09.08-.18.11-.26.03-.09.07-.16.1-.25.1-.24.2-.49.28-.73.1-.28.2-.58.28-.86.08-.26.16-.51.23-.78.09-.28.15-.58.22-.87.07-.25.12-.5.17-.77.05-.31.11-.61.15-.93.02-.12.03-.24.05-.36.02-.12.03-.24.05-.36.03-.33.05-.68.08-1.02.01-.22.03-.43.04-.65.01-.38,0-.77-.01-1.15v-.55c-.02-.45-.08-.9-.13-1.33-.01-.13-.01-.26-.03-.39-.08-.58-.19-1.17-.32-1.76-.46-2.03-.75-4.3-.36-6.31.65-3.36-.03-6.6-.26-9.86-.11-1.61-.37-3.05.16-4.67,1.76-5.18,3.44-10.39,4.86-15.67Zm-79.98-2.31c-.11-.52-.2-1.06-.28-1.6-.03-.19-.05-.36-.09-.54-.84-5.54-.16-7.83.1-8.45.07-.14.1-.2.1-.2.82-1.56,2.01-2.04,3.86-1.77.34.03.7.11,1.08.2,2.61.65,4.71,2.29,6.75,3.99.67.56,1.39,1.06,1.98,1.69.44.46.54,1.02-.15,1.49-2.45,1.65-4.43,3.81-6.34,6-.5.57-.7.68-.92.09-.03-.05-.05-.13-.08-.21-.23-.77-.5-1.52-.74-2.29-.37-1.1-1.09-1.52-2.29-1.48-1.19.05-1.66.58-1.49,1.65.26,1.53.66,3.03.97,4.55.32,1.51.63,3.02.91,4.54.07.36.07.78-.07,1.12-.14.37-.45.68-.69,1.02-.24-.33-.62-.63-.7-1.01-.67-2.91-1.33-5.84-1.91-8.79Zm70.48,48.4c-.8,3.61-2.91,6.58-5.55,8.94-2.2,1.97-4.89,3.44-7.5,4.87-.91.49-1.83.94-2.77,1.34-2.58,1.12-5.28,1.9-8.05,2.43-3.59.68-7.23,1.04-10.84,1.54-5.68-.27-11.06-1.32-16.13-3.28-3.08-1.2-6.06-2.74-8.92-4.66-4.68-3.13-7.83-7.34-8.7-12.84-.55-3.43-.68-7.1,1.48-10.3.27-.4.24-1.07.22-1.62-.08-2.88-.58-5.8-.22-8.61.54-4.26,1.88-8.34,4.32-12.03.19-.28.38-.57.59-.85,2.15-3.04,4.79-5.55,7.82-7.71,1.44-1.03,2.89-.16,4.23.26,1.26.4,2.52,1.02,3.55,1.83,1.12.86,2.22,1.92,2.9,3.14,1.54,2.76,2.83,5.64,4.21,8.49.24.49.31,1.08.61,1.51.68,1,1.22,2.1,2.85,1.96,2.07-.19,4.17.09,6.22-.12,1.19-.12,1.72-1.31,2.03-2.42.36-1.22.51-2.53,1.03-3.67,1.86-4.14,4.53-7.65,8.51-9.99.93-.55,1.97-1.02,3.02-1.26,1.5-.35,2.78.46,3.87,1.37,2.38,1.99,4.61,4.14,6.3,6.77.17.25.34.51.49.78,1.67,2.84,3.07,5.82,3.39,9.17.23,2.41.59,4.8.7,7.21.08,1.42-.23,2.85-.33,4.3-.04.68-.11,1.39.02,2.06.32,1.48.69,2.95,1.14,4.41.75,2.38,0,4.68-.49,6.98Zm4.11-42.64c-.54,2.15-1.17,4.3-1.76,6.44-.04.15-.32.24-.48.36-.3-.89-.98-1.86-.82-2.66.6-3.08,1.49-6.1,2.25-9.15.11-.42.24-.86.21-1.28-.01-.08.22-1.15-.38-1.63-1.04-.84-2.03-.02-2.59.5-.74.71-1.06,1.89-1.53,2.89-.17.39-.21.84-.38,1.25-.34.84-.68.69-1.24.08-.04-.04-.09-.1-.13-.14-1.88-2.09-3.79-4.16-5.82-6.12-.45-.44-.51-.56-.13-.97,2.55-2.69,5.26-5.15,8.55-6.82.54-.28,1.09-.54,1.67-.77,1.6-.65,3.43-.17,4.44,1.53.02.03.04.08.07.11.04.08.09.15.13.24.02.05.04.12.08.19.43,1.18.38,3.18.11,5.38-.6,4.81-2.25,10.57-2.25,10.57Z"/>
      <path d="m106.63,122.38c-.16-.08-.57.38-.89.58-.5.32-.98.7-1.53.91-3.35,1.27-6.04-.19-8.11-2.52-1.04-1.16-1.31-.7-2,0-2.18,2.24-4.81,3.24-7.93,2.85-1.05-.13-2.06-.37-2.71-1.36-.16-.24-.58-.52-.78-.47-.3.1-.63.45-.7.74-.14.63.01,1.12.75,1.48,1.44.71,2.89,1.31,4.54,1.12.74-.09,1.06.13,1.2.96.21,1.26.63,2.48,1.05,3.7.85,2.46,2.97,4.04,4.9,4.05,2.27.08,3.82-.52,4.83-2.04,1.09-1.64,1.79-3.49,2.02-5.46.1-.9.46-1.06,1.28-1.22,1.49-.3,2.94-.82,4.38-1.35.33-.12.79-.74.71-.96-.14-.42-.59-.81-1.01-1.01Zm-11.57,10.92c-1.98,0-3.87-1.38-3.87-2.84,0-.9,2.5-2.83,3.64-2.82,1.27.02,3.4,1.91,3.43,3.06.04,1.65-1.13,2.6-3.2,2.6Z"/>
      <path d="m85.32,109.46c-.05.93-.63,1.1-1.31.69-1.32-.81-2.39-1.76-2.9-3.4-.4-1.29-1.33-2.48-2.21-3.55-.77-.94-1.66-.9-2.27.1-.89,1.45-1.63,3.01-2.26,4.59-.39.97,0,1.22,1.17,1.01.55-.11,1.13-.23,1.66-.15.42.04,1.2.16,1.17.59-.02.41-.74.36-1.15.45-1.14.26-2.31.39-3.42.71-.75.22-1.45.63-2.14,1.02-.56.3-.82.21-.82-.44.01-4.45.65-8.68,3.89-12.11.94-.98,2.08-1.22,3.32-1.3,1.79-.07,4.14,1.59,5.27,4.38.79,1.98,1.31,4.06,1.92,6.11.12.41.1.87.08,1.3Z"/>
      <path d="m118.35,110.77c-.22.34-.96.74-1.16.62-1.71-1.1-3.56-1.54-5.55-1.62-.35,0-.69-.22-1.03-.35-.15-.05-.3-.13-.44-.2.17-.08.33-.21.5-.22,1.05-.08,2.17-.36,3.15-.13,1.08.25,1.4-.08,1.08-.92-.6-1.61-1.3-3.18-2.13-4.68-.5-.91-1.52-1.1-2.2-.22-.93,1.2-1.84,2.5-2.38,3.9-.67,1.66-1.92,2.5-3.4,3.17-.12.05-.63-.33-.62-.47.38-3.54,1.29-6.98,3.51-9.79,2.8-3.53,6.38-2.67,8.37.92,1.49,2.67,2.18,5.62,2.35,8.44,0,.7.16,1.25-.05,1.55Z"/>
      <path d="m99.27,114.47c-.03.49-.86,1.12-1.47,1.33-.73.27-1.61.19-2.59.27-.71-.07-1.62-.02-2.44-.26-.51-.14-1.17-.66-1.28-1.12-.11-.47.24-1.22.63-1.59,1.21-1.09,4.68-1.35,6.05-.4.56.39,1.15,1.2,1.1,1.77Z"/>
      <path d="m82.61,93.95c.03.17-.37.62-.55.61-.4-.03-.8-.26-1.18-.43-1.91-.82-3.76-1.08-5.52.37-.26.21-.73.15-1.12.22.09-.36.05-.79.25-1.06,1.07-1.47,2.23-2.82,4.3-2.73,1.08,0,3.63,1.99,3.82,3.02Z"/>
      <path d="m116.62,95.02c-.5-.15-.82-.17-1.03-.33-1.48-1.12-3.13-1.62-4.94-1.16-.77.19-1.45.62-2.19.93-.2.08-.43.07-.65.09-.02-.23-.11-.5-.03-.7,1.1-2.88,4.8-3.67,6.93-1.49.57.57,1.02,1.24,1.51,1.87.11.14.17.33.4.79Z"/>
    </g>
    <path d="m72.65,139.73h-.03.03Z"/>
    <g>
      <g>
        <path class="cls-2" d="m64.37,309.66c-1.06-1.26-1.83-1.85-2.41-1.85-.33,0-1.28.2-5.69,1.84-5.03,1.88-5.03,2.09-5.03,2.36v22.69c0,1.76.47,3.29,1.39,4.55.96,1.31,1.82,1.95,2.61,1.95.73,0,2.64-.59,5.81-1.83,4.84-1.88,4.84-2.13,4.84-2.41v-23.97c0-1-.5-2.12-1.52-3.33Zm-4.16,26.53c-.48.36-.95.55-1.4.55s-1.89,0-1.89-2.89v-21.02c.45-.34.92-.5,1.39-.5s1.9,0,1.9,2.89v20.97Z"/>
        <path class="cls-2" d="m82.62,331.76v4.82c0,.49-.6,1.24-5.05,3.04-4.42,1.79-5.38,2-5.71,2-.47,0-.73-.5-.82-.68-.19-.36-.44-.9-.78-1.65-.32-.73-.63-1.34-.94-1.85-.33-.6-.71-.9-1.17-.9h-.27v-1.3l.16-.08c.45-.2,1.06-.49,1.82-.89,2.73-1.52,2.9-1.52,3.02-1.52.59,0,1.14.81,1.86,2.69.89,2.32,1.29,2.34,1.3,2.34.22,0,.43-.09.63-.27.2-.17.28-.42.28-.73v-5.33c0-1.65-.59-1.65-.79-1.65-.1,0-.52.11-2.58,1.01-2.39,1.04-2.64,1.04-2.76,1.04-.82,0-1.52-.59-2.08-1.77-.52-1.12-.8-2.49-.8-4.09v-4.6c0-.48.56-1.22,4.65-3.04,4.06-1.8,4.95-2.01,5.27-2.01.35,0,.66.2.91.57.2.31.36.55.47.74.12.19.3.5.55.94.24.44.44.8.61,1.08.33.6.7.89,1.17.89h.27v1.31l-.16.07c-.44.2-1.04.49-1.77.89-2.79,1.53-2.95,1.53-3.07,1.53-.58,0-1.08-.7-1.64-2.27-.67-1.85-1.05-1.9-1.08-1.9-.14,0-.5,0-.5,1.01v5.24c0,.54.07,1.43.5,1.43.04-.01.44-.14,2.53-1.08,2.26-1.02,2.85-1.13,3.09-1.13.8,0,1.49.6,2.07,1.79.54,1.12.81,2.57.81,4.31Z"/>
        <path class="cls-2" d="m100.5,337.12c-.66-.15-1.14-.42-1.43-.78-.3-.36-.45-1.04-.45-2.02v-12.07c0-1.36-.45-2.69-1.33-3.95-.9-1.3-1.88-1.96-2.91-1.96-.36,0-1.54.25-7.51,2.36l-.19.07v1.75h.27c2.37,0,3.99.31,4.79.91.74.56,1.14,1.55,1.17,2.97l-2.07.66c-1.49.46-3,1.05-4.47,1.76-1.64.8-2.37,1.41-2.37,2v6.99c0,1.26.45,2.39,1.34,3.38.32.38.7.75,1.13,1.08.42.33.71.56.9.66.17.1.3.17.37.23l.14.09,5.13-2.74c.11.43.38.89.82,1.36.57.61,1.19,1.06,1.85,1.33l.12.04,4.91-2.74v-1.31l-.21-.07Zm-8.95-.61c-.47,0-.91-.2-1.3-.61-.39-.43-.58-.95-.58-1.63v-2.78c0-1.59.34-2.71,1.02-3.34.38-.35.74-.61,1.06-.77.28-.13.69-.3,1.21-.49v9.1c-.51.35-.98.52-1.41.52Z"/>
        <path class="cls-2" d="m134.27,337.12c-.65-.15-1.13-.42-1.42-.78-.31-.36-.45-1.04-.45-2.02v-12.07c0-1.36-.45-2.69-1.33-3.95-.91-1.3-1.88-1.96-2.91-1.96-.37,0-1.54.25-7.51,2.36l-.19.07v1.75h.27c2.37,0,3.98.31,4.79.91.74.56,1.13,1.55,1.16,2.97l-2.06.66c-1.49.46-3,1.05-4.48,1.76-1.64.8-2.37,1.41-2.37,2v6.99c0,.35.03.69.11,1.02-.54-.05-1.02-.2-1.48-.42-1.6-.66-3.27-3.28-5-7.77,4.35-1.69,4.36-2.06,4.36-2.33v-4.65c0-1.34-.51-2.58-1.53-3.66-1.03-1.1-1.96-1.65-2.84-1.65-.36,0-1.19.27-4.42,2.34v-3.42c0-1.3.42-2.48,1.22-3.5.33-.42.74-.82,1.24-1.21.49-.4.87-.67,1.14-.81l.25-.12-.94-1.87-.25.15c-2.88,1.69-6.2,3.52-9.87,5.45l-.15.08v1.64h.27c.54,0,.91.12,1.1.38.22.27.33.78.33,1.48v21.1c0,.58.3,1.2.89,1.83.56.61,1.18,1.06,1.85,1.33l.12.04,4.56-2.57v-1.32l-.22-.04c-1.03-.21-1.53-1.08-1.53-2.68v-3.09c.57,1.55,1.38,3.35,2.41,5.37,1.49,2.94,2.68,4.31,3.72,4.31.47,0,1.52-.26,5.14-2.6l.12-.08v-.39c.2.37.45.72.75,1.06.33.38.71.75,1.13,1.08s.72.56.91.66c.16.1.3.17.37.23l.14.09,5.13-2.74c.11.44.38.89.82,1.36.57.61,1.19,1.06,1.85,1.33l.12.04,4.91-2.74v-1.31l-.23-.09Zm-24-10.99l-.61.31c-1.43.69-2.23.94-2.68,1.02v-6.24l1.09-.17c1.48,0,2.2,1.09,2.2,3.35v1.73h0Zm15.04,10.38c-.47,0-.9-.2-1.29-.61-.39-.43-.59-.95-.59-1.63v-2.78c0-1.59.35-2.71,1.03-3.34.37-.35.73-.6,1.06-.77.28-.13.69-.3,1.21-.49v9.1c-.5.35-.97.52-1.42.52Z"/>
        <path class="cls-2" d="m43.92,346.26c-1.14-1.37-1.95-2-2.55-2-.36,0-1.34.34-5.62,2.93-.12-.47-.43-.96-.94-1.5-.65-.68-1.3-1.15-1.95-1.41l-.12-.04-4.93,2.78v1.4l.22.04c1.13.23,1.67,1.18,1.67,2.93v23.99c0,1.51-.26,2.65-.78,3.36-.56.72-1.14,1.09-1.73,1.09h-.44l1.05,2.11,9.9-4.16v-1.89h-.27c-.66,0-1.08-.2-1.28-.59-.23-.45-.34-1.24-.34-2.33v-4.47c1.57-.5,3.56-1.22,5.92-2.18,3.85-1.55,3.85-1.8,3.85-2.06v-14.4c.01-1.08-.55-2.29-1.66-3.6Zm-8.1,19.57v-16.02c.55-.37,1.07-.56,1.53-.56,1.4,0,2.09,1.03,2.09,3.15v11.35c0,.55-.72,1.04-1.33,1.36-.84.43-1.6.67-2.29.72Z"/>
        <path class="cls-2" d="m63,359.22v2.43l-5.07,2.85-1.03-.84v-.13c0-3.27-.39-4.06-.63-4.23-.46-.33-1.15-.51-2.07-.54v14.49c0,1.75.55,2.71,1.68,2.93l.22.04v1.4l-4.93,2.79-.12-.05c-.72-.28-1.39-.77-2-1.43-.63-.68-.95-1.34-.95-1.97v-15.37c0-1.29-.23-2.27-.67-2.9-.43-.6-.87-.91-1.33-.91h-.27v-1.45l5.34-2.91.11.03c.23.07.48.15.79.26.33.12.75.44,1.3.96.44.43.7.9.8,1.41.3-.2.84-.56,1.82-1.24,1.82-1.25,2.38-1.41,2.68-1.41,1.08,0,2.1.69,3.01,2.07.88,1.33,1.32,2.59,1.32,3.72Z"/>
        <path class="cls-2" d="m78.81,355.42c-1.15-1.36-1.97-1.99-2.59-1.99-.36,0-1.39.21-6.17,1.98-5.46,2.04-5.46,2.27-5.46,2.56v15.37c0,1.9.5,3.56,1.51,4.93,1.04,1.41,1.96,2.1,2.81,2.1s2.87-.65,6.31-1.98c5.25-2.04,5.25-2.33,5.25-2.6v-16.76c0-1.08-.56-2.3-1.66-3.61Zm-8.12,3.42c.5-.37,1.02-.56,1.53-.56,1.41,0,2.09,1.03,2.09,3.15v13.54c-.52.39-1.04.6-1.53.6-1.4,0-2.09-1.04-2.09-3.16v-13.57Z"/>
        <path class="cls-2" d="m91.22,376.18l.23.04v1.4l-4.93,2.79-.13-.05c-.71-.28-1.38-.77-1.99-1.43-.63-.68-.95-1.34-.95-1.97v-19.97h-1.98l.6-2.49h.21c.85,0,1.92-.6,3.17-1.79,1.27-1.2,2.02-2.5,2.26-3.86l.03-.23h1.8v5.51h2.43l-.58,2.82h-1.85v16.3c0,1.74.55,2.71,1.68,2.93Z"/>
        <path class="cls-2" d="m106.73,355.42c-1.15-1.36-1.97-1.99-2.59-1.99-.36,0-1.39.21-6.17,1.98-5.46,2.04-5.46,2.27-5.46,2.56v15.37c0,1.9.5,3.56,1.51,4.93,1.04,1.41,1.96,2.1,2.82,2.1.8,0,2.85-.65,6.3-1.98,5.25-2.04,5.25-2.33,5.25-2.6v-16.76c.01-1.08-.55-2.3-1.66-3.61Zm-8.11,3.42c.5-.37,1.02-.56,1.53-.56,1.41,0,2.09,1.03,2.09,3.15v13.54c-.52.39-1.04.6-1.53.6-1.4,0-2.09-1.04-2.09-3.16v-13.57Z"/>
        <path class="cls-2" d="m127.85,361.72v1.38l-.16.08c-.67.31-1.83.85-3.44,1.64-2.48,1.2-2.62,1.2-2.73,1.2-.47,0-1.04-.48-2.02-3.97-.92-3.24-1.37-3.55-1.45-3.58-.2,0-.38.1-.56.28v12.68c0,2.26.94,3.61,2.85,4.13,1.02.24,2.26.36,3.69.36h.27v1.82l-.19.07c-7.64,2.56-8.03,2.56-8.19,2.56-1.02,0-2.04-.7-3.05-2.08-.98-1.36-1.49-2.96-1.49-4.77v-15.56c0-.28,0-.51,5.48-2.56,4.8-1.77,5.83-1.98,6.19-1.98s.6.42.91,1.54c.25.9.54,1.98.86,3.25.32,1.24.65,2.15.98,2.73.31.51.89.77,1.78.77h.27Z"/>
        <path class="cls-2" d="m143.18,355.42c-1.15-1.36-1.97-1.99-2.59-1.99-.36,0-1.39.21-6.17,1.98-5.46,2.04-5.46,2.27-5.46,2.56v15.37c0,1.9.51,3.56,1.52,4.93,1.03,1.41,1.96,2.1,2.81,2.1.8,0,2.86-.65,6.31-1.98,5.24-2.04,5.24-2.33,5.24-2.6v-16.76c0-1.08-.56-2.3-1.66-3.61Zm-8.1,3.42c.49-.37,1.02-.56,1.53-.56,1.4,0,2.09,1.03,2.09,3.15v13.54c-.54.39-1.05.6-1.53.6-1.41,0-2.09-1.04-2.09-3.16v-13.57Z"/>
        <path class="cls-2" d="m155.82,376.22v1.4l-4.93,2.79-.12-.05c-.71-.28-1.39-.77-2-1.43-.62-.68-.95-1.34-.95-1.97v-25.61c0-1.75-.55-2.71-1.67-2.93l-.22-.04v-1.4l4.93-2.79.12.05c.71.28,1.38.78,1.99,1.43.63.68.95,1.34.95,1.97v25.61c0,1.75.56,2.71,1.68,2.93l.22.04Z"/>
      </g>
      <path class="cls-2" d="m148.79,284.64c-.89-.39-1.73-.88-2.56-1.38-.23-.14-.34-.49-.51-.74.25-.03.49-.07.74-.08.19-.01.39-.04.57.01,2.47.75,4.97,1.4,7.39,2.3,2.93,1.09,5.77,2.4,8.66,3.59.26.11.59.07.89.1-.18-.27-.29-.65-.54-.8-1.79-1.08-3.58-2.16-5.42-3.16-5.08-2.74-10.57-4.21-16.24-5.07-2.69-.41-5.38-.83-8.07-1.15-3.52-.42-7.04-.77-10.56-1.11-.94-.09-1.89,0-2.84-.02-3.77-.07-7.53-.14-11.3-.21-.38.03-.77.06-1.15.09-1.26.06-2.52.1-3.78.18-.21.01-.42.21-.62.32.18.22.33.47.55.64.13.1.36.08.54.11,2.84.53,5.73.87,8.51,1.62,5.41,1.45,10.82,2.92,16.04,5.08,8.73,3.61,17.14,7.83,25.01,13.03,4.74,3.13,9.26,6.59,13.8,10.01,2.04,1.54,3.9,3.31,5.81,5.01,2.73,2.42,5.42,4.88,8.15,7.31.11.1.37.04.55.05v-5.31c-1.54-1.48-3.1-2.93-4.62-4.43-3.93-3.9-8.39-7.15-12.88-10.37-6.78-4.87-14.1-8.79-21.55-12.49-2.82-1.4-5.69-2.7-8.52-4.08-.55-.27-1.01-.71-1.51-1.07.59.08,1.21.08,1.77.26,3.48,1.09,7.05,1.99,10.39,3.41,5.05,2.13,10.03,4.47,14.87,7.03,3.93,2.08,7.71,4.51,11.39,7.01,3.17,2.16,6.09,4.66,9.16,6.97.41.31.99.38,1.49.56v-3.79c-3.39-3.28-7.29-5.89-11.31-8.29-7.16-4.3-14.68-7.82-22.3-11.14Z"/>
      <path class="cls-2" d="m1.55,297.12c3.04-1.6,6.04-3.26,9.08-4.85,2.51-1.31,5.01-2.67,7.61-3.75,4.52-1.88,9.07-3.71,13.7-5.29,3.31-1.13,6.75-1.95,10.17-2.68,3.72-.79,7.49-1.37,11.26-1.92,3.24-.47,6.51-.86,9.77-1.1,3.01-.23,6.04-.23,9.07-.34.24-.01.47-.13.71-.2-.22-.08-.43-.18-.65-.22-.79-.14-1.58-.33-2.38-.38-4.39-.27-8.79-.74-13.18-.7-7.36.05-14.73.42-22.09.69-1.68.06-3.35.23-5.03.38-1.23.11-2.47.2-3.69.42-4.6.85-9.22,1.64-13.78,2.65-3.88.86-7.7,1.98-11.55,2.98v14.41c.33-.03.71.04.98-.1Z"/>
      <path class="cls-2" d="m64.67,281.69c-3.48.47-6.95,1.03-10.37,1.78-6.8,1.5-13.42,3.68-19.88,6.24-5.33,2.11-10.57,4.47-15.68,7.07-6.39,3.24-12.43,7.12-18.17,11.43v10.24c.25-.06.56-.04.74-.19,2.58-2.17,5.09-4.43,7.73-6.52,3.97-3.14,7.96-6.28,12.1-9.2,6.45-4.55,13.42-8.18,20.65-11.34,7.32-3.21,14.88-5.7,22.62-7.65,2.98-.75,5.98-1.38,8.97-2.09.33-.08.63-.3.94-.45-.31-.02-.62-.09-.92-.06-2.91.23-5.84.35-8.73.74Z"/>
      <path class="cls-2" d="m163.58,284.81c-1.03-.39-2.07-.76-3.12-1.12-.17-.06-.37-.01-.55,0,.11.07.23.15.34.22,1.11.76,2.2,1.56,3.34,2.27,4.27,2.65,8.55,5.28,12.84,7.9,1.97,1.2,3.97,2.35,5.95,3.52v-4.55c-.98-.5-1.98-.98-2.95-1.5-5.07-2.74-10.46-4.73-15.85-6.74Z"/>
      <path d="m164.22,128.28c-.37-.55-.91-.96-1.53-1.19.24-1.04.02-2.12-.69-2.93-.56-.63-1.35-1.02-2.23-1.07-.07,0-.14,0-.22,0-.07,0-.14,0-.21,0,.04-1.69-.85-3.24-2.35-3.82-.34-.13-.69-.21-1.05-.23h-.23c-.09,0-.19,0-.27,0-.05,0-.11,0-.16,0-.16.02-.34.05-.5.1-.56.15-1.09.44-1.56.83-.02,0-.04.03-.07.05-.03.03-.05.05-.08.07l-.04.04s-.04-.07-.05-.1c-.02-.03-.04-.08-.07-.11-.04-.08-.1-.16-.15-.23-.33-.49-.74-.91-1.22-1.21-.48-.32-1.03-.52-1.62-.59-.08,0-.14,0-.21-.02-.13,0-.26,0-.39,0-.07,0-.14,0-.22.02-.1,0-.19.02-.27.03s-.14.02-.22.04c-.09.02-.17.04-.26.08-.07.02-.14.03-.21.07-.09.03-.16.07-.25.11-.07.02-.13.05-.2.09-.09.04-.16.09-.24.14-.07.03-.13.07-.19.11-.09.05-.16.12-.24.17-.05.04-.11.09-.15.13-.09.07-.16.14-.24.22-.04.04-.09.08-.13.12-.11.12-.22.25-.32.38h-.01s-.09.11-.12.16c-.09.13-.15.27-.21.43-.02.05-.03.11-.04.17-.05.16-.1.34-.21.51-.05.1-.12.19-.22.26-.03.03-.07.05-.11.09h-.01s-.09.11-.13.15c-.12.13-.24.26-.35.39-.24.27-.47.54-.7.81-.17.2-.35.4-.52.6-.17.2-.36.38-.54.58-.17.17-.4.33-.66.44-.15.08-.32.13-.48.18-1.01.24-2.03.43-3.05.55-.21.02-.42.03-.62.04h-.13c-.11,0-.23,0-.35-.02-.02,0-.05,0-.08,0h-.03c-.16-.03-.32-.05-.47-.11-1.13-.38-2.44-.21-3.56.34-.04.02-.09.04-.12.07-.01,0-.02,0-.03,0-.01,0-.01,0-.02,0h-.01c-.31.16-.59.35-.85.56-.11.09-.22.16-.32.26-.05.04-.1.1-.15.14,0,0-.01.02-.01.02-.01,0-.01,0-.01,0-.7.7-1.16,1.56-1.2,2.5-.07,1.53.52,3.07,2.1,3.59.5.16.7.36.74.58.07.31-.14.65-.23.96-.19.7-.47,1.4-.86,2.01-.22.33-.73.68-1.12.68-2.21,0-4.35.25-6.46.67,0,.04-.01.09-.01.14-.59.07-1.18.13-1.78.21-.66.09-1.28.35-1.91.58-.21.17-.42.36-.62.54-.66.15-1.31.31-1.98.46-.55.33-1.1.66-1.67.94-5.74,2.84-11.51,5.4-18.09,5.92-3.97.31-7.86-.02-11.78-.19l-11.69-2.84c-5.4-2.2-10.76-5.86-16.82-6.25-.38-.02-.87-.4-1.07-.75-.35-.62-.6-1.34-.74-2.06-.11-.56-.6-1.2.61-1.51,1.61-.4,2.3-1.91,2.33-3.44,0-.12-.01-.23-.02-.35-.54-.86-1.03-1.76-1.48-2.69l-.03-.03c-.23-.2-.48-.38-.74-.55-.01,0-.03-.02-.05-.03-.25-.15-.51-.28-.79-.39-.03-.02-.07-.03-.11-.05-.26-.1-.54-.19-.81-.24-.04,0-.08,0-.12-.02-.27-.05-.56-.09-.83-.09h-.02c-.35,0-.69.04-1.02.13h-.01c-.22.05-.45.08-.69.09h-.09c-.31,0-.61-.04-.91-.1-1.02-.19-2.02-.44-3.01-.74-.4-.12-.83-.36-1.09-.68-.34-.4-.67-.82-1-1.25-.32-.43-.63-.85-.96-1.27-.02-.03-.04-.05-.07-.08-.02-.02-.04-.05-.07-.08-.01-.02-.03-.03-.05-.05-.02-.02-.03-.03-.05-.05-.05-.05-.09-.1-.12-.15-.15-.21-.21-.44-.25-.65-.01-.05-.02-.12-.03-.17-.01-.07-.04-.14-.07-.21t-.01-.02s-.01-.03-.02-.04c-.01-.02-.02-.03-.03-.05s-.02-.04-.03-.07c0,0-.01-.03-.02-.04-.03-.05-.07-.11-.11-.16-.38-.59-.9-1.08-1.48-1.42-.3-.16-.6-.3-.93-.38-.16-.04-.33-.09-.5-.11-.16-.02-.34-.03-.51-.03h-.21c-.3.02-.59.07-.86.15-.83.24-1.55.77-2.09,1.47-.11.14-.21.28-.3.43-.04-.04-.09-.09-.14-.13-.01,0-.02-.03-.04-.04-.44-.42-.95-.73-1.5-.92h0c-.38-.14-.78-.21-1.18-.21-.36,0-.71.04-1.06.15-.77.25-1.4.74-1.84,1.39-.45.63-.71,1.43-.74,2.27-.14,0-.28-.02-.43-.02-.89,0-1.71.33-2.3.93-.57.57-.87,1.3-.92,2.09-.02.26-.01.52.03.79-.15.04-.31.11-.46.17-.45.21-.83.52-1.14.92-.36.46-.58,1-.65,1.57-.02.21-.03.4-.02.62h0s.01.06.01.1c0,.03.01.07.01.09.02.12.02.24.05.36.01.03.02.08.02.11.01.03.02.08.03.11,0,0,.01,0,.01.02.13.2.26.39.38.6.05.08.1.15.15.23.2.32.4.63.6.96,0,0,.01,0,.01.02h.01c.81,1.3,1.62,2.58,2.53,3.78.31.4.62.79.95,1.17.82.94,1.63,1.91,2.52,2.82.87.91,1.82,1.76,2.91,2.46.17.1.33.24.46.39.14.16.26.34.38.52.24.38.43.8.58,1.19.08.19.12.37.16.57.11.59.09,1.21.22,1.8.47,2.11,1.12,4.14,1.95,6.08.27.65.57,1.29.89,1.91,1.27,2.49,2.85,4.83,4.77,6.99.19.21.37.42.56.62.03.02.05.04.09.08.21.23.43.47.66.7.39.39.79.79,1.19,1.16.28.27.58.54.87.8.08.07.15.13.23.2.03.03.08.08.12.11.02.02.05.04.09.07.2.18.39.34.6.5.2.15.4.32.6.47.07.07.14.12.21.16.11.08.21.16.32.24.1.07.19.13.28.2.24.18.47.34.71.49.03.03.07.05.1.08.16.11.33.22.49.32.17.11.35.22.52.33.02.02.05.03.08.04.01,0,.02.02.03.02.2.12.39.23.59.34s.4.22.6.33c.04.03.1.05.14.08.02,0,.04.02.07.04.14.07.28.14.43.21.14.08.28.14.43.21.14.07.28.13.43.2.08.03.14.07.22.1.5.22,1.02.43,1.54.61.74.26,1.33.56,1.82.92.27.2.51.4.72.65.01,0,.02.02.03.04.11.11.2.23.28.36t.02.02s.04.07.05.1c.05.08.11.15.15.24,0,0,.01,0,.01.02.04.08.09.15.12.23.04.09.09.17.12.26.04.09.09.18.12.27.03.08.07.15.09.23.03.08.05.15.09.24.11.33.21.69.31,1.07,1.66,6.63,3.89,13.12,5.86,19.68.08.23.11.49.11.75v.1c0,.23-.03.46-.1.67-.66,2.18-1.43,4.33-2.1,6.51-.23.74-.5,1.5-.75,2.24-.16.5-.33,1.01-.47,1.51-.21.75-.36,1.51-.4,2.27-.04.74-.07,1.49-.07,2.24,0,2.5.21,5.01.4,7.51.05.75.16,1.52.33,2.27.09.38.19.75.3,1.12s.24.73.38,1.08c.87,2.14,1.75,4.29,2.67,6.41.92,2.13,1.87,4.23,2.88,6.32.43.89.69,1.69.78,2.53.02.2.03.4.03.62-.01.62-.12,1.28-.34,1.99-.79,2.49-1.37,5.04-1.52,7.58-.03.48-.04.96-.04,1.43,0,1.44.14,2.89.46,4.31.14.65.32,1.28.54,1.91.46,1.38.94,2.76,1.44,4.12.98,2.74,2.02,5.47,3.06,8.2.51,1.36,1.03,2.72,1.53,4.09.27.74.47,1.51.8,2.23.1.22.2.45.3.67.27.68.51,1.37.69,2.06.15.63.24,1.28.24,1.94,0,.32-.02.63-.07.95-.38,2.76-.63,5.55-1.3,8.26-.87,3.46-1.53,6.92-1.53,10.5,0,.34.01.69.02,1.04.01.28.03.55.09.81-.01.01-.01.02,0,.03,0,.01,0,.02.01.03.03.19.07.36.12.54.04.17.1.35.19.5.02.08.05.15.1.22.07.13.13.25.22.36.09.13.2.25.31.37.23.24.5.44.83.6,1.42.73,3.01,1.39,4.58,1.56,1.04.12,2.09.2,3.14.25.23.01.45.03.67.04,1.03.04,2.04.07,3.06.08h.14c.59,0,1.19-.01,1.78-.02,1.76-.04,3.58-.35,5.26-.89,1.56-.51,3.29-1.21,3.77-3.04.39-1.49.66-3.07.59-4.6-.16-4.16-1.17-8.18-2.19-12.2-.82-3.24-1.38-6.54-1.29-9.92.08-3.16-.09-6.33.08-9.48.13-2.71.44-5.42.95-8.09.46-2.44,1.24-4.8.93-7.33-.04-.44.03-.89.05-1.32.01-.14.02-.25.04-.36,0-.03.01-.07.01-.09.02-.09.04-.15.07-.22.01-.02.02-.04.03-.05.03-.08.08-.13.14-.16.01-.01.03-.01.04-.02.05-.02.11-.04.19-.04.01,0,.02-.01.03-.01s.03.01.04.01c.07,0,.13.01.2.03.03,0,.07.01.1.02.12.03.24.07.38.13.07.02.12.05.17.09.03.01.07.02.09.04h.01s.09.05.13.09c0,0,.01,0,.01.01.04.03.09.07.13.11.03.03.07.08.1.12.07.09.11.19.14.3.04.12.07.25.1.4.65,3.21,1.42,6.4,3.66,8.98.58.67,1.14,1.33,1.72,2.01h.04s.02-.01.02-.01t.02.01s.02,0,.03.01h.03s.04.04.05.06c0,0,.01,0,.01.01h.01s.01.02.01.03c.84.05,1.68.1,2.52.15.72-.04,1.44-.08,2.17-.12.37-.04.77-.03,1.13-.14,5.59-1.72,9.35-7.07,10.25-13.18.5-3.43-.36-6.65-1.04-9.92-.12-.57-.25-1.15-.32-1.73-.08-.58-.09-1.16.03-1.68.63-2.76,1.66-5.41,2.31-8.17.93-3.95.65-7.92-.11-11.9-.72-3.78-2.31-7.26-3.62-10.84-1.1-3.04-2.34-6.07-.74-9.4.93-1.95,1.51-4.06,2.19-6.11,1.57-4.8,3.11-9.62,4.69-14.42.13-.37.58-.83.95-.92,2.79-.6,5.31-1.66,7.68-3.03,1.17-.69,2.31-1.45,3.41-2.26,1.1-.82,2.17-1.71,3.21-2.61,2.93-2.55,5.38-5.41,7.3-8.61-.01-.04-.02-.09-.01-.13-.01-.02-.01-.05-.01-.08-.01-.02-.01-.05-.01-.08,0-.05,0-.11.01-.17,0,0,.01,0,.01-.02h0c.05-.1.11-.2.15-.28.2-.37.39-.74.58-1.13.12-.25.23-.49.34-.74.16-.35.32-.69.47-1.05.11-.26.21-.52.31-.79.14-.36.28-.71.4-1.07.22-.61.42-1.24.6-1.87.22-.77.2-1.63.54-2.34.36-.75.86-1.63,1.55-2.01,2.26-1.27,3.99-3.16,5.75-4.93,1.41-1.42,2.59-3.06,3.78-4.7.43-.59.84-1.18,1.28-1.76.03-.08.05-.15.08-.23.03-.09.04-.17.07-.26.02-.09.03-.17.04-.26.01-.07.02-.14.02-.21.01-.14.01-.3,0-.44-.06-.58-.24-1.14-.57-1.62Zm-109.24-2.1c1.59-.03,2.54.93,2.53,2.54-.01,1.38-.84,2.37-2.01,2.41-1.24.04-2.18-1.05-2.17-2.49,0-1.59.58-2.44,1.65-2.46Zm-15.64-4.43c0-.16,0-.33.01-.48.05-.5.21-.95.44-1.33.13-.22.3-.39.47-.56l.1-.1s.08-.04.11-.07c.31-.22.66-.36,1.04-.38h.11c.2,0,.38.03.56.09.01,0,.02,0,.03,0h.03s.03,0,.05.02c.04,0,.09.04.12.05.04.02.09.04.13.07.12.05.23.13.34.21h.01v.02c.06.04.11.08.15.12.04.04.09.1.14.14.01,0,.01,0,.02.03,0,0,.01,0,.02,0,.07.09.14.17.21.27.01,0,.02.03.03.05.03.05.07.12.1.17.03.04.05.08.08.12h0s.02.05.03.09c.02.04.04.09.05.13.02.03.03.08.05.13.01.02.01.03.02.05.02.05.04.11.05.16s.03.12.04.18c0,.02,0,.04.01.05.01.07.02.12.03.19.01.1.02.21.03.31v.07c0,.22-.01.43-.04.63-.01.07-.02.14-.04.22,0,0,0,.03-.01.05-.02.11-.04.2-.09.3-.02.07-.04.14-.08.21-.02.04-.03.09-.05.13,0,0-.01,0-.01.02t-.02.03c-.11.23-.26.43-.42.6-.02,0-.04.03-.05.05-.16.16-.35.3-.55.4-.01,0-.02.02-.04.03-.03,0-.05.02-.09.03-.03.02-.08.03-.13.04-.07.03-.13.04-.21.07l-.2.03s-.09.02-.13.02h-.11c-.12,0-.23,0-.35-.03-.05,0-.12-.02-.17-.04-.04,0-.09-.02-.13-.03-.01,0-.02,0-.04-.02-.03,0-.08-.02-.11-.04-.04-.02-.09-.04-.13-.07-.07-.03-.14-.08-.21-.12,0,0-.01,0-.02-.02-.04-.02-.08-.05-.12-.09-.07-.04-.12-.1-.19-.16-.12-.12-.23-.25-.33-.39-.01,0-.01,0-.01,0h0s-.01-.02-.01-.02c-.03-.04-.05-.08-.09-.12-.01-.03-.03-.05-.04-.09-.04-.08-.09-.15-.12-.24-.08-.15-.14-.32-.19-.49-.07-.22-.1-.45-.11-.69h0s.03-.01.03-.01Zm-5.78-.18c0-.09.01-.17.02-.26,0-.03.01-.08.01-.11.01-.04.02-.09.03-.13.01-.04.02-.09.03-.13,0-.02.01-.03.01-.04.04-.12.09-.24.14-.35.02-.04.04-.08.07-.12.04-.07.09-.13.13-.2.05-.07.11-.13.17-.19.04-.05.1-.1.15-.13l.04-.04c.13-.09.28-.16.44-.22.09-.03.16-.02.24-.04.09,0,.16-.03.24-.03.11,0,.21,0,.32.03.01,0,.03,0,.04,0,.11.02.22.07.33.1.08.03.15.08.23.12.02,0,.05.02.08.04.01,0,.02,0,.03.02h.01s.1.08.14.11c.04.04.09.08.13.11.08.07.14.13.21.2.04.05.08.1.12.15.03.04.07.09.1.13.03.04.05.08.08.11.04.08.09.16.13.24.01.02.01.03.02.04.05.11.1.22.14.34,0,.02.01.04.02.07h0s.01.03.01.05c.04.11.04.23.07.34.07.3.09.6.04.87-.01.12-.03.23-.08.34,0,0,0,.03-.01.04-.02.11-.07.21-.11.3-.07.14-.14.27-.23.38-.04.05-.1.11-.14.16-.04.05-.1.1-.16.15-.05.04-.11.08-.17.12-.11.07-.22.13-.34.16-.16.05-.32.08-.48.08-.2,0-.39-.04-.59-.11-.08-.03-.14-.04-.21-.08-.34-.16-.63-.44-.89-.78-.1-.13-.17-.26-.25-.4-.09-.14-.15-.3-.2-.46-.03-.09-.05-.17-.07-.26-.05-.2-.07-.39-.07-.59,0-.02-.01-.03-.01-.05.03-.03.04-.06.04-.09Zm-2.73,8.2l-.13.13c-.26.25-.62.38-1.01.38-.42,0-.85-.14-1.24-.44-.02,0-.03-.03-.05-.04-.55-.47-.81-1.14-.7-1.72.04-.2.12-.38.25-.55.03-.04.07-.08.1-.11s.07-.05.1-.09c.01,0,.03-.02.04-.03.02,0,.03-.02.05-.03.08-.04.15-.09.23-.12.11-.04.21-.1.33-.12.09,0,.19-.02.28-.02.42,0,.85.14,1.24.44.24.2.4.43.54.67.09.15.16.32.2.48.03.14.04.28.03.43-.01.27-.1.52-.26.74Zm.53-3.07s-.07-.02-.1-.03c-.25-.11-.49-.27-.71-.49-.15-.15-.27-.33-.37-.5-.09-.14-.15-.3-.2-.45-.01,0-.01-.03-.01-.04-.02-.05-.03-.1-.04-.15v-.04s-.02-.07-.01-.1c-.01,0-.01-.02-.01-.03-.01-.02-.01-.04-.01-.07v-.04c0-.1.01-.21.02-.31.02-.1.04-.2.08-.28.07-.14.15-.28.26-.39h.01s.05-.06.09-.09c.01-.02.03-.03.04-.03.01,0,.03-.02.05-.03h.01c.22-.16.48-.23.77-.23h.07s.1,0,.15,0h.01s.13.02.2.03c.04,0,.1.03.14.04.03,0,.05.02.09.04.03,0,.05.02.09.03.02,0,.03,0,.05.02.12.05.24.12.35.2.09.07.18.13.26.22.02,0,.03.02.05.05h.01c.1.1.19.2.25.31.15.22.26.45.33.68.03.12.05.24.07.35v.16c0,.08-.01.16-.02.24v.02c-.01.08-.03.15-.07.23h0c-.03.09-.08.16-.12.23h0c-.04.08-.1.14-.16.21-.02.02-.05.03-.08.05-.17.15-.37.26-.6.3h-.01c-.08,0-.17.02-.26.02-.12,0-.25,0-.38-.04-.09-.04-.19-.07-.29-.1Zm27.21,38.01c-.21-.07-.45-.09-.62-.2-.22-.14-.45-.27-.67-.4-1.2-.73-2.41-1.43-3.52-2.25-2.83-2.08-5.35-4.45-7.34-7.38-2.08-3.03-2.84-6.5-3.65-9.95-.39-1.66-.83-3.01-2.32-4.2-2.36-1.88-4.32-4.25-6.47-6.38-.61-.6-.46-.97.02-1.57,1.15-1.43,2.59-1.63,4.22-1.21.65.16,1.27.42,1.91.58.19.04.4-.09.62-.13-.15-.15-.28-.42-.45-.45-1.2-.28-2.44-.43-3.6-.8-1.64-.52-2.62.18-3.51,1.43-.21.3-.36.46-.5.49h-.01s-.05-.01-.07-.03c-.01,0-.01,0-.01-.02-.01,0-.01-.02-.01-.03-.01,0-.01-.03-.01-.04,0-.02,0-.04.01-.08,0,0,0-.02.01-.03h0s0-.03.01-.04c0,0,0-.02.01-.04,0,0,.01-.03.02-.05.01-.04.03-.1.05-.15.02-.05.05-.11.09-.17.12-.25.3-.54.48-.84.04-.08.1-.15.15-.24.05-.08.1-.15.15-.23l.16-.23c.25-.38.51-.73.69-.98.1-.13.17-.23.22-.3t.02-.03s.01,0,.02-.02c0,0,.01,0,.01,0,.4-.72.77-1.27,1.14-1.68.12-.13.25-.25.38-.36.5-.43,1.07-.61,1.78-.61.58,0,1.26.12,2.1.34.96.25,2.01.19,3.02.26,0,0,0,0-.01-.02.02,0,.03.02.05.03-.01,0-.02,0-.04,0,1.13,2.24,2.19,4.52,3.39,6.71.22.4.51.73.85,1,.83.65,1.92.86,2.82.56.09-.03.17-.09.27-.12-.09-.08-.16-.2-.26-.22-2.11-.54-3.02-2.17-3.75-4.01-.75-1.88.5-4.41,2.48-4.71.61-.1,1.26-.05,1.89,0,.93.04,1.27.72.95,1.43-.69,1.59-.26,2.84.71,4.14.71.95.8,2.08-.03,3.09-.09.1-.21.19-.23.3-.39,2.02-1.84,3.12-3.3,4.23-.24.19-.48.37-.71.56-.74.6-1.18,1.57-1.74,2.38-.09.11-.1.27-.14.42.16-.02.38.02.48-.07.85-.7,1.64-1.47,2.49-2.14.21-.16.42-.32.62-.47.83-.58,1.8-1.03,2.77-1.33.95-.31,1.71.11,2.01,1.13.28.89.69,1.74.82,2.64.24,1.53.32,3.09.47,4.65.23,2.27.59,4.55.7,6.85.17,3.61.95,7.09,1.94,10.54.08.08,0,.29-.03.48Zm16.59,87.52c-.62-3.37-.72-7.11,1.02-10.25,1.88-3.41.96-6.3-.51-9.4-1.69-3.56-3.26-7.2-4.68-10.87-1.08-2.82-1.38-5.84-1.55-8.85,0-1.03.01-2.04.02-3.06-.04-2.58.52-5.04,1.31-7.48.36-1.1.73-1.22,1.75-.73,4.55,2.22,9.44,3.59,14.41,4.12,3.96.42,8.03-.03,12.03-.31,2.44-.16,4.87-.62,7.27-1.13,2.14-.45,4.25-1.09,6.35-1.73,1.12-.34,1.92-.26,2.26,1.02.02.07.04.12.07.17.35.77.69,1.53,1.03,2.3-.79.07-1.59.12-2.38.21-4.41.5-8.26,2.29-11.81,4.89-3.01,2.2-5.07,5.07-6.68,8.38-1,2.07-1.57,2.18-2.73.37-1.49-2.31-3.64-3.79-5.83-5.17-3.84-2.43-7.62-4.89-10.72-8.27-.26-.28-.56-.52-.85-.75-.11-.08-.31-.05-.47-.08.04.16.03.34.12.46.8,1.17,1.53,2.39,2.44,3.47,2.29,2.68,5.14,4.64,8.08,6.53,1.6,1.03,3.13,2.21,4.56,3.46,1.45,1.28,1.25,1.6.37,3.38-1.92,3.88-2.6,7.95-.94,12.14,1.39,3.51,2.93,6.97,4.19,10.52.73,2.07,1.08,4.21.39,6.53-.62,2.1-.6,4.4-.85,6.62-.26,2.27-.63,4.55-.73,6.83-.12,2.81-.02,5.62-.01,8.43,0,2.48-.15,4.99.7,7.39.05.13-.05.33-.1.49-.12-.12-.25-.24-.36-.38-1.79-2.3-5.52-2.09-7.57-.63-.17.13-.39.2-.6.3-.02-.24-.13-.52-.05-.74,1.02-3.08-.27-5.82-1.39-8.53-1.24-3-2.76-5.87-3.93-8.89-1.39-3.54-2.96-7.09-3.63-10.76Zm12.65-57.15c-.02-.94.21-1.44,1.26-1.26.31.07.63.02.95.03,1.88-.02,3.76-.03,5.64-.05.27.43.78.84.8,1.28.09,2.39.04,4.79.05,7.18.01.83-.28,1.28-1.21,1.26-2.21-.03-4.42-.03-6.63.03-.93.03-.82-.54-.82-1.09-.02-2.46,0-4.92-.04-7.38Zm2.96,88.85c1.42.11,2.09,1.1,2.57,2.26.09.2.03.45.04.67-.14-.1-.3-.2-.44-.3-.45-.33-.87-.67-1.33-.96-2.89-1.89-5.71-1.79-8.07.49-.15.13-.32.27-.48.42.08-.24.14-.47.22-.7.26-1.2,1.36-2.24,2.68-2.24,1.61,0,3.2.24,4.81.36Zm-4.57-2.06c.65-.07,1.29-.21,1.94-.19.4.02.81.27,1.21.42h-1.55c-.39-.05-.99-.14-1.6-.23Zm6.58,17.98c-1.73.23-3.47.31-5.43.46-1.33-.12-2.88-.26-4.42-.43-.94-.09-1.67-.62-1.49-1.53.12-.56.82-1.28,1.4-1.43,3.26-.86,6.51-.43,9.72.35.23.05.51.16.65.34.3.42.75.93.69,1.33-.06.36-.69.86-1.12.91Zm1.76-3.28c-2.22-1.19-4.7-1.43-7.16-1.62-2.07-.15-4.04.36-5.9,1.29-1.22.6-1.24.57-1.49-.85.73-2.2,1.2-4.54,2.26-6.57,1.61-3.05,6.11-3.73,9.32-1.8,2.36,1.42,3.44,3.58,3.9,6.16.15.85.3,1.71.36,2.56.07.97-.17,1.43-1.29.83Zm24.18-78.55c-.65,6.04-1.13,11.85-3.63,17.21-1.5,3.21-3.85,5.77-7.18,7.22-.95.42-2.01.6-3.03.84-.3.07-.62-.02-.94-.04.26-.08.54-.12.79-.23,4.24-1.77,7.62-4.49,9.51-8.8.11-.26.09-.58.12-.87-.23.2-.52.36-.69.6-1.36,1.94-2.8,3.74-4.66,5.29-2.56,2.11-5.47,2.14-8.32,1.73-2.2-.32-4.36-1.24-6-3.01-1.09-1.19-1.79-2.48-1.91-4.11-.17-2.46.05-4.84.97-7.16,1.57-3.96,3.23-7.91,5.99-11.18,3.52-4.18,7.79-7.29,13.4-8.09.62-.09,1.27-.08,1.89-.05,1.17.04,2.03.48,2.25,1.77.31,1.82.66,3.62.96,5.43.2,1.22.35,2.46.48,3.45Zm2.15-52.14c-.27,6.41-1.68,12.56-4.41,18.41-.51,1.12-.77,2.35-1.31,3.46-.26.54-.83,1.14-1.38,1.3-8.17,2.38-16.53,3-25,2.61-.52-.03-1.05-.08-1.57-.11-1.65-.09-3.34.03-4.93-.3-3.4-.71-6.75-1.69-10.15-2.46-.94-.22-1.33-.74-1.55-1.55-1.07-3.89-2.22-7.79-3.14-11.72-.36-1.5-.19-3.13-.25-4.7-.03-.27-.07-.54-.1-.79-.03-3.23-.35-6.47-.02-9.66.36-3.48,1.29-6.88,2-10.31.27-1.26.63-2.49.96-3.74.11-.38.25-.74.38-1.1.25.33.54.63.73.98,1.54,2.68,3.55,4.87,6.24,6.48,2.89,1.74,6.01,2.76,9.28,3.03,4.19.34,8.42.55,12.61.34,3.41-.17,6.75-1.13,9.97-2.43,3.7-1.5,6.23-4.2,8.43-7.35.19-.26.45-.47.68-.7.09.27.21.54.25.82.33,1.74.7,3.49.95,5.25.36,2.56.69,5.13.94,7.7.23,2.17.48,4.37.39,6.54Zm32.51-42.13c0-.12.01-.24.02-.36.02-.24.08-.48.16-.72,0-.02.01-.03.01-.04h0s.01-.02.01-.02c.08-.2.17-.37.28-.54.01-.02.01-.04.02-.05.02-.03.04-.07.07-.1t.02-.02s.01-.02.02-.02c.08-.1.14-.17.22-.25t.01-.02c.07-.05.12-.11.17-.15.02,0,.03-.03.05-.04.03-.02.05-.04.09-.07.08-.05.15-.1.23-.14.04-.03.07-.04.11-.05.01,0,.02-.02.03-.02.03-.02.08-.03.11-.05.03,0,.07-.02.1-.03.01,0,.03,0,.05-.02.08-.02.15-.03.24-.05h.02s.02,0,.03,0c.03,0,.08,0,.11,0,.02,0,.04,0,.08,0h.15s.1.02.15.03c.11,0,.23.03.33.07.11.04.22.1.32.16.01,0,.02.02.02.02.02,0,.03.02.04.03.09.07.15.13.22.21.01,0,.01,0,.02,0,.02.02.05.07.08.1.02.03.05.07.08.1.01.02.03.04.04.07.01.02.01.03.02.04s.01.03.02.04c.03.05.07.11.09.16.01.03.02.05.03.09s.02.08.03.12c.01.03.02.07.03.1.01.05.03.12.04.18,0,.02.01.05.01.08.01.09.02.19.03.28v.31s-.01.05-.01.09c-.01.07-.01.12-.03.19,0,.05-.01.12-.02.18-.01.02-.01.04-.02.07-.01.04-.01.09-.02.13-.01.02-.01.05-.02.08-.02.07-.04.12-.07.19-.3.74-.83,1.3-1.43,1.54-.19.08-.36.11-.54.13-.08,0-.15.02-.22,0h-.05c-.16,0-.33-.04-.48-.11,0,0-.01,0-.02,0s-.02,0-.02,0c-.16-.07-.31-.16-.44-.27-.13-.12-.24-.25-.33-.39-.08-.11-.13-.23-.17-.36l-.12-.4c-.01-.09-.02-.19-.03-.28v-.2h.03Zm-6.35-1.42s.01-.04.01-.07c.01-.05.01-.12.02-.16.01-.04.01-.08.02-.11.01-.07.03-.11.04-.16.01-.03.01-.05.02-.08.04-.16.11-.31.17-.45v-.02s.02-.03.02-.04c.03-.05.05-.1.08-.14.02-.03.04-.05.07-.09.08-.13.16-.25.26-.36.01,0,.01-.03.02-.04h.01s.01-.02.02-.03c.03-.02.04-.05.08-.08.01,0,.01-.02.02-.03.09-.08.17-.14.25-.21.05-.04.11-.09.17-.12.02-.02.04-.04.07-.05.03,0,.05-.03.08-.03.07-.03.14-.08.21-.11.01,0,.02,0,.03,0,.04,0,.1-.03.14-.04.07-.02.12-.03.19-.04.04,0,.09-.02.12-.02.05,0,.11-.02.17-.02.04,0,.08,0,.11,0s.07,0,.1,0h.02s.07,0,.11,0c.01,0,.02,0,.03,0,.05,0,.11,0,.16.02.07,0,.13.03.19.05h.02s.05.02.08.03c.04.02.1.04.14.07.02,0,.05.03.08.04.02,0,.04.02.07.03.01,0,.03.02.04.03.03.02.05.03.08.05.08.05.14.1.21.15.02.02.04.04.05.05.28.27.51.62.66,1.03,0,0,.01.02.01.03.01.03.02.05.02.09.02.04.03.09.04.14h.01c.01.07.03.14.04.21,0,.02,0,.04.01.05.02.15.03.3.04.45,0,.11-.01.21-.01.31v.11s0,.07-.01.1c-.01.1-.04.2-.07.3-.02.13-.04.27-.09.39-.38,1.15-1.34,1.92-2.38,1.86h-.11c-.39-.05-.75-.24-1.06-.5-.05-.04-.11-.1-.15-.14-.05-.05-.1-.11-.15-.16-.19-.23-.33-.5-.44-.8-.05-.14-.1-.3-.13-.46-.02-.1-.03-.21-.04-.32,0-.11-.01-.21-.01-.32.02-.13.03-.27.04-.4Zm-13.95,6.31c.04-.71.27-1.28.65-1.68.43-.25.95-.38,1.55-.38.78,0,1.44.35,1.86.89.11.38.15.83.12,1.37-.05,1.07-.63,1.91-1.43,2.22-.27.11-.57.16-.89.13-.16-.02-.33-.05-.47-.11-.9-.33-1.46-1.26-1.39-2.44Zm24.54,5.16c-.13-.04-.28-.22-.48-.54-.16-.26-.33-.5-.5-.72h-.01c-.09-.12-.17-.22-.27-.31-.28-.27-.6-.49-.97-.61-.02,0-.04,0-.07,0-.02,0-.05-.02-.1-.03-.03,0-.07,0-.1-.02-.04,0-.08,0-.11-.02-.25-.04-.52-.04-.83,0-.02,0-.04,0-.07,0-.02,0-.05,0-.08.02-.01,0-.01,0-.02,0h-.01s-.02,0-.02,0c-.02,0-.04,0-.07,0h-.03s-.02,0-.02,0h-.01s-.01,0-.02,0c-.02,0-.05,0-.09.02-.3.07-.59.13-.9.17-.01,0-.02,0-.03,0-.16.02-.32.04-.47.07-.15.02-.3.04-.45.07h-.05s-.01,0-.01,0c-.24.02-.47.05-.71.09-.25.02-.5.07-.75.1-.04,0-.1.02-.14.02-.04,0-.08,0-.12.02-.17.03-.32.27-.47.43.2.05.42.2.6.16.66-.12,1.29-.34,1.95-.46,1.66-.31,3.08-.02,4.13,1.49h0c.23.33.37.58.37.83,0,.03,0,.05-.01.08v.02s.01.02,0,.02v.02s-.02.09-.05.13c-.02.04-.04.09-.08.13h0c-.07.11-.15.2-.27.31-.01,0-.01.02-.03.03-2.29,1.98-4.4,4.22-6.87,5.95-.14.1-.26.2-.38.3-.14.11-.27.23-.39.35-.12.12-.23.24-.34.36h0c-.09.12-.17.22-.26.33h0c-.08.12-.15.23-.23.35h0c-.08.12-.14.23-.21.35h0c-.07.13-.12.25-.17.37h0c-.07.13-.12.26-.16.39-.16.38-.3.8-.43,1.24-.92,3.05-1.83,6.1-3.63,8.79-.21.31-.42.61-.65.91-.32.42-.67.79-1.01,1.17-.2.22-.37.45-.57.66-.15.16-.32.33-.48.49-.15.16-.32.33-.48.48-.26.24-.52.49-.79.73-.16.15-.33.3-.49.43l-.23.2c-.51.44-1.05.85-1.6,1.26-.7.52-1.41,1.01-2.15,1.49-.08.04-.15.09-.23.13-.01,0-.02,0-.03.02-.27.16-.56.33-.84.5-.58.33-1.16.63-1.74.94-.3.15-.59.31-.89.46-.21.11-.42.22-.62.33-.12.07-.27.09-.42.11-.02,0-.03,0-.04,0-.07,0-.12.02-.17.03-.01-.14-.05-.28-.05-.42,0-.04.01-.09.02-.13.24-.69.48-1.39.7-2.09.72-2.22,1.3-4.48,1.67-6.81.08-.49.17-1,.23-1.5.05-.45.12-.89.19-1.33.05-.36.11-.71.16-1.07.2-1.13.4-2.26.61-3.39.05-.33.12-.66.17-1,.03-.21.07-.42.1-.61.21-1.33.37-2.68.67-3.99.2-.89.66-1.72.98-2.57.23-.6.6-.96,1.06-1.09.1-.02.2-.03.3-.04.13,0,.25,0,.38.03.11.02.23.05.34.1.95.37,1.89.89,2.68,1.52,1.06.84,1.96,1.87,2.94,2.8.11.1.33.07.48.1-.01-.03-.01-.08-.02-.12-.02-.11-.03-.22-.09-.31-.12-.2-.22-.39-.33-.59-.28-.55-.58-1.09-.95-1.54h-.01c-.04-.08-.1-.13-.14-.18-.04-.07-.1-.12-.15-.16-.84-.78-1.75-1.5-2.46-2.35-.62-.74-1.09-1.59-1.24-2.69-.01-.11-.14-.21-.21-.31-.35-.48-.5-.97-.5-1.44,0-.59.24-1.15.67-1.65.48-.56.83-1.13,1.04-1.72.24-.72.25-1.49-.08-2.37-.05-.15-.07-.3-.07-.44,0-.2.04-.38.14-.52.04-.07.1-.12.16-.16.04-.04.09-.07.14-.1.01,0,.03,0,.04-.02.05-.02.1-.04.16-.05.01,0,.02,0,.03,0,.01,0,.03,0,.05,0,.01,0,.02,0,.04,0,.02,0,.04,0,.08,0,.07,0,.13-.02.21-.02h.04c.25,0,.51,0,.78,0,.37,0,.75.03,1.12.11.25.05.48.15.7.26.21.12.42.27.59.44.37.34.67.77.86,1.25.05.12.1.24.14.37.04.15.08.31.11.46.04.24.07.48.07.71,0,.12,0,.23-.02.35h0c0,.1-.01.18-.03.27-.01.03-.01.05-.02.09,0,.02-.01.04-.01.07-.02.1-.04.19-.08.27,0,0-.01,0-.01,0h0v.03s-.02.04-.03.07c0,0-.01.02-.01.02-.01.08-.04.14-.08.21-.09.16-.16.33-.25.49-.16.33-.34.65-.54.94-.09.15-.2.3-.3.44-.35.47-.75.87-1.24,1.19-.12.09-.24.15-.37.23-.09.05-.19.1-.3.14-.08.04-.15.08-.24.1-.05.03-.12.05-.19.07-.05.02-.12.03-.19.05-.13.04-.26.08-.4.1-.04,0-.1.04-.14.09-.04.03-.09.09-.13.12.01,0,.03.02.05.02.01,0,.02.02.03.02.05.03.11.07.17.1.08.03.15.05.24.08.11.03.22.07.33.08.01,0,.02,0,.04,0,.13,0,.25.02.38.02.14,0,.3,0,.44-.03h.01s.01,0,.02,0c.04,0,.09-.02.13-.03.25-.04.47-.12.69-.2h.01c.07-.03.14-.07.21-.11.11-.04.22-.11.33-.19.1-.05.19-.12.28-.2l.04-.04h.01c.07-.06.13-.12.19-.19l.04-.04s.03-.03.05-.07c.02-.02.05-.05.08-.09.09-.1.16-.2.23-.31,1.09-1.73,2.1-3.51,3.12-5.28.23-.4.46-.81.69-1.2h-.04s.04-.02.05-.02t-.01.02c.27,0,.54,0,.81,0,.17,0,.35,0,.52,0,.58,0,1.15,0,1.71-.1.96-.19,1.69-.24,2.32-.16.17.02.35.05.5.11.07,0,.12.03.19.07.05.02.11.04.16.07.07.03.13.07.19.1t.01,0s.09.04.12.07c.02.02.04.03.05.04.05.03.11.08.15.11t.02.02s.12.1.18.15c.07.07.12.13.19.2.25.3.5.66.75,1.1.13.24.26.49.4.78,0,0,.01,0,.01.02h.01s.01.03.02.05t.02.02h0s.1.16.1.16l.14.22.35.56c.26.43.55.92.79,1.37.1.2.2.38.26.56.24.39.3.71.12.73Zm1.63-5.5h-.02s-.01,0-.02,0c-.02,0-.05.02-.09.02-.16.04-.33.07-.49.04-.05,0-.12,0-.17-.02-.03,0-.05,0-.09,0-.15-.04-.3-.11-.42-.2-.09-.05-.17-.12-.24-.2-.01,0-.02-.03-.03-.05-.02-.02-.03-.04-.05-.07-.2-.28-.27-.63-.21-1,.01-.11.04-.22.08-.33.11-.34.33-.69.65-.96.03-.02.07-.04.09-.07.11-.09.21-.15.32-.22.11-.05.21-.11.31-.14.02,0,.04,0,.05-.02.04-.02.09-.03.12-.04.02,0,.03,0,.05-.02.05,0,.1,0,.14-.02.02,0,.04,0,.07,0,.04,0,.1-.02.14-.02h.23c.14,0,.27.04.4.09.07.02.12.05.17.08s.11.07.16.11h.01s.04.03.07.07c.03.02.07.04.09.08,0,0,.01,0,.02.02h.01c.07.08.11.15.14.23.02.02.03.05.03.09.01.02.03.05.04.09,0,0,.01,0,.01.02h0c.07.2.09.39.07.6v.02s0,0-.01,0c0,.03-.01.08-.02.11-.02.11-.03.22-.08.33-.12.33-.34.65-.63.91-.17.15-.37.27-.57.36-.05.02-.11.07-.17.09-.07,0-.12.01-.16.02Zm3.38,2.64c-.15.26-.36.5-.63.69-.2.13-.42.23-.62.3-.11.02-.22.02-.33.03-.04,0-.09,0-.13,0-.05,0-.12.02-.17.02-.13,0-.26-.04-.39-.08-.24-.08-.46-.22-.62-.42-.02-.03-.05-.05-.08-.09,0,0-.01,0-.01,0-.02-.03-.02-.05-.04-.09-.12-.21-.17-.43-.17-.66,0-.05,0-.11.01-.16,0-.1.02-.19.04-.28.07-.2.16-.39.3-.58h0s.01-.02.02-.02c.07-.09.14-.17.23-.26.08-.08.17-.15.27-.22.12-.09.24-.12.37-.17.26-.12.52-.19.79-.19h.1c.1,0,.19,0,.27.04.2.04.36.13.51.24.12.09.23.17.32.31.16.24.23.54.22.83-.04.26-.11.52-.26.76Z"/>
    </g>
  </g>
</svg>