<?xml version="1.0" encoding="utf-8"?>
<!-- Generator: Adobe Illustrator 28.6.0, SVG Export Plug-In . SVG Version: 9.03 Build 54939)  -->
<!DOCTYPE svg PUBLIC "-//W3C//DTD SVG 1.1//EN" "http://www.w3.org/Graphics/SVG/1.1/DTD/svg11.dtd" [
	<!ENTITY st0 "fill:#004989;">
	<!ENTITY st1 "fill:#C92922;">
	<!ENTITY st2 "fill:#2C52A0;">
	<!ENTITY st3 "fill:#FFFFFF;">
	<!ENTITY st4 "fill:#020203;">
	<!ENTITY st5 "fill:none;">
	<!ENTITY st6 "fill:#F7B116;">
	<!ENTITY st7 "fill:#FFFFFF;stroke:#FFFFFF;stroke-width:2.7101;stroke-miterlimit:10;">
	<!ENTITY st8 "fill:none;stroke:#000000;stroke-width:0.946;stroke-miterlimit:10;">
	<!ENTITY st9 "fill:none;stroke:#000000;stroke-width:0.8684;stroke-miterlimit:10;">
	<!ENTITY st10 "fill:#FFFFFF;stroke:#FFFFFF;stroke-width:1.3866;stroke-miterlimit:10;">
	<!ENTITY st11 "fill:none;stroke:#000000;stroke-width:0.837;stroke-miterlimit:10;">
]>
<svg version="1.1" id="Capa_1" xmlns="http://www.w3.org/2000/svg" xmlns:xlink="http://www.w3.org/1999/xlink" x="0px" y="0px"
	 viewBox="0 0 289.9 149.4" style="enable-background:new 0 0 289.9 149.4;" xml:space="preserve">
<g>
	<rect style="&st1;" width="289.9" height="149.4"/>
</g>
<g>
	<path style="&st7;" d="M21.9,55.8c0.8,0.5,1.4,0.8,1.8,0.8s1.1-0.4,2.1-1.1s1.4-1.3,1.4-1.8c0-0.4-0.3-0.9-1-1.6
		c-0.7-0.6-2.3-1.6-5-2.9c-2.6-1.3-5.1-2.7-7.3-4.3c-2.2-1.5-3.7-3-4.4-4.5c-0.7-1.5-1-3-1-4.6c0-1.6,0.3-3,0.8-4.2
		c0.5-1.2,2-2.9,4.3-5.2c2.4-2.3,4.5-4,6.4-5.1v-6.7h7v6.9c4.6,2.2,8,5.3,10.2,9.3l-8.8,6.6l-0.6-0.9c-2.3-3.1-4-4.7-5.1-4.7
		c-0.6,0-1.3,0.4-2.3,1.1S19,34.3,19,34.7c0,0.5,0.3,1,1,1.6c0.7,0.6,2.3,1.5,4.8,3c2.6,1.4,5,2.9,7.3,4.4c2.3,1.5,3.8,3,4.5,4.2
		c0.7,1.3,1,3.1,1,5.6c0,2.5-0.4,4.3-1.1,5.4c-0.8,1.1-2.1,2.4-4,4c-1.9,1.6-3.7,2.9-5.5,3.9v6.9h-7v-7c-2-0.7-4.1-2-6.3-3.7
		c-2.2-1.7-3.8-3.6-4.8-5.5l8.8-6.6l0.6,0.9C20,53.9,21.1,55.3,21.9,55.8z"/>
	<path style="&st7;" d="M66.8,69.1c-3.7,3.7-6.5,5.5-8.4,5.5s-4.7-1.8-8.4-5.5c-3.7-3.7-6-6.7-6.9-9c-0.6-1.5-0.9-5.1-0.9-11v-9.9
		c0-5.9,0.3-9.6,0.9-11c0.9-2.3,3.2-5.3,6.9-9c3.7-3.7,6.5-5.5,8.4-5.5s4.7,1.8,8.4,5.5c3.7,3.7,6,6.7,6.9,9c0.6,1.5,0.9,5.1,0.9,11
		v9.9c0,5.9-0.3,9.6-0.9,11C72.8,62.5,70.5,65.4,66.8,69.1z M55.8,60.9c1,1.2,1.9,1.7,2.6,1.7c0.7,0,1.6-0.6,2.6-1.7
		c1-1.2,1.7-2.2,2.1-3.3c0.4-1,0.6-3.9,0.6-8.5v-9.9c0-4.6-0.2-7.4-0.6-8.5c-0.4-1-1.1-2.1-2.1-3.3c-1-1.2-1.9-1.7-2.6-1.7
		c-0.7,0-1.6,0.6-2.6,1.7c-1,1.2-1.7,2.2-2.1,3.3c-0.4,1-0.6,3.9-0.6,8.5v9.9c0,4.6,0.2,7.4,0.6,8.5C54,58.6,54.8,59.7,55.8,60.9z"
		/>
	<path style="&st7;" d="M109,49.9c0.6,1,0.9,3,0.9,6c0,3-0.6,5.6-1.7,7.6c-1,1.6-3.3,3.9-6.6,6.8c-3.4,2.9-5.9,4.3-7.5,4.3
		c-2.9,0-6.1-1.6-9.8-4.8c-3.7-3.2-6-6.8-7-10.7l8.7-6.4c0.8,2.6,2.2,5.1,4,7.3c1.8,2.2,3.1,3.3,3.9,3.3c0.8,0,1.6-0.3,2.4-0.8
		c0.9-0.5,1.5-1.1,2-1.6c0.7-0.9,1-2.3,1-4.2c0-1.9-0.4-3.1-1.2-3.5c-1-1-3.1-2.2-6.1-3.8c-3-1.6-5.8-3.3-8.3-5.1
		c-2.6-1.8-4.2-3.6-4.9-5.4c-0.7-1.7-1.1-4-1.1-6.8s0.6-5.2,1.7-7.3c1-1.6,3.3-3.9,6.6-6.8c3.4-2.9,5.9-4.3,7.5-4.3
		c2.9,0,6.1,1.6,9.8,4.8c3.7,3.2,6,6.8,7,10.7l-8.7,6.5c-0.8-2.6-2.2-5.1-4-7.3c-1.8-2.2-3.1-3.3-3.9-3.3c-0.8,0-1.6,0.3-2.5,0.8
		c-0.9,0.5-1.6,1.1-2.1,1.9s-0.8,2.1-0.8,3.9c0,1.8,0.5,3,1.6,3.7c0.8,0.8,2.7,2,5.7,3.7C103.2,43.4,107.6,47.1,109,49.9z"/>
	<path style="&st7;" d="M122.5,19.1c3.7-3.7,6.5-5.5,8.4-5.5c1.9,0,4.7,1.8,8.4,5.5c3.7,3.7,6,6.7,6.9,9c0.6,1.6,0.9,5.3,0.9,11
		v34.5h-10.8V61h-10.8v12.6h-10.8V39.2c0-5.7,0.3-9.4,0.9-11C116.5,25.7,118.8,22.7,122.5,19.1z M125.6,39.2v11.7h10.8V39.2
		c0-4.6-0.2-7.4-0.6-8.5c-0.4-1-1.1-2.1-2.1-3.3c-1-1.2-1.9-1.7-2.6-1.7c-0.7,0-1.6,0.6-2.6,1.7c-1,1.2-1.7,2.2-2.1,3.3
		C125.8,31.7,125.6,34.5,125.6,39.2z"/>
	<path style="&st7;" d="M166.3,31.6v4.9h2.3c0.9,0,1.8-0.5,2.8-1.6c1-1,1.7-2,2.2-3c0.5-0.9,1-3.6,1.5-8c0.5-4.4,0.8-7.5,0.8-9.4
		h10.8c0,2.2-0.3,5.6-0.9,10.3c-0.6,4.7-1.1,7.5-1.6,8.6c-0.8,1.9-2.8,4.4-5.9,7.5c3.7,3.4,6.1,6.3,7.2,8.7
		c0.5,1.2,1.1,4.7,1.6,10.7c0.5,5.9,0.8,10.4,0.8,13.3h-10.8c0-2.6-0.2-6.8-0.7-12.4c-0.5-5.6-1-8.9-1.4-9.8
		c-1.6-3.1-3.5-4.7-5.7-4.7h-3v27h-10.8V36.7c0-4.6-0.3-7.7-0.9-9.5c-0.6-1.8-1.9-3.9-3.8-6.5l9.4-7.1c1.7,1.2,3.1,3.4,4.3,6.5
		C165.7,23.3,166.3,27.2,166.3,31.6z"/>
</g>
<g>
	<path style="&st3;" d="M22.9,133.9c-0.9,3.6-2.8,5.3-6,5.3c-4.5,0-6.8-2.7-6.8-8.1c0-5,2.5-8.1,6.6-8.1c3.3,0,5.4,1.8,6,5l-3.8,0.9
		c-0.2-2.2-1-3.2-2.4-3.2c-1.6,0-2.6,1.9-2.6,5.3c0,3.3,1.1,5.6,2.7,5.6c1.4,0,2.1-0.9,2.4-3.1L22.9,133.9z"/>
	<path style="&st3;" d="M37.8,123.1v10.1c0,4.1-2.6,5.9-6.4,5.9c-3.7,0-6.4-1.8-6.4-5.9v-10.1h3.7v10c0,2.4,1.1,3.4,2.6,3.4
		s2.6-1,2.6-3.4v-10H37.8z"/>
	<path style="&st3;" d="M50.8,136.1v2.8H41v-15.8h3.7v12.9H50.8z"/>
	<path style="&st3;" d="M62.7,126.1h-4.2v12.8h-3.6v-12.8h-4.2v-2.9h12.1V126.1z"/>
	<path style="&st3;" d="M82,131c0,5.7-2.8,8.1-6.7,8.1s-6.7-2.4-6.7-8.1c0-5.7,2.8-8.1,6.7-8.1S82,125.4,82,131z M78.1,131
		c0-4-1-5.5-2.8-5.5c-1.8,0-2.8,1.5-2.8,5.5c0,4,1,5.5,2.8,5.5C77.1,136.5,78.1,135,78.1,131z"/>
	<path style="&st3;" d="M88.1,125.9v4.1h5.3v2.6h-5.3v6.3h-3.6v-15.8h9.5v2.7H88.1z"/>
	<path style="&st3;" d="M111.5,126.1h-4.2v12.8h-3.6v-12.8h-4.2v-2.9h12.1V126.1z"/>
	<path style="&st3;" d="M126.3,123.1v15.8h-3.7v-6.6h-5.3v6.6h-3.7v-15.8h3.7v6.3h5.3v-6.3H126.3z"/>
	<path style="&st3;" d="M139.2,136.2v2.7h-9.7v-15.8h9.5v2.7h-5.8v3.7h5.3v2.6h-5.3v3.9H139.2z"/>
	<path style="&st3;" d="M153.6,130.8c2,0.1,3.8,1,3.8,3.5c0,3.2-2.4,4.6-5.8,4.6H146v-15.8h5.3c3.2,0,5.4,1.2,5.4,4
		c0,2-1.2,3.1-3.1,3.5V130.8z M149.6,125.8v3.9h1.3c1.2,0,2.1-0.6,2.1-2c0-1.4-0.9-1.9-2.1-1.9H149.6z M151.5,136.2
		c1.4,0,2.2-0.5,2.2-2c0-1.3-0.9-1.9-2.2-1.9h-2v3.9H151.5z"/>
	<path style="&st3;" d="M169.4,136.1v2.8h-9.8v-15.8h3.7v12.9H169.4z"/>
	<path style="&st3;" d="M183.8,138.9h-3.7l-0.9-3.7h-4.8l-0.9,3.7H170l4-15.8h5.8L183.8,138.9z M177.3,127.4
		c-0.2-0.7-0.3-1.4-0.4-2.2h-0.1c-0.1,0.7-0.3,1.5-0.5,2.2l-1.2,5h3.5L177.3,127.4z"/>
	<path style="&st3;" d="M197.5,133.9c-0.9,3.6-2.8,5.3-6,5.3c-4.5,0-6.8-2.7-6.8-8.1c0-5,2.5-8.1,6.6-8.1c3.3,0,5.4,1.8,6,5
		l-3.8,0.9c-0.2-2.2-1-3.2-2.4-3.2c-1.6,0-2.6,1.9-2.6,5.3c0,3.3,1.1,5.6,2.7,5.6c1.4,0,2.1-0.9,2.4-3.1L197.5,133.9z"/>
	<path style="&st3;" d="M203.3,127.4c0,0.9-0.1,1.7-0.1,2.6h0.1c0.5-0.9,1.1-1.8,1.7-2.6l3.4-4.2h4.6l-5.9,6.6l5.9,9.2h-4.5
		l-3.9-6.6l-1.2,1.3v5.3h-3.7v-15.8h3.7V127.4z"/>
	<path style="&st3;" d="M222,133.7c0.3,1.8,1.1,2.8,2.8,2.8c1,0,1.7-0.5,1.7-1.5c0-1.1-0.7-1.6-3.2-2.4c-2.9-1-4.4-2.4-4.4-4.8
		c0-3,2.1-4.8,5.3-4.8c3.2,0,5.2,1.6,5.7,4.6l-3.6,0.7c-0.1-1.9-0.9-2.9-2.2-2.9c-1,0-1.6,0.6-1.6,1.6c0,1.1,0.7,1.6,3,2.4
		c3.4,1.1,4.8,2.3,4.8,4.9c0,2.9-2.1,4.8-5.7,4.8c-3.7,0-5.8-1.7-6.3-5L222,133.7z"/>
	<path style="&st3;" d="M245.2,123.1v15.8h-3.7v-6.6h-5.3v6.6h-3.7v-15.8h3.7v6.3h5.3v-6.3H245.2z"/>
	<path style="&st3;" d="M252.2,138.9h-3.7v-15.8h3.7V138.9z"/>
	<path style="&st3;" d="M263,130.8c2,0.1,3.8,1,3.8,3.5c0,3.2-2.4,4.6-5.8,4.6h-5.6v-15.8h5.3c3.2,0,5.4,1.2,5.4,4
		c0,2-1.2,3.1-3.1,3.5V130.8z M259,125.8v3.9h1.3c1.2,0,2.1-0.6,2.1-2c0-1.4-0.9-1.9-2.1-1.9H259z M261,136.2c1.4,0,2.2-0.5,2.2-2
		c0-1.3-0.9-1.9-2.2-1.9h-2v3.9H261z"/>
	<path style="&st3;" d="M281.5,138.9h-3.7l-0.9-3.7H272l-0.9,3.7h-3.5l4-15.8h5.8L281.5,138.9z M274.9,127.4
		c-0.2-0.7-0.3-1.4-0.4-2.2h-0.1c-0.1,0.7-0.3,1.5-0.5,2.2l-1.2,5h3.5L274.9,127.4z"/>
</g>
<g>
	<g>
		<path style="&st3;" d="M24.3,111.7c0,5.7-2.8,8.1-6.7,8.1c-3.9,0-6.7-2.4-6.7-8.1c0-5.7,2.8-8.1,6.7-8.1
			C21.5,103.6,24.3,106,24.3,111.7z M20.3,111.7c0-4-1-5.5-2.8-5.5s-2.8,1.5-2.8,5.5c0,4,1,5.5,2.8,5.5S20.3,115.7,20.3,111.7z"/>
		<path style="&st3;" d="M29.4,114.3c0.3,1.8,1.1,2.8,2.8,2.8c1,0,1.7-0.5,1.7-1.5c0-1.1-0.7-1.6-3.2-2.4c-2.9-1-4.3-2.4-4.3-4.8
			c0-3,2.1-4.8,5.3-4.8c3.2,0,5.2,1.6,5.7,4.6l-3.6,0.7c-0.1-1.9-0.9-2.9-2.2-2.9c-1,0-1.6,0.6-1.6,1.6c0,1.1,0.7,1.6,3,2.4
			c3.4,1.1,4.8,2.3,4.8,4.9c0,2.9-2.1,4.8-5.7,4.8c-3.7,0-5.8-1.7-6.3-5L29.4,114.3z"/>
		<path style="&st3;" d="M52.3,119.6h-3.7l-0.9-3.7h-4.8l-0.9,3.7h-3.5l4-15.8h5.8L52.3,119.6z M45.7,108c-0.2-0.7-0.3-1.4-0.4-2.2
			h-0.1c-0.1,0.7-0.3,1.5-0.5,2.2l-1.2,5H47L45.7,108z"/>
		<path style="&st3;" d="M57.8,108c0,0.9-0.1,1.7-0.1,2.6h0.1c0.5-0.9,1.1-1.8,1.7-2.6l3.4-4.2h4.6l-5.9,6.6l5.9,9.2h-4.5L59,113
			l-1.2,1.3v5.3h-3.7v-15.8h3.7V108z"/>
		<path style="&st3;" d="M81,119.6h-3.7l-0.9-3.7h-4.8l-0.9,3.7h-3.5l4-15.8H77L81,119.6z M74.5,108c-0.2-0.7-0.3-1.4-0.4-2.2h-0.1
			c-0.1,0.7-0.3,1.5-0.5,2.2l-1.2,5h3.5L74.5,108z"/>
		<path style="&st3;" d="M86.3,117.6c0,1.1-1,2.2-2.1,2.2c-1.2,0-2.1-1-2.1-2.2c0-1.2,0.9-2.1,2.1-2.1
			C85.4,115.5,86.3,116.5,86.3,117.6z"/>
		<path style="&st3;" d="M96.7,108.3c-0.1,1.2-0.6,4.5-0.8,5.7l-1,5.5h-5.3l-3.1-15.8h3.8l1.6,8.1c0.3,1.8,0.5,3.1,0.6,4.5h0.2
			c0.1-1.4,0.4-2.6,0.7-4.5l1.7-8.1h3.6l1.8,8.1c0.4,1.8,0.6,3.3,0.7,4.5h0.2c0.1-1.2,0.2-2.7,0.5-4.5l1.4-8.1h3.8l-3.1,15.8h-5.1
			l-1.1-5.6c-0.2-1.1-0.8-4.4-0.9-5.6H96.7z"/>
		<path style="&st3;" d="M112.9,119.6h-3.7v-15.8h3.7V119.6z"/>
		<path style="&st3;" d="M128.7,103.8v15.8h-5.3l-3.4-9.4c-0.4-1.1-0.7-2.1-0.9-3.2H119c0.3,2.6,0.4,6.2,0.4,8.4v4.2h-3.3v-15.8h5.3
			l3.4,9.4c0.4,1.1,0.7,2.1,0.9,3.2h0.2c-0.3-2.6-0.4-5.4-0.4-8v-4.6H128.7z"/>
	</g>
</g>
<g>
	<path style="&st3;" d="M232.5,75.7c0.2,0.1,0.5,0.2,0.8,0.3C233,75.9,232.8,75.8,232.5,75.7"/>
	<g>
		<path style="&st3;" d="M273.2,69.3c0.2-0.2,0.3-0.3,0.5-0.5c0,0,0.1-0.1,0.1-0.2C273.6,68.8,273.4,69,273.2,69.3z"/>
		<path style="&st3;" d="M232.5,75.7c0.3,0.1,0.5,0.2,0.8,0.3C233,75.8,232.8,75.8,232.5,75.7z"/>
		<path style="&st3;" d="M280.5,27.6c0.7-2.7,1.3-5.4,1.2-8.2c-0.1-1.8-0.5-3.5-1.8-4.6c-0.4-0.4-1-0.7-1.6-0.9
			c-0.2-0.1-0.4-0.1-0.6-0.2c-0.1,0-0.1,0-0.2,0c-0.1,0-0.3-0.1-0.4-0.1c-0.1,0-0.1,0-0.2,0c-0.1,0-0.2,0-0.4,0c-0.1,0-0.2,0-0.2,0
			c-0.1,0-0.2,0-0.3,0h-0.2c-0.3,0-0.6,0-0.9,0.1c0,0-0.1,0-0.1,0c-0.3,0-0.6,0.1-0.9,0.2c-0.5,0.1-1,0.3-1.4,0.5
			c-3,1.2-5.2,3.4-7.2,5.7l0,0c-0.1,0.1-0.1,0.1-0.2,0.2c0,0,0,0-0.1,0.1c0,0-0.1,0.1-0.1,0.1c0,0,0,0-0.1,0c0,0-0.1,0-0.1,0.1
			c0,0-0.1,0-0.1,0c0,0-0.1,0-0.1,0c0,0-0.1,0-0.1,0s-0.1,0-0.1,0c0,0-0.1,0-0.1,0c0,0-0.1,0-0.1,0c0,0-0.1,0-0.1,0c0,0-0.1,0-0.1,0
			l0,0c-0.1,0-0.1-0.1-0.2-0.1c-1.8-0.9-3.5-1.9-5.3-2.7c-2.8-1.2-5.7-1.7-8.7-1.8c-1,0-2,0-3,0c-1,0.1-2,0.2-3,0.4
			c-3.2,0.5-6.2,1.5-9,3.1c-0.1,0-0.1,0.1-0.2,0.1c0,0-0.1,0-0.1,0c0,0-0.1,0-0.1,0c0,0,0,0-0.1,0c-0.1,0-0.2,0-0.2,0
			c0,0-0.1,0-0.1,0c-0.1,0-0.2-0.1-0.3-0.1c-1.1-0.9-2.2-1.8-3.3-2.7c-0.4-0.3-0.7-0.6-1.1-0.8l-0.7-0.4c-0.1,0-0.1-0.1-0.2-0.1
			c-0.2-0.1-0.3-0.2-0.5-0.3c-0.1,0-0.2-0.1-0.3-0.1c-0.1-0.1-0.3-0.2-0.4-0.2c-0.1,0-0.2-0.1-0.3-0.1c-0.1-0.1-0.3-0.1-0.4-0.2
			c-0.1,0-0.2-0.1-0.3-0.1c-0.1,0-0.3-0.1-0.4-0.1c-0.1,0-0.2-0.1-0.3-0.1c-0.1,0-0.3-0.1-0.4-0.1c-0.1,0-0.2,0-0.4-0.1
			c-0.1,0-0.3,0-0.4-0.1c-0.1,0-0.2,0-0.4,0s-0.2,0-0.4,0h-0.2c-0.1,0-0.2,0-0.4,0c-3.7,0.3-5.7,2.4-5.8,6.1c0,0.3,0,0.6,0,1
			c0,1.7,0.2,3.4,0.6,5.1c0.9,3.7,1.7,7.4,2.5,11.2c0.1,0.3,0.1,0.6,0.2,0.9s0.2,0.6,0.3,0.9c0.1,0.4,0.2,0.9,0.1,1.4
			c0,0.2-0.1,0.3-0.1,0.5c-0.3,0.9-0.5,1.9-0.7,2.8c-0.1,0.7-0.1,1.4-0.1,2.1c0,0.3,0,0.5,0,0.8c0,1,0,2,0,3.1
			c0,0.7,0.1,1.4,0.1,2.1c0,0.2,0,0.5-0.1,0.7c0,0.1,0,0.2-0.1,0.2c-0.1,0.3-0.2,0.5-0.3,0.8c-0.1,0.3-0.1,0.5-0.2,0.8c0,0,0,0,0,0
			c-0.1,0.4-1.9,5.7,1.1,11c0,0,0,0.1,0.1,0.1c0.3,0.7,0.7,1.4,1.1,2c1.2,1.9,2.7,3.6,4.5,5.1c1.7,1.4,3.6,2.4,5.6,3.2l0,0
			c0.1,0,0.3,0.1,0.7,0.3c0.1,0,0.2,0.1,0.3,0.1c0.2,0.1,0.5,0.2,0.8,0.3c0.2,0,0.3,0.1,0.5,0.2c0.1,0,0.3,0.1,0.4,0.1
			c2,0.6,4.9,1.4,8.1,1.8c1.1,0.1,2.2,0.2,3.4,0.3c1.6,0.1,3.2,0,4.9-0.2c0.1,0,0.2,0,0.3,0c0.2,0,0.9-0.2,1.1-0.2
			c0.3,0,0.6-0.1,0.8-0.1c3.9-0.5,7.2-1.4,9.7-2.2c4.6-1.6,7.1-3.3,7.4-3.4c0,0,0,0,0,0c0.6-0.4,1.2-0.9,1.8-1.4
			c0.4-0.4,0.8-0.8,1.2-1.2c0.1-0.1,0.2-0.2,0.2-0.3c0.2-0.2,0.4-0.5,0.6-0.7c0.2-0.2,0.4-0.5,0.6-0.7c0,0,0-0.1,0.1-0.1
			c1.6-2.1,1.9-3.3,1.9-3.3c0-0.1,0.1-0.1,0.1-0.2c0-0.1,0-0.1,0.1-0.2c0.1-0.2,0.1-0.4,0.2-0.5c0.1-0.2,0.1-0.4,0.2-0.6
			c0.1-0.2,0.1-0.4,0.2-0.6c0.1-0.2,0.1-0.4,0.2-0.7c0-0.2,0.1-0.4,0.1-0.6c0-0.2,0.1-0.5,0.1-0.7c0-0.1,0-0.2,0-0.3
			c0-0.1,0-0.2,0-0.3c0-0.2,0-0.5,0.1-0.8c0-0.2,0-0.3,0-0.5c0-0.3,0-0.6,0-0.9v-0.4c0-0.3-0.1-0.7-0.1-1c0-0.1,0-0.2,0-0.3
			c-0.1-0.4-0.1-0.9-0.2-1.3c-0.3-1.5-0.6-3.2-0.3-4.7c0.5-2.5,0-4.9-0.2-7.3c-0.1-1.2-0.3-2.3,0.1-3.5
			C278.2,35.4,279.4,31.5,280.5,27.6L280.5,27.6z M220.9,25.9c-0.1-0.4-0.1-0.8-0.2-1.2c0-0.1,0-0.3-0.1-0.4
			c-0.6-4.1-0.1-5.8,0.1-6.3c0-0.1,0.1-0.1,0.1-0.1c0.6-1.2,1.5-1.5,2.9-1.3c0.3,0,0.5,0.1,0.8,0.1c1.9,0.5,3.5,1.7,5,3
			c0.5,0.4,1,0.8,1.5,1.3c0.3,0.3,0.4,0.8-0.1,1.1c-1.8,1.2-3.3,2.8-4.7,4.5c-0.4,0.4-0.5,0.5-0.7,0.1c0,0,0-0.1-0.1-0.2
			c-0.2-0.6-0.4-1.1-0.6-1.7c-0.3-0.8-0.8-1.1-1.7-1.1c-0.9,0-1.2,0.4-1.1,1.2c0.2,1.1,0.5,2.3,0.7,3.4c0.2,1.1,0.5,2.2,0.7,3.4
			c0,0.3,0,0.6,0,0.8c-0.1,0.3-0.3,0.5-0.5,0.8c-0.2-0.2-0.5-0.5-0.5-0.7C221.8,30.2,221.3,28.1,220.9,25.9z M273.4,61.9
			c-0.6,2.7-2.2,4.9-4.1,6.7c-1.6,1.5-3.6,2.6-5.6,3.6c-0.7,0.4-1.4,0.7-2.1,1c-1.9,0.8-3.9,1.4-6,1.8c-2.7,0.5-4.3,1-8.1,1.1
			c-4.2-0.2-8.2-1-12-2.4c-2.3-0.9-4.5-2-6.6-3.5c-3.5-2.3-5.8-5.5-6.5-9.6c-0.4-2.6-0.5-5.3,1.1-7.7c0.2-0.3,0.2-0.8,0.2-1.2
			c-0.1-2.1-0.4-4.3-0.2-6.4c0.4-3.2,1.4-6.2,3.2-9c0.1-0.2,0.3-0.4,0.4-0.6c1.6-2.3,3.6-4.1,5.8-5.7c1.1-0.8,2.2-0.1,3.2,0.2
			c0.9,0.3,1.9,0.8,2.6,1.4c0.8,0.6,1.7,1.4,2.2,2.3c1.1,2.1,2.1,4.2,3.1,6.3c0.2,0.4,0.2,0.8,0.5,1.1c0.5,0.7,0.9,1.6,2.1,1.5
			c1.5-0.1,3.1,0.1,4.6-0.1c0.9-0.1,1.3-1,1.5-1.8c0.3-0.9,0.4-1.9,0.8-2.7c1.4-3.1,3.4-5.7,6.3-7.4c0.7-0.4,1.5-0.8,2.2-0.9
			c1.1-0.3,2.1,0.3,2.9,1c1.8,1.5,3.4,3.1,4.7,5c0.1,0.2,0.3,0.4,0.4,0.6c1.2,2.1,2.3,4.3,2.5,6.8c0.2,1.8,0.4,3.6,0.5,5.4
			c0.1,1.1-0.2,2.1-0.2,3.2c0,0.5-0.1,1,0,1.5c0.2,1.1,0.5,2.2,0.8,3.3C274.3,58.5,273.8,60.2,273.4,61.9z M276.5,30.1
			c-0.4,1.6-0.9,3.2-1.3,4.8c0,0.1-0.2,0.2-0.4,0.3c-0.2-0.7-0.7-1.4-0.6-2c0.4-2.3,1.1-4.5,1.7-6.8c0.1-0.3,0.2-0.6,0.2-1
			c0-0.1,0.2-0.9-0.3-1.2c-0.8-0.6-1.5,0-1.9,0.4c-0.6,0.5-0.8,1.4-1.1,2.2c-0.1,0.3-0.2,0.6-0.3,0.9c-0.3,0.6-0.5,0.5-0.9,0.1
			c0,0-0.1-0.1-0.1-0.1c-1.4-1.6-2.8-3.1-4.3-4.6c-0.3-0.3-0.4-0.4-0.1-0.7c1.9-2,3.9-3.8,6.4-5.1c0.4-0.2,0.8-0.4,1.2-0.6
			c1.2-0.5,2.6-0.1,3.3,1.1c0,0,0,0.1,0,0.1c0,0.1,0.1,0.1,0.1,0.2c0,0,0,0.1,0.1,0.1c0.3,0.9,0.3,2.4,0.1,4
			C277.7,25.9,276.5,30.1,276.5,30.1L276.5,30.1z"/>
		<path style="&st3;" d="M256.8,62.3c-0.1-0.1-0.4,0.3-0.7,0.4c-0.4,0.2-0.7,0.5-1.1,0.7c-2.5,0.9-4.5-0.1-6-1.9
			c-0.8-0.9-1-0.5-1.5,0c-1.6,1.7-3.6,2.4-5.9,2.1c-0.8-0.1-1.5-0.3-2-1c-0.1-0.2-0.4-0.4-0.6-0.4c-0.2,0.1-0.5,0.3-0.5,0.6
			c-0.1,0.5,0,0.8,0.6,1.1c1.1,0.5,2.2,1,3.4,0.8c0.6-0.1,0.8,0.1,0.9,0.7c0.2,0.9,0.5,1.8,0.8,2.8c0.6,1.8,2.2,3,3.7,3
			c1.7,0.1,2.8-0.4,3.6-1.5c0.8-1.2,1.3-2.6,1.5-4.1c0.1-0.7,0.3-0.8,1-0.9c1.1-0.2,2.2-0.6,3.3-1c0.2-0.1,0.6-0.6,0.5-0.7
			C257.5,62.8,257.1,62.5,256.8,62.3L256.8,62.3z M250.3,69.6c0,0.1-0.1,0.1-0.1,0.2c0,0-0.1,0.1-0.1,0.1c0,0-0.1,0.1-0.1,0.1
			c-0.1,0-0.1,0.1-0.2,0.1c-0.4,0.2-0.9,0.4-1.6,0.4c-1.5,0-2.9-1-2.9-2.1c0-0.1,0-0.2,0.1-0.3c0.1-0.2,0.3-0.4,0.6-0.7
			c0.1-0.1,0.2-0.2,0.4-0.3c0.6-0.5,1.3-0.8,1.7-0.8c0.9,0,2.5,1.4,2.6,2.3C250.6,69,250.5,69.3,250.3,69.6L250.3,69.6z"/>
		<path style="&st3;" d="M240.9,52.7c0,0.7-0.5,0.8-1,0.5c-1-0.6-1.8-1.3-2.2-2.5c-0.3-1-1-1.8-1.6-2.6c-0.6-0.7-1.2-0.7-1.7,0.1
			c-0.7,1.1-1.2,2.2-1.7,3.4c-0.3,0.7,0,0.9,0.9,0.7c0.4-0.1,0.8-0.2,1.2-0.1c0.3,0,0.9,0.1,0.9,0.4c0,0.3-0.6,0.3-0.9,0.3
			c-0.8,0.2-1.7,0.3-2.6,0.5c-0.6,0.2-1.1,0.5-1.6,0.8c-0.4,0.2-0.6,0.2-0.6-0.3c0-3.3,0.5-6.5,2.9-9c0.7-0.7,1.5-0.9,2.5-1
			c1.3,0,3.1,1.2,3.9,3.3c0.6,1.5,1,3,1.4,4.6C241,52.1,240.9,52.4,240.9,52.7z"/>
		<path style="&st3;" d="M265.5,53.7c-0.2,0.3-0.7,0.6-0.9,0.5c-1.3-0.8-2.7-1.1-4.1-1.2c-0.3,0-0.5-0.2-0.8-0.3
			c-0.1,0-0.2-0.1-0.3-0.1c0.1-0.1,0.2-0.2,0.4-0.2c0.8-0.1,1.6-0.3,2.3-0.1c0.8,0.2,1-0.1,0.8-0.7c-0.4-1.2-1-2.4-1.6-3.5
			c-0.4-0.7-1.1-0.8-1.6-0.2c-0.7,0.9-1.4,1.9-1.8,2.9c-0.5,1.2-1.4,1.9-2.5,2.4c-0.1,0-0.5-0.2-0.5-0.4c0.3-2.6,1-5.2,2.6-7.3
			c2.1-2.6,4.8-2,6.2,0.7c1.1,2,1.6,4.2,1.8,6.3C265.6,53.1,265.7,53.5,265.5,53.7z"/>
		<path style="&st3;" d="M251.3,56.5c0,0.4-0.6,0.8-1.1,1c-0.5,0.2-1.2,0.1-1.9,0.2c-0.5,0-1.2,0-1.8-0.2c-0.4-0.1-0.9-0.5-1-0.8
			c-0.1-0.4,0.2-0.9,0.5-1.2c0.9-0.8,3.5-1,4.5-0.3C250.9,55.4,251.4,56,251.3,56.5z"/>
		<path style="&st3;" d="M238.9,41.2c0,0.1-0.3,0.5-0.4,0.5c-0.3,0-0.6-0.2-0.9-0.3c-1.4-0.6-2.8-0.8-4.1,0.3
			c-0.2,0.2-0.5,0.1-0.8,0.2c0.1-0.3,0-0.6,0.2-0.8c0.8-1.1,1.7-2.1,3.2-2C236.9,38.9,238.8,40.4,238.9,41.2z"/>
		<path style="&st3;" d="M264.2,42c-0.4-0.1-0.6-0.1-0.8-0.2c-1.1-0.8-2.3-1.2-3.7-0.9c-0.6,0.1-1.1,0.5-1.6,0.7
			c-0.1,0.1-0.3,0-0.5,0.1c0-0.2-0.1-0.4,0-0.5c0.8-2.1,3.6-2.7,5.2-1.1c0.4,0.4,0.8,0.9,1.1,1.4C264,41.5,264.1,41.6,264.2,42z"/>
	</g>
</g>
</svg>
