<?xml version="1.0" encoding="utf-8"?>
<!-- Generator: Adobe Illustrator 28.6.0, SVG Export Plug-In . SVG Version: 9.03 Build 54939)  -->
<!DOCTYPE svg PUBLIC "-//W3C//DTD SVG 1.1//EN" "http://www.w3.org/Graphics/SVG/1.1/DTD/svg11.dtd" [
	<!ENTITY st0 "fill:#004989;">
	<!ENTITY st1 "fill:#C92922;">
	<!ENTITY st2 "fill:#2C52A0;">
	<!ENTITY st3 "fill:#FFFFFF;">
	<!ENTITY st4 "fill:#020203;">
	<!ENTITY st5 "fill:none;">
	<!ENTITY st6 "fill:#F7B116;">
	<!ENTITY st7 "fill:#FFFFFF;stroke:#FFFFFF;stroke-width:2.7101;stroke-miterlimit:10;">
	<!ENTITY st8 "fill:none;stroke:#000000;stroke-width:0.946;stroke-miterlimit:10;">
	<!ENTITY st9 "fill:none;stroke:#000000;stroke-width:0.8684;stroke-miterlimit:10;">
	<!ENTITY st10 "fill:#FFFFFF;stroke:#FFFFFF;stroke-width:1.3866;stroke-miterlimit:10;">
	<!ENTITY st11 "fill:none;stroke:#000000;stroke-width:0.837;stroke-miterlimit:10;">
]>
<svg version="1.1" id="Capa_1" xmlns="http://www.w3.org/2000/svg" xmlns:xlink="http://www.w3.org/1999/xlink" x="0px" y="0px"
	 viewBox="0 0 170.6 298.4" style="enable-background:new 0 0 170.6 298.4;" xml:space="preserve">
<g>
	<g>
		<rect x="8.5" y="8.5" style="&st6;" width="153.6" height="281.4"/>
		<path style="&st3;" d="M162.1,8.5v281.4H8.5V8.5H162.1 M170.6,0h-8.5H8.5H0v8.5v281.4v8.5h8.5h153.6h8.5v-8.5V8.5V0L170.6,0z"/>
	</g>
	<g>
		<g>
			<g>
				<g>
					<g>
						<g>
							<path style="&st3;" d="M38.3,29.8c0.2,0,0.4,0,0.6,0c0.2,0,0.4,0,0.7,0c0.3,0,0.5,0.1,0.8,0.1c0.2,0,0.4,0.1,0.6,0.1
								c0.3,0.1,0.5,0.1,0.8,0.2c0.2,0.1,0.4,0.1,0.6,0.2c0.3,0.1,0.5,0.2,0.8,0.3c0.2,0.1,0.4,0.1,0.6,0.2c0.3,0.1,0.5,0.2,0.8,0.3
								c0.2,0.1,0.4,0.1,0.5,0.2c0.3,0.1,0.5,0.3,0.8,0.4c0.1,0.1,0.3,0.2,0.5,0.3c0.3,0.2,0.6,0.3,0.9,0.5c0.1,0.1,0.2,0.1,0.3,0.2
								c0.4,0.3,0.8,0.5,1.2,0.8c0.7,0.5,1.4,1,2.1,1.5c2,1.6,3.9,3.3,6,4.8c0.1,0.1,0.3,0.2,0.5,0.2c0.1,0,0.1,0,0.2,0
								c0.1,0,0.3,0.1,0.4,0.1c0,0,0.1,0,0.1,0c0.1,0,0.1,0,0.2,0c0,0,0.1,0,0.1,0c0.1,0,0.3-0.1,0.4-0.1c5.1-2.9,10.5-4.8,16.2-5.7
								c1.8-0.3,3.6-0.5,5.5-0.7c1.8,0,3.6,0,5.5,0c5.4,0.3,10.7,1.2,15.7,3.3c3.3,1.4,6.5,3.2,9.6,4.9c0.1,0.1,0.3,0.1,0.4,0.2v0
								c0.1,0,0.1,0,0.2,0.1c0.1,0,0.1,0.1,0.2,0.1c0,0,0.1,0,0.2,0.1c0.1,0,0.1,0,0.2,0.1c0.1,0,0.1,0,0.2,0c0.1,0,0.1,0,0.2,0
								c0.1,0,0.1,0,0.2,0c0,0,0.1,0,0.1,0c0.1,0,0.2-0.1,0.2-0.1c0,0,0.1,0,0.1-0.1c0.1,0,0.2-0.1,0.3-0.2c0,0,0.1-0.1,0.1-0.1
								c0.1-0.1,0.2-0.2,0.4-0.3l0.1-0.1c3.8-4.1,7.7-8.1,13.1-10.3c0.9-0.4,1.7-0.6,2.6-0.9c0.5-0.1,1.1-0.3,1.6-0.3
								c0.1,0,0.1,0,0.2,0c0.5-0.1,1-0.1,1.5-0.1h0.3c0.2,0,0.4,0,0.6,0c0.1,0,0.3,0,0.4,0c0.2,0,0.4,0.1,0.6,0.1
								c0.1,0,0.3,0,0.4,0.1c0.2,0,0.5,0.1,0.7,0.2c0.1,0,0.2,0,0.4,0.1c0.3,0.1,0.7,0.2,1,0.3c1.1,0.4,2.1,1,2.9,1.7
								c2.3,2,3.1,5,3.3,8.3c0.2,5-0.9,10-2.1,14.8c-1.9,7.1-4.2,14.1-6.5,21.1c-0.7,2.2-0.4,4.1-0.2,6.3c0.3,4.4,1.2,8.8,0.4,13.3
								c-0.5,2.7-0.1,5.8,0.5,8.5c0.2,0.8,0.3,1.6,0.4,2.4c0,0.2,0,0.4,0,0.5c0.1,0.6,0.1,1.2,0.2,1.8v0.7c0,0.5,0,1,0,1.5
								c0,0.3,0,0.6-0.1,0.9c0,0.5-0.1,0.9-0.1,1.4c0,0.2,0,0.3-0.1,0.5c0,0.2,0,0.3-0.1,0.5c-0.1,0.4-0.1,0.8-0.2,1.3
								c-0.1,0.4-0.1,0.7-0.2,1c-0.1,0.4-0.2,0.8-0.3,1.2c-0.1,0.4-0.2,0.7-0.3,1c-0.1,0.4-0.3,0.8-0.4,1.2c-0.1,0.3-0.3,0.7-0.4,1
								c0,0.1-0.1,0.2-0.1,0.3s-0.1,0.2-0.1,0.4c0,0-0.5,2.2-3.4,6c0,0-0.1,0.1-0.1,0.1c-0.3,0.4-0.6,0.8-1,1.2v0
								c-0.1,0.1-0.2,0.3-0.2,0.3c-0.3,0.3-0.6,0.6-0.9,0.9c-0.1,0.1-0.3,0.3-0.4,0.5c-0.7,0.8-1.4,1.5-2.2,2.2
								c-1.1,0.9-2.2,1.7-3.3,2.5c0,0,0,0,0,0c-0.4,0.3-4.9,3.4-13.3,6.2c-4.7,1.6-10.6,3.1-17.6,4.1c-0.4,0.1-0.9,0.2-1.4,0.2
								c-0.4,0-1.6,0.3-2,0.3c-0.2,0-0.4,0-0.5,0c-2.1,0.3-4.2,0.4-6.3,0.4c-0.8,0-1.7,0-2.5-0.1c-2.1-0.1-4.1-0.3-6.1-0.5
								c-5.9-0.8-11.1-2.1-14.7-3.2c-0.3-0.1-0.5-0.2-0.8-0.2c-0.3-0.1-0.6-0.2-0.9-0.3c-0.5-0.2-1-0.4-1.4-0.5
								c-0.2-0.1-0.4-0.1-0.6-0.2c-0.7-0.3-1.2-0.5-1.3-0.5v0c-3.5-1.4-6.9-3.3-10-5.8c-3.4-2.7-6.1-5.7-8.2-9.2
								c-0.7-1.2-1.4-2.4-2-3.6c0-0.1-0.1-0.1-0.1-0.2c-5.4-9.6-2.2-19.3-2-20c0,0,0,0,0,0c0.1-0.5,0.2-1,0.4-1.5s0.3-1,0.5-1.5
								c0-0.1,0.1-0.3,0.1-0.4c0.1-0.4,0.1-0.9,0.1-1.3c0-1.3-0.1-2.5-0.2-3.8c0-1.8,0-3.7-0.1-5.5c0-0.5,0-1,0-1.5
								c0-1.3,0.1-2.5,0.3-3.8c0.3-1.7,0.7-3.4,1.2-5.1c0.1-0.3,0.2-0.6,0.2-0.9c0.1-0.9,0-1.7-0.2-2.5c-0.1-0.5-0.3-1.1-0.5-1.6
								c-0.2-0.5-0.3-1-0.4-1.6c-1.3-6.8-2.8-13.5-4.4-20.3c-0.8-3.1-1-6.1-1-9.3c0-0.6,0-1.2,0-1.7c0.2-6.5,3.9-10.4,10.5-10.9
								c0.2,0,0.5,0,0.7,0L38.3,29.8 M38.3,28.3H38c-0.2,0-0.5,0-0.7,0c-7.4,0.6-11.7,5.1-11.9,12.4c0,0.6,0,1.2,0,1.8
								c0,3.5,0.4,6.7,1.1,9.6c1.7,7.2,3.2,13.8,4.4,20.2c0.1,0.6,0.3,1.1,0.4,1.6l0,0.1l0.1,0.4c0.1,0.4,0.2,0.7,0.3,1.1
								c0.2,0.8,0.2,1.3,0.1,1.9c0,0.2-0.1,0.4-0.1,0.6c-0.6,1.8-1,3.6-1.3,5.4c-0.2,1.3-0.3,2.6-0.3,4c0,0.5,0,1,0,1.5
								c0,1.8,0,3.7,0.1,5.5c0,0.5,0,0.9,0.1,1.3c0,0.8,0.1,1.7,0.1,2.5c0,0.3,0,0.6-0.1,0.9c0,0.1,0,0.2-0.1,0.3l0,0.1
								c-0.2,0.5-0.3,1-0.5,1.5c-0.1,0.5-0.3,1-0.4,1.5c-0.4,1.3-3.4,11.2,2.1,21.1l0.1,0.1c0.6,1.3,1.3,2.6,2.1,3.8
								c2.3,3.7,5.1,6.8,8.5,9.5c3,2.4,6.5,4.4,10.2,5.9l0.1,0c0.2,0.1,0.5,0.2,1.4,0.5l0,0l0.1,0c0.2,0.1,0.4,0.1,0.6,0.2
								c0.4,0.1,0.9,0.3,1.4,0.5l0,0l0,0c0.2,0,0.3,0.1,0.5,0.2l0.4,0.1l0.3,0.1c0.2,0.1,0.4,0.1,0.5,0.2c5,1.5,10,2.7,14.9,3.3
								c2,0.3,4.1,0.4,6.2,0.5c0.9,0,1.7,0.1,2.6,0.1c2.2,0,4.4-0.1,6.5-0.4c0.1,0,0.1,0,0.2,0c0,0,0.1,0,0.1,0
								c0.3,0,0.7-0.1,1.3-0.2c0.3-0.1,0.6-0.1,0.8-0.1c0.6,0,1.1-0.1,1.6-0.2c6.3-0.8,12.3-2.2,17.9-4.1c7.5-2.6,12-5.3,13.3-6.2
								h0.2l0.4-0.4c1.1-0.8,2.3-1.7,3.3-2.5c0.9-0.7,1.6-1.5,2.4-2.4l0.4-0.4c0.1-0.1,0.3-0.3,0.4-0.5c0.1-0.1,0.3-0.3,0.4-0.4
								c0.2-0.2,0.3-0.4,0.4-0.6c0.3-0.4,0.6-0.8,0.9-1.1l0.1-0.1l0,0l0,0c2.6-3.4,3.4-5.7,3.6-6.4c0-0.1,0.1-0.2,0.1-0.3l0.1-0.1
								l0.1-0.2c0.1-0.3,0.3-0.7,0.4-1c0.1-0.4,0.3-0.8,0.4-1.2l0.1-0.4c0.1-0.2,0.1-0.5,0.2-0.7c0.1-0.4,0.2-0.9,0.3-1.3
								c0.1-0.3,0.2-0.7,0.2-1c0.1-0.5,0.2-0.9,0.2-1.4c0,0,0-0.1,0-0.3c0-0.1,0-0.1,0-0.2c0-0.1,0-0.2,0-0.3c0-0.1,0-0.1,0-0.2
								l0-0.1v-0.1c0-0.4,0.1-0.9,0.1-1.4v0v-0.1c0-0.1,0-0.3,0-0.4c0-0.2,0-0.3,0-0.5c0-0.6,0-1.1,0-1.7v-0.7c0-0.7-0.1-1.3-0.2-2
								v-0.1c0-0.2,0-0.3,0-0.5c-0.1-0.7-0.3-1.6-0.4-2.4c-0.7-3.2-0.9-5.8-0.5-7.9c0.7-3.6,0.3-7.1,0-10.4
								c-0.1-1.1-0.2-2.2-0.3-3.3c0-0.4-0.1-0.8-0.1-1.1c-0.1-1.7-0.3-3.1,0.2-4.6c2.2-6.7,4.6-14,6.5-21.2
								c1.3-4.7,2.4-9.9,2.2-15.2c-0.2-4.3-1.4-7.3-3.8-9.4c-0.9-0.8-2-1.4-3.3-1.9c-0.3-0.1-0.7-0.2-1-0.3l-0.1,0
								c-0.2,0-0.3-0.1-0.3-0.1l-0.1,0l-0.1,0c-0.2-0.1-0.4-0.1-0.7-0.1l-0.1,0h-0.1l-0.1,0c-0.1,0-0.2,0-0.3,0l-0.6-0.1l-0.1,0
								h-0.1c-0.1,0-0.2,0-0.2,0l-0.1,0h-0.1c-0.1,0-0.2,0-0.3,0c-0.1,0-0.2,0-0.4,0h-0.3c-0.6,0-1.2,0-1.8,0.1h0l0,0
								c0,0-0.1,0-0.1,0c-0.6,0.1-1.2,0.2-1.8,0.4c-0.9,0.2-1.8,0.5-2.8,0.9c-5.8,2.4-9.9,6.6-13.6,10.7l0,0l0,0l0,0
								c0,0.1-0.1,0.1-0.1,0.1l-0.1,0.1l0,0l0,0l-0.1,0.1l0,0l0,0h0l0,0h0l-0.1,0l-0.1,0l-0.2-0.1c-0.1,0-0.1-0.1-0.2-0.1l-0.2-0.1
								c-0.7-0.4-1.4-0.7-2-1.1c-2.5-1.3-5-2.7-7.7-3.8c-4.7-2-10-3.1-16.2-3.4h0h0l-5.5,0h-0.1l-0.1,0c-0.6,0.1-1.3,0.2-2,0.2
								c-1.2,0.1-2.4,0.3-3.6,0.5c-6,0.9-11.6,2.9-16.6,5.8c0,0,0,0-0.1,0c0,0-0.1,0-0.1,0c0,0-0.1,0-0.1,0c-0.1,0-0.1,0-0.2,0
								c-1.1-0.8-2.2-1.7-3.2-2.6c-0.9-0.7-1.8-1.5-2.7-2.2c-0.7-0.6-1.4-1.1-2.1-1.6L48.7,32l-0.5-0.3l-0.1,0l-0.1,0
								c0,0-0.1-0.1-0.1-0.1l0,0l0,0c-0.3-0.2-0.6-0.4-0.9-0.5c0,0-0.1-0.1-0.3-0.1c-0.1,0-0.1-0.1-0.1-0.1
								c-0.3-0.2-0.6-0.3-0.9-0.5c-0.2-0.1-0.4-0.2-0.6-0.3c-0.2-0.1-0.5-0.2-0.8-0.4c-0.2-0.1-0.4-0.2-0.7-0.2l-0.2-0.1
								c-0.2-0.1-0.4-0.1-0.6-0.2c-0.1,0-0.2-0.1-0.3-0.1c-0.1,0-0.2,0-0.3-0.1c-0.3-0.1-0.6-0.1-0.9-0.2c-0.3-0.1-0.5-0.1-0.7-0.1
								l-0.1,0c-0.3,0-0.5-0.1-0.8-0.1c-0.2,0-0.3,0-0.5,0l-0.2,0C38.8,28.4,38.5,28.3,38.3,28.3L38.3,28.3z"/>
							<path style="&st3;" d="M81.4,151.1c-0.9,0-1.7,0-2.6-0.1c-2.2-0.1-4.4-0.3-6.5-0.5c-5-0.6-10.1-1.8-15.3-3.3
								c-0.2-0.1-0.4-0.1-0.6-0.2l-0.8-0.3c-0.1,0-0.2-0.1-0.2-0.1l-0.3-0.1c-0.4-0.2-0.8-0.3-1.1-0.4l-0.2-0.1
								c-0.2-0.1-0.4-0.1-0.6-0.2l-0.2-0.1c-0.9-0.3-1.3-0.5-1.6-0.6c-3.9-1.6-7.5-3.7-10.7-6.2c-3.7-2.9-6.6-6.2-9.1-10.1
								c-0.9-1.4-1.6-2.7-2.2-4l0,0c-5.9-10.5-2.9-21.1-2.3-22.9c0.1-0.5,0.3-1,0.4-1.5c0.1-0.5,0.3-1,0.5-1.5l0,0
								c0-0.1,0-0.2,0.1-0.3c0-0.2,0-0.3,0-0.4c0-0.6,0-1.3-0.1-1.9l0-0.5c0-0.4-0.1-0.9-0.1-1.4c0-1.9,0-3.7-0.1-5.5
								c0-0.5,0-1,0-1.6c0-1.5,0.1-2.9,0.3-4.3c0.3-2,0.8-3.9,1.4-5.8l0-0.2c0-0.2,0-0.4-0.1-1c-0.1-0.3-0.2-0.6-0.3-0.9l-0.3-0.8
								c-0.1-0.5-0.3-1-0.4-1.6c-1.3-6.5-2.7-13.1-4.4-20.1c-0.8-3.1-1.1-6.5-1.1-10.2c0-0.6,0-1.2,0-1.8l0-0.1
								c0.3-8.5,5.5-14,14.1-14.7c0.4,0,0.6,0,0.9,0h0.3c0.4,0,0.7,0,1,0.1l0.6,0.1c0.3,0,0.6,0.1,0.9,0.1l-0.1,1.4c0,0,0,0,0,0
								c0,0,0,0,0,0l0.2-1.4c0.3,0,0.6,0.1,0.9,0.2l0.4,0.1c0.2,0,0.3,0.1,0.5,0.1l0.1,0c0,0,0.1,0,0.2,0l0.2,0.1
								c0.3,0.1,0.5,0.2,0.7,0.2l0.3,0.1c0.2,0.1,0.5,0.2,0.8,0.3c0.3,0.1,0.6,0.3,0.9,0.4c0.3,0.1,0.5,0.2,0.8,0.4
								c0.2,0.1,0.5,0.2,0.8,0.4l0.3,0.1c0.1,0.1,0.2,0.1,0.4,0.2c0.3,0.2,0.6,0.4,1,0.6l0.1,0.1c0,0,0,0,0,0l0.4,0.2l1.3,0.8
								c0.7,0.5,1.5,1,2.2,1.6c0.8,0.6,1.7,1.4,2.5,2l0.2,0.2c0.7,0.6,1.4,1.2,2.2,1.8c5-2.7,10.5-4.5,16.3-5.5
								c1.2-0.2,2.5-0.3,3.6-0.5l0.2,0c0.6-0.1,1.2-0.1,1.7-0.2l0.4,0l5.7,0l0.1,0c6.5,0.3,12.1,1.5,17,3.6c2.7,1.1,5.3,2.5,7.8,3.9
								l1.4,0.7c3.7-4,7.9-8,13.7-10.4c1-0.4,2.1-0.8,3.1-1c0.6-0.2,1.3-0.3,2-0.4l0.1,0l0.3,0c0.7-0.1,1.3-0.1,1.9-0.1h0.3
								c0.1,0,0.2,0,0.3,0l1.3,0.1l1.3,0.2c0.2,0,0.5,0.1,0.7,0.2c0.2,0,0.3,0.1,0.6,0.1l0.2,0c0.4,0.1,0.8,0.3,1.2,0.4
								c1.6,0.6,2.9,1.4,4.1,2.4c2.8,2.5,4.3,6.1,4.6,11c0.2,5.7-0.9,11-2.3,15.9c-2,7.3-4.3,14.6-6.6,21.3c-0.3,1-0.3,2.1-0.1,3.7
								l0.1,1.1c0.1,1.1,0.2,2.1,0.3,3.2c0.4,3.5,0.8,7.2,0,11.1c-0.3,1.8-0.2,4.1,0.5,6.9c0.2,1.1,0.4,1.9,0.5,2.6
								c0,0.2,0,0.4,0.1,0.5l0,0.2c0.1,0.6,0.2,1.3,0.2,2l0,0.8c0,0.5,0,1.1,0,1.7c0,0.2,0,0.4,0,0.6c0,0.1,0,0.2,0,0.2l0,0.3
								c0,0.4-0.1,0.8-0.1,1.2v0.2l-0.1,0.3c0,0,0,0.1,0,0.1l-0.1,0.4c0,0,0,0.1,0,0.1c0,0.1,0,0.1,0,0.2c-0.1,0.5-0.1,0.9-0.2,1.4
								c-0.1,0.5-0.2,0.9-0.3,1.2l0,0.1c-0.1,0.4-0.2,0.8-0.3,1.2c-0.1,0.2-0.1,0.5-0.2,0.7l-0.3,0.8c-0.1,0.3-0.2,0.6-0.3,0.9
								c-0.1,0.3-0.2,0.5-0.3,0.8l-0.3,0.9c-0.3,1-1.2,3.4-3.7,6.8l-0.3,0.4c-0.3,0.4-0.6,0.8-0.9,1.2c-0.2,0.3-0.4,0.6-0.7,0.8
								l-0.1,0.2c-0.1,0.1-0.1,0.1-0.2,0.2c-0.1,0.2-0.3,0.3-0.4,0.5l-0.3,0.4c-0.7,0.8-1.6,1.8-2.7,2.6c-0.9,0.8-2,1.6-3.2,2.5
								l-0.9,0.9h-0.4c-1.8,1.1-6.2,3.6-13.2,6c-5.7,1.9-11.9,3.4-18.2,4.2c-0.6,0.1-1.2,0.2-1.8,0.2c-0.1,0-0.3,0.1-0.5,0.1
								c-0.6,0.1-1.1,0.2-1.6,0.2l-0.3,0C85.9,151,83.7,151.1,81.4,151.1z M57.2,140.7c0.2,0.1,0.4,0.1,0.5,0.2l0.6,0.2
								c0.1,0,0.3,0.1,0.5,0.1c4.9,1.5,9.7,2.6,14.3,3.1c1.9,0.2,3.9,0.4,5.9,0.5c0.7,0,1.5,0.1,2.4,0.1c2,0,4-0.1,6-0.4l0.1,0
								c0.2,0,0.4,0,0.6,0c0.1,0,0.4-0.1,0.6-0.1c0.6-0.1,0.9-0.2,1.3-0.2c0.4,0,0.7-0.1,1.1-0.2l0.1,0c6-0.8,11.8-2.1,17.2-4
								c8.4-2.9,12.7-5.9,12.7-5.9l0.5-0.3c1-0.7,1.9-1.4,2.7-2.1c0.7-0.5,1.3-1.2,2-1.9l0.5-0.5c0.1-0.1,0.3-0.3,0.4-0.4
								c0,0,0,0,0,0v0l0.6-0.7c0.3-0.4,0.6-0.7,0.8-1c0.1-0.1,0.2-0.2,0.2-0.3c2.4-3.2,2.9-5,2.9-5l0.1-0.3l0.3-0.7
								c0.1-0.4,0.3-0.7,0.4-1c0.1-0.3,0.2-0.7,0.3-1l0.1-0.4c0.1-0.2,0.1-0.4,0.2-0.5l0-0.1c0.1-0.3,0.2-0.6,0.2-1l0-0.1
								c0.1-0.3,0.1-0.6,0.2-0.9c0.1-0.3,0.1-0.7,0.2-1.1l0-0.2c0-0.1,0-0.2,0.1-0.3l0-0.1c0-0.1,0-0.2,0-0.2c0-0.4,0.1-0.8,0.1-1.1
								c0-0.2,0-0.4,0-0.5c0-0.1,0-0.2,0-0.4c0-0.4,0-0.9,0-1.4l0-0.7c0-0.5-0.1-1-0.2-1.6l0-0.5c-0.1-0.7-0.2-1.4-0.4-2.2
								c-0.8-3.7-1-6.8-0.5-9.5c0.6-3,0.3-6.1-0.1-9.3c-0.1-1.1-0.2-2.3-0.3-3.4c0-0.4-0.1-0.7-0.1-1.1c-0.2-1.9-0.3-3.9,0.4-6.1
								c2.2-6.7,4.5-13.9,6.5-21c1.2-4.4,2.3-9.2,2.1-14.1c-0.1-3.2-0.9-5.3-2.5-6.7c-0.6-0.5-1.3-0.9-2.1-1.2
								c-0.3-0.1-0.5-0.2-0.8-0.3l0,0c-0.1,0-0.2,0-0.3-0.1l-0.1,0c-0.1,0-0.2-0.1-0.4-0.1c-0.1,0-0.1,0-0.2,0l-0.6-0.1
								c-0.1,0-0.2,0-0.4,0c-0.1,0-0.2,0-0.3,0l-0.5,0c-0.4,0-0.8,0-1.2,0.1c0,0-0.1,0-0.1,0l-0.1,0c-0.5,0.1-0.9,0.2-1.3,0.3
								c-0.8,0.2-1.5,0.4-2.3,0.8c-5,2.1-8.8,5.9-12.2,9.7l-0.1,0.1c-0.2,0.2-0.4,0.4-0.5,0.5c-0.1,0.1-0.2,0.1-0.2,0.2
								c-0.1,0.1-0.3,0.2-0.5,0.4c-0.1,0.1-0.3,0.1-0.4,0.2c-0.1,0-0.2,0.1-0.3,0.1l-0.1,0.1c-0.2,0.1-0.4,0.1-0.6,0.1
								c-0.2,0-0.5,0.1-0.8,0h-0.2l-0.2,0c-0.1,0-0.2,0-0.3-0.1c-0.1,0-0.2-0.1-0.4-0.1c-0.1,0-0.2-0.1-0.3-0.1
								c-0.1,0-0.2-0.1-0.3-0.1l-0.1,0c-0.1,0-0.1-0.1-0.2-0.1l-1.3-0.7c-0.4-0.2-0.8-0.4-1.2-0.7c-2.5-1.3-4.9-2.6-7.4-3.7
								c-4.2-1.8-9.1-2.8-14.9-3.1l-5.3,0c-0.6,0.1-1.2,0.2-1.9,0.2c-1.2,0.1-2.3,0.3-3.4,0.4c-5.6,0.9-10.7,2.7-15.4,5.4
								c-0.3,0.2-0.7,0.3-1.1,0.4l-0.2,0.1h-0.3c-0.1,0-0.2,0-0.3,0l-0.4,0c-0.2,0-0.4-0.1-0.6-0.1c-0.1,0-0.2,0-0.3-0.1l-0.1,0
								c-0.5-0.2-0.9-0.4-1.3-0.6c-1.1-0.9-2.3-1.8-3.4-2.7c-0.9-0.7-1.7-1.4-2.6-2.1c-0.7-0.5-1.3-1-1.9-1.4l-1.1-0.7
								c-0.1-0.1-0.3-0.2-0.4-0.3c-0.3-0.2-0.5-0.3-0.7-0.4l-0.2-0.1c-0.1-0.1-0.2-0.1-0.3-0.2c-0.2-0.1-0.4-0.2-0.6-0.3l-0.1-0.1
								c-0.1-0.1-0.2-0.1-0.3-0.1l-0.1,0c-0.2-0.1-0.4-0.2-0.6-0.3C42.7,33,42.5,33,42.4,33L42,32.8c-0.1,0-0.2-0.1-0.3-0.1l-0.2,0
								c-0.2,0-0.3-0.1-0.5-0.1c-0.2,0-0.4-0.1-0.6-0.1c-0.1,0-0.2,0-0.4-0.1l-0.1,0c-0.2,0-0.4-0.1-0.5-0.1l-0.2,0
								c-0.1,0-0.2,0-0.2,0l-0.3,0c-0.2,0-0.3,0-0.5,0H38c-0.2,0-0.3,0-0.5,0c-5.3,0.4-8.1,3.3-8.3,8.7c0,0.6,0,1.1,0,1.7
								c0,3.2,0.3,6,1,8.7c1.8,7.3,3.2,13.9,4.5,20.4c0.1,0.4,0.2,0.8,0.3,1.2l0.1,0.5c0.1,0.4,0.3,0.9,0.4,1.3
								c0.2,0.9,0.4,2.1,0.2,3.4c-0.1,0.5-0.2,0.9-0.3,1.3c-0.5,1.5-0.9,3.1-1.1,4.7c-0.2,1.1-0.2,2.2-0.2,3.5c0,0.4,0,0.9,0,1.3
								l0,0.1c0,1.8,0,3.7,0.1,5.5c0,0.3,0,0.7,0.1,1.2c0.1,0.9,0.1,1.8,0.1,2.7c0,0.6-0.1,1.2-0.2,1.8l0,0.2c0,0.2-0.1,0.3-0.1,0.5
								c-0.1,0.4-0.3,0.9-0.4,1.3c-0.1,0.4-0.2,0.7-0.3,1.1v0.3l-0.2,0.4c-0.5,1.5-2.7,9.7,1.8,17.9c0.1,0.1,0.1,0.2,0.2,0.4
								c0.6,1.2,1.2,2.3,1.8,3.4c2.1,3.3,4.6,6.1,7.7,8.6c2.8,2.2,6,4,9.5,5.5l1.3,0.5c0.1,0.1,0.3,0.1,0.5,0.2
								C56.2,140.3,56.7,140.5,57.2,140.7z M127.7,128.3C127.7,128.3,127.7,128.3,127.7,128.3C127.7,128.3,127.7,128.3,127.7,128.3z
								 M57.8,42.7C57.8,42.7,57.8,42.7,57.8,42.7C57.8,42.7,57.8,42.7,57.8,42.7z M57.4,42.7C57.4,42.7,57.4,42.7,57.4,42.7
								L57.4,42.7z"/>
						</g>
					</g>
					<g>
						<path style="&st6;" d="M56.2,143.7c-0.5-0.1-1-0.3-1.5-0.5l0.5-1.4c0.4,0.1,0.9,0.3,1.4,0.5L56.2,143.7z"/>
						<path style="&st3;" d="M55,142.5c0.4,0.1,0.9,0.3,1.4,0.5C56,142.8,55.5,142.7,55,142.5 M55.5,141.1l-1,2.8
							c0.4,0.2,0.9,0.3,1.5,0.5l0.9-2.8C56.4,141.4,55.9,141.2,55.5,141.1L55.5,141.1z"/>
					</g>
				</g>
			</g>
		</g>
		<g>
			<path style="&st6;" d="M83,125.5c-1.5,0-4.9,2.6-4.9,3.8c0,2,2.5,3.8,5.2,3.8c2.8,0,4.4-1.3,4.3-3.5
				C87.6,128.1,84.7,125.5,83,125.5z"/>
			<g>
				<path style="&st4;" d="M128.5,130.9c0.3-0.3,0.6-0.6,0.9-0.9c0.1-0.1,0.2-0.2,0.2-0.3C129.3,130,128.9,130.5,128.5,130.9z"/>
				<path style="&st4;" d="M55,142.5c0.5,0.2,0.9,0.3,1.4,0.5C55.9,142.8,55.4,142.6,55,142.5z"/>
				<path style="&st4;" d="M141.7,55.5c1.3-4.8,2.3-9.8,2.1-14.8c-0.1-3.3-0.9-6.3-3.3-8.3c-0.8-0.7-1.7-1.2-2.9-1.7
					c-0.3-0.1-0.7-0.2-1-0.3c-0.1,0-0.2,0-0.4-0.1c-0.2-0.1-0.5-0.1-0.7-0.2c-0.1,0-0.3,0-0.4-0.1c-0.2,0-0.4-0.1-0.6-0.1
					c-0.1,0-0.3,0-0.4,0c-0.2,0-0.4,0-0.6,0h-0.3c-0.5,0-1,0-1.5,0.1c-0.1,0-0.1,0-0.2,0c-0.5,0.1-1.1,0.2-1.6,0.3
					c-0.9,0.2-1.7,0.5-2.6,0.9c-5.4,2.2-9.3,6.2-13.1,10.3l-0.1,0.1c-0.1,0.1-0.2,0.3-0.4,0.3c0,0-0.1,0.1-0.1,0.1
					c-0.1,0.1-0.2,0.1-0.3,0.2c0,0-0.1,0-0.1,0.1c-0.1,0-0.2,0.1-0.2,0.1c0,0-0.1,0-0.1,0c-0.1,0-0.1,0-0.2,0c-0.1,0-0.1,0-0.2,0
					c-0.1,0-0.1,0-0.2,0c-0.1,0-0.1,0-0.2-0.1c-0.1,0-0.1,0-0.2-0.1c-0.1,0-0.1-0.1-0.2-0.1c-0.1,0-0.1,0-0.2-0.1v0
					c-0.1-0.1-0.3-0.1-0.4-0.2c-3.2-1.7-6.3-3.5-9.6-4.9c-5-2.1-10.3-3-15.7-3.3c-1.8,0-3.7,0-5.5,0c-1.8,0.2-3.7,0.4-5.5,0.7
					c-5.7,0.9-11.2,2.7-16.2,5.7c-0.1,0.1-0.3,0.1-0.4,0.1c0,0-0.1,0-0.1,0c-0.1,0-0.1,0-0.2,0c0,0-0.1,0-0.1,0
					c-0.1,0-0.3,0-0.4-0.1c-0.1,0-0.1,0-0.2,0c-0.2-0.1-0.4-0.1-0.5-0.2c-2-1.5-4-3.3-6-4.8c-0.7-0.5-1.4-1-2.1-1.5
					c-0.4-0.3-0.8-0.5-1.2-0.8c-0.1-0.1-0.2-0.1-0.3-0.2c-0.3-0.2-0.6-0.4-0.9-0.5c-0.1-0.1-0.3-0.2-0.5-0.3
					c-0.3-0.1-0.5-0.3-0.8-0.4c-0.2-0.1-0.3-0.2-0.5-0.2c-0.3-0.1-0.5-0.2-0.8-0.3c-0.2-0.1-0.4-0.1-0.6-0.2
					c-0.3-0.1-0.5-0.2-0.8-0.3c-0.2-0.1-0.4-0.1-0.6-0.2c-0.3-0.1-0.5-0.1-0.8-0.2c-0.2,0-0.4-0.1-0.6-0.1c-0.3,0-0.5-0.1-0.8-0.1
					c-0.2,0-0.4,0-0.7,0c-0.2,0-0.4,0-0.6,0H38c-0.2,0-0.4,0-0.7,0c-6.6,0.5-10.3,4.4-10.5,10.9c0,0.6,0,1.1,0,1.7
					c0,3.1,0.3,6.2,1,9.3c1.6,6.7,3.1,13.5,4.4,20.3c0.1,0.5,0.3,1,0.4,1.6c0.2,0.5,0.3,1.1,0.5,1.6c0.2,0.8,0.3,1.6,0.2,2.5
					c0,0.3-0.1,0.6-0.2,0.9c-0.6,1.7-1,3.4-1.2,5.1c-0.2,1.3-0.3,2.5-0.3,3.8c0,0.5,0,1,0,1.5c0,1.8,0,3.7,0.1,5.5
					c0.1,1.3,0.2,2.5,0.2,3.8c0,0.4-0.1,0.9-0.1,1.3c0,0.1-0.1,0.3-0.1,0.4c-0.2,0.5-0.3,1-0.5,1.5c-0.1,0.5-0.3,1-0.4,1.5
					c0,0,0,0,0,0c-0.2,0.7-3.4,10.3,2,20c0,0.1,0.1,0.1,0.1,0.2c0.6,1.3,1.3,2.5,2,3.6c2.1,3.4,4.8,6.5,8.2,9.2
					c3.1,2.5,6.5,4.4,10,5.8v0c0.1,0.1,0.6,0.2,1.3,0.5c0.2,0.1,0.4,0.1,0.6,0.2c0.4,0.1,0.9,0.3,1.4,0.5c0.3,0.1,0.6,0.2,0.9,0.3
					c0.2,0.1,0.5,0.2,0.8,0.2c3.6,1.1,8.8,2.5,14.7,3.2c2,0.3,4,0.4,6.1,0.5c2.9,0.1,5.8,0,8.8-0.3c0.2,0,0.4,0,0.5,0
					c0.4,0,1.6-0.3,2-0.3c0.5,0,1-0.1,1.4-0.2c7.1-0.9,12.9-2.5,17.6-4.1c8.4-2.9,12.9-5.9,13.3-6.2c0,0,0,0,0,0
					c1.1-0.8,2.2-1.6,3.3-2.5c0.8-0.6,1.5-1.4,2.2-2.2c0.1-0.2,0.3-0.3,0.4-0.5c0.4-0.4,0.8-0.9,1.1-1.3c0.4-0.4,0.7-0.8,1-1.2
					c0-0.1,0.1-0.1,0.1-0.1c2.9-3.8,3.4-6,3.4-6c0.1-0.1,0.1-0.2,0.1-0.4s0.1-0.2,0.1-0.3c0.1-0.3,0.3-0.7,0.4-1
					c0.1-0.4,0.3-0.8,0.4-1.2c0.1-0.4,0.2-0.7,0.3-1c0.1-0.4,0.2-0.8,0.3-1.2c0.1-0.3,0.2-0.7,0.2-1c0.1-0.4,0.1-0.8,0.2-1.3
					c0-0.2,0-0.3,0.1-0.5c0-0.2,0-0.3,0.1-0.5c0-0.4,0.1-0.9,0.1-1.4c0-0.3,0-0.6,0.1-0.9c0-0.5,0-1,0-1.5v-0.7
					c0-0.6-0.1-1.2-0.2-1.8c0-0.2,0-0.4,0-0.5c-0.1-0.8-0.3-1.6-0.4-2.4c-0.6-2.7-1-5.8-0.5-8.5c0.9-4.5,0-8.9-0.4-13.3
					c-0.1-2.2-0.5-4.1,0.2-6.3C137.5,69.6,139.8,62.6,141.7,55.5z M34,52.4c-0.1-0.7-0.3-1.4-0.4-2.2c0-0.3-0.1-0.5-0.1-0.7
					C32.3,42,33.3,39,33.6,38.1c0.1-0.2,0.1-0.3,0.1-0.3c1.1-2.1,2.7-2.8,5.2-2.4c0.5,0,0.9,0.1,1.5,0.3c3.5,0.9,6.3,3.1,9.1,5.4
					c0.9,0.8,1.9,1.4,2.7,2.3c0.6,0.6,0.7,1.4-0.2,2c-3.3,2.2-6,5.1-8.5,8.1c-0.7,0.8-0.9,0.9-1.2,0.1c0-0.1-0.1-0.2-0.1-0.3
					c-0.3-1-0.7-2-1-3.1c-0.5-1.5-1.5-2-3.1-2c-1.6,0.1-2.2,0.8-2,2.2c0.4,2.1,0.9,4.1,1.3,6.1c0.4,2,0.9,4.1,1.2,6.1
					c0.1,0.5,0.1,1-0.1,1.5c-0.2,0.5-0.6,0.9-0.9,1.4c-0.3-0.4-0.8-0.9-0.9-1.4C35.6,60.3,34.8,56.4,34,52.4z M128.9,117.6
					c-1.1,4.9-3.9,8.9-7.5,12.1c-3,2.7-6.6,4.6-10.1,6.6c-1.2,0.7-2.5,1.3-3.7,1.8c-3.5,1.5-7.1,2.6-10.8,3.3
					c-4.8,0.9-9.7,1.4-14.6,2.1c-7.6-0.4-14.9-1.8-21.7-4.4c-4.2-1.6-8.2-3.7-12-6.3c-6.3-4.2-10.5-9.9-11.7-17.3
					c-0.7-4.6-0.9-9.6,2-13.9c0.4-0.5,0.3-1.4,0.3-2.2c-0.1-3.9-0.8-7.8-0.3-11.6c0.7-5.7,2.5-11.2,5.8-16.2
					c0.3-0.4,0.5-0.8,0.8-1.1c2.9-4.1,6.5-7.5,10.5-10.4c1.9-1.4,3.9-0.2,5.7,0.4c1.7,0.5,3.4,1.4,4.8,2.5c1.5,1.2,3,2.6,3.9,4.2
					c2.1,3.7,3.8,7.6,5.7,11.4c0.3,0.7,0.4,1.5,0.8,2c0.9,1.3,1.6,2.8,3.8,2.6c2.8-0.3,5.6,0.1,8.4-0.2c1.6-0.2,2.3-1.8,2.7-3.3
					c0.5-1.6,0.7-3.4,1.4-4.9c2.5-5.6,6.1-10.3,11.5-13.5c1.3-0.7,2.7-1.4,4.1-1.7c2-0.5,3.7,0.6,5.2,1.8c3.2,2.7,6.2,5.6,8.5,9.1
					c0.2,0.3,0.5,0.7,0.7,1c2.3,3.8,4.1,7.8,4.6,12.4c0.3,3.2,0.8,6.5,0.9,9.7c0.1,1.9-0.3,3.8-0.4,5.8c-0.1,0.9-0.1,1.9,0,2.8
					c0.4,2,0.9,4,1.5,5.9C130.6,111.4,129.6,114.5,128.9,117.6z M134.5,60.1c-0.7,2.9-1.6,5.8-2.4,8.7c-0.1,0.2-0.4,0.3-0.6,0.5
					c-0.4-1.2-1.3-2.5-1.1-3.6c0.8-4.2,2-8.2,3-12.3c0.1-0.6,0.3-1.2,0.3-1.7c0-0.1,0.3-1.5-0.5-2.2c-1.4-1.1-2.7,0-3.5,0.7
					c-1,1-1.4,2.5-2.1,3.9c-0.2,0.5-0.3,1.1-0.5,1.7c-0.5,1.1-0.9,0.9-1.7,0.1c-0.1-0.1-0.1-0.1-0.2-0.2c-2.5-2.8-5.1-5.6-7.8-8.2
					c-0.6-0.6-0.7-0.8-0.2-1.3c3.4-3.6,7.1-6.9,11.5-9.2c0.7-0.4,1.5-0.7,2.3-1c2.2-0.9,4.6-0.2,6,2.1c0,0,0.1,0.1,0.1,0.1
					c0.1,0.1,0.1,0.2,0.2,0.3c0,0.1,0.1,0.2,0.1,0.3c0.6,1.6,0.5,4.3,0.1,7.2C136.7,52.4,134.5,60.1,134.5,60.1z"/>
				<path style="&st3;" d="M129.6,108.2c-0.6-2-1.1-3.9-1.5-5.9c-0.2-0.9-0.1-1.9,0-2.8c0.1-1.9,0.5-3.9,0.4-5.8
					c-0.1-3.2-0.6-6.5-0.9-9.7c-0.4-4.5-2.3-8.5-4.6-12.4c-0.2-0.4-0.4-0.7-0.7-1c-2.3-3.5-5.3-6.4-8.5-9.1
					c-1.5-1.2-3.2-2.3-5.2-1.8c-1.4,0.3-2.8,1-4.1,1.7c-5.4,3.2-9,7.9-11.5,13.5c-0.7,1.5-0.9,3.3-1.4,4.9c-0.4,1.5-1.1,3.1-2.7,3.3
					c-2.8,0.3-5.6-0.1-8.4,0.2c-2.2,0.2-2.9-1.3-3.8-2.6c-0.4-0.6-0.5-1.4-0.8-2c-1.9-3.8-3.6-7.7-5.7-11.4
					c-0.9-1.6-2.4-3.1-3.9-4.2c-1.4-1.1-3.1-1.9-4.8-2.5c-1.8-0.6-3.8-1.7-5.7-0.4c-4.1,2.9-7.6,6.3-10.5,10.4
					c-0.3,0.4-0.5,0.8-0.8,1.1c-3.3,5-5.1,10.5-5.8,16.2c-0.5,3.8,0.2,7.7,0.3,11.6c0,0.7,0.1,1.6-0.3,2.2c-2.9,4.3-2.7,9.3-2,13.9
					c1.2,7.4,5.4,13.1,11.7,17.3c3.9,2.6,7.9,4.7,12,6.3c6.8,2.6,14.1,4.1,21.7,4.4c4.9-0.7,9.8-1.2,14.6-2.1
					c3.7-0.7,7.4-1.8,10.8-3.3c1.3-0.5,2.5-1.1,3.7-1.8c3.5-1.9,7.1-3.9,10.1-6.6c3.6-3.2,6.4-7.2,7.5-12.1
					C129.6,114.5,130.6,111.4,129.6,108.2z M100.5,79.9c1.5-3.9,6.5-4.9,9.3-2c0.8,0.8,1.4,1.7,2,2.5c0.1,0.2,0.2,0.4,0.5,1.1
					c-0.7-0.2-1.1-0.2-1.4-0.4c-2-1.5-4.2-2.2-6.7-1.6c-1,0.3-2,0.8-2.9,1.3c-0.3,0.1-0.6,0.1-0.9,0.1
					C100.5,80.6,100.4,80.2,100.5,79.9z M79.4,105.9c1.6-1.5,6.3-1.8,8.1-0.5c0.7,0.5,1.5,1.6,1.5,2.4c0,0.7-1.2,1.5-2,1.8
					c-1,0.4-2.2,0.3-3.5,0.4c-1-0.1-2.2,0-3.3-0.4c-0.7-0.2-1.6-0.9-1.7-1.5C78.4,107.4,78.9,106.4,79.4,105.9z M55.6,79.7
					c1.4-2,3-3.8,5.8-3.7c1.5,0,4.9,2.7,5.1,4.1c0,0.2-0.5,0.8-0.7,0.8c-0.5,0-1.1-0.4-1.6-0.6c-2.6-1.1-5.1-1.5-7.4,0.5
					c-0.4,0.3-1,0.2-1.5,0.3C55.4,80.6,55.4,80,55.6,79.7z M61.6,92.5c-1-1.3-2.2-1.2-3.1,0.1c-1.2,2-2.2,4.1-3,6.2
					c-0.5,1.3,0,1.6,1.6,1.4c0.7-0.1,1.5-0.3,2.2-0.2c0.6,0.1,1.6,0.2,1.6,0.8c0,0.6-1,0.5-1.5,0.6c-1.5,0.4-3.1,0.5-4.6,1
					c-1,0.3-2,0.9-2.9,1.4c-0.8,0.4-1.1,0.3-1.1-0.6c0-6,0.9-11.7,5.2-16.3c1.3-1.3,2.8-1.6,4.5-1.8c2.4-0.1,5.6,2.1,7.1,5.9
					c1.1,2.7,1.8,5.5,2.6,8.2c0.2,0.5,0.1,1.2,0.1,1.8c-0.1,1.3-0.9,1.5-1.8,0.9c-1.8-1.1-3.2-2.4-3.9-4.6
					C64,95.6,62.7,94,61.6,92.5z M99.3,121c-1.9,0.7-3.9,1.4-5.9,1.8c-1.1,0.2-1.6,0.4-1.7,1.6c-0.3,2.7-1.3,5.1-2.7,7.4
					c-1.4,2-3.4,2.9-6.5,2.8c-2.6,0-5.5-2.1-6.6-5.5c-0.6-1.6-1.1-3.3-1.4-5c-0.2-1.1-0.6-1.4-1.6-1.3c-2.2,0.3-4.2-0.5-6.1-1.5
					c-1-0.5-1.2-1.1-1-2c0.1-0.4,0.5-0.9,0.9-1c0.3-0.1,0.8,0.3,1,0.6c0.9,1.3,2.2,1.6,3.7,1.8c4.2,0.5,7.7-0.8,10.7-3.8
					c0.9-0.9,1.3-1.6,2.7,0c2.8,3.1,6.4,5.1,10.9,3.4c0.7-0.3,1.4-0.8,2.1-1.2c0.4-0.3,1-0.9,1.2-0.8c0.6,0.3,1.2,0.8,1.4,1.4
					C100.4,120,99.8,120.8,99.3,121z M114.7,102.7c-0.3,0.5-1.3,1-1.6,0.8c-2.3-1.5-4.8-2.1-7.5-2.2c-0.5,0-0.9-0.3-1.4-0.5
					c-0.2-0.1-0.4-0.2-0.6-0.3c0.2-0.1,0.4-0.3,0.7-0.3c1.4-0.1,2.9-0.5,4.2-0.2c1.5,0.3,1.9-0.1,1.5-1.2c-0.8-2.2-1.8-4.3-2.9-6.3
					c-0.7-1.2-2-1.5-3-0.3c-1.3,1.6-2.5,3.4-3.2,5.3c-0.9,2.2-2.6,3.4-4.6,4.3c-0.2,0.1-0.9-0.4-0.8-0.6c0.5-4.8,1.7-9.4,4.7-13.2
					c3.8-4.8,8.6-3.6,11.3,1.2c2,3.6,2.9,7.6,3.2,11.4C114.8,101.6,115,102.3,114.7,102.7z"/>
				<path style="&st3;" d="M137.5,45.9c-0.8,6.5-3,14.3-3,14.3c-0.7,2.9-1.6,5.8-2.4,8.7c-0.1,0.2-0.4,0.3-0.6,0.5
					c-0.4-1.2-1.3-2.5-1.1-3.6c0.8-4.2,2-8.2,3-12.3c0.1-0.6,0.3-1.2,0.3-1.7c0-0.1,0.3-1.5-0.5-2.2c-1.4-1.1-2.7,0-3.5,0.7
					c-1,1-1.4,2.5-2.1,3.9c-0.2,0.5-0.3,1.1-0.5,1.7c-0.5,1.1-0.9,0.9-1.7,0.1c-0.1-0.1-0.1-0.1-0.2-0.2c-2.5-2.8-5.1-5.6-7.8-8.2
					c-0.6-0.6-0.7-0.8-0.2-1.3c3.4-3.6,7.1-6.9,11.5-9.2c0.7-0.4,1.5-0.7,2.3-1c2.2-0.9,4.6-0.2,6,2.1c0,0,0.1,0.1,0.1,0.1
					c0.1,0.1,0.1,0.2,0.2,0.3c0,0.1,0.1,0.2,0.1,0.3C137.9,40.2,137.8,42.9,137.5,45.9z"/>
				<path style="&st3;" d="M52,45.4c-3.3,2.2-6,5.1-8.5,8.1c-0.7,0.8-0.9,0.9-1.2,0.1c0-0.1-0.1-0.2-0.1-0.3c-0.3-1-0.7-2-1-3.1
					c-0.5-1.5-1.5-2-3.1-2c-1.6,0.1-2.2,0.8-2,2.2c0.4,2.1,0.9,4.1,1.3,6.1c0.4,2,0.9,4.1,1.2,6.1c0.1,0.5,0.1,1-0.1,1.5
					c-0.2,0.5-0.6,0.9-0.9,1.4c-0.3-0.4-0.8-0.9-0.9-1.4c-0.9-3.9-1.8-7.9-2.6-11.9c-0.1-0.7-0.3-1.4-0.4-2.2c0-0.3-0.1-0.5-0.1-0.7
					C32.3,42,33.3,39,33.6,38.1c0.1-0.2,0.1-0.3,0.1-0.3c1.1-2.1,2.7-2.8,5.2-2.4c0.5,0,0.9,0.1,1.5,0.3c3.5,0.9,6.3,3.1,9.1,5.4
					c0.9,0.8,1.9,1.4,2.7,2.3C52.7,44,52.9,44.8,52,45.4z"/>
				<path style="&st4;" d="M98.9,118.4c-0.2-0.1-0.8,0.5-1.2,0.8c-0.7,0.4-1.3,0.9-2.1,1.2c-4.5,1.7-8.1-0.3-10.9-3.4
					c-1.4-1.6-1.8-0.9-2.7,0c-2.9,3-6.5,4.4-10.7,3.8c-1.4-0.2-2.8-0.5-3.7-1.8c-0.2-0.3-0.8-0.7-1-0.6c-0.4,0.1-0.9,0.6-0.9,1
					c-0.2,0.9,0,1.5,1,2c1.9,1,3.9,1.8,6.1,1.5c1-0.1,1.4,0.2,1.6,1.3c0.3,1.7,0.9,3.3,1.4,5c1.1,3.3,4,5.4,6.6,5.5
					c3.1,0.1,5.1-0.7,6.5-2.8c1.5-2.2,2.4-4.7,2.7-7.4c0.1-1.2,0.6-1.4,1.7-1.6c2-0.4,4-1.1,5.9-1.8c0.4-0.2,1.1-1,1-1.3
					C100.1,119.2,99.5,118.6,98.9,118.4z M87.2,131.5c-0.1,0.1-0.1,0.2-0.2,0.3c-0.1,0.1-0.1,0.1-0.2,0.2c-0.1,0.1-0.2,0.2-0.3,0.2
					c-0.1,0.1-0.2,0.1-0.3,0.2c-0.7,0.4-1.7,0.7-2.9,0.7c-2.7,0-5.2-1.9-5.2-3.8c0-0.1,0.1-0.3,0.1-0.5c0.2-0.4,0.5-0.8,1-1.2
					c0.2-0.2,0.4-0.4,0.7-0.6c1-0.8,2.3-1.5,3.1-1.5c1.7,0,4.6,2.6,4.6,4.1C87.7,130.3,87.5,131,87.2,131.5z"/>
				<path style="&st4;" d="M70.2,101c-0.1,1.3-0.9,1.5-1.8,0.9c-1.8-1.1-3.2-2.4-3.9-4.6c-0.5-1.7-1.8-3.3-3-4.8
					c-1-1.3-2.2-1.2-3.1,0.1c-1.2,2-2.2,4.1-3,6.2c-0.5,1.3,0,1.6,1.6,1.4c0.7-0.1,1.5-0.3,2.2-0.2c0.6,0.1,1.6,0.2,1.6,0.8
					c0,0.6-1,0.5-1.5,0.6c-1.5,0.4-3.1,0.5-4.6,1c-1,0.3-2,0.9-2.9,1.4c-0.8,0.4-1.1,0.3-1.1-0.6c0-6,0.9-11.7,5.2-16.3
					c1.3-1.3,2.8-1.6,4.5-1.8c2.4-0.1,5.6,2.1,7.1,5.9c1.1,2.7,1.8,5.5,2.6,8.2C70.3,99.8,70.2,100.4,70.2,101z"/>
				<path style="&st4;" d="M114.7,102.7c-0.3,0.5-1.3,1-1.6,0.8c-2.3-1.5-4.8-2.1-7.5-2.2c-0.5,0-0.9-0.3-1.4-0.5
					c-0.2-0.1-0.4-0.2-0.6-0.3c0.2-0.1,0.4-0.3,0.7-0.3c1.4-0.1,2.9-0.5,4.2-0.2c1.5,0.3,1.9-0.1,1.5-1.2c-0.8-2.2-1.8-4.3-2.9-6.3
					c-0.7-1.2-2-1.5-3-0.3c-1.3,1.6-2.5,3.4-3.2,5.3c-0.9,2.2-2.6,3.4-4.6,4.3c-0.2,0.1-0.9-0.4-0.8-0.6c0.5-4.8,1.7-9.4,4.7-13.2
					c3.8-4.8,8.6-3.6,11.3,1.2c2,3.6,2.9,7.6,3.2,11.4C114.8,101.6,115,102.3,114.7,102.7z"/>
				<path style="&st4;" d="M89,107.7c0,0.7-1.2,1.5-2,1.8c-1,0.4-2.2,0.3-3.5,0.4c-1-0.1-2.2,0-3.3-0.4c-0.7-0.2-1.6-0.9-1.7-1.5
					c-0.1-0.6,0.3-1.6,0.9-2.1c1.6-1.5,6.3-1.8,8.1-0.5C88.3,105.9,89.1,106.9,89,107.7z"/>
				<path style="&st4;" d="M66.6,80.1c0,0.2-0.5,0.8-0.7,0.8c-0.5,0-1.1-0.4-1.6-0.6c-2.6-1.1-5.1-1.5-7.4,0.5
					c-0.4,0.3-1,0.2-1.5,0.3c0.1-0.5,0.1-1.1,0.3-1.4c1.4-2,3-3.8,5.8-3.7C62.9,76,66.3,78.7,66.6,80.1z"/>
				<path style="&st4;" d="M112.4,81.5c-0.7-0.2-1.1-0.2-1.4-0.4c-2-1.5-4.2-2.2-6.7-1.6c-1,0.3-2,0.8-2.9,1.3
					c-0.3,0.1-0.6,0.1-0.9,0.1c0-0.3-0.1-0.7,0-0.9c1.5-3.9,6.5-4.9,9.3-2c0.8,0.8,1.4,1.7,2,2.5C112,80.6,112.1,80.9,112.4,81.5z"
					/>
			</g>
		</g>
	</g>
	<g transform="translate(80,80)">
		<g transform="translate(360,0) scale(0.4,0.4)">
			<g transform="">
				<rect x="-925.4" y="213" style="&st3;" width="11.1" height="11.1"/>
			</g>
		</g>
		<g transform="translate(400,0) scale(0.4,0.4)">
			<g transform="">
				<rect x="-1014.4" y="213" style="&st3;" width="11.1" height="11.1"/>
			</g>
		</g>
		<g transform="translate(560,0) scale(0.4,0.4)">
			<g transform="">
				<rect x="-1370.1" y="213" style="&st3;" width="11.1" height="11.1"/>
			</g>
		</g>
		<g transform="translate(640,0) scale(0.4,0.4)">
			<g transform="">
				<rect x="-1548" y="213" style="&st3;" width="11.1" height="11.1"/>
			</g>
		</g>
		<g transform="translate(320,40) scale(0.4,0.4)">
			<g transform="">
				<rect x="-836.5" y="124.1" style="&st3;" width="11.1" height="11.1"/>
			</g>
		</g>
		<g transform="translate(360,40) scale(0.4,0.4)">
			<g transform="">
				<rect x="-925.4" y="124.1" style="&st3;" width="11.1" height="11.1"/>
			</g>
		</g>
		<g transform="translate(400,40) scale(0.4,0.4)">
			<g transform="">
				<rect x="-1014.4" y="124.1" style="&st3;" width="11.1" height="11.1"/>
			</g>
		</g>
		<g transform="translate(440,40) scale(0.4,0.4)">
			<g transform="">
				<rect x="-1103.3" y="124.1" style="&st3;" width="11.1" height="11.1"/>
			</g>
		</g>
		<g transform="translate(520,40) scale(0.4,0.4)">
			<g transform="">
				<rect x="-1281.2" y="124.1" style="&st3;" width="11.1" height="11.1"/>
			</g>
		</g>
		<g transform="translate(560,40) scale(0.4,0.4)">
			<g transform="">
				<rect x="-1370.1" y="124.1" style="&st3;" width="11.1" height="11.1"/>
			</g>
		</g>
		<g transform="translate(640,40) scale(0.4,0.4)">
			<g transform="">
				<rect x="-1548" y="124.1" style="&st3;" width="11.1" height="11.1"/>
			</g>
		</g>
		<g transform="translate(320,80) scale(0.4,0.4)">
			<g transform="">
				<rect x="-836.5" y="35.2" style="&st3;" width="11.1" height="11.1"/>
			</g>
		</g>
		<g transform="translate(400,80) scale(0.4,0.4)">
			<g transform="">
				<rect x="-1014.4" y="35.2" style="&st3;" width="11.1" height="11.1"/>
			</g>
		</g>
		<g transform="translate(440,80) scale(0.4,0.4)">
			<g transform="">
				<rect x="-1103.3" y="35.2" style="&st3;" width="11.1" height="11.1"/>
			</g>
		</g>
		<g transform="translate(480,80) scale(0.4,0.4)">
			<g transform="">
				<rect x="-1192.3" y="35.2" style="&st3;" width="11.1" height="11.1"/>
			</g>
		</g>
		<g transform="translate(600,80) scale(0.4,0.4)">
			<g transform="">
				<rect x="-1459.1" y="35.2" style="&st3;" width="11.1" height="11.1"/>
			</g>
		</g>
		<g transform="translate(320,120) scale(0.4,0.4)">
			<g transform="">
				<rect x="-836.5" y="-53.8" style="&st3;" width="11.1" height="11.1"/>
			</g>
		</g>
		<g transform="translate(440,120) scale(0.4,0.4)">
			<g transform="">
				<rect x="-1103.3" y="-53.8" style="&st3;" width="11.1" height="11.1"/>
			</g>
		</g>
		<g transform="translate(520,120) scale(0.4,0.4)">
			<g transform="">
				<rect x="-1281.2" y="-53.8" style="&st3;" width="11.1" height="11.1"/>
			</g>
		</g>
		<g transform="translate(640,120) scale(0.4,0.4)">
			<g transform="">
				<rect x="-1548" y="-53.8" style="&st3;" width="11.1" height="11.1"/>
			</g>
		</g>
		<g transform="translate(360,160) scale(0.4,0.4)">
			<g transform="">
				<rect x="-925.4" y="-142.7" style="&st3;" width="11.1" height="11.1"/>
			</g>
		</g>
		<g transform="translate(400,160) scale(0.4,0.4)">
			<g transform="">
				<rect x="-1014.4" y="-142.7" style="&st3;" width="11.1" height="11.1"/>
			</g>
		</g>
		<g transform="translate(440,160) scale(0.4,0.4)">
			<g transform="">
				<rect x="-1103.3" y="-142.7" style="&st3;" width="11.1" height="11.1"/>
			</g>
		</g>
		<g transform="translate(560,160) scale(0.4,0.4)">
			<g transform="">
				<rect x="-1370.1" y="-142.7" style="&st3;" width="11.1" height="11.1"/>
			</g>
		</g>
		<g transform="translate(640,160) scale(0.4,0.4)">
			<g transform="">
				<rect x="-1548" y="-142.7" style="&st3;" width="11.1" height="11.1"/>
			</g>
		</g>
		<g transform="translate(360,200) scale(0.4,0.4)">
			<g transform="">
				<rect x="-925.4" y="-231.6" style="&st3;" width="11.1" height="11.1"/>
			</g>
		</g>
		<g transform="translate(520,200) scale(0.4,0.4)">
			<g transform="">
				<rect x="-1281.2" y="-231.6" style="&st3;" width="11.1" height="11.1"/>
			</g>
		</g>
		<g transform="translate(560,200) scale(0.4,0.4)">
			<g transform="">
				<rect x="-1370.1" y="-231.6" style="&st3;" width="11.1" height="11.1"/>
			</g>
		</g>
		<g transform="translate(640,200) scale(0.4,0.4)">
			<g transform="">
				<rect x="-1548" y="-231.6" style="&st3;" width="11.1" height="11.1"/>
			</g>
		</g>
		<g transform="translate(320,240) scale(0.4,0.4)">
			<g transform="">
				<rect x="-836.5" y="-320.6" style="&st3;" width="11.1" height="11.1"/>
			</g>
		</g>
		<g transform="translate(400,240) scale(0.4,0.4)">
			<g transform="">
				<rect x="-1014.4" y="-320.6" style="&st3;" width="11.1" height="11.1"/>
			</g>
		</g>
		<g transform="translate(480,240) scale(0.4,0.4)">
			<g transform="">
				<rect x="-1192.3" y="-320.6" style="&st3;" width="11.1" height="11.1"/>
			</g>
		</g>
		<g transform="translate(560,240) scale(0.4,0.4)">
			<g transform="">
				<rect x="-1370.1" y="-320.6" style="&st3;" width="11.1" height="11.1"/>
			</g>
		</g>
		<g transform="translate(640,240) scale(0.4,0.4)">
			<g transform="">
				<rect x="-1548" y="-320.6" style="&st3;" width="11.1" height="11.1"/>
			</g>
		</g>
		<g transform="translate(320,280) scale(0.4,0.4)">
			<g transform="">
				<rect x="-836.5" y="-409.5" style="&st3;" width="11.1" height="11.1"/>
			</g>
		</g>
		<g transform="translate(360,280) scale(0.4,0.4)">
			<g transform="">
				<rect x="-925.4" y="-409.5" style="&st3;" width="11.1" height="11.1"/>
			</g>
		</g>
		<g transform="translate(440,280) scale(0.4,0.4)">
			<g transform="">
				<rect x="-1103.3" y="-409.5" style="&st3;" width="11.1" height="11.1"/>
			</g>
		</g>
		<g transform="translate(480,280) scale(0.4,0.4)">
			<g transform="">
				<rect x="-1192.3" y="-409.5" style="&st3;" width="11.1" height="11.1"/>
			</g>
		</g>
		<g transform="translate(560,280) scale(0.4,0.4)">
			<g transform="">
				<rect x="-1370.1" y="-409.5" style="&st3;" width="11.1" height="11.1"/>
			</g>
		</g>
		<g transform="translate(600,280) scale(0.4,0.4)">
			<g transform="">
				<rect x="-1459.1" y="-409.5" style="&st3;" width="11.1" height="11.1"/>
			</g>
		</g>
		<g transform="translate(0,320) scale(0.4,0.4)">
			<g transform="">
				<rect x="-125" y="-498.5" style="&st3;" width="11.1" height="11.1"/>
			</g>
		</g>
		<g transform="translate(240,320) scale(0.4,0.4)">
			<g transform="">
				<rect x="-658.6" y="-498.5" style="&st3;" width="11.1" height="11.1"/>
			</g>
		</g>
		<g transform="translate(320,320) scale(0.4,0.4)">
			<g transform="">
				<rect x="-836.5" y="-498.5" style="&st3;" width="11.1" height="11.1"/>
			</g>
		</g>
		<g transform="translate(480,320) scale(0.4,0.4)">
			<g transform="">
				<rect x="-1192.3" y="-498.5" style="&st3;" width="11.1" height="11.1"/>
			</g>
		</g>
		<g transform="translate(520,320) scale(0.4,0.4)">
			<g transform="">
				<rect x="-1281.2" y="-498.5" style="&st3;" width="11.1" height="11.1"/>
			</g>
		</g>
		<g transform="translate(560,320) scale(0.4,0.4)">
			<g transform="">
				<rect x="-1370.1" y="-498.5" style="&st3;" width="11.1" height="11.1"/>
			</g>
		</g>
		<g transform="translate(680,320) scale(0.4,0.4)">
			<g transform="">
				<rect x="-1636.9" y="-498.5" style="&st3;" width="11.1" height="11.1"/>
			</g>
		</g>
		<g transform="translate(720,320) scale(0.4,0.4)">
			<g transform="">
				<rect x="-1725.9" y="-498.5" style="&st3;" width="11.1" height="11.1"/>
			</g>
		</g>
		<g transform="translate(840,320) scale(0.4,0.4)">
			<g transform="">
				<rect x="-1992.7" y="-498.5" style="&st3;" width="11.1" height="11.1"/>
			</g>
		</g>
		<g transform="translate(880,320) scale(0.4,0.4)">
			<g transform="">
				<rect x="-2081.6" y="-498.5" style="&st3;" width="11.1" height="11.1"/>
			</g>
		</g>
		<g transform="translate(920,320) scale(0.4,0.4)">
			<g transform="">
				<rect x="-2170.6" y="-498.5" style="&st3;" width="11.1" height="11.1"/>
			</g>
		</g>
		<g transform="translate(40,360) scale(0.4,0.4)">
			<g transform="">
				<rect x="-214" y="-587.4" style="&st3;" width="11.1" height="11.1"/>
			</g>
		</g>
		<g transform="translate(80,360) scale(0.4,0.4)">
			<g transform="">
				<rect x="-302.9" y="-587.4" style="&st3;" width="11.1" height="11.1"/>
			</g>
		</g>
		<g transform="translate(160,360) scale(0.4,0.4)">
			<g transform="">
				<rect x="-480.8" y="-587.4" style="&st3;" width="11.1" height="11.1"/>
			</g>
		</g>
		<g transform="translate(280,360) scale(0.4,0.4)">
			<g transform="">
				<rect x="-747.6" y="-587.4" style="&st3;" width="11.1" height="11.1"/>
			</g>
		</g>
		<g transform="translate(320,360) scale(0.4,0.4)">
			<g transform="">
				<rect x="-836.5" y="-587.4" style="&st3;" width="11.1" height="11.1"/>
			</g>
		</g>
		<g transform="translate(360,360) scale(0.4,0.4)">
			<g transform="">
				<rect x="-925.4" y="-587.4" style="&st3;" width="11.1" height="11.1"/>
			</g>
		</g>
		<g transform="translate(400,360) scale(0.4,0.4)">
			<g transform="">
				<rect x="-1014.4" y="-587.4" style="&st3;" width="11.1" height="11.1"/>
			</g>
		</g>
		<g transform="translate(440,360) scale(0.4,0.4)">
			<g transform="">
				<rect x="-1103.3" y="-587.4" style="&st3;" width="11.1" height="11.1"/>
			</g>
		</g>
		<g transform="translate(480,360) scale(0.4,0.4)">
			<g transform="">
				<rect x="-1192.3" y="-587.4" style="&st3;" width="11.1" height="11.1"/>
			</g>
		</g>
		<g transform="translate(520,360) scale(0.4,0.4)">
			<g transform="">
				<rect x="-1281.2" y="-587.4" style="&st3;" width="11.1" height="11.1"/>
			</g>
		</g>
		<g transform="translate(560,360) scale(0.4,0.4)">
			<g transform="">
				<rect x="-1370.1" y="-587.4" style="&st3;" width="11.1" height="11.1"/>
			</g>
		</g>
		<g transform="translate(600,360) scale(0.4,0.4)">
			<g transform="">
				<rect x="-1459.1" y="-587.4" style="&st3;" width="11.1" height="11.1"/>
			</g>
		</g>
		<g transform="translate(680,360) scale(0.4,0.4)">
			<g transform="">
				<rect x="-1636.9" y="-587.4" style="&st3;" width="11.1" height="11.1"/>
			</g>
		</g>
		<g transform="translate(760,360) scale(0.4,0.4)">
			<g transform="">
				<rect x="-1814.8" y="-587.4" style="&st3;" width="11.1" height="11.1"/>
			</g>
		</g>
		<g transform="translate(800,360) scale(0.4,0.4)">
			<g transform="">
				<rect x="-1903.8" y="-587.4" style="&st3;" width="11.1" height="11.1"/>
			</g>
		</g>
		<g transform="translate(840,360) scale(0.4,0.4)">
			<g transform="">
				<rect x="-1992.7" y="-587.4" style="&st3;" width="11.1" height="11.1"/>
			</g>
		</g>
		<g transform="translate(880,360) scale(0.4,0.4)">
			<g transform="">
				<rect x="-2081.6" y="-587.4" style="&st3;" width="11.1" height="11.1"/>
			</g>
		</g>
		<g transform="translate(920,360) scale(0.4,0.4)">
			<g transform="">
				<rect x="-2170.6" y="-587.4" style="&st3;" width="11.1" height="11.1"/>
			</g>
		</g>
		<g transform="translate(0,400) scale(0.4,0.4)">
			<g transform="">
				<rect x="-125" y="-676.3" style="&st3;" width="11.1" height="11.1"/>
			</g>
		</g>
		<g transform="translate(160,400) scale(0.4,0.4)">
			<g transform="">
				<rect x="-480.8" y="-676.3" style="&st3;" width="11.1" height="11.1"/>
			</g>
		</g>
		<g transform="translate(200,400) scale(0.4,0.4)">
			<g transform="">
				<rect x="-569.7" y="-676.3" style="&st3;" width="11.1" height="11.1"/>
			</g>
		</g>
		<g transform="translate(240,400) scale(0.4,0.4)">
			<g transform="">
				<rect x="-658.6" y="-676.3" style="&st3;" width="11.1" height="11.1"/>
			</g>
		</g>
		<g transform="translate(320,400) scale(0.4,0.4)">
			<g transform="">
				<rect x="-836.5" y="-676.3" style="&st3;" width="11.1" height="11.1"/>
			</g>
		</g>
		<g transform="translate(400,400) scale(0.4,0.4)">
			<g transform="">
				<rect x="-1014.4" y="-676.3" style="&st3;" width="11.1" height="11.1"/>
			</g>
		</g>
		<g transform="translate(440,400) scale(0.4,0.4)">
			<g transform="">
				<rect x="-1103.3" y="-676.3" style="&st3;" width="11.1" height="11.1"/>
			</g>
		</g>
		<g transform="translate(600,400) scale(0.4,0.4)">
			<g transform="">
				<rect x="-1459.1" y="-676.3" style="&st3;" width="11.1" height="11.1"/>
			</g>
		</g>
		<g transform="translate(640,400) scale(0.4,0.4)">
			<g transform="">
				<rect x="-1548" y="-676.3" style="&st3;" width="11.1" height="11.1"/>
			</g>
		</g>
		<g transform="translate(680,400) scale(0.4,0.4)">
			<g transform="">
				<rect x="-1636.9" y="-676.3" style="&st3;" width="11.1" height="11.1"/>
			</g>
		</g>
		<g transform="translate(720,400) scale(0.4,0.4)">
			<g transform="">
				<rect x="-1725.9" y="-676.3" style="&st3;" width="11.1" height="11.1"/>
			</g>
		</g>
		<g transform="translate(760,400) scale(0.4,0.4)">
			<g transform="">
				<rect x="-1814.8" y="-676.3" style="&st3;" width="11.1" height="11.1"/>
			</g>
		</g>
		<g transform="translate(800,400) scale(0.4,0.4)">
			<g transform="">
				<rect x="-1903.8" y="-676.3" style="&st3;" width="11.1" height="11.1"/>
			</g>
		</g>
		<g transform="translate(840,400) scale(0.4,0.4)">
			<g transform="">
				<rect x="-1992.7" y="-676.3" style="&st3;" width="11.1" height="11.1"/>
			</g>
		</g>
		<g transform="translate(920,400) scale(0.4,0.4)">
			<g transform="">
				<rect x="-2170.6" y="-676.3" style="&st3;" width="11.1" height="11.1"/>
			</g>
		</g>
		<g transform="translate(960,400) scale(0.4,0.4)">
			<g transform="">
				<rect x="-2259.5" y="-676.3" style="&st3;" width="11.1" height="11.1"/>
			</g>
		</g>
		<g transform="translate(0,440) scale(0.4,0.4)">
			<g transform="">
				<rect x="-125" y="-765.3" style="&st3;" width="11.1" height="11.1"/>
			</g>
		</g>
		<g transform="translate(80,440) scale(0.4,0.4)">
			<g transform="">
				<rect x="-302.9" y="-765.3" style="&st3;" width="11.1" height="11.1"/>
			</g>
		</g>
		<g transform="translate(360,440) scale(0.4,0.4)">
			<g transform="">
				<rect x="-925.4" y="-765.3" style="&st3;" width="11.1" height="11.1"/>
			</g>
		</g>
		<g transform="translate(480,440) scale(0.4,0.4)">
			<g transform="">
				<rect x="-1192.3" y="-765.3" style="&st3;" width="11.1" height="11.1"/>
			</g>
		</g>
		<g transform="translate(560,440) scale(0.4,0.4)">
			<g transform="">
				<rect x="-1370.1" y="-765.3" style="&st3;" width="11.1" height="11.1"/>
			</g>
		</g>
		<g transform="translate(680,440) scale(0.4,0.4)">
			<g transform="">
				<rect x="-1636.9" y="-765.3" style="&st3;" width="11.1" height="11.1"/>
			</g>
		</g>
		<g transform="translate(760,440) scale(0.4,0.4)">
			<g transform="">
				<rect x="-1814.8" y="-765.3" style="&st3;" width="11.1" height="11.1"/>
			</g>
		</g>
		<g transform="translate(840,440) scale(0.4,0.4)">
			<g transform="">
				<rect x="-1992.7" y="-765.3" style="&st3;" width="11.1" height="11.1"/>
			</g>
		</g>
		<g transform="translate(960,440) scale(0.4,0.4)">
			<g transform="">
				<rect x="-2259.5" y="-765.3" style="&st3;" width="11.1" height="11.1"/>
			</g>
		</g>
		<g transform="translate(40,480) scale(0.4,0.4)">
			<g transform="">
				<rect x="-214" y="-854.2" style="&st3;" width="11.1" height="11.1"/>
			</g>
		</g>
		<g transform="translate(80,480) scale(0.4,0.4)">
			<g transform="">
				<rect x="-302.9" y="-854.2" style="&st3;" width="11.1" height="11.1"/>
			</g>
		</g>
		<g transform="translate(160,480) scale(0.4,0.4)">
			<g transform="">
				<rect x="-480.8" y="-854.2" style="&st3;" width="11.1" height="11.1"/>
			</g>
		</g>
		<g transform="translate(240,480) scale(0.4,0.4)">
			<g transform="">
				<rect x="-658.6" y="-854.2" style="&st3;" width="11.1" height="11.1"/>
			</g>
		</g>
		<g transform="translate(280,480) scale(0.4,0.4)">
			<g transform="">
				<rect x="-747.6" y="-854.2" style="&st3;" width="11.1" height="11.1"/>
			</g>
		</g>
		<g transform="translate(320,480) scale(0.4,0.4)">
			<g transform="">
				<rect x="-836.5" y="-854.2" style="&st3;" width="11.1" height="11.1"/>
			</g>
		</g>
		<g transform="translate(360,480) scale(0.4,0.4)">
			<g transform="">
				<rect x="-925.4" y="-854.2" style="&st3;" width="11.1" height="11.1"/>
			</g>
		</g>
		<g transform="translate(400,480) scale(0.4,0.4)">
			<g transform="">
				<rect x="-1014.4" y="-854.2" style="&st3;" width="11.1" height="11.1"/>
			</g>
		</g>
		<g transform="translate(440,480) scale(0.4,0.4)">
			<g transform="">
				<rect x="-1103.3" y="-854.2" style="&st3;" width="11.1" height="11.1"/>
			</g>
		</g>
		<g transform="translate(480,480) scale(0.4,0.4)">
			<g transform="">
				<rect x="-1192.3" y="-854.2" style="&st3;" width="11.1" height="11.1"/>
			</g>
		</g>
		<g transform="translate(600,480) scale(0.4,0.4)">
			<g transform="">
				<rect x="-1459.1" y="-854.2" style="&st3;" width="11.1" height="11.1"/>
			</g>
		</g>
		<g transform="translate(640,480) scale(0.4,0.4)">
			<g transform="">
				<rect x="-1548" y="-854.2" style="&st3;" width="11.1" height="11.1"/>
			</g>
		</g>
		<g transform="translate(720,480) scale(0.4,0.4)">
			<g transform="">
				<rect x="-1725.9" y="-854.2" style="&st3;" width="11.1" height="11.1"/>
			</g>
		</g>
		<g transform="translate(960,480) scale(0.4,0.4)">
			<g transform="">
				<rect x="-2259.5" y="-854.2" style="&st3;" width="11.1" height="11.1"/>
			</g>
		</g>
		<g transform="translate(0,520) scale(0.4,0.4)">
			<g transform="">
				<rect x="-125" y="-943.1" style="&st3;" width="11.1" height="11.1"/>
			</g>
		</g>
		<g transform="translate(120,520) scale(0.4,0.4)">
			<g transform="">
				<rect x="-391.8" y="-943.1" style="&st3;" width="11.1" height="11.1"/>
			</g>
		</g>
		<g transform="translate(200,520) scale(0.4,0.4)">
			<g transform="">
				<rect x="-569.7" y="-943.1" style="&st3;" width="11.1" height="11.1"/>
			</g>
		</g>
		<g transform="translate(520,520) scale(0.4,0.4)">
			<g transform="">
				<rect x="-1281.2" y="-943.1" style="&st3;" width="11.1" height="11.1"/>
			</g>
		</g>
		<g transform="translate(600,520) scale(0.4,0.4)">
			<g transform="">
				<rect x="-1459.1" y="-943.1" style="&st3;" width="11.1" height="11.1"/>
			</g>
		</g>
		<g transform="translate(640,520) scale(0.4,0.4)">
			<g transform="">
				<rect x="-1548" y="-943.1" style="&st3;" width="11.1" height="11.1"/>
			</g>
		</g>
		<g transform="translate(680,520) scale(0.4,0.4)">
			<g transform="">
				<rect x="-1636.9" y="-943.1" style="&st3;" width="11.1" height="11.1"/>
			</g>
		</g>
		<g transform="translate(760,520) scale(0.4,0.4)">
			<g transform="">
				<rect x="-1814.8" y="-943.1" style="&st3;" width="11.1" height="11.1"/>
			</g>
		</g>
		<g transform="translate(920,520) scale(0.4,0.4)">
			<g transform="">
				<rect x="-2170.6" y="-943.1" style="&st3;" width="11.1" height="11.1"/>
			</g>
		</g>
		<g transform="translate(0,560) scale(0.4,0.4)">
			<g transform="">
				<rect x="-125" y="-1032.1" style="&st3;" width="11.1" height="11.1"/>
			</g>
		</g>
		<g transform="translate(120,560) scale(0.4,0.4)">
			<g transform="">
				<rect x="-391.8" y="-1032.1" style="&st3;" width="11.1" height="11.1"/>
			</g>
		</g>
		<g transform="translate(240,560) scale(0.4,0.4)">
			<g transform="">
				<rect x="-658.6" y="-1032.1" style="&st3;" width="11.1" height="11.1"/>
			</g>
		</g>
		<g transform="translate(280,560) scale(0.4,0.4)">
			<g transform="">
				<rect x="-747.6" y="-1032.1" style="&st3;" width="11.1" height="11.1"/>
			</g>
		</g>
		<g transform="translate(400,560) scale(0.4,0.4)">
			<g transform="">
				<rect x="-1014.4" y="-1032.1" style="&st3;" width="11.1" height="11.1"/>
			</g>
		</g>
		<g transform="translate(440,560) scale(0.4,0.4)">
			<g transform="">
				<rect x="-1103.3" y="-1032.1" style="&st3;" width="11.1" height="11.1"/>
			</g>
		</g>
		<g transform="translate(480,560) scale(0.4,0.4)">
			<g transform="">
				<rect x="-1192.3" y="-1032.1" style="&st3;" width="11.1" height="11.1"/>
			</g>
		</g>
		<g transform="translate(520,560) scale(0.4,0.4)">
			<g transform="">
				<rect x="-1281.2" y="-1032.1" style="&st3;" width="11.1" height="11.1"/>
			</g>
		</g>
		<g transform="translate(560,560) scale(0.4,0.4)">
			<g transform="">
				<rect x="-1370.1" y="-1032.1" style="&st3;" width="11.1" height="11.1"/>
			</g>
		</g>
		<g transform="translate(600,560) scale(0.4,0.4)">
			<g transform="">
				<rect x="-1459.1" y="-1032.1" style="&st3;" width="11.1" height="11.1"/>
			</g>
		</g>
		<g transform="translate(640,560) scale(0.4,0.4)">
			<g transform="">
				<rect x="-1548" y="-1032.1" style="&st3;" width="11.1" height="11.1"/>
			</g>
		</g>
		<g transform="translate(680,560) scale(0.4,0.4)">
			<g transform="">
				<rect x="-1636.9" y="-1032.1" style="&st3;" width="11.1" height="11.1"/>
			</g>
		</g>
		<g transform="translate(720,560) scale(0.4,0.4)">
			<g transform="">
				<rect x="-1725.9" y="-1032.1" style="&st3;" width="11.1" height="11.1"/>
			</g>
		</g>
		<g transform="translate(760,560) scale(0.4,0.4)">
			<g transform="">
				<rect x="-1814.8" y="-1032.1" style="&st3;" width="11.1" height="11.1"/>
			</g>
		</g>
		<g transform="translate(800,560) scale(0.4,0.4)">
			<g transform="">
				<rect x="-1903.8" y="-1032.1" style="&st3;" width="11.1" height="11.1"/>
			</g>
		</g>
		<g transform="translate(840,560) scale(0.4,0.4)">
			<g transform="">
				<rect x="-1992.7" y="-1032.1" style="&st3;" width="11.1" height="11.1"/>
			</g>
		</g>
		<g transform="translate(920,560) scale(0.4,0.4)">
			<g transform="">
				<rect x="-2170.6" y="-1032.1" style="&st3;" width="11.1" height="11.1"/>
			</g>
		</g>
		<g transform="translate(960,560) scale(0.4,0.4)">
			<g transform="">
				<rect x="-2259.5" y="-1032.1" style="&st3;" width="11.1" height="11.1"/>
			</g>
		</g>
		<g transform="translate(0,600) scale(0.4,0.4)">
			<g transform="">
				<rect x="-125" y="-1121" style="&st3;" width="11.1" height="11.1"/>
			</g>
		</g>
		<g transform="translate(80,600) scale(0.4,0.4)">
			<g transform="">
				<rect x="-302.9" y="-1121" style="&st3;" width="11.1" height="11.1"/>
			</g>
		</g>
		<g transform="translate(160,600) scale(0.4,0.4)">
			<g transform="">
				<rect x="-480.8" y="-1121" style="&st3;" width="11.1" height="11.1"/>
			</g>
		</g>
		<g transform="translate(200,600) scale(0.4,0.4)">
			<g transform="">
				<rect x="-569.7" y="-1121" style="&st3;" width="11.1" height="11.1"/>
			</g>
		</g>
		<g transform="translate(320,600) scale(0.4,0.4)">
			<g transform="">
				<rect x="-836.5" y="-1121" style="&st3;" width="11.1" height="11.1"/>
			</g>
		</g>
		<g transform="translate(440,600) scale(0.4,0.4)">
			<g transform="">
				<rect x="-1103.3" y="-1121" style="&st3;" width="11.1" height="11.1"/>
			</g>
		</g>
		<g transform="translate(560,600) scale(0.4,0.4)">
			<g transform="">
				<rect x="-1370.1" y="-1121" style="&st3;" width="11.1" height="11.1"/>
			</g>
		</g>
		<g transform="translate(600,600) scale(0.4,0.4)">
			<g transform="">
				<rect x="-1459.1" y="-1121" style="&st3;" width="11.1" height="11.1"/>
			</g>
		</g>
		<g transform="translate(640,600) scale(0.4,0.4)">
			<g transform="">
				<rect x="-1548" y="-1121" style="&st3;" width="11.1" height="11.1"/>
			</g>
		</g>
		<g transform="translate(680,600) scale(0.4,0.4)">
			<g transform="">
				<rect x="-1636.9" y="-1121" style="&st3;" width="11.1" height="11.1"/>
			</g>
		</g>
		<g transform="translate(760,600) scale(0.4,0.4)">
			<g transform="">
				<rect x="-1814.8" y="-1121" style="&st3;" width="11.1" height="11.1"/>
			</g>
		</g>
		<g transform="translate(840,600) scale(0.4,0.4)">
			<g transform="">
				<rect x="-1992.7" y="-1121" style="&st3;" width="11.1" height="11.1"/>
			</g>
		</g>
		<g transform="translate(880,600) scale(0.4,0.4)">
			<g transform="">
				<rect x="-2081.6" y="-1121" style="&st3;" width="11.1" height="11.1"/>
			</g>
		</g>
		<g transform="translate(960,600) scale(0.4,0.4)">
			<g transform="">
				<rect x="-2259.5" y="-1121" style="&st3;" width="11.1" height="11.1"/>
			</g>
		</g>
		<g transform="translate(0,640) scale(0.4,0.4)">
			<g transform="">
				<rect x="-125" y="-1209.9" style="&st3;" width="11.1" height="11.1"/>
			</g>
		</g>
		<g transform="translate(80,640) scale(0.4,0.4)">
			<g transform="">
				<rect x="-302.9" y="-1209.9" style="&st3;" width="11.1" height="11.1"/>
			</g>
		</g>
		<g transform="translate(120,640) scale(0.4,0.4)">
			<g transform="">
				<rect x="-391.8" y="-1209.9" style="&st3;" width="11.1" height="11.1"/>
			</g>
		</g>
		<g transform="translate(160,640) scale(0.4,0.4)">
			<g transform="">
				<rect x="-480.8" y="-1209.9" style="&st3;" width="11.1" height="11.1"/>
			</g>
		</g>
		<g transform="translate(240,640) scale(0.4,0.4)">
			<g transform="">
				<rect x="-658.6" y="-1209.9" style="&st3;" width="11.1" height="11.1"/>
			</g>
		</g>
		<g transform="translate(280,640) scale(0.4,0.4)">
			<g transform="">
				<rect x="-747.6" y="-1209.9" style="&st3;" width="11.1" height="11.1"/>
			</g>
		</g>
		<g transform="translate(320,640) scale(0.4,0.4)">
			<g transform="">
				<rect x="-836.5" y="-1209.9" style="&st3;" width="11.1" height="11.1"/>
			</g>
		</g>
		<g transform="translate(440,640) scale(0.4,0.4)">
			<g transform="">
				<rect x="-1103.3" y="-1209.9" style="&st3;" width="11.1" height="11.1"/>
			</g>
		</g>
		<g transform="translate(600,640) scale(0.4,0.4)">
			<g transform="">
				<rect x="-1459.1" y="-1209.9" style="&st3;" width="11.1" height="11.1"/>
			</g>
		</g>
		<g transform="translate(640,640) scale(0.4,0.4)">
			<g transform="">
				<rect x="-1548" y="-1209.9" style="&st3;" width="11.1" height="11.1"/>
			</g>
		</g>
		<g transform="translate(680,640) scale(0.4,0.4)">
			<g transform="">
				<rect x="-1636.9" y="-1209.9" style="&st3;" width="11.1" height="11.1"/>
			</g>
		</g>
		<g transform="translate(720,640) scale(0.4,0.4)">
			<g transform="">
				<rect x="-1725.9" y="-1209.9" style="&st3;" width="11.1" height="11.1"/>
			</g>
		</g>
		<g transform="translate(760,640) scale(0.4,0.4)">
			<g transform="">
				<rect x="-1814.8" y="-1209.9" style="&st3;" width="11.1" height="11.1"/>
			</g>
		</g>
		<g transform="translate(800,640) scale(0.4,0.4)">
			<g transform="">
				<rect x="-1903.8" y="-1209.9" style="&st3;" width="11.1" height="11.1"/>
			</g>
		</g>
		<g transform="translate(880,640) scale(0.4,0.4)">
			<g transform="">
				<rect x="-2081.6" y="-1209.9" style="&st3;" width="11.1" height="11.1"/>
			</g>
		</g>
		<g transform="translate(320,680) scale(0.4,0.4)">
			<g transform="">
				<rect x="-836.5" y="-1298.9" style="&st3;" width="11.1" height="11.1"/>
			</g>
		</g>
		<g transform="translate(360,680) scale(0.4,0.4)">
			<g transform="">
				<rect x="-925.4" y="-1298.9" style="&st3;" width="11.1" height="11.1"/>
			</g>
		</g>
		<g transform="translate(480,680) scale(0.4,0.4)">
			<g transform="">
				<rect x="-1192.3" y="-1298.9" style="&st3;" width="11.1" height="11.1"/>
			</g>
		</g>
		<g transform="translate(520,680) scale(0.4,0.4)">
			<g transform="">
				<rect x="-1281.2" y="-1298.9" style="&st3;" width="11.1" height="11.1"/>
			</g>
		</g>
		<g transform="translate(600,680) scale(0.4,0.4)">
			<g transform="">
				<rect x="-1459.1" y="-1298.9" style="&st3;" width="11.1" height="11.1"/>
			</g>
		</g>
		<g transform="translate(640,680) scale(0.4,0.4)">
			<g transform="">
				<rect x="-1548" y="-1298.9" style="&st3;" width="11.1" height="11.1"/>
			</g>
		</g>
		<g transform="translate(800,680) scale(0.4,0.4)">
			<g transform="">
				<rect x="-1903.8" y="-1298.9" style="&st3;" width="11.1" height="11.1"/>
			</g>
		</g>
		<g transform="translate(360,720) scale(0.4,0.4)">
			<g transform="">
				<rect x="-925.4" y="-1387.8" style="&st3;" width="11.1" height="11.1"/>
			</g>
		</g>
		<g transform="translate(440,720) scale(0.4,0.4)">
			<g transform="">
				<rect x="-1103.3" y="-1387.8" style="&st3;" width="11.1" height="11.1"/>
			</g>
		</g>
		<g transform="translate(640,720) scale(0.4,0.4)">
			<g transform="">
				<rect x="-1548" y="-1387.8" style="&st3;" width="11.1" height="11.1"/>
			</g>
		</g>
		<g transform="translate(720,720) scale(0.4,0.4)">
			<g transform="">
				<rect x="-1725.9" y="-1387.8" style="&st3;" width="11.1" height="11.1"/>
			</g>
		</g>
		<g transform="translate(800,720) scale(0.4,0.4)">
			<g transform="">
				<rect x="-1903.8" y="-1387.8" style="&st3;" width="11.1" height="11.1"/>
			</g>
		</g>
		<g transform="translate(960,720) scale(0.4,0.4)">
			<g transform="">
				<rect x="-2259.5" y="-1387.8" style="&st3;" width="11.1" height="11.1"/>
			</g>
		</g>
		<g transform="translate(360,760) scale(0.4,0.4)">
			<g transform="">
				<rect x="-925.4" y="-1476.8" style="&st3;" width="11.1" height="11.1"/>
			</g>
		</g>
		<g transform="translate(400,760) scale(0.4,0.4)">
			<g transform="">
				<rect x="-1014.4" y="-1476.8" style="&st3;" width="11.1" height="11.1"/>
			</g>
		</g>
		<g transform="translate(480,760) scale(0.4,0.4)">
			<g transform="">
				<rect x="-1192.3" y="-1476.8" style="&st3;" width="11.1" height="11.1"/>
			</g>
		</g>
		<g transform="translate(520,760) scale(0.4,0.4)">
			<g transform="">
				<rect x="-1281.2" y="-1476.8" style="&st3;" width="11.1" height="11.1"/>
			</g>
		</g>
		<g transform="translate(600,760) scale(0.4,0.4)">
			<g transform="">
				<rect x="-1459.1" y="-1476.8" style="&st3;" width="11.1" height="11.1"/>
			</g>
		</g>
		<g transform="translate(640,760) scale(0.4,0.4)">
			<g transform="">
				<rect x="-1548" y="-1476.8" style="&st3;" width="11.1" height="11.1"/>
			</g>
		</g>
		<g transform="translate(800,760) scale(0.4,0.4)">
			<g transform="">
				<rect x="-1903.8" y="-1476.8" style="&st3;" width="11.1" height="11.1"/>
			</g>
		</g>
		<g transform="translate(920,760) scale(0.4,0.4)">
			<g transform="">
				<rect x="-2170.6" y="-1476.8" style="&st3;" width="11.1" height="11.1"/>
			</g>
		</g>
		<g transform="translate(960,760) scale(0.4,0.4)">
			<g transform="">
				<rect x="-2259.5" y="-1476.8" style="&st3;" width="11.1" height="11.1"/>
			</g>
		</g>
		<g transform="translate(360,800) scale(0.4,0.4)">
			<g transform="">
				<rect x="-925.4" y="-1565.7" style="&st3;" width="11.1" height="11.1"/>
			</g>
		</g>
		<g transform="translate(480,800) scale(0.4,0.4)">
			<g transform="">
				<rect x="-1192.3" y="-1565.7" style="&st3;" width="11.1" height="11.1"/>
			</g>
		</g>
		<g transform="translate(560,800) scale(0.4,0.4)">
			<g transform="">
				<rect x="-1370.1" y="-1565.7" style="&st3;" width="11.1" height="11.1"/>
			</g>
		</g>
		<g transform="translate(600,800) scale(0.4,0.4)">
			<g transform="">
				<rect x="-1459.1" y="-1565.7" style="&st3;" width="11.1" height="11.1"/>
			</g>
		</g>
		<g transform="translate(640,800) scale(0.4,0.4)">
			<g transform="">
				<rect x="-1548" y="-1565.7" style="&st3;" width="11.1" height="11.1"/>
			</g>
		</g>
		<g transform="translate(680,800) scale(0.4,0.4)">
			<g transform="">
				<rect x="-1636.9" y="-1565.7" style="&st3;" width="11.1" height="11.1"/>
			</g>
		</g>
		<g transform="translate(720,800) scale(0.4,0.4)">
			<g transform="">
				<rect x="-1725.9" y="-1565.7" style="&st3;" width="11.1" height="11.1"/>
			</g>
		</g>
		<g transform="translate(760,800) scale(0.4,0.4)">
			<g transform="">
				<rect x="-1814.8" y="-1565.7" style="&st3;" width="11.1" height="11.1"/>
			</g>
		</g>
		<g transform="translate(800,800) scale(0.4,0.4)">
			<g transform="">
				<rect x="-1903.8" y="-1565.7" style="&st3;" width="11.1" height="11.1"/>
			</g>
		</g>
		<g transform="translate(880,800) scale(0.4,0.4)">
			<g transform="">
				<rect x="-2081.6" y="-1565.7" style="&st3;" width="11.1" height="11.1"/>
			</g>
		</g>
		<g transform="translate(920,800) scale(0.4,0.4)">
			<g transform="">
				<rect x="-2170.6" y="-1565.7" style="&st3;" width="11.1" height="11.1"/>
			</g>
		</g>
		<g transform="translate(960,800) scale(0.4,0.4)">
			<g transform="">
				<rect x="-2259.5" y="-1565.7" style="&st3;" width="11.1" height="11.1"/>
			</g>
		</g>
		<g transform="translate(360,840) scale(0.4,0.4)">
			<g transform="">
				<rect x="-925.4" y="-1654.6" style="&st3;" width="11.1" height="11.1"/>
			</g>
		</g>
		<g transform="translate(560,840) scale(0.4,0.4)">
			<g transform="">
				<rect x="-1370.1" y="-1654.6" style="&st3;" width="11.1" height="11.1"/>
			</g>
		</g>
		<g transform="translate(600,840) scale(0.4,0.4)">
			<g transform="">
				<rect x="-1459.1" y="-1654.6" style="&st3;" width="11.1" height="11.1"/>
			</g>
		</g>
		<g transform="translate(720,840) scale(0.4,0.4)">
			<g transform="">
				<rect x="-1725.9" y="-1654.6" style="&st3;" width="11.1" height="11.1"/>
			</g>
		</g>
		<g transform="translate(920,840) scale(0.4,0.4)">
			<g transform="">
				<rect x="-2170.6" y="-1654.6" style="&st3;" width="11.1" height="11.1"/>
			</g>
		</g>
		<g transform="translate(960,840) scale(0.4,0.4)">
			<g transform="">
				<rect x="-2259.5" y="-1654.6" style="&st3;" width="11.1" height="11.1"/>
			</g>
		</g>
		<g transform="translate(440,880) scale(0.4,0.4)">
			<g transform="">
				<rect x="-1103.3" y="-1743.6" style="&st3;" width="11.1" height="11.1"/>
			</g>
		</g>
		<g transform="translate(480,880) scale(0.4,0.4)">
			<g transform="">
				<rect x="-1192.3" y="-1743.6" style="&st3;" width="11.1" height="11.1"/>
			</g>
		</g>
		<g transform="translate(640,880) scale(0.4,0.4)">
			<g transform="">
				<rect x="-1548" y="-1743.6" style="&st3;" width="11.1" height="11.1"/>
			</g>
		</g>
		<g transform="translate(840,880) scale(0.4,0.4)">
			<g transform="">
				<rect x="-1992.7" y="-1743.6" style="&st3;" width="11.1" height="11.1"/>
			</g>
		</g>
		<g transform="translate(880,880) scale(0.4,0.4)">
			<g transform="">
				<rect x="-2081.6" y="-1743.6" style="&st3;" width="11.1" height="11.1"/>
			</g>
		</g>
		<g transform="translate(960,880) scale(0.4,0.4)">
			<g transform="">
				<rect x="-2259.5" y="-1743.6" style="&st3;" width="11.1" height="11.1"/>
			</g>
		</g>
		<g transform="translate(400,920) scale(0.4,0.4)">
			<g transform="">
				<rect x="-1014.4" y="-1832.5" style="&st3;" width="11.1" height="11.1"/>
			</g>
		</g>
		<g transform="translate(440,920) scale(0.4,0.4)">
			<g transform="">
				<rect x="-1103.3" y="-1832.5" style="&st3;" width="11.1" height="11.1"/>
			</g>
		</g>
		<g transform="translate(560,920) scale(0.4,0.4)">
			<g transform="">
				<rect x="-1370.1" y="-1832.5" style="&st3;" width="11.1" height="11.1"/>
			</g>
		</g>
		<g transform="translate(640,920) scale(0.4,0.4)">
			<g transform="">
				<rect x="-1548" y="-1832.5" style="&st3;" width="11.1" height="11.1"/>
			</g>
		</g>
		<g transform="translate(680,920) scale(0.4,0.4)">
			<g transform="">
				<rect x="-1636.9" y="-1832.5" style="&st3;" width="11.1" height="11.1"/>
			</g>
		</g>
		<g transform="translate(760,920) scale(0.4,0.4)">
			<g transform="">
				<rect x="-1814.8" y="-1832.5" style="&st3;" width="11.1" height="11.1"/>
			</g>
		</g>
		<g transform="translate(800,920) scale(0.4,0.4)">
			<g transform="">
				<rect x="-1903.8" y="-1832.5" style="&st3;" width="11.1" height="11.1"/>
			</g>
		</g>
		<g transform="translate(960,920) scale(0.4,0.4)">
			<g transform="">
				<rect x="-2259.5" y="-1832.5" style="&st3;" width="11.1" height="11.1"/>
			</g>
		</g>
		<g transform="translate(320,960) scale(0.4,0.4)">
			<g transform="">
				<rect x="-836.5" y="-1921.4" style="&st3;" width="11.1" height="11.1"/>
			</g>
		</g>
		<g transform="translate(400,960) scale(0.4,0.4)">
			<g transform="">
				<rect x="-1014.4" y="-1921.4" style="&st3;" width="11.1" height="11.1"/>
			</g>
		</g>
		<g transform="translate(520,960) scale(0.4,0.4)">
			<g transform="">
				<rect x="-1281.2" y="-1921.4" style="&st3;" width="11.1" height="11.1"/>
			</g>
		</g>
		<g transform="translate(560,960) scale(0.4,0.4)">
			<g transform="">
				<rect x="-1370.1" y="-1921.4" style="&st3;" width="11.1" height="11.1"/>
			</g>
		</g>
		<g transform="translate(640,960) scale(0.4,0.4)">
			<g transform="">
				<rect x="-1548" y="-1921.4" style="&st3;" width="11.1" height="11.1"/>
			</g>
		</g>
		<g transform="translate(680,960) scale(0.4,0.4)">
			<g transform="">
				<rect x="-1636.9" y="-1921.4" style="&st3;" width="11.1" height="11.1"/>
			</g>
		</g>
		<g transform="translate(840,960) scale(0.4,0.4)">
			<g transform="">
				<rect x="-1992.7" y="-1921.4" style="&st3;" width="11.1" height="11.1"/>
			</g>
		</g>
		<g transform="translate(960,960) scale(0.4,0.4)">
			<g transform="">
				<rect x="-2259.5" y="-1921.4" style="&st3;" width="11.1" height="11.1"/>
			</g>
		</g>
		<g transform="translate(0,0) scale(2.8, 2.8)">
			<g transform="">
				<g>
					<rect x="-16.2" y="32.1" style="&st5;" width="7.7" height="7.7"/>
					<path style="&st3;" d="M-8.5,30.4h-7.7h-1.7v1.7v7.7v1.7h1.7h7.7h1.7v-1.7v-7.7v-1.7H-8.5z M-8.5,39.8h-7.7v-7.7h7.7V39.8z"/>
				</g>
			</g>
		</g>
		<g transform="translate(720,0) scale(2.8, 2.8)">
			<g transform="">
				<g>
					<rect x="-244.9" y="32.1" style="&st5;" width="7.7" height="7.7"/>
					<path style="&st3;" d="M-237.2,30.4h-7.7h-1.7v1.7v7.7v1.7h1.7h7.7h1.7v-1.7v-7.7v-1.7H-237.2z M-237.2,39.8h-7.7v-7.7h7.7
						V39.8z"/>
				</g>
			</g>
		</g>
		<g transform="translate(0,720) scale(2.8, 2.8)">
			<g transform="">
				<g>
					<rect x="-16.2" y="-196.6" style="&st5;" width="7.7" height="7.7"/>
					<path style="&st3;" d="M-8.5-198.3h-7.7h-1.7v1.7v7.7v1.7h1.7h7.7h1.7v-1.7v-7.7v-1.7H-8.5z M-8.5-188.9h-7.7v-7.7h7.7V-188.9z
						"/>
				</g>
			</g>
		</g>
		<g transform="translate(80,80) scale(1.2, 1.2)">
			<g transform="">
				<rect x="-101" y="11.7" style="&st3;" width="11.1" height="11.1"/>
			</g>
		</g>
		<g transform="translate(800,80) scale(1.2, 1.2)">
			<g transform="">
				<rect x="-634.6" y="11.7" style="&st3;" width="11.1" height="11.1"/>
			</g>
		</g>
		<g transform="translate(80,800) scale(1.2, 1.2)">
			<g transform="">
				<rect x="-101" y="-521.9" style="&st3;" width="11.1" height="11.1"/>
			</g>
		</g>
	</g>
</g>
</svg>
