<?xml version="1.0" encoding="utf-8"?>
<!-- Generator: Adobe Illustrator 28.6.0, SVG Export Plug-In . SVG Version: 9.03 Build 54939)  -->
<!DOCTYPE svg PUBLIC "-//W3C//DTD SVG 1.1//EN" "http://www.w3.org/Graphics/SVG/1.1/DTD/svg11.dtd" [
	<!ENTITY st0 "fill:#004989;">
	<!ENTITY st1 "fill:#C92922;">
	<!ENTITY st2 "fill:#2C52A0;">
	<!ENTITY st3 "fill:#FFFFFF;">
	<!ENTITY st4 "fill:#020203;">
	<!ENTITY st5 "fill:none;">
	<!ENTITY st6 "fill:#F7B116;">
	<!ENTITY st7 "fill:#FFFFFF;stroke:#FFFFFF;stroke-width:2.7101;stroke-miterlimit:10;">
	<!ENTITY st8 "fill:none;stroke:#000000;stroke-width:0.946;stroke-miterlimit:10;">
	<!ENTITY st9 "fill:none;stroke:#000000;stroke-width:0.8684;stroke-miterlimit:10;">
	<!ENTITY st10 "fill:#FFFFFF;stroke:#FFFFFF;stroke-width:1.3866;stroke-miterlimit:10;">
	<!ENTITY st11 "fill:none;stroke:#000000;stroke-width:0.837;stroke-miterlimit:10;">
]>
<svg version="1.1" id="Capa_1" xmlns="http://www.w3.org/2000/svg" xmlns:xlink="http://www.w3.org/1999/xlink" x="0px" y="0px"
	 viewBox="0 0 142.8 277.3" style="enable-background:new 0 0 142.8 277.3;" xml:space="preserve">
<g>
	<rect width="142.8" height="277.3"/>
</g>
<g>
	<path style="&st3;" d="M44.9,130.1c0.4,0.1,0.9,0.3,1.4,0.5C45.8,130.5,45.3,130.3,44.9,130.1"/>
	<g>
		<path style="&st3;" d="M118.5,118.5c0.3-0.3,0.6-0.6,0.9-0.9c0.1-0.1,0.2-0.2,0.2-0.3C119.2,117.7,118.9,118.1,118.5,118.5z"/>
		<path style="&st3;" d="M44.9,130.1c0.5,0.2,0.9,0.3,1.4,0.5C45.8,130.4,45.3,130.3,44.9,130.1z"/>
		<path style="&st3;" d="M131.7,43c1.3-4.8,2.3-9.8,2.1-14.8c-0.1-3.3-0.9-6.3-3.3-8.3c-0.8-0.7-1.7-1.2-2.9-1.7
			c-0.3-0.1-0.7-0.2-1-0.3c-0.1,0-0.2,0-0.4-0.1c-0.2-0.1-0.5-0.1-0.7-0.2c-0.1,0-0.3,0-0.4-0.1c-0.2,0-0.4-0.1-0.6-0.1
			c-0.1,0-0.3,0-0.4,0c-0.2,0-0.4,0-0.6,0h-0.3c-0.5,0-1,0-1.5,0.1c-0.1,0-0.1,0-0.2,0c-0.5,0.1-1.1,0.2-1.6,0.3
			c-0.9,0.2-1.7,0.5-2.6,0.9c-5.4,2.2-9.3,6.2-13.1,10.3l-0.1,0.1c-0.1,0.1-0.2,0.3-0.4,0.3c0,0-0.1,0.1-0.1,0.1
			c-0.1,0.1-0.2,0.1-0.3,0.2c0,0-0.1,0-0.1,0.1c-0.1,0-0.2,0.1-0.2,0.1c0,0-0.1,0-0.1,0c-0.1,0-0.1,0-0.2,0c-0.1,0-0.1,0-0.2,0
			c-0.1,0-0.1,0-0.2,0c-0.1,0-0.1,0-0.2-0.1c-0.1,0-0.1,0-0.2-0.1c-0.1,0-0.1-0.1-0.2-0.1c-0.1,0-0.1,0-0.2-0.1l0,0
			c-0.1-0.1-0.3-0.1-0.4-0.2c-3.2-1.7-6.3-3.5-9.6-4.9c-5-2.1-10.3-3-15.8-3.3c-1.8,0-3.7,0-5.5,0c-1.8,0.2-3.7,0.4-5.5,0.7
			c-5.8,0.9-11.2,2.7-16.2,5.7c-0.1,0.1-0.3,0.1-0.4,0.1c0,0-0.1,0-0.1,0c-0.1,0-0.1,0-0.2,0c0,0-0.1,0-0.1,0c-0.1,0-0.3,0-0.4-0.1
			c-0.1,0-0.1,0-0.2,0c-0.2-0.1-0.4-0.1-0.5-0.2c-2.1-1.5-4-3.3-6-4.8c-0.7-0.5-1.4-1-2.1-1.5l-1.2-0.8c-0.1-0.1-0.2-0.1-0.3-0.2
			c-0.3-0.2-0.6-0.4-0.9-0.5c-0.1-0.1-0.3-0.2-0.5-0.3c-0.3-0.1-0.5-0.3-0.8-0.4c-0.2-0.1-0.3-0.2-0.5-0.2c-0.3-0.1-0.5-0.2-0.8-0.3
			c-0.2-0.1-0.4-0.1-0.6-0.2c-0.3-0.1-0.5-0.2-0.8-0.3c-0.2-0.1-0.4-0.1-0.6-0.2c-0.3-0.1-0.5-0.1-0.8-0.2c-0.2,0-0.4-0.1-0.6-0.1
			c-0.3,0-0.5-0.1-0.8-0.1c-0.2,0-0.4,0-0.7,0c-0.2,0-0.4,0-0.6,0h-0.3c-0.2,0-0.4,0-0.7,0c-6.6,0.5-10.3,4.4-10.5,11
			c0,0.6,0,1.2,0,1.7c0,3.1,0.3,6.2,1,9.3c1.6,6.7,3.1,13.5,4.5,20.3c0.1,0.5,0.3,1,0.4,1.6c0.2,0.5,0.3,1.1,0.5,1.6
			c0.2,0.8,0.3,1.6,0.2,2.5c0,0.3-0.1,0.6-0.2,0.9c-0.6,1.7-1,3.4-1.2,5.1c-0.2,1.3-0.3,2.5-0.3,3.8c0,0.5,0,1,0,1.5
			c0,1.8,0,3.7,0.1,5.5c0.1,1.3,0.2,2.6,0.2,3.8c0,0.4-0.1,0.9-0.1,1.3c0,0.1-0.1,0.3-0.1,0.4c-0.2,0.5-0.3,1-0.5,1.5
			c-0.1,0.5-0.3,1-0.4,1.5c0,0,0,0,0,0c-0.2,0.7-3.4,10.4,2,20c0,0.1,0.1,0.1,0.1,0.2c0.6,1.3,1.3,2.5,2,3.6
			c2.1,3.4,4.8,6.5,8.2,9.2c3.1,2.5,6.5,4.4,10.1,5.8l0,0c0.1,0.1,0.6,0.3,1.3,0.5c0.2,0.1,0.4,0.1,0.6,0.2c0.4,0.1,0.9,0.3,1.4,0.5
			c0.3,0.1,0.6,0.2,0.9,0.3c0.2,0.1,0.5,0.2,0.8,0.2c3.6,1.1,8.8,2.5,14.7,3.2c2,0.3,4,0.4,6.1,0.5c2.9,0.1,5.8,0,8.8-0.3
			c0.2,0,0.4,0,0.5,0c0.4,0,1.6-0.3,2-0.3c0.5,0,1-0.1,1.4-0.2c7.1-0.9,13-2.5,17.6-4.1c8.4-2.9,12.9-5.9,13.3-6.2c0,0,0,0,0,0
			c1.1-0.8,2.2-1.7,3.3-2.5c0.8-0.6,1.5-1.4,2.2-2.2c0.1-0.2,0.3-0.3,0.4-0.5c0.4-0.4,0.8-0.9,1.1-1.3c0.4-0.4,0.7-0.8,1-1.2
			c0-0.1,0.1-0.1,0.1-0.1c2.9-3.8,3.4-6,3.4-6c0.1-0.1,0.1-0.2,0.1-0.4c0-0.1,0.1-0.2,0.1-0.3c0.1-0.3,0.3-0.7,0.4-1
			c0.1-0.4,0.3-0.8,0.4-1.2c0.1-0.4,0.2-0.7,0.3-1c0.1-0.4,0.2-0.8,0.3-1.2c0.1-0.3,0.2-0.7,0.2-1c0.1-0.4,0.1-0.8,0.2-1.3
			c0-0.2,0-0.3,0.1-0.5s0-0.3,0.1-0.5c0-0.4,0.1-0.9,0.1-1.4c0-0.3,0-0.6,0.1-0.9c0-0.5,0-1,0-1.5V97c0-0.6-0.1-1.2-0.2-1.8
			c0-0.2,0-0.4,0-0.5c-0.1-0.8-0.3-1.6-0.4-2.4c-0.6-2.7-1-5.8-0.5-8.5c0.9-4.5,0-8.9-0.4-13.3c-0.1-2.2-0.5-4.1,0.2-6.3
			C127.5,57.2,129.8,50.1,131.7,43L131.7,43z M23.8,39.9c-0.1-0.7-0.3-1.4-0.4-2.2c0-0.3-0.1-0.5-0.1-0.7
			c-1.1-7.5-0.2-10.6,0.1-11.4c0.1-0.2,0.1-0.3,0.1-0.3c1.1-2.1,2.7-2.8,5.2-2.4c0.5,0,0.9,0.1,1.5,0.3c3.5,0.9,6.4,3.1,9.1,5.4
			c0.9,0.8,1.9,1.4,2.7,2.3c0.6,0.6,0.7,1.4-0.2,2c-3.3,2.2-6,5.1-8.6,8.1c-0.7,0.8-0.9,0.9-1.2,0.1c0-0.1-0.1-0.2-0.1-0.3
			c-0.3-1-0.7-2.1-1-3.1c-0.5-1.5-1.5-2.1-3.1-2c-1.6,0.1-2.2,0.8-2,2.2c0.4,2.1,0.9,4.1,1.3,6.1c0.4,2,0.9,4.1,1.2,6.1
			c0.1,0.5,0.1,1-0.1,1.5c-0.2,0.5-0.6,0.9-0.9,1.4c-0.3-0.4-0.8-0.9-0.9-1.4C25.5,47.8,24.6,43.9,23.8,39.9z M118.9,105.2
			c-1.1,4.9-3.9,8.9-7.5,12.1c-3,2.7-6.6,4.6-10.1,6.6c-1.2,0.7-2.5,1.3-3.7,1.8c-3.5,1.5-7.1,2.6-10.9,3.3
			c-4.8,0.9-7.8,1.8-14.6,2.1c-7.7-0.4-14.9-1.8-21.8-4.4c-4.2-1.6-8.2-3.7-12-6.3c-6.3-4.2-10.6-9.9-11.7-17.3
			c-0.7-4.6-0.9-9.6,2-13.9c0.4-0.5,0.3-1.4,0.3-2.2c-0.1-3.9-0.8-7.8-0.3-11.6c0.7-5.8,2.5-11.3,5.8-16.2c0.3-0.4,0.5-0.8,0.8-1.2
			c2.9-4.1,6.5-7.5,10.5-10.4c1.9-1.4,3.9-0.2,5.7,0.4c1.7,0.5,3.4,1.4,4.8,2.5c1.5,1.2,3,2.6,3.9,4.2c2.1,3.7,3.8,7.6,5.7,11.4
			c0.3,0.7,0.4,1.5,0.8,2c0.9,1.3,1.7,2.8,3.9,2.6c2.8-0.3,5.6,0.1,8.4-0.2c1.6-0.2,2.3-1.8,2.7-3.3c0.5-1.7,0.7-3.4,1.4-5
			c2.5-5.6,6.1-10.3,11.5-13.5c1.3-0.7,2.7-1.4,4.1-1.7c2-0.5,3.7,0.6,5.2,1.8c3.2,2.7,6.2,5.6,8.5,9.1c0.2,0.3,0.5,0.7,0.7,1
			c2.3,3.8,4.1,7.8,4.6,12.4c0.3,3.2,0.8,6.5,0.9,9.7c0.1,1.9-0.3,3.9-0.4,5.8c-0.1,0.9-0.1,1.9,0,2.8c0.4,2,0.9,4,1.5,5.9
			C120.5,99,119.5,102.1,118.9,105.2z M124.4,47.7c-0.7,2.9-1.6,5.8-2.4,8.7c-0.1,0.2-0.4,0.3-0.6,0.5c-0.4-1.2-1.3-2.5-1.1-3.6
			c0.8-4.2,2-8.2,3-12.3c0.1-0.6,0.3-1.2,0.3-1.7c0-0.1,0.3-1.5-0.5-2.2c-1.4-1.1-2.7,0-3.5,0.7c-1,1-1.4,2.6-2.1,3.9
			c-0.2,0.5-0.3,1.1-0.5,1.7c-0.5,1.1-0.9,0.9-1.7,0.1c-0.1-0.1-0.1-0.1-0.2-0.2c-2.5-2.8-5.1-5.6-7.8-8.3c-0.6-0.6-0.7-0.8-0.2-1.3
			c3.4-3.6,7.1-6.9,11.5-9.2c0.7-0.4,1.5-0.7,2.3-1c2.2-0.9,4.6-0.2,6,2.1c0,0,0.1,0.1,0.1,0.1c0.1,0.1,0.1,0.2,0.2,0.3
			c0,0.1,0.1,0.2,0.1,0.3c0.6,1.6,0.5,4.3,0.1,7.3C126.6,39.9,124.4,47.7,124.4,47.7L124.4,47.7z"/>
		<path style="&st3;" d="M88.8,106c-0.2-0.1-0.8,0.5-1.2,0.8c-0.7,0.4-1.3,0.9-2.1,1.2c-4.5,1.7-8.1-0.3-10.9-3.4
			c-1.4-1.6-1.8-0.9-2.7,0c-2.9,3-6.5,4.4-10.7,3.9c-1.4-0.2-2.8-0.5-3.7-1.8c-0.2-0.3-0.8-0.7-1-0.6c-0.4,0.1-0.9,0.6-0.9,1
			c-0.2,0.9,0,1.5,1,2c1.9,1,3.9,1.8,6.1,1.5c1-0.1,1.4,0.2,1.6,1.3c0.3,1.7,0.9,3.3,1.4,5c1.2,3.3,4,5.4,6.6,5.5
			c3.1,0.1,5.1-0.7,6.5-2.8c1.5-2.2,2.4-4.7,2.7-7.4c0.1-1.2,0.6-1.4,1.7-1.7c2-0.4,4-1.1,5.9-1.8c0.4-0.2,1.1-1,1-1.3
			C90,106.8,89.4,106.3,88.8,106L88.8,106z M77,119.1c-0.1,0.1-0.1,0.2-0.2,0.3c-0.1,0.1-0.1,0.1-0.2,0.2c-0.1,0.1-0.2,0.2-0.3,0.2
			c-0.1,0.1-0.2,0.1-0.3,0.2c-0.7,0.4-1.7,0.7-2.9,0.7c-2.7,0-5.2-1.9-5.2-3.8c0-0.1,0.1-0.3,0.1-0.5c0.2-0.4,0.5-0.8,1-1.2
			c0.2-0.2,0.4-0.4,0.7-0.6c1-0.8,2.3-1.5,3.1-1.5c1.7,0,4.6,2.6,4.6,4.1C77.5,118,77.4,118.6,77,119.1L77,119.1z"/>
		<path style="&st3;" d="M60.1,88.6c-0.1,1.3-0.9,1.5-1.8,0.9c-1.8-1.1-3.2-2.4-3.9-4.6c-0.5-1.7-1.8-3.3-3-4.8
			c-1-1.3-2.2-1.2-3.1,0.1c-1.2,2-2.2,4.1-3.1,6.2c-0.5,1.3,0,1.7,1.6,1.4c0.7-0.1,1.5-0.3,2.2-0.2c0.6,0.1,1.6,0.2,1.6,0.8
			c0,0.6-1,0.5-1.5,0.6c-1.5,0.4-3.1,0.5-4.6,1c-1,0.3-2,0.9-2.9,1.4c-0.8,0.4-1.1,0.3-1.1-0.6c0-6,0.9-11.7,5.3-16.3
			c1.3-1.3,2.8-1.7,4.5-1.8c2.4-0.1,5.6,2.1,7.1,5.9c1.1,2.7,1.8,5.5,2.6,8.2C60.1,87.4,60.1,88,60.1,88.6z"/>
		<path style="&st3;" d="M104.6,90.3c-0.3,0.5-1.3,1-1.6,0.8c-2.3-1.5-4.8-2.1-7.5-2.2c-0.5,0-0.9-0.3-1.4-0.5
			c-0.2-0.1-0.4-0.2-0.6-0.3c0.2-0.1,0.4-0.3,0.7-0.3c1.4-0.1,2.9-0.5,4.2-0.2c1.5,0.3,1.9-0.1,1.5-1.2c-0.8-2.2-1.8-4.3-2.9-6.3
			c-0.7-1.2-2.1-1.5-3-0.3c-1.3,1.6-2.5,3.4-3.2,5.3c-0.9,2.2-2.6,3.4-4.6,4.3c-0.2,0.1-0.9-0.4-0.8-0.6c0.5-4.8,1.7-9.4,4.7-13.2
			c3.8-4.8,8.6-3.6,11.3,1.2c2,3.6,2.9,7.6,3.2,11.4C104.7,89.2,104.9,89.9,104.6,90.3z"/>
		<path style="&st3;" d="M78.9,95.3c0,0.7-1.2,1.5-2,1.8c-1,0.4-2.2,0.3-3.5,0.4c-1-0.1-2.2,0-3.3-0.4c-0.7-0.2-1.6-0.9-1.7-1.5
			c-0.1-0.6,0.3-1.7,0.9-2.1c1.6-1.5,6.3-1.8,8.2-0.5C78.2,93.5,79,94.6,78.9,95.3z"/>
		<path style="&st3;" d="M56.4,67.6c0,0.2-0.5,0.8-0.7,0.8c-0.5,0-1.1-0.4-1.6-0.6c-2.6-1.1-5.1-1.5-7.4,0.5c-0.4,0.3-1,0.2-1.5,0.3
			c0.1-0.5,0.1-1.1,0.3-1.4c1.4-2,3-3.8,5.8-3.7C52.7,63.6,56.2,66.2,56.4,67.6z"/>
		<path style="&st3;" d="M102.3,69.1c-0.7-0.2-1.1-0.2-1.4-0.4c-2-1.5-4.2-2.2-6.7-1.6c-1,0.3-2,0.8-3,1.3c-0.3,0.1-0.6,0.1-0.9,0.1
			c0-0.3-0.1-0.7,0-0.9c1.5-3.9,6.5-5,9.4-2c0.8,0.8,1.4,1.7,2,2.5C101.9,68.2,102,68.5,102.3,69.1z"/>
	</g>
</g>
<g transform="translate(80,80)">
	<g transform="translate(360,0) scale(0.4,0.4)">
		<g transform="">
			<rect x="-952.8" y="167.1" style="&st3;" width="11.7" height="11.7"/>
		</g>
	</g>
	<g transform="translate(400,0) scale(0.4,0.4)">
		<g transform="">
			<rect x="-1041.1" y="167.1" style="&st3;" width="11.7" height="11.7"/>
		</g>
	</g>
	<g transform="translate(560,0) scale(0.4,0.4)">
		<g transform="">
			<rect x="-1394.1" y="167.1" style="&st3;" width="11.7" height="11.7"/>
		</g>
	</g>
	<g transform="translate(640,0) scale(0.4,0.4)">
		<g transform="">
			<rect x="-1570.6" y="167.1" style="&st3;" width="11.7" height="11.7"/>
		</g>
	</g>
	<g transform="translate(320,40) scale(0.4,0.4)">
		<g transform="">
			<rect x="-864.6" y="78.9" style="&st3;" width="11.7" height="11.7"/>
		</g>
	</g>
	<g transform="translate(360,40) scale(0.4,0.4)">
		<g transform="">
			<rect x="-952.8" y="78.9" style="&st3;" width="11.7" height="11.7"/>
		</g>
	</g>
	<g transform="translate(400,40) scale(0.4,0.4)">
		<g transform="">
			<rect x="-1041.1" y="78.9" style="&st3;" width="11.7" height="11.7"/>
		</g>
	</g>
	<g transform="translate(440,40) scale(0.4,0.4)">
		<g transform="">
			<rect x="-1129.3" y="78.9" style="&st3;" width="11.7" height="11.7"/>
		</g>
	</g>
	<g transform="translate(520,40) scale(0.4,0.4)">
		<g transform="">
			<rect x="-1305.9" y="78.9" style="&st3;" width="11.7" height="11.7"/>
		</g>
	</g>
	<g transform="translate(560,40) scale(0.4,0.4)">
		<g transform="">
			<rect x="-1394.1" y="78.9" style="&st3;" width="11.7" height="11.7"/>
		</g>
	</g>
	<g transform="translate(640,40) scale(0.4,0.4)">
		<g transform="">
			<rect x="-1570.6" y="78.9" style="&st3;" width="11.7" height="11.7"/>
		</g>
	</g>
	<g transform="translate(320,80) scale(0.4,0.4)">
		<g transform="">
			<rect x="-864.6" y="-9.4" style="&st3;" width="11.7" height="11.7"/>
		</g>
	</g>
	<g transform="translate(400,80) scale(0.4,0.4)">
		<g transform="">
			<rect x="-1041.1" y="-9.4" style="&st3;" width="11.7" height="11.7"/>
		</g>
	</g>
	<g transform="translate(440,80) scale(0.4,0.4)">
		<g transform="">
			<rect x="-1129.3" y="-9.4" style="&st3;" width="11.7" height="11.7"/>
		</g>
	</g>
	<g transform="translate(480,80) scale(0.4,0.4)">
		<g transform="">
			<rect x="-1217.6" y="-9.4" style="&st3;" width="11.7" height="11.7"/>
		</g>
	</g>
	<g transform="translate(600,80) scale(0.4,0.4)">
		<g transform="">
			<rect x="-1482.4" y="-9.4" style="&st3;" width="11.7" height="11.7"/>
		</g>
	</g>
	<g transform="translate(320,120) scale(0.4,0.4)">
		<g transform="">
			<rect x="-864.6" y="-97.6" style="&st3;" width="11.7" height="11.7"/>
		</g>
	</g>
	<g transform="translate(440,120) scale(0.4,0.4)">
		<g transform="">
			<rect x="-1129.3" y="-97.6" style="&st3;" width="11.7" height="11.7"/>
		</g>
	</g>
	<g transform="translate(520,120) scale(0.4,0.4)">
		<g transform="">
			<rect x="-1305.9" y="-97.6" style="&st3;" width="11.7" height="11.7"/>
		</g>
	</g>
	<g transform="translate(640,120) scale(0.4,0.4)">
		<g transform="">
			<rect x="-1570.6" y="-97.6" style="&st3;" width="11.7" height="11.7"/>
		</g>
	</g>
	<g transform="translate(360,160) scale(0.4,0.4)">
		<g transform="">
			<rect x="-952.8" y="-185.9" style="&st3;" width="11.7" height="11.7"/>
		</g>
	</g>
	<g transform="translate(400,160) scale(0.4,0.4)">
		<g transform="">
			<rect x="-1041.1" y="-185.9" style="&st3;" width="11.7" height="11.7"/>
		</g>
	</g>
	<g transform="translate(440,160) scale(0.4,0.4)">
		<g transform="">
			<rect x="-1129.3" y="-185.9" style="&st3;" width="11.7" height="11.7"/>
		</g>
	</g>
	<g transform="translate(560,160) scale(0.4,0.4)">
		<g transform="">
			<rect x="-1394.1" y="-185.9" style="&st3;" width="11.7" height="11.7"/>
		</g>
	</g>
	<g transform="translate(640,160) scale(0.4,0.4)">
		<g transform="">
			<rect x="-1570.6" y="-185.9" style="&st3;" width="11.7" height="11.7"/>
		</g>
	</g>
	<g transform="translate(360,200) scale(0.4,0.4)">
		<g transform="">
			<rect x="-952.8" y="-274.1" style="&st3;" width="11.7" height="11.7"/>
		</g>
	</g>
	<g transform="translate(520,200) scale(0.4,0.4)">
		<g transform="">
			<rect x="-1305.9" y="-274.1" style="&st3;" width="11.7" height="11.7"/>
		</g>
	</g>
	<g transform="translate(560,200) scale(0.4,0.4)">
		<g transform="">
			<rect x="-1394.1" y="-274.1" style="&st3;" width="11.7" height="11.7"/>
		</g>
	</g>
	<g transform="translate(640,200) scale(0.4,0.4)">
		<g transform="">
			<rect x="-1570.6" y="-274.1" style="&st3;" width="11.7" height="11.7"/>
		</g>
	</g>
	<g transform="translate(320,240) scale(0.4,0.4)">
		<g transform="">
			<rect x="-864.6" y="-362.4" style="&st3;" width="11.7" height="11.7"/>
		</g>
	</g>
	<g transform="translate(400,240) scale(0.4,0.4)">
		<g transform="">
			<rect x="-1041.1" y="-362.4" style="&st3;" width="11.7" height="11.7"/>
		</g>
	</g>
	<g transform="translate(480,240) scale(0.4,0.4)">
		<g transform="">
			<rect x="-1217.6" y="-362.4" style="&st3;" width="11.7" height="11.7"/>
		</g>
	</g>
	<g transform="translate(560,240) scale(0.4,0.4)">
		<g transform="">
			<rect x="-1394.1" y="-362.4" style="&st3;" width="11.7" height="11.7"/>
		</g>
	</g>
	<g transform="translate(640,240) scale(0.4,0.4)">
		<g transform="">
			<rect x="-1570.6" y="-362.4" style="&st3;" width="11.7" height="11.7"/>
		</g>
	</g>
	<g transform="translate(320,280) scale(0.4,0.4)">
		<g transform="">
			<rect x="-864.6" y="-450.6" style="&st3;" width="11.7" height="11.7"/>
		</g>
	</g>
	<g transform="translate(360,280) scale(0.4,0.4)">
		<g transform="">
			<rect x="-952.8" y="-450.6" style="&st3;" width="11.7" height="11.7"/>
		</g>
	</g>
	<g transform="translate(440,280) scale(0.4,0.4)">
		<g transform="">
			<rect x="-1129.3" y="-450.6" style="&st3;" width="11.7" height="11.7"/>
		</g>
	</g>
	<g transform="translate(480,280) scale(0.4,0.4)">
		<g transform="">
			<rect x="-1217.6" y="-450.6" style="&st3;" width="11.7" height="11.7"/>
		</g>
	</g>
	<g transform="translate(560,280) scale(0.4,0.4)">
		<g transform="">
			<rect x="-1394.1" y="-450.6" style="&st3;" width="11.7" height="11.7"/>
		</g>
	</g>
	<g transform="translate(600,280) scale(0.4,0.4)">
		<g transform="">
			<rect x="-1482.4" y="-450.6" style="&st3;" width="11.7" height="11.7"/>
		</g>
	</g>
	<g transform="translate(0,320) scale(0.4,0.4)">
		<g transform="">
			<rect x="-158.6" y="-538.9" style="&st3;" width="11.7" height="11.7"/>
		</g>
	</g>
	<g transform="translate(240,320) scale(0.4,0.4)">
		<g transform="">
			<rect x="-688.1" y="-538.9" style="&st3;" width="11.7" height="11.7"/>
		</g>
	</g>
	<g transform="translate(320,320) scale(0.4,0.4)">
		<g transform="">
			<rect x="-864.6" y="-538.9" style="&st3;" width="11.7" height="11.7"/>
		</g>
	</g>
	<g transform="translate(480,320) scale(0.4,0.4)">
		<g transform="">
			<rect x="-1217.6" y="-538.9" style="&st3;" width="11.7" height="11.7"/>
		</g>
	</g>
	<g transform="translate(520,320) scale(0.4,0.4)">
		<g transform="">
			<rect x="-1305.9" y="-538.9" style="&st3;" width="11.7" height="11.7"/>
		</g>
	</g>
	<g transform="translate(560,320) scale(0.4,0.4)">
		<g transform="">
			<rect x="-1394.1" y="-538.9" style="&st3;" width="11.7" height="11.7"/>
		</g>
	</g>
	<g transform="translate(680,320) scale(0.4,0.4)">
		<g transform="">
			<rect x="-1658.9" y="-538.9" style="&st3;" width="11.7" height="11.7"/>
		</g>
	</g>
	<g transform="translate(720,320) scale(0.4,0.4)">
		<g transform="">
			<rect x="-1747.1" y="-538.9" style="&st3;" width="11.7" height="11.7"/>
		</g>
	</g>
	<g transform="translate(840,320) scale(0.4,0.4)">
		<g transform="">
			<rect x="-2011.9" y="-538.9" style="&st3;" width="11.7" height="11.7"/>
		</g>
	</g>
	<g transform="translate(880,320) scale(0.4,0.4)">
		<g transform="">
			<rect x="-2100.1" y="-538.9" style="&st3;" width="11.7" height="11.7"/>
		</g>
	</g>
	<g transform="translate(920,320) scale(0.4,0.4)">
		<g transform="">
			<rect x="-2188.4" y="-538.9" style="&st3;" width="11.7" height="11.7"/>
		</g>
	</g>
	<g transform="translate(40,360) scale(0.4,0.4)">
		<g transform="">
			<rect x="-246.8" y="-627.1" style="&st3;" width="11.7" height="11.7"/>
		</g>
	</g>
	<g transform="translate(80,360) scale(0.4,0.4)">
		<g transform="">
			<rect x="-335.1" y="-627.1" style="&st3;" width="11.7" height="11.7"/>
		</g>
	</g>
	<g transform="translate(160,360) scale(0.4,0.4)">
		<g transform="">
			<rect x="-511.6" y="-627.1" style="&st3;" width="11.7" height="11.7"/>
		</g>
	</g>
	<g transform="translate(280,360) scale(0.4,0.4)">
		<g transform="">
			<rect x="-776.3" y="-627.1" style="&st3;" width="11.7" height="11.7"/>
		</g>
	</g>
	<g transform="translate(320,360) scale(0.4,0.4)">
		<g transform="">
			<rect x="-864.6" y="-627.1" style="&st3;" width="11.7" height="11.7"/>
		</g>
	</g>
	<g transform="translate(360,360) scale(0.4,0.4)">
		<g transform="">
			<rect x="-952.8" y="-627.1" style="&st3;" width="11.7" height="11.7"/>
		</g>
	</g>
	<g transform="translate(400,360) scale(0.4,0.4)">
		<g transform="">
			<rect x="-1041.1" y="-627.1" style="&st3;" width="11.7" height="11.7"/>
		</g>
	</g>
	<g transform="translate(440,360) scale(0.4,0.4)">
		<g transform="">
			<rect x="-1129.3" y="-627.1" style="&st3;" width="11.7" height="11.7"/>
		</g>
	</g>
	<g transform="translate(480,360) scale(0.4,0.4)">
		<g transform="">
			<rect x="-1217.6" y="-627.1" style="&st3;" width="11.7" height="11.7"/>
		</g>
	</g>
	<g transform="translate(520,360) scale(0.4,0.4)">
		<g transform="">
			<rect x="-1305.9" y="-627.1" style="&st3;" width="11.7" height="11.7"/>
		</g>
	</g>
	<g transform="translate(560,360) scale(0.4,0.4)">
		<g transform="">
			<rect x="-1394.1" y="-627.1" style="&st3;" width="11.7" height="11.7"/>
		</g>
	</g>
	<g transform="translate(600,360) scale(0.4,0.4)">
		<g transform="">
			<rect x="-1482.4" y="-627.1" style="&st3;" width="11.7" height="11.7"/>
		</g>
	</g>
	<g transform="translate(680,360) scale(0.4,0.4)">
		<g transform="">
			<rect x="-1658.9" y="-627.1" style="&st3;" width="11.7" height="11.7"/>
		</g>
	</g>
	<g transform="translate(760,360) scale(0.4,0.4)">
		<g transform="">
			<rect x="-1835.4" y="-627.1" style="&st3;" width="11.7" height="11.7"/>
		</g>
	</g>
	<g transform="translate(800,360) scale(0.4,0.4)">
		<g transform="">
			<rect x="-1923.6" y="-627.1" style="&st3;" width="11.7" height="11.7"/>
		</g>
	</g>
	<g transform="translate(840,360) scale(0.4,0.4)">
		<g transform="">
			<rect x="-2011.9" y="-627.1" style="&st3;" width="11.7" height="11.7"/>
		</g>
	</g>
	<g transform="translate(880,360) scale(0.4,0.4)">
		<g transform="">
			<rect x="-2100.1" y="-627.1" style="&st3;" width="11.7" height="11.7"/>
		</g>
	</g>
	<g transform="translate(920,360) scale(0.4,0.4)">
		<g transform="">
			<rect x="-2188.4" y="-627.1" style="&st3;" width="11.7" height="11.7"/>
		</g>
	</g>
	<g transform="translate(0,400) scale(0.4,0.4)">
		<g transform="">
			<rect x="-158.6" y="-715.4" style="&st3;" width="11.7" height="11.7"/>
		</g>
	</g>
	<g transform="translate(160,400) scale(0.4,0.4)">
		<g transform="">
			<rect x="-511.6" y="-715.4" style="&st3;" width="11.7" height="11.7"/>
		</g>
	</g>
	<g transform="translate(200,400) scale(0.4,0.4)">
		<g transform="">
			<rect x="-599.8" y="-715.4" style="&st3;" width="11.7" height="11.7"/>
		</g>
	</g>
	<g transform="translate(240,400) scale(0.4,0.4)">
		<g transform="">
			<rect x="-688.1" y="-715.4" style="&st3;" width="11.7" height="11.7"/>
		</g>
	</g>
	<g transform="translate(320,400) scale(0.4,0.4)">
		<g transform="">
			<rect x="-864.6" y="-715.4" style="&st3;" width="11.7" height="11.7"/>
		</g>
	</g>
	<g transform="translate(400,400) scale(0.4,0.4)">
		<g transform="">
			<rect x="-1041.1" y="-715.4" style="&st3;" width="11.7" height="11.7"/>
		</g>
	</g>
	<g transform="translate(440,400) scale(0.4,0.4)">
		<g transform="">
			<rect x="-1129.3" y="-715.4" style="&st3;" width="11.7" height="11.7"/>
		</g>
	</g>
	<g transform="translate(600,400) scale(0.4,0.4)">
		<g transform="">
			<rect x="-1482.4" y="-715.4" style="&st3;" width="11.7" height="11.7"/>
		</g>
	</g>
	<g transform="translate(640,400) scale(0.4,0.4)">
		<g transform="">
			<rect x="-1570.6" y="-715.4" style="&st3;" width="11.7" height="11.7"/>
		</g>
	</g>
	<g transform="translate(680,400) scale(0.4,0.4)">
		<g transform="">
			<rect x="-1658.9" y="-715.4" style="&st3;" width="11.7" height="11.7"/>
		</g>
	</g>
	<g transform="translate(720,400) scale(0.4,0.4)">
		<g transform="">
			<rect x="-1747.1" y="-715.4" style="&st3;" width="11.7" height="11.7"/>
		</g>
	</g>
	<g transform="translate(760,400) scale(0.4,0.4)">
		<g transform="">
			<rect x="-1835.4" y="-715.4" style="&st3;" width="11.7" height="11.7"/>
		</g>
	</g>
	<g transform="translate(800,400) scale(0.4,0.4)">
		<g transform="">
			<rect x="-1923.6" y="-715.4" style="&st3;" width="11.7" height="11.7"/>
		</g>
	</g>
	<g transform="translate(840,400) scale(0.4,0.4)">
		<g transform="">
			<rect x="-2011.9" y="-715.4" style="&st3;" width="11.7" height="11.7"/>
		</g>
	</g>
	<g transform="translate(920,400) scale(0.4,0.4)">
		<g transform="">
			<rect x="-2188.4" y="-715.4" style="&st3;" width="11.7" height="11.7"/>
		</g>
	</g>
	<g transform="translate(960,400) scale(0.4,0.4)">
		<g transform="">
			<rect x="-2276.6" y="-715.4" style="&st3;" width="11.7" height="11.7"/>
		</g>
	</g>
	<g transform="translate(0,440) scale(0.4,0.4)">
		<g transform="">
			<rect x="-158.6" y="-803.6" style="&st3;" width="11.7" height="11.7"/>
		</g>
	</g>
	<g transform="translate(80,440) scale(0.4,0.4)">
		<g transform="">
			<rect x="-335.1" y="-803.6" style="&st3;" width="11.7" height="11.7"/>
		</g>
	</g>
	<g transform="translate(360,440) scale(0.4,0.4)">
		<g transform="">
			<rect x="-952.8" y="-803.6" style="&st3;" width="11.7" height="11.7"/>
		</g>
	</g>
	<g transform="translate(480,440) scale(0.4,0.4)">
		<g transform="">
			<rect x="-1217.6" y="-803.6" style="&st3;" width="11.7" height="11.7"/>
		</g>
	</g>
	<g transform="translate(560,440) scale(0.4,0.4)">
		<g transform="">
			<rect x="-1394.1" y="-803.6" style="&st3;" width="11.7" height="11.7"/>
		</g>
	</g>
	<g transform="translate(680,440) scale(0.4,0.4)">
		<g transform="">
			<rect x="-1658.9" y="-803.6" style="&st3;" width="11.7" height="11.7"/>
		</g>
	</g>
	<g transform="translate(760,440) scale(0.4,0.4)">
		<g transform="">
			<rect x="-1835.4" y="-803.6" style="&st3;" width="11.7" height="11.7"/>
		</g>
	</g>
	<g transform="translate(840,440) scale(0.4,0.4)">
		<g transform="">
			<rect x="-2011.9" y="-803.6" style="&st3;" width="11.7" height="11.7"/>
		</g>
	</g>
	<g transform="translate(960,440) scale(0.4,0.4)">
		<g transform="">
			<rect x="-2276.6" y="-803.6" style="&st3;" width="11.7" height="11.7"/>
		</g>
	</g>
	<g transform="translate(40,480) scale(0.4,0.4)">
		<g transform="">
			<rect x="-246.8" y="-891.9" style="&st3;" width="11.7" height="11.7"/>
		</g>
	</g>
	<g transform="translate(80,480) scale(0.4,0.4)">
		<g transform="">
			<rect x="-335.1" y="-891.9" style="&st3;" width="11.7" height="11.7"/>
		</g>
	</g>
	<g transform="translate(160,480) scale(0.4,0.4)">
		<g transform="">
			<rect x="-511.6" y="-891.9" style="&st3;" width="11.7" height="11.7"/>
		</g>
	</g>
	<g transform="translate(240,480) scale(0.4,0.4)">
		<g transform="">
			<rect x="-688.1" y="-891.9" style="&st3;" width="11.7" height="11.7"/>
		</g>
	</g>
	<g transform="translate(280,480) scale(0.4,0.4)">
		<g transform="">
			<rect x="-776.3" y="-891.9" style="&st3;" width="11.7" height="11.7"/>
		</g>
	</g>
	<g transform="translate(320,480) scale(0.4,0.4)">
		<g transform="">
			<rect x="-864.6" y="-891.9" style="&st3;" width="11.7" height="11.7"/>
		</g>
	</g>
	<g transform="translate(360,480) scale(0.4,0.4)">
		<g transform="">
			<rect x="-952.8" y="-891.9" style="&st3;" width="11.7" height="11.7"/>
		</g>
	</g>
	<g transform="translate(400,480) scale(0.4,0.4)">
		<g transform="">
			<rect x="-1041.1" y="-891.9" style="&st3;" width="11.7" height="11.7"/>
		</g>
	</g>
	<g transform="translate(440,480) scale(0.4,0.4)">
		<g transform="">
			<rect x="-1129.3" y="-891.9" style="&st3;" width="11.7" height="11.7"/>
		</g>
	</g>
	<g transform="translate(480,480) scale(0.4,0.4)">
		<g transform="">
			<rect x="-1217.6" y="-891.9" style="&st3;" width="11.7" height="11.7"/>
		</g>
	</g>
	<g transform="translate(600,480) scale(0.4,0.4)">
		<g transform="">
			<rect x="-1482.4" y="-891.9" style="&st3;" width="11.7" height="11.7"/>
		</g>
	</g>
	<g transform="translate(640,480) scale(0.4,0.4)">
		<g transform="">
			<rect x="-1570.6" y="-891.9" style="&st3;" width="11.7" height="11.7"/>
		</g>
	</g>
	<g transform="translate(720,480) scale(0.4,0.4)">
		<g transform="">
			<rect x="-1747.1" y="-891.9" style="&st3;" width="11.7" height="11.7"/>
		</g>
	</g>
	<g transform="translate(960,480) scale(0.4,0.4)">
		<g transform="">
			<rect x="-2276.6" y="-891.9" style="&st3;" width="11.7" height="11.7"/>
		</g>
	</g>
	<g transform="translate(0,520) scale(0.4,0.4)">
		<g transform="">
			<rect x="-158.6" y="-980.1" style="&st3;" width="11.7" height="11.7"/>
		</g>
	</g>
	<g transform="translate(120,520) scale(0.4,0.4)">
		<g transform="">
			<rect x="-423.3" y="-980.1" style="&st3;" width="11.7" height="11.7"/>
		</g>
	</g>
	<g transform="translate(200,520) scale(0.4,0.4)">
		<g transform="">
			<rect x="-599.8" y="-980.1" style="&st3;" width="11.7" height="11.7"/>
		</g>
	</g>
	<g transform="translate(520,520) scale(0.4,0.4)">
		<g transform="">
			<rect x="-1305.9" y="-980.1" style="&st3;" width="11.7" height="11.7"/>
		</g>
	</g>
	<g transform="translate(600,520) scale(0.4,0.4)">
		<g transform="">
			<rect x="-1482.4" y="-980.1" style="&st3;" width="11.7" height="11.7"/>
		</g>
	</g>
	<g transform="translate(640,520) scale(0.4,0.4)">
		<g transform="">
			<rect x="-1570.6" y="-980.1" style="&st3;" width="11.7" height="11.7"/>
		</g>
	</g>
	<g transform="translate(680,520) scale(0.4,0.4)">
		<g transform="">
			<rect x="-1658.9" y="-980.1" style="&st3;" width="11.7" height="11.7"/>
		</g>
	</g>
	<g transform="translate(760,520) scale(0.4,0.4)">
		<g transform="">
			<rect x="-1835.4" y="-980.1" style="&st3;" width="11.7" height="11.7"/>
		</g>
	</g>
	<g transform="translate(920,520) scale(0.4,0.4)">
		<g transform="">
			<rect x="-2188.4" y="-980.1" style="&st3;" width="11.7" height="11.7"/>
		</g>
	</g>
	<g transform="translate(0,560) scale(0.4,0.4)">
		<g transform="">
			<rect x="-158.6" y="-1068.4" style="&st3;" width="11.7" height="11.7"/>
		</g>
	</g>
	<g transform="translate(120,560) scale(0.4,0.4)">
		<g transform="">
			<rect x="-423.3" y="-1068.4" style="&st3;" width="11.7" height="11.7"/>
		</g>
	</g>
	<g transform="translate(240,560) scale(0.4,0.4)">
		<g transform="">
			<rect x="-688.1" y="-1068.4" style="&st3;" width="11.7" height="11.7"/>
		</g>
	</g>
	<g transform="translate(280,560) scale(0.4,0.4)">
		<g transform="">
			<rect x="-776.3" y="-1068.4" style="&st3;" width="11.7" height="11.7"/>
		</g>
	</g>
	<g transform="translate(400,560) scale(0.4,0.4)">
		<g transform="">
			<rect x="-1041.1" y="-1068.4" style="&st3;" width="11.7" height="11.7"/>
		</g>
	</g>
	<g transform="translate(440,560) scale(0.4,0.4)">
		<g transform="">
			<rect x="-1129.3" y="-1068.4" style="&st3;" width="11.7" height="11.7"/>
		</g>
	</g>
	<g transform="translate(480,560) scale(0.4,0.4)">
		<g transform="">
			<rect x="-1217.6" y="-1068.4" style="&st3;" width="11.7" height="11.7"/>
		</g>
	</g>
	<g transform="translate(520,560) scale(0.4,0.4)">
		<g transform="">
			<rect x="-1305.9" y="-1068.4" style="&st3;" width="11.7" height="11.7"/>
		</g>
	</g>
	<g transform="translate(560,560) scale(0.4,0.4)">
		<g transform="">
			<rect x="-1394.1" y="-1068.4" style="&st3;" width="11.7" height="11.7"/>
		</g>
	</g>
	<g transform="translate(600,560) scale(0.4,0.4)">
		<g transform="">
			<rect x="-1482.4" y="-1068.4" style="&st3;" width="11.7" height="11.7"/>
		</g>
	</g>
	<g transform="translate(640,560) scale(0.4,0.4)">
		<g transform="">
			<rect x="-1570.6" y="-1068.4" style="&st3;" width="11.7" height="11.7"/>
		</g>
	</g>
	<g transform="translate(680,560) scale(0.4,0.4)">
		<g transform="">
			<rect x="-1658.9" y="-1068.4" style="&st3;" width="11.7" height="11.7"/>
		</g>
	</g>
	<g transform="translate(720,560) scale(0.4,0.4)">
		<g transform="">
			<rect x="-1747.1" y="-1068.4" style="&st3;" width="11.7" height="11.7"/>
		</g>
	</g>
	<g transform="translate(760,560) scale(0.4,0.4)">
		<g transform="">
			<rect x="-1835.4" y="-1068.4" style="&st3;" width="11.7" height="11.7"/>
		</g>
	</g>
	<g transform="translate(800,560) scale(0.4,0.4)">
		<g transform="">
			<rect x="-1923.6" y="-1068.4" style="&st3;" width="11.7" height="11.7"/>
		</g>
	</g>
	<g transform="translate(840,560) scale(0.4,0.4)">
		<g transform="">
			<rect x="-2011.9" y="-1068.4" style="&st3;" width="11.7" height="11.7"/>
		</g>
	</g>
	<g transform="translate(920,560) scale(0.4,0.4)">
		<g transform="">
			<rect x="-2188.4" y="-1068.4" style="&st3;" width="11.7" height="11.7"/>
		</g>
	</g>
	<g transform="translate(960,560) scale(0.4,0.4)">
		<g transform="">
			<rect x="-2276.6" y="-1068.4" style="&st3;" width="11.7" height="11.7"/>
		</g>
	</g>
	<g transform="translate(0,600) scale(0.4,0.4)">
		<g transform="">
			<rect x="-158.6" y="-1156.6" style="&st3;" width="11.7" height="11.7"/>
		</g>
	</g>
	<g transform="translate(80,600) scale(0.4,0.4)">
		<g transform="">
			<rect x="-335.1" y="-1156.6" style="&st3;" width="11.7" height="11.7"/>
		</g>
	</g>
	<g transform="translate(160,600) scale(0.4,0.4)">
		<g transform="">
			<rect x="-511.6" y="-1156.6" style="&st3;" width="11.7" height="11.7"/>
		</g>
	</g>
	<g transform="translate(200,600) scale(0.4,0.4)">
		<g transform="">
			<rect x="-599.8" y="-1156.6" style="&st3;" width="11.7" height="11.7"/>
		</g>
	</g>
	<g transform="translate(320,600) scale(0.4,0.4)">
		<g transform="">
			<rect x="-864.6" y="-1156.6" style="&st3;" width="11.7" height="11.7"/>
		</g>
	</g>
	<g transform="translate(440,600) scale(0.4,0.4)">
		<g transform="">
			<rect x="-1129.3" y="-1156.6" style="&st3;" width="11.7" height="11.7"/>
		</g>
	</g>
	<g transform="translate(560,600) scale(0.4,0.4)">
		<g transform="">
			<rect x="-1394.1" y="-1156.6" style="&st3;" width="11.7" height="11.7"/>
		</g>
	</g>
	<g transform="translate(600,600) scale(0.4,0.4)">
		<g transform="">
			<rect x="-1482.4" y="-1156.6" style="&st3;" width="11.7" height="11.7"/>
		</g>
	</g>
	<g transform="translate(640,600) scale(0.4,0.4)">
		<g transform="">
			<rect x="-1570.6" y="-1156.6" style="&st3;" width="11.7" height="11.7"/>
		</g>
	</g>
	<g transform="translate(680,600) scale(0.4,0.4)">
		<g transform="">
			<rect x="-1658.9" y="-1156.6" style="&st3;" width="11.7" height="11.7"/>
		</g>
	</g>
	<g transform="translate(760,600) scale(0.4,0.4)">
		<g transform="">
			<rect x="-1835.4" y="-1156.6" style="&st3;" width="11.7" height="11.7"/>
		</g>
	</g>
	<g transform="translate(840,600) scale(0.4,0.4)">
		<g transform="">
			<rect x="-2011.9" y="-1156.6" style="&st3;" width="11.7" height="11.7"/>
		</g>
	</g>
	<g transform="translate(880,600) scale(0.4,0.4)">
		<g transform="">
			<rect x="-2100.1" y="-1156.6" style="&st3;" width="11.7" height="11.7"/>
		</g>
	</g>
	<g transform="translate(960,600) scale(0.4,0.4)">
		<g transform="">
			<rect x="-2276.6" y="-1156.6" style="&st3;" width="11.7" height="11.7"/>
		</g>
	</g>
	<g transform="translate(0,640) scale(0.4,0.4)">
		<g transform="">
			<rect x="-158.6" y="-1244.9" style="&st3;" width="11.7" height="11.7"/>
		</g>
	</g>
	<g transform="translate(80,640) scale(0.4,0.4)">
		<g transform="">
			<rect x="-335.1" y="-1244.9" style="&st3;" width="11.7" height="11.7"/>
		</g>
	</g>
	<g transform="translate(120,640) scale(0.4,0.4)">
		<g transform="">
			<rect x="-423.3" y="-1244.9" style="&st3;" width="11.7" height="11.7"/>
		</g>
	</g>
	<g transform="translate(160,640) scale(0.4,0.4)">
		<g transform="">
			<rect x="-511.6" y="-1244.9" style="&st3;" width="11.7" height="11.7"/>
		</g>
	</g>
	<g transform="translate(240,640) scale(0.4,0.4)">
		<g transform="">
			<rect x="-688.1" y="-1244.9" style="&st3;" width="11.7" height="11.7"/>
		</g>
	</g>
	<g transform="translate(280,640) scale(0.4,0.4)">
		<g transform="">
			<rect x="-776.3" y="-1244.9" style="&st3;" width="11.7" height="11.7"/>
		</g>
	</g>
	<g transform="translate(320,640) scale(0.4,0.4)">
		<g transform="">
			<rect x="-864.6" y="-1244.9" style="&st3;" width="11.7" height="11.7"/>
		</g>
	</g>
	<g transform="translate(440,640) scale(0.4,0.4)">
		<g transform="">
			<rect x="-1129.3" y="-1244.9" style="&st3;" width="11.7" height="11.7"/>
		</g>
	</g>
	<g transform="translate(600,640) scale(0.4,0.4)">
		<g transform="">
			<rect x="-1482.4" y="-1244.9" style="&st3;" width="11.7" height="11.7"/>
		</g>
	</g>
	<g transform="translate(640,640) scale(0.4,0.4)">
		<g transform="">
			<rect x="-1570.6" y="-1244.9" style="&st3;" width="11.7" height="11.7"/>
		</g>
	</g>
	<g transform="translate(680,640) scale(0.4,0.4)">
		<g transform="">
			<rect x="-1658.9" y="-1244.9" style="&st3;" width="11.7" height="11.7"/>
		</g>
	</g>
	<g transform="translate(720,640) scale(0.4,0.4)">
		<g transform="">
			<rect x="-1747.1" y="-1244.9" style="&st3;" width="11.7" height="11.7"/>
		</g>
	</g>
	<g transform="translate(760,640) scale(0.4,0.4)">
		<g transform="">
			<rect x="-1835.4" y="-1244.9" style="&st3;" width="11.7" height="11.7"/>
		</g>
	</g>
	<g transform="translate(800,640) scale(0.4,0.4)">
		<g transform="">
			<rect x="-1923.6" y="-1244.9" style="&st3;" width="11.7" height="11.7"/>
		</g>
	</g>
	<g transform="translate(880,640) scale(0.4,0.4)">
		<g transform="">
			<rect x="-2100.1" y="-1244.9" style="&st3;" width="11.7" height="11.7"/>
		</g>
	</g>
	<g transform="translate(320,680) scale(0.4,0.4)">
		<g transform="">
			<rect x="-864.6" y="-1333.2" style="&st3;" width="11.7" height="11.7"/>
		</g>
	</g>
	<g transform="translate(360,680) scale(0.4,0.4)">
		<g transform="">
			<rect x="-952.8" y="-1333.2" style="&st3;" width="11.7" height="11.7"/>
		</g>
	</g>
	<g transform="translate(480,680) scale(0.4,0.4)">
		<g transform="">
			<rect x="-1217.6" y="-1333.2" style="&st3;" width="11.7" height="11.7"/>
		</g>
	</g>
	<g transform="translate(520,680) scale(0.4,0.4)">
		<g transform="">
			<rect x="-1305.9" y="-1333.2" style="&st3;" width="11.7" height="11.7"/>
		</g>
	</g>
	<g transform="translate(600,680) scale(0.4,0.4)">
		<g transform="">
			<rect x="-1482.4" y="-1333.2" style="&st3;" width="11.7" height="11.7"/>
		</g>
	</g>
	<g transform="translate(640,680) scale(0.4,0.4)">
		<g transform="">
			<rect x="-1570.6" y="-1333.2" style="&st3;" width="11.7" height="11.7"/>
		</g>
	</g>
	<g transform="translate(800,680) scale(0.4,0.4)">
		<g transform="">
			<rect x="-1923.6" y="-1333.2" style="&st3;" width="11.7" height="11.7"/>
		</g>
	</g>
	<g transform="translate(360,720) scale(0.4,0.4)">
		<g transform="">
			<rect x="-952.8" y="-1421.4" style="&st3;" width="11.7" height="11.7"/>
		</g>
	</g>
	<g transform="translate(440,720) scale(0.4,0.4)">
		<g transform="">
			<rect x="-1129.3" y="-1421.4" style="&st3;" width="11.7" height="11.7"/>
		</g>
	</g>
	<g transform="translate(640,720) scale(0.4,0.4)">
		<g transform="">
			<rect x="-1570.6" y="-1421.4" style="&st3;" width="11.7" height="11.7"/>
		</g>
	</g>
	<g transform="translate(720,720) scale(0.4,0.4)">
		<g transform="">
			<rect x="-1747.1" y="-1421.4" style="&st3;" width="11.7" height="11.7"/>
		</g>
	</g>
	<g transform="translate(800,720) scale(0.4,0.4)">
		<g transform="">
			<rect x="-1923.6" y="-1421.4" style="&st3;" width="11.7" height="11.7"/>
		</g>
	</g>
	<g transform="translate(960,720) scale(0.4,0.4)">
		<g transform="">
			<rect x="-2276.6" y="-1421.4" style="&st3;" width="11.7" height="11.7"/>
		</g>
	</g>
	<g transform="translate(360,760) scale(0.4,0.4)">
		<g transform="">
			<rect x="-952.8" y="-1509.7" style="&st3;" width="11.7" height="11.7"/>
		</g>
	</g>
	<g transform="translate(400,760) scale(0.4,0.4)">
		<g transform="">
			<rect x="-1041.1" y="-1509.7" style="&st3;" width="11.7" height="11.7"/>
		</g>
	</g>
	<g transform="translate(480,760) scale(0.4,0.4)">
		<g transform="">
			<rect x="-1217.6" y="-1509.7" style="&st3;" width="11.7" height="11.7"/>
		</g>
	</g>
	<g transform="translate(520,760) scale(0.4,0.4)">
		<g transform="">
			<rect x="-1305.9" y="-1509.7" style="&st3;" width="11.7" height="11.7"/>
		</g>
	</g>
	<g transform="translate(600,760) scale(0.4,0.4)">
		<g transform="">
			<rect x="-1482.4" y="-1509.7" style="&st3;" width="11.7" height="11.7"/>
		</g>
	</g>
	<g transform="translate(640,760) scale(0.4,0.4)">
		<g transform="">
			<rect x="-1570.6" y="-1509.7" style="&st3;" width="11.7" height="11.7"/>
		</g>
	</g>
	<g transform="translate(800,760) scale(0.4,0.4)">
		<g transform="">
			<rect x="-1923.6" y="-1509.7" style="&st3;" width="11.7" height="11.7"/>
		</g>
	</g>
	<g transform="translate(920,760) scale(0.4,0.4)">
		<g transform="">
			<rect x="-2188.4" y="-1509.7" style="&st3;" width="11.7" height="11.7"/>
		</g>
	</g>
	<g transform="translate(960,760) scale(0.4,0.4)">
		<g transform="">
			<rect x="-2276.6" y="-1509.7" style="&st3;" width="11.7" height="11.7"/>
		</g>
	</g>
	<g transform="translate(360,800) scale(0.4,0.4)">
		<g transform="">
			<rect x="-952.8" y="-1597.9" style="&st3;" width="11.7" height="11.7"/>
		</g>
	</g>
	<g transform="translate(480,800) scale(0.4,0.4)">
		<g transform="">
			<rect x="-1217.6" y="-1597.9" style="&st3;" width="11.7" height="11.7"/>
		</g>
	</g>
	<g transform="translate(560,800) scale(0.4,0.4)">
		<g transform="">
			<rect x="-1394.1" y="-1597.9" style="&st3;" width="11.7" height="11.7"/>
		</g>
	</g>
	<g transform="translate(600,800) scale(0.4,0.4)">
		<g transform="">
			<rect x="-1482.4" y="-1597.9" style="&st3;" width="11.7" height="11.7"/>
		</g>
	</g>
	<g transform="translate(640,800) scale(0.4,0.4)">
		<g transform="">
			<rect x="-1570.6" y="-1597.9" style="&st3;" width="11.7" height="11.7"/>
		</g>
	</g>
	<g transform="translate(680,800) scale(0.4,0.4)">
		<g transform="">
			<rect x="-1658.9" y="-1597.9" style="&st3;" width="11.7" height="11.7"/>
		</g>
	</g>
	<g transform="translate(720,800) scale(0.4,0.4)">
		<g transform="">
			<rect x="-1747.1" y="-1597.9" style="&st3;" width="11.7" height="11.7"/>
		</g>
	</g>
	<g transform="translate(760,800) scale(0.4,0.4)">
		<g transform="">
			<rect x="-1835.4" y="-1597.9" style="&st3;" width="11.7" height="11.7"/>
		</g>
	</g>
	<g transform="translate(800,800) scale(0.4,0.4)">
		<g transform="">
			<rect x="-1923.6" y="-1597.9" style="&st3;" width="11.7" height="11.7"/>
		</g>
	</g>
	<g transform="translate(880,800) scale(0.4,0.4)">
		<g transform="">
			<rect x="-2100.1" y="-1597.9" style="&st3;" width="11.7" height="11.7"/>
		</g>
	</g>
	<g transform="translate(920,800) scale(0.4,0.4)">
		<g transform="">
			<rect x="-2188.4" y="-1597.9" style="&st3;" width="11.7" height="11.7"/>
		</g>
	</g>
	<g transform="translate(960,800) scale(0.4,0.4)">
		<g transform="">
			<rect x="-2276.6" y="-1597.9" style="&st3;" width="11.7" height="11.7"/>
		</g>
	</g>
	<g transform="translate(360,840) scale(0.4,0.4)">
		<g transform="">
			<rect x="-952.8" y="-1686.2" style="&st3;" width="11.7" height="11.7"/>
		</g>
	</g>
	<g transform="translate(560,840) scale(0.4,0.4)">
		<g transform="">
			<rect x="-1394.1" y="-1686.2" style="&st3;" width="11.7" height="11.7"/>
		</g>
	</g>
	<g transform="translate(600,840) scale(0.4,0.4)">
		<g transform="">
			<rect x="-1482.4" y="-1686.2" style="&st3;" width="11.7" height="11.7"/>
		</g>
	</g>
	<g transform="translate(720,840) scale(0.4,0.4)">
		<g transform="">
			<rect x="-1747.1" y="-1686.2" style="&st3;" width="11.7" height="11.7"/>
		</g>
	</g>
	<g transform="translate(920,840) scale(0.4,0.4)">
		<g transform="">
			<rect x="-2188.4" y="-1686.2" style="&st3;" width="11.7" height="11.7"/>
		</g>
	</g>
	<g transform="translate(960,840) scale(0.4,0.4)">
		<g transform="">
			<rect x="-2276.6" y="-1686.2" style="&st3;" width="11.7" height="11.7"/>
		</g>
	</g>
	<g transform="translate(440,880) scale(0.4,0.4)">
		<g transform="">
			<rect x="-1129.3" y="-1774.4" style="&st3;" width="11.7" height="11.7"/>
		</g>
	</g>
	<g transform="translate(480,880) scale(0.4,0.4)">
		<g transform="">
			<rect x="-1217.6" y="-1774.4" style="&st3;" width="11.7" height="11.7"/>
		</g>
	</g>
	<g transform="translate(640,880) scale(0.4,0.4)">
		<g transform="">
			<rect x="-1570.6" y="-1774.4" style="&st3;" width="11.7" height="11.7"/>
		</g>
	</g>
	<g transform="translate(840,880) scale(0.4,0.4)">
		<g transform="">
			<rect x="-2011.9" y="-1774.4" style="&st3;" width="11.7" height="11.7"/>
		</g>
	</g>
	<g transform="translate(880,880) scale(0.4,0.4)">
		<g transform="">
			<rect x="-2100.1" y="-1774.4" style="&st3;" width="11.7" height="11.7"/>
		</g>
	</g>
	<g transform="translate(960,880) scale(0.4,0.4)">
		<g transform="">
			<rect x="-2276.6" y="-1774.4" style="&st3;" width="11.7" height="11.7"/>
		</g>
	</g>
	<g transform="translate(400,920) scale(0.4,0.4)">
		<g transform="">
			<rect x="-1041.1" y="-1862.7" style="&st3;" width="11.7" height="11.7"/>
		</g>
	</g>
	<g transform="translate(440,920) scale(0.4,0.4)">
		<g transform="">
			<rect x="-1129.3" y="-1862.7" style="&st3;" width="11.7" height="11.7"/>
		</g>
	</g>
	<g transform="translate(560,920) scale(0.4,0.4)">
		<g transform="">
			<rect x="-1394.1" y="-1862.7" style="&st3;" width="11.7" height="11.7"/>
		</g>
	</g>
	<g transform="translate(640,920) scale(0.4,0.4)">
		<g transform="">
			<rect x="-1570.6" y="-1862.7" style="&st3;" width="11.7" height="11.7"/>
		</g>
	</g>
	<g transform="translate(680,920) scale(0.4,0.4)">
		<g transform="">
			<rect x="-1658.9" y="-1862.7" style="&st3;" width="11.7" height="11.7"/>
		</g>
	</g>
	<g transform="translate(760,920) scale(0.4,0.4)">
		<g transform="">
			<rect x="-1835.4" y="-1862.7" style="&st3;" width="11.7" height="11.7"/>
		</g>
	</g>
	<g transform="translate(800,920) scale(0.4,0.4)">
		<g transform="">
			<rect x="-1923.6" y="-1862.7" style="&st3;" width="11.7" height="11.7"/>
		</g>
	</g>
	<g transform="translate(960,920) scale(0.4,0.4)">
		<g transform="">
			<rect x="-2276.6" y="-1862.7" style="&st3;" width="11.7" height="11.7"/>
		</g>
	</g>
	<g transform="translate(320,960) scale(0.4,0.4)">
		<g transform="">
			<rect x="-864.6" y="-1950.9" style="&st3;" width="11.7" height="11.7"/>
		</g>
	</g>
	<g transform="translate(400,960) scale(0.4,0.4)">
		<g transform="">
			<rect x="-1041.1" y="-1950.9" style="&st3;" width="11.7" height="11.7"/>
		</g>
	</g>
	<g transform="translate(520,960) scale(0.4,0.4)">
		<g transform="">
			<rect x="-1305.9" y="-1950.9" style="&st3;" width="11.7" height="11.7"/>
		</g>
	</g>
	<g transform="translate(560,960) scale(0.4,0.4)">
		<g transform="">
			<rect x="-1394.1" y="-1950.9" style="&st3;" width="11.7" height="11.7"/>
		</g>
	</g>
	<g transform="translate(640,960) scale(0.4,0.4)">
		<g transform="">
			<rect x="-1570.6" y="-1950.9" style="&st3;" width="11.7" height="11.7"/>
		</g>
	</g>
	<g transform="translate(680,960) scale(0.4,0.4)">
		<g transform="">
			<rect x="-1658.9" y="-1950.9" style="&st3;" width="11.7" height="11.7"/>
		</g>
	</g>
	<g transform="translate(840,960) scale(0.4,0.4)">
		<g transform="">
			<rect x="-2011.9" y="-1950.9" style="&st3;" width="11.7" height="11.7"/>
		</g>
	</g>
	<g transform="translate(960,960) scale(0.4,0.4)">
		<g transform="">
			<rect x="-2276.6" y="-1950.9" style="&st3;" width="11.7" height="11.7"/>
		</g>
	</g>
	<g transform="translate(0,0) scale(2.8, 2.8)">
		<g transform="">
			<g>
				<rect x="-20.9" y="25.6" style="&st5;" width="8.2" height="8.2"/>
				<path style="&st3;" d="M-12.7,23.9h-8.2h-1.8v1.8v8.2v1.8h1.8h8.2h1.8v-1.8v-8.2v-1.8H-12.7z M-12.7,33.9h-8.2v-8.2h8.2V33.9z"
					/>
			</g>
		</g>
	</g>
	<g transform="translate(720,0) scale(2.8, 2.8)">
		<g transform="">
			<g>
				<rect x="-247.8" y="25.6" style="&st5;" width="8.2" height="8.2"/>
				<path style="&st3;" d="M-239.6,23.9h-8.2h-1.8v1.8v8.2v1.8h1.8h8.2h1.8v-1.8v-8.2v-1.8H-239.6z M-239.6,33.9h-8.2v-8.2h8.2V33.9
					z"/>
			</g>
		</g>
	</g>
	<g transform="translate(0,720) scale(2.8, 2.8)">
		<g transform="">
			<g>
				<rect x="-20.9" y="-201.3" style="&st5;" width="8.2" height="8.2"/>
				<path style="&st3;" d="M-12.7-203.1h-8.2h-1.8v1.8v8.2v1.8h1.8h8.2h1.8v-1.8v-8.2v-1.8H-12.7z M-12.7-193.1h-8.2v-8.2h8.2
					V-193.1z"/>
			</g>
		</g>
	</g>
	<g transform="translate(80,80) scale(1.2, 1.2)">
		<g transform="">
			<rect x="-111.7" y="-3.1" style="&st3;" width="11.7" height="11.7"/>
		</g>
	</g>
	<g transform="translate(800,80) scale(1.2, 1.2)">
		<g transform="">
			<rect x="-641.2" y="-3.1" style="&st3;" width="11.7" height="11.7"/>
		</g>
	</g>
	<g transform="translate(80,800) scale(1.2, 1.2)">
		<g transform="">
			<rect x="-111.7" y="-532.6" style="&st3;" width="11.7" height="11.7"/>
		</g>
	</g>
</g>
</svg>
