<?xml version="1.0" encoding="utf-8"?>
<!-- Generator: Adobe Illustrator 28.6.0, SVG Export Plug-In . SVG Version: 9.03 Build 54939)  -->
<!DOCTYPE svg PUBLIC "-//W3C//DTD SVG 1.1//EN" "http://www.w3.org/Graphics/SVG/1.1/DTD/svg11.dtd" [
	<!ENTITY ns_extend "http://ns.adobe.com/Extensibility/1.0/">
	<!ENTITY ns_ai "http://ns.adobe.com/AdobeIllustrator/10.0/">
	<!ENTITY ns_graphs "http://ns.adobe.com/Graphs/1.0/">
	<!ENTITY ns_vars "http://ns.adobe.com/Variables/1.0/">
	<!ENTITY ns_imrep "http://ns.adobe.com/ImageReplacement/1.0/">
	<!ENTITY ns_sfw "http://ns.adobe.com/SaveForWeb/1.0/">
	<!ENTITY ns_custom "http://ns.adobe.com/GenericCustomNamespace/1.0/">
	<!ENTITY ns_adobe_xpath "http://ns.adobe.com/XPath/1.0/">
	<!ENTITY st0 "fill:#B0B3BA;stroke:#000000;stroke-width:0.946;stroke-miterlimit:10;">
	<!ENTITY st1 "fill:#C92922;">
	<!ENTITY st2 "fill:#FFFFFF;">
	<!ENTITY st3 "fill:#2C52A0;">
	<!ENTITY st4 "fill:none;">
	<!ENTITY st5 "fill:#F7B116;">
	<!ENTITY st6 "fill:#004989;">
	<!ENTITY st7 "fill:none;stroke:#000000;stroke-width:0.946;stroke-miterlimit:10;">
	<!ENTITY st8 "fill:none;stroke:#000000;stroke-width:0.8684;stroke-miterlimit:10;">
	<!ENTITY st9 "fill:none;stroke:#000000;stroke-width:0.837;stroke-miterlimit:10;">
	<!ENTITY st10 "fill:none;stroke:#FFFFFF;stroke-width:5;stroke-miterlimit:10;stroke-dasharray:10,4;">
	<!ENTITY st11 "clip-path:url(#SVGID_00000072961164915063931430000010464757000466210467_);">
	<!ENTITY st12 "fill:#C44C07;">
	<!ENTITY st13 "fill:#F08219;">
	<!ENTITY st14 "fill:#F6A21D;">
	<!ENTITY st15 "fill:#F3921B;">
	<!ENTITY st16 "fill:none;stroke:#FFFFFF;stroke-width:2.3153;stroke-miterlimit:10;stroke-dasharray:4.6306,1.8523;">
	<!ENTITY st17 "fill:none;stroke:#FFFFFF;stroke-width:0.9659;stroke-miterlimit:10;stroke-dasharray:1.9319,0.7727;">
	<!ENTITY st18 "clip-path:url(#SVGID_00000094577767284138433590000015759861970295911347_);">
	<!ENTITY st19 "clip-path:url(#SVGID_00000019660990605720484870000004168669127921153176_);">
	<!ENTITY st20 "clip-path:url(#SVGID_00000062877101676672981880000014941186237562330815_);">
	<!ENTITY st21 "fill:none;stroke:#FFFFFF;stroke-width:2.3689;stroke-miterlimit:10;stroke-dasharray:4.7379,1.8952;">
	<!ENTITY st22 "clip-path:url(#SVGID_00000044155563002305627330000000715020707716054703_);">
	<!ENTITY st23 "clip-path:url(#SVGID_00000152255192481713533400000017611348706517635474_);">
	<!ENTITY st24 "clip-path:url(#SVGID_00000125566304744343792180000011264561852723629245_);">
	<!ENTITY st25 "clip-path:url(#SVGID_00000074399959888185802880000016743885736744018089_);">
	<!ENTITY st26 "fill:#E5231E;">
	<!ENTITY st27 "fill:#FFFFFF;stroke:#FFFFFF;stroke-width:0.5051;stroke-miterlimit:10;">
	<!ENTITY st28 "fill:#FFFFFF;stroke:#FFFFFF;stroke-width:0.3367;stroke-miterlimit:10;">
	<!ENTITY st29 "fill:#FFFFFF;stroke:#FFFFFF;stroke-width:2.142;stroke-miterlimit:10;">
	<!ENTITY st30 "fill:#BD271F;">
	<!ENTITY st31 "fill:#020203;">
	<!ENTITY st32 "fill:none;stroke:#000000;stroke-width:0.6734;stroke-linejoin:round;stroke-miterlimit:10;">
	<!ENTITY st33 "fill:#FFFFFF;stroke:#FFFFFF;stroke-width:2.4;stroke-miterlimit:10;">
	<!ENTITY st34 "fill:#FCF7CD;">
	<!ENTITY st35 "fill:#020203;stroke:#020203;stroke-width:0.2383;stroke-miterlimit:10;">
	<!ENTITY st36 "clip-path:url(#SVGID_00000087384379226362358830000004386858990109254024_);">
	<!ENTITY st37 "fill:#020303;">
	<!ENTITY st38 "clip-path:url(#SVGID_00000073710676375295064790000013863546764565456526_);">
]>
<svg version="1.1" id="Capa_1" xmlns:x="&ns_extend;" xmlns:i="&ns_ai;" xmlns:graph="&ns_graphs;"
	 xmlns="http://www.w3.org/2000/svg" xmlns:xlink="http://www.w3.org/1999/xlink" x="0px" y="0px" viewBox="0 0 240.1 240.1"
	 style="enable-background:new 0 0 240.1 240.1;" xml:space="preserve">
<metadata>
	<sfw  xmlns="&ns_sfw;">
		<slices></slices>
		<sliceSourceBounds  bottomLeftOrigin="true" height="6128.5" width="4684.3" x="-1233.3" y="-1872.4"></sliceSourceBounds>
	</sfw>
</metadata>
<circle style="&st34;" cx="120" cy="120" r="120"/>
<g>
	<path style="&st35;" d="M74.4,218.1c0.8,0.4,1.8,1.5,1.1,3l-1.5,3.2c-0.6,1.3-2.1,1.7-3.3,1.1l-1-0.5c-1.2-0.6-1.7-1.9-1.1-3.2
		l1.5-3.2c0.6-1.2,2-1.5,2.8-1.1L74.4,218.1z M72.9,218.9c-0.6-0.3-1.2-0.1-1.5,0.5l-1.3,2.9c-0.2,0.5-0.1,1.1,0.5,1.4l0.5,0.2
		c0.7,0.3,1.3,0,1.5-0.5l1.3-2.9c0.3-0.6,0.2-1.1-0.5-1.5L72.9,218.9z"/>
	<path style="&st35;" d="M68.8,218.3c-0.4-0.8-1-1.7-1.9-2.2c-0.7-0.4-1.4-0.6-1.7-0.1c-0.4,0.6,0.3,1.4,0.6,1.6
		c0.8,0.8,1.3,1.3,1.4,1.5c0.4,0.7,0.4,1.3,0,1.9c-0.7,1.3-2.4,1.3-3.6,0.6c-0.8-0.4-1.4-1.1-1.8-1.9l0.8-1.4
		c0.2,0.7,0.8,1.6,1.5,1.9c0.6,0.3,1.1,0.3,1.4-0.2c0.3-0.5-0.5-1.3-0.8-1.6c-1-1.1-1.8-1.9-0.9-3.3c0.9-1.5,2.7-1.2,3.8-0.6
		c0.8,0.4,1.6,1.2,2,2.1L68.8,218.3z"/>
	<path style="&st35;" d="M64.5,212.9l-6.7,5.4l-1.2-0.8l2.1-8.3l1.2,0.7l-0.5,1.7l2.4,1.5l1.4-1.1L64.5,212.9z M59.2,212.7l-1.1,3.4
		l0,0l2.7-2.4L59.2,212.7z"/>
	<path style="&st35;" d="M53.5,205.5l1.3,4.7l1.8-2.4l1.2,0.9l-4.8,6.6l-1.2-0.9l1.3-1.8l-4.3-0.4l1.1-1.5l3.4,0.2l-0.9-3.8
		L53.5,205.5z"/>
	<path style="&st35;" d="M52.9,205l-7.3,4.5l-1.1-0.9l3.2-8l1.1,0.9l-0.7,1.6l2.2,1.8l1.5-1L52.9,205z M47.7,204.1l-1.5,3.3l0,0l3-2
		L47.7,204.1z"/>
	<path style="&st35;" d="M46.1,199.1l0.8,0.8l-0.8,0.9l-0.8-0.8L46.1,199.1z"/>
	<path style="&st35;" d="M32.7,197.2l7.6-3.9l0.9,0.9l-1.3,2.8l2.8-1.2l0.9,0.9l-4.1,7.5l-1.3-1.4l2.8-4.9l-3.3,1.7l-0.3-0.3
		l1.8-3.8l-5.3,2.9L32.7,197.2z"/>
	<path style="&st35;" d="M38,190.7l-6.2,5.3l-1-1.2l6.2-5.3L38,190.7z"/>
	<path style="&st35;" d="M36,188.4l-6.5,5l-1.1-1.5l2.8-5.6l-4.5,3.5l-0.9-1.2l6.5-5l1,1.3l-2.4,5.2l4-3.1L36,188.4z"/>
	<path style="&st35;" d="M21.9,166.1c0.4,0.8,0.5,2.3-1,3l-3.2,1.5c-1.3,0.6-2.7,0-3.2-1.2l-0.5-1c-0.6-1.2-0.1-2.6,1.2-3.2l3.2-1.5
		c1.2-0.6,2.5,0.1,2.9,1L21.9,166.1z M20.3,165.8c-0.3-0.6-0.8-0.8-1.5-0.5l-2.9,1.3c-0.5,0.2-0.8,0.8-0.5,1.4l0.2,0.5
		c0.3,0.7,0.9,0.8,1.5,0.6l2.9-1.3c0.6-0.3,0.9-0.7,0.6-1.4L20.3,165.8z"/>
	<path style="&st35;" d="M17.5,162.8c0.2-0.9,0.3-1.9-0.1-2.9c-0.3-0.7-0.7-1.3-1.3-1.2c-0.7,0.2-0.6,1.3-0.6,1.7
		c0.1,1.1,0.1,1.8,0.1,2.1c-0.1,0.7-0.5,1.2-1.2,1.5c-1.4,0.6-2.7-0.6-3.1-1.8c-0.3-0.9-0.4-1.8-0.2-2.7l1.5-0.6
		c-0.3,0.7-0.4,1.7-0.1,2.5c0.3,0.6,0.7,0.9,1.2,0.7c0.5-0.2,0.5-1.4,0.4-1.8c-0.1-1.5-0.2-2.6,1.4-3.1c1.6-0.6,2.9,0.8,3.3,2
		c0.3,0.9,0.4,2,0.2,2.9L17.5,162.8z"/>
	<path style="&st35;" d="M17.6,155.9L9,155.8l-0.4-1.4l7-5.1l0.4,1.3l-1.5,1l0.9,2.7l1.8,0L17.6,155.9z M13.7,152.4l-3,2l0,0
		l3.6-0.1L13.7,152.4z"/>
	<path style="&st35;" d="M14,143.2l-2,4.5l2.9-0.7l0.4,1.5l-7.9,2L7,148.9l2.2-0.5l-3.1-3l1.8-0.4l2.5,2.3l1.7-3.5L14,143.2z"/>
	<path style="&st35;" d="M13.8,142.4l-8.5-1.2L5,139.8l7.5-4.1l0.2,1.4l-1.6,0.8l0.5,2.8l1.8,0.2L13.8,142.4z M10.3,138.4l-3.2,1.6
		l0,0l3.6,0.3L10.3,138.4z"/>
	<path style="&st35;" d="M12.3,133.5l0.2,1.1l-1.2,0.2l-0.2-1.1L12.3,133.5z"/>
	<path style="&st35;" d="M3.2,123.5l8.3,1.9l0.1,1.3L8.8,128l3,0.9l0.1,1.3l-8,3.1l-0.1-1.9l5.3-2l-3.6-0.9l0-0.5l3.8-1.8l-6-1.2
		L3.2,123.5z"/>
	<path style="&st35;" d="M11.4,121.9L3.3,122l0-1.5l8.2-0.1L11.4,121.9z"/>
	<path style="&st35;" d="M11.4,118.9l-8.2-0.3l0.1-1.8l5.8-2.5l-5.7-0.2l0.1-1.5l8.2,0.3l-0.1,1.6l-5.2,2.5l5.1,0.2L11.4,118.9z"/>
	<path style="&st35;" d="M14.9,92.8c-0.2,0.9-1.1,2.1-2.7,1.6l-3.4-0.9c-1.4-0.4-2.1-1.7-1.7-3l0.3-1c0.4-1.3,1.5-2,2.9-1.7l3.4,0.9
		c1.3,0.3,1.8,1.7,1.6,2.6L14.9,92.8z M13.8,91.5c0.2-0.6-0.1-1.2-0.8-1.4L10,89.3c-0.6-0.1-1.1,0.1-1.3,0.8l-0.1,0.6
		c-0.2,0.7,0.2,1.2,0.7,1.4l3.1,0.8c0.6,0.2,1.1,0,1.3-0.7L13.8,91.5z"/>
	<path style="&st35;" d="M13.7,87.2c0.7-0.5,1.5-1.3,1.8-2.3c0.2-0.7,0.3-1.5-0.2-1.7c-0.6-0.3-1.3,0.6-1.5,0.9
		c-0.6,0.9-1.1,1.5-1.3,1.7c-0.6,0.5-1.2,0.6-1.9,0.4c-1.4-0.5-1.7-2.2-1.3-3.4c0.3-0.9,0.8-1.6,1.6-2.1l1.5,0.5
		c-0.7,0.4-1.4,1-1.6,1.8c-0.1,0.7-0.1,1.1,0.5,1.3c0.5,0.2,1.2-0.8,1.4-1.1c0.9-1.2,1.5-2.1,3.1-1.5c1.6,0.6,1.7,2.4,1.3,3.7
		c-0.3,0.9-0.9,1.8-1.7,2.4L13.7,87.2z"/>
	<path style="&st35;" d="M18.2,82.1l-6.5-5.6l0.6-1.4l8.6,0.6L20.3,77l-1.7-0.2l-1.1,2.6l1.4,1.1L18.2,82.1z M17.5,76.8l-3.6-0.4
		l0,0l2.8,2.2L17.5,76.8z"/>
	<path style="&st35;" d="M23.6,70l-4.4,2.1l2.7,1.3l-0.7,1.4l-7.3-3.6l0.7-1.4l2,1l-0.4-4.3l1.7,0.8l0.4,3.4l3.6-1.6L23.6,70z"/>
	<path style="&st35;" d="M23.9,69.3l-5.8-6.4l0.7-1.3l8.4,1.7l-0.7,1.2L25,64.1l-1.4,2.4l1.2,1.3L23.9,69.3z M23.9,64l-3.5-0.9l0,0
		l2.5,2.6L23.9,64z"/>
	<path style="&st35;" d="M28.5,61.5l-0.6,1l-1-0.7l0.6-1L28.5,61.5z"/>
	<path style="&st35;" d="M28,48l5.2,6.8l-0.7,1l-3-0.8l1.7,2.6l-0.7,1l-8.1-2.8l1.1-1.5l5.4,1.9l-2.2-3l0.3-0.4l4.1,1.1l-3.8-4.7
		L28,48z"/>
	<path style="&st35;" d="M35.4,52l-6.3-5.2l1-1.2l6.3,5.2L35.4,52z"/>
	<path style="&st35;" d="M37.3,49.7l-6.1-5.5l1.2-1.4l6,1.8l-4.2-3.8l1-1.1l6.1,5.5l-1.1,1.2l-5.6-1.4l3.8,3.4L37.3,49.7z"/>
	<path style="&st35;" d="M56.7,32c-0.8,0.5-2.2,0.9-3.2-0.5l-2-2.9c-0.8-1.2-0.5-2.6,0.6-3.4l0.9-0.6c1.1-0.8,2.5-0.6,3.3,0.6l2,2.9
		c0.8,1.1,0.3,2.5-0.4,3L56.7,32z M56.8,30.3c0.5-0.4,0.7-1,0.3-1.5l-1.8-2.6c-0.3-0.5-0.9-0.7-1.5-0.2l-0.5,0.3
		c-0.6,0.4-0.6,1.1-0.3,1.5l1.8,2.6c0.4,0.5,0.9,0.7,1.5,0.3L56.8,30.3z"/>
	<path style="&st35;" d="M59.3,27c0.9,0.1,1.9,0,2.9-0.6c0.6-0.4,1.2-0.9,0.9-1.5c-0.3-0.6-1.3-0.4-1.7-0.3c-1.1,0.3-1.8,0.5-2,0.5
		c-0.8,0-1.3-0.3-1.7-0.9c-0.8-1.3,0.1-2.7,1.2-3.4c0.8-0.5,1.7-0.7,2.6-0.6l0.8,1.3c-0.8-0.2-1.8-0.1-2.4,0.4
		c-0.5,0.4-0.8,0.8-0.5,1.3c0.3,0.5,1.4,0.2,1.8,0.1c1.4-0.4,2.5-0.6,3.3,0.9c0.8,1.5-0.3,2.9-1.4,3.6c-0.8,0.5-1.9,0.8-2.8,0.7
		L59.3,27z"/>
	<path style="&st35;" d="M66.1,25.9l-1.4-8.5l1.3-0.7l6.2,6L71,23.4l-1.2-1.3l-2.5,1.3l0.3,1.7L66.1,25.9z M68.9,21.5l-2.5-2.6l0,0
		l0.7,3.5L68.9,21.5z"/>
	<path style="&st35;" d="M78,20.1l-4.7-1.2l1.2,2.8l-1.4,0.6l-3.3-7.4l1.4-0.6l0.9,2.1l2.5-3.6l0.8,1.7l-1.9,2.8l3.8,1.1L78,20.1z"
		/>
	<path style="&st35;" d="M78.7,19.8l-0.3-8.6l1.4-0.5l5.4,6.7l-1.3,0.5l-1-1.4l-2.6,1l0.1,1.8L78.7,19.8z M82.1,15.7L80,12.8l0,0
		l0.3,3.6L82.1,15.7z"/>
	<path style="&st35;" d="M87.2,16.8l-1.1,0.3L85.8,16l1.1-0.3L87.2,16.8z"/>
	<path style="&st35;" d="M95.5,6.1l-0.4,8.5L93.9,15l-1.8-2.5l-0.3,3.1l-1.2,0.3l-4.4-7.3l1.8-0.5l2.9,4.9L91,9.2l0.5-0.1l2.4,3.5
		L94,6.5L95.5,6.1z"/>
	<path style="&st35;" d="M98.5,13.9l-1.5-8l1.5-0.3l1.5,8L98.5,13.9z"/>
	<path style="&st35;" d="M101.5,13.3l-1.1-8.1l1.8-0.3l3.5,5.2l-0.8-5.6l1.5-0.2l1.1,8.1l-1.6,0.2L102.6,8l0.7,5.1L101.5,13.3z"/>
	<path style="&st35;" d="M127.8,12.1c-0.9-0.1-2.2-0.7-2.1-2.4l0.3-3.5c0.1-1.5,1.3-2.3,2.7-2.2l1.1,0.1c1.4,0.1,2.3,1.2,2.2,2.6
		l-0.3,3.5c-0.1,1.3-1.3,2.1-2.3,2L127.8,12.1z M128.9,10.9c0.7,0.1,1.1-0.3,1.2-1l0.3-3.2c0-0.6-0.3-1.1-1-1.1l-0.6,0
		c-0.7-0.1-1.2,0.4-1.2,1l-0.3,3.1c-0.1,0.6,0.2,1.1,1,1.2L128.9,10.9z"/>
	<path style="&st35;" d="M132.9,9.9c0.7,0.6,1.5,1.2,2.6,1.4c0.7,0.1,1.5,0,1.6-0.5c0.2-0.7-0.8-1.2-1.2-1.3c-1-0.5-1.7-0.8-1.9-0.9
		c-0.6-0.5-0.8-1.1-0.7-1.8c0.2-1.5,1.8-2,3.1-1.8c0.9,0.1,1.7,0.5,2.4,1.2l-0.2,1.6c-0.5-0.6-1.3-1.2-2.1-1.3
		c-0.7,0-1.1,0.1-1.2,0.7c-0.1,0.5,1,1.1,1.3,1.2c1.3,0.6,2.3,1.1,2,2.8c-0.3,1.7-2.1,2.1-3.4,1.9c-0.9-0.1-1.9-0.6-2.7-1.2
		L132.9,9.9z"/>
	<path style="&st35;" d="M138.8,13.5l4.3-7.4l1.4,0.3l0.9,8.6l-1.4-0.3l-0.1-1.8l-2.8-0.6l-0.9,1.5L138.8,13.5z M143.9,11.8
		l-0.2-3.6l0,0l-1.7,3.2L143.9,11.8z"/>
	<path style="&st35;" d="M151.7,16.6l-2.9-3.9l-0.8,2.9l-1.5-0.4l2.2-7.8l1.5,0.4l-0.6,2.2l4.2-1.2l-0.5,1.8l-3.3,1l2.2,3.2
		L151.7,16.6z"/>
	<path style="&st35;" d="M152.6,16.9l5.3-6.8l1.4,0.5l-0.2,8.6l-1.3-0.5l0.1-1.8l-2.7-0.9l-1.1,1.4L152.6,16.9z M157.7,15.9l0.2-3.6
		l0,0l-2.1,2.9L157.7,15.9z"/>
	<path style="&st35;" d="M161.1,20l-1.1-0.4l0.5-1.1l1.1,0.4L161.1,20z"/>
	<path style="&st35;" d="M174.3,17l-5.7,6.3l-1.2-0.5l0.3-3.1l-2.2,2.2l-1.1-0.5l1.2-8.5l1.7,0.8l-0.9,5.6l2.5-2.7l0.4,0.2l-0.3,4.2
		l3.9-4.6L174.3,17z"/>
	<path style="&st35;" d="M171.6,25l3.9-7.2l1.3,0.7l-3.9,7.2L171.6,25z"/>
	<path style="&st35;" d="M174.3,26.4l4.3-7l1.6,1l-0.6,6.3l3-4.8l1.3,0.8l-4.3,7l-1.4-0.8l0.4-5.8l-2.7,4.4L174.3,26.4z"/>
	<path style="&st35;" d="M195.3,42.2c-0.7-0.6-1.2-2-0.1-3.2l2.4-2.5c1-1.1,2.5-1,3.5,0l0.8,0.7c1,1,1,2.3,0,3.4l-2.5,2.5
		c-0.9,0.9-2.4,0.8-3,0.1L195.3,42.2z M197,42c0.5,0.5,1.1,0.5,1.6,0l2.2-2.3c0.4-0.4,0.5-1,0-1.5l-0.4-0.4c-0.5-0.5-1.2-0.4-1.6,0
		l-2.2,2.3c-0.4,0.4-0.6,1,0,1.5L197,42z"/>
	<path style="&st35;" d="M200.7,43.8c0.1,0.9,0.4,1.9,1.1,2.7c0.5,0.6,1.1,1,1.6,0.6c0.6-0.4,0.1-1.4-0.1-1.8
		c-0.5-1-0.8-1.7-0.8-1.9c-0.1-0.7,0-1.4,0.6-1.8c1.1-1,2.7-0.4,3.6,0.6c0.6,0.7,1,1.5,1.1,2.4l-1.2,1.1c0-0.8-0.2-1.8-0.8-2.3
		c-0.5-0.4-1-0.6-1.4-0.3c-0.4,0.4,0.1,1.4,0.2,1.8c0.6,1.4,1.1,2.3-0.2,3.4c-1.3,1.1-2.9,0.3-3.8-0.7c-0.6-0.7-1.1-1.7-1.2-2.7
		L200.7,43.8z"/>
	<path style="&st35;" d="M203,50.3l8.1-3l0.9,1.2l-4.7,7.2l-0.9-1.1l1-1.4l-1.8-2.2l-1.6,0.6L203,50.3z M207.9,52.2l2.1-2.9l0,0
		l-3.3,1.4L207.9,52.2z"/>
	<path style="&st35;" d="M210.9,60.9l0.3-4.9l-2.5,1.7l-0.9-1.3l6.7-4.6l0.9,1.3l-1.9,1.3l3.9,1.8l-1.5,1l-3.1-1.3l-0.4,3.9
		L210.9,60.9z"/>
	<path style="&st35;" d="M211.3,61.6l8.4-1.9l0.8,1.3l-5.6,6.5l-0.7-1.2l1.2-1.3l-1.5-2.4l-1.7,0.4L211.3,61.6z M215.9,64.1l2.5-2.6
		l0,0l-3.5,0.9L215.9,64.1z"/>
	<path style="&st35;" d="M215.8,69.4l-0.5-1l1.1-0.6l0.5,1L215.8,69.4z"/>
	<path style="&st35;" d="M227.9,75.5l-8.5,1.2l-0.5-1.2l2.2-2.2l-3.1,0.2l-0.5-1.2l6.3-5.7l0.8,1.7l-4.3,3.8l3.7-0.5l0.2,0.4l-3,3
		l6-1L227.9,75.5z"/>
	<path style="&st35;" d="M220.8,80l7.6-3l0.6,1.4l-7.6,3L220.8,80z"/>
	<path style="&st35;" d="M221.9,82.8l7.7-2.6l0.6,1.7l-4.5,4.4l5.4-1.8l0.5,1.4l-7.7,2.6l-0.5-1.5l4-4.2l-4.8,1.6L221.9,82.8z"/>
	<path style="&st35;" d="M228,108.4c-0.1-0.9,0.3-2.3,2-2.5l3.5-0.4c1.5-0.2,2.5,0.9,2.7,2.2l0.1,1.1c0.1,1.4-0.7,2.5-2.2,2.6
		l-3.5,0.4c-1.3,0.1-2.3-0.9-2.4-1.8L228,108.4z M229.4,109.2c0.1,0.7,0.5,1.1,1.2,1l3.2-0.3c0.6-0.1,1-0.5,0.9-1.2l-0.1-0.6
		c-0.1-0.7-0.6-1.1-1.2-1l-3.1,0.3c-0.6,0.1-1.1,0.4-1,1.2L229.4,109.2z"/>
	<path style="&st35;" d="M231.1,113c-0.5,0.8-0.9,1.7-0.9,2.8c0,0.7,0.2,1.5,0.8,1.5c0.7,0.1,1-1,1.1-1.4c0.3-1.1,0.5-1.8,0.6-2
		c0.4-0.7,0.9-1,1.6-1c1.5-0.1,2.3,1.4,2.4,2.7c0,0.9-0.2,1.8-0.7,2.6l-1.6,0.1c0.5-0.6,1-1.5,0.9-2.3c-0.1-0.7-0.3-1.1-0.9-1.1
		c-0.5,0-0.9,1.1-1,1.5c-0.4,1.4-0.7,2.5-2.4,2.5c-1.7,0-2.4-1.7-2.5-3c0-0.9,0.2-2,0.7-2.8L231.1,113z"/>
	<path style="&st35;" d="M228.7,119.5l8.1,2.9l0,1.5l-8.2,2.5l0-1.4l1.7-0.4l0.1-2.8l-1.7-0.6L228.7,119.5z M231.2,124.1l3.5-0.9
		l0,0l-3.4-1.1L231.2,124.1z"/>
	<path style="&st35;" d="M228,132.7l3.3-3.6l-3-0.3l0.1-1.5l8.1,0.7l-0.1,1.5l-2.3-0.2l1.9,3.9l-1.8-0.2l-1.6-3l-2.8,2.8L228,132.7z
		"/>
	<path style="&st35;" d="M227.9,133.5l7.7,3.9l-0.2,1.5l-8.5,1.4l0.2-1.4l1.7-0.2l0.4-2.8l-1.6-0.8L227.9,133.5z M229.8,138.4
		l3.6-0.4l0,0l-3.3-1.5L229.8,138.4z"/>
	<path style="&st35;" d="M226.3,142.4l0.2-1.1l1.2,0.2l-0.2,1.1L226.3,142.4z"/>
	<path style="&st35;" d="M231.6,154.8l-7.2-4.5l0.3-1.2l3.1-0.3l-2.5-1.8l0.3-1.2l8.5-0.3l-0.5,1.8l-5.7,0.1l3.2,2l-0.1,0.5
		l-4.2,0.4l5.2,3.1L231.6,154.8z"/>
	<path style="&st35;" d="M223.3,153.7l7.7,2.6l-0.5,1.4l-7.7-2.6L223.3,153.7z"/>
	<path style="&st35;" d="M222.4,156.6l7.6,3l-0.7,1.7l-6.3,0.5l5.3,2l-0.6,1.4l-7.6-3l0.6-1.5l5.7-0.6l-4.8-1.9L222.4,156.6z"/>
	<path style="&st35;" d="M210.5,180.1c0.5-0.8,1.7-1.6,3.1-0.6l2.9,2c1.2,0.8,1.4,2.3,0.6,3.4l-0.6,0.9c-0.8,1.1-2.1,1.4-3.3,0.6
		l-2.9-2c-1.1-0.7-1.2-2.2-0.7-3L210.5,180.1z M211.1,181.7c-0.4,0.6-0.3,1.1,0.3,1.5l2.6,1.8c0.5,0.3,1.1,0.3,1.5-0.3l0.3-0.5
		c0.4-0.6,0.2-1.2-0.2-1.5l-2.6-1.8c-0.5-0.3-1.1-0.4-1.5,0.3L211.1,181.7z"/>
	<path style="&st35;" d="M209.9,185.7c-0.9,0.3-1.8,0.7-2.4,1.6c-0.5,0.6-0.8,1.3-0.3,1.7c0.5,0.5,1.4-0.1,1.7-0.4
		c0.9-0.7,1.5-1.1,1.7-1.2c0.7-0.3,1.3-0.2,1.9,0.2c1.2,0.9,0.9,2.6,0.1,3.6c-0.6,0.7-1.3,1.3-2.2,1.5l-1.2-1
		c0.8-0.1,1.7-0.5,2.1-1.2c0.4-0.6,0.5-1.1,0-1.4c-0.4-0.3-1.4,0.3-1.7,0.5c-1.2,0.8-2.1,1.5-3.4,0.4c-1.3-1.1-0.8-2.8,0-3.9
		c0.6-0.7,1.5-1.4,2.4-1.7L209.9,185.7z"/>
	<path style="&st35;" d="M203.9,189l4.3,7.4l-1,1.1l-7.9-3.4l0.9-1l1.6,0.8l1.9-2.1l-0.9-1.5L203.9,189z M202.9,194.2l3.2,1.6l0,0
		l-1.9-3L202.9,194.2z"/>
	<path style="&st35;" d="M194.9,198.7l4.8-0.6l-2.1-2.1l1.1-1.1l5.7,5.8l-1.1,1.1l-1.6-1.6l-1,4.2l-1.3-1.3l0.7-3.3l-3.9,0.3
		L194.9,198.7z"/>
	<path style="&st35;" d="M194.3,199.3l3.3,7.9l-1.1,1l-7.4-4.4l1-0.9l1.5,1l2.1-1.8l-0.7-1.6L194.3,199.3z M192.6,204.3l3,2l0,0
		l-1.5-3.3L192.6,204.3z"/>
	<path style="&st35;" d="M187.4,205.1l0.9-0.7l0.8,1l-0.9,0.7L187.4,205.1z"/>
	<path style="&st35;" d="M183.4,218l-2.6-8.1l1-0.7l2.6,1.8l-0.8-3l1-0.7l6.7,5.3l-1.5,1.1l-4.4-3.5l1.1,3.6l-0.4,0.3l-3.5-2.4
		l2,5.7L183.4,218z"/>
	<path style="&st35;" d="M177.8,211.8l4.3,7l-1.3,0.8l-4.3-7L177.8,211.8z"/>
	<path style="&st35;" d="M175.3,213.4l3.9,7.2l-1.6,0.9l-5.1-3.6l2.7,5l-1.3,0.7l-3.9-7.2l1.4-0.8l4.8,3.2l-2.5-4.5L175.3,213.4z"/>
	<path style="&st35;" d="M151.1,223.8c0.9-0.3,2.3-0.1,2.8,1.5l1,3.4c0.4,1.4-0.4,2.7-1.7,3l-1,0.3c-1.3,0.4-2.6-0.3-3-1.7l-1-3.4
		c-0.4-1.3,0.5-2.4,1.4-2.7L151.1,223.8z M150.5,225.4c-0.6,0.2-1,0.7-0.8,1.4l0.9,3c0.2,0.5,0.6,0.9,1.3,0.7l0.6-0.2
		c0.7-0.2,1-0.8,0.8-1.3l-0.9-3c-0.2-0.6-0.6-1-1.3-0.8L150.5,225.4z"/>
	<path style="&st35;" d="M147.1,227.7c-0.8-0.4-1.8-0.6-2.9-0.4c-0.7,0.2-1.4,0.5-1.4,1.1c0.1,0.7,1.1,0.8,1.6,0.8
		c1.1,0.1,1.8,0.1,2.1,0.2c0.7,0.2,1.1,0.7,1.3,1.4c0.3,1.5-1,2.5-2.3,2.8c-0.9,0.2-1.8,0.1-2.6-0.2l-0.3-1.5
		c0.7,0.4,1.6,0.7,2.4,0.4c0.6-0.2,1-0.5,0.9-1.1c-0.1-0.5-1.3-0.7-1.7-0.7c-1.5-0.1-2.6-0.2-2.9-1.9c-0.3-1.7,1.2-2.7,2.5-3
		c0.9-0.2,2-0.1,2.9,0.2L147.1,227.7z"/>
	<path style="&st35;" d="M140.3,226.4l-1.4,8.5l-1.5,0.2l-3.9-7.7l1.4-0.2l0.7,1.6l2.8-0.4l0.3-1.8L140.3,226.4z M136.2,229.8
		l1.5,3.3l0,0l0.4-3.6L136.2,229.8z"/>
	<path style="&st35;" d="M127.1,228.1l4.1,2.7l-0.3-3l1.5-0.1l0.7,8.1l-1.5,0.1l-0.2-2.3l-3.5,2.6l-0.2-1.8l2.7-2.1l-3.2-2.3
		L127.1,228.1z"/>
	<path style="&st35;" d="M126.4,228.1l-2.5,8.2l-1.5,0l-2.9-8.1l1.4,0l0.5,1.7l2.8-0.1l0.5-1.7L126.4,228.1z M121.9,230.9l1,3.4l0,0
		l0.9-3.5L121.9,230.9z"/>
	<path style="&st35;" d="M117.3,228.2l1.1,0l0,1.2l-1.1,0L117.3,228.2z"/>
	<path style="&st35;" d="M106,235.6l3.2-7.9l1.3,0.1l0.8,3l1.3-2.8l1.3,0.1l1.8,8.4l-1.9-0.2l-1.2-5.6l-1.4,3.5l-0.5,0l-1.2-4.1
		l-2.1,5.7L106,235.6z"/>
	<path style="&st35;" d="M105.7,227.2l-1.2,8.1l-1.5-0.2l1.2-8.1L105.7,227.2z"/>
	<path style="&st35;" d="M102.7,226.8l-1.6,8l-1.8-0.4l-1.6-6.1l-1.1,5.6l-1.5-0.3l1.6-8l1.6,0.3l1.7,5.5l1-5L102.7,226.8z"/>
</g>
<g>
	<defs>
		<circle id="SVGID_00000071541412189470504840000003368732914399169722_" cx="120" cy="120" r="104.9"/>
	</defs>
	<clipPath id="SVGID_00000079484136981540772000000008120802465593359775_">
		<use xlink:href="#SVGID_00000071541412189470504840000003368732914399169722_"  style="overflow:visible;"/>
	</clipPath>
	<g style="clip-path:url(#SVGID_00000079484136981540772000000008120802465593359775_);">
		<g>
			<g>
				<path style="&st30;" d="M171.5-34.8c-4.6,19.9-9.2,32.3-16.4,55.8c-0.1,0-0.2,0-0.4,0.1c-0.6,0.1-1.3,0.4-2.1,0.7
					c-4.3,1.8-7.3,4.9-10.1,7.9c-0.3,0.3-0.4,0.3-0.4,0.3c-0.1,0-0.4-0.2-0.6-0.3c-0.5-0.3-1-0.6-1.5-0.8c-1.8-1-3.7-2-5.7-2.8
					c-3.5-1.4-7.4-2.3-12-2.5h0h0h-1.1l-3,0h-0.1H118c-0.5,0.1-1,0.1-1.4,0.2c-0.9,0.1-1.8,0.2-2.6,0.4c-4.5,0.7-8.6,2.1-12.4,4.3
					c0,0,0,0-0.1,0c-0.1,0-0.2,0-0.3,0c-0.8-0.6-1.6-1.3-2.4-1.9c-1.1-0.9-2.3-1.9-3.6-2.8c-2.1-1.4-4.9-3.1-8.3-3.1
					c-0.1,0-0.2,0-0.3,0c0,0,0,0,0,0s0,0,0,0C79-4.5,70.8-29.4,69.1-34.8L171.5-34.8L171.5-34.8z"/>
			</g>
			<g>
				<path style="&st30;" d="M161.8,88.5c0.1,0,0.3,0,0.4,0.1c0.3,0.1,0.4,0.2,0.6,0.3c0,0,0,0,0,0c0.2,0,0.5,0,0.7-0.1
					c0.8-0.1,1.6-0.1,2.4-0.2c0.3-0.1,0.6-0.1,1-0.2c0.1,0,0.2-0.1,0.3-0.1l0,0l0,0c0.1-0.1,0.2-0.1,0.3-0.2
					c0.1-0.1,0.2-0.2,0.3-0.3c0.1-0.1,0.2-0.2,0.2-0.3l0.2-0.3c0.1-0.1,0.2-0.2,0.2-0.3c0.2-0.3,0.5-0.6,0.7-0.8
					c0.1-0.1,0.2-0.3,0.4-0.4l0,0l0,0c0,0,0.1-0.1,0.1-0.1l0.1-0.1l0,0l0,0l0,0l0,0c0,0,0-0.1,0.1-0.2l0,0c0-0.1,0-0.2,0.1-0.3
					c0.1-0.2,0.2-0.5,0.3-0.6c0.1-0.1,0.1-0.2,0.2-0.3c1-1.4,2.6-2.1,4.1-2.1c0.1,0,0.2,0,0.3,0h0.1l0.1,0c0.1,0,0.1,0,0.1,0
					c1.2,0.1,2.4,0.8,3.2,1.8c0.4-0.2,0.8-0.4,1.2-0.5c0.4-0.1,0.8-0.2,1.2-0.2c0,0,0.1,0,0.1,0c0.2-0.5,0.8-0.8,1-1.3
					c1.5-3.8,3.2-7.6,4.9-11.3c2.2-4.9,4.6-9.6,6.8-14.5c2.1-4.7,4.2-9.4,6.2-14.2c1.7-4,3.3-8,5-12c0.8-1.9,1.7-3.7,2.6-5.6v-57.4
					c0-0.4,0-0.8,0-1.1c0.1-0.5-0.1-0.6-0.6-0.6c-1.3,0-2.7,0-4,0c-1.6,3.9-3.3,7.9-4.8,11.8c-1.6,4.2-3.2,8.5-4.7,12.8
					c-4.8,14.6-9.6,29.2-14.4,43.8c-1.4,4.1-2.7,8.3-4.1,12.4c-2.7,8.4-5.4,16.9-8.1,25.3c-1.3,4.1-2.8,8.2-4.1,12.4
					c-0.5,1.6-1,3.3-1.4,5l0,0C161.5,88.6,161.7,88.5,161.8,88.5z"/>
			</g>
			<g>
				<path style="&st30;" d="M94.9,200.5c-1.3-2.8-2.6-5.6-3.7-8.3c-1.5-3.5-2.9-7-4.8-10.2c-5.9-9.9-12.1-19.6-18.2-29.4
					c-3-4.8-6-9.6-8.9-14.4c-1.8-2.9-3.4-5.9-5.2-8.8c-2-3.2-4.1-6.3-6.1-9.4c-2.8-4.5-5.5-9.1-8.3-13.7c-3.6-5.9-7.3-11.8-11-17.6
					C27.7,87.5-3.1,35.7-4,34.5C-4,47.4,1.5,69.1,1.5,82c-29.1-40.1-8.2,8-8,8.2c2.3,2.7,37.6,39.6,40,42.3c1.3,1.5,2.6,2.9,3.9,4.4
					c2.2,2.5,4.3,5,6.5,7.5c1.9,2.2,3.8,4.3,5.7,6.5c2,2.4,4,4.8,6.1,7.1c1.7,2,3.4,3.8,5,5.8c2.2,2.6,4.3,5.3,6.5,8
					c2.7,3.3,5.4,6.5,8.1,9.8c2.3,2.8,4.6,5.7,6.9,8.6c2.8,3.5,5.6,7,8.3,10.5c1.4,1.8,2.6,3.8,3.9,5.7c0.1,0.1,0.4,0.2,0.6,0.2
					c0.1-0.6,0.3-1.1,0.5-1.7C95.8,203.3,95.7,202.1,94.9,200.5z"/>
			</g>
			<g>
				<path style="&st30;" d="M52.2,89.7c0-1.1,0.5-2.2,1.2-2.9c0.7-0.7,1.6-1.1,2.6-1.2c0.4-1.7,1.6-3.1,3.2-3.6
					c0.4-0.1,0.9-0.2,1.4-0.2c0.5,0,1,0.1,1.5,0.3l0.7,0.3v0.1c0.1,0.1,0.3,0.2,0.4,0.2c0.8-0.9,1.9-1.4,3-1.5L27.7-34.8
					c-0.8,0-1.8-0.3-2.2,0.1c-0.4,0.4-0.1,1.4-0.1,2.2v79.3c0.2,0.1,0.5,0.2,0.6,0.4c1,2,2,4,3,5.9c1.7,3.3,3.5,6.5,5.2,9.8
					c1.6,3.1,3.1,6.1,4.7,9.2c0.1,0.2,0.2,0.4,0.3,0.7c1.9,3.3,3.8,6.5,5.5,9.8c1.8,3.3,3.3,6.8,5.4,9.9c0.1-0.6,0.4-1.2,0.8-1.7
					C51.3,90.3,51.7,90,52.2,89.7z"/>
			</g>
			<g>
				<path style="&st30;" d="M149,196.7c0.3-0.2,0.7-0.5,0.9-0.8c2.4-3.1,4.9-6.1,7.3-9.2c2.9-3.7,5.8-7.5,8.7-11.3
					c2.6-3.4,5.1-7,7.7-10.4c3.3-4.3,6.7-8.5,10-12.8c2.8-3.6,5.5-7.2,8.3-10.8c3.2-4.1,6.4-8.1,9.7-12.1c1.9-2.4,52-59.1,54-61.4
					c0-12.4-26.4-2.2-26.4-14.5c-0.4,0.3-22.5,32.5-22.8,32.9c-2.2,3.5-4.4,7-6.7,10.4c-0.8,1.3-1.6,2.6-2.4,4
					c-2.6,4.7-5.2,9.4-7.9,14.1c-1.6,2.9-3.4,5.6-5,8.5c-2.4,4.1-4.7,8.2-7.1,12.2c-1.6,2.8-3.2,5.5-4.8,8.3
					c-2.2,3.8-4.4,7.7-6.6,11.5c-2.6,4.4-5.1,8.8-7.7,13.1c-1.7,3-3.4,5.9-5,8.9c-0.6,1.2-1.2,2.4-1.5,3.7c-0.4,1.5-0.8,3.1-1.1,4.7
					c-0.1,1.4-0.3,2.8-0.6,4.1c-0.3,1.1-0.6,2.2-0.9,3.3c-0.1,0.8-0.3,1.5-0.4,2.3C148.8,195.8,149,196.3,149,196.7z"/>
			</g>
			<g>
				<path style="&st30;" d="M93.7,212.5c-0.2-0.8-0.6-1.6-1.4-2.4c-4.4-4.1-8.6-8.3-12.9-12.5c-1.8-1.8-3.6-3.5-5.5-5.1
					c-1-0.9-2.2-1.6-3.2-2.5c-1.9-1.6-3.6-3.4-5.5-5c-1.5-1.3-3.1-2.5-4.6-3.8c-3.2-2.8-6.3-5.6-9.5-8.3c-3.5-3-7.1-5.9-10.7-8.8
					c-4-3.4-6.9-6.8-11-10.2c-0.7-0.6-30.9-32-31.8-32.5c0,6.5,28.2,43.9,28.2,50.3c0.9,0.6,1.8,1.2,2.8,1.8
					c2.7,1.8,5.5,3.5,8.2,5.3c4.3,2.8,8.4,5.8,12.7,8.6c7.1,4.6,14.4,9.1,21.5,13.7c2.2,1.4,4.2,3,6.3,4.5c1.9,1.3,3.8,2.5,5.7,3.9
					c3.2,2.2,6.3,4.5,9.5,6.8c0.4,0.3,1,0.6,1.2,0C93.7,215,93.7,213.8,93.7,212.5z"/>
			</g>
			<g>
				<path style="&st30;" d="M149.3,211.3c-0.1,0.5-0.2,1.1-0.3,1.6c0,0.2,0,0.5,0,0.8c0.6-0.4,1.3-0.7,1.8-1.2c4-3,7.9-6,12-8.9
					c5-3.6,10.2-6.9,15.2-10.5c4.1-2.9,8.1-6,12.2-9c5.8-4.3,11.6-8.5,17.5-12.8c0-7,37-49.9,37-56.9c-0.9,0.7-38.8,37.3-39.6,38.1
					c-4.1,3.8-8.1,7.6-12.2,11.4c-4.4,4.1-8.7,8.2-13.1,12.3c-4.2,4-8.4,8-12.5,12.1c-5,4.9-9.9,9.9-14.9,14.9
					c-1.2,1.2-2.4,2.5-3.1,3.9C149.4,208.5,149.5,209.9,149.3,211.3z"/>
			</g>
			<g>
				<path style="&st30;" d="M54.9,212.3c4.1,1.3,8.1,2.8,12.2,4.1c2.9,1,5.8,1.8,8.7,2.7c2.3,0.7,4.5,1.5,6.8,2.3
					c1.3,0.5,2.6,1,4,1.5c1.1,0.4,2.3,0.6,3.4,0.9c1.6,0.5,3.2,1.2,4.9,1.6c0.4,0.1,0.9-0.1,1.3-0.2c-0.5-1.2-0.7-2.6-1.5-3.5
					c-0.9-0.9-2.3-1.3-3.5-1.9c-5.9-3.1-11.7-6.1-17.5-9.2c-6.9-3.6-13.9-7.3-20.9-10.9c-8.9-4.6-17.9-9.1-26.8-13.6
					c0,5.8,0,11.6,0,17.4c1.1,0.2,2.3,0.3,3.4,0.6c3.1,1,6.2,2.1,9.4,3.1C44.1,209,49.5,210.5,54.9,212.3z"/>
			</g>
			<g>
				<path style="&st30;" d="M194.6,193.9c-3.2,1.7-6.4,3.3-9.5,5.1c-5.2,3-10.4,6.1-15.6,9.1c-5.5,3.2-11.1,6.3-16.6,9.4
					c-6.3,3.5-12.6,7-18.8,10.6c-2,1.2-3.9,2.6-5.8,4c-0.2,0.1-0.3,0.3-0.5,0.5c0.2,0,0.5,0.1,0.7,0.1c0.4-0.1,0.7-0.2,1.1-0.3
					c5.4-2,10.9-3.9,16.3-6c7.9-3,15.8-6.3,23.7-9.3c6.8-2.6,13.7-5.1,20.6-7.7c3.8-1.4,7.5-2.9,11.3-4.3c2-0.7,4.1-1.3,6.1-2
					c0-5.3,0-10.6,0-15.9c-0.5,0.1-1,0.2-1.4,0.4C202.4,189.7,198.5,191.8,194.6,193.9z"/>
			</g>
			<g>
				<path style="&st30;" d="M98.4,230.9c-0.2-0.4-0.3-0.7-0.6-1c-0.3-0.4-1.2-0.4-1.9-0.5c-5.3-1.2-10.7-2.4-16-3.5
					c-4-0.9-7.9-1.7-11.9-2.5c-2.9-0.6-5.9-1.2-8.9-1.9c-3.4-0.7-6.7-1.5-10.1-2.2c-5.3-1.1-10.6-2.2-15.9-3.3
					c-2.4-0.5-4.8-0.9-7.2-1.3c0,4.5,0,9.1,0,13.6c1.2,0.1,2.4,0.1,3.6,0.2c13.4,0.7,26.9,1.4,40.3,2.1c5.4,0.3,10.7,0.7,16,1.1
					c3.8,0.3,7.5,0.8,11.3,1.1c0.6,0.1,1.3-0.1,1.9-0.1c-0.1-0.2-0.1-0.4-0.2-0.5C98.7,231.7,98.6,231.3,98.4,230.9z"/>
			</g>
			<g>
				<path style="&st30;" d="M181.3,221c-7,1.9-14.1,3.8-21.1,5.7c-6.4,1.8-12.8,3.5-19.2,5.3c-3.1,0.9-6.2,2.2-9.3,3.4
					c-0.4,0.1-0.8,0.4-1.1,0.6c0.5,0,0.9,0.1,1.4,0.1c1.5-0.2,3.1-0.5,4.6-0.6c4.6-0.5,9.1-1,13.7-1.5c5.2-0.6,10.3-1.2,15.5-1.9
					c1.4-0.2,2.7-0.2,4.1-0.4c2.6-0.3,5.2-0.8,7.8-1c3.6-0.4,7.2-0.5,10.9-0.8c6.4-0.5,12.8-1,19.2-1.5c0-4.4,0-8.9,0-13.3
					c-3.1,0.6-6.1,1-9.2,1.7C192.8,218,187,219.5,181.3,221z"/>
			</g>
			<g>
				<path style="&st30;" d="M184.6,237.9c-11.8,0.1-23.6,0.4-35.4,0.6c-0.3,0-0.6,0.1-0.9,0.2c0.3,0.2,0.6,0.5,0.9,0.5
					c1.6,0.2,3.2,0.3,4.8,0.5c3.4,0.5,6.7,1,10.1,1.5c3.7,0.6,7.4,1.1,11,2c9.4,2.2,18.6,5,27.4,8.9c1.7,0.7,3.5,1.1,5.3,1.7
					c0-5.3,0-10.6,0-15.9c-0.2,0-0.5,0.1-0.8,0.1C199.5,237.8,192,237.8,184.6,237.9z"/>
			</g>
			<g>
				<path style="&st30;" d="M100.7,237c-0.1-0.3-0.4-0.5-0.9-0.5c-2-0.1-3.9-0.6-5.9-0.7c-9.1-0.7-18.2-0.6-27.3-0.1
					c-4.3,0.2-8.7,0.6-13,0.9c-3.7,0.2-7.3,0.4-11,0.6c-5.6,0.3-11.1,0.6-16.7,0.9c0,2,0,4,0,6.1c1.5-0.3,3.1-0.4,4.6-0.8
					c8.6-2,17.3-3.5,26.1-4.5c3.4-0.4,6.9-0.6,10.3-0.7c4.4-0.2,8.7-0.4,13.1-0.3c6.6,0.1,13.1,0.4,19.7,0.6c0.4,0,0.9-0.4,1.3-0.6
					c-0.1-0.2-0.1-0.4-0.2-0.6C100.7,237.1,100.7,237.1,100.7,237z"/>
			</g>
			<g>
				<path style="&st30;" d="M89.6,166.7c0.3-1,0.7-2.1,1-3.1c0.4-1.1,0.8-2.2,1.1-3.4c0.1-0.2,0.1-0.6,0-0.9
					c-0.6-2.1-1.3-4.2-1.9-6.2c-1.4-4.4-2.8-9-3.9-13.5c-0.4-1.7-0.9-2.5-1.7-3.1c-0.4-0.3-0.9-0.5-1.5-0.8
					c-4.4-1.6-8.3-4.3-12.1-8.4c-0.1,0.5-0.2,0.8-0.1,1.1c0.4,1.2,0.9,2.4,1.4,3.6c1.2,2.9,2.5,5.7,3.8,8.6
					c1.8,4.1,3.6,8.2,5.4,12.3c1.5,3.5,3.1,6.9,4.7,10.4c0.9,2,1.7,3.9,2.6,5.9c0.1,0.2,0.2,0.3,0.4,0.4l0,0
					c0.1-0.4,0.3-0.9,0.4-1.3C89.2,167.8,89.4,167.2,89.6,166.7z"/>
			</g>
			<g>
				<path style="&st30;" d="M161.4,133.6c-0.1,0.1-0.3,0.1-0.4,0.2c-2.4,1.4-5.1,2.6-8.2,3.3c-0.1,0.1-0.2,0.2-0.2,0.2
					c-0.9,2.6-1.7,5.3-2.6,7.9c-0.7,2.2-1.4,4.4-2.1,6.5c-0.1,0.5-0.3,0.9-0.4,1.4c-0.5,1.6-1,3.3-1.8,4.9c0,0,0,0,0,0
					c-0.2,0.6-0.4,1.1-0.5,1.7c-0.4,2.1,0.4,4.2,1.2,6.4l0.1,0.4c0.3,0.9,0.6,1.7,1,2.5c0.1,0.3,0.2,0.6,0.4,1
					c0.4-0.4,0.8-0.7,1.1-1.1c0.3-0.5,0.6-1,0.8-1.5c0.8-1.8,1.5-3.5,2.3-5.3c2.4-5.2,4.8-10.4,7.2-15.6c1.1-2.5,2.3-4.9,3.4-7.4
					c1.2-2.7,2.3-5.5,3.5-8.2c0.1-0.2,0.1-0.4,0.2-0.7c-0.1,0-0.1,0.1-0.2,0.1c-0.7,0.5-1.4,1.1-2.1,1.6
					C163.1,132.6,162.3,133.2,161.4,133.6z"/>
			</g>
			<g>
				<path style="&st30;" d="M131,225l-0.6-0.8c-0.2-0.2-0.4-0.5-0.6-0.7c-0.1,0-0.1,0.1-0.2,0.1c-1.3,1.7-2.4,3.5-3.6,5.3
					c-0.1,0.1-0.1,0.3-0.1,0.5c0.2,0,0.4,0,0.5,0c1.5-1.5,3.5-2.4,4.9-4l-0.1-0.2L131,225z"/>
			</g>
			<g>
				<path style="&st30;" d="M124.6,222.4c0.1,0.5,0.1,0.8,0.2,1c0.3-0.4,0.7-0.8,0.9-1.2c0.1-0.2-0.3-0.5-0.4-0.8
					C125,221.8,124.7,222.2,124.6,222.4z"/>
			</g>
			<path style="&st30;" d="M120.1,92.7c-1.1,0-3.6,1.9-3.6,2.8c0,1.5,1.9,2.9,3.9,2.8c2.1,0,3.2-1,3.2-2.6
				C123.5,94.6,121.4,92.7,120.1,92.7z"/>
			<g>
				<g>
					<path style="&st30;" d="M112.6,135.2c-1.1-0.5-1.4-0.7-1.6-0.8l-0.1-0.1c-0.1-0.1-0.2-0.2-0.2-0.5c0-0.5,0.1-0.7,0.1-0.7
						c0.1-0.1,0.3-0.3,0.4-0.4c0.2-0.1,0.4-0.2,0.4-0.2c0,0,0.2,0.1,0.8,0.7c0.5,0.5,0.8,1.1,1.1,1.7l0.2,0.7l0.6-0.4
						c0.8-0.6,1.7-1.3,2.5-1.9l0.3-0.2l-0.1-0.4c-0.3-1.1-1.1-2.1-2.3-3c-1.2-0.9-2.3-1.3-3.3-1.2c-0.6,0-1.4,0.5-2.5,1.4
						c-1.1,0.9-1.7,1.5-2,2c-0.4,0.6-0.6,1.4-0.5,2.2c0,0.8,0.1,1.5,0.4,2c0.3,0.6,0.8,1.1,1.6,1.6c0.8,0.5,1.6,0.9,2.5,1.3
						c1,0.4,1.5,0.7,1.7,0.9c0,0,0.1,0.1,0.1,0.4c0,0.5-0.1,0.7-0.1,0.8c-0.1,0.1-0.2,0.2-0.4,0.4c-0.2,0.1-0.3,0.1-0.4,0.2
						c0,0-0.2-0.1-0.8-0.7c-0.5-0.5-0.8-1.1-1.1-1.7l-0.2-0.7l-0.6,0.4c-0.8,0.6-1.6,1.2-2.5,1.7l-0.3,0.2c0-0.5,0.1-1.2,0-2.4
						l-0.1-2.6c-0.1-2.2-0.2-2.8-0.4-3.1c-0.3-0.7-1.1-1.5-2.2-2.5c-1.3-1.1-2.2-1.6-2.9-1.6c-0.7,0-1.6,0.4-2.8,1.4
						c-1.1,1-1.8,1.7-2.1,2.4c-0.1,0.3-0.3,0.9-0.1,3.1l0.1,2.6c0.1,2.1,0.3,2.8,0.4,3.1c0.3,0.7,1.1,1.6,2.2,2.7
						c1.2,1.2,2.1,1.7,2.8,1.8c0,0,0.1,0,0.1,0c0.7,0,1.5-0.5,2.7-1.5c1.1-1,1.8-1.8,2-2.5c0.1-0.1,0.1-0.3,0.1-0.6l0.1,0.3
						c0.4,1.1,1.1,2.1,2.3,3.1c1.1,0.9,2.1,1.3,3.1,1.3h0.1c0.6,0,1.4-0.5,2.5-1.4c1-0.9,1.6-1.5,2-2c0.4-0.7,0.6-1.4,0.6-2.3
						c0-0.9-0.1-1.5-0.3-1.9C116.3,137.3,115,136.4,112.6,135.2z M102.4,140.6c-0.1,0.2-0.2,0.4-0.5,0.7c-0.2,0.2-0.3,0.2-0.3,0.2
						c0,0-0.1-0.1-0.4-0.3c-0.2-0.3-0.4-0.5-0.6-0.8c0-0.1-0.1-0.4-0.2-2l-0.1-2.6c-0.1-1.6,0-1.9,0-2c0.1-0.2,0.2-0.4,0.5-0.7
						c0.2-0.2,0.3-0.2,0.3-0.2c0,0,0.1,0,0.4,0.3c0.3,0.3,0.5,0.5,0.6,0.7c0,0,0.1,0.4,0.2,2l0.1,2.6
						C102.5,140.2,102.4,140.5,102.4,140.6z"/>
				</g>
				<g>
					<path style="&st30;" d="M128,131.7c-0.3-0.7-1-1.6-2.1-2.6c-1.2-1-2.1-1.5-2.9-1.5c-0.7,0-1.6,0.6-2.8,1.8
						c-1.2,1.1-1.9,2-2.1,2.8c-0.1,0.3-0.3,1-0.3,3.2l0,9.3l0,0.6l0.6,0c1,0,2-0.1,3.1-0.1l0.5,0l0-3.4c0.7,0,1.3-0.1,2-0.1
						l-0.1,3.4l0.6,0c1,0,2,0,3.1-0.1l0.5,0l0.2-10C128.3,132.8,128.1,132.1,128,131.7z M124,135.1l0,2.7c-0.7,0-1.4,0.1-2,0.1
						l0-2.6c0-1.6,0.1-2,0.2-2.1c0.1-0.2,0.3-0.5,0.5-0.8c0.2-0.3,0.4-0.3,0.4-0.3c0,0,0.1,0,0.4,0.3c0.2,0.2,0.4,0.5,0.5,0.7
						C123.9,133.1,124,133.4,124,135.1z"/>
				</g>
				<g>
					<path style="&st30;" d="M137.8,135.6c0.8,0.9,1.4,1.7,1.7,2.4c0.1,0.3,0.2,0.9,0.4,3.2c0.1,1.7,0.1,2.9,0.1,3.8l0,0.6l-0.6-0.1
						c-1-0.1-2-0.2-3.1-0.3l-0.5,0l0-0.5c0-0.7,0-1.9-0.1-3.4c-0.1-2.1-0.2-2.5-0.2-2.6c-0.3-0.7-0.7-1.1-1.1-1.1l-0.3,0l-0.2,7.5
						l-0.6,0c-1,0-2-0.1-3.1-0.1h-0.6l0.3-10.7c0-1.5-0.1-2.1-0.2-2.4c-0.1-0.4-0.5-1-1-1.6l-0.4-0.5l0.5-0.3c0.9-0.7,1.9-1.3,2.8-2
						l0.3-0.2l0.3,0.2c0.6,0.4,1.1,1.1,1.4,2.1c0.4,0.9,0.5,2.1,0.5,3.4l0,0.8l0.1,0c0.1,0,0.3-0.1,0.4-0.3c0.3-0.2,0.5-0.5,0.6-0.7
						c0,0,0.2-0.4,0.5-2c0.2-1.2,0.3-2,0.3-2.5l0-0.6l0.6,0c1.1,0,2.1,0.1,3.2,0.2l0.5,0l0,0.5c0,0.6-0.1,1.6-0.4,2.9
						c-0.3,1.8-0.5,2.3-0.6,2.5C139.1,134.4,138.6,134.9,137.8,135.6z"/>
				</g>
			</g>
		</g>
		<g>
			<path style="&st31;" d="M153.9,96.7c0.2-0.2,0.4-0.5,0.6-0.7c0.1-0.1,0.1-0.1,0.2-0.2C154.5,96.1,154.2,96.4,153.9,96.7z"/>
			<path style="&st31;" d="M99.4,105.3c0.3,0.1,0.7,0.2,1.1,0.4C100,105.5,99.7,105.4,99.4,105.3z"/>
			<path style="&st31;" d="M163.7,40.8c0.9-3.6,1.7-7.2,1.6-11c-0.1-2.4-0.7-4.7-2.4-6.2c-0.6-0.5-1.3-0.9-2.1-1.2
				c-0.2-0.1-0.5-0.2-0.8-0.2c-0.1,0-0.2,0-0.3-0.1c-0.2,0-0.3-0.1-0.5-0.1c-0.1,0-0.2,0-0.3,0c-0.2,0-0.3,0-0.5-0.1
				c-0.1,0-0.2,0-0.3,0c-0.1,0-0.3,0-0.4,0h-0.2c-0.4,0-0.8,0-1.1,0.1c-0.1,0-0.1,0-0.1,0c-0.4,0.1-0.8,0.1-1.2,0.2
				c-0.6,0.1-1.3,0.4-1.9,0.6c-4,1.6-6.9,4.6-9.7,7.6c0,0,0,0-0.1,0.1c-0.1,0.1-0.2,0.2-0.3,0.2c0,0-0.1,0.1-0.1,0.1
				c-0.1,0.1-0.1,0.1-0.2,0.1c0,0-0.1,0-0.1,0c-0.1,0-0.1,0.1-0.2,0.1c0,0-0.1,0-0.1,0c-0.1,0-0.1,0-0.1,0c0,0-0.1,0-0.1,0
				c0,0-0.1,0-0.1,0c0,0-0.1,0-0.1,0c0,0-0.1,0-0.1,0c-0.1,0-0.1,0-0.2-0.1c0,0-0.1,0-0.1-0.1v0c-0.1,0-0.2-0.1-0.3-0.1
				c-2.4-1.2-4.7-2.6-7.1-3.6c-3.7-1.6-7.6-2.2-11.7-2.4c-1.4,0-2.7,0-4.1,0c-1.4,0.2-2.7,0.3-4.1,0.5c-4.3,0.7-8.3,2-12,4.2
				c-0.1,0-0.2,0.1-0.3,0.1c0,0-0.1,0-0.1,0c0,0-0.1,0-0.1,0c0,0-0.1,0-0.1,0c-0.1,0-0.2,0-0.3,0c-0.1,0-0.1,0-0.1,0
				c-0.1,0-0.3-0.1-0.4-0.2c-1.5-1.1-2.9-2.4-4.4-3.6c-0.5-0.4-1-0.8-1.5-1.1c-0.3-0.2-0.6-0.4-0.9-0.6c-0.1,0-0.2-0.1-0.2-0.1
				c-0.2-0.1-0.4-0.3-0.7-0.4c-0.1-0.1-0.2-0.1-0.3-0.2c-0.2-0.1-0.4-0.2-0.6-0.3c-0.1-0.1-0.2-0.1-0.4-0.2
				c-0.2-0.1-0.4-0.2-0.6-0.2c-0.1-0.1-0.3-0.1-0.4-0.1c-0.2-0.1-0.4-0.1-0.6-0.2c-0.1,0-0.3-0.1-0.4-0.1c-0.2-0.1-0.4-0.1-0.6-0.1
				c-0.1,0-0.3-0.1-0.5-0.1c-0.2,0-0.4-0.1-0.6-0.1c-0.2,0-0.3,0-0.5,0s-0.3,0-0.5,0h-0.2c-0.2,0-0.3,0-0.5,0
				c-4.9,0.4-7.6,3.3-7.8,8.1c0,0.4,0,0.9,0,1.3c0,2.3,0.2,4.6,0.8,6.9c1.2,5,2.3,10,3.3,15c0.1,0.4,0.2,0.8,0.3,1.2
				c0.1,0.4,0.2,0.8,0.4,1.2c0.1,0.6,0.2,1.2,0.1,1.8c0,0.2-0.1,0.4-0.1,0.6c-0.4,1.2-0.7,2.5-0.9,3.8C82,62.6,82,63.6,82,64.5
				c0,0.4,0,0.7,0,1.1c0,1.4,0,2.7,0,4.1c0,0.9,0.1,1.9,0.1,2.8c0,0.3,0,0.7-0.1,1c0,0.1,0,0.2-0.1,0.3c-0.1,0.4-0.2,0.7-0.3,1.1
				c-0.1,0.4-0.2,0.7-0.3,1.1c0,0,0,0,0,0c-0.2,0.5-2.5,7.7,1.5,14.8c0,0.1,0.1,0.1,0.1,0.2c0.4,0.9,0.9,1.8,1.5,2.7
				c1.6,2.5,3.6,4.8,6.1,6.8c2.3,1.8,4.8,3.2,7.5,4.3v0c0.1,0,0.4,0.2,1,0.4c0.1,0,0.3,0.1,0.4,0.1c0.3,0.1,0.7,0.2,1.1,0.4
				c0.2,0.1,0.4,0.1,0.7,0.2c0.2,0.1,0.4,0.1,0.6,0.2c2.7,0.8,6.5,1.8,10.9,2.4c1.4,0.2,3,0.3,4.5,0.4c2.1,0.1,4.3,0,6.5-0.2
				c0.1,0,0.3,0,0.4,0c0.3,0,1.2-0.2,1.5-0.2c0.4,0,0.7-0.1,1.1-0.1c5.2-0.7,9.6-1.8,13.1-3c6.2-2.1,9.6-4.4,9.9-4.6c0,0,0,0,0,0
				c0.8-0.6,1.6-1.2,2.4-1.9c0.6-0.5,1.1-1.1,1.6-1.6c0.1-0.1,0.2-0.2,0.3-0.3c0.3-0.3,0.6-0.6,0.8-0.9c0.3-0.3,0.5-0.6,0.8-0.9
				c0,0,0-0.1,0.1-0.1c2.1-2.8,2.5-4.5,2.5-4.5c0-0.1,0.1-0.2,0.1-0.3s0.1-0.2,0.1-0.2c0.1-0.2,0.2-0.5,0.3-0.7
				c0.1-0.3,0.2-0.6,0.3-0.9c0.1-0.3,0.2-0.5,0.2-0.8c0.1-0.3,0.1-0.6,0.2-0.9c0.1-0.2,0.1-0.5,0.2-0.8c0.1-0.3,0.1-0.6,0.1-0.9
				c0-0.1,0-0.2,0.1-0.4s0-0.2,0.1-0.4c0-0.3,0.1-0.7,0.1-1c0-0.2,0-0.4,0-0.6c0-0.4,0-0.8,0-1.1v-0.6c0-0.4-0.1-0.9-0.1-1.3
				c0-0.1,0-0.3,0-0.4c-0.1-0.6-0.2-1.2-0.3-1.8c-0.5-2-0.8-4.3-0.4-6.3c0.6-3.4,0-6.6-0.3-9.9c-0.1-1.6-0.4-3.1,0.2-4.7
				C160.6,51.3,162.3,46,163.7,40.8z M83.7,38.4c-0.1-0.5-0.2-1.1-0.3-1.6c0-0.2-0.1-0.4-0.1-0.5c-0.8-5.5-0.2-7.8,0.1-8.4
				c0.1-0.1,0.1-0.2,0.1-0.2c0.8-1.6,2-2,3.9-1.8c0.3,0,0.7,0.1,1.1,0.2c2.6,0.6,4.7,2.3,6.8,4c0.7,0.6,1.4,1.1,2,1.7
				c0.4,0.5,0.5,1-0.1,1.5c-2.4,1.6-4.4,3.8-6.3,6c-0.5,0.6-0.7,0.7-0.9,0.1c0-0.1-0.1-0.1-0.1-0.2c-0.2-0.8-0.5-1.5-0.7-2.3
				c-0.4-1.1-1.1-1.5-2.3-1.5c-1.2,0.1-1.7,0.6-1.5,1.6c0.3,1.5,0.7,3,1,4.6c0.3,1.5,0.6,3,0.9,4.5c0.1,0.4,0.1,0.8-0.1,1.1
				c-0.1,0.4-0.4,0.7-0.7,1c-0.2-0.3-0.6-0.6-0.7-1C85,44.3,84.3,41.4,83.7,38.4z M154.2,86.8c-0.8,3.6-2.9,6.6-5.6,8.9
				c-2.2,2-4.9,3.4-7.5,4.9c-0.9,0.5-1.8,0.9-2.8,1.3c-2.6,1.1-5.3,1.9-8.1,2.4c-3.6,0.7-7.2,1-10.8,1.5c-5.7-0.3-11.1-1.3-16.1-3.3
				c-3.1-1.2-6.1-2.7-8.9-4.7c-4.7-3.1-7.8-7.3-8.7-12.8c-0.6-3.4-0.7-7.1,1.5-10.3c0.3-0.4,0.2-1.1,0.2-1.6
				c-0.1-2.9-0.6-5.8-0.2-8.6c0.5-4.3,1.9-8.3,4.3-12c0.2-0.3,0.4-0.6,0.6-0.9c2.1-3,4.8-5.6,7.8-7.7c1.4-1,2.9-0.2,4.2,0.3
				c1.3,0.4,2.5,1,3.6,1.8c1.1,0.9,2.2,1.9,2.9,3.1c1.5,2.8,2.8,5.6,4.2,8.5c0.2,0.5,0.3,1.1,0.6,1.5c0.7,1,1.2,2.1,2.9,2
				c2.1-0.2,4.2,0.1,6.2-0.1c1.2-0.1,1.7-1.3,2-2.4c0.4-1.2,0.5-2.5,1-3.7c1.9-4.1,4.5-7.6,8.5-10c0.9-0.6,2-1,3-1.3
				c1.5-0.4,2.8,0.5,3.9,1.4c2.4,2,4.6,4.1,6.3,6.8c0.2,0.2,0.3,0.5,0.5,0.8c1.7,2.8,3.1,5.8,3.4,9.2c0.2,2.4,0.6,4.8,0.7,7.2
				c0.1,1.4-0.2,2.9-0.3,4.3c0,0.7-0.1,1.4,0,2.1c0.3,1.5,0.7,2.9,1.1,4.4C155.5,82.3,154.7,84.6,154.2,86.8z M158.3,44.2
				c-0.5,2.1-1.2,4.3-1.8,6.4c0,0.1-0.3,0.2-0.5,0.4c-0.3-0.9-1-1.9-0.8-2.7c0.6-3.1,1.5-6.1,2.2-9.1c0.1-0.4,0.2-0.9,0.2-1.3
				c0-0.1,0.2-1.1-0.4-1.6c-1-0.8-2,0-2.6,0.5c-0.7,0.7-1.1,1.9-1.5,2.9c-0.2,0.4-0.2,0.8-0.4,1.2c-0.3,0.8-0.7,0.7-1.2,0.1
				c0,0-0.1-0.1-0.1-0.1c-1.9-2.1-3.8-4.2-5.8-6.1c-0.4-0.4-0.5-0.6-0.1-1c2.6-2.7,5.3-5.1,8.6-6.8c0.5-0.3,1.1-0.5,1.7-0.8
				c1.6-0.6,3.4-0.2,4.4,1.5c0,0,0,0.1,0.1,0.1c0,0.1,0.1,0.1,0.1,0.2c0,0.1,0,0.1,0.1,0.2c0.4,1.2,0.4,3.2,0.1,5.4
				C160,38.4,158.3,44.2,158.3,44.2z"/>
			<path style="&st31;" d="M131.9,87.4c-0.2-0.1-0.6,0.4-0.9,0.6c-0.5,0.3-1,0.7-1.5,0.9c-3.3,1.3-6-0.2-8.1-2.5c-1-1.2-1.3-0.7-2,0
				c-2.2,2.2-4.8,3.2-7.9,2.9c-1.1-0.1-2.1-0.4-2.7-1.4c-0.2-0.2-0.6-0.5-0.8-0.5c-0.3,0.1-0.6,0.4-0.7,0.7c-0.1,0.6,0,1.1,0.8,1.5
				c1.4,0.7,2.9,1.3,4.5,1.1c0.7-0.1,1.1,0.1,1.2,1c0.2,1.3,0.6,2.5,1.1,3.7c0.9,2.5,3,4,4.9,4.1c2.3,0.1,3.8-0.5,4.8-2
				c1.1-1.6,1.8-3.5,2-5.5c0.1-0.9,0.5-1.1,1.3-1.2c1.5-0.3,2.9-0.8,4.4-1.4c0.3-0.1,0.8-0.7,0.7-1C132.8,88,132.4,87.6,131.9,87.4z
				 M120.4,98.4c-2,0-3.9-1.4-3.9-2.8c0-0.9,2.5-2.8,3.6-2.8c1.3,0,3.4,1.9,3.4,3.1C123.6,97.4,122.4,98.4,120.4,98.4z"/>
			<path style="&st31;" d="M110.6,74.5c-0.1,0.9-0.6,1.1-1.3,0.7c-1.3-0.8-2.4-1.8-2.9-3.4c-0.4-1.3-1.3-2.5-2.2-3.6
				c-0.8-0.9-1.7-0.9-2.3,0.1c-0.9,1.4-1.6,3-2.3,4.6c-0.4,1,0,1.2,1.2,1c0.6-0.1,1.1-0.2,1.7-0.1c0.4,0,1.2,0.2,1.2,0.6
				c0,0.4-0.7,0.4-1.1,0.4c-1.1,0.3-2.3,0.4-3.4,0.7c-0.8,0.2-1.4,0.6-2.1,1c-0.6,0.3-0.8,0.2-0.8-0.4c0-4.4,0.6-8.7,3.9-12.1
				c0.9-1,2.1-1.2,3.3-1.3c1.8-0.1,4.1,1.6,5.3,4.4c0.8,2,1.3,4.1,1.9,6.1C110.7,73.6,110.7,74.1,110.6,74.5z"/>
			<path style="&st31;" d="M143.7,75.8c-0.2,0.3-1,0.7-1.2,0.6c-1.7-1.1-3.6-1.5-5.6-1.6c-0.4,0-0.7-0.2-1-0.4
				c-0.1-0.1-0.3-0.1-0.4-0.2c0.2-0.1,0.3-0.2,0.5-0.2c1.1-0.1,2.2-0.4,3.1-0.1c1.1,0.2,1.4-0.1,1.1-0.9c-0.6-1.6-1.3-3.2-2.1-4.7
				c-0.5-0.9-1.5-1.1-2.2-0.2c-0.9,1.2-1.8,2.5-2.4,3.9c-0.7,1.7-1.9,2.5-3.4,3.2c-0.1,0.1-0.6-0.3-0.6-0.5c0.4-3.5,1.3-7,3.5-9.8
				c2.8-3.5,6.4-2.7,8.4,0.9c1.5,2.7,2.2,5.6,2.4,8.4C143.7,75,143.9,75.5,143.7,75.8z"/>
			<path style="&st31;" d="M124.6,79.5c0,0.5-0.9,1.1-1.5,1.3c-0.7,0.3-1.6,0.2-2.6,0.3c-0.7-0.1-1.6,0-2.4-0.3
				c-0.5-0.1-1.2-0.7-1.3-1.1c-0.1-0.5,0.2-1.2,0.6-1.6c1.2-1.1,4.7-1.4,6.1-0.4C124,78.1,124.6,79,124.6,79.5z"/>
			<path style="&st31;" d="M107.9,59c0,0.2-0.4,0.6-0.6,0.6c-0.4,0-0.8-0.3-1.2-0.4c-1.9-0.8-3.8-1.1-5.5,0.4
				c-0.3,0.2-0.7,0.1-1.1,0.2c0.1-0.4,0.1-0.8,0.2-1.1c1.1-1.5,2.2-2.8,4.3-2.7C105.2,56,107.7,58,107.9,59z"/>
			<path style="&st31;" d="M141.9,60.1c-0.5-0.1-0.8-0.2-1-0.3c-1.5-1.1-3.1-1.6-4.9-1.2c-0.8,0.2-1.4,0.6-2.2,0.9
				c-0.2,0.1-0.4,0.1-0.6,0.1c0-0.2-0.1-0.5,0-0.7c1.1-2.9,4.8-3.7,6.9-1.5c0.6,0.6,1,1.2,1.5,1.9C141.6,59.4,141.7,59.6,141.9,60.1
				z"/>
		</g>
		<path style="&st31;" d="M98,104.8L98,104.8C97.9,104.8,97.9,104.8,98,104.8L98,104.8z"/>
		<g>
			<path style="&st31;" d="M189.5,93.3c-0.4-0.6-0.9-1-1.5-1.2c0.2-1,0-2.1-0.7-2.9c-0.6-0.6-1.4-1-2.2-1.1c-0.1,0-0.1,0-0.2,0
				c-0.1,0-0.1,0-0.2,0c0-1.7-0.9-3.2-2.4-3.8c-0.3-0.1-0.7-0.2-1.1-0.2h-0.1c0,0,0,0,0,0H181c-0.1,0-0.2,0-0.3,0
				c-0.1,0-0.1,0-0.2,0c-0.2,0-0.3,0.1-0.5,0.1c-0.6,0.1-1.1,0.4-1.6,0.8c0,0,0,0-0.1,0.1c0,0-0.1,0.1-0.1,0.1l0,0
				c0,0,0-0.1-0.1-0.1c0,0,0-0.1-0.1-0.1c0-0.1-0.1-0.2-0.2-0.2c-0.3-0.5-0.7-0.9-1.2-1.2c-0.5-0.3-1-0.5-1.6-0.6
				c-0.1,0-0.1,0-0.2,0c-0.1,0-0.3,0-0.4,0c-0.1,0-0.1,0-0.2,0c-0.1,0-0.2,0-0.3,0c-0.1,0-0.1,0-0.2,0c-0.1,0-0.2,0-0.3,0.1
				c-0.1,0-0.1,0-0.2,0.1c-0.1,0-0.2,0.1-0.2,0.1c-0.1,0-0.1,0.1-0.2,0.1c-0.1,0-0.2,0.1-0.2,0.1c-0.1,0-0.1,0.1-0.2,0.1
				c-0.1,0.1-0.2,0.1-0.2,0.2c-0.1,0-0.1,0.1-0.1,0.1c-0.1,0.1-0.2,0.1-0.2,0.2c0,0-0.1,0.1-0.1,0.1c-0.1,0.1-0.2,0.2-0.3,0.4l0,0
				c0,0-0.1,0.1-0.1,0.1c-0.1,0.1-0.1,0.3-0.2,0.4c0,0.1,0,0.1,0,0.2c-0.1,0.2-0.1,0.3-0.2,0.5c-0.1,0.1-0.1,0.2-0.2,0.3
				c0,0-0.1,0.1-0.1,0.1c0,0,0,0,0,0c0,0-0.1,0.1-0.1,0.1c-0.1,0.1-0.2,0.3-0.4,0.4c-0.2,0.3-0.5,0.5-0.7,0.8
				c-0.2,0.2-0.4,0.4-0.5,0.6c-0.2,0.2-0.4,0.4-0.5,0.6c-0.2,0.2-0.4,0.3-0.7,0.4c-0.1,0.1-0.3,0.1-0.5,0.2c-1,0.2-2,0.4-3.1,0.6
				c-0.2,0-0.4,0-0.6,0h-0.1c-0.1,0-0.2,0-0.4,0c0,0-0.1,0-0.1,0h0c0,0,0,0,0,0c-0.2,0-0.3-0.1-0.5-0.1c-1.1-0.4-2.4-0.2-3.6,0.3
				c0,0-0.1,0-0.1,0.1c0,0,0,0,0,0c0,0,0,0,0,0l0,0c-0.3,0.1-0.6,0.3-0.9,0.6c-0.1,0.1-0.2,0.2-0.3,0.3c-0.1,0-0.1,0.1-0.1,0.1
				c0,0,0,0,0,0c0,0,0,0,0,0c-0.7,0.7-1.2,1.6-1.2,2.5c-0.1,1.5,0.5,3.1,2.1,3.6c0.5,0.2,0.7,0.4,0.7,0.6c0.1,0.3-0.1,0.6-0.2,1
				c-0.2,0.7-0.5,1.4-0.9,2c-0.2,0.3-0.7,0.7-1.1,0.7c-2.2,0-4.4,0.2-6.5,0.7c0,0,0,0.1,0,0.1c-0.6,0.1-1.2,0.1-1.8,0.2
				c-0.7,0.1-1.3,0.4-1.9,0.6c-0.2,0.2-0.4,0.4-0.6,0.5c-0.7,0.1-1.3,0.3-2,0.5c-0.6,0.3-1.1,0.7-1.7,0.9
				c-5.7,2.8-11.5,5.4-18.1,5.9c-4,0.3-7.9,0-11.8-0.2l-11.7-2.8c-5.4-2.2-10.8-5.9-16.8-6.2c-0.4,0-0.9-0.4-1.1-0.8
				c-0.4-0.6-0.6-1.3-0.7-2.1c-0.1-0.6-0.6-1.2,0.6-1.5c1.6-0.4,2.3-1.9,2.3-3.4c0-0.1,0-0.2,0-0.4c-0.5-0.9-1-1.8-1.5-2.7l0,0
				c-0.2-0.2-0.5-0.4-0.7-0.6c0,0,0,0-0.1,0c-0.2-0.1-0.5-0.3-0.8-0.4c0,0-0.1,0-0.1-0.1c-0.3-0.1-0.5-0.2-0.8-0.2c0,0-0.1,0-0.1,0
				c-0.3-0.1-0.6-0.1-0.8-0.1c0,0,0,0,0,0c-0.4,0-0.7,0-1,0.1c0,0,0,0,0,0c-0.2,0.1-0.4,0.1-0.7,0.1h-0.1c-0.3,0-0.6,0-0.9-0.1
				c-1-0.2-2-0.4-3-0.7c-0.4-0.1-0.8-0.4-1.1-0.7c-0.3-0.4-0.7-0.8-1-1.2c-0.3-0.4-0.6-0.9-1-1.3c0,0,0-0.1-0.1-0.1
				c0,0,0-0.1-0.1-0.1c0,0,0,0-0.1-0.1s0,0-0.1-0.1c-0.1-0.1-0.1-0.1-0.1-0.1c-0.1-0.2-0.2-0.4-0.2-0.6c0-0.1,0-0.1,0-0.2
				c0-0.1,0-0.1-0.1-0.2c0,0,0,0,0,0c0,0,0,0,0,0c0,0,0,0,0-0.1s0,0,0-0.1c0,0,0,0,0,0c0-0.1-0.1-0.1-0.1-0.2
				c-0.4-0.6-0.9-1.1-1.5-1.4c-0.3-0.2-0.6-0.3-0.9-0.4c-0.2,0-0.3-0.1-0.5-0.1c-0.2,0-0.3,0-0.5,0h-0.2c-0.3,0-0.6,0.1-0.9,0.1
				c-0.8,0.2-1.6,0.8-2.1,1.5c-0.1,0.1-0.2,0.3-0.3,0.4c0,0-0.1-0.1-0.1-0.1c0,0,0,0,0,0c-0.4-0.4-0.9-0.7-1.5-0.9v0
				c-0.4-0.1-0.8-0.2-1.2-0.2c-0.4,0-0.7,0-1.1,0.1c-0.8,0.2-1.4,0.7-1.8,1.4c-0.4,0.6-0.7,1.4-0.7,2.3c-0.1,0-0.3,0-0.4,0
				c-0.9,0-1.7,0.3-2.3,0.9c-0.6,0.6-0.9,1.3-0.9,2.1c0,0.3,0,0.5,0,0.8c-0.1,0-0.3,0.1-0.5,0.2c-0.4,0.2-0.8,0.5-1.1,0.9
				c-0.4,0.5-0.6,1-0.6,1.6c0,0.2,0,0.4,0,0.6c0,0,0,0,0,0c0,0,0,0.1,0,0.1c0,0,0,0.1,0,0.1c0,0.1,0,0.2,0.1,0.4c0,0,0,0.1,0,0.1
				c0,0,0,0.1,0,0.1c0,0,0,0,0,0c0.1,0.2,0.3,0.4,0.4,0.6c0.1,0.1,0.1,0.1,0.1,0.2c0.2,0.3,0.4,0.6,0.6,1c0,0,0,0,0,0h0v0
				c0.8,1.3,1.6,2.6,2.5,3.8c0.3,0.4,0.6,0.8,0.9,1.2c0.8,0.9,1.6,1.9,2.5,2.8c0.9,0.9,1.8,1.8,2.9,2.5c0.2,0.1,0.3,0.2,0.5,0.4
				c0.1,0.2,0.3,0.3,0.4,0.5c0.2,0.4,0.4,0.8,0.6,1.2c0.1,0.2,0.1,0.4,0.2,0.6c0.1,0.6,0.1,1.2,0.2,1.8c0.5,2.1,1.1,4.1,1.9,6.1
				c0.3,0.6,0.6,1.3,0.9,1.9c1.3,2.5,2.9,4.8,4.8,7c0.2,0.2,0.4,0.4,0.6,0.6c0,0,0.1,0,0.1,0.1c0.2,0.2,0.4,0.5,0.7,0.7
				c0.4,0.4,0.8,0.8,1.2,1.2c0.3,0.3,0.6,0.5,0.9,0.8c0.1,0.1,0.1,0.1,0.2,0.2c0,0,0.1,0.1,0.1,0.1c0,0,0.1,0,0.1,0.1
				c0.2,0.2,0.4,0.3,0.6,0.5c0.2,0.1,0.4,0.3,0.6,0.5c0.1,0.1,0.1,0.1,0.2,0.2c0.1,0.1,0.2,0.2,0.3,0.2c0.1,0.1,0.2,0.1,0.3,0.2
				c0.2,0.2,0.5,0.3,0.7,0.5c0,0,0.1,0.1,0.1,0.1c0.2,0.1,0.3,0.2,0.5,0.3c0.2,0.1,0.4,0.2,0.5,0.3c0,0,0.1,0,0.1,0c0,0,0,0,0,0
				c0.2,0.1,0.4,0.2,0.6,0.3s0.4,0.2,0.6,0.3c0,0,0.1,0.1,0.1,0.1c0,0,0,0,0.1,0c0.1,0.1,0.3,0.1,0.4,0.2c0.1,0.1,0.3,0.1,0.4,0.2
				c0.1,0.1,0.3,0.1,0.4,0.2c0.1,0,0.1,0.1,0.2,0.1c0.5,0.2,1,0.4,1.5,0.6c0.7,0.3,1.3,0.6,1.8,0.9c0.3,0.2,0.5,0.4,0.7,0.6
				c0,0,0,0,0,0c0.1,0.1,0.2,0.2,0.3,0.4c0,0,0,0,0,0c0,0,0,0.1,0.1,0.1c0.1,0.1,0.1,0.1,0.1,0.2c0,0,0,0,0,0c0,0.1,0.1,0.1,0.1,0.2
				c0,0.1,0.1,0.2,0.1,0.3c0,0.1,0.1,0.2,0.1,0.3c0,0.1,0.1,0.1,0.1,0.2c0,0.1,0.1,0.1,0.1,0.2c0.1,0.3,0.2,0.7,0.3,1.1
				c1.7,6.6,3.9,13.1,5.9,19.7c0.1,0.2,0.1,0.5,0.1,0.8v0.1c0,0.2,0,0.5-0.1,0.7c-0.7,2.2-1.4,4.3-2.1,6.5c-0.2,0.7-0.5,1.5-0.8,2.2
				c-0.2,0.5-0.3,1-0.5,1.5c-0.2,0.8-0.4,1.5-0.4,2.3c0,0.7-0.1,1.5-0.1,2.2c0,2.5,0.2,5,0.4,7.5c0.1,0.8,0.2,1.5,0.3,2.3
				c0.1,0.4,0.2,0.8,0.3,1.1s0.2,0.7,0.4,1.1c0.9,2.1,1.8,4.3,2.7,6.4c0.9,2.1,1.9,4.2,2.9,6.3c0.4,0.9,0.7,1.7,0.8,2.5
				c0,0.2,0,0.4,0,0.6c0,0.6-0.1,1.3-0.3,2c-0.8,2.5-1.4,5-1.5,7.6c0,0.5,0,1,0,1.4c0,1.4,0.1,2.9,0.5,4.3c0.1,0.6,0.3,1.3,0.5,1.9
				c0.5,1.4,0.9,2.8,1.4,4.1c1,2.7,2,5.5,3.1,8.2c0.5,1.4,1,2.7,1.5,4.1c0.3,0.7,0.5,1.5,0.8,2.2c0.1,0.2,0.2,0.5,0.3,0.7
				c0.3,0.7,0.5,1.4,0.7,2.1c0.1,0.6,0.2,1.3,0.2,1.9c0,0.3,0,0.6-0.1,1c-0.4,2.8-0.6,5.5-1.3,8.3c-0.9,3.5-1.5,6.9-1.5,10.5
				c0,0.3,0,0.7,0,1c0,0.3,0,0.5,0.1,0.8c0,0,0,0,0,0c0,0,0,0,0,0c0,0.2,0.1,0.4,0.1,0.5c0,0.2,0.1,0.4,0.2,0.5
				c0,0.1,0.1,0.1,0.1,0.2c0.1,0.1,0.1,0.2,0.2,0.4c0.1,0.1,0.2,0.2,0.3,0.4c0.2,0.2,0.5,0.4,0.8,0.6c1.4,0.7,3,1.4,4.6,1.6
				c1,0.1,2.1,0.2,3.1,0.2c0.2,0,0.4,0,0.7,0c1,0,2,0.1,3.1,0.1h0.1c0.6,0,1.2,0,1.8,0c1.8,0,3.6-0.4,5.3-0.9c1.6-0.5,3.3-1.2,3.8-3
				c0.4-1.5,0.7-3.1,0.6-4.6c-0.2-4.2-1.2-8.2-2.2-12.2c-0.8-3.2-1.4-6.5-1.3-9.9c0.1-3.2-0.1-6.3,0.1-9.5c0.1-2.7,0.4-5.4,0.9-8.1
				c0.5-2.4,1.2-4.8,0.9-7.3c0-0.4,0-0.9,0.1-1.3c0-0.1,0-0.2,0-0.4c0,0,0-0.1,0-0.1c0-0.1,0-0.1,0.1-0.2c0,0,0,0,0,0
				c0-0.1,0.1-0.1,0.1-0.2c0,0,0,0,0,0c0.1,0,0.1,0,0.2,0c0,0,0,0,0,0s0,0,0,0c0.1,0,0.1,0,0.2,0c0,0,0.1,0,0.1,0
				c0.1,0,0.2,0.1,0.4,0.1c0.1,0,0.1,0,0.2,0.1c0,0,0.1,0,0.1,0l0,0c0.1,0,0.1,0,0.1,0.1c0,0,0,0,0,0c0,0,0.1,0.1,0.1,0.1
				c0,0,0.1,0.1,0.1,0.1c0.1,0.1,0.1,0.2,0.1,0.3c0,0.1,0.1,0.2,0.1,0.4c0.6,3.2,1.4,6.4,3.7,9c0.6,0.7,1.1,1.3,1.7,2h0c0,0,0,0,0,0
				c0,0,0,0,0,0c0,0,0,0,0,0h0c0,0,0,0,0,0c0,0,0,0,0.1,0c0,0,0,0,0,0c0,0,0,0,0,0c0,0,0,0,0,0c0.8,0,1.7,0.1,2.5,0.1
				c0.7,0,1.4-0.1,2.2-0.1c0.4,0,0.8,0,1.1-0.1c5.6-1.7,9.4-7.1,10.2-13.2c0.5-3.4-0.4-6.6-1-9.9c-0.1-0.6-0.2-1.1-0.3-1.7
				c-0.1-0.6-0.1-1.2,0-1.7c0.6-2.8,1.7-5.4,2.3-8.2c0.9-4,0.6-7.9-0.1-11.9c-0.7-3.8-2.3-7.3-3.6-10.8c-1.1-3-2.3-6.1-0.7-9.4
				c0.9-2,1.5-4.1,2.2-6.1c1.6-4.8,3.1-9.6,4.7-14.4c0.1-0.4,0.6-0.8,0.9-0.9c2.8-0.6,5.3-1.7,7.7-3c1.2-0.7,2.3-1.4,3.4-2.3
				c1.1-0.8,2.2-1.7,3.2-2.6c2.9-2.6,5.4-5.4,7.3-8.6c0,0,0-0.1,0-0.1c0,0,0-0.1,0-0.1c0,0,0-0.1,0-0.1c0-0.1,0-0.1,0-0.2
				c0,0,0,0,0,0v0c0.1-0.1,0.1-0.2,0.1-0.3c0.2-0.4,0.4-0.7,0.6-1.1c0.1-0.2,0.2-0.5,0.3-0.7c0.2-0.4,0.3-0.7,0.5-1.1
				c0.1-0.3,0.2-0.5,0.3-0.8c0.1-0.4,0.3-0.7,0.4-1.1c0.2-0.6,0.4-1.2,0.6-1.9c0.2-0.8,0.2-1.6,0.5-2.3c0.4-0.8,0.9-1.6,1.6-2
				c2.3-1.3,4-3.2,5.8-4.9c1.4-1.4,2.6-3.1,3.8-4.7c0.4-0.6,0.8-1.2,1.3-1.8c0-0.1,0.1-0.1,0.1-0.2c0-0.1,0-0.2,0.1-0.3
				c0-0.1,0-0.2,0-0.3c0-0.1,0-0.1,0-0.2c0-0.1,0-0.3,0-0.4C190,94.4,189.9,93.8,189.5,93.3z M80.3,91.2c1.6,0,2.5,0.9,2.5,2.5
				c0,1.4-0.8,2.4-2,2.4c-1.2,0-2.2-1.1-2.2-2.5C78.7,92.1,79.2,91.3,80.3,91.2z M64.7,86.8c0-0.2,0-0.3,0-0.5
				c0.1-0.5,0.2-0.9,0.4-1.3c0.1-0.2,0.3-0.4,0.5-0.6l0.1-0.1c0,0,0.1,0,0.1-0.1c0.3-0.2,0.7-0.4,1-0.4h0.1c0.2,0,0.4,0,0.6,0.1
				c0,0,0,0,0,0h0c0,0,0,0,0.1,0c0,0,0.1,0,0.1,0.1c0,0,0.1,0,0.1,0.1c0.1,0.1,0.2,0.1,0.3,0.2c0,0,0,0,0,0c0,0,0,0,0,0
				c0.1,0,0.1,0.1,0.1,0.1s0.1,0.1,0.1,0.1c0,0,0,0,0,0c0,0,0,0,0,0c0.1,0.1,0.1,0.2,0.2,0.3c0,0,0,0,0,0.1c0,0.1,0.1,0.1,0.1,0.2
				c0,0,0.1,0.1,0.1,0.1c0,0,0,0,0,0c0,0,0,0,0,0.1c0,0,0,0.1,0.1,0.1c0,0,0,0.1,0.1,0.1c0,0,0,0,0,0.1c0,0.1,0,0.1,0.1,0.2
				c0,0.1,0,0.1,0,0.2c0,0,0,0,0,0.1c0,0.1,0,0.1,0,0.2c0,0.1,0,0.2,0,0.3v0.1c0,0.2,0,0.4,0,0.6c0,0.1,0,0.1,0,0.2c0,0,0,0,0,0.1
				c0,0.1,0,0.2-0.1,0.3c0,0.1,0,0.1-0.1,0.2c0,0,0,0.1-0.1,0.1c0,0,0,0,0,0c0,0,0,0,0,0c-0.1,0.2-0.3,0.4-0.4,0.6c0,0,0,0-0.1,0.1
				c-0.2,0.2-0.4,0.3-0.6,0.4c0,0,0,0,0,0c0,0-0.1,0-0.1,0c0,0-0.1,0-0.1,0c-0.1,0-0.1,0-0.2,0.1l-0.2,0c0,0-0.1,0-0.1,0H67
				c-0.1,0-0.2,0-0.4,0c-0.1,0-0.1,0-0.2,0c0,0-0.1,0-0.1,0c0,0,0,0,0,0c0,0-0.1,0-0.1,0c0,0-0.1,0-0.1-0.1c-0.1,0-0.1-0.1-0.2-0.1
				c0,0,0,0,0,0c0,0-0.1-0.1-0.1-0.1c-0.1,0-0.1-0.1-0.2-0.2c-0.1-0.1-0.2-0.2-0.3-0.4c0,0,0,0,0,0v0l0,0c0,0-0.1-0.1-0.1-0.1
				c0,0,0-0.1,0-0.1c0-0.1-0.1-0.1-0.1-0.2c-0.1-0.1-0.1-0.3-0.2-0.5C64.7,87.3,64.6,87,64.7,86.8L64.7,86.8L64.7,86.8z M58.9,86.6
				c0-0.1,0-0.2,0-0.3c0,0,0-0.1,0-0.1c0,0,0-0.1,0-0.1c0,0,0-0.1,0-0.1c0,0,0,0,0,0c0-0.1,0.1-0.2,0.1-0.4c0,0,0-0.1,0.1-0.1
				c0-0.1,0.1-0.1,0.1-0.2c0.1-0.1,0.1-0.1,0.2-0.2c0-0.1,0.1-0.1,0.1-0.1l0,0c0.1-0.1,0.3-0.2,0.4-0.2c0.1,0,0.2,0,0.2,0
				c0.1,0,0.2,0,0.2,0c0.1,0,0.2,0,0.3,0c0,0,0,0,0,0c0.1,0,0.2,0.1,0.3,0.1c0.1,0,0.1,0.1,0.2,0.1c0,0,0.1,0,0.1,0c0,0,0,0,0,0h0
				c0.1,0,0.1,0.1,0.1,0.1c0,0,0.1,0.1,0.1,0.1c0.1,0.1,0.1,0.1,0.2,0.2c0,0.1,0.1,0.1,0.1,0.1c0,0,0.1,0.1,0.1,0.1
				c0,0,0.1,0.1,0.1,0.1c0,0.1,0.1,0.2,0.1,0.2c0,0,0,0,0,0c0.1,0.1,0.1,0.2,0.1,0.3c0,0,0,0,0,0.1v0c0,0,0,0,0,0
				c0,0.1,0,0.2,0.1,0.3c0.1,0.3,0.1,0.6,0,0.9c0,0.1,0,0.2-0.1,0.3c0,0,0,0,0,0c0,0.1-0.1,0.2-0.1,0.3c-0.1,0.1-0.1,0.3-0.2,0.4
				c0,0.1-0.1,0.1-0.1,0.2s-0.1,0.1-0.2,0.1c-0.1,0-0.1,0.1-0.2,0.1c-0.1,0.1-0.2,0.1-0.3,0.2c-0.2,0.1-0.3,0.1-0.5,0.1
				c-0.2,0-0.4,0-0.6-0.1c-0.1,0-0.1,0-0.2-0.1c-0.3-0.2-0.6-0.4-0.9-0.8c-0.1-0.1-0.2-0.3-0.2-0.4c-0.1-0.1-0.1-0.3-0.2-0.5
				c0-0.1-0.1-0.2-0.1-0.3c-0.1-0.2-0.1-0.4-0.1-0.6C58.8,86.7,58.8,86.7,58.9,86.6C58.9,86.7,58.9,86.7,58.9,86.6z M56.1,94.8
				L56,94.9c-0.3,0.2-0.6,0.4-1,0.4c-0.4,0-0.9-0.1-1.2-0.4c0,0,0,0-0.1,0c-0.6-0.5-0.8-1.1-0.7-1.7c0-0.2,0.1-0.4,0.2-0.6
				c0,0,0.1-0.1,0.1-0.1s0.1-0.1,0.1-0.1c0,0,0,0,0,0c0,0,0,0,0.1,0c0.1,0,0.1-0.1,0.2-0.1c0.1,0,0.2-0.1,0.3-0.1c0.1,0,0.2,0,0.3,0
				c0.4,0,0.9,0.1,1.2,0.4c0.2,0.2,0.4,0.4,0.5,0.7c0.1,0.1,0.2,0.3,0.2,0.5c0,0.1,0,0.3,0,0.4C56.4,94.3,56.3,94.6,56.1,94.8z
				 M56.7,91.7c0,0-0.1,0-0.1,0c-0.2-0.1-0.5-0.3-0.7-0.5c-0.1-0.1-0.3-0.3-0.4-0.5c-0.1-0.1-0.1-0.3-0.2-0.4c0,0,0,0,0,0
				c0-0.1,0-0.1,0-0.1c0,0,0,0,0,0s0,0,0,0c0,0,0-0.1,0-0.1c0,0,0,0,0,0c0,0,0,0,0-0.1v0c0-0.1,0-0.2,0-0.3c0-0.1,0-0.2,0.1-0.3
				c0.1-0.1,0.1-0.3,0.3-0.4l0,0c0,0,0.1-0.1,0.1-0.1c0,0,0,0,0,0c0,0,0,0,0.1,0l0,0c0.2-0.1,0.5-0.2,0.8-0.2h0.1c0.1,0,0.1,0,0.1,0
				c0,0,0,0,0,0c0.1,0,0.1,0,0.2,0c0,0,0.1,0,0.1,0c0,0,0.1,0,0.1,0c0,0,0.1,0,0.1,0c0,0,0,0,0.1,0c0.1,0.1,0.2,0.1,0.4,0.2
				c0.1,0.1,0.2,0.1,0.3,0.2c0,0,0,0,0.1,0.1h0c0.1,0.1,0.2,0.2,0.2,0.3c0.1,0.2,0.3,0.4,0.3,0.7c0,0.1,0.1,0.2,0.1,0.4v0.2
				c0,0.1,0,0.2,0,0.2c0,0,0,0,0,0c0,0.1,0,0.1-0.1,0.2c0,0,0,0,0,0c0,0.1-0.1,0.1-0.1,0.2c0,0,0,0,0,0c0,0.1-0.1,0.1-0.2,0.2
				c0,0-0.1,0-0.1,0.1c-0.2,0.1-0.4,0.3-0.6,0.3h0c-0.1,0-0.2,0-0.3,0c-0.1,0-0.2,0-0.4,0C56.9,91.8,56.8,91.8,56.7,91.7z
				 M83.9,129.8c-0.2-0.1-0.4-0.1-0.6-0.2c-0.2-0.1-0.4-0.3-0.7-0.4c-1.2-0.7-2.4-1.4-3.5-2.2c-2.8-2.1-5.4-4.4-7.3-7.4
				c-2.1-3-2.8-6.5-3.6-9.9c-0.4-1.7-0.8-3-2.3-4.2c-2.4-1.9-4.3-4.2-6.5-6.4c-0.6-0.6-0.5-1,0-1.6c1.1-1.4,2.6-1.6,4.2-1.2
				c0.6,0.2,1.3,0.4,1.9,0.6c0.2,0,0.4-0.1,0.6-0.1c-0.1-0.1-0.3-0.4-0.4-0.4c-1.2-0.3-2.4-0.4-3.6-0.8c-1.6-0.5-2.6,0.2-3.5,1.4
				c-0.2,0.3-0.4,0.5-0.5,0.5v0c0,0,0,0,0,0c0,0-0.1,0-0.1,0c0,0,0,0,0,0c0,0,0,0,0,0c0,0,0,0,0,0c0,0,0,0,0-0.1c0,0,0,0,0,0v0
				c0,0,0,0,0,0c0,0,0,0,0,0c0,0,0,0,0-0.1c0,0,0-0.1,0.1-0.1c0-0.1,0.1-0.1,0.1-0.2c0.1-0.2,0.3-0.5,0.5-0.8c0-0.1,0.1-0.1,0.1-0.2
				c0.1-0.1,0.1-0.1,0.1-0.2l0.2-0.2c0.2-0.4,0.5-0.7,0.7-1c0.1-0.1,0.2-0.2,0.2-0.3c0,0,0,0,0,0s0,0,0,0c0,0,0,0,0,0
				c0.4-0.7,0.8-1.3,1.1-1.7c0.1-0.1,0.2-0.2,0.4-0.4c0.5-0.4,1.1-0.6,1.8-0.6c0.6,0,1.3,0.1,2.1,0.3c1,0.2,2,0.2,3,0.3c0,0,0,0,0,0
				c0,0,0,0,0.1,0c0,0,0,0,0,0c1.1,2.2,2.2,4.5,3.4,6.7c0.2,0.4,0.5,0.7,0.9,1c0.8,0.6,1.9,0.9,2.8,0.6c0.1,0,0.2-0.1,0.3-0.1
				c-0.1-0.1-0.2-0.2-0.3-0.2c-2.1-0.5-3-2.2-3.8-4c-0.8-1.9,0.5-4.4,2.5-4.7c0.6-0.1,1.3-0.1,1.9,0c0.9,0,1.3,0.7,0.9,1.4
				c-0.7,1.6-0.3,2.8,0.7,4.1c0.7,0.9,0.8,2.1,0,3.1c-0.1,0.1-0.2,0.2-0.2,0.3c-0.4,2-1.8,3.1-3.3,4.2c-0.2,0.2-0.5,0.4-0.7,0.6
				c-0.7,0.6-1.2,1.6-1.7,2.4c-0.1,0.1-0.1,0.3-0.1,0.4c0.2,0,0.4,0,0.5-0.1c0.9-0.7,1.6-1.5,2.5-2.1c0.2-0.2,0.4-0.3,0.6-0.5
				c0.8-0.6,1.8-1,2.8-1.3c0.9-0.3,1.7,0.1,2,1.1c0.3,0.9,0.7,1.7,0.8,2.6c0.2,1.5,0.3,3.1,0.5,4.6c0.2,2.3,0.6,4.6,0.7,6.9
				c0.2,3.6,0.9,7.1,1.9,10.5C84,129.4,83.9,129.6,83.9,129.8z M100.5,217.3c-0.6-3.4-0.7-7.1,1-10.2c1.9-3.4,1-6.3-0.5-9.4
				c-1.7-3.6-3.3-7.2-4.7-10.9c-1.1-2.8-1.4-5.8-1.6-8.9c0-1,0-2,0-3.1c0-2.6,0.5-5,1.3-7.5c0.4-1.1,0.7-1.2,1.8-0.7
				c4.6,2.2,9.4,3.6,14.4,4.1c4,0.4,8,0,12-0.3c2.4-0.2,4.9-0.6,7.3-1.1c2.1-0.5,4.2-1.1,6.4-1.7c1.1-0.3,1.9-0.3,2.3,1
				c0,0.1,0,0.1,0.1,0.2c0.4,0.8,0.7,1.5,1,2.3c-0.8,0.1-1.6,0.1-2.4,0.2c-4.4,0.5-8.3,2.3-11.8,4.9c-3,2.2-5.1,5.1-6.7,8.4
				c-1,2.1-1.6,2.2-2.7,0.4c-1.5-2.3-3.6-3.8-5.8-5.2c-3.8-2.4-7.6-4.9-10.7-8.3c-0.3-0.3-0.6-0.5-0.9-0.8c-0.1-0.1-0.3,0-0.5-0.1
				c0,0.2,0,0.3,0.1,0.5c0.8,1.2,1.5,2.4,2.4,3.5c2.3,2.7,5.1,4.6,8.1,6.5c1.6,1,3.1,2.2,4.6,3.5c1.4,1.3,1.2,1.6,0.4,3.4
				c-1.9,3.9-2.6,8-0.9,12.1c1.4,3.5,2.9,7,4.2,10.5c0.7,2.1,1.1,4.2,0.4,6.5c-0.6,2.1-0.6,4.4-0.9,6.6c-0.3,2.3-0.6,4.5-0.7,6.8
				c-0.1,2.8,0,5.6,0,8.4c0,2.5-0.1,5,0.7,7.4c0.1,0.1-0.1,0.3-0.1,0.5c-0.1-0.1-0.2-0.2-0.4-0.4c-1.8-2.3-5.5-2.1-7.6-0.6
				c-0.2,0.1-0.4,0.2-0.6,0.3c0-0.2-0.1-0.5-0.1-0.7c1-3.1-0.3-5.8-1.4-8.5c-1.2-3-2.8-5.9-3.9-8.9
				C102.7,224.5,101.1,221,100.5,217.3z M113.1,160.1c0-0.9,0.2-1.4,1.3-1.3c0.3,0.1,0.6,0,0.9,0c1.9,0,3.8,0,5.6,0
				c0.3,0.4,0.8,0.8,0.8,1.3c0.1,2.4,0,4.8,0.1,7.2c0,0.8-0.3,1.3-1.2,1.3c-2.2,0-4.4,0-6.6,0c-0.9,0-0.8-0.5-0.8-1.1
				C113.1,165.1,113.2,162.6,113.1,160.1z M116.1,249c1.4,0.1,2.1,1.1,2.6,2.3c0.1,0.2,0,0.5,0,0.7c-0.1-0.1-0.3-0.2-0.4-0.3
				c-0.4-0.3-0.9-0.7-1.3-1c-2.9-1.9-5.7-1.8-8.1,0.5c-0.1,0.1-0.3,0.3-0.5,0.4c0.1-0.2,0.1-0.5,0.2-0.7c0.3-1.2,1.4-2.2,2.7-2.2
				C112.9,248.6,114.5,248.9,116.1,249z M111.5,246.9c0.6-0.1,1.3-0.2,1.9-0.2c0.4,0,0.8,0.3,1.2,0.4h-1.6
				C112.7,247.1,112.1,247,111.5,246.9z M118.1,264.9c-1.7,0.2-3.5,0.3-5.4,0.5c-1.3-0.1-2.9-0.3-4.4-0.4c-0.9-0.1-1.7-0.6-1.5-1.5
				c0.1-0.6,0.8-1.3,1.4-1.4c3.3-0.9,6.5-0.4,9.7,0.4c0.2,0,0.5,0.2,0.6,0.3c0.3,0.4,0.8,0.9,0.7,1.3
				C119.2,264.4,118.5,264.8,118.1,264.9z M119.9,261.6c-2.2-1.2-4.7-1.4-7.2-1.6c-2.1-0.1-4,0.4-5.9,1.3c-1.2,0.6-1.2,0.6-1.5-0.9
				c0.7-2.2,1.2-4.5,2.3-6.6c1.6-3,6.1-3.7,9.3-1.8c2.4,1.4,3.4,3.6,3.9,6.2c0.1,0.9,0.3,1.7,0.4,2.6
				C121.2,261.8,121,262.2,119.9,261.6z M144,183.1c-0.6,6-1.1,11.9-3.6,17.2c-1.5,3.2-3.9,5.8-7.2,7.2c-0.9,0.4-2,0.6-3,0.8
				c-0.3,0.1-0.6,0-0.9,0c0.3-0.1,0.5-0.1,0.8-0.2c4.2-1.8,7.6-4.5,9.5-8.8c0.1-0.3,0.1-0.6,0.1-0.9c-0.2,0.2-0.5,0.4-0.7,0.6
				c-1.4,1.9-2.8,3.7-4.7,5.3c-2.6,2.1-5.5,2.1-8.3,1.7c-2.2-0.3-4.4-1.2-6-3c-1.1-1.2-1.8-2.5-1.9-4.1c-0.2-2.5,0.1-4.8,1-7.2
				c1.6-4,3.2-7.9,6-11.2c3.5-4.2,7.8-7.3,13.4-8.1c0.6-0.1,1.3-0.1,1.9,0c1.2,0,2,0.5,2.2,1.8c0.3,1.8,0.7,3.6,1,5.4
				C143.8,180.8,143.9,182.1,144,183.1z M146.2,130.9c-0.3,6.4-1.7,12.6-4.4,18.4c-0.5,1.1-0.8,2.4-1.3,3.5
				c-0.3,0.5-0.8,1.1-1.4,1.3c-8.2,2.4-16.5,3-25,2.6c-0.5,0-1.1-0.1-1.6-0.1c-1.6-0.1-3.3,0-4.9-0.3c-3.4-0.7-6.8-1.7-10.1-2.5
				c-0.9-0.2-1.3-0.7-1.6-1.5c-1.1-3.9-2.2-7.8-3.1-11.7c-0.4-1.5-0.2-3.1-0.2-4.7c0-0.3-0.1-0.5-0.1-0.8c0-3.2-0.4-6.5,0-9.7
				c0.4-3.5,1.3-6.9,2-10.3c0.3-1.3,0.6-2.5,1-3.7c0.1-0.4,0.2-0.7,0.4-1.1c0.2,0.3,0.5,0.6,0.7,1c1.5,2.7,3.6,4.9,6.2,6.5
				c2.9,1.7,6,2.8,9.3,3c4.2,0.3,8.4,0.6,12.6,0.3c3.4-0.2,6.7-1.1,10-2.4c3.7-1.5,6.2-4.2,8.4-7.4c0.2-0.3,0.4-0.5,0.7-0.7
				c0.1,0.3,0.2,0.5,0.2,0.8c0.3,1.7,0.7,3.5,0.9,5.2c0.4,2.6,0.7,5.1,0.9,7.7C146,126.6,146.3,128.8,146.2,130.9z M178.7,88.8
				c0-0.1,0-0.2,0-0.4c0-0.2,0.1-0.5,0.2-0.7c0,0,0,0,0,0s0,0,0,0l0,0c0.1-0.2,0.2-0.4,0.3-0.5c0,0,0,0,0-0.1c0,0,0-0.1,0.1-0.1
				c0,0,0,0,0,0c0,0,0,0,0,0c0.1-0.1,0.1-0.2,0.2-0.2c0,0,0,0,0,0c0.1-0.1,0.1-0.1,0.2-0.1c0,0,0,0,0.1,0c0,0,0.1,0,0.1-0.1
				c0.1-0.1,0.2-0.1,0.2-0.1c0,0,0.1,0,0.1-0.1c0,0,0,0,0,0c0,0,0.1,0,0.1-0.1c0,0,0.1,0,0.1,0c0,0,0,0,0.1,0c0.1,0,0.2,0,0.2-0.1
				c0,0,0,0,0,0c0,0,0,0,0,0c0,0,0.1,0,0.1,0c0,0,0,0,0.1,0h0.2c0.1,0,0.1,0,0.1,0c0.1,0,0.2,0,0.3,0.1c0.1,0,0.2,0.1,0.3,0.2
				c0,0,0,0,0,0c0,0,0,0,0,0c0.1,0.1,0.1,0.1,0.2,0.2c0,0,0,0,0,0c0,0,0.1,0.1,0.1,0.1c0,0,0.1,0.1,0.1,0.1c0,0,0,0,0,0.1
				c0,0,0,0,0,0c0,0,0,0,0,0c0,0.1,0.1,0.1,0.1,0.2c0,0,0,0.1,0,0.1c0,0,0,0.1,0,0.1c0,0,0,0.1,0,0.1c0,0.1,0,0.1,0,0.2
				c0,0,0,0.1,0,0.1c0,0.1,0,0.2,0,0.3v0.3c0,0,0,0.1,0,0.1c0,0.1,0,0.1,0,0.2c0,0.1,0,0.1,0,0.2c0,0,0,0,0,0.1c0,0,0,0.1,0,0.1
				c0,0,0,0.1,0,0.1c0,0.1,0,0.1-0.1,0.2c-0.3,0.7-0.8,1.3-1.4,1.5c-0.2,0.1-0.4,0.1-0.5,0.1c-0.1,0-0.2,0-0.2,0h-0.1
				c-0.2,0-0.3,0-0.5-0.1c0,0,0,0,0,0c0,0,0,0,0,0c-0.2-0.1-0.3-0.2-0.4-0.3c-0.1-0.1-0.2-0.2-0.3-0.4c-0.1-0.1-0.1-0.2-0.2-0.4
				l-0.1-0.4c0-0.1,0-0.2,0-0.3L178.7,88.8L178.7,88.8z M172.3,87.4C172.3,87.4,172.4,87.3,172.3,87.4c0-0.1,0-0.2,0-0.2
				c0,0,0-0.1,0-0.1c0-0.1,0-0.1,0-0.2c0,0,0-0.1,0-0.1c0-0.2,0.1-0.3,0.2-0.4c0,0,0,0,0,0c0,0,0,0,0,0c0-0.1,0.1-0.1,0.1-0.1
				c0,0,0-0.1,0.1-0.1c0.1-0.1,0.2-0.2,0.3-0.4c0,0,0,0,0,0h0c0,0,0,0,0,0c0,0,0-0.1,0.1-0.1c0,0,0,0,0,0c0.1-0.1,0.2-0.1,0.2-0.2
				c0.1,0,0.1-0.1,0.2-0.1c0,0,0,0,0.1-0.1c0,0,0.1,0,0.1,0c0.1,0,0.1-0.1,0.2-0.1c0,0,0,0,0,0c0,0,0.1,0,0.1,0c0.1,0,0.1,0,0.2,0
				c0,0,0.1,0,0.1,0c0.1,0,0.1,0,0.2,0c0,0,0.1,0,0.1,0s0.1,0,0.1,0c0,0,0,0,0,0c0,0,0.1,0,0.1,0c0,0,0,0,0,0c0.1,0,0.1,0,0.2,0
				c0.1,0,0.1,0,0.2,0.1c0,0,0,0,0,0c0,0,0.1,0,0.1,0c0,0,0.1,0,0.1,0.1c0,0,0.1,0,0.1,0c0,0,0,0,0.1,0c0,0,0,0,0,0
				c0,0,0.1,0,0.1,0.1c0.1,0.1,0.1,0.1,0.2,0.1c0,0,0,0,0.1,0.1c0.3,0.3,0.5,0.6,0.7,1c0,0,0,0,0,0c0,0,0,0.1,0,0.1c0,0,0,0.1,0,0.1
				c0,0,0,0,0,0c0,0.1,0,0.1,0,0.2c0,0,0,0,0,0.1c0,0.1,0,0.3,0,0.4c0,0.1,0,0.2,0,0.3v0.1c0,0,0,0.1,0,0.1c0,0.1,0,0.2-0.1,0.3
				c0,0.1,0,0.3-0.1,0.4c-0.4,1.1-1.3,1.9-2.4,1.9l-0.1,0c-0.4,0-0.8-0.2-1.1-0.5c-0.1,0-0.1-0.1-0.2-0.1c-0.1-0.1-0.1-0.1-0.1-0.2
				c-0.2-0.2-0.3-0.5-0.4-0.8c-0.1-0.1-0.1-0.3-0.1-0.5c0-0.1,0-0.2,0-0.3c0-0.1,0-0.2,0-0.3C172.3,87.6,172.3,87.5,172.3,87.4z
				 M158.4,93.7c0-0.7,0.3-1.3,0.6-1.7c0.4-0.2,0.9-0.4,1.6-0.4c0.8,0,1.4,0.4,1.9,0.9c0.1,0.4,0.1,0.8,0.1,1.4
				c-0.1,1.1-0.6,1.9-1.4,2.2c-0.3,0.1-0.6,0.2-0.9,0.1c-0.2,0-0.3-0.1-0.5-0.1C158.9,95.8,158.3,94.9,158.4,93.7z M182.9,98.9
				c-0.1,0-0.3-0.2-0.5-0.5c-0.2-0.3-0.3-0.5-0.5-0.7c0,0,0,0,0,0c-0.1-0.1-0.2-0.2-0.3-0.3c-0.3-0.3-0.6-0.5-1-0.6c0,0,0,0-0.1,0
				c0,0-0.1,0-0.1,0c0,0-0.1,0-0.1,0c0,0-0.1,0-0.1,0c-0.2,0-0.5,0-0.8,0c0,0,0,0-0.1,0c0,0-0.1,0-0.1,0c0,0,0,0,0,0s0,0,0,0
				c0,0,0,0,0,0c0,0,0,0-0.1,0h0c0,0,0,0,0,0h0c0,0,0,0,0,0c0,0-0.1,0-0.1,0c-0.3,0.1-0.6,0.1-0.9,0.2c0,0,0,0,0,0
				c-0.2,0-0.3,0-0.5,0.1c-0.2,0-0.3,0-0.4,0.1c0,0,0,0,0,0h0c0,0,0,0,0,0c-0.2,0-0.5,0.1-0.7,0.1c-0.2,0-0.5,0.1-0.8,0.1
				c0,0-0.1,0-0.1,0c0,0-0.1,0-0.1,0c-0.2,0-0.3,0.3-0.5,0.4c0.2,0.1,0.4,0.2,0.6,0.2c0.7-0.1,1.3-0.3,1.9-0.5
				c1.7-0.3,3.1,0,4.1,1.5c0,0,0,0,0,0c0.2,0.3,0.4,0.6,0.4,0.8c0,0,0,0.1,0,0.1c0,0,0,0,0,0c0,0,0,0,0,0c0,0,0,0,0,0
				c0,0,0,0.1-0.1,0.1c0,0,0,0.1-0.1,0.1v0c-0.1,0.1-0.2,0.2-0.3,0.3c0,0,0,0,0,0c-2.3,2-4.4,4.2-6.9,5.9c-0.1,0.1-0.3,0.2-0.4,0.3
				c-0.1,0.1-0.3,0.2-0.4,0.4c-0.1,0.1-0.2,0.2-0.3,0.4v0c-0.1,0.1-0.2,0.2-0.3,0.3c0,0,0,0,0,0c-0.1,0.1-0.2,0.2-0.2,0.3v0
				c-0.1,0.1-0.1,0.2-0.2,0.3c0,0,0,0,0,0c-0.1,0.1-0.1,0.2-0.2,0.4v0c-0.1,0.1-0.1,0.2-0.2,0.4c-0.2,0.4-0.3,0.8-0.4,1.2
				c-0.9,3.1-1.8,6.1-3.6,8.8c-0.2,0.3-0.4,0.6-0.6,0.9c-0.3,0.4-0.7,0.8-1,1.2c-0.2,0.2-0.4,0.4-0.6,0.7c-0.1,0.2-0.3,0.3-0.5,0.5
				c-0.1,0.2-0.3,0.3-0.5,0.5c-0.3,0.2-0.5,0.5-0.8,0.7c-0.2,0.1-0.3,0.3-0.5,0.4l-0.2,0.2c-0.5,0.4-1.1,0.9-1.6,1.3
				c-0.7,0.5-1.4,1-2.1,1.5c-0.1,0-0.1,0.1-0.2,0.1c0,0,0,0,0,0c-0.3,0.2-0.6,0.3-0.8,0.5c-0.6,0.3-1.2,0.6-1.7,0.9
				c-0.3,0.1-0.6,0.3-0.9,0.5c-0.2,0.1-0.4,0.2-0.6,0.3c-0.1,0.1-0.3,0.1-0.4,0.1c0,0,0,0,0,0c-0.1,0-0.1,0-0.2,0
				c0-0.1-0.1-0.3-0.1-0.4c0,0,0-0.1,0-0.1c0.2-0.7,0.5-1.4,0.7-2.1c0.7-2.2,1.3-4.5,1.7-6.8c0.1-0.5,0.2-1,0.2-1.5
				c0.1-0.4,0.1-0.9,0.2-1.3c0.1-0.4,0.1-0.7,0.2-1.1c0.2-1.1,0.4-2.3,0.6-3.4c0.1-0.3,0.1-0.7,0.2-1c0-0.2,0.1-0.4,0.1-0.6
				c0.2-1.3,0.4-2.7,0.7-4c0.2-0.9,0.7-1.7,1-2.6c0.2-0.6,0.6-1,1.1-1.1c0.1,0,0.2,0,0.3,0c0.1,0,0.2,0,0.4,0c0.1,0,0.2,0.1,0.3,0.1
				c0.9,0.4,1.9,0.9,2.7,1.5c1.1,0.8,2,1.9,2.9,2.8c0.1,0.1,0.3,0.1,0.5,0.1c0,0,0-0.1,0-0.1c0-0.1,0-0.2-0.1-0.3
				c-0.1-0.2-0.2-0.4-0.3-0.6c-0.3-0.6-0.6-1.1-0.9-1.5l0,0c0-0.1-0.1-0.1-0.1-0.2c0-0.1-0.1-0.1-0.1-0.2c-0.8-0.8-1.8-1.5-2.5-2.4
				c-0.6-0.7-1.1-1.6-1.2-2.7c0-0.1-0.1-0.2-0.2-0.3c-0.4-0.5-0.5-1-0.5-1.4c0-0.6,0.2-1.1,0.7-1.6c0.5-0.6,0.8-1.1,1-1.7
				c0.2-0.7,0.2-1.5-0.1-2.4c-0.1-0.1-0.1-0.3-0.1-0.4c0-0.2,0-0.4,0.1-0.5c0-0.1,0.1-0.1,0.2-0.2c0,0,0.1-0.1,0.1-0.1c0,0,0,0,0,0
				c0.1,0,0.1,0,0.2-0.1c0,0,0,0,0,0c0,0,0,0,0.1,0c0,0,0,0,0,0c0,0,0,0,0.1,0c0.1,0,0.1,0,0.2,0h0c0.2,0,0.5,0,0.8,0
				c0.4,0,0.8,0,1.1,0.1c0.2,0.1,0.5,0.1,0.7,0.3c0.2,0.1,0.4,0.3,0.6,0.4c0.4,0.3,0.7,0.8,0.9,1.2c0.1,0.1,0.1,0.2,0.1,0.4
				c0,0.1,0.1,0.3,0.1,0.5c0,0.2,0.1,0.5,0.1,0.7c0,0.1,0,0.2,0,0.4v0c0,0.1,0,0.2,0,0.3c0,0,0,0.1,0,0.1c0,0,0,0,0,0.1
				c0,0.1,0,0.2-0.1,0.3c0,0,0,0,0,0v0c0,0,0,0,0,0c0,0,0,0,0,0.1c0,0,0,0,0,0c0,0.1,0,0.1-0.1,0.2c-0.1,0.2-0.2,0.3-0.2,0.5
				c-0.2,0.3-0.3,0.6-0.5,0.9c-0.1,0.1-0.2,0.3-0.3,0.4c-0.4,0.5-0.8,0.9-1.2,1.2c-0.1,0.1-0.2,0.1-0.4,0.2
				c-0.1,0.1-0.2,0.1-0.3,0.1c-0.1,0-0.1,0.1-0.2,0.1c-0.1,0-0.1,0.1-0.2,0.1c-0.1,0-0.1,0-0.2,0.1c-0.1,0-0.3,0.1-0.4,0.1
				c0,0-0.1,0-0.1,0.1c0,0-0.1,0.1-0.1,0.1c0,0,0,0,0.1,0c0,0,0,0,0,0c0.1,0,0.1,0.1,0.2,0.1c0.1,0,0.1,0.1,0.2,0.1
				c0.1,0,0.2,0.1,0.3,0.1c0,0,0,0,0,0c0.1,0,0.2,0,0.4,0c0.1,0,0.3,0,0.4,0h0c0,0,0,0,0,0c0,0,0.1,0,0.1,0c0.2,0,0.5-0.1,0.7-0.2
				c0,0,0,0,0,0c0.1,0,0.1-0.1,0.2-0.1c0.1,0,0.2-0.1,0.3-0.2c0.1-0.1,0.2-0.1,0.3-0.2l0,0c0,0,0,0,0,0c0.1-0.1,0.1-0.1,0.2-0.2l0,0
				c0,0,0,0,0.1-0.1c0,0,0.1-0.1,0.1-0.1c0.1-0.1,0.2-0.2,0.2-0.3c1.1-1.7,2.1-3.5,3.1-5.3c0.2-0.4,0.5-0.8,0.7-1.2h0c0,0,0,0,0.1,0
				c0,0,0,0,0,0c0.3,0,0.5,0,0.8,0c0.2,0,0.4,0,0.5,0c0.6,0,1.1,0,1.7-0.1c1-0.2,1.7-0.2,2.3-0.2c0.2,0,0.3,0.1,0.5,0.1
				c0.1,0,0.1,0,0.2,0.1c0.1,0,0.1,0,0.2,0.1c0.1,0,0.1,0.1,0.2,0.1c0,0,0,0,0,0c0,0,0.1,0,0.1,0.1c0,0,0,0,0.1,0
				c0.1,0,0.1,0.1,0.1,0.1c0,0,0,0,0,0c0.1,0,0.1,0.1,0.2,0.1c0.1,0.1,0.1,0.1,0.2,0.2c0.2,0.3,0.5,0.7,0.8,1.1
				c0.1,0.2,0.3,0.5,0.4,0.8c0,0,0,0,0,0c0,0,0,0,0,0c0,0,0,0,0,0c0,0,0,0,0,0v0l0.1,0.1l0.1,0.2l0.3,0.6c0.3,0.4,0.6,0.9,0.8,1.4
				c0.1,0.2,0.2,0.4,0.3,0.6C183.1,98.5,183.1,98.8,182.9,98.9z M184.6,93.4C184.6,93.4,184.6,93.4,184.6,93.4L184.6,93.4
				C184.5,93.4,184.5,93.4,184.6,93.4c-0.1,0-0.1,0-0.1,0c-0.2,0-0.3,0.1-0.5,0c-0.1,0-0.1,0-0.2,0c0,0-0.1,0-0.1,0
				c-0.2,0-0.3-0.1-0.4-0.2c-0.1-0.1-0.2-0.1-0.2-0.2c0,0,0,0,0-0.1c0,0,0,0-0.1-0.1c-0.2-0.3-0.3-0.6-0.2-1c0-0.1,0-0.2,0.1-0.3
				c0.1-0.3,0.3-0.7,0.6-1c0,0,0.1,0,0.1-0.1c0.1-0.1,0.2-0.1,0.3-0.2c0.1-0.1,0.2-0.1,0.3-0.1c0,0,0,0,0.1,0c0,0,0.1,0,0.1,0
				c0,0,0,0,0.1,0c0.1,0,0.1,0,0.1,0c0,0,0,0,0.1,0c0,0,0.1,0,0.1,0h0.2c0.1,0,0.3,0,0.4,0.1c0.1,0,0.1,0.1,0.2,0.1s0.1,0.1,0.2,0.1
				h0c0,0,0,0,0.1,0.1c0,0,0.1,0,0.1,0.1c0,0,0,0,0,0l0,0c0.1,0.1,0.1,0.1,0.1,0.2c0,0,0,0.1,0,0.1c0,0,0,0.1,0,0.1c0,0,0,0,0,0v0
				c0.1,0.2,0.1,0.4,0.1,0.6v0c0,0,0,0,0,0c0,0,0,0.1,0,0.1c0,0.1,0,0.2-0.1,0.3c-0.1,0.3-0.3,0.6-0.6,0.9c-0.2,0.1-0.4,0.3-0.6,0.4
				c-0.1,0-0.1,0.1-0.2,0.1C184.7,93.3,184.6,93.3,184.6,93.4z M188,96c-0.2,0.3-0.4,0.5-0.6,0.7c-0.2,0.1-0.4,0.2-0.6,0.3
				c-0.1,0-0.2,0-0.3,0c0,0-0.1,0-0.1,0c-0.1,0-0.1,0-0.2,0c-0.1,0-0.3,0-0.4-0.1c-0.2-0.1-0.5-0.2-0.6-0.4c0,0-0.1-0.1-0.1-0.1
				c0,0,0,0,0,0c0,0,0-0.1,0-0.1c-0.1-0.2-0.2-0.4-0.2-0.7c0-0.1,0-0.1,0-0.2c0-0.1,0-0.2,0-0.3c0.1-0.2,0.2-0.4,0.3-0.6v0
				c0,0,0,0,0,0c0.1-0.1,0.1-0.2,0.2-0.3c0.1-0.1,0.2-0.1,0.3-0.2c0.1-0.1,0.2-0.1,0.4-0.2c0.3-0.1,0.5-0.2,0.8-0.2h0.1
				c0.1,0,0.2,0,0.3,0c0.2,0,0.4,0.1,0.5,0.2c0.1,0.1,0.2,0.2,0.3,0.3c0.2,0.2,0.2,0.5,0.2,0.8C188.2,95.5,188.1,95.7,188,96z"/>
		</g>
	</g>
</g>
<g>
	<defs>
		<circle id="SVGID_00000152963104500105032340000008675338611020542603_" cx="120" cy="-194.9" r="104.9"/>
	</defs>
	<clipPath id="SVGID_00000176745782095376143040000004489889660573192113_">
		<use xlink:href="#SVGID_00000152963104500105032340000008675338611020542603_"  style="overflow:visible;"/>
	</clipPath>
	<g style="clip-path:url(#SVGID_00000176745782095376143040000004489889660573192113_);">
		<g>
			<g>
				<g>
					<path style="&st31;" d="M69.2-3.6c-1.1-1.4-1.9-2-2.6-2c-0.4,0-1.3,0.3-5.6,2.9c-0.1-0.5-0.4-1-0.9-1.5
						c-0.6-0.7-1.3-1.1-1.9-1.4l-0.1,0l-4.9,2.8v1.4l0.2,0C54.5-1.1,55-0.2,55,1.6v24c0,1.5-0.3,2.6-0.8,3.4
						c-0.6,0.7-1.1,1.1-1.7,1.1h-0.4l1.1,2.1l9.9-4.2v-1.9h-0.3c-0.7,0-1.1-0.2-1.3-0.6c-0.2-0.5-0.3-1.2-0.3-2.3v-4.5
						c1.6-0.5,3.6-1.2,5.9-2.2c3.9-1.5,3.9-1.8,3.9-2.1V0C70.9-1,70.3-2.3,69.2-3.6z M61.1,16V0c0.6-0.4,1.1-0.6,1.5-0.6
						c1.4,0,2.1,1,2.1,3.1v11.4c0,0.5-0.7,1-1.3,1.4C62.6,15.7,61.8,15.9,61.1,16z"/>
				</g>
				<g>
					<path style="&st31;" d="M88.3,9.4v2.4l-5.1,2.9l-1-0.8v-0.1c0-3.3-0.4-4.1-0.6-4.2c-0.5-0.3-1.1-0.5-2.1-0.5v14.5
						c0,1.8,0.6,2.7,1.7,2.9l0.2,0v1.4l-4.9,2.8l-0.1,0c-0.7-0.3-1.4-0.8-2-1.4c-0.6-0.7-0.9-1.3-0.9-2V11.8c0-1.3-0.2-2.3-0.7-2.9
						c-0.4-0.6-0.9-0.9-1.3-0.9h-0.3V6.5l5.3-2.9l0.1,0c0.2,0.1,0.5,0.1,0.8,0.3c0.3,0.1,0.8,0.4,1.3,1c0.4,0.4,0.7,0.9,0.8,1.4
						C79.8,6,80.3,5.7,81.3,5c1.8-1.2,2.4-1.4,2.7-1.4c1.1,0,2.1,0.7,3,2.1C87.9,7,88.3,8.3,88.3,9.4z"/>
				</g>
				<g>
					<path style="&st31;" d="M104.1,5.6c-1.1-1.4-2-2-2.6-2c-0.4,0-1.4,0.2-6.2,2c-5.5,2-5.5,2.3-5.5,2.6v15.4
						c0,1.9,0.5,3.6,1.5,4.9c1,1.4,2,2.1,2.8,2.1c0.8,0,2.9-0.6,6.3-2c5.2-2,5.2-2.3,5.2-2.6V9.2C105.8,8.1,105.2,6.9,104.1,5.6z
						 M96,9c0.5-0.4,1-0.6,1.5-0.6c1.4,0,2.1,1,2.1,3.1v13.5c-0.5,0.4-1,0.6-1.5,0.6c-1.4,0-2.1-1-2.1-3.2V9z"/>
				</g>
				<g>
					<path style="&st31;" d="M116.5,26.3l0.2,0v1.4l-4.9,2.8l-0.1,0c-0.7-0.3-1.4-0.8-2-1.4c-0.6-0.7-0.9-1.3-0.9-2v-20h-2l0.6-2.5
						h0.2c0.9,0,1.9-0.6,3.2-1.8c1.3-1.2,2-2.5,2.3-3.9l0-0.2h1.8v5.5h2.4l-0.6,2.8h-1.9v16.3C114.9,25.2,115.4,26.1,116.5,26.3z"/>
				</g>
				<g>
					<path style="&st31;" d="M132,5.6c-1.1-1.4-2-2-2.6-2c-0.4,0-1.4,0.2-6.2,2c-5.5,2-5.5,2.3-5.5,2.6v15.4c0,1.9,0.5,3.6,1.5,4.9
						c1,1.4,2,2.1,2.8,2.1c0.8,0,2.9-0.6,6.3-2c5.2-2,5.2-2.3,5.2-2.6V9.2C133.7,8.1,133.2,6.9,132,5.6z M123.9,9
						c0.5-0.4,1-0.6,1.5-0.6c1.4,0,2.1,1,2.1,3.1v13.5c-0.5,0.4-1,0.6-1.5,0.6c-1.4,0-2.1-1-2.1-3.2V9z"/>
				</g>
				<g>
					<path style="&st31;" d="M153.2,11.9v1.4l-0.2,0.1c-0.7,0.3-1.8,0.9-3.4,1.6c-2.5,1.2-2.6,1.2-2.7,1.2c-0.5,0-1-0.5-2-4
						c-0.9-3.2-1.4-3.5-1.4-3.6c-0.2,0-0.4,0.1-0.6,0.3v12.7c0,2.3,0.9,3.6,2.9,4.1c1,0.2,2.3,0.4,3.7,0.4h0.3v1.8l-0.2,0.1
						c-7.6,2.6-8,2.6-8.2,2.6c-1,0-2-0.7-3.1-2.1c-1-1.4-1.5-3-1.5-4.8V8.1c0-0.3,0-0.5,5.5-2.6c4.8-1.8,5.8-2,6.2-2
						c0.4,0,0.6,0.4,0.9,1.5c0.2,0.9,0.5,2,0.9,3.3c0.3,1.2,0.6,2.1,1,2.7c0.3,0.5,0.9,0.8,1.8,0.8L153.2,11.9L153.2,11.9z"/>
				</g>
				<g>
					<path style="&st31;" d="M168.5,5.6c-1.1-1.4-2-2-2.6-2c-0.4,0-1.4,0.2-6.2,2c-5.5,2-5.5,2.3-5.5,2.6v15.4
						c0,1.9,0.5,3.6,1.5,4.9c1,1.4,2,2.1,2.8,2.1c0.8,0,2.9-0.6,6.3-2c5.2-2,5.2-2.3,5.2-2.6V9.2C170.2,8.1,169.6,6.9,168.5,5.6z
						 M160.4,9c0.5-0.4,1-0.6,1.5-0.6c1.4,0,2.1,1,2.1,3.1v13.5c-0.5,0.4-1.1,0.6-1.5,0.6c-1.4,0-2.1-1-2.1-3.2V9z"/>
				</g>
				<g>
					<path style="&st31;" d="M181.1,26.4v1.4l-4.9,2.8l-0.1,0c-0.7-0.3-1.4-0.8-2-1.4c-0.6-0.7-0.9-1.3-0.9-2V1.5
						c0-1.8-0.6-2.7-1.7-2.9l-0.2,0v-1.4l4.9-2.8l0.1,0c0.7,0.3,1.4,0.8,2,1.4c0.6,0.7,0.9,1.3,0.9,2v25.6c0,1.8,0.6,2.7,1.7,2.9
						L181.1,26.4z"/>
				</g>
			</g>
		</g>
	</g>
</g>
</svg>
