<?xml version="1.0" encoding="utf-8"?>
<!-- Generator: Adobe Illustrator 28.6.0, SVG Export Plug-In . SVG Version: 9.03 Build 54939)  -->
<!DOCTYPE svg PUBLIC "-//W3C//DTD SVG 1.1//EN" "http://www.w3.org/Graphics/SVG/1.1/DTD/svg11.dtd" [
	<!ENTITY ns_extend "http://ns.adobe.com/Extensibility/1.0/">
	<!ENTITY ns_ai "http://ns.adobe.com/AdobeIllustrator/10.0/">
	<!ENTITY ns_graphs "http://ns.adobe.com/Graphs/1.0/">
	<!ENTITY ns_vars "http://ns.adobe.com/Variables/1.0/">
	<!ENTITY ns_imrep "http://ns.adobe.com/ImageReplacement/1.0/">
	<!ENTITY ns_sfw "http://ns.adobe.com/SaveForWeb/1.0/">
	<!ENTITY ns_custom "http://ns.adobe.com/GenericCustomNamespace/1.0/">
	<!ENTITY ns_adobe_xpath "http://ns.adobe.com/XPath/1.0/">
	<!ENTITY st0 "fill:#B0B3BA;stroke:#000000;stroke-width:0.946;stroke-miterlimit:10;">
	<!ENTITY st1 "fill:#C92922;">
	<!ENTITY st2 "fill:#FFFFFF;">
	<!ENTITY st3 "fill:#2C52A0;">
	<!ENTITY st4 "fill:none;">
	<!ENTITY st5 "fill:#F7B116;">
	<!ENTITY st6 "fill:#004989;">
	<!ENTITY st7 "fill:none;stroke:#000000;stroke-width:0.946;stroke-miterlimit:10;">
	<!ENTITY st8 "fill:none;stroke:#000000;stroke-width:0.8684;stroke-miterlimit:10;">
	<!ENTITY st9 "fill:none;stroke:#000000;stroke-width:0.837;stroke-miterlimit:10;">
	<!ENTITY st10 "fill:none;stroke:#FFFFFF;stroke-width:5;stroke-miterlimit:10;stroke-dasharray:10,4;">
	<!ENTITY st11 "clip-path:url(#SVGID_00000140696951505468253210000013484496547402104969_);">
	<!ENTITY st12 "fill:#C44C07;">
	<!ENTITY st13 "fill:#F08219;">
	<!ENTITY st14 "fill:#F6A21D;">
	<!ENTITY st15 "fill:#F3921B;">
	<!ENTITY st16 "fill:none;stroke:#FFFFFF;stroke-width:2.3153;stroke-miterlimit:10;stroke-dasharray:4.6306,1.8523;">
	<!ENTITY st17 "fill:none;stroke:#FFFFFF;stroke-width:0.9659;stroke-miterlimit:10;stroke-dasharray:1.9319,0.7727;">
	<!ENTITY st18 "clip-path:url(#SVGID_00000178886009407372054080000015177029804782594443_);">
	<!ENTITY st19 "clip-path:url(#SVGID_00000163049862405729004620000014911451352491130768_);">
	<!ENTITY st20 "clip-path:url(#SVGID_00000147911473126270776540000008894955264666838947_);">
	<!ENTITY st21 "fill:none;stroke:#FFFFFF;stroke-width:2.3689;stroke-miterlimit:10;stroke-dasharray:4.7379,1.8952;">
	<!ENTITY st22 "clip-path:url(#SVGID_00000168080882208045457160000002684792828214465207_);">
	<!ENTITY st23 "clip-path:url(#SVGID_00000078732539418954285070000001003597416839118517_);">
	<!ENTITY st24 "clip-path:url(#SVGID_00000119835776482024401210000014607923849360815505_);">
	<!ENTITY st25 "clip-path:url(#SVGID_00000176742876058599935630000003057548101782059162_);">
	<!ENTITY st26 "fill:#E5231E;">
	<!ENTITY st27 "fill:#FFFFFF;stroke:#FFFFFF;stroke-width:0.5051;stroke-miterlimit:10;">
	<!ENTITY st28 "fill:#FFFFFF;stroke:#FFFFFF;stroke-width:0.3367;stroke-miterlimit:10;">
	<!ENTITY st29 "fill:#FFFFFF;stroke:#FFFFFF;stroke-width:2.142;stroke-miterlimit:10;">
	<!ENTITY st30 "fill:#BD271F;">
	<!ENTITY st31 "fill:#020203;">
	<!ENTITY st32 "fill:none;stroke:#000000;stroke-width:0.6734;stroke-linejoin:round;stroke-miterlimit:10;">
	<!ENTITY st33 "fill:#FFFFFF;stroke:#FFFFFF;stroke-width:2.4;stroke-miterlimit:10;">
]>
<svg version="1.1" id="Capa_1" xmlns:x="&ns_extend;" xmlns:i="&ns_ai;" xmlns:graph="&ns_graphs;"
	 xmlns="http://www.w3.org/2000/svg" xmlns:xlink="http://www.w3.org/1999/xlink" x="0px" y="0px" viewBox="0 0 289.9 149.4"
	 style="enable-background:new 0 0 289.9 149.4;" xml:space="preserve">
<metadata>
	<sfw  xmlns="&ns_sfw;">
		<slices></slices>
		<sliceSourceBounds  bottomLeftOrigin="true" height="6128.5" width="4684.3" x="-1233.3" y="-1872.4"></sliceSourceBounds>
	</sfw>
</metadata>
<g>
	<rect width="289.9" height="149.4"/>
</g>
<g>
	<path style="&st33;" d="M20.8,69.9c0.7,0.5,1.3,0.7,1.7,0.7c0.4,0,1.1-0.4,1.9-1.1s1.3-1.3,1.3-1.7c0-0.4-0.3-0.9-1-1.5
		c-0.6-0.6-2.2-1.5-4.6-2.7c-2.5-1.2-4.7-2.6-6.8-4c-2.1-1.4-3.5-2.8-4.1-4.2c-0.6-1.4-1-2.8-1-4.3c0-1.5,0.2-2.8,0.7-4
		c0.5-1.1,1.8-2.7,4.1-4.9c2.2-2.2,4.2-3.7,6-4.7v-6.2h6.6v6.5c4.3,2.1,7.5,5,9.5,8.7l-8.3,6.2l-0.6-0.9c-2.1-2.9-3.7-4.4-4.8-4.4
		c-0.5,0-1.2,0.4-2.1,1.1s-1.3,1.3-1.3,1.7c0,0.4,0.3,0.9,0.9,1.5c0.6,0.5,2.1,1.4,4.5,2.8c2.4,1.3,4.7,2.7,6.9,4.1
		c2.2,1.4,3.6,2.8,4.2,4c0.6,1.2,1,2.9,1,5.3s-0.4,4-1.1,5c-0.7,1-2,2.2-3.7,3.7c-1.8,1.5-3.5,2.7-5.2,3.6v6.5h-6.6v-6.6
		c-1.9-0.7-3.9-1.8-5.9-3.4c-2-1.6-3.5-3.3-4.5-5.2l8.3-6.2l0.6,0.9C19,68.1,20.1,69.4,20.8,69.9z"/>
	<path style="&st33;" d="M62.9,82.4c-3.5,3.5-6.1,5.2-7.9,5.2s-4.4-1.7-7.9-5.2c-3.5-3.4-5.6-6.3-6.5-8.4c-0.5-1.4-0.8-4.8-0.8-10.3
		v-9.3c0-5.5,0.3-9,0.8-10.3c0.8-2.2,3-5,6.5-8.4c3.5-3.4,6.1-5.2,7.9-5.2s4.4,1.7,7.9,5.2c3.5,3.5,5.6,6.3,6.5,8.4
		c0.5,1.4,0.8,4.8,0.8,10.3v9.3c0,5.5-0.3,9-0.8,10.3C68.5,76.1,66.4,78.9,62.9,82.4z M52.6,74.6c1,1.1,1.8,1.6,2.5,1.6
		c0.7,0,1.5-0.5,2.5-1.6c1-1.1,1.6-2.1,2-3.1c0.4-1,0.6-3.6,0.6-7.9v-9.3c0-4.3-0.2-7-0.6-7.9c-0.4-1-1.1-2-2-3.1
		c-1-1.1-1.8-1.6-2.5-1.6c-0.7,0-1.5,0.5-2.5,1.6c-1,1.1-1.6,2.1-2,3.1S50,50,50,54.3v9.3c0,4.3,0.2,7,0.6,7.9S51.6,73.6,52.6,74.6z
		"/>
	<path style="&st33;" d="M102.4,64.3c0.5,0.9,0.8,2.8,0.8,5.6s-0.5,5.2-1.6,7.1c-1,1.5-3.1,3.6-6.2,6.4c-3.2,2.7-5.5,4.1-7,4.1
		c-2.7,0-5.8-1.5-9.2-4.5c-3.5-3-5.7-6.4-6.6-10l8.1-6c0.8,2.5,2,4.7,3.7,6.8c1.7,2.1,2.9,3.1,3.6,3.1c0.7,0,1.5-0.2,2.3-0.8
		c0.8-0.5,1.4-1,1.9-1.5c0.6-0.8,1-2.2,1-4c0-1.8-0.4-2.9-1.2-3.3c-1-0.9-2.9-2.1-5.7-3.6c-2.8-1.5-5.4-3.1-7.8-4.8
		c-2.4-1.7-3.9-3.4-4.6-5c-0.7-1.6-1-3.8-1-6.4c0-2.6,0.5-4.9,1.6-6.8c1-1.5,3-3.6,6.2-6.4c3.2-2.7,5.5-4.1,7-4.1
		c2.7,0,5.8,1.5,9.2,4.5c3.5,3,5.7,6.4,6.6,10L95.5,51c-0.8-2.5-2-4.8-3.7-6.8c-1.7-2.1-2.9-3.1-3.6-3.1s-1.5,0.2-2.3,0.7
		c-0.8,0.5-1.5,1.1-2,1.8c-0.5,0.7-0.8,1.9-0.8,3.6c0,1.7,0.5,2.9,1.5,3.4c0.8,0.7,2.6,1.9,5.3,3.5C97,58.3,101.2,61.7,102.4,64.3z"
		/>
	<path style="&st33;" d="M115.1,35.5c3.5-3.4,6.1-5.1,7.9-5.1c1.8,0,4.4,1.7,7.9,5.1c3.5,3.4,5.6,6.2,6.4,8.5
		c0.5,1.5,0.8,5,0.8,10.3v32.3h-10.1V74.8H118v11.8h-10.1V54.3c0-5.4,0.3-8.8,0.8-10.3C109.5,41.7,111.6,38.9,115.1,35.5z M118,54.3
		v11h10.1v-11c0-4.3-0.2-7-0.6-7.9c-0.4-1-1.1-2-2-3.1c-1-1.1-1.8-1.6-2.5-1.6c-0.7,0-1.5,0.5-2.5,1.6c-1,1.1-1.6,2.1-2,3.1
		S118,50,118,54.3z"/>
	<path style="&st33;" d="M156.2,47.3v4.6h2.2c0.8,0,1.7-0.5,2.6-1.5c0.9-1,1.6-1.9,2-2.8s0.9-3.4,1.4-7.5c0.5-4.1,0.7-7.1,0.7-8.8
		h10.1c0,2.1-0.3,5.3-0.8,9.6c-0.5,4.4-1,7.1-1.5,8.1c-0.7,1.7-2.6,4.1-5.6,7c3.5,3.2,5.7,5.9,6.7,8.1c0.5,1.1,1,4.4,1.5,10
		c0.5,5.6,0.8,9.7,0.8,12.4h-10.1c0-2.5-0.2-6.4-0.7-11.7c-0.5-5.3-0.9-8.4-1.4-9.2c-1.5-2.9-3.3-4.4-5.3-4.4h-2.8v25.3h-10.1V52
		c0-4.3-0.3-7.2-0.8-8.9c-0.6-1.7-1.7-3.7-3.5-6.1l8.8-6.6c1.6,1.1,2.9,3.1,4,6.1C155.6,39.5,156.2,43.1,156.2,47.3z"/>
</g>
<g>
	<path style="&st2;" d="M19.9,139.1h-3.5v-14.8h3.5V139.1z"/>
	<path style="&st2;" d="M30.7,126.8v3.9h4.9v2.5h-4.9v5.9h-3.4v-14.8h8.9v2.6H30.7z"/>
	<path style="&st2;" d="M47.1,136.5v2.6h-9.1v-14.8H47v2.6h-5.5v3.5h4.9v2.5h-4.9v3.7H47.1z"/>
	<path style="&st2;" d="M58.3,136.5v2.6h-9.1v-14.8h8.9v2.6h-5.5v3.5h4.9v2.5h-4.9v3.7H58.3z"/>
	<path style="&st2;" d="M69.6,136.4v2.7h-9.2v-14.8h3.5v12.2H69.6z"/>
	<path style="&st2;" d="M82.9,131.5c1.9,0.1,3.6,1,3.6,3.3c0,3-2.2,4.3-5.4,4.3h-5.2v-14.8h4.9c3,0,5,1.1,5,3.8
		C85.8,130,84.7,131,82.9,131.5L82.9,131.5z M79.1,126.8v3.7h1.3c1.1,0,2-0.6,2-1.9c0-1.3-0.9-1.8-2-1.8H79.1z M81,136.5
		c1.3,0,2.1-0.5,2.1-1.8c0-1.2-0.8-1.8-2.1-1.8h-1.9v3.6H81z"/>
	<path style="&st2;" d="M97.7,136.5v2.6h-9.1v-14.8h8.9v2.6H92v3.5h4.9v2.5H92v3.7H97.7z"/>
	<path style="&st2;" d="M110,127h-4v12.1h-3.4V127h-4v-2.8H110V127z"/>
	<path style="&st2;" d="M122.5,127h-4v12.1h-3.4V127h-4v-2.8h11.4V127z"/>
	<path style="&st2;" d="M133.5,136.5v2.6h-9.1v-14.8h8.9v2.6h-5.5v3.5h4.9v2.5h-4.9v3.7H133.5z"/>
	<path style="&st2;" d="M142.7,139.1l-2.2-5.4H139v5.4h-3.4v-14.8h5c3.1,0,5.2,1.4,5.2,4.4c0,2.1-0.9,3.3-2.4,4l3.2,6.5H142.7z
		 M139,131.2h1.2c1.3,0,2.2-0.6,2.2-2.2c0-1.5-0.8-2.2-2.2-2.2H139V131.2z"/>
</g>
<g>
	<g>
		<path style="&st2;" d="M186.1,132.1c0,5.3-2.6,7.6-6.3,7.6c-3.7,0-6.3-2.3-6.3-7.6c0-5.3,2.6-7.6,6.3-7.6
			C183.5,124.5,186.1,126.8,186.1,132.1z M182.4,132.1c0-3.8-0.9-5.1-2.6-5.1s-2.6,1.4-2.6,5.1c0,3.8,0.9,5.1,2.6,5.1
			S182.4,135.8,182.4,132.1z"/>
		<path style="&st2;" d="M190.9,134.6c0.2,1.7,1,2.6,2.6,2.6c0.9,0,1.6-0.5,1.6-1.4c0-1.1-0.6-1.5-3-2.3c-2.7-1-4.1-2.3-4.1-4.5
			c0-2.8,2-4.5,5-4.5c3,0,4.9,1.5,5.3,4.4l-3.4,0.7c-0.1-1.8-0.8-2.7-2.1-2.7c-1,0-1.5,0.6-1.5,1.5c0,1,0.7,1.5,2.8,2.2
			c3.2,1,4.5,2.2,4.5,4.6c0,2.8-2,4.5-5.3,4.5c-3.5,0-5.5-1.6-5.9-4.7L190.9,134.6z"/>
		<path style="&st2;" d="M212.4,139.5h-3.5L208,136h-4.5l-0.8,3.5h-3.2l3.8-14.8h5.4L212.4,139.5z M206.2,128.7
			c-0.2-0.7-0.3-1.3-0.4-2h-0.1c-0.1,0.7-0.3,1.4-0.4,2l-1.2,4.7h3.2L206.2,128.7z"/>
		<path style="&st2;" d="M217.5,128.7c0,0.8-0.1,1.6-0.1,2.4h0.1c0.5-0.8,1-1.7,1.6-2.4l3.2-4h4.3l-5.6,6.2l5.6,8.7h-4.2l-3.6-6.2
			l-1.1,1.2v4.9h-3.5v-14.8h3.5V128.7z"/>
		<path style="&st2;" d="M239.3,139.5h-3.5L235,136h-4.5l-0.8,3.5h-3.2l3.8-14.8h5.4L239.3,139.5z M233.2,128.7
			c-0.2-0.7-0.3-1.3-0.4-2h-0.1c-0.1,0.7-0.3,1.4-0.4,2l-1.2,4.7h3.2L233.2,128.7z"/>
		<path style="&st2;" d="M244.3,137.6c0,1-0.9,2-2,2c-1.1,0-2-0.9-2-2c0-1.1,0.9-2,2-2C243.4,135.7,244.3,136.6,244.3,137.6z"/>
		<path style="&st2;" d="M254.1,128.9c-0.1,1.1-0.6,4.2-0.8,5.4l-0.9,5.2h-5l-2.9-14.8h3.6l1.5,7.6c0.3,1.7,0.5,2.9,0.6,4.2h0.2
			c0.1-1.3,0.3-2.4,0.7-4.2l1.6-7.6h3.4l1.7,7.6c0.4,1.7,0.6,3.1,0.7,4.2h0.2c0.1-1.2,0.2-2.5,0.5-4.2l1.3-7.6h3.6l-2.9,14.8h-4.7
			l-1.1-5.2c-0.2-1-0.8-4.2-0.8-5.3H254.1z"/>
		<path style="&st2;" d="M269.3,139.5h-3.5v-14.8h3.5V139.5z"/>
		<path style="&st2;" d="M284.1,124.7v14.8h-4.9l-3.2-8.8c-0.4-1-0.6-2-0.9-3H275c0.2,2.4,0.4,5.9,0.4,7.9v4h-3.1v-14.8h4.9l3.2,8.8
			c0.4,1,0.6,2,0.9,3h0.2c-0.2-2.5-0.4-5.1-0.4-7.5v-4.4H284.1z"/>
	</g>
</g>
<g>
	<path style="&st2;" d="M217.8,95.4c0.3,0.1,0.6,0.2,1,0.3C218.5,95.7,218.1,95.6,217.8,95.4"/>
	<g>
		<path style="&st2;" d="M268.6,87.4c0.2-0.2,0.4-0.4,0.6-0.6c0.1-0.1,0.1-0.1,0.2-0.2C269.1,86.8,268.9,87.1,268.6,87.4z"/>
		<path style="&st2;" d="M217.8,95.4c0.3,0.1,0.7,0.2,1,0.3C218.4,95.6,218.1,95.5,217.8,95.4z"/>
		<path style="&st2;" d="M277.7,35.3c0.9-3.3,1.6-6.7,1.5-10.2c-0.1-2.3-0.6-4.4-2.3-5.8c-0.5-0.5-1.2-0.9-2-1.2
			c-0.2-0.1-0.5-0.2-0.7-0.2c-0.1,0-0.2,0-0.2-0.1c-0.2,0-0.3-0.1-0.5-0.1c-0.1,0-0.2,0-0.3,0c-0.2,0-0.3,0-0.4-0.1
			c-0.1,0-0.2,0-0.3,0c-0.1,0-0.3,0-0.4,0h-0.2c-0.4,0-0.7,0-1.1,0.1c-0.1,0-0.1,0-0.1,0c-0.4,0.1-0.8,0.1-1.1,0.2
			c-0.6,0.1-1.2,0.3-1.8,0.6c-3.7,1.5-6.4,4.3-9,7.1l-0.1,0.1c-0.1,0.1-0.2,0.2-0.2,0.2c0,0-0.1,0.1-0.1,0.1
			c-0.1,0.1-0.1,0.1-0.2,0.1c0,0-0.1,0-0.1,0c-0.1,0-0.1,0.1-0.2,0.1c0,0-0.1,0-0.1,0c-0.1,0-0.1,0-0.1,0c0,0-0.1,0-0.1,0
			s-0.1,0-0.1,0c0,0-0.1,0-0.1,0c0,0-0.1,0-0.1,0c-0.1,0-0.1,0-0.2-0.1c0,0-0.1,0-0.1-0.1l0,0c-0.1-0.1-0.2-0.1-0.3-0.2
			c-2.2-1.2-4.4-2.4-6.7-3.4c-3.5-1.5-7.1-2.1-10.9-2.3c-1.3,0-2.5,0-3.8,0c-1.3,0.2-2.5,0.3-3.8,0.5c-4,0.6-7.7,1.9-11.2,3.9
			c-0.1,0-0.2,0.1-0.3,0.1c0,0-0.1,0-0.1,0c0,0-0.1,0-0.1,0c0,0-0.1,0-0.1,0c-0.1,0-0.2,0-0.3,0c-0.1,0-0.1,0-0.1,0
			c-0.1,0-0.3-0.1-0.3-0.2c-1.4-1.1-2.7-2.3-4.1-3.3c-0.5-0.4-0.9-0.7-1.4-1l-0.8-0.5c-0.1,0-0.2-0.1-0.2-0.1
			c-0.2-0.1-0.4-0.2-0.6-0.4c-0.1-0.1-0.2-0.1-0.3-0.2c-0.2-0.1-0.4-0.2-0.5-0.3c-0.1-0.1-0.2-0.1-0.4-0.2c-0.2-0.1-0.3-0.2-0.5-0.2
			c-0.1-0.1-0.3-0.1-0.4-0.1c-0.2-0.1-0.3-0.1-0.5-0.2c-0.1,0-0.3-0.1-0.4-0.1c-0.2-0.1-0.4-0.1-0.5-0.1c-0.1,0-0.3-0.1-0.4-0.1
			c-0.2,0-0.4-0.1-0.5-0.1c-0.2,0-0.3,0-0.5,0c-0.2,0-0.3,0-0.4,0H206c-0.2,0-0.3,0-0.5,0c-4.6,0.3-7.1,3-7.3,7.6c0,0.4,0,0.8,0,1.2
			c0,2.1,0.2,4.3,0.7,6.4c1.1,4.6,2.2,9.3,3.1,14c0.1,0.4,0.2,0.7,0.3,1.1c0.1,0.4,0.2,0.7,0.3,1.1c0.1,0.5,0.2,1.1,0.1,1.7
			c0,0.2-0.1,0.4-0.1,0.6c-0.4,1.2-0.7,2.3-0.8,3.5c-0.1,0.9-0.2,1.8-0.2,2.6c0,0.3,0,0.7,0,1c0,1.3,0,2.5,0,3.8
			c0,0.9,0.1,1.8,0.1,2.6c0,0.3,0,0.6-0.1,0.9c0,0.1,0,0.2-0.1,0.3c-0.1,0.3-0.2,0.7-0.3,1c-0.1,0.3-0.2,0.7-0.3,1c0,0,0,0,0,0
			c-0.2,0.5-2.3,7.1,1.4,13.8c0,0.1,0.1,0.1,0.1,0.2c0.4,0.9,0.9,1.7,1.4,2.5c1.5,2.4,3.3,4.5,5.7,6.3c2.2,1.7,4.5,3,6.9,4l0,0
			c0.1,0.1,0.4,0.2,0.9,0.4c0.1,0,0.3,0.1,0.4,0.1c0.3,0.1,0.6,0.2,1,0.3c0.2,0.1,0.4,0.1,0.6,0.2c0.2,0.1,0.3,0.1,0.5,0.2
			c2.5,0.8,6.1,1.7,10.2,2.2c1.4,0.2,2.8,0.3,4.2,0.4c2,0.1,4,0,6.1-0.2c0.1,0,0.3,0,0.4,0c0.2,0,1.1-0.2,1.4-0.2
			c0.4,0,0.7-0.1,1-0.1c4.9-0.7,8.9-1.7,12.2-2.8c5.8-2,8.9-4.1,9.2-4.3c0,0,0,0,0,0c0.8-0.6,1.5-1.1,2.3-1.7c0.6-0.4,1-1,1.5-1.5
			c0.1-0.1,0.2-0.2,0.3-0.3c0.3-0.3,0.5-0.6,0.8-0.9c0.3-0.3,0.5-0.6,0.7-0.9c0,0,0-0.1,0.1-0.1c2-2.6,2.3-4.2,2.3-4.2
			c0-0.1,0.1-0.2,0.1-0.2c0-0.1,0.1-0.2,0.1-0.2c0.1-0.2,0.2-0.5,0.3-0.7c0.1-0.3,0.2-0.5,0.3-0.8c0.1-0.2,0.2-0.5,0.2-0.7
			c0.1-0.3,0.1-0.5,0.2-0.8c0.1-0.2,0.1-0.5,0.2-0.7c0.1-0.3,0.1-0.6,0.1-0.9c0-0.1,0-0.2,0.1-0.3c0-0.1,0-0.2,0.1-0.3
			c0-0.3,0.1-0.6,0.1-0.9c0-0.2,0-0.4,0-0.6c0-0.4,0-0.7,0-1.1v-0.5c0-0.4-0.1-0.8-0.1-1.2c0-0.1,0-0.2,0-0.4
			c-0.1-0.5-0.2-1.1-0.3-1.6c-0.4-1.9-0.7-4-0.3-5.9c0.6-3.1,0-6.2-0.2-9.2c-0.1-1.5-0.3-2.8,0.2-4.3
			C274.9,45.1,276.4,40.2,277.7,35.3L277.7,35.3z M203.2,33.1c-0.1-0.5-0.2-1-0.3-1.5c0-0.2-0.1-0.3-0.1-0.5
			c-0.8-5.2-0.2-7.3,0.1-7.9c0.1-0.1,0.1-0.2,0.1-0.2c0.8-1.5,1.9-1.9,3.6-1.6c0.3,0,0.7,0.1,1,0.2c2.4,0.6,4.4,2.1,6.3,3.7
			c0.6,0.5,1.3,1,1.8,1.6c0.4,0.4,0.5,0.9-0.1,1.4c-2.3,1.5-4.1,3.5-5.9,5.6c-0.5,0.5-0.7,0.6-0.9,0.1c0-0.1-0.1-0.1-0.1-0.2
			c-0.2-0.7-0.5-1.4-0.7-2.1c-0.3-1-1-1.4-2.1-1.4c-1.1,0.1-1.5,0.5-1.4,1.5c0.2,1.4,0.6,2.8,0.9,4.2c0.3,1.4,0.6,2.8,0.8,4.2
			c0.1,0.3,0.1,0.7-0.1,1c-0.1,0.3-0.4,0.6-0.6,0.9c-0.2-0.3-0.6-0.6-0.7-0.9C204.4,38.6,203.8,35.9,203.2,33.1z M268.9,78.2
			c-0.7,3.4-2.7,6.1-5.2,8.3c-2,1.8-4.6,3.2-7,4.5c-0.8,0.5-1.7,0.9-2.6,1.3c-2.4,1-4.9,1.8-7.5,2.3c-3.3,0.6-5.4,1.3-10.1,1.4
			c-5.3-0.3-10.3-1.2-15-3.1c-2.9-1.1-5.6-2.6-8.3-4.3c-4.4-2.9-7.3-6.8-8.1-12c-0.5-3.2-0.6-6.6,1.4-9.6c0.3-0.4,0.2-1,0.2-1.5
			c-0.1-2.7-0.5-5.4-0.2-8c0.5-4,1.8-7.8,4-11.2c0.2-0.3,0.4-0.5,0.5-0.8c2-2.8,4.5-5.2,7.3-7.2c1.3-1,2.7-0.2,3.9,0.2
			c1.2,0.4,2.3,0.9,3.3,1.7c1,0.8,2.1,1.8,2.7,2.9c1.4,2.6,2.6,5.3,3.9,7.9c0.2,0.5,0.3,1,0.6,1.4c0.6,0.9,1.1,2,2.7,1.8
			c1.9-0.2,3.9,0.1,5.8-0.1c1.1-0.1,1.6-1.2,1.9-2.3c0.3-1.1,0.5-2.4,1-3.4c1.7-3.9,4.2-7.1,7.9-9.3c0.9-0.5,1.8-0.9,2.8-1.2
			c1.4-0.3,2.6,0.4,3.6,1.3c2.2,1.9,4.3,3.9,5.9,6.3c0.2,0.2,0.3,0.5,0.5,0.7c1.6,2.6,2.9,5.4,3.2,8.5c0.2,2.2,0.5,4.5,0.7,6.7
			c0.1,1.3-0.2,2.7-0.3,4c0,0.6-0.1,1.3,0,1.9c0.3,1.4,0.6,2.7,1.1,4.1C270,73.9,269.3,76.1,268.9,78.2z M272.7,38.5
			c-0.5,2-1.1,4-1.6,6c0,0.1-0.3,0.2-0.4,0.3c-0.3-0.8-0.9-1.7-0.8-2.5c0.6-2.9,1.4-5.7,2.1-8.5c0.1-0.4,0.2-0.8,0.2-1.2
			c0-0.1,0.2-1.1-0.4-1.5c-1-0.8-1.9,0-2.4,0.5c-0.7,0.7-1,1.8-1.4,2.7c-0.2,0.4-0.2,0.8-0.4,1.2c-0.3,0.8-0.6,0.6-1.2,0.1
			c0,0-0.1-0.1-0.1-0.1c-1.8-1.9-3.5-3.9-5.4-5.7c-0.4-0.4-0.5-0.5-0.1-0.9c2.4-2.5,4.9-4.8,8-6.4c0.5-0.3,1-0.5,1.6-0.7
			c1.5-0.6,3.2-0.2,4.1,1.4c0,0,0,0.1,0.1,0.1c0,0.1,0.1,0.1,0.1,0.2c0,0.1,0,0.1,0.1,0.2c0.4,1.1,0.4,3,0.1,5
			C274.3,33.1,272.7,38.5,272.7,38.5L272.7,38.5z"/>
		<path style="&st2;" d="M248.1,78.8c-0.2-0.1-0.5,0.4-0.8,0.5c-0.5,0.3-0.9,0.7-1.4,0.8c-3.1,1.2-5.6-0.2-7.6-2.3
			c-1-1.1-1.2-0.7-1.9,0c-2,2.1-4.5,3-7.4,2.7c-1-0.1-1.9-0.3-2.5-1.3c-0.2-0.2-0.5-0.5-0.7-0.4c-0.3,0.1-0.6,0.4-0.7,0.7
			c-0.1,0.6,0,1,0.7,1.4c1.3,0.7,2.7,1.2,4.2,1c0.7-0.1,1,0.1,1.1,0.9c0.2,1.2,0.6,2.3,1,3.4c0.8,2.3,2.8,3.8,4.6,3.8
			c2.1,0.1,3.6-0.5,4.5-1.9c1-1.5,1.7-3.2,1.9-5.1c0.1-0.8,0.4-1,1.2-1.1c1.4-0.3,2.7-0.8,4.1-1.3c0.3-0.1,0.7-0.7,0.7-0.9
			C249,79.3,248.5,79,248.1,78.8L248.1,78.8z M240,87.8c0,0.1-0.1,0.1-0.1,0.2c0,0.1-0.1,0.1-0.1,0.1c-0.1,0.1-0.1,0.1-0.2,0.2
			c-0.1,0.1-0.1,0.1-0.2,0.1c-0.5,0.3-1.2,0.5-2,0.5c-1.8,0-3.6-1.3-3.6-2.6c0-0.1,0-0.2,0.1-0.4c0.1-0.3,0.4-0.5,0.7-0.8
			c0.1-0.1,0.3-0.3,0.5-0.4c0.7-0.6,1.6-1,2.1-1c1.2,0,3.2,1.8,3.2,2.9C240.4,87,240.3,87.5,240,87.8L240,87.8z"/>
		<path style="&st2;" d="M228.3,66.7c-0.1,0.9-0.6,1-1.2,0.6c-1.2-0.8-2.2-1.6-2.7-3.2c-0.4-1.2-1.2-2.3-2.1-3.3
			c-0.7-0.9-1.5-0.8-2.1,0.1c-0.8,1.4-1.5,2.8-2.1,4.3c-0.4,0.9,0,1.1,1.1,0.9c0.5-0.1,1-0.2,1.5-0.1c0.4,0,1.1,0.1,1.1,0.5
			c0,0.4-0.7,0.3-1.1,0.4c-1.1,0.2-2.1,0.4-3.2,0.7c-0.7,0.2-1.4,0.6-2,0.9c-0.5,0.3-0.8,0.2-0.8-0.4c0-4.1,0.6-8.1,3.6-11.3
			c0.9-0.9,1.9-1.1,3.1-1.2c1.7-0.1,3.9,1.5,4.9,4.1c0.7,1.8,1.2,3.8,1.8,5.7C228.3,65.9,228.3,66.3,228.3,66.7z"/>
		<path style="&st2;" d="M259.1,68c-0.2,0.3-0.9,0.7-1.1,0.6c-1.6-1-3.3-1.4-5.2-1.5c-0.3,0-0.6-0.2-1-0.3c-0.1-0.1-0.3-0.1-0.4-0.2
			c0.2-0.1,0.3-0.2,0.5-0.2c1-0.1,2-0.3,2.9-0.1c1,0.2,1.3-0.1,1-0.9c-0.6-1.5-1.2-3-2-4.4c-0.5-0.8-1.4-1-2-0.2
			c-0.9,1.1-1.7,2.3-2.2,3.6c-0.6,1.5-1.8,2.3-3.2,3c-0.1,0.1-0.6-0.3-0.6-0.4c0.4-3.3,1.2-6.5,3.3-9.1c2.6-3.3,5.9-2.5,7.8,0.9
			c1.4,2.5,2,5.2,2.2,7.9C259.1,67.2,259.3,67.7,259.1,68z"/>
		<path style="&st2;" d="M241.3,71.4c0,0.5-0.8,1-1.4,1.2c-0.7,0.3-1.5,0.2-2.4,0.3c-0.7-0.1-1.5,0-2.3-0.2c-0.5-0.1-1.1-0.6-1.2-1
			c-0.1-0.4,0.2-1.1,0.6-1.5c1.1-1,4.4-1.3,5.6-0.4C240.8,70.1,241.3,70.9,241.3,71.4z"/>
		<path style="&st2;" d="M225.8,52.3c0,0.2-0.3,0.6-0.5,0.6c-0.4,0-0.7-0.2-1.1-0.4c-1.8-0.8-3.5-1-5.1,0.3c-0.2,0.2-0.7,0.1-1,0.2
			c0.1-0.3,0.1-0.7,0.2-1c1-1.4,2.1-2.6,4-2.5C223.2,49.5,225.6,51.3,225.8,52.3z"/>
		<path style="&st2;" d="M257.5,53.3c-0.5-0.1-0.8-0.2-1-0.3c-1.4-1-2.9-1.5-4.6-1.1c-0.7,0.2-1.4,0.6-2,0.9
			c-0.2,0.1-0.4,0.1-0.6,0.1c0-0.2-0.1-0.5,0-0.7c1-2.7,4.5-3.4,6.5-1.4c0.5,0.5,0.9,1.2,1.4,1.7C257.2,52.7,257.2,52.8,257.5,53.3z
			"/>
	</g>
</g>
</svg>
