<?xml version="1.0" encoding="UTF-8"?>
<svg id="Capa_1" data-name="Capa 1" xmlns="http://www.w3.org/2000/svg" viewBox="0 0 174.71 100.44">
  <defs>
    <style>
      .cls-1 {
        stroke-width: 0px;
      }
    </style>
  </defs>
  <path class="cls-1" d="M50.91,2.59c-1.44-1.7-2.47-2.5-3.26-2.5-.44,0-1.73.27-7.7,2.49-6.81,2.55-6.81,2.83-6.81,3.2v30.72c0,2.38.64,4.46,1.88,6.16,1.3,1.78,2.46,2.64,3.54,2.64.99,0,3.57-.8,7.86-2.47,6.56-2.55,6.56-2.89,6.56-3.26V7.11c0-1.36-.7-2.87-2.07-4.51ZM45.27,38.5c-.65.49-1.29.74-1.89.74s-2.56,0-2.56-3.91V6.88c.61-.46,1.24-.68,1.88-.68s2.58,0,2.58,3.91v28.39h0Z"/>
  <path class="cls-1" d="M75.62,32.51v6.53c0,.67-.81,1.67-6.84,4.12-5.98,2.43-7.28,2.71-7.73,2.71-.64,0-.99-.68-1.11-.92-.25-.49-.59-1.21-1.05-2.24-.43-.99-.86-1.82-1.27-2.5-.44-.81-.96-1.21-1.58-1.21h-.37v-1.76l.22-.1c.61-.27,1.44-.67,2.46-1.2,3.7-2.06,3.92-2.06,4.09-2.06.8,0,1.54,1.1,2.52,3.64,1.2,3.14,1.75,3.17,1.76,3.17.3,0,.58-.12.86-.37.27-.24.38-.56.38-.99v-7.21c0-2.24-.8-2.24-1.07-2.24-.13,0-.71.15-3.49,1.36-3.24,1.41-3.57,1.41-3.73,1.41-1.11,0-2.06-.8-2.81-2.4-.71-1.51-1.08-3.38-1.08-5.54v-6.23c0-.65.75-1.66,6.29-4.12,5.49-2.44,6.71-2.72,7.14-2.72.47,0,.89.27,1.23.77.27.41.49.74.64,1.01.16.25.4.68.74,1.27.33.59.59,1.08.83,1.47.44.81.95,1.2,1.58,1.2h.37v1.78l-.22.09c-.59.27-1.41.67-2.4,1.2-3.77,2.07-4,2.07-4.16,2.07-.78,0-1.47-.95-2.22-3.08-.9-2.5-1.42-2.58-1.47-2.58-.19,0-.68,0-.68,1.36v7.09c0,.73.09,1.94.68,1.94.06-.01.59-.19,3.42-1.47,3.06-1.38,3.86-1.52,4.19-1.52,1.08,0,2.01.81,2.8,2.43.73,1.52,1.1,3.49,1.1,5.85Z"/>
  <path class="cls-1" d="M99.82,39.76c-.89-.21-1.54-.56-1.94-1.05s-.61-1.41-.61-2.74v-16.34c0-1.84-.61-3.64-1.81-5.34-1.21-1.76-2.55-2.65-3.94-2.65-.49,0-2.09.34-10.17,3.2l-.25.09v2.37h.37c3.21,0,5.4.41,6.48,1.23,1.01.75,1.54,2.1,1.58,4.03l-2.8.89c-2.01.62-4.06,1.42-6.05,2.38-2.22,1.08-3.21,1.91-3.21,2.71v9.46c0,1.7.61,3.24,1.82,4.57.43.52.95,1.02,1.52,1.47.56.44.96.75,1.21.89.24.13.4.24.5.31l.19.12,6.94-3.72c.15.58.52,1.2,1.11,1.84.77.83,1.61,1.44,2.5,1.81l.16.06,6.65-3.72v-1.78l-.28-.07ZM87.7,38.95c-.64,0-1.23-.27-1.76-.83-.53-.58-.78-1.29-.78-2.21v-3.76c0-2.15.46-3.67,1.38-4.52.52-.47,1.01-.83,1.44-1.04.38-.18.93-.4,1.64-.67v12.32c-.68.46-1.32.7-1.91.7Z"/>
  <path class="cls-1" d="M145.53,39.76c-.87-.21-1.52-.56-1.92-1.05-.41-.49-.61-1.41-.61-2.74v-16.34c0-1.84-.61-3.64-1.81-5.34-1.23-1.76-2.55-2.65-3.94-2.65-.5,0-2.09.34-10.17,3.2l-.25.09v2.37h.37c3.21,0,5.39.41,6.48,1.23,1.01.75,1.52,2.1,1.57,4.03l-2.78.89c-2.01.62-4.06,1.42-6.07,2.38-2.22,1.08-3.21,1.91-3.21,2.71v9.46c0,.47.04.93.15,1.38-.73-.07-1.38-.27-2-.56-2.16-.89-4.43-4.44-6.77-10.53,5.89-2.29,5.91-2.78,5.91-3.15v-6.29c0-1.82-.7-3.49-2.07-4.96-1.39-1.5-2.65-2.24-3.85-2.24-.49,0-1.61.37-5.98,3.17v-4.63c0-1.76.56-3.36,1.66-4.74.44-.56,1.01-1.11,1.67-1.64.67-.55,1.18-.9,1.54-1.1l.34-.16-1.27-2.53-.34.21c-3.89,2.29-8.39,4.77-13.37,7.37l-.21.1v2.22h.37c.73,0,1.23.16,1.5.52.3.37.44,1.05.44,2v28.57c0,.78.4,1.63,1.2,2.47.75.83,1.6,1.44,2.5,1.81l.16.06,6.17-3.48v-1.79l-.3-.06c-1.39-.28-2.07-1.47-2.07-3.63v-4.19c.77,2.1,1.87,4.53,3.26,7.27,2.01,3.98,3.63,5.83,5.03,5.83.64,0,2.06-.36,6.96-3.52l.16-.1v-.53c.27.5.61.98,1.02,1.44.44.52.96,1.02,1.52,1.47s.98.75,1.23.89c.22.13.4.24.5.31l.19.12,6.94-3.72c.15.59.52,1.2,1.11,1.84.77.83,1.61,1.44,2.5,1.81l.16.06,6.65-3.72v-1.78l-.3-.07ZM113.04,24.88l-.83.41c-1.94.93-3.02,1.27-3.63,1.38v-8.45l1.48-.24c2,0,2.98,1.48,2.98,4.53v2.37ZM133.41,38.95c-.64,0-1.21-.27-1.75-.83-.53-.58-.8-1.29-.8-2.21v-3.76c0-2.15.47-3.67,1.39-4.52.5-.47.99-.81,1.44-1.04.38-.18.93-.4,1.64-.67v12.32c-.68.46-1.32.7-1.92.7Z"/>
  <path class="cls-1" d="M23.23,52.14c-1.54-1.85-2.64-2.71-3.45-2.71-.49,0-1.82.46-7.61,3.97-.16-.64-.58-1.3-1.27-2.03-.87-.92-1.76-1.55-2.64-1.91l-.16-.06-6.68,3.76v1.89l.3.06c1.52.31,2.26,1.6,2.26,3.97v32.48c0,2.04-.36,3.58-1.05,4.54-.75.98-1.54,1.48-2.34,1.48h-.59l1.42,2.86,13.4-5.63v-2.56h-.37c-.89,0-1.47-.27-1.73-.8-.31-.61-.46-1.67-.46-3.15v-6.05c2.13-.68,4.83-1.66,8.01-2.95,5.21-2.1,5.21-2.44,5.21-2.78v-19.51c0-1.45-.75-3.09-2.25-4.87ZM12.26,78.64v-21.69c.74-.5,1.45-.75,2.07-.75,1.89,0,2.83,1.39,2.83,4.26v15.37c0,.74-.98,1.41-1.81,1.84-1.13.58-2.16.9-3.09.98Z"/>
  <path class="cls-1" d="M49.06,69.68v3.29l-6.87,3.86-1.39-1.14v-.18c0-4.43-.53-5.49-.86-5.73-.62-.44-1.55-.7-2.8-.73v19.61c0,2.37.74,3.67,2.28,3.97l.3.06v1.89l-6.68,3.77-.16-.07c-.98-.38-1.88-1.04-2.71-1.94-.86-.92-1.29-1.82-1.29-2.66v-20.81c0-1.75-.31-3.08-.9-3.92-.58-.81-1.18-1.23-1.81-1.23h-.37v-1.97l7.22-3.94.15.04c.31.09.65.21,1.07.36.44.16,1.02.59,1.76,1.3.59.58.95,1.21,1.08,1.91.4-.27,1.14-.75,2.46-1.67,2.46-1.69,3.23-1.91,3.63-1.91,1.47,0,2.84.93,4.07,2.8,1.21,1.81,1.82,3.51,1.82,5.03Z"/>
  <path class="cls-1" d="M70.45,64.54c-1.55-1.84-2.66-2.69-3.51-2.69-.49,0-1.88.28-8.35,2.68-7.39,2.77-7.39,3.08-7.39,3.46v20.81c0,2.58.68,4.83,2.04,6.68,1.41,1.91,2.65,2.84,3.8,2.84s3.88-.87,8.54-2.68c7.11-2.77,7.11-3.15,7.11-3.52v-22.69c0-1.47-.75-3.11-2.25-4.89ZM59.47,69.18c.68-.5,1.38-.75,2.07-.75,1.91,0,2.83,1.39,2.83,4.26v18.33c-.71.53-1.41.81-2.07.81-1.89,0-2.83-1.41-2.83-4.28v-18.37Z"/>
  <path class="cls-1" d="M87.25,92.64l.31.06v1.89l-6.68,3.77-.18-.07c-.96-.38-1.87-1.04-2.69-1.94-.86-.92-1.29-1.82-1.29-2.66v-27.03h-2.68l.81-3.38h.28c1.15,0,2.61-.81,4.29-2.43,1.72-1.63,2.74-3.39,3.06-5.23l.04-.31h2.44v7.46h3.29l-.78,3.82h-2.5v22.07c0,2.37.74,3.67,2.26,3.97Z"/>
  <path class="cls-1" d="M108.26,64.54c-1.55-1.84-2.66-2.69-3.51-2.69-.49,0-1.88.28-8.35,2.68-7.39,2.77-7.39,3.08-7.39,3.46v20.81c0,2.58.68,4.83,2.04,6.68,1.41,1.91,2.65,2.84,3.82,2.84,1.08,0,3.86-.87,8.53-2.68,7.11-2.77,7.11-3.15,7.11-3.52v-22.69c0-1.47-.75-3.11-2.25-4.89ZM97.27,69.18c.68-.5,1.38-.75,2.07-.75,1.91,0,2.83,1.39,2.83,4.26v18.33c-.71.53-1.41.81-2.07.81-1.89,0-2.83-1.41-2.83-4.28v-18.37Z"/>
  <path class="cls-1" d="M136.84,73.07v1.87l-.22.1c-.9.41-2.47,1.15-4.66,2.22-3.36,1.63-3.55,1.63-3.7,1.63-.64,0-1.41-.65-2.74-5.37-1.24-4.38-1.85-4.81-1.97-4.84-.27,0-.52.13-.75.38v17.17c0,3.06,1.27,4.89,3.86,5.6,1.38.33,3.06.49,4.99.49h.37v2.46l-.25.09c-10.35,3.46-10.87,3.46-11.09,3.46-1.38,0-2.77-.95-4.13-2.81-1.33-1.84-2.01-4.01-2.01-6.45v-21.07c0-.38,0-.7,7.42-3.46,6.5-2.4,7.89-2.68,8.38-2.68s.81.56,1.23,2.09c.34,1.21.73,2.68,1.17,4.4.43,1.67.87,2.92,1.33,3.7.41.7,1.2,1.04,2.41,1.04h.37Z"/>
  <path class="cls-1" d="M157.6,64.54c-1.55-1.84-2.66-2.69-3.51-2.69-.49,0-1.88.28-8.35,2.68-7.39,2.77-7.39,3.08-7.39,3.46v20.81c0,2.58.7,4.83,2.06,6.68,1.39,1.91,2.65,2.84,3.8,2.84,1.08,0,3.88-.87,8.54-2.68,7.09-2.77,7.09-3.15,7.09-3.52v-22.69c0-1.47-.75-3.11-2.25-4.89ZM146.63,69.18c.67-.5,1.38-.75,2.07-.75,1.89,0,2.83,1.39,2.83,4.26v18.33c-.73.53-1.42.81-2.07.81-1.91,0-2.83-1.41-2.83-4.28v-18.37Z"/>
  <path class="cls-1" d="M174.71,92.7v1.89l-6.68,3.77-.16-.07c-.96-.38-1.88-1.04-2.71-1.94-.84-.92-1.29-1.82-1.29-2.66v-34.67c0-2.37-.74-3.67-2.26-3.97l-.3-.06v-1.89l6.68-3.77.16.07c.96.38,1.87,1.05,2.69,1.94.86.92,1.29,1.82,1.29,2.66v34.67c0,2.37.75,3.67,2.28,3.97l.3.06Z"/>
</svg>