<?xml version="1.0" encoding="UTF-8"?>
<svg id="Capa_1" data-name="Capa 1" xmlns="http://www.w3.org/2000/svg" viewBox="0 0 113.63 113.63">
  <defs>
    <style>
      .cls-1, .cls-2, .cls-3, .cls-4 {
        stroke-width: 0px;
      }

      .cls-2 {
        fill: #fc0000;
      }

      .cls-3 {
        fill: #be251e;
      }

      .cls-4 {
        fill: #fff;
      }
    </style>
  </defs>
  <g>
    <path class="cls-1" d="M56.81,3.72c29.32,0,53.09,23.77,53.09,53.09s-23.77,53.09-53.09,53.09S3.73,86.13,3.73,56.81,27.49,3.72,56.81,3.72M56.81,0C25.49,0,0,25.49,0,56.81s25.49,56.81,56.81,56.81,56.81-25.49,56.81-56.81S88.14,0,56.81,0h0Z"/>
    <circle class="cls-2" cx="56.81" cy="56.82" r="53.08"/>
  </g>
  <g>
    <g>
      <path class="cls-4" d="M25.07,21.73c.14,0,.28.01.43.02s.3.01.45.03c.18.01.35.04.53.07.14.02.29.04.43.07.17.04.34.08.52.13.13.04.27.07.41.11.17.05.34.12.51.18.13.04.26.09.38.14.18.07.35.15.52.23.12.05.24.1.35.16.19.09.36.18.54.28.1.06.21.11.31.17.2.11.4.23.6.35.07.05.15.1.23.14l.81.54c.48.33.94.67,1.4,1.03,1.37,1.07,2.67,2.23,4.06,3.28.09.07.21.12.34.16.04,0,.08,0,.13.02.09.02.18.04.28.04.02,0,.05,0,.07,0,.05,0,.09,0,.13,0,.03,0,.07,0,.1,0,.1-.02.2-.05.27-.09,3.43-2,7.11-3.25,11.01-3.86,1.23-.19,2.47-.31,3.71-.47,1.23,0,2.47-.02,3.71-.03,3.68.19,7.29.8,10.68,2.23,2.25.94,4.38,2.16,6.54,3.3.1.05.19.1.28.14h0s.08.04.12.06c.05.02.1.05.15.06.03.02.07.03.11.04.04.02.09.03.13.04s.07,0,.11.02c.04,0,.09,0,.13,0,.05,0,.09,0,.14-.02.03,0,.07,0,.1,0,.05-.02.11-.04.16-.07.03,0,.06-.02.09-.04.06-.03.12-.08.18-.13.03-.02.06-.04.09-.07.08-.06.16-.14.24-.23l.06-.06c2.55-2.81,5.21-5.49,8.88-6.99.58-.24,1.17-.44,1.75-.58.37-.1.74-.17,1.11-.22.04-.01.08-.01.13-.02.35-.05.7-.07,1.05-.07h.22c.14,0,.27.01.41.01.1.01.19.02.29.02.14.02.28.04.43.06.09.01.18.03.27.04.16.03.31.07.47.11.08.02.16.03.24.05.23.07.47.14.7.23.78.29,1.43.67,1.95,1.13,1.59,1.38,2.12,3.42,2.22,5.66.14,3.41-.58,6.77-1.45,10.03-1.3,4.83-2.84,9.6-4.42,14.35-.49,1.48-.25,2.8-.15,4.27.21,2.98.83,5.95.24,9.02-.36,1.84-.09,3.91.33,5.77.12.54.22,1.08.29,1.61.02.12.02.24.03.36.05.4.1.81.12,1.22v.5c.01.35.02.7.01,1.05-.01.2-.03.39-.04.59-.02.31-.04.63-.07.93-.02.11-.03.22-.05.33s-.03.22-.05.33c-.04.29-.09.57-.14.85-.05.24-.1.47-.16.7-.06.27-.12.54-.2.8-.06.24-.14.47-.21.71-.08.26-.17.53-.26.79-.08.22-.17.45-.26.67-.03.08-.06.15-.09.23s-.06.16-.1.24c0,0-.33,1.52-2.28,4.08-.03.03-.05.06-.07.1-.21.27-.44.55-.69.84h0c-.05.11-.11.19-.16.24-.2.2-.38.4-.59.61-.09.1-.18.2-.28.31-.48.53-.96,1.05-1.51,1.49-.73.59-1.48,1.16-2.24,1.71,0,0-.01.01-.02.01-.28.2-3.35,2.28-9.04,4.23-3.18,1.08-7.17,2.12-11.96,2.76-.3.06-.62.11-.98.14-.24.01-1.1.21-1.34.22-.12,0-.24,0-.37.01-1.42.17-2.85.25-4.26.25-.57,0-1.14-.01-1.7-.04-1.41-.06-2.79-.18-4.12-.35-4.01-.51-7.54-1.44-9.97-2.19-.17-.05-.35-.11-.51-.16-.22-.07-.42-.14-.62-.2-.36-.13-.68-.24-.96-.33-.14-.05-.28-.1-.4-.14-.49-.19-.8-.31-.88-.35h0c-2.4-.98-4.69-2.26-6.82-3.94-2.3-1.82-4.12-3.9-5.57-6.22-.49-.79-.94-1.61-1.35-2.46-.02-.05-.05-.1-.08-.15-3.64-6.54-1.49-13.11-1.34-13.56,0-.02,0-.03,0-.03.07-.34.16-.67.25-1s.2-.66.31-.99c.03-.09.04-.19.07-.29.06-.28.1-.58.1-.88,0-.86-.08-1.73-.12-2.59-.02-1.25-.03-2.5-.04-3.75-.02-.33-.02-.66-.02-.99,0-.87.05-1.73.17-2.59.17-1.18.45-2.34.83-3.48.07-.2.11-.39.14-.58.09-.58,0-1.13-.12-1.67-.09-.36-.21-.72-.32-1.08s-.22-.71-.29-1.07c-.9-4.61-1.92-9.19-3.02-13.75-.51-2.08-.7-4.17-.7-6.28,0-.4.01-.79.02-1.18.14-4.44,2.63-7.09,7.12-7.43.16-.01.31-.02.46-.02h.23"/>
      <path class="cls-4" d="M91.79,53.82c-.34,1.03-.26,2-.16,3.13.02.25.04.51.06.76.05.74.13,1.49.21,2.22.24,2.27.49,4.61.02,7.06-.28,1.41-.18,3.17.32,5.36.13.59.24,1.17.3,1.66.02.12.02.23.03.35v.05c.06.45.11.86.13,1.34v.47c.01.37.02.74.01,1.13,0,.11-.01.21-.02.32-.01.09-.02.18-.02.27v.06c-.02.3-.04.62-.07.92v.08s-.02.08-.03.12c-.01.07-.02.14-.03.21-.01.04-.01.08-.02.12-.01.07-.02.14-.03.17-.04.3-.09.59-.15.92-.05.25-.1.5-.16.71-.06.27-.12.56-.21.85-.04.16-.09.32-.14.48l-.08.26c-.09.27-.18.55-.28.84-.08.23-.18.47-.26.68l-.05.13-.04.09c-.03.08-.06.15-.09.23-.06.23-.22.73-.59,1.47-.37.74-.94,1.71-1.84,2.88v.03s-.07.08-.07.08c-.2.25-.41.51-.64.78-.09.14-.19.28-.3.39-.09.09-.18.19-.27.28-.1.11-.21.22-.3.31l-.26.29c-.51.57-1.03,1.13-1.62,1.6-.69.56-1.44,1.13-2.22,1.7l-.25.24h-.11c-.88.59-3.9,2.42-9.02,4.18-3.8,1.29-7.87,2.23-12.12,2.8-.36.07-.71.12-1.09.15-.12.01-.33.05-.54.09-.39.08-.63.12-.86.13h-.25c-1.4.17-2.87.25-4.38.25-.57,0-1.15-.02-1.74-.04-1.4-.06-2.81-.18-4.2-.36-3.31-.42-6.72-1.17-10.13-2.22-.12-.03-.24-.07-.36-.11l-.17-.05-.26-.09c-.12-.04-.23-.08-.34-.11h-.03s-.03-.02-.03-.02c-.35-.13-.66-.23-.96-.33-.13-.04-.27-.09-.38-.13l-.06-.02h-.02c-.62-.24-.82-.32-.93-.38l-.06-.03c-2.53-1.04-4.87-2.39-6.93-4.02-2.33-1.85-4.23-3.97-5.8-6.48-.5-.82-.98-1.68-1.41-2.58l-.04-.07c-3.73-6.71-1.71-13.47-1.42-14.34.07-.35.16-.68.25-1,.09-.35.21-.7.32-1.03v-.05c.02-.06.03-.12.05-.18.05-.23.07-.45.07-.63,0-.55-.04-1.13-.07-1.69-.02-.29-.04-.58-.05-.9-.02-1.24-.03-2.49-.04-3.73-.02-.34-.02-.68-.02-1.02,0-.97.06-1.86.18-2.73.18-1.22.47-2.45.88-3.67.05-.11.07-.24.1-.4.06-.36.03-.74-.1-1.27-.06-.25-.14-.5-.22-.75l-.09-.28-.02-.07c-.1-.35-.21-.71-.29-1.1-.85-4.33-1.83-8.81-3.01-13.7-.49-2-.73-4.13-.73-6.52,0-.41,0-.8.02-1.21.16-4.96,3.09-8.02,8.09-8.4.17-.01.33-.02.49-.02h.23c.15,0,.31.01.49.02h.13c.12.01.23.02.35.03.19,0,.37.04.56.07h.06c.15.03.3.05.47.09.18.05.36.09.58.15.06.02.12.03.18.05.07.02.14.04.22.06.14.04.27.09.41.14l.12.04c.16.05.32.11.45.16.2.08.39.17.54.24.15.06.29.12.42.19.2.1.38.2.6.32.03.02.06.04.1.06.07.03.14.07.17.09.21.12.42.24.63.37l.03.02.03.02s.07.04.1.06l.06.03.05.03.32.22.5.33c.48.34.96.68,1.45,1.07.62.48,1.23.99,1.82,1.48.71.59,1.45,1.2,2.2,1.77.03,0,.07,0,.11.02.02.01.05.02.06.02h.09s.04-.01.05-.01c3.42-1.98,7.22-3.31,11.3-3.95.81-.12,1.62-.22,2.41-.31.44-.05.89-.1,1.33-.16h.06s.06-.01.06-.01l3.71-.03h.06c4.25.22,7.85.98,11.01,2.31,1.81.76,3.54,1.69,5.22,2.59.47.25.94.5,1.39.74l.1.06s.09.04.13.06l.16.07.1.02.02.06h.03l.04-.02.06-.04h0s.01-.02.01-.02l.05-.04s.06-.06.09-.1l.02-.02.02-.02.03-.03c2.53-2.79,5.33-5.64,9.24-7.24.65-.27,1.29-.48,1.87-.62.38-.1.77-.18,1.2-.24.03,0,.07-.01.1-.01h.03s.03-.01.03-.01c.38-.05.77-.08,1.19-.08h.22c.08,0,.16.01.24.01h.3s.1.02.16.02h.15s.39.07.39.07c.06.01.13.02.19.03h.08s.04,0,.04,0h.04c.15.04.3.07.45.11l.08.02h.06c.06.02.12.03.23.06l.08.02c.23.07.47.15.68.23.89.33,1.65.77,2.26,1.31,1.61,1.4,2.43,3.42,2.56,6.37.15,3.63-.62,7.11-1.48,10.33-1.33,4.91-2.92,9.82-4.44,14.4Z"/>
    </g>
    <path class="cls-4" d="M36.43,98.21c.28.09.6.2.96.33-.32-.1-.65-.21-.96-.33"/>
  </g>
  <g>
    <path class="cls-3" d="M55.41,86.68c-1.04-.02-3.34,1.76-3.34,2.58,0,1.33,1.73,2.6,3.54,2.6,1.9,0,2.98-.88,2.93-2.38-.03-1.05-1.98-2.79-3.13-2.8Z"/>
    <g>
      <path class="cls-1" d="M86.31,90.34c.2-.21.39-.42.59-.62.05-.05.11-.13.16-.23-.23.27-.48.56-.75.85Z"/>
      <path class="cls-1" d="M36.43,98.2c.31.12.64.23.96.33-.36-.13-.68-.24-.96-.33Z"/>
      <path class="cls-1" d="M95.28,39.15c.87-3.26,1.59-6.62,1.45-10.03-.1-2.24-.63-4.28-2.22-5.66-.52-.46-1.17-.84-1.95-1.13-.23-.09-.47-.16-.7-.23-.08-.02-.16-.03-.24-.05-.16-.04-.31-.08-.47-.11-.09-.01-.18-.03-.27-.04-.15-.02-.29-.04-.43-.06-.1,0-.19-.01-.29-.02-.14,0-.27-.01-.41-.01h-.22c-.35,0-.7.02-1.05.07-.05.01-.09.01-.13.02-.37.05-.74.12-1.11.22-.58.14-1.17.34-1.75.58-3.67,1.5-6.33,4.18-8.88,6.99l-.06.06c-.08.09-.16.17-.24.23-.03.03-.06.05-.09.07-.06.05-.12.1-.18.13-.03.02-.06.03-.09.04-.05.03-.11.05-.16.07-.03,0-.07,0-.1,0-.05,0-.09.02-.14.02-.04,0-.09,0-.13,0-.04,0-.07,0-.11-.02-.04,0-.09-.02-.13-.04-.04,0-.08-.02-.11-.04-.05,0-.1-.04-.15-.06-.04-.02-.08-.03-.12-.05h0c-.09-.05-.18-.1-.28-.15-2.16-1.14-4.29-2.36-6.54-3.3-3.39-1.43-7-2.04-10.68-2.23-1.24,0-2.48.02-3.71.03-1.24.16-2.48.28-3.71.47-3.9.61-7.58,1.86-11.01,3.86-.07.04-.17.07-.27.09-.03,0-.07,0-.1,0-.04,0-.08,0-.13,0-.02,0-.05,0-.07,0-.1,0-.19-.02-.28-.04-.05,0-.09,0-.13-.02-.13-.04-.25-.09-.34-.16-1.39-1.05-2.69-2.21-4.06-3.28-.46-.36-.92-.7-1.4-1.03l-.81-.54c-.08-.04-.16-.09-.23-.14-.2-.12-.4-.24-.6-.35-.1-.06-.21-.11-.31-.17-.18-.1-.35-.19-.54-.28-.11-.06-.23-.11-.35-.16-.17-.08-.34-.16-.52-.23-.12-.05-.25-.1-.38-.14-.17-.06-.34-.13-.51-.18-.14-.04-.28-.07-.41-.11-.18-.05-.35-.09-.52-.13-.14-.03-.29-.05-.43-.07-.18-.03-.35-.06-.53-.07-.15-.02-.3-.02-.45-.03s-.29-.02-.43-.02h-.23c-.15,0-.3.01-.46.02-4.49.34-6.98,2.99-7.12,7.43-.01.39-.02.78-.02,1.18,0,2.11.19,4.2.7,6.28,1.1,4.56,2.12,9.14,3.02,13.75.07.36.18.71.29,1.07s.23.72.32,1.08c.13.54.21,1.09.12,1.67-.03.19-.07.38-.14.58-.38,1.14-.66,2.3-.83,3.48-.12.86-.17,1.72-.17,2.59,0,.33,0,.66.02.99,0,1.25.02,2.5.04,3.75.04.86.11,1.73.12,2.59,0,.3-.04.6-.1.88-.03.1-.04.2-.07.29-.11.33-.22.66-.31.99s-.18.66-.25,1c0,0,0,.01,0,.03-.15.45-2.3,7.02,1.34,13.56.03.05.06.1.08.15.41.85.86,1.67,1.35,2.46,1.45,2.32,3.27,4.4,5.57,6.22,2.13,1.68,4.42,2.96,6.82,3.93h0c.08.05.39.17.88.36.12.04.26.09.4.14.28.09.6.2.96.33.2.06.4.13.62.2.16.05.34.11.51.16,2.43.75,5.96,1.68,9.97,2.19,1.33.17,2.71.29,4.12.35,1.95.08,3.96.03,5.96-.21.13-.01.25-.01.37-.01.24-.01,1.1-.21,1.34-.22.36-.03.68-.08.98-.14,4.79-.64,8.78-1.68,11.96-2.76,5.69-1.95,8.76-4.03,9.04-4.23.01,0,.02-.01.02-.01.76-.55,1.51-1.12,2.24-1.71.55-.44,1.03-.96,1.51-1.49.1-.11.19-.21.28-.31.27-.29.52-.58.75-.85.25-.29.48-.57.69-.84.02-.04.04-.07.07-.1,1.95-2.56,2.28-4.08,2.28-4.08.04-.08.07-.16.1-.24.03-.08.06-.15.09-.23.09-.22.18-.45.26-.67.09-.26.18-.53.26-.79.07-.24.15-.47.21-.71.08-.26.14-.53.2-.8.06-.23.11-.46.16-.7.05-.28.1-.56.14-.85.02-.11.03-.22.05-.33s.03-.22.05-.33c.03-.3.05-.62.07-.93.01-.2.03-.39.04-.59.01-.35,0-.7-.01-1.05v-.5c-.02-.41-.07-.82-.12-1.22-.01-.12-.01-.24-.03-.36-.07-.53-.17-1.07-.29-1.61-.42-1.86-.69-3.93-.33-5.77.59-3.07-.03-6.04-.24-9.02-.1-1.47-.34-2.79.15-4.27,1.58-4.75,3.12-9.52,4.42-14.35ZM22.14,37.04c-.1-.48-.18-.97-.26-1.46-.03-.17-.05-.33-.08-.49-.77-5.07-.15-7.16.09-7.73.06-.13.09-.18.09-.18.75-1.43,1.84-1.87,3.53-1.62.31.03.64.1.99.18,2.39.59,4.31,2.09,6.17,3.65.61.51,1.27.97,1.81,1.55.4.42.49.93-.14,1.36-2.24,1.51-4.05,3.48-5.8,5.49-.46.52-.64.62-.84.08-.03-.05-.05-.12-.07-.19-.21-.7-.46-1.39-.68-2.09-.34-1.01-1-1.39-2.09-1.35-1.09.05-1.52.53-1.36,1.51.24,1.4.6,2.77.89,4.16.29,1.38.58,2.76.83,4.15.06.33.06.71-.06,1.02-.13.34-.41.62-.63.93-.22-.3-.57-.58-.64-.92-.62-2.67-1.22-5.35-1.75-8.05ZM86.59,81.3c-.73,3.3-2.66,6.02-5.08,8.18-2.01,1.8-4.47,3.15-6.86,4.45-.83.45-1.67.86-2.53,1.23-2.36,1.02-4.83,1.74-7.36,2.22-3.28.62-5.26,1.25-9.91,1.41-5.19-.25-10.11-1.21-14.75-3-2.82-1.1-5.54-2.51-8.16-4.26-4.28-2.86-7.16-6.71-7.96-11.74-.5-3.14-.62-6.49,1.35-9.42.25-.37.22-.98.2-1.48-.07-2.63-.53-5.3-.2-7.87.49-3.9,1.72-7.63,3.95-11,.17-.26.35-.52.54-.78,1.97-2.78,4.38-5.08,7.15-7.05,1.32-.94,2.64-.15,3.87.24,1.15.37,2.3.93,3.25,1.67,1.02.79,2.03,1.76,2.65,2.87,1.41,2.52,2.59,5.16,3.85,7.76.22.45.28.99.56,1.38.62.91,1.12,1.92,2.61,1.79,1.89-.17,3.81.08,5.69-.11,1.09-.11,1.57-1.2,1.86-2.21.33-1.12.47-2.31.94-3.36,1.7-3.79,4.14-7,7.78-9.14.85-.5,1.8-.93,2.76-1.15,1.37-.32,2.54.42,3.54,1.25,2.18,1.82,4.22,3.79,5.76,6.19.16.23.31.47.45.71,1.53,2.6,2.81,5.32,3.1,8.39.21,2.2.54,4.39.64,6.59.07,1.3-.21,2.61-.3,3.93-.04.62-.1,1.27.02,1.88.29,1.35.63,2.7,1.04,4.03.68,2.2,0,4.3-.45,6.4ZM90.35,42.31c-.49,1.97-1.07,3.93-1.61,5.89-.04.14-.29.22-.44.33-.27-.81-.9-1.7-.75-2.43.55-2.82,1.36-5.58,2.06-8.37.1-.38.22-.79.19-1.17-.01-.07.2-1.05-.35-1.49-.95-.77-1.86-.02-2.37.46-.68.65-.97,1.73-1.4,2.64-.16.36-.19.77-.35,1.14-.31.77-.62.63-1.13.07-.04-.04-.08-.09-.12-.13-1.72-1.91-3.47-3.8-5.32-5.6-.41-.4-.47-.51-.12-.89,2.33-2.46,4.81-4.71,7.82-6.24.49-.26,1-.49,1.53-.7,1.46-.59,3.14-.16,4.06,1.4.02.03.04.07.06.1.04.07.08.14.12.22.02.05.04.11.07.17.39,1.08.35,2.91.1,4.92-.54,4.41-2.05,9.68-2.05,9.68Z"/>
      <path class="cls-4" d="M87.04,74.9c-.41-1.33-.75-2.68-1.04-4.03-.12-.61-.06-1.26-.02-1.88.09-1.32.37-2.63.3-3.93-.1-2.2-.43-4.39-.64-6.59-.29-3.07-1.57-5.79-3.1-8.39-.14-.24-.29-.48-.45-.71-1.54-2.4-3.58-4.37-5.76-6.19-1-.83-2.17-1.57-3.54-1.25-.96.22-1.91.65-2.76,1.15-3.64,2.14-6.08,5.35-7.78,9.14-.47,1.05-.61,2.24-.94,3.36-.29,1.01-.77,2.1-1.86,2.21-1.88.19-3.8-.06-5.69.11-1.49.13-1.99-.88-2.61-1.79-.28-.39-.34-.93-.56-1.38-1.26-2.6-2.44-5.24-3.85-7.76-.62-1.11-1.63-2.08-2.65-2.87-.95-.74-2.1-1.3-3.25-1.67-1.23-.39-2.55-1.18-3.87-.24-2.77,1.97-5.18,4.27-7.15,7.05-.19.26-.37.52-.54.78-2.23,3.37-3.46,7.1-3.95,11-.33,2.57.13,5.24.2,7.87.02.5.05,1.11-.2,1.48-1.97,2.93-1.85,6.28-1.35,9.42.8,5.03,3.68,8.88,7.96,11.74,2.62,1.75,5.34,3.16,8.16,4.26,4.64,1.79,9.55,3.03,14.75,3,4.19-.02,6.26-.34,9.92-1.26,2.53-.48,4.99-1.35,7.35-2.37.86-.37,1.7-.78,2.53-1.23,2.39-1.3,4.85-2.65,6.86-4.45,2.42-2.16,4.35-4.88,5.08-8.18.46-2.1,1.13-4.2.45-6.4ZM67.28,55.74c1.01-2.63,4.39-3.36,6.34-1.36.52.52.93,1.13,1.38,1.71.1.13.15.3.36.72-.46-.14-.75-.16-.94-.3-1.35-1.02-2.86-1.48-4.52-1.06-.7.17-1.33.57-2,.85-.18.07-.39.06-.59.08-.02-.21-.1-.46-.03-.64ZM52.97,73.36c1.11-1,4.28-1.23,5.53-.37.5.35,1.04,1.09,1,1.61-.03.45-.79,1.02-1.34,1.22-.67.25-1.47.17-2.37.25-.65-.06-1.48-.02-2.23-.24-.47-.13-1.07-.6-1.17-1.02-.1-.43.22-1.12.58-1.45ZM36.84,55.57c.98-1.34,2.04-2.58,3.93-2.5.99,0,3.32,1.82,3.49,2.76.03.16-.34.57-.5.56-.37-.03-.73-.24-1.08-.39-1.75-.75-3.44-.99-5.05.34-.24.19-.67.14-1.02.2.08-.33.05-.72.23-.97ZM40.87,64.29c-.7-.86-1.52-.82-2.08.09-.81,1.33-1.49,2.75-2.07,4.2-.36.89,0,1.12,1.07.92.5-.1,1.03-.21,1.52-.14.38.04,1.09.14,1.07.54-.03.38-.68.33-1.05.41-1.04.24-2.11.36-3.13.65-.69.2-1.33.58-1.96.93-.51.27-.75.19-.75-.4,0-4.07.59-7.94,3.56-11.07.86-.9,1.9-1.12,3.04-1.19,1.64-.06,3.79,1.45,4.82,4.01.72,1.81,1.2,3.71,1.76,5.59.11.37.09.79.07,1.19-.05.85-.58,1.01-1.2.63-1.21-.74-2.19-1.61-2.65-3.11-.37-1.18-1.22-2.27-2.02-3.25ZM66.51,83.63c-1.32.48-2.65.96-4.01,1.23-.75.15-1.08.3-1.17,1.12-.21,1.8-.85,3.49-1.85,4.99-.93,1.39-2.34,1.94-4.42,1.87-1.76-.01-3.7-1.45-4.48-3.7-.38-1.11-.77-2.23-.96-3.38-.13-.76-.42-.96-1.1-.88-1.51.18-2.83-.37-4.15-1.02-.68-.33-.82-.77-.69-1.35.06-.27.37-.59.64-.68.18-.05.56.21.71.43.6.9,1.52,1.12,2.48,1.24,2.85.35,5.26-.56,7.25-2.61.63-.64.88-1.06,1.83,0,1.9,2.13,4.36,3.46,7.42,2.3.5-.19.94-.54,1.4-.83.29-.18.66-.6.81-.53.39.19.8.54.94.92.07.2-.35.77-.65.88ZM76.95,71.22c-.2.31-.88.68-1.06.57-1.56-1.01-3.26-1.41-5.08-1.48-.32-.01-.63-.2-.94-.32-.14-.05-.27-.12-.4-.18.16-.07.3-.19.46-.2.96-.07,1.98-.33,2.88-.12.99.23,1.28-.07.99-.84-.55-1.47-1.19-2.91-1.95-4.28-.46-.83-1.39-1.01-2.01-.2-.85,1.1-1.68,2.29-2.18,3.57-.61,1.52-1.76,2.29-3.11,2.9-.11.05-.58-.3-.57-.43.35-3.24,1.18-6.38,3.21-8.95,2.56-3.23,5.83-2.44,7.65.84,1.36,2.44,1.99,5.14,2.15,7.72,0,.62.15,1.12-.04,1.4Z"/>
      <path class="cls-4" d="M92.4,32.63c-.54,4.41-2.05,9.68-2.05,9.68-.49,1.97-1.07,3.93-1.61,5.89-.04.14-.29.22-.44.33-.27-.81-.9-1.7-.75-2.43.55-2.82,1.36-5.58,2.06-8.37.1-.38.22-.79.19-1.17-.01-.07.2-1.05-.35-1.49-.95-.77-1.86-.02-2.37.46-.68.65-.97,1.73-1.4,2.64-.16.36-.19.77-.35,1.14-.31.77-.62.63-1.13.07-.04-.04-.08-.09-.12-.13-1.72-1.91-3.47-3.8-5.32-5.6-.41-.4-.47-.51-.12-.89,2.33-2.46,4.81-4.71,7.82-6.24.49-.26,1-.49,1.53-.7,1.46-.59,3.14-.16,4.06,1.4.02.03.04.07.06.1.04.07.08.14.12.22.02.05.04.11.07.17.39,1.08.35,2.91.1,4.92Z"/>
      <path class="cls-4" d="M34.34,32.3c-2.24,1.51-4.05,3.48-5.8,5.49-.46.52-.64.62-.84.08-.03-.05-.05-.12-.07-.19-.21-.7-.46-1.39-.68-2.09-.34-1.01-1-1.39-2.09-1.35-1.09.05-1.52.53-1.36,1.51.24,1.4.6,2.77.89,4.16.29,1.38.58,2.76.83,4.15.06.33.06.71-.06,1.02-.13.34-.41.62-.63.93-.22-.3-.57-.58-.64-.92-.62-2.67-1.22-5.35-1.75-8.05-.1-.48-.18-.97-.26-1.46-.03-.17-.05-.33-.08-.49-.77-5.07-.15-7.16.09-7.73.06-.13.09-.18.09-.18.75-1.43,1.84-1.87,3.53-1.62.31.03.64.1.99.18,2.39.59,4.31,2.09,6.17,3.65.61.51,1.27.97,1.81,1.55.4.42.49.93-.14,1.36Z"/>
      <path class="cls-1" d="M66.22,81.83c-.15-.07-.52.35-.81.53-.46.29-.9.64-1.4.83-3.06,1.16-5.52-.17-7.42-2.3-.95-1.06-1.2-.64-1.83,0-1.99,2.05-4.4,2.96-7.25,2.61-.96-.12-1.88-.34-2.48-1.24-.15-.22-.53-.48-.71-.43-.27.09-.58.41-.64.68-.13.58,0,1.02.69,1.35,1.32.65,2.64,1.2,4.15,1.02.68-.08.97.12,1.1.88.19,1.15.58,2.27.96,3.38.78,2.25,2.72,3.69,4.48,3.7,2.08.07,3.49-.48,4.42-1.87,1-1.5,1.64-3.19,1.85-4.99.09-.82.42-.97,1.17-1.12,1.36-.27,2.69-.75,4.01-1.23.3-.11.72-.68.65-.88-.14-.38-.55-.73-.94-.92ZM58.24,90.74c-.04.07-.09.13-.14.19-.04.05-.08.09-.12.13-.05.06-.11.11-.17.16-.07.05-.13.09-.2.14-.49.3-1.15.46-1.97.46-1.81.01-3.54-1.26-3.54-2.6,0-.1.04-.22.1-.35.13-.25.37-.54.68-.83.14-.13.29-.26.45-.38.71-.57,1.57-1.03,2.1-1.02,1.16.02,3.11,1.75,3.14,2.8.01.51-.1.95-.33,1.3Z"/>
      <path class="cls-1" d="M46.74,70.02c-.05.85-.58,1.01-1.2.63-1.21-.74-2.19-1.61-2.65-3.11-.37-1.18-1.22-2.27-2.02-3.25-.7-.86-1.52-.82-2.08.09-.81,1.33-1.49,2.75-2.07,4.2-.36.89,0,1.12,1.07.92.5-.1,1.03-.21,1.52-.14.38.04,1.09.14,1.07.54-.03.38-.68.33-1.05.41-1.04.24-2.11.36-3.13.65-.69.2-1.33.58-1.96.93-.51.27-.75.19-.75-.4,0-4.07.59-7.94,3.56-11.07.86-.9,1.9-1.12,3.04-1.19,1.64-.06,3.79,1.45,4.82,4.01.72,1.81,1.2,3.71,1.76,5.59.11.37.09.79.07,1.19Z"/>
      <path class="cls-1" d="M76.95,71.22c-.2.31-.88.68-1.06.57-1.56-1.01-3.26-1.41-5.08-1.48-.32-.01-.63-.2-.94-.32-.14-.05-.27-.12-.4-.18.16-.07.3-.19.46-.2.96-.07,1.98-.33,2.88-.12.99.23,1.28-.07.99-.84-.55-1.47-1.19-2.91-1.95-4.28-.46-.83-1.39-1.01-2.01-.2-.85,1.1-1.68,2.29-2.18,3.57-.61,1.52-1.76,2.29-3.11,2.9-.11.05-.58-.3-.57-.43.35-3.24,1.18-6.38,3.21-8.95,2.56-3.23,5.83-2.44,7.65.84,1.36,2.44,1.99,5.14,2.15,7.72,0,.62.15,1.12-.04,1.4Z"/>
      <path class="cls-1" d="M59.5,74.6c-.03.45-.79,1.02-1.34,1.22-.67.25-1.47.17-2.37.25-.65-.06-1.48-.02-2.23-.24-.47-.13-1.07-.6-1.17-1.02-.1-.43.22-1.12.58-1.45,1.11-1,4.28-1.23,5.53-.37.5.35,1.04,1.09,1,1.61Z"/>
      <path class="cls-1" d="M44.26,55.83c.03.16-.34.57-.5.56-.37-.03-.73-.24-1.08-.39-1.75-.75-3.44-.99-5.05.34-.24.19-.67.14-1.02.2.08-.33.05-.72.23-.97.98-1.34,2.04-2.58,3.93-2.5.99.01,3.32,1.82,3.49,2.76Z"/>
      <path class="cls-1" d="M75.36,56.81c-.46-.14-.75-.16-.94-.3-1.35-1.02-2.86-1.48-4.52-1.06-.7.17-1.33.57-2,.85-.18.07-.39.06-.59.08-.02-.21-.1-.46-.03-.64,1.01-2.63,4.39-3.36,6.34-1.36.52.52.93,1.13,1.38,1.71.1.13.15.3.36.72Z"/>
    </g>
  </g>
</svg>
