<?xml version="1.0" encoding="utf-8"?>
<!-- Generator: Adobe Illustrator 27.4.0, SVG Export Plug-In . SVG Version: 6.00 Build 0)  -->
<svg version="1.1" id="Capa_1" xmlns="http://www.w3.org/2000/svg" xmlns:xlink="http://www.w3.org/1999/xlink" x="0px" y="0px"
	 viewBox="0 0 182.08 399.06" style="enable-background:new 0 0 182.08 399.06;" xml:space="preserve">
<style type="text/css">
	.st0{fill:#FFFFFF;}
	.st1{fill:#FC0000;}
	.st2{fill:#BE251E;}
	.st3{fill:#010100;}
</style>
<rect x="-227.43" y="-78.78" class="st0" width="475.48" height="554.54"/>
<g>
	<rect class="st0" width="182.08" height="399.06"/>
	<g>
		<g>
			<path class="st1" d="M145.98,0c-4.58,19.92-9.16,32.33-16.44,55.84c-0.12,0.03-0.24,0.04-0.36,0.08
				c-0.63,0.15-1.33,0.38-2.06,0.68c-4.28,1.75-7.33,4.88-10.09,7.92c-0.27,0.3-0.39,0.34-0.39,0.34c-0.05-0.01-0.36-0.16-0.58-0.28
				c-0.51-0.27-1.02-0.55-1.53-0.82c-1.84-0.98-3.73-2-5.71-2.83c-3.46-1.45-7.39-2.27-12.04-2.52h-0.03h-0.03h-1.07l-2.99,0.03
				H92.6h-0.07c-0.48,0.07-0.97,0.12-1.45,0.17c-0.86,0.11-1.75,0.21-2.64,0.35c-4.46,0.7-8.63,2.15-12.37,4.32
				c-0.01,0-0.03,0-0.05,0c-0.12,0-0.23-0.02-0.26-0.04c-0.78-0.59-1.59-1.27-2.37-1.91c-1.15-0.95-2.34-1.94-3.61-2.81
				c-2.08-1.42-4.89-3.06-8.3-3.06c-0.09,0-0.17,0-0.27,0.01c0,0,0,0-0.01,0c-0.01,0-0.02,0-0.03,0C53.48,30.24,45.31,5.33,43.55,0
				H145.98z"/>
		</g>
		<g>
			<path class="st1" d="M136.29,123.31c0.13,0,0.27,0.02,0.39,0.05c0.26,0.07,0.45,0.18,0.57,0.26c0.02,0.01,0.04,0.02,0.04,0.03
				c0.25-0.02,0.49-0.04,0.74-0.05c0.79-0.05,1.58-0.13,2.38-0.18c0.32-0.06,0.65-0.13,0.97-0.2c0.12-0.03,0.21-0.06,0.27-0.1
				l0.03-0.01l0.03-0.01c0.12-0.05,0.22-0.12,0.3-0.19c0.09-0.1,0.17-0.19,0.26-0.28c0.08-0.09,0.17-0.18,0.25-0.27l0.25-0.29
				c0.09-0.1,0.18-0.21,0.25-0.29c0.24-0.28,0.47-0.55,0.7-0.81c0.12-0.14,0.25-0.29,0.38-0.43l0.04-0.04l0.02-0.02
				c0.04-0.04,0.07-0.08,0.12-0.13l0.11-0.09l0.03-0.03l0.02-0.02l0.01-0.01l0.01-0.02c0.02-0.03,0.04-0.11,0.06-0.18l0.01-0.02
				c0.02-0.09,0.04-0.19,0.08-0.28c0.09-0.25,0.2-0.47,0.3-0.62c0.06-0.1,0.14-0.21,0.22-0.3c1.04-1.35,2.55-2.12,4.14-2.12
				c0.1,0,0.2,0,0.31,0.01l0.07,0l0.06,0.01c0.05,0,0.11,0.01,0.15,0.01c1.25,0.15,2.41,0.79,3.25,1.78c0.39-0.22,0.8-0.4,1.23-0.51
				c0.43-0.1,0.82-0.16,1.2-0.16c0.03,0,0.07,0,0.1,0c0.2-0.47,0.8-0.81,1-1.28c1.54-3.78,3.15-7.55,4.86-11.26
				c2.21-4.86,4.58-9.64,6.78-14.51c2.13-4.7,4.18-9.45,6.2-14.19c1.71-3.99,3.31-8.02,5.01-12c0.81-1.88,1.74-3.72,2.61-5.57V1.58
				c0-0.37-0.03-0.75,0.01-1.14c0.05-0.48-0.09-0.6-0.58-0.58c-1.32,0.04-2.66,0.01-3.99,0.01c-1.62,3.95-3.3,7.86-4.84,11.83
				c-1.64,4.25-3.25,8.51-4.68,12.83c-4.84,14.58-9.61,29.19-14.4,43.78c-1.36,4.13-2.72,8.26-4.06,12.39
				c-2.69,8.42-5.35,16.85-8.05,25.26c-1.33,4.13-2.78,8.23-4.12,12.37c-0.54,1.65-0.97,3.34-1.45,5.02l0,0
				C136.03,123.33,136.16,123.31,136.29,123.31z"/>
		</g>
		<g>
			<path class="st1" d="M69.37,235.27c-1.33-2.76-2.58-5.59-3.71-8.28c-1.49-3.46-2.87-6.98-4.78-10.19
				c-5.89-9.92-12.14-19.62-18.23-29.41c-2.99-4.8-5.98-9.59-8.93-14.4c-1.78-2.9-3.44-5.88-5.24-8.77
				c-1.98-3.18-4.13-6.26-6.11-9.44c-2.82-4.53-5.54-9.13-8.34-13.67c-3.64-5.89-7.31-11.76-11.01-17.61
				c-0.78-1.22-1.76-2.32-2.64-3.47c0,12.89,0,25.79,0,38.68c0.2,0.15,0.43,0.27,0.59,0.45c2.34,2.68,4.66,5.38,7,8.06
				c1.28,1.46,2.59,2.89,3.87,4.36c2.17,2.5,4.3,5.03,6.47,7.54c1.88,2.18,3.81,4.31,5.69,6.49c2.04,2.36,4.02,4.77,6.05,7.14
				c1.66,1.95,3.39,3.84,5.03,5.81c2.19,2.63,4.31,5.32,6.48,7.97c2.69,3.28,5.42,6.53,8.1,9.82c2.32,2.84,4.6,5.71,6.89,8.58
				c2.79,3.5,5.61,6.98,8.32,10.54c1.38,1.81,2.55,3.79,3.85,5.66c0.09,0.14,0.35,0.16,0.58,0.2c0.15-0.56,0.3-1.12,0.49-1.7
				C70.26,238.08,70.15,236.9,69.37,235.27z"/>
		</g>
		<g>
			<path class="st1" d="M26.72,124.46c0.03-1.13,0.47-2.17,1.24-2.93c0.68-0.69,1.57-1.11,2.55-1.23c0.39-1.73,1.58-3.1,3.21-3.62
				c0.44-0.14,0.89-0.2,1.39-0.2c0.52,0,1.04,0.09,1.54,0.26l0.74,0.26v0.07c0.14,0.08,0.28,0.16,0.42,0.25
				c0.82-0.85,1.87-1.37,3-1.52L2.2-0.09C1.43-0.09,0.39-0.38,0,0c-0.37,0.37-0.09,1.42-0.09,2.18v79.27
				c0.2,0.14,0.47,0.25,0.57,0.45c1.02,1.98,1.96,3.99,3,5.95c1.72,3.28,3.5,6.52,5.22,9.8c1.6,3.06,3.14,6.15,4.7,9.22
				c0.11,0.23,0.21,0.45,0.33,0.67c1.85,3.27,3.76,6.5,5.52,9.81c1.76,3.32,3.28,6.78,5.37,9.92c0.14-0.61,0.4-1.18,0.78-1.66
				C25.76,125.12,26.21,124.73,26.72,124.46z"/>
		</g>
		<g>
			<path class="st1" d="M123.5,231.45c0.31-0.25,0.68-0.46,0.93-0.77c2.45-3.06,4.89-6.13,7.31-9.23c2.92-3.74,5.84-7.49,8.71-11.27
				c2.59-3.43,5.06-6.95,7.67-10.36c3.3-4.31,6.7-8.54,10.03-12.83c2.78-3.58,5.49-7.22,8.28-10.79c3.19-4.08,6.4-8.14,9.69-12.14
				c1.94-2.36,4.04-4.59,6.07-6.87c0-12.39,0-24.77,0-37.16c-0.41,0.33-0.93,0.57-1.2,0.99c-2.24,3.47-4.45,6.96-6.65,10.45
				c-0.82,1.3-1.62,2.62-2.37,3.96c-2.63,4.71-5.21,9.45-7.86,14.15c-1.61,2.86-3.35,5.64-5.01,8.48c-2.38,4.08-4.73,8.17-7.1,12.25
				c-1.61,2.77-3.24,5.53-4.84,8.3c-2.21,3.83-4.38,7.69-6.6,11.52c-2.55,4.39-5.15,8.75-7.69,13.15c-1.7,2.95-3.36,5.92-4.96,8.93
				c-0.63,1.18-1.18,2.44-1.54,3.72c-0.43,1.53-0.77,3.1-1.09,4.66c-0.07,1.43-0.26,2.79-0.57,4.11c-0.26,1.11-0.58,2.19-0.91,3.26
				c-0.15,0.76-0.31,1.52-0.45,2.28C123.29,230.61,123.45,231.04,123.5,231.45z"/>
		</g>
		<g>
			<path class="st1" d="M68.24,247.3c-0.19-0.84-0.58-1.64-1.38-2.38c-4.39-4.07-8.62-8.32-12.94-12.47
				c-1.81-1.75-3.65-3.46-5.53-5.14c-1.01-0.9-2.16-1.65-3.17-2.55c-1.86-1.65-3.64-3.39-5.51-5.04c-1.5-1.32-3.1-2.52-4.61-3.82
				c-3.17-2.75-6.28-5.58-9.48-8.3c-3.52-2.99-7.14-5.86-10.68-8.82c-4.03-3.36-8.03-6.77-12.07-10.12
				c-0.74-0.62-1.65-1.03-2.49-1.54c0,6.45,0,12.89,0,19.34c0.92,0.58,1.84,1.16,2.76,1.75c2.74,1.75,5.51,3.47,8.21,5.27
				c4.26,2.83,8.44,5.8,12.74,8.57c7.14,4.61,14.36,9.08,21.51,13.68c2.16,1.39,4.17,3.03,6.28,4.5c1.88,1.32,3.83,2.54,5.71,3.86
				c3.18,2.23,6.32,4.51,9.48,6.77c0.43,0.3,1.03,0.64,1.21,0.03C68.17,249.75,68.16,248.55,68.24,247.3z"/>
		</g>
		<g>
			<path class="st1" d="M123.75,246.1c-0.08,0.54-0.19,1.07-0.31,1.59c0.01,0.25,0.02,0.5,0.03,0.75c0.61-0.39,1.26-0.74,1.84-1.17
				c3.99-2.95,7.92-6,11.97-8.87c5.03-3.56,10.2-6.92,15.22-10.49c4.13-2.93,8.13-6.05,12.21-9.05c5.81-4.27,11.64-8.51,17.47-12.77
				c0-6.95,0-13.9,0-20.86c-0.89,0.69-1.84,1.31-2.67,2.07c-4.08,3.78-8.13,7.59-12.19,11.4c-4.36,4.09-8.73,8.17-13.05,12.3
				c-4.2,4.01-8.37,8.04-12.5,12.12c-4.99,4.93-9.93,9.91-14.9,14.86c-1.22,1.22-2.41,2.45-3.08,3.91
				C123.94,243.27,123.96,244.66,123.75,246.1z"/>
		</g>
		<g>
			<path class="st1" d="M29.39,247.02c4.09,1.3,8.12,2.79,12.2,4.13c2.88,0.95,5.81,1.77,8.7,2.7c2.26,0.73,4.51,1.52,6.75,2.31
				c1.33,0.47,2.63,1.03,3.97,1.48c1.11,0.37,2.27,0.57,3.39,0.93c1.63,0.52,3.23,1.16,4.87,1.65c0.39,0.12,0.89-0.12,1.34-0.2
				c-0.47-1.18-0.67-2.61-1.48-3.47c-0.87-0.92-2.31-1.31-3.5-1.93c-5.85-3.06-11.7-6.11-17.54-9.17
				c-6.95-3.64-13.88-7.34-20.86-10.93c-8.92-4.59-17.89-9.1-26.84-13.64c0,5.81,0,11.63,0,17.44c1.15,0.2,2.34,0.27,3.44,0.62
				c3.15,0.98,6.25,2.13,9.39,3.12C18.59,243.75,24.02,245.31,29.39,247.02z"/>
		</g>
		<g>
			<path class="st1" d="M169.13,228.71c-3.16,1.7-6.37,3.32-9.49,5.1c-5.24,3-10.4,6.13-15.63,9.15
				c-5.51,3.17-11.05,6.27-16.59,9.39c-6.26,3.53-12.55,7.01-18.78,10.61c-2.03,1.17-3.89,2.64-5.83,3.99
				c-0.19,0.13-0.33,0.33-0.5,0.5c0.24,0.04,0.5,0.13,0.73,0.1c0.37-0.06,0.72-0.2,1.07-0.33c5.45-1.99,10.92-3.91,16.33-5.99
				c7.93-3.05,15.79-6.27,23.71-9.32c6.84-2.63,13.74-5.12,20.6-7.69c3.77-1.41,7.5-2.91,11.28-4.29c2.02-0.74,4.09-1.31,6.14-1.96
				c0-5.31,0-10.62,0-15.93c-0.46,0.13-0.96,0.18-1.37,0.4C176.91,224.5,173.02,226.62,169.13,228.71z"/>
		</g>
		<g>
			<path class="st1" d="M72.9,265.67c-0.16-0.37-0.34-0.72-0.58-1.03c-0.33-0.42-1.25-0.4-1.91-0.55
				c-5.34-1.18-10.69-2.36-16.03-3.52c-3.96-0.86-7.93-1.7-11.9-2.54c-2.95-0.63-5.9-1.25-8.85-1.89
				c-3.37-0.74-6.73-1.54-10.11-2.25c-5.31-1.12-10.63-2.2-15.95-3.26c-2.39-0.48-4.79-0.87-7.19-1.3c0,4.55,0,9.1,0,13.65
				c1.2,0.06,2.4,0.12,3.59,0.18c13.44,0.71,26.88,1.4,40.32,2.15c5.35,0.3,10.69,0.71,16.04,1.15c3.78,0.31,7.54,0.76,11.31,1.1
				c0.63,0.06,1.28-0.08,1.93-0.13c-0.07-0.18-0.13-0.35-0.2-0.53C73.22,266.5,73.06,266.08,72.9,265.67z"/>
		</g>
		<g>
			<path class="st1" d="M155.77,255.77c-7.04,1.86-14.05,3.78-21.07,5.7c-6.41,1.75-12.83,3.45-19.2,5.33
				c-3.15,0.93-6.19,2.21-9.27,3.35c-0.4,0.15-0.75,0.4-1.13,0.6c0.46,0.03,0.92,0.13,1.36,0.08c1.54-0.19,3.07-0.46,4.61-0.64
				c4.56-0.53,9.12-1,13.68-1.54c5.17-0.6,10.33-1.25,15.49-1.87c1.36-0.16,2.72-0.24,4.08-0.42c2.59-0.34,5.17-0.8,7.77-1.05
				c3.61-0.35,7.24-0.55,10.86-0.83c6.41-0.5,12.82-1.01,19.24-1.51c0-4.42,0-8.85,0-13.27c-3.06,0.56-6.14,0.98-9.16,1.7
				C167.25,252.77,161.51,254.26,155.77,255.77z"/>
		</g>
		<g>
			<path class="st1" d="M159.05,272.62c-11.81,0.15-23.62,0.38-35.43,0.59c-0.3,0.01-0.6,0.1-0.89,0.16
				c0.29,0.19,0.55,0.51,0.86,0.54c1.6,0.19,3.23,0.26,4.83,0.47c3.37,0.46,6.74,0.96,10.1,1.5c3.66,0.6,7.36,1.09,10.96,1.95
				c9.36,2.25,18.57,5.01,27.42,8.88c1.68,0.74,3.52,1.11,5.29,1.66c0-5.31,0-10.62,0-15.93c-0.25,0.03-0.5,0.09-0.75,0.09
				C173.98,272.57,166.51,272.53,159.05,272.62z"/>
		</g>
		<g>
			<path class="st1" d="M75.19,271.75c-0.15-0.26-0.39-0.46-0.92-0.49c-1.98-0.11-3.93-0.58-5.9-0.73
				c-9.09-0.71-18.19-0.62-27.29-0.13c-4.34,0.23-8.67,0.61-13,0.89c-3.66,0.24-7.31,0.43-10.97,0.63
				c-5.58,0.31-11.15,0.61-16.73,0.91c0,2.02,0,4.04,0,6.07c1.52-0.26,3.06-0.44,4.56-0.8c8.61-2.05,17.32-3.47,26.1-4.47
				c3.42-0.39,6.88-0.57,10.33-0.72c4.36-0.19,8.72-0.38,13.08-0.32c6.57,0.09,13.13,0.41,19.7,0.57c0.44,0.01,0.89-0.37,1.33-0.6
				c-0.07-0.2-0.13-0.41-0.21-0.61C75.25,271.89,75.22,271.82,75.19,271.75z"/>
		</g>
		<g>
			<path class="st1" d="M64.05,201.5c0.32-1.05,0.67-2.11,1.01-3.13c0.37-1.1,0.75-2.25,1.09-3.37c0.08-0.25,0.07-0.61-0.01-0.89
				c-0.62-2.07-1.28-4.18-1.92-6.21c-1.38-4.41-2.81-8.96-3.95-13.52c-0.42-1.7-0.87-2.52-1.72-3.13c-0.38-0.29-0.88-0.53-1.53-0.76
				c-4.35-1.55-8.3-4.31-12.06-8.37c-0.08,0.47-0.2,0.83-0.1,1.1c0.43,1.2,0.94,2.38,1.45,3.55c1.25,2.88,2.53,5.74,3.79,8.62
				c1.79,4.1,3.55,8.22,5.37,12.32c1.54,3.47,3.14,6.92,4.69,10.39c0.88,1.96,1.7,3.93,2.57,5.89c0.07,0.16,0.25,0.26,0.38,0.4
				c0,0,0.01-0.01,0.01-0.01c0.14-0.44,0.29-0.88,0.44-1.32C63.72,202.52,63.9,202.01,64.05,201.5z"/>
		</g>
		<g>
			<path class="st1" d="M135.95,168.4c-0.15,0.07-0.3,0.13-0.45,0.2c-2.39,1.42-5.11,2.63-8.19,3.3c-0.07,0.05-0.18,0.17-0.2,0.21
				c-0.87,2.63-1.72,5.27-2.57,7.91c-0.7,2.17-1.4,4.35-2.12,6.52c-0.15,0.46-0.3,0.91-0.44,1.37c-0.51,1.62-1.04,3.29-1.8,4.87
				c-0.01,0.01-0.01,0.02-0.01,0.03c-0.18,0.57-0.35,1.14-0.52,1.7c-0.37,2.15,0.38,4.24,1.18,6.42l0.15,0.4
				c0.31,0.85,0.64,1.7,0.97,2.55c0.12,0.32,0.25,0.64,0.37,0.96c0.37-0.37,0.8-0.7,1.1-1.12c0.32-0.46,0.55-0.99,0.77-1.51
				c0.77-1.76,1.49-3.54,2.29-5.29c2.39-5.2,4.82-10.39,7.22-15.59c1.14-2.47,2.27-4.94,3.36-7.44c1.19-2.73,2.32-5.48,3.47-8.22
				c0.09-0.21,0.11-0.44,0.17-0.66c-0.07,0.03-0.15,0.06-0.22,0.08c-0.66,0.54-1.37,1.08-2.11,1.62
				C137.58,167.37,136.81,167.98,135.95,168.4z"/>
		</g>
		<g>
			<path class="st1" d="M105.55,259.82l-0.63-0.75c-0.19-0.23-0.39-0.45-0.58-0.68c-0.05,0.05-0.1,0.08-0.16,0.15
				c-1.34,1.67-2.44,3.54-3.63,5.33c-0.08,0.13-0.07,0.31-0.11,0.47c0.17-0.01,0.4,0.04,0.49-0.05c1.53-1.47,3.52-2.42,4.93-4.03
				l-0.06-0.16L105.55,259.82z"/>
		</g>
		<g>
			<path class="st1" d="M99.08,257.19c0.07,0.48,0.11,0.76,0.16,1.03c0.31-0.41,0.69-0.79,0.9-1.25c0.07-0.16-0.29-0.51-0.45-0.78
				C99.46,256.56,99.24,256.93,99.08,257.19z"/>
		</g>
		<path class="st2" d="M94.65,127.45c-1.14-0.02-3.65,1.93-3.65,2.82c0,1.46,1.89,2.85,3.87,2.84c2.08,0,3.25-0.96,3.2-2.61
			C98.04,129.37,95.91,127.47,94.65,127.45z"/>
		<g>
			<g>
				<path class="st2" d="M87.13,169.99c-1.08-0.5-1.44-0.74-1.56-0.83l-0.1-0.07c-0.11-0.05-0.16-0.22-0.17-0.48
					c0-0.5,0.1-0.67,0.12-0.69c0.11-0.15,0.26-0.28,0.45-0.39c0.19-0.1,0.35-0.16,0.42-0.18c0.01,0.01,0.22,0.08,0.79,0.67
					c0.48,0.5,0.84,1.06,1.06,1.68l0.25,0.69l0.59-0.44c0.84-0.63,1.68-1.27,2.53-1.9l0.31-0.22l-0.11-0.37
					c-0.33-1.14-1.09-2.14-2.29-3.01c-1.19-0.85-2.29-1.26-3.27-1.2c-0.6,0.03-1.4,0.48-2.51,1.39c-1.05,0.87-1.69,1.5-2.03,2.01
					c-0.37,0.65-0.55,1.39-0.52,2.22c0.01,0.81,0.15,1.49,0.4,2c0.26,0.57,0.81,1.09,1.65,1.61c0.78,0.48,1.62,0.92,2.5,1.31
					c1.03,0.45,1.47,0.71,1.73,0.91c0,0,0.08,0.09,0.08,0.45c0.01,0.5-0.1,0.71-0.14,0.78c-0.1,0.11-0.24,0.23-0.44,0.35
					c-0.16,0.1-0.31,0.15-0.36,0.16c-0.02,0-0.22-0.09-0.78-0.67c-0.48-0.51-0.83-1.08-1.06-1.69l-0.25-0.68l-0.58,0.42
					c-0.82,0.59-1.64,1.17-2.46,1.73l-0.26,0.2c0.04-0.47,0.08-1.2,0.04-2.39l-0.08-2.61c-0.07-2.18-0.25-2.82-0.38-3.11
					c-0.32-0.68-1.05-1.51-2.24-2.54c-1.27-1.07-2.18-1.59-2.88-1.61c-0.7-0.01-1.59,0.44-2.79,1.44c-1.15,0.97-1.8,1.73-2.07,2.37
					c-0.13,0.31-0.26,0.93-0.15,3.06l0.13,2.57c0.11,2.14,0.31,2.79,0.45,3.08c0.32,0.7,1.06,1.6,2.21,2.69
					c1.22,1.16,2.11,1.73,2.8,1.76c0.03,0,0.05,0.01,0.09,0.01c0.69,0,1.54-0.48,2.66-1.49c1.08-0.98,1.77-1.83,2.04-2.52
					c0.05-0.12,0.1-0.28,0.14-0.58l0.08,0.26c0.35,1.13,1.1,2.15,2.27,3.06c1.15,0.9,2.15,1.33,3.08,1.33h0.1
					c0.6-0.02,1.38-0.46,2.46-1.37c1.01-0.85,1.65-1.51,2-2.04c0.37-0.66,0.56-1.44,0.56-2.34c0-0.93-0.11-1.54-0.32-1.86
					C90.85,172.09,89.52,171.15,87.13,169.99z M76.86,175.33c-0.08,0.21-0.24,0.43-0.47,0.67c-0.2,0.2-0.31,0.24-0.31,0.24
					c-0.02,0-0.15-0.05-0.42-0.32c-0.25-0.27-0.44-0.52-0.55-0.75c-0.02-0.05-0.15-0.4-0.23-2l-0.11-2.58
					c-0.07-1.57,0.03-1.91,0.04-1.96c0.09-0.2,0.24-0.42,0.48-0.66c0.23-0.22,0.34-0.25,0.34-0.25c0.01,0,0.14,0.03,0.42,0.32
					c0.27,0.26,0.46,0.5,0.56,0.72c0.02,0.04,0.15,0.39,0.21,2l0.1,2.59C76.98,174.94,76.88,175.28,76.86,175.33z"/>
			</g>
			<g>
				<path class="st2" d="M102.5,166.51c-0.3-0.73-0.98-1.59-2.13-2.58c-1.19-1.04-2.11-1.53-2.86-1.48
					c-0.72,0.04-1.62,0.62-2.84,1.8c-1.16,1.13-1.86,2.03-2.15,2.78c-0.13,0.33-0.28,1.02-0.28,3.17l-0.01,9.27l0.02,0.57l0.57-0.02
					c1.03-0.04,2.03-0.09,3.05-0.13l0.52-0.02l0.02-3.42c0.67-0.03,1.33-0.07,2-0.09l-0.05,3.43l0.58-0.02
					c1.02-0.03,2.03-0.05,3.06-0.07l0.52-0.01l0.21-9.96C102.76,167.54,102.62,166.85,102.5,166.51z M98.49,169.84l-0.03,2.68
					c-0.68,0.03-1.36,0.07-2.02,0.1l0.01-2.59c0.01-1.63,0.13-2.01,0.16-2.09c0.1-0.23,0.27-0.49,0.54-0.78
					c0.25-0.28,0.38-0.34,0.38-0.34c0.02,0,0.13,0.03,0.36,0.26c0.24,0.24,0.4,0.47,0.5,0.69
					C98.41,167.83,98.51,168.16,98.49,169.84z"/>
			</g>
			<g>
				<path class="st2" d="M112.32,170.4c0.83,0.9,1.4,1.68,1.68,2.36c0.11,0.26,0.25,0.89,0.36,3.2c0.09,1.67,0.11,2.95,0.07,3.79
					l-0.03,0.59l-0.58-0.08c-1.02-0.12-2.03-0.23-3.05-0.31l-0.52-0.04l0.02-0.52c0.03-0.71,0.01-1.87-0.08-3.42
					c-0.1-2.06-0.22-2.47-0.25-2.55c-0.34-0.7-0.71-1.06-1.13-1.08l-0.32-0.01l-0.25,7.47l-0.55-0.02
					c-1.02-0.04-2.03-0.07-3.05-0.08h-0.56l0.28-10.72c0.04-1.47-0.07-2.12-0.16-2.42c-0.14-0.42-0.48-0.97-0.97-1.6l-0.36-0.46
					l0.47-0.33c0.94-0.68,1.88-1.34,2.82-2l0.31-0.22l0.31,0.21c0.59,0.39,1.06,1.07,1.42,2.07c0.35,0.94,0.5,2.09,0.46,3.4
					l-0.02,0.8l0.13,0.01c0.14,0.02,0.26-0.1,0.43-0.26c0.26-0.24,0.46-0.47,0.58-0.68c0.03-0.04,0.19-0.37,0.46-2.01
					c0.2-1.19,0.31-2.04,0.33-2.53l0.02-0.55l0.55,0.02c1.07,0.04,2.14,0.12,3.21,0.22l0.51,0.04l-0.02,0.52
					c-0.03,0.63-0.15,1.59-0.39,2.92c-0.32,1.78-0.49,2.29-0.62,2.52C113.59,169.14,113.1,169.7,112.32,170.4z"/>
			</g>
		</g>
	</g>
	<g>
		<path d="M128.41,131.5c0.22-0.23,0.43-0.46,0.65-0.68c0.05-0.05,0.12-0.14,0.17-0.25C128.98,130.87,128.7,131.18,128.41,131.5z"/>
		<path d="M73.86,140.1c0.34,0.13,0.7,0.25,1.05,0.36C74.52,140.31,74.17,140.19,73.86,140.1z"/>
		<path d="M138.22,75.53c0.95-3.56,1.74-7.24,1.59-10.97c-0.11-2.45-0.69-4.68-2.43-6.19c-0.57-0.5-1.28-0.92-2.13-1.24
			c-0.25-0.1-0.51-0.17-0.77-0.25c-0.09-0.02-0.17-0.03-0.26-0.05c-0.17-0.04-0.34-0.09-0.51-0.12c-0.1-0.01-0.2-0.03-0.3-0.04
			c-0.16-0.02-0.32-0.04-0.47-0.07c-0.11,0-0.21-0.01-0.32-0.02c-0.15,0-0.3-0.01-0.45-0.01h-0.24c-0.38,0-0.77,0.02-1.15,0.08
			c-0.05,0.01-0.1,0.01-0.14,0.02c-0.4,0.05-0.81,0.13-1.21,0.24c-0.63,0.15-1.28,0.37-1.91,0.63c-4.01,1.64-6.92,4.57-9.71,7.64
			c-0.02,0.02-0.04,0.04-0.07,0.07c-0.09,0.1-0.17,0.19-0.26,0.25c-0.03,0.03-0.07,0.05-0.1,0.08c-0.07,0.05-0.13,0.11-0.2,0.14
			c-0.03,0.02-0.07,0.03-0.1,0.04c-0.05,0.03-0.12,0.05-0.17,0.08c-0.03,0.01-0.08,0.01-0.11,0.01c-0.05,0.01-0.1,0.02-0.15,0.02
			c-0.04,0-0.1-0.01-0.14-0.01c-0.04-0.01-0.08-0.01-0.12-0.02c-0.04-0.01-0.1-0.02-0.14-0.04c-0.04-0.01-0.09-0.02-0.12-0.04
			c-0.05-0.01-0.11-0.04-0.16-0.07c-0.04-0.02-0.09-0.03-0.13-0.05v-0.01c-0.1-0.04-0.2-0.1-0.31-0.15
			c-2.36-1.25-4.69-2.58-7.15-3.61c-3.71-1.56-7.65-2.23-11.68-2.44c-1.36,0.01-2.71,0.02-4.06,0.03c-1.36,0.17-2.71,0.31-4.06,0.51
			c-4.26,0.67-8.29,2.03-12.04,4.22c-0.08,0.04-0.19,0.08-0.3,0.1c-0.03,0-0.08,0-0.11,0.01c-0.04,0-0.09,0.01-0.14,0.01
			c-0.02,0-0.05-0.01-0.08-0.01c-0.11,0-0.21-0.02-0.31-0.04c-0.05-0.01-0.1-0.01-0.14-0.02c-0.14-0.04-0.27-0.1-0.37-0.17
			c-1.52-1.15-2.94-2.42-4.44-3.59c-0.5-0.39-1.01-0.77-1.53-1.13c-0.3-0.2-0.59-0.39-0.89-0.59c-0.09-0.04-0.18-0.1-0.25-0.15
			c-0.22-0.13-0.44-0.26-0.66-0.38c-0.11-0.07-0.23-0.12-0.34-0.19c-0.2-0.11-0.38-0.21-0.59-0.31c-0.12-0.07-0.25-0.12-0.38-0.17
			c-0.19-0.09-0.37-0.17-0.57-0.25c-0.13-0.05-0.27-0.11-0.42-0.15c-0.19-0.07-0.37-0.14-0.56-0.2c-0.15-0.04-0.31-0.08-0.45-0.12
			c-0.2-0.05-0.38-0.1-0.57-0.14c-0.15-0.03-0.32-0.05-0.47-0.08c-0.2-0.03-0.38-0.07-0.58-0.08c-0.16-0.02-0.33-0.02-0.49-0.03
			c-0.16-0.01-0.32-0.02-0.47-0.02h-0.25c-0.16,0-0.33,0.01-0.5,0.02c-4.91,0.37-7.63,3.27-7.79,8.12
			c-0.01,0.43-0.02,0.85-0.02,1.29c0,2.31,0.21,4.59,0.77,6.87c1.2,4.99,2.32,9.99,3.3,15.04c0.08,0.39,0.2,0.78,0.32,1.17
			c0.12,0.39,0.25,0.79,0.35,1.18c0.14,0.59,0.23,1.19,0.13,1.83c-0.03,0.21-0.08,0.42-0.15,0.63c-0.42,1.25-0.72,2.52-0.91,3.81
			c-0.13,0.94-0.19,1.88-0.19,2.83c0,0.36,0,0.72,0.02,1.08c0.01,1.37,0.02,2.73,0.04,4.1c0.04,0.94,0.12,1.89,0.13,2.83
			c0,0.33-0.04,0.66-0.11,0.96c-0.03,0.11-0.04,0.22-0.08,0.32c-0.12,0.36-0.24,0.72-0.34,1.08c-0.1,0.36-0.2,0.72-0.27,1.09
			c0,0,0,0.01-0.01,0.03c-0.16,0.49-2.52,7.68,1.47,14.83c0.03,0.05,0.07,0.11,0.09,0.16c0.45,0.93,0.94,1.83,1.48,2.69
			c1.59,2.54,3.58,4.81,6.09,6.8c2.33,1.84,4.83,3.24,7.46,4.3v0.01c0.09,0.04,0.43,0.17,0.96,0.38c0.13,0.04,0.28,0.1,0.44,0.15
			c0.31,0.1,0.66,0.22,1.05,0.36c0.22,0.07,0.44,0.14,0.68,0.22c0.17,0.05,0.37,0.12,0.56,0.17c2.66,0.82,6.52,1.84,10.9,2.39
			c1.45,0.19,2.96,0.32,4.51,0.38c2.13,0.09,4.33,0.03,6.52-0.23c0.14-0.01,0.27-0.01,0.4-0.01c0.26-0.01,1.2-0.23,1.47-0.24
			c0.39-0.03,0.74-0.09,1.07-0.15c5.24-0.7,9.6-1.84,13.08-3.02c6.22-2.13,9.58-4.41,9.89-4.63c0.01,0,0.02-0.01,0.02-0.01
			c0.83-0.6,1.65-1.22,2.45-1.87c0.6-0.48,1.13-1.05,1.65-1.63c0.11-0.12,0.21-0.23,0.31-0.34c0.3-0.32,0.57-0.63,0.82-0.93
			c0.27-0.32,0.52-0.62,0.75-0.92c0.02-0.04,0.04-0.08,0.08-0.11c2.13-2.8,2.49-4.46,2.49-4.46c0.04-0.09,0.08-0.17,0.11-0.26
			c0.03-0.09,0.07-0.16,0.1-0.25c0.1-0.24,0.2-0.49,0.28-0.73c0.1-0.28,0.2-0.58,0.28-0.86c0.08-0.26,0.16-0.51,0.23-0.78
			c0.09-0.28,0.15-0.58,0.22-0.87c0.07-0.25,0.12-0.5,0.17-0.77c0.05-0.31,0.11-0.61,0.15-0.93c0.02-0.12,0.03-0.24,0.05-0.36
			c0.02-0.12,0.03-0.24,0.05-0.36c0.03-0.33,0.05-0.68,0.08-1.02c0.01-0.22,0.03-0.43,0.04-0.65c0.01-0.38,0-0.77-0.01-1.15v-0.55
			c-0.02-0.45-0.08-0.9-0.13-1.33c-0.01-0.13-0.01-0.26-0.03-0.39c-0.08-0.58-0.19-1.17-0.32-1.76c-0.46-2.03-0.75-4.3-0.36-6.31
			c0.65-3.36-0.03-6.6-0.26-9.86c-0.11-1.61-0.37-3.05,0.16-4.67C135.11,86.02,136.8,80.81,138.22,75.53z M58.24,73.22
			c-0.11-0.52-0.2-1.06-0.28-1.6c-0.03-0.19-0.05-0.36-0.09-0.54c-0.84-5.54-0.16-7.83,0.1-8.45c0.07-0.14,0.1-0.2,0.1-0.2
			c0.82-1.56,2.01-2.04,3.86-1.77c0.34,0.03,0.7,0.11,1.08,0.2c2.61,0.65,4.71,2.29,6.75,3.99c0.67,0.56,1.39,1.06,1.98,1.69
			c0.44,0.46,0.54,1.02-0.15,1.49c-2.45,1.65-4.43,3.81-6.34,6c-0.5,0.57-0.7,0.68-0.92,0.09c-0.03-0.05-0.05-0.13-0.08-0.21
			c-0.23-0.77-0.5-1.52-0.74-2.29c-0.37-1.1-1.09-1.52-2.29-1.48c-1.19,0.05-1.66,0.58-1.49,1.65c0.26,1.53,0.66,3.03,0.97,4.55
			c0.32,1.51,0.63,3.02,0.91,4.54c0.07,0.36,0.07,0.78-0.07,1.12c-0.14,0.37-0.45,0.68-0.69,1.02c-0.24-0.33-0.62-0.63-0.7-1.01
			C59.47,79.1,58.82,76.17,58.24,73.22z M128.71,121.62c-0.8,3.61-2.91,6.58-5.55,8.94c-2.2,1.97-4.89,3.44-7.5,4.87
			c-0.91,0.49-1.83,0.94-2.77,1.34c-2.58,1.12-5.28,1.9-8.05,2.43c-3.59,0.68-7.23,1.04-10.84,1.54
			c-5.68-0.27-11.06-1.32-16.13-3.28c-3.08-1.2-6.06-2.74-8.92-4.66c-4.68-3.13-7.83-7.34-8.7-12.84c-0.55-3.43-0.68-7.1,1.48-10.3
			c0.27-0.4,0.24-1.07,0.22-1.62c-0.08-2.88-0.58-5.8-0.22-8.61c0.54-4.26,1.88-8.34,4.32-12.03c0.19-0.28,0.38-0.57,0.59-0.85
			c2.15-3.04,4.79-5.55,7.82-7.71c1.44-1.03,2.89-0.16,4.23,0.26c1.26,0.4,2.52,1.02,3.55,1.83c1.12,0.86,2.22,1.92,2.9,3.14
			c1.54,2.76,2.83,5.64,4.21,8.49c0.24,0.49,0.31,1.08,0.61,1.51c0.68,1,1.22,2.1,2.85,1.96c2.07-0.19,4.17,0.09,6.22-0.12
			c1.19-0.12,1.72-1.31,2.03-2.42c0.36-1.22,0.51-2.53,1.03-3.67c1.86-4.14,4.53-7.65,8.51-9.99c0.93-0.55,1.97-1.02,3.02-1.26
			c1.5-0.35,2.78,0.46,3.87,1.37c2.38,1.99,4.61,4.14,6.3,6.77c0.17,0.25,0.34,0.51,0.49,0.78c1.67,2.84,3.07,5.82,3.39,9.17
			c0.23,2.41,0.59,4.8,0.7,7.21c0.08,1.42-0.23,2.85-0.33,4.3c-0.04,0.68-0.11,1.39,0.02,2.06c0.32,1.48,0.69,2.95,1.14,4.41
			C129.95,117.02,129.22,119.32,128.71,121.62z M132.83,78.98c-0.54,2.15-1.17,4.3-1.76,6.44c-0.04,0.15-0.32,0.24-0.48,0.36
			c-0.3-0.89-0.98-1.86-0.82-2.66c0.6-3.08,1.49-6.1,2.25-9.15c0.11-0.42,0.24-0.86,0.21-1.28c-0.01-0.08,0.22-1.15-0.38-1.63
			c-1.04-0.84-2.03-0.02-2.59,0.5c-0.74,0.71-1.06,1.89-1.53,2.89c-0.17,0.39-0.21,0.84-0.38,1.25c-0.34,0.84-0.68,0.69-1.24,0.08
			c-0.04-0.04-0.09-0.1-0.13-0.14c-1.88-2.09-3.79-4.16-5.82-6.12c-0.45-0.44-0.51-0.56-0.13-0.97c2.55-2.69,5.26-5.15,8.55-6.82
			c0.54-0.28,1.09-0.54,1.67-0.77c1.6-0.65,3.43-0.17,4.44,1.53c0.02,0.03,0.04,0.08,0.07,0.11c0.04,0.08,0.09,0.15,0.13,0.24
			c0.02,0.05,0.04,0.12,0.08,0.19c0.43,1.18,0.38,3.18,0.11,5.38C134.48,73.22,132.83,78.98,132.83,78.98z"/>
		<path d="M106.44,122.2c-0.16-0.08-0.57,0.38-0.89,0.58c-0.5,0.32-0.98,0.7-1.53,0.91c-3.35,1.27-6.04-0.19-8.11-2.52
			c-1.04-1.16-1.31-0.7-2,0c-2.18,2.24-4.81,3.24-7.93,2.85c-1.05-0.13-2.06-0.37-2.71-1.36c-0.16-0.24-0.58-0.52-0.78-0.47
			c-0.3,0.1-0.63,0.45-0.7,0.74c-0.14,0.63,0.01,1.12,0.75,1.48c1.44,0.71,2.89,1.31,4.54,1.12c0.74-0.09,1.06,0.13,1.2,0.96
			c0.21,1.26,0.63,2.48,1.05,3.7c0.85,2.46,2.97,4.04,4.9,4.05c2.27,0.08,3.82-0.52,4.83-2.04c1.09-1.64,1.79-3.49,2.02-5.46
			c0.1-0.9,0.46-1.06,1.28-1.22c1.49-0.3,2.94-0.82,4.38-1.35c0.33-0.12,0.79-0.74,0.71-0.96
			C107.31,122.79,106.87,122.4,106.44,122.2z M94.87,133.12c-1.98,0.01-3.87-1.38-3.87-2.84c0-0.9,2.5-2.83,3.64-2.82
			c1.27,0.02,3.4,1.91,3.43,3.06C98.12,132.17,96.95,133.12,94.87,133.12z"/>
		<path d="M85.13,109.28c-0.05,0.93-0.63,1.1-1.31,0.69c-1.32-0.81-2.39-1.76-2.9-3.4c-0.4-1.29-1.33-2.48-2.21-3.55
			c-0.77-0.94-1.66-0.9-2.27,0.1c-0.89,1.45-1.63,3.01-2.26,4.59c-0.39,0.97,0,1.22,1.17,1.01c0.55-0.11,1.13-0.23,1.66-0.15
			c0.42,0.04,1.2,0.16,1.17,0.59c-0.02,0.41-0.74,0.36-1.15,0.45c-1.14,0.26-2.31,0.39-3.42,0.71c-0.75,0.22-1.45,0.63-2.14,1.02
			c-0.56,0.3-0.82,0.21-0.82-0.44c0.01-4.45,0.65-8.68,3.89-12.11c0.94-0.98,2.08-1.22,3.32-1.3c1.79-0.07,4.14,1.59,5.27,4.38
			c0.79,1.98,1.31,4.06,1.92,6.11C85.18,108.38,85.16,108.84,85.13,109.28z"/>
		<path d="M118.17,110.59c-0.22,0.34-0.96,0.74-1.16,0.62c-1.71-1.1-3.56-1.54-5.55-1.62c-0.35-0.01-0.69-0.22-1.03-0.35
			c-0.15-0.05-0.3-0.13-0.44-0.2c0.17-0.08,0.33-0.21,0.5-0.22c1.05-0.08,2.17-0.36,3.15-0.13c1.08,0.25,1.4-0.08,1.08-0.92
			c-0.6-1.61-1.3-3.18-2.13-4.68c-0.5-0.91-1.52-1.1-2.2-0.22c-0.93,1.2-1.84,2.5-2.38,3.9c-0.67,1.66-1.92,2.5-3.4,3.17
			c-0.12,0.05-0.63-0.33-0.62-0.47c0.38-3.54,1.29-6.98,3.51-9.79c2.8-3.53,6.38-2.67,8.37,0.92c1.49,2.67,2.18,5.62,2.35,8.44
			C118.21,109.74,118.38,110.29,118.17,110.59z"/>
		<path d="M99.09,114.29c-0.03,0.49-0.86,1.12-1.47,1.33c-0.73,0.27-1.61,0.19-2.59,0.27c-0.71-0.07-1.62-0.02-2.44-0.26
			c-0.51-0.14-1.17-0.66-1.28-1.12c-0.11-0.47,0.24-1.22,0.63-1.59c1.21-1.09,4.68-1.35,6.05-0.4
			C98.54,112.91,99.13,113.72,99.09,114.29z"/>
		<path d="M82.42,93.76c0.03,0.17-0.37,0.62-0.55,0.61c-0.4-0.03-0.8-0.26-1.18-0.43c-1.91-0.82-3.76-1.08-5.52,0.37
			c-0.26,0.21-0.73,0.15-1.12,0.22c0.09-0.36,0.05-0.79,0.25-1.06c1.07-1.47,2.23-2.82,4.3-2.73
			C79.69,90.76,82.24,92.74,82.42,93.76z"/>
		<path d="M116.43,94.84c-0.5-0.15-0.82-0.17-1.03-0.33c-1.48-1.12-3.13-1.62-4.94-1.16c-0.77,0.19-1.45,0.62-2.19,0.93
			c-0.2,0.08-0.43,0.07-0.65,0.09c-0.02-0.23-0.11-0.5-0.03-0.7c1.1-2.88,4.8-3.67,6.93-1.49c0.57,0.57,1.02,1.24,1.51,1.87
			C116.15,94.19,116.2,94.38,116.43,94.84z"/>
	</g>
	<path d="M72.47,139.55v0.01c-0.02-0.01-0.03-0.01-0.03-0.01H72.47z"/>
	<g>
		<g>
			<g>
				<path d="M64.19,309.48c-1.06-1.26-1.83-1.85-2.41-1.85c-0.33,0-1.28,0.2-5.69,1.84c-5.03,1.88-5.03,2.09-5.03,2.36v22.69
					c0,1.76,0.47,3.29,1.39,4.55c0.96,1.31,1.82,1.95,2.61,1.95c0.73,0,2.64-0.59,5.81-1.83c4.84-1.88,4.84-2.13,4.84-2.41v-23.97
					C65.72,311.81,65.2,310.69,64.19,309.48z M60.02,336.01c-0.48,0.36-0.95,0.55-1.4,0.55c-0.47,0-1.89,0-1.89-2.89v-21.02
					c0.45-0.34,0.92-0.5,1.39-0.5c0.47,0,1.9,0,1.9,2.89V336.01z"/>
			</g>
			<g>
				<path d="M82.44,331.58v4.82c0,0.49-0.6,1.24-5.05,3.04c-4.42,1.79-5.38,2-5.71,2c-0.47,0-0.73-0.5-0.82-0.68
					c-0.19-0.36-0.44-0.9-0.78-1.65c-0.32-0.73-0.63-1.34-0.94-1.85c-0.33-0.6-0.71-0.9-1.17-0.9H67.7v-1.3l0.16-0.08
					c0.45-0.2,1.06-0.49,1.82-0.89c2.73-1.52,2.9-1.52,3.02-1.52c0.59,0,1.14,0.81,1.86,2.69c0.89,2.32,1.29,2.34,1.3,2.34
					c0.22,0,0.43-0.09,0.63-0.27c0.2-0.18,0.28-0.42,0.28-0.73v-5.33c0-1.65-0.59-1.65-0.79-1.65c-0.1,0-0.52,0.11-2.58,1.01
					c-2.39,1.04-2.64,1.04-2.76,1.04c-0.82,0-1.52-0.59-2.08-1.77c-0.52-1.12-0.8-2.49-0.8-4.09v-4.6c0-0.48,0.56-1.22,4.65-3.04
					c4.06-1.8,4.95-2.01,5.27-2.01c0.35,0,0.66,0.2,0.91,0.57c0.2,0.31,0.36,0.55,0.47,0.74c0.12,0.19,0.3,0.5,0.55,0.94
					c0.24,0.44,0.44,0.8,0.61,1.08c0.33,0.6,0.7,0.89,1.17,0.89h0.27v1.31l-0.16,0.07c-0.44,0.2-1.04,0.49-1.77,0.89
					c-2.79,1.53-2.95,1.53-3.07,1.53c-0.58,0-1.08-0.7-1.64-2.27c-0.67-1.85-1.05-1.9-1.08-1.9c-0.14,0-0.5,0-0.5,1.01v5.24
					c0,0.54,0.07,1.43,0.5,1.43c0.04-0.01,0.44-0.14,2.53-1.08c2.26-1.02,2.85-1.13,3.09-1.13c0.8,0,1.49,0.6,2.07,1.79
					C82.16,328.38,82.44,329.84,82.44,331.58z"/>
			</g>
			<g>
				<path d="M100.32,336.94c-0.66-0.15-1.14-0.42-1.43-0.78s-0.45-1.04-0.45-2.02v-12.07c0-1.36-0.45-2.69-1.33-3.95
					c-0.9-1.3-1.88-1.96-2.91-1.96c-0.36,0-1.54,0.25-7.51,2.36l-0.19,0.07v1.75h0.27c2.37,0,3.99,0.31,4.79,0.91
					c0.74,0.56,1.14,1.55,1.17,2.97l-2.07,0.66c-1.49,0.46-3,1.05-4.47,1.76c-1.64,0.8-2.37,1.41-2.37,2v6.99
					c0,1.26,0.45,2.39,1.34,3.38c0.32,0.38,0.7,0.75,1.13,1.08c0.42,0.33,0.71,0.56,0.9,0.66c0.17,0.1,0.3,0.17,0.37,0.23l0.14,0.09
					l5.13-2.74c0.11,0.43,0.38,0.89,0.82,1.36c0.57,0.61,1.19,1.06,1.85,1.33l0.12,0.04l4.91-2.74v-1.31L100.32,336.94z
					 M91.36,336.33c-0.47,0-0.91-0.2-1.3-0.61c-0.39-0.43-0.58-0.95-0.58-1.63v-2.78c0-1.59,0.34-2.71,1.02-3.34
					c0.38-0.35,0.74-0.61,1.06-0.77c0.28-0.13,0.69-0.3,1.21-0.49v9.1C92.27,336.16,91.8,336.33,91.36,336.33z"/>
			</g>
			<g>
				<path d="M134.08,336.94c-0.65-0.15-1.13-0.42-1.42-0.78c-0.31-0.36-0.45-1.04-0.45-2.02v-12.07c0-1.36-0.45-2.69-1.33-3.95
					c-0.91-1.3-1.88-1.96-2.91-1.96c-0.37,0-1.54,0.25-7.51,2.36l-0.19,0.07v1.75h0.27c2.37,0,3.98,0.31,4.79,0.91
					c0.74,0.56,1.13,1.55,1.16,2.97l-2.06,0.66c-1.49,0.46-3,1.05-4.48,1.76c-1.64,0.8-2.37,1.41-2.37,2v6.99
					c0,0.35,0.03,0.69,0.11,1.02c-0.54-0.05-1.02-0.2-1.48-0.42c-1.6-0.66-3.27-3.28-5-7.77c4.35-1.69,4.36-2.06,4.36-2.33v-4.65
					c0-1.34-0.51-2.58-1.53-3.66c-1.03-1.1-1.96-1.65-2.84-1.65c-0.36,0-1.19,0.27-4.42,2.34v-3.42c0-1.3,0.42-2.48,1.22-3.5
					c0.33-0.42,0.74-0.82,1.24-1.21c0.49-0.4,0.87-0.67,1.14-0.81l0.25-0.12l-0.94-1.87l-0.25,0.15c-2.88,1.69-6.2,3.52-9.87,5.45
					l-0.15,0.08v1.64h0.27c0.54,0,0.91,0.12,1.1,0.38c0.22,0.27,0.33,0.78,0.33,1.48v21.1c0,0.58,0.3,1.2,0.89,1.83
					c0.56,0.61,1.18,1.06,1.85,1.33l0.12,0.04l4.56-2.57v-1.32l-0.22-0.04c-1.03-0.21-1.53-1.08-1.53-2.68v-3.09
					c0.57,1.55,1.38,3.35,2.41,5.37c1.49,2.94,2.68,4.31,3.72,4.31c0.47,0,1.52-0.26,5.14-2.6l0.12-0.08v-0.39
					c0.2,0.37,0.45,0.72,0.75,1.06c0.33,0.38,0.71,0.75,1.13,1.08c0.42,0.33,0.72,0.56,0.91,0.66c0.16,0.1,0.3,0.17,0.37,0.23
					l0.14,0.09l5.13-2.74c0.11,0.44,0.38,0.89,0.82,1.36c0.57,0.61,1.19,1.06,1.85,1.33l0.12,0.04l4.91-2.74v-1.31L134.08,336.94z
					 M110.08,325.95l-0.61,0.31c-1.43,0.69-2.23,0.94-2.68,1.02v-6.24l1.09-0.17c1.48,0,2.2,1.09,2.2,3.35V325.95z M125.13,336.33
					c-0.47,0-0.9-0.2-1.29-0.61c-0.39-0.43-0.59-0.95-0.59-1.63v-2.78c0-1.59,0.35-2.71,1.03-3.34c0.37-0.35,0.73-0.6,1.06-0.77
					c0.28-0.13,0.69-0.3,1.21-0.49v9.1C126.05,336.16,125.58,336.33,125.13,336.33z"/>
			</g>
			<g>
				<path d="M43.74,346.08c-1.14-1.37-1.95-2-2.55-2c-0.36,0-1.34,0.34-5.62,2.93c-0.12-0.47-0.43-0.96-0.94-1.5
					c-0.65-0.68-1.3-1.15-1.95-1.41l-0.12-0.04l-4.93,2.78v1.4l0.22,0.04c1.13,0.23,1.67,1.18,1.67,2.93v23.99
					c0,1.51-0.26,2.65-0.78,3.36c-0.56,0.72-1.14,1.09-1.73,1.09h-0.44l1.05,2.11l9.9-4.16v-1.89h-0.27c-0.66,0-1.08-0.2-1.28-0.59
					c-0.23-0.45-0.34-1.24-0.34-2.33v-4.47c1.57-0.5,3.56-1.22,5.92-2.18c3.85-1.55,3.85-1.8,3.85-2.06v-14.41
					C45.4,348.6,44.84,347.39,43.74,346.08z M35.63,365.65v-16.02c0.55-0.37,1.07-0.56,1.53-0.56c1.4,0,2.09,1.03,2.09,3.15v11.35
					c0,0.55-0.72,1.04-1.33,1.36C37.09,365.36,36.32,365.6,35.63,365.65z"/>
			</g>
			<g>
				<path d="M62.82,359.03v2.43l-5.07,2.85l-1.03-0.84v-0.13c0-3.27-0.39-4.06-0.63-4.23c-0.46-0.33-1.15-0.51-2.07-0.54v14.49
					c0,1.75,0.55,2.71,1.68,2.93l0.22,0.04v1.4l-4.93,2.79l-0.12-0.05c-0.72-0.28-1.39-0.77-2-1.43c-0.63-0.68-0.95-1.34-0.95-1.97
					V361.4c0-1.29-0.23-2.27-0.67-2.9c-0.43-0.6-0.87-0.91-1.33-0.91h-0.27v-1.45l5.34-2.91l0.11,0.03
					c0.23,0.07,0.48,0.15,0.79,0.26c0.33,0.12,0.75,0.44,1.3,0.96c0.44,0.43,0.7,0.9,0.8,1.41c0.3-0.2,0.84-0.56,1.82-1.24
					c1.82-1.25,2.38-1.41,2.68-1.41c1.08,0,2.1,0.69,3.01,2.07C62.37,356.65,62.82,357.91,62.82,359.03z"/>
			</g>
			<g>
				<path d="M78.62,355.24c-1.15-1.36-1.97-1.99-2.59-1.99c-0.36,0-1.39,0.21-6.17,1.98c-5.46,2.04-5.46,2.27-5.46,2.56v15.37
					c0,1.9,0.5,3.56,1.51,4.93c1.04,1.41,1.96,2.1,2.81,2.1c0.81,0,2.87-0.65,6.31-1.98c5.25-2.04,5.25-2.33,5.25-2.6v-16.76
					C80.28,357.77,79.72,356.55,78.62,355.24z M70.51,358.66c0.5-0.37,1.02-0.56,1.53-0.56c1.41,0,2.09,1.03,2.09,3.15v13.54
					c-0.52,0.39-1.04,0.6-1.53,0.6c-1.4,0-2.09-1.04-2.09-3.16V358.66z"/>
			</g>
			<g>
				<path d="M91.03,375.99l0.23,0.04v1.4l-4.93,2.79l-0.13-0.05c-0.71-0.28-1.38-0.77-1.99-1.43c-0.63-0.68-0.95-1.34-0.95-1.97
					V356.8h-1.98l0.6-2.49h0.21c0.85,0,1.92-0.6,3.17-1.79c1.27-1.2,2.02-2.5,2.26-3.86l0.03-0.23h1.8v5.51h2.43l-0.58,2.82h-1.85
					v16.3C89.36,374.81,89.91,375.78,91.03,375.99z"/>
			</g>
			<g>
				<path d="M106.55,355.24c-1.15-1.36-1.97-1.99-2.59-1.99c-0.36,0-1.39,0.21-6.17,1.98c-5.46,2.04-5.46,2.27-5.46,2.56v15.37
					c0,1.9,0.5,3.56,1.51,4.93c1.04,1.41,1.96,2.1,2.82,2.1c0.8,0,2.85-0.65,6.3-1.98c5.25-2.04,5.25-2.33,5.25-2.6v-16.76
					C108.21,357.77,107.65,356.55,106.55,355.24z M98.43,358.66c0.5-0.37,1.02-0.56,1.53-0.56c1.41,0,2.09,1.03,2.09,3.15v13.54
					c-0.52,0.39-1.04,0.6-1.53,0.6c-1.4,0-2.09-1.04-2.09-3.16V358.66z"/>
			</g>
			<g>
				<path d="M127.66,361.54v1.38l-0.16,0.08c-0.67,0.31-1.83,0.85-3.44,1.64c-2.48,1.2-2.62,1.2-2.73,1.2
					c-0.47,0-1.04-0.48-2.02-3.97c-0.92-3.24-1.37-3.55-1.45-3.58c-0.2,0-0.38,0.1-0.56,0.28v12.68c0,2.26,0.94,3.61,2.85,4.13
					c1.02,0.24,2.26,0.36,3.69,0.36h0.27v1.82l-0.19,0.07c-7.64,2.56-8.03,2.56-8.19,2.56c-1.02,0-2.04-0.7-3.05-2.08
					c-0.98-1.36-1.49-2.96-1.49-4.77v-15.56c0-0.28,0-0.51,5.48-2.56c4.8-1.77,5.83-1.98,6.19-1.98c0.35,0,0.6,0.42,0.91,1.54
					c0.25,0.9,0.54,1.98,0.86,3.25c0.32,1.24,0.65,2.15,0.98,2.73c0.31,0.51,0.89,0.77,1.78,0.77H127.66z"/>
			</g>
			<g>
				<path d="M142.99,355.24c-1.15-1.36-1.97-1.99-2.59-1.99c-0.36,0-1.39,0.21-6.17,1.98c-5.46,2.04-5.46,2.27-5.46,2.56v15.37
					c0,1.9,0.51,3.56,1.52,4.93c1.03,1.41,1.96,2.1,2.81,2.1c0.8,0,2.86-0.65,6.31-1.98c5.24-2.04,5.24-2.33,5.24-2.6v-16.76
					C144.66,357.77,144.1,356.55,142.99,355.24z M134.89,358.66c0.49-0.37,1.02-0.56,1.53-0.56c1.4,0,2.09,1.03,2.09,3.15v13.54
					c-0.54,0.39-1.05,0.6-1.53,0.6c-1.41,0-2.09-1.04-2.09-3.16V358.66z"/>
			</g>
			<g>
				<path d="M155.64,376.04v1.4l-4.93,2.79l-0.12-0.05c-0.71-0.28-1.39-0.77-2-1.43c-0.62-0.68-0.95-1.34-0.95-1.97v-25.61
					c0-1.75-0.55-2.71-1.67-2.93l-0.22-0.04v-1.4l4.93-2.79l0.12,0.05c0.71,0.28,1.38,0.78,1.99,1.43c0.63,0.68,0.95,1.34,0.95,1.97
					v25.61c0,1.75,0.56,2.71,1.68,2.93L155.64,376.04z"/>
			</g>
		</g>
		<path class="st3" d="M148.61,284.46c-0.89-0.39-1.73-0.88-2.56-1.38c-0.23-0.14-0.34-0.49-0.51-0.74
			c0.25-0.03,0.49-0.07,0.74-0.08c0.19-0.01,0.39-0.04,0.57,0.01c2.47,0.75,4.97,1.4,7.39,2.3c2.93,1.09,5.77,2.4,8.66,3.59
			c0.26,0.11,0.59,0.07,0.89,0.1c-0.18-0.27-0.29-0.65-0.54-0.8c-1.79-1.08-3.58-2.16-5.42-3.16c-5.08-2.74-10.57-4.21-16.24-5.07
			c-2.69-0.41-5.38-0.83-8.07-1.15c-3.52-0.42-7.04-0.77-10.56-1.11c-0.94-0.09-1.89,0-2.84-0.02c-3.77-0.07-7.53-0.14-11.3-0.21
			c-0.38,0.03-0.77,0.06-1.15,0.09c-1.26,0.06-2.52,0.1-3.78,0.18c-0.21,0.01-0.42,0.21-0.62,0.32c0.18,0.22,0.33,0.47,0.55,0.64
			c0.13,0.1,0.36,0.08,0.54,0.11c2.84,0.53,5.73,0.87,8.51,1.62c5.41,1.45,10.82,2.92,16.04,5.08c8.73,3.61,17.14,7.83,25.01,13.03
			c4.74,3.13,9.26,6.59,13.8,10.01c2.04,1.54,3.9,3.31,5.81,5.01c2.73,2.42,5.42,4.88,8.15,7.31c0.11,0.1,0.37,0.04,0.55,0.05
			c0-1.77,0-3.54,0-5.31c-1.54-1.48-3.1-2.93-4.62-4.43c-3.93-3.9-8.39-7.15-12.88-10.37c-6.78-4.87-14.1-8.79-21.55-12.49
			c-2.82-1.4-5.69-2.7-8.52-4.08c-0.55-0.27-1.01-0.71-1.51-1.07c0.59,0.08,1.21,0.08,1.77,0.26c3.48,1.09,7.05,1.99,10.39,3.41
			c5.05,2.13,10.03,4.47,14.87,7.03c3.93,2.08,7.71,4.51,11.39,7.01c3.17,2.16,6.09,4.66,9.16,6.97c0.41,0.31,0.99,0.38,1.49,0.56
			c0-1.26,0-2.53,0-3.79c-3.39-3.28-7.29-5.89-11.31-8.29C163.75,291.3,156.23,287.78,148.61,284.46z"/>
		<path class="st3" d="M1.37,296.94c3.04-1.6,6.04-3.26,9.08-4.85c2.51-1.31,5.01-2.67,7.61-3.75c4.52-1.88,9.07-3.71,13.7-5.29
			c3.31-1.13,6.75-1.95,10.17-2.68c3.72-0.79,7.49-1.37,11.26-1.92c3.24-0.47,6.51-0.86,9.77-1.1c3.01-0.23,6.04-0.23,9.07-0.34
			c0.24-0.01,0.47-0.13,0.71-0.2c-0.22-0.08-0.43-0.18-0.65-0.22c-0.79-0.14-1.58-0.33-2.38-0.38c-4.39-0.27-8.79-0.74-13.18-0.7
			c-7.36,0.05-14.73,0.42-22.09,0.69c-1.68,0.06-3.35,0.23-5.03,0.38c-1.23,0.11-2.47,0.2-3.69,0.42c-4.6,0.85-9.22,1.64-13.78,2.65
			c-3.88,0.86-7.7,1.98-11.55,2.98c0,4.8,0,9.61,0,14.41C0.72,297.01,1.1,297.08,1.37,296.94z"/>
		<path class="st3" d="M64.48,281.51c-3.48,0.47-6.95,1.03-10.37,1.78c-6.8,1.5-13.42,3.68-19.88,6.24
			c-5.33,2.11-10.57,4.47-15.68,7.07c-6.39,3.24-12.43,7.12-18.17,11.43c0,3.41,0,6.83,0,10.24c0.25-0.06,0.56-0.04,0.74-0.19
			c2.58-2.17,5.09-4.43,7.73-6.52c3.97-3.14,7.96-6.28,12.1-9.2c6.45-4.55,13.42-8.18,20.65-11.34c7.32-3.21,14.88-5.7,22.62-7.65
			c2.98-0.75,5.98-1.38,8.97-2.09c0.33-0.08,0.63-0.3,0.94-0.45c-0.31-0.02-0.62-0.09-0.92-0.06C70.3,281,67.37,281.12,64.48,281.51
			z"/>
		<path class="st3" d="M163.4,284.63c-1.03-0.39-2.07-0.76-3.12-1.12c-0.17-0.06-0.37-0.01-0.55,0c0.11,0.07,0.23,0.15,0.34,0.22
			c1.11,0.76,2.2,1.56,3.34,2.27c4.27,2.65,8.55,5.28,12.84,7.9c1.97,1.2,3.97,2.35,5.95,3.52c0-1.52,0-3.03,0-4.55
			c-0.98-0.5-1.98-0.98-2.95-1.5C174.17,288.63,168.78,286.64,163.4,284.63z"/>
		<path d="M164.04,128.1c-0.37-0.55-0.91-0.96-1.53-1.19c0.24-1.04,0.02-2.12-0.69-2.93c-0.56-0.63-1.35-1.02-2.23-1.07
			c-0.07-0.01-0.14-0.01-0.22-0.01c-0.07,0-0.14,0-0.21,0.01c0.04-1.69-0.85-3.24-2.35-3.82c-0.34-0.13-0.69-0.21-1.05-0.23h-0.05
			c0,0-0.01,0-0.02,0h-0.16c-0.09,0-0.19,0.01-0.27,0.01c-0.05,0.01-0.11,0.01-0.16,0.01c-0.16,0.02-0.34,0.05-0.5,0.1
			c-0.56,0.15-1.09,0.44-1.56,0.83c-0.02,0.01-0.04,0.03-0.07,0.05c-0.03,0.03-0.05,0.05-0.08,0.07l-0.04,0.04
			c-0.02-0.03-0.04-0.07-0.05-0.1c-0.02-0.03-0.04-0.08-0.07-0.11c-0.04-0.08-0.1-0.16-0.15-0.23c-0.33-0.49-0.74-0.91-1.22-1.21
			c-0.48-0.32-1.03-0.52-1.62-0.59c-0.08-0.01-0.14-0.01-0.21-0.02c-0.13-0.01-0.26,0-0.39,0c-0.07,0-0.14,0.01-0.22,0.02
			c-0.1,0-0.19,0.02-0.27,0.03c-0.08,0.01-0.14,0.02-0.22,0.04c-0.09,0.02-0.17,0.04-0.26,0.08c-0.07,0.02-0.14,0.03-0.21,0.07
			c-0.09,0.03-0.16,0.07-0.25,0.11c-0.07,0.02-0.13,0.05-0.2,0.09c-0.09,0.04-0.16,0.09-0.24,0.14c-0.07,0.03-0.13,0.07-0.19,0.11
			c-0.09,0.05-0.16,0.12-0.24,0.17c-0.05,0.04-0.11,0.09-0.15,0.13c-0.09,0.07-0.16,0.14-0.24,0.22c-0.04,0.04-0.09,0.08-0.13,0.12
			c-0.11,0.12-0.22,0.25-0.32,0.38l-0.01,0.01c-0.04,0.04-0.09,0.1-0.12,0.15c-0.09,0.13-0.15,0.27-0.21,0.43
			c-0.02,0.05-0.03,0.11-0.04,0.17c-0.05,0.16-0.1,0.34-0.21,0.51c-0.05,0.1-0.12,0.19-0.22,0.26c-0.03,0.03-0.07,0.05-0.11,0.09
			c0,0,0,0-0.01,0.01c-0.04,0.04-0.09,0.1-0.13,0.14c-0.12,0.13-0.24,0.26-0.35,0.39c-0.24,0.27-0.47,0.54-0.7,0.81
			c-0.17,0.2-0.35,0.4-0.52,0.6c-0.17,0.2-0.36,0.38-0.54,0.58c-0.17,0.17-0.4,0.33-0.66,0.44c-0.15,0.08-0.32,0.13-0.48,0.18
			c-1.01,0.24-2.03,0.43-3.05,0.55c-0.21,0.02-0.42,0.03-0.62,0.04h-0.13c-0.11,0-0.23-0.01-0.35-0.02
			c-0.02-0.01-0.05-0.01-0.08-0.01h-0.01c-0.01,0-0.01,0-0.02,0c-0.16-0.03-0.32-0.05-0.47-0.11c-1.13-0.38-2.44-0.21-3.56,0.34
			c-0.04,0.02-0.09,0.04-0.12,0.07c-0.01,0-0.02,0-0.03,0.01c-0.01,0-0.01,0.01-0.02,0.01l-0.01,0.01
			c-0.31,0.15-0.59,0.34-0.85,0.55c-0.11,0.09-0.22,0.16-0.32,0.26c-0.05,0.04-0.1,0.1-0.15,0.14c0,0.01-0.01,0.02-0.01,0.02
			c-0.01,0-0.01,0.01-0.01,0.01c-0.7,0.7-1.16,1.56-1.2,2.5c-0.07,1.53,0.52,3.07,2.1,3.59c0.5,0.16,0.7,0.36,0.74,0.58
			c0.07,0.31-0.14,0.65-0.23,0.96c-0.19,0.7-0.47,1.4-0.86,2.01c-0.22,0.33-0.73,0.68-1.12,0.68c-2.21,0-4.35,0.25-6.46,0.67
			c0,0.04-0.01,0.09-0.01,0.14c-0.59,0.07-1.18,0.13-1.78,0.21c-0.66,0.09-1.28,0.35-1.91,0.58c-0.21,0.17-0.42,0.36-0.62,0.54
			c-0.66,0.15-1.31,0.31-1.98,0.46c-0.55,0.33-1.1,0.66-1.67,0.94c-5.74,2.84-11.51,5.4-18.09,5.92c-3.97,0.31-7.86-0.02-11.78-0.19
			l-11.69-2.84c-5.4-2.2-10.76-5.86-16.82-6.25c-0.38-0.02-0.87-0.4-1.07-0.75c-0.35-0.62-0.6-1.34-0.74-2.06
			c-0.11-0.56-0.6-1.2,0.61-1.51c1.61-0.4,2.3-1.91,2.33-3.44c0-0.12-0.01-0.23-0.02-0.35c-0.54-0.86-1.03-1.76-1.48-2.69
			l-0.03-0.03c-0.23-0.2-0.48-0.38-0.74-0.55c-0.01-0.01-0.03-0.02-0.05-0.03c-0.25-0.15-0.51-0.28-0.79-0.39
			c-0.03-0.02-0.07-0.03-0.11-0.05c-0.26-0.1-0.54-0.19-0.81-0.24c-0.04-0.01-0.08-0.01-0.12-0.02c-0.27-0.05-0.56-0.09-0.83-0.09
			c-0.01,0-0.01,0-0.02,0c-0.35,0-0.69,0.04-1.02,0.13c-0.01,0-0.01,0-0.01,0c-0.22,0.05-0.45,0.08-0.69,0.09h-0.09
			c-0.31,0-0.61-0.04-0.91-0.1c-1.02-0.19-2.02-0.44-3.01-0.74c-0.4-0.12-0.83-0.36-1.09-0.68c-0.34-0.4-0.67-0.82-1-1.25
			c-0.32-0.43-0.63-0.85-0.96-1.27c-0.02-0.03-0.04-0.05-0.07-0.08c-0.02-0.02-0.04-0.05-0.07-0.08c-0.01-0.02-0.03-0.03-0.05-0.05
			c-0.02-0.02-0.03-0.03-0.05-0.05c-0.05-0.05-0.09-0.1-0.12-0.15c-0.15-0.21-0.21-0.44-0.25-0.65c-0.01-0.05-0.02-0.12-0.03-0.17
			c-0.01-0.07-0.04-0.14-0.07-0.21c0-0.01,0-0.01-0.01-0.02c0-0.02-0.01-0.03-0.02-0.04c-0.01-0.02-0.02-0.03-0.03-0.05
			c-0.01-0.02-0.02-0.04-0.03-0.07c0-0.01-0.01-0.03-0.02-0.04c-0.03-0.05-0.07-0.11-0.11-0.16c-0.38-0.59-0.9-1.08-1.48-1.42
			c-0.3-0.16-0.6-0.3-0.93-0.38c-0.16-0.04-0.33-0.09-0.5-0.11c-0.16-0.02-0.34-0.03-0.51-0.03h-0.21c-0.3,0.02-0.59,0.07-0.86,0.15
			c-0.83,0.24-1.55,0.77-2.09,1.47c-0.11,0.14-0.21,0.28-0.3,0.43c-0.04-0.04-0.09-0.09-0.14-0.13c-0.01-0.01-0.02-0.03-0.04-0.04
			c-0.44-0.42-0.95-0.73-1.5-0.92v-0.01c-0.38-0.13-0.78-0.2-1.18-0.2c-0.36,0-0.71,0.04-1.06,0.15c-0.77,0.25-1.4,0.74-1.84,1.39
			c-0.45,0.63-0.71,1.43-0.74,2.27c-0.14-0.01-0.28-0.02-0.43-0.02c-0.89,0-1.71,0.33-2.3,0.93c-0.57,0.57-0.87,1.3-0.92,2.09
			c-0.02,0.26-0.01,0.52,0.03,0.79c-0.15,0.04-0.31,0.11-0.46,0.17c-0.45,0.21-0.83,0.52-1.14,0.92c-0.36,0.46-0.58,1-0.65,1.57
			c-0.02,0.21-0.03,0.4-0.02,0.62c0,0,0,0,0,0.01c0.01,0.02,0.01,0.05,0.01,0.09c0,0.03,0.01,0.07,0.01,0.09
			c0.02,0.12,0.02,0.24,0.05,0.36c0.01,0.03,0.02,0.08,0.02,0.11c0.01,0.03,0.02,0.08,0.03,0.11c0,0.01,0.01,0.01,0.01,0.02
			c0.13,0.2,0.26,0.39,0.38,0.6c0.05,0.08,0.1,0.15,0.15,0.23c0.2,0.32,0.4,0.63,0.6,0.96c0,0.01,0.01,0.01,0.01,0.02h0.01V131
			c0.81,1.29,1.62,2.57,2.53,3.77c0.31,0.4,0.62,0.79,0.95,1.17c0.82,0.94,1.63,1.91,2.52,2.82c0.87,0.91,1.82,1.76,2.91,2.46
			c0.17,0.1,0.33,0.24,0.46,0.39c0.14,0.16,0.26,0.34,0.38,0.52c0.24,0.38,0.43,0.8,0.58,1.19c0.08,0.19,0.12,0.37,0.16,0.57
			c0.11,0.59,0.09,1.21,0.22,1.8c0.47,2.11,1.12,4.14,1.95,6.08c0.27,0.65,0.57,1.29,0.89,1.91c1.27,2.49,2.85,4.83,4.77,6.99
			c0.19,0.21,0.37,0.42,0.56,0.62c0.03,0.02,0.05,0.04,0.09,0.08c0.21,0.23,0.43,0.47,0.66,0.7c0.39,0.39,0.79,0.79,1.19,1.16
			c0.28,0.27,0.58,0.54,0.87,0.8c0.08,0.07,0.15,0.13,0.23,0.2c0.03,0.03,0.08,0.08,0.12,0.11c0.02,0.02,0.05,0.04,0.09,0.07
			c0.2,0.17,0.39,0.34,0.6,0.5c0.2,0.15,0.4,0.32,0.6,0.47c0.07,0.07,0.14,0.12,0.21,0.16c0.11,0.08,0.21,0.16,0.32,0.24
			c0.1,0.07,0.19,0.13,0.28,0.2c0.24,0.18,0.47,0.34,0.71,0.49c0.03,0.03,0.07,0.05,0.1,0.08c0.16,0.11,0.33,0.22,0.49,0.32
			c0.17,0.11,0.35,0.22,0.52,0.33c0.02,0.02,0.05,0.03,0.08,0.04c0.01,0.01,0.02,0.02,0.03,0.02c0.2,0.12,0.39,0.23,0.59,0.34
			c0.2,0.11,0.4,0.22,0.6,0.33c0.04,0.03,0.1,0.05,0.14,0.08c0.02,0.01,0.04,0.02,0.07,0.04c0.14,0.07,0.28,0.14,0.43,0.21
			c0.14,0.08,0.28,0.14,0.43,0.21c0.14,0.07,0.28,0.13,0.43,0.2c0.08,0.03,0.14,0.07,0.22,0.1c0.5,0.22,1.02,0.43,1.54,0.61
			c0.74,0.26,1.33,0.56,1.82,0.92c0.27,0.2,0.51,0.4,0.72,0.65c0.01,0.01,0.02,0.02,0.03,0.04c0.11,0.11,0.2,0.23,0.28,0.36
			c0.01,0.01,0.01,0.01,0.02,0.02c0.02,0.03,0.04,0.07,0.05,0.1c0.05,0.08,0.11,0.15,0.15,0.24c0,0,0.01,0.01,0.01,0.02
			c0.04,0.08,0.09,0.15,0.12,0.23c0.04,0.09,0.09,0.17,0.12,0.26c0.04,0.09,0.09,0.18,0.12,0.27c0.03,0.08,0.07,0.15,0.09,0.23
			c0.03,0.08,0.05,0.15,0.09,0.24c0.11,0.33,0.21,0.69,0.31,1.07c1.66,6.63,3.89,13.12,5.86,19.68c0.08,0.23,0.11,0.49,0.11,0.75
			v0.1c0,0.23-0.03,0.46-0.1,0.67c-0.66,2.18-1.43,4.33-2.1,6.51c-0.23,0.74-0.5,1.5-0.75,2.24c-0.16,0.5-0.33,1.01-0.47,1.51
			c-0.21,0.75-0.36,1.51-0.4,2.27c-0.04,0.74-0.07,1.49-0.07,2.24c0,2.5,0.21,5.01,0.4,7.51c0.05,0.75,0.16,1.52,0.33,2.27
			c0.09,0.38,0.19,0.75,0.3,1.12c0.11,0.37,0.24,0.73,0.38,1.08c0.87,2.14,1.75,4.29,2.67,6.41c0.92,2.13,1.87,4.23,2.88,6.32
			c0.43,0.89,0.69,1.69,0.78,2.53c0.02,0.2,0.03,0.4,0.03,0.62c-0.01,0.62-0.12,1.28-0.34,1.99c-0.79,2.49-1.37,5.04-1.52,7.58
			c-0.03,0.48-0.04,0.96-0.04,1.43c0,1.44,0.14,2.89,0.46,4.31c0.14,0.65,0.32,1.28,0.54,1.91c0.46,1.38,0.94,2.76,1.44,4.12
			c0.98,2.74,2.02,5.47,3.06,8.2c0.51,1.36,1.03,2.72,1.53,4.09c0.27,0.74,0.47,1.51,0.8,2.23c0.1,0.22,0.2,0.45,0.3,0.67
			c0.27,0.68,0.51,1.37,0.69,2.06c0.15,0.63,0.24,1.28,0.24,1.94c0,0.32-0.02,0.63-0.07,0.95c-0.38,2.76-0.63,5.55-1.3,8.26
			c-0.87,3.46-1.53,6.92-1.53,10.5c0,0.34,0.01,0.69,0.02,1.04c0.01,0.28,0.03,0.55,0.09,0.81c-0.01,0.01-0.01,0.02,0,0.03
			c0,0.01,0,0.02,0.01,0.03c0.03,0.19,0.07,0.36,0.12,0.54c0.04,0.17,0.1,0.35,0.19,0.5c0.02,0.08,0.05,0.15,0.1,0.22
			c0.07,0.13,0.13,0.25,0.22,0.36c0.09,0.13,0.2,0.25,0.31,0.37c0.23,0.24,0.5,0.44,0.83,0.6c1.42,0.73,3.01,1.39,4.58,1.56
			c1.04,0.12,2.09,0.2,3.14,0.25c0.23,0.01,0.45,0.03,0.67,0.04c1.03,0.04,2.04,0.07,3.06,0.08h0.14c0.59,0,1.19-0.01,1.78-0.02
			c1.76-0.04,3.58-0.35,5.26-0.89c1.56-0.51,3.29-1.21,3.77-3.04c0.39-1.49,0.66-3.07,0.59-4.6c-0.16-4.16-1.17-8.18-2.19-12.2
			c-0.82-3.24-1.38-6.54-1.29-9.92c0.08-3.16-0.09-6.33,0.08-9.48c0.13-2.71,0.44-5.42,0.95-8.09c0.46-2.44,1.24-4.8,0.93-7.33
			c-0.04-0.44,0.03-0.89,0.05-1.32c0.01-0.14,0.02-0.25,0.04-0.36c0-0.03,0.01-0.07,0.01-0.09c0.02-0.09,0.04-0.15,0.07-0.22
			c0.01-0.02,0.02-0.04,0.03-0.05c0.03-0.08,0.08-0.13,0.14-0.16c0.01-0.01,0.03-0.01,0.04-0.02c0.05-0.02,0.11-0.04,0.19-0.04
			c0.01,0,0.02-0.01,0.03-0.01s0.03,0.01,0.04,0.01c0.07,0,0.13,0.01,0.2,0.03c0.03,0,0.07,0.01,0.1,0.02
			c0.12,0.03,0.24,0.07,0.38,0.13c0.07,0.02,0.12,0.05,0.17,0.09c0.03,0.01,0.07,0.02,0.09,0.04l0.01,0.01
			c0.05,0.02,0.09,0.04,0.13,0.08c0,0,0.01,0,0.01,0.01c0.04,0.03,0.09,0.07,0.13,0.11c0.03,0.03,0.07,0.08,0.1,0.12
			c0.07,0.09,0.11,0.19,0.14,0.3c0.04,0.12,0.07,0.25,0.1,0.4c0.65,3.21,1.42,6.4,3.66,8.98c0.58,0.67,1.14,1.33,1.72,2.01h0.04
			c0.01-0.01,0.02-0.01,0.02-0.01c0.01,0,0.01,0,0.02,0.01c0.01,0.01,0.02,0,0.03,0.01h0.03c0,0,0,0,0,0.01
			c0.02,0.01,0.04,0.03,0.05,0.05c0,0,0.01,0,0.01,0.01c0,0,0,0,0.01,0.01c0,0,0.01,0.01,0.01,0.02c0.84,0.05,1.68,0.1,2.52,0.15
			c0.72-0.04,1.44-0.08,2.17-0.12c0.37-0.04,0.77-0.03,1.13-0.14c5.59-1.72,9.35-7.07,10.25-13.18c0.5-3.43-0.36-6.65-1.04-9.92
			c-0.12-0.57-0.25-1.15-0.32-1.73c-0.08-0.58-0.09-1.16,0.03-1.68c0.63-2.76,1.66-5.41,2.31-8.17c0.93-3.95,0.65-7.92-0.11-11.9
			c-0.72-3.78-2.31-7.26-3.62-10.84c-1.1-3.04-2.34-6.07-0.74-9.4c0.93-1.95,1.51-4.06,2.19-6.11c1.57-4.8,3.11-9.62,4.69-14.42
			c0.13-0.37,0.58-0.83,0.95-0.92c2.79-0.6,5.31-1.66,7.68-3.03c1.17-0.69,2.31-1.45,3.41-2.26c1.1-0.82,2.17-1.71,3.21-2.61
			c2.93-2.55,5.38-5.41,7.3-8.61c-0.01-0.04-0.02-0.09-0.01-0.13c-0.01-0.02-0.01-0.05-0.01-0.08c-0.01-0.02-0.01-0.05-0.01-0.08
			c0-0.05,0-0.11,0.01-0.17c0-0.01,0.01-0.01,0.01-0.02v-0.01c0.05-0.09,0.11-0.19,0.15-0.27c0.2-0.37,0.39-0.74,0.58-1.13
			c0.12-0.25,0.23-0.49,0.34-0.74c0.16-0.35,0.32-0.69,0.47-1.05c0.11-0.26,0.21-0.52,0.31-0.79c0.14-0.36,0.28-0.71,0.4-1.07
			c0.22-0.61,0.42-1.24,0.6-1.87c0.22-0.77,0.2-1.63,0.54-2.34c0.36-0.75,0.86-1.63,1.55-2.01c2.26-1.27,3.99-3.16,5.75-4.93
			c1.41-1.42,2.59-3.06,3.78-4.7c0.43-0.59,0.84-1.18,1.28-1.76c0.03-0.08,0.05-0.15,0.08-0.23c0.03-0.09,0.04-0.17,0.07-0.26
			c0.02-0.09,0.03-0.18,0.04-0.26c0.01-0.07,0.02-0.14,0.02-0.21c0.01-0.14,0.01-0.3,0-0.44
			C164.55,129.14,164.36,128.58,164.04,128.1z M54.79,126c1.59-0.03,2.54,0.93,2.53,2.54c-0.01,1.38-0.84,2.37-2.01,2.41
			c-1.24,0.04-2.18-1.05-2.17-2.49C53.15,126.86,53.72,126.02,54.79,126z M39.16,121.57c0-0.16,0-0.33,0.01-0.48
			c0.05-0.5,0.21-0.95,0.44-1.33c0.13-0.22,0.3-0.39,0.47-0.56l0.1-0.1c0.04-0.02,0.08-0.04,0.11-0.07
			c0.31-0.22,0.66-0.36,1.04-0.38h0.11c0.2,0,0.38,0.03,0.56,0.09c0.01,0,0.02,0.01,0.03,0.01h0.03c0.02,0.01,0.03,0.01,0.05,0.02
			c0.04,0.01,0.09,0.04,0.12,0.05c0.04,0.02,0.09,0.04,0.13,0.07c0.12,0.05,0.23,0.13,0.34,0.21c0.01,0.01,0.01,0.01,0.01,0.01
			c0.01,0.01,0.01,0.01,0.01,0.01c0.05,0.04,0.1,0.08,0.14,0.12c0.04,0.04,0.09,0.1,0.14,0.14c0.01,0,0.01,0.01,0.02,0.03
			c0,0,0.01,0.01,0.02,0.01c0.07,0.09,0.14,0.17,0.21,0.27c0.01,0.01,0.02,0.03,0.03,0.05c0.03,0.05,0.07,0.12,0.1,0.17
			c0.03,0.04,0.05,0.08,0.08,0.12c0,0,0,0,0,0.01c0.01,0.02,0.02,0.04,0.03,0.08c0.02,0.04,0.04,0.09,0.05,0.13
			c0.02,0.03,0.03,0.08,0.05,0.13c0.01,0.02,0.01,0.03,0.02,0.05c0.02,0.05,0.04,0.11,0.05,0.16c0.01,0.05,0.03,0.12,0.04,0.17
			c0,0.02,0,0.04,0.01,0.05c0.01,0.07,0.02,0.12,0.03,0.19c0.01,0.1,0.02,0.21,0.03,0.31v0.07c0,0.22-0.01,0.43-0.04,0.63
			c-0.01,0.07-0.02,0.14-0.04,0.22c0,0.01,0,0.03-0.01,0.05c-0.02,0.11-0.04,0.2-0.09,0.3c-0.02,0.07-0.04,0.14-0.08,0.21
			c-0.02,0.04-0.03,0.09-0.05,0.13c0,0.01-0.01,0.01-0.01,0.02c-0.01,0.02-0.01,0.02-0.02,0.03c-0.11,0.23-0.26,0.43-0.42,0.6
			c-0.02,0.01-0.04,0.03-0.05,0.05c-0.16,0.16-0.35,0.3-0.55,0.4c-0.01,0.01-0.02,0.02-0.04,0.03c-0.03,0.01-0.05,0.02-0.09,0.03
			c-0.03,0.02-0.08,0.03-0.13,0.04c-0.07,0.03-0.13,0.04-0.21,0.07l-0.2,0.03c-0.04,0.01-0.09,0.02-0.13,0.02h-0.11
			c-0.12,0-0.23-0.01-0.35-0.03c-0.05-0.01-0.12-0.02-0.17-0.04c-0.04-0.01-0.09-0.02-0.13-0.03c-0.01-0.01-0.02-0.01-0.04-0.02
			c-0.03-0.01-0.08-0.02-0.11-0.04c-0.04-0.02-0.09-0.04-0.13-0.07c-0.07-0.03-0.14-0.08-0.21-0.12c0-0.01-0.01-0.01-0.02-0.02
			c-0.04-0.02-0.08-0.05-0.12-0.09c-0.07-0.04-0.12-0.1-0.19-0.16c-0.12-0.12-0.23-0.25-0.33-0.39c-0.01,0-0.01-0.01-0.01-0.01
			v-0.01l-0.01-0.01c-0.03-0.04-0.05-0.08-0.09-0.12c-0.01-0.03-0.03-0.05-0.04-0.09c-0.04-0.08-0.09-0.15-0.12-0.24
			c-0.08-0.15-0.14-0.32-0.19-0.49c-0.07-0.22-0.1-0.45-0.11-0.69V121.57z M33.37,121.39c0-0.09,0.01-0.17,0.02-0.26
			c0-0.03,0.01-0.08,0.01-0.11c0.01-0.04,0.02-0.09,0.03-0.13c0.01-0.04,0.02-0.09,0.03-0.13c0-0.02,0.01-0.03,0.01-0.04
			c0.04-0.12,0.09-0.24,0.14-0.35c0.02-0.04,0.04-0.08,0.07-0.12c0.04-0.07,0.09-0.13,0.13-0.2c0.05-0.07,0.11-0.13,0.17-0.19
			c0.04-0.05,0.1-0.1,0.15-0.13l0.04-0.04c0.13-0.09,0.28-0.16,0.44-0.22c0.09-0.03,0.16-0.02,0.24-0.04
			c0.09-0.01,0.16-0.03,0.24-0.03c0.11,0,0.21,0.01,0.32,0.03c0.01,0,0.03,0.01,0.04,0.01c0.11,0.02,0.22,0.07,0.33,0.1
			c0.08,0.03,0.15,0.08,0.23,0.12c0.02,0.01,0.05,0.02,0.08,0.04c0.01,0.01,0.02,0.01,0.03,0.02h0.01c0.05,0.04,0.1,0.08,0.14,0.11
			c0.04,0.04,0.09,0.08,0.13,0.11c0.08,0.07,0.14,0.13,0.21,0.2c0.04,0.05,0.08,0.1,0.12,0.15c0.03,0.04,0.07,0.09,0.1,0.13
			c0.03,0.04,0.05,0.08,0.08,0.11c0.04,0.08,0.09,0.16,0.13,0.24c0.01,0.02,0.01,0.03,0.02,0.04c0.05,0.11,0.1,0.22,0.14,0.34
			c0,0.02,0.01,0.04,0.02,0.07v0.01c0.01,0.01,0.01,0.02,0.01,0.04c0.04,0.11,0.04,0.23,0.07,0.34c0.07,0.3,0.09,0.6,0.04,0.87
			c-0.01,0.12-0.03,0.23-0.08,0.34c0,0.01,0,0.03-0.01,0.04c-0.02,0.11-0.07,0.21-0.11,0.3c-0.07,0.14-0.14,0.27-0.23,0.38
			c-0.04,0.05-0.1,0.11-0.14,0.16c-0.04,0.05-0.1,0.1-0.16,0.15c-0.05,0.04-0.11,0.08-0.17,0.12c-0.11,0.07-0.22,0.13-0.34,0.16
			c-0.16,0.05-0.32,0.08-0.48,0.08c-0.2,0-0.39-0.04-0.59-0.11c-0.08-0.03-0.14-0.04-0.21-0.08c-0.34-0.16-0.63-0.44-0.89-0.78
			c-0.1-0.13-0.17-0.26-0.25-0.4c-0.09-0.14-0.15-0.3-0.2-0.46c-0.03-0.09-0.05-0.17-0.07-0.26c-0.05-0.2-0.07-0.39-0.07-0.59
			c0-0.02-0.01-0.03-0.01-0.05C33.36,121.45,33.37,121.42,33.37,121.39z M30.64,129.59l-0.13,0.13c-0.26,0.25-0.62,0.38-1.01,0.38
			c-0.42,0-0.85-0.14-1.24-0.44c-0.02-0.01-0.03-0.03-0.05-0.04c-0.55-0.47-0.81-1.14-0.7-1.72c0.04-0.2,0.12-0.38,0.25-0.55
			c0.03-0.04,0.07-0.08,0.1-0.11c0.03-0.03,0.07-0.05,0.1-0.09c0.01-0.01,0.03-0.02,0.04-0.03c0.02-0.01,0.03-0.02,0.05-0.03
			c0.08-0.04,0.15-0.09,0.23-0.12c0.11-0.04,0.21-0.1,0.33-0.12c0.09-0.01,0.19-0.02,0.28-0.02c0.42,0,0.85,0.14,1.24,0.44
			c0.24,0.2,0.4,0.43,0.54,0.67c0.09,0.15,0.16,0.32,0.2,0.48c0.03,0.14,0.04,0.28,0.03,0.43C30.89,129.12,30.8,129.37,30.64,129.59
			z M31.18,126.51c-0.03-0.02-0.07-0.02-0.1-0.03c-0.25-0.11-0.49-0.27-0.71-0.49c-0.15-0.15-0.27-0.33-0.37-0.5
			c-0.09-0.14-0.15-0.3-0.2-0.45c-0.01-0.01-0.01-0.03-0.01-0.04c-0.02-0.05-0.03-0.1-0.04-0.15c0-0.01,0-0.01,0-0.02
			c0-0.01,0-0.01,0-0.02c-0.01-0.03-0.02-0.07-0.01-0.1c-0.01-0.01-0.01-0.02-0.01-0.03c-0.01-0.02-0.01-0.04-0.01-0.07v-0.04
			c0-0.1,0.01-0.21,0.02-0.31c0.02-0.1,0.04-0.2,0.08-0.28c0.07-0.14,0.15-0.28,0.26-0.39l0.01-0.01c0.03-0.03,0.05-0.05,0.09-0.08
			c0.01-0.02,0.03-0.03,0.04-0.03c0.01-0.01,0.03-0.02,0.05-0.03l0.01-0.01c0.22-0.15,0.48-0.22,0.77-0.22h0.07
			c0.05,0,0.1,0,0.15,0.01c0,0,0,0,0.01,0c0.05,0.01,0.13,0.02,0.2,0.03c0.04,0.01,0.1,0.03,0.14,0.04
			c0.03,0.01,0.05,0.02,0.09,0.04c0.03,0,0.05,0.02,0.09,0.03c0.02,0.01,0.03,0.01,0.05,0.02c0.12,0.05,0.24,0.12,0.35,0.2
			c0.09,0.07,0.17,0.13,0.26,0.22c0.02,0.01,0.03,0.02,0.05,0.05h0.01c0.1,0.1,0.19,0.2,0.25,0.31c0.15,0.22,0.26,0.45,0.33,0.68
			c0.03,0.12,0.05,0.24,0.07,0.35v0.16c0,0.08-0.01,0.16-0.02,0.24c0,0.01,0,0.01,0,0.02c-0.01,0.08-0.03,0.15-0.07,0.23
			c0,0.01,0,0.01,0,0.01c-0.03,0.08-0.08,0.15-0.12,0.22c0,0.01,0,0.01,0,0.01c-0.04,0.07-0.1,0.13-0.16,0.2
			c-0.02,0.02-0.05,0.03-0.08,0.05c-0.17,0.15-0.37,0.26-0.6,0.3H32.1c-0.08,0.01-0.17,0.02-0.26,0.02c-0.12,0-0.25-0.01-0.38-0.04
			C31.37,126.58,31.27,126.55,31.18,126.51z M58.38,164.52c-0.21-0.07-0.45-0.09-0.62-0.2c-0.22-0.14-0.45-0.27-0.67-0.4
			c-1.2-0.73-2.41-1.43-3.52-2.25c-2.83-2.08-5.35-4.45-7.34-7.38c-2.08-3.03-2.84-6.5-3.65-9.95c-0.39-1.66-0.83-3.01-2.32-4.2
			c-2.36-1.88-4.32-4.25-6.47-6.38c-0.61-0.6-0.46-0.97,0.02-1.57c1.15-1.43,2.59-1.63,4.22-1.21c0.65,0.16,1.27,0.42,1.91,0.58
			c0.19,0.04,0.4-0.09,0.62-0.13c-0.15-0.15-0.28-0.42-0.45-0.45c-1.2-0.28-2.44-0.43-3.6-0.8c-1.64-0.52-2.62,0.17-3.51,1.43
			c-0.21,0.3-0.36,0.46-0.5,0.49v0.01c-0.01,0-0.01,0-0.01,0c-0.03,0-0.05-0.02-0.07-0.04c-0.01,0-0.01-0.01-0.01-0.02
			c-0.01,0-0.01-0.02-0.01-0.03c-0.01-0.01-0.01-0.03-0.01-0.04c0-0.02,0-0.04,0.01-0.08c0-0.01,0-0.02,0.01-0.03v-0.01
			c0-0.01,0-0.02,0.01-0.03c0-0.01,0-0.02,0.01-0.04c0-0.01,0.01-0.03,0.02-0.05c0.01-0.04,0.03-0.1,0.05-0.15
			c0.02-0.05,0.05-0.11,0.09-0.17c0.12-0.25,0.3-0.54,0.48-0.84c0.04-0.08,0.1-0.15,0.15-0.24c0.05-0.08,0.1-0.15,0.15-0.23
			l0.16-0.23c0.25-0.38,0.51-0.73,0.69-0.98c0.1-0.13,0.17-0.23,0.22-0.3c0.02-0.02,0.02-0.02,0.02-0.03c0-0.01,0.01-0.01,0.02-0.02
			c0-0.01,0.01-0.01,0.01-0.01c0.4-0.72,0.77-1.27,1.14-1.68c0.12-0.13,0.25-0.25,0.38-0.36c0.5-0.43,1.07-0.61,1.78-0.61
			c0.58,0,1.26,0.12,2.1,0.34c0.96,0.25,2.01,0.19,3.02,0.26c0,0,0-0.01-0.01-0.02c0.02,0.01,0.03,0.02,0.05,0.03
			c-0.01,0-0.02-0.01-0.04-0.01c1.13,2.24,2.19,4.52,3.39,6.71c0.22,0.4,0.51,0.73,0.85,1c0.83,0.65,1.92,0.86,2.82,0.56
			c0.09-0.03,0.17-0.09,0.27-0.12c-0.09-0.08-0.16-0.2-0.26-0.22c-2.11-0.54-3.02-2.17-3.75-4.01c-0.75-1.88,0.5-4.41,2.48-4.71
			c0.61-0.1,1.26-0.05,1.89-0.01c0.93,0.04,1.27,0.72,0.95,1.43c-0.69,1.59-0.26,2.84,0.71,4.14c0.71,0.95,0.8,2.08-0.03,3.09
			c-0.09,0.1-0.21,0.19-0.23,0.3c-0.39,2.02-1.84,3.12-3.3,4.23c-0.24,0.19-0.48,0.37-0.71,0.56c-0.74,0.6-1.18,1.57-1.74,2.38
			c-0.09,0.11-0.1,0.27-0.14,0.42c0.16-0.02,0.38,0.02,0.48-0.07c0.85-0.7,1.64-1.47,2.49-2.14c0.21-0.16,0.42-0.32,0.62-0.47
			c0.83-0.58,1.8-1.03,2.77-1.33c0.95-0.31,1.71,0.11,2.01,1.13c0.28,0.89,0.69,1.74,0.82,2.64c0.24,1.53,0.32,3.09,0.47,4.65
			c0.23,2.27,0.59,4.55,0.7,6.85c0.17,3.61,0.95,7.09,1.94,10.54C58.49,164.13,58.4,164.34,58.38,164.52z M74.97,252.05
			c-0.62-3.37-0.72-7.11,1.02-10.25c1.88-3.41,0.96-6.3-0.51-9.4c-1.69-3.56-3.26-7.2-4.68-10.87c-1.08-2.82-1.38-5.84-1.55-8.85
			c0-1.03,0.01-2.04,0.02-3.06c-0.04-2.58,0.52-5.04,1.31-7.48c0.36-1.1,0.73-1.22,1.75-0.73c4.55,2.22,9.44,3.59,14.41,4.12
			c3.96,0.42,8.03-0.03,12.03-0.31c2.44-0.16,4.87-0.62,7.27-1.13c2.14-0.45,4.25-1.09,6.35-1.73c1.12-0.34,1.92-0.26,2.26,1.02
			c0.02,0.07,0.04,0.12,0.07,0.18c0.35,0.77,0.69,1.53,1.03,2.3c-0.79,0.07-1.59,0.12-2.38,0.21c-4.41,0.5-8.26,2.29-11.81,4.89
			c-3.01,2.2-5.07,5.07-6.68,8.38c-1,2.07-1.57,2.18-2.73,0.37c-1.49-2.31-3.64-3.79-5.83-5.17c-3.84-2.43-7.62-4.89-10.72-8.27
			c-0.26-0.28-0.56-0.52-0.85-0.75c-0.11-0.08-0.31-0.05-0.47-0.08c0.04,0.16,0.03,0.34,0.12,0.46c0.8,1.17,1.53,2.39,2.44,3.47
			c2.29,2.68,5.14,4.64,8.08,6.53c1.6,1.03,3.13,2.21,4.56,3.46c1.45,1.28,1.25,1.6,0.37,3.38c-1.92,3.88-2.6,7.95-0.94,12.14
			c1.39,3.51,2.93,6.97,4.19,10.52c0.73,2.07,1.08,4.21,0.39,6.53c-0.62,2.1-0.6,4.4-0.85,6.62c-0.26,2.27-0.63,4.55-0.73,6.83
			c-0.12,2.81-0.02,5.62-0.01,8.43c0,2.48-0.15,4.99,0.7,7.39c0.05,0.13-0.05,0.33-0.1,0.49c-0.12-0.12-0.25-0.24-0.36-0.38
			c-1.79-2.3-5.52-2.09-7.57-0.63c-0.17,0.13-0.39,0.2-0.6,0.3c-0.02-0.24-0.13-0.52-0.05-0.74c1.02-3.08-0.27-5.82-1.39-8.53
			c-1.24-3-2.76-5.87-3.93-8.89C77.21,259.27,75.65,255.72,74.97,252.05z M87.62,194.9c-0.02-0.94,0.21-1.44,1.26-1.26
			c0.31,0.07,0.63,0.02,0.95,0.03c1.88-0.02,3.76-0.03,5.64-0.05c0.27,0.43,0.78,0.84,0.8,1.28c0.09,2.39,0.04,4.79,0.05,7.18
			c0.01,0.83-0.28,1.28-1.21,1.26c-2.21-0.03-4.42-0.03-6.63,0.03c-0.93,0.03-0.82-0.54-0.82-1.09
			C87.64,199.82,87.67,197.36,87.62,194.9z M90.59,283.75c1.42,0.11,2.09,1.1,2.57,2.26c0.09,0.2,0.03,0.45,0.04,0.67
			c-0.14-0.1-0.3-0.2-0.44-0.3c-0.45-0.33-0.87-0.67-1.33-0.96c-2.89-1.89-5.71-1.79-8.07,0.49c-0.15,0.13-0.32,0.27-0.48,0.42
			c0.08-0.24,0.14-0.47,0.22-0.7c0.26-1.2,1.36-2.24,2.68-2.24C87.38,283.4,88.98,283.63,90.59,283.75z M86.01,281.69
			c0.65-0.07,1.29-0.21,1.94-0.19c0.4,0.02,0.81,0.27,1.21,0.42h-1.55C87.23,281.87,86.63,281.78,86.01,281.69z M92.6,299.67
			c-1.73,0.23-3.47,0.31-5.43,0.46c-1.33-0.12-2.88-0.26-4.42-0.43c-0.94-0.09-1.67-0.62-1.49-1.53c0.12-0.56,0.82-1.28,1.4-1.43
			c3.26-0.86,6.51-0.43,9.72,0.35c0.23,0.05,0.51,0.16,0.65,0.34c0.3,0.42,0.75,0.93,0.69,1.33
			C93.66,299.12,93.02,299.62,92.6,299.67z M94.36,296.39c-2.22-1.19-4.7-1.43-7.16-1.62c-2.07-0.15-4.04,0.36-5.9,1.29
			c-1.22,0.6-1.24,0.57-1.49-0.85c0.73-2.2,1.2-4.54,2.26-6.57c1.61-3.05,6.11-3.73,9.32-1.8c2.36,1.42,3.44,3.58,3.9,6.16
			c0.15,0.85,0.3,1.71,0.36,2.56C95.71,296.53,95.47,296.99,94.36,296.39z M118.53,217.84c-0.65,6.04-1.13,11.85-3.63,17.21
			c-1.5,3.21-3.85,5.77-7.18,7.22c-0.95,0.42-2.01,0.6-3.03,0.84c-0.3,0.07-0.62-0.02-0.94-0.04c0.26-0.08,0.54-0.12,0.79-0.23
			c4.24-1.77,7.62-4.49,9.51-8.8c0.11-0.26,0.09-0.58,0.12-0.87c-0.23,0.2-0.52,0.36-0.69,0.6c-1.36,1.94-2.8,3.74-4.66,5.29
			c-2.56,2.11-5.47,2.14-8.32,1.73c-2.2-0.32-4.36-1.24-6-3.01c-1.09-1.19-1.79-2.48-1.91-4.11c-0.18-2.46,0.05-4.84,0.97-7.16
			c1.57-3.96,3.23-7.91,5.99-11.18c3.52-4.18,7.79-7.29,13.4-8.09c0.62-0.09,1.27-0.08,1.89-0.05c1.17,0.04,2.03,0.48,2.25,1.77
			c0.31,1.82,0.66,3.62,0.96,5.43C118.25,215.61,118.4,216.85,118.53,217.84z M120.69,165.69c-0.27,6.41-1.68,12.56-4.41,18.41
			c-0.51,1.12-0.77,2.35-1.31,3.46c-0.26,0.54-0.83,1.14-1.38,1.3c-8.17,2.38-16.53,3-25,2.61c-0.52-0.03-1.05-0.08-1.57-0.11
			c-1.65-0.09-3.34,0.03-4.93-0.3c-3.4-0.71-6.75-1.69-10.15-2.46c-0.94-0.22-1.33-0.74-1.55-1.55c-1.07-3.89-2.22-7.79-3.14-11.72
			c-0.36-1.5-0.19-3.13-0.25-4.7c-0.03-0.27-0.07-0.54-0.1-0.79c-0.03-3.23-0.35-6.47-0.02-9.66c0.36-3.48,1.29-6.88,2-10.31
			c0.27-1.26,0.63-2.49,0.96-3.74c0.11-0.38,0.25-0.74,0.38-1.1c0.25,0.33,0.54,0.63,0.73,0.98c1.54,2.68,3.55,4.87,6.24,6.48
			c2.89,1.74,6.01,2.76,9.28,3.03c4.19,0.34,8.42,0.55,12.61,0.34c3.41-0.17,6.75-1.13,9.97-2.43c3.7-1.5,6.23-4.2,8.43-7.35
			c0.19-0.26,0.45-0.47,0.68-0.7c0.09,0.27,0.21,0.54,0.25,0.82c0.33,1.74,0.7,3.49,0.95,5.25c0.36,2.56,0.69,5.13,0.94,7.7
			C120.52,161.33,120.78,163.53,120.69,165.69z M153.2,123.57c0-0.12,0.01-0.24,0.02-0.36c0.02-0.24,0.08-0.48,0.16-0.72
			c0-0.02,0.01-0.03,0.01-0.04c0-0.01,0-0.01,0-0.01l0.01-0.01c0.08-0.2,0.17-0.37,0.28-0.54c0.01-0.02,0.01-0.04,0.02-0.05
			c0.02-0.03,0.04-0.07,0.07-0.1c0.01-0.01,0.01-0.01,0.02-0.02c0.01-0.01,0.01-0.02,0.02-0.02c0.08-0.1,0.14-0.17,0.22-0.25
			c0-0.01,0-0.01,0.01-0.02c0.07-0.05,0.12-0.11,0.17-0.15c0.02-0.01,0.03-0.03,0.05-0.04c0.03-0.02,0.05-0.04,0.09-0.07
			c0.08-0.05,0.15-0.1,0.23-0.14c0.04-0.03,0.07-0.04,0.11-0.05c0.01-0.01,0.02-0.02,0.03-0.02c0.03-0.02,0.08-0.03,0.11-0.05
			c0.03-0.01,0.07-0.02,0.1-0.03c0.01,0,0.03-0.01,0.05-0.02c0.08-0.02,0.15-0.03,0.24-0.05c0,0,0.01,0,0.02,0
			c0.01,0,0.02-0.01,0.03,0c0.03-0.01,0.08-0.01,0.11-0.01c0.02-0.01,0.04-0.01,0.08-0.01h0.15c0.05,0,0.1,0.02,0.15,0.03
			c0.11,0.01,0.23,0.03,0.33,0.07c0.11,0.04,0.22,0.1,0.32,0.16c0.01,0.01,0.02,0.02,0.02,0.02c0.02,0.01,0.03,0.02,0.04,0.03
			c0.09,0.07,0.15,0.13,0.22,0.21c0.01-0.01,0.01,0,0.02,0.01c0.02,0.02,0.05,0.07,0.08,0.1c0.02,0.03,0.05,0.07,0.08,0.1
			c0.01,0.02,0.03,0.04,0.04,0.07c0.01,0.02,0.01,0.03,0.02,0.04c0.01,0.01,0.01,0.03,0.02,0.04c0.03,0.05,0.07,0.11,0.09,0.16
			c0.01,0.03,0.02,0.05,0.03,0.09c0.01,0.04,0.02,0.08,0.03,0.12c0.01,0.03,0.02,0.07,0.03,0.1c0.01,0.05,0.03,0.12,0.04,0.17
			c0,0.02,0.01,0.05,0.01,0.08c0.01,0.09,0.02,0.19,0.03,0.28v0.31c0,0.03-0.01,0.05-0.01,0.09c-0.01,0.07-0.01,0.12-0.03,0.19
			c0,0.05-0.01,0.12-0.02,0.17c-0.01,0.02-0.01,0.04-0.02,0.07c-0.01,0.04-0.01,0.09-0.02,0.13c-0.01,0.02-0.01,0.05-0.02,0.08
			c-0.02,0.07-0.04,0.12-0.07,0.19c-0.3,0.74-0.83,1.3-1.43,1.54c-0.19,0.08-0.36,0.11-0.54,0.13c-0.08,0.01-0.15,0.02-0.22,0.01
			h-0.05c-0.16-0.01-0.33-0.04-0.48-0.11c0-0.01-0.01-0.01-0.02-0.01c-0.01,0-0.02-0.01-0.02-0.01c-0.16-0.07-0.31-0.16-0.44-0.27
			c-0.13-0.12-0.24-0.25-0.33-0.39c-0.08-0.11-0.13-0.23-0.17-0.36l-0.12-0.4c-0.01-0.09-0.02-0.19-0.03-0.28V123.57z
			 M146.85,122.15c0-0.02,0.01-0.04,0.01-0.07c0.01-0.05,0.01-0.12,0.02-0.16c0.01-0.04,0.01-0.08,0.02-0.11
			c0.01-0.07,0.03-0.11,0.04-0.16c0.01-0.03,0.01-0.05,0.02-0.08c0.04-0.16,0.11-0.31,0.17-0.45c0-0.01,0-0.01,0-0.02
			c0.01-0.01,0.02-0.03,0.02-0.04c0.03-0.05,0.05-0.1,0.08-0.14c0.02-0.03,0.04-0.05,0.07-0.09c0.08-0.13,0.16-0.25,0.26-0.36
			c0.01-0.01,0.01-0.03,0.02-0.04h0.01c0.01-0.01,0.01-0.02,0.02-0.03c0.03-0.02,0.04-0.05,0.08-0.08c0.01-0.01,0.01-0.02,0.02-0.03
			c0.09-0.08,0.17-0.14,0.25-0.21c0.05-0.04,0.11-0.09,0.17-0.12c0.02-0.02,0.04-0.04,0.07-0.05c0.03-0.01,0.05-0.03,0.08-0.03
			c0.07-0.03,0.14-0.08,0.21-0.11c0.01,0,0.02,0,0.03-0.01c0.04-0.01,0.1-0.03,0.14-0.04c0.07-0.02,0.12-0.03,0.19-0.04
			c0.04-0.01,0.09-0.02,0.12-0.02c0.05-0.01,0.11-0.02,0.17-0.02c0.04-0.01,0.08-0.01,0.11-0.01c0.03,0,0.07,0,0.1,0.01
			c0.01,0,0.02,0,0.02,0c0.03,0,0.07,0,0.11,0.01c0.01,0,0.02,0,0.03,0.01c0.05,0,0.11,0.01,0.16,0.02
			c0.07,0.01,0.13,0.03,0.19,0.05c0.01,0,0.01,0,0.02,0c0.02,0.01,0.05,0.02,0.08,0.03c0.04,0.02,0.1,0.04,0.14,0.07
			c0.02,0.01,0.05,0.03,0.08,0.04c0.02,0.01,0.04,0.02,0.07,0.03c0.01,0.01,0.03,0.02,0.04,0.03c0.03,0.02,0.05,0.03,0.08,0.05
			c0.08,0.05,0.14,0.1,0.21,0.15c0.02,0.02,0.04,0.04,0.05,0.05c0.28,0.27,0.51,0.62,0.66,1.03c0,0.01,0.01,0.02,0.01,0.03
			c0.01,0.03,0.02,0.05,0.02,0.09c0.02,0.04,0.03,0.09,0.04,0.14c0.01,0,0.01,0,0.01,0c0.01,0.07,0.03,0.14,0.04,0.21
			c0,0.02,0,0.04,0.01,0.05c0.02,0.15,0.03,0.3,0.04,0.45c0,0.11-0.01,0.21-0.01,0.31v0.11c0,0.03,0,0.07-0.01,0.1
			c-0.01,0.1-0.04,0.2-0.07,0.3c-0.02,0.13-0.04,0.27-0.09,0.39c-0.38,1.15-1.34,1.92-2.38,1.86l-0.11-0.01
			c-0.39-0.04-0.75-0.23-1.06-0.49c-0.05-0.04-0.11-0.1-0.15-0.14c-0.05-0.05-0.1-0.11-0.15-0.16c-0.19-0.23-0.33-0.5-0.44-0.8
			c-0.05-0.14-0.1-0.3-0.13-0.46c-0.02-0.1-0.03-0.21-0.04-0.32c0-0.11-0.01-0.21-0.01-0.32
			C146.82,122.41,146.83,122.28,146.85,122.15z M132.89,128.46c0.04-0.71,0.27-1.28,0.65-1.68c0.43-0.25,0.95-0.38,1.55-0.38
			c0.78,0,1.44,0.35,1.86,0.89c0.11,0.38,0.15,0.83,0.12,1.37c-0.05,1.07-0.63,1.91-1.43,2.22c-0.27,0.11-0.57,0.16-0.89,0.13
			c-0.16-0.02-0.33-0.05-0.47-0.11C133.38,130.57,132.83,129.64,132.89,128.46z M157.43,133.62c-0.13-0.04-0.28-0.22-0.48-0.54
			c-0.16-0.26-0.33-0.5-0.5-0.72c0,0,0,0-0.01-0.01c-0.09-0.11-0.17-0.21-0.27-0.3c-0.28-0.27-0.6-0.49-0.97-0.61
			c-0.02-0.01-0.04-0.01-0.07-0.01c-0.02-0.01-0.05-0.02-0.1-0.03c-0.03-0.01-0.07-0.01-0.1-0.02c-0.04-0.01-0.08-0.01-0.11-0.02
			c-0.25-0.04-0.52-0.04-0.83,0c-0.02,0-0.04,0-0.07,0.01c-0.02,0-0.05,0-0.08,0.02c-0.01-0.01-0.01,0-0.02,0c-0.01,0-0.01,0-0.01,0
			c-0.01-0.01-0.02,0-0.02,0c-0.02,0-0.04,0.01-0.07,0.01h-0.03c-0.01,0.01-0.02,0.01-0.02,0.01h-0.01c-0.01-0.01-0.01,0-0.02,0
			c-0.02,0-0.05,0.01-0.09,0.02c-0.3,0.07-0.59,0.13-0.9,0.17c-0.01,0-0.02,0.01-0.03,0.01c-0.16,0.02-0.32,0.04-0.47,0.07
			c-0.15,0.02-0.3,0.04-0.45,0.07c-0.01,0-0.01,0-0.02,0h-0.03c0,0-0.01,0-0.01,0.01c-0.24,0.02-0.47,0.05-0.71,0.09
			c-0.25,0.02-0.5,0.07-0.75,0.1c-0.04,0.01-0.1,0.02-0.14,0.02c-0.04,0.01-0.08,0.01-0.12,0.02c-0.17,0.03-0.32,0.27-0.47,0.43
			c0.2,0.05,0.42,0.2,0.6,0.16c0.66-0.12,1.29-0.34,1.95-0.46c1.66-0.31,3.08-0.02,4.13,1.49c0,0,0,0,0,0.01
			c0.23,0.32,0.37,0.57,0.37,0.82c0,0.03,0,0.05-0.01,0.08c0,0.01,0,0.01,0,0.02c0.01,0.01,0.01,0.02,0,0.02c0,0.01,0,0.01,0,0.02
			c-0.01,0.04-0.02,0.09-0.05,0.13c-0.02,0.04-0.04,0.09-0.08,0.13v0.01c-0.07,0.1-0.15,0.19-0.27,0.3
			c-0.01,0.01-0.01,0.02-0.03,0.03c-2.29,1.98-4.4,4.22-6.87,5.95c-0.14,0.1-0.26,0.2-0.38,0.3c-0.14,0.11-0.27,0.23-0.39,0.35
			c-0.12,0.12-0.23,0.24-0.34,0.36v0.01c-0.09,0.11-0.17,0.21-0.26,0.32c0,0.01,0,0.01,0,0.01c-0.08,0.11-0.15,0.22-0.23,0.34v0.01
			c-0.08,0.11-0.14,0.22-0.21,0.34c0,0.01,0,0.01,0,0.01c-0.07,0.12-0.12,0.24-0.17,0.36v0.01c-0.07,0.12-0.12,0.25-0.16,0.38
			c-0.16,0.38-0.3,0.8-0.43,1.24c-0.92,3.05-1.83,6.1-3.63,8.79c-0.21,0.31-0.42,0.61-0.65,0.91c-0.32,0.42-0.67,0.79-1.01,1.17
			c-0.2,0.22-0.37,0.45-0.57,0.66c-0.15,0.16-0.32,0.33-0.48,0.49c-0.15,0.16-0.32,0.33-0.48,0.48c-0.26,0.24-0.52,0.49-0.79,0.73
			c-0.16,0.15-0.33,0.3-0.49,0.43l-0.23,0.2c-0.51,0.44-1.05,0.85-1.6,1.26c-0.7,0.52-1.41,1.01-2.15,1.49
			c-0.08,0.04-0.15,0.09-0.23,0.13c-0.01,0.01-0.02,0.01-0.03,0.02c-0.27,0.16-0.56,0.33-0.84,0.5c-0.58,0.33-1.16,0.63-1.74,0.94
			c-0.3,0.15-0.59,0.31-0.89,0.46c-0.21,0.11-0.42,0.22-0.62,0.33c-0.12,0.07-0.27,0.09-0.42,0.11c-0.02,0.01-0.03,0.01-0.04,0.01
			c-0.07,0.01-0.12,0.02-0.17,0.03c-0.01-0.14-0.05-0.28-0.05-0.42c0-0.04,0.01-0.09,0.02-0.13c0.24-0.69,0.48-1.39,0.7-2.09
			c0.72-2.22,1.3-4.48,1.67-6.81c0.08-0.49,0.17-1,0.23-1.5c0.05-0.45,0.12-0.89,0.19-1.33c0.05-0.36,0.11-0.71,0.16-1.07
			c0.2-1.13,0.4-2.26,0.61-3.39c0.05-0.33,0.12-0.66,0.18-1c0.03-0.21,0.07-0.42,0.1-0.61c0.21-1.33,0.37-2.68,0.67-3.99
			c0.2-0.89,0.66-1.72,0.98-2.57c0.23-0.6,0.6-0.96,1.06-1.09c0.1-0.02,0.2-0.03,0.3-0.04c0.13,0,0.25,0,0.38,0.03
			c0.11,0.02,0.23,0.05,0.34,0.1c0.95,0.37,1.89,0.89,2.68,1.52c1.06,0.84,1.96,1.87,2.94,2.8c0.11,0.1,0.33,0.07,0.48,0.1
			c-0.01-0.03-0.01-0.08-0.02-0.12c-0.02-0.11-0.03-0.22-0.09-0.31c-0.12-0.2-0.22-0.39-0.33-0.59c-0.28-0.55-0.58-1.09-0.95-1.54
			l-0.01-0.01c-0.04-0.07-0.1-0.12-0.14-0.17c-0.04-0.07-0.1-0.12-0.15-0.16c-0.84-0.78-1.75-1.5-2.46-2.35
			c-0.62-0.74-1.09-1.59-1.24-2.69c-0.01-0.11-0.14-0.21-0.21-0.31c-0.35-0.48-0.5-0.97-0.5-1.44c0-0.59,0.24-1.15,0.67-1.65
			c0.48-0.56,0.83-1.13,1.04-1.72c0.24-0.72,0.25-1.49-0.08-2.37c-0.05-0.15-0.07-0.3-0.07-0.44c0-0.2,0.04-0.38,0.14-0.52
			c0.04-0.07,0.1-0.12,0.16-0.16c0.04-0.04,0.09-0.07,0.14-0.1c0.01-0.01,0.03-0.01,0.04-0.02c0.05-0.02,0.1-0.04,0.16-0.05
			c0.01-0.01,0.02-0.01,0.03-0.01c0.01-0.01,0.03-0.01,0.05-0.01c0.01-0.01,0.02-0.01,0.04-0.01c0.02-0.01,0.04-0.01,0.08-0.01
			c0.07-0.01,0.13-0.02,0.21-0.02h0.04c0.25,0,0.51,0,0.78,0.01c0.37,0.01,0.75,0.03,1.12,0.11c0.25,0.05,0.48,0.15,0.7,0.26
			c0.21,0.12,0.42,0.27,0.59,0.44c0.37,0.34,0.67,0.77,0.86,1.25c0.05,0.12,0.1,0.24,0.14,0.37c0.04,0.15,0.08,0.31,0.11,0.46
			c0.04,0.24,0.07,0.48,0.07,0.71c0,0.12,0,0.23-0.02,0.35v0.01c0,0.09-0.01,0.17-0.03,0.26c-0.01,0.03-0.01,0.05-0.02,0.09
			c0,0.02-0.01,0.04-0.01,0.07c-0.02,0.1-0.04,0.19-0.08,0.27c0,0.01-0.01,0.01-0.01,0.01v0.01c0,0.01,0,0.01,0,0.02
			c-0.01,0.02-0.02,0.04-0.03,0.07c0,0.01-0.01,0.02-0.01,0.02c-0.01,0.08-0.04,0.14-0.08,0.21c-0.09,0.16-0.16,0.33-0.25,0.49
			c-0.16,0.33-0.34,0.65-0.54,0.94c-0.09,0.15-0.2,0.3-0.3,0.44c-0.35,0.47-0.75,0.87-1.24,1.19c-0.12,0.09-0.24,0.15-0.37,0.23
			c-0.09,0.05-0.19,0.1-0.3,0.14c-0.08,0.04-0.15,0.08-0.24,0.1c-0.05,0.03-0.12,0.05-0.19,0.07c-0.05,0.02-0.12,0.03-0.19,0.05
			c-0.13,0.04-0.26,0.08-0.4,0.1c-0.04,0.01-0.1,0.04-0.14,0.09c-0.04,0.03-0.09,0.09-0.13,0.12c0.01,0.01,0.03,0.02,0.05,0.02
			c0.01,0.01,0.02,0.02,0.03,0.02c0.05,0.03,0.11,0.07,0.18,0.1c0.08,0.03,0.15,0.05,0.24,0.08c0.11,0.03,0.22,0.07,0.33,0.08
			c0.01,0,0.02,0,0.04,0.01c0.13,0.01,0.25,0.02,0.38,0.02c0.14,0,0.3-0.01,0.44-0.03h0.01c0.01,0,0.01,0,0.02-0.01
			c0.04-0.01,0.09-0.02,0.13-0.03c0.25-0.04,0.47-0.12,0.69-0.2c0,0,0,0,0.01,0c0.07-0.03,0.14-0.07,0.21-0.11
			c0.11-0.04,0.22-0.11,0.33-0.19c0.1-0.05,0.19-0.12,0.28-0.2l0.04-0.04c0,0,0,0,0.01-0.01c0.07-0.05,0.13-0.11,0.19-0.17
			l0.04-0.04c0.02-0.01,0.03-0.03,0.05-0.07c0.02-0.02,0.05-0.05,0.08-0.09c0.09-0.1,0.16-0.2,0.23-0.31
			c1.09-1.73,2.1-3.51,3.12-5.28c0.23-0.4,0.46-0.81,0.69-1.2h-0.04c0.02-0.01,0.04-0.02,0.05-0.02c0,0.01,0,0.01-0.01,0.02
			c0.27,0,0.54,0,0.81,0.01c0.18,0,0.35,0.01,0.52,0.01c0.58,0.01,1.15,0.01,1.71-0.1c0.96-0.19,1.69-0.24,2.32-0.16
			c0.17,0.02,0.35,0.05,0.5,0.11c0.07,0.01,0.12,0.03,0.19,0.07c0.05,0.02,0.11,0.04,0.16,0.07c0.07,0.03,0.13,0.07,0.19,0.1
			c0.01,0,0.01,0,0.01,0.01c0.04,0.02,0.09,0.04,0.12,0.07c0.02,0.02,0.04,0.03,0.05,0.04c0.05,0.03,0.11,0.08,0.15,0.11
			c0.01,0.01,0.01,0.01,0.02,0.02c0.05,0.04,0.12,0.1,0.17,0.15c0.07,0.07,0.12,0.13,0.19,0.2c0.25,0.3,0.5,0.66,0.75,1.1
			c0.13,0.24,0.26,0.49,0.4,0.78c0,0,0.01,0.01,0.01,0.02c0,0,0,0,0.01,0.01c0,0.01,0.01,0.02,0.02,0.04
			c0.01,0.01,0.01,0.01,0.02,0.02v0.01l0.1,0.15l0.14,0.22l0.35,0.56c0.26,0.43,0.55,0.92,0.79,1.37c0.1,0.2,0.2,0.38,0.26,0.56
			C157.55,133.28,157.62,133.6,157.43,133.62z M159.06,128.12c0,0,0,0-0.01,0l-0.01,0.01c-0.01,0-0.01,0-0.02,0
			c-0.02,0.01-0.05,0.02-0.09,0.02c-0.16,0.04-0.33,0.07-0.49,0.04c-0.05,0-0.12-0.01-0.17-0.02c-0.03-0.01-0.05-0.01-0.09-0.01
			c-0.15-0.04-0.3-0.11-0.42-0.2c-0.09-0.05-0.17-0.12-0.24-0.2c-0.01-0.01-0.02-0.03-0.03-0.05c-0.02-0.02-0.03-0.04-0.05-0.07
			c-0.2-0.28-0.27-0.63-0.21-1c0.01-0.11,0.04-0.22,0.08-0.33c0.11-0.34,0.33-0.69,0.65-0.96c0.03-0.02,0.07-0.04,0.09-0.07
			c0.11-0.09,0.21-0.15,0.32-0.22c0.11-0.05,0.21-0.11,0.31-0.14c0.02-0.01,0.04-0.01,0.05-0.02c0.04-0.02,0.09-0.03,0.12-0.04
			c0.02-0.01,0.03-0.01,0.05-0.02c0.05-0.01,0.1-0.01,0.14-0.02c0.02,0,0.04-0.01,0.07-0.01c0.04-0.01,0.1-0.02,0.14-0.02h0.23
			c0.14,0.01,0.27,0.04,0.4,0.09c0.07,0.02,0.12,0.05,0.18,0.08c0.05,0.03,0.11,0.07,0.16,0.11h0.01c0.02,0.02,0.04,0.03,0.07,0.07
			c0.03,0.02,0.07,0.04,0.09,0.08c0,0.01,0.01,0.01,0.02,0.02l0.01,0.01c0.07,0.07,0.11,0.14,0.14,0.22
			c0.02,0.02,0.03,0.05,0.03,0.09c0.01,0.02,0.03,0.05,0.04,0.09c0,0,0.01,0.01,0.01,0.02v0.01c0.07,0.19,0.09,0.38,0.07,0.59v0.02
			c0,0,0,0.01-0.01,0.01c0,0.03-0.01,0.08-0.02,0.11c-0.02,0.11-0.03,0.22-0.08,0.33c-0.12,0.33-0.34,0.65-0.63,0.91
			c-0.17,0.15-0.37,0.27-0.57,0.36c-0.05,0.02-0.11,0.07-0.17,0.09C159.16,128.1,159.1,128.11,159.06,128.12z M162.45,130.76
			c-0.15,0.26-0.36,0.5-0.63,0.69c-0.2,0.13-0.42,0.23-0.62,0.3c-0.11,0.02-0.22,0.02-0.33,0.03c-0.04,0-0.09,0.01-0.13,0.01
			c-0.05,0-0.12,0.02-0.18,0.02c-0.13-0.01-0.26-0.04-0.39-0.08c-0.24-0.08-0.46-0.22-0.62-0.42c-0.02-0.03-0.05-0.05-0.08-0.09
			c0-0.01-0.01-0.01-0.01-0.01c-0.02-0.03-0.02-0.05-0.04-0.09c-0.12-0.21-0.18-0.43-0.18-0.66c0-0.05,0-0.11,0.01-0.16
			c0-0.1,0.02-0.19,0.04-0.28c0.07-0.2,0.16-0.39,0.3-0.58v-0.01c0.01,0,0.01-0.01,0.02-0.01c0.07-0.09,0.14-0.17,0.23-0.26
			c0.08-0.08,0.17-0.15,0.27-0.22c0.12-0.09,0.24-0.12,0.37-0.17c0.26-0.12,0.52-0.19,0.79-0.19h0.1c0.1,0,0.19,0.01,0.27,0.04
			c0.2,0.04,0.36,0.13,0.51,0.24c0.12,0.09,0.23,0.17,0.32,0.31c0.16,0.24,0.23,0.54,0.22,0.83
			C162.67,130.25,162.59,130.52,162.45,130.76z"/>
	</g>
</g>
</svg>
