<?xml version="1.0" encoding="utf-8"?>
<!-- Generator: Adobe Illustrator 28.6.0, SVG Export Plug-In . SVG Version: 9.03 Build 54939)  -->
<!DOCTYPE svg PUBLIC "-//W3C//DTD SVG 1.1//EN" "http://www.w3.org/Graphics/SVG/1.1/DTD/svg11.dtd" [
	<!ENTITY ns_extend "http://ns.adobe.com/Extensibility/1.0/">
	<!ENTITY ns_ai "http://ns.adobe.com/AdobeIllustrator/10.0/">
	<!ENTITY ns_graphs "http://ns.adobe.com/Graphs/1.0/">
	<!ENTITY ns_vars "http://ns.adobe.com/Variables/1.0/">
	<!ENTITY ns_imrep "http://ns.adobe.com/ImageReplacement/1.0/">
	<!ENTITY ns_sfw "http://ns.adobe.com/SaveForWeb/1.0/">
	<!ENTITY ns_custom "http://ns.adobe.com/GenericCustomNamespace/1.0/">
	<!ENTITY ns_adobe_xpath "http://ns.adobe.com/XPath/1.0/">
	<!ENTITY st0 "fill:#020203;">
	<!ENTITY st1 "fill:#E73B33;">
	<!ENTITY st2 "fill:#E5231E;">
	<!ENTITY st3 "fill:#FFFFFF;">
	<!ENTITY st4 "fill:#FFFFFF;stroke:#FFFFFF;stroke-width:12.6265;stroke-miterlimit:10;">
	<!ENTITY st5 "fill:#BD271F;">
	<!ENTITY st6 "fill:none;">
	<!ENTITY st7 "fill:none;stroke:#FFFFFF;stroke-width:3.2659;stroke-miterlimit:10;">
	<!ENTITY st8 "fill:#1F090B;">
	<!ENTITY st9 "fill:none;stroke:#FFFFFF;stroke-width:4;stroke-miterlimit:10;">
	<!ENTITY st10 "fill:none;stroke:#FFFFFF;stroke-width:6;stroke-linejoin:round;stroke-miterlimit:10;">
	<!ENTITY st11 "fill:#FFFFFF;stroke:#FFFFFF;stroke-width:12.7233;stroke-miterlimit:10;">
	<!ENTITY st12 "fill:none;stroke:#000000;stroke-width:4;stroke-linejoin:round;stroke-miterlimit:10;">
	<!ENTITY st13 "fill:#2C52A0;">
	<!ENTITY st14 "fill:#FFFFFF;stroke:#FFFFFF;stroke-width:3;stroke-miterlimit:10;">
	<!ENTITY st15 "fill:#FFFFFF;stroke:#FFFFFF;stroke-width:2;stroke-miterlimit:10;">
	<!ENTITY st16 "fill:none;stroke:#FFFFFF;stroke-width:2.2659;stroke-miterlimit:10;">
	<!ENTITY st17 "fill:none;stroke:#000000;stroke-width:3.726;stroke-linejoin:round;stroke-miterlimit:10;">
	<!ENTITY st18 "fill:#FFFFFF;stroke:#FFFFFF;stroke-width:2.1439;stroke-miterlimit:10;">
	<!ENTITY st19 "fill:none;stroke:#000000;stroke-width:3.4833;stroke-linejoin:round;stroke-miterlimit:10;">
]>
<svg version="1.1" id="Capa_1" xmlns:x="&ns_extend;" xmlns:i="&ns_ai;" xmlns:graph="&ns_graphs;"
	 xmlns="http://www.w3.org/2000/svg" xmlns:xlink="http://www.w3.org/1999/xlink" x="0px" y="0px" viewBox="0 0 841.9 1190.6"
	 style="enable-background:new 0 0 841.9 1190.6;" xml:space="preserve">
<metadata>
	<sfw  xmlns="&ns_sfw;">
		<slices></slices>
		<sliceSourceBounds  bottomLeftOrigin="true" height="6871.7" width="8713.2" x="-528" y="-2600.1"></sliceSourceBounds>
	</sfw>
</metadata>
<g>
	<rect x="25.8" y="22.3" style="&st2;" width="790.4" height="1146"/>
	<path style="&st3;" d="M816.1,22.3v1146H25.8V22.3H816.1 M841.9,0h-25.8H25.8H0v22.3v1146v22.3h25.8h790.4h25.8v-22.3V22.3V0
		L841.9,0z"/>
</g>
<g>
	<g>
		<path style="&st14;" d="M137.6,1057.8v-19.1c-14.6-1.8-28.7-7.3-41.2-15.5v-34.6c11.6,8,25.1,15.3,41.2,18v-39.4
			c-11.8-3.9-19.4-6.6-24.3-9.1c-13.3-6.2-18.8-18-18.8-31.9c0-25.3,17.1-39.9,43.1-42.8v-16.4h30.8v17.3c11.6,2.3,22,6.8,31,13.7
			v30.3c-8.2-7.3-19.2-13-31-16.4v35.1c24.7,8,41.4,15.7,40.7,49.7c-0.6,25.5-19,36.9-40.7,41.2v20.1H137.6z M137.6,937v-25.5
			c-7.2,2.5-10.8,7.3-10.8,14.6C126.8,930.4,131.5,934.1,137.6,937z M168.4,976.9v29.4c7.4-1.6,11.4-5.5,12.2-13.9
			C181.3,985.1,175.4,980.3,168.4,976.9z"/>
		<path style="&st14;" d="M270.4,1039.6c-18.8,0-46.2-11.4-46.2-45.3v-71.3c0-29.8,23-49.4,50-49.4h21.5c27.9,0,48.1,19.6,48.1,49.2
			v72.2c0,26.9-23.4,44.7-42.2,44.7H270.4z M290.2,1012.2c13.5,0,22.4-8,22.4-22.6v-64.5c0-11.6-7.2-21.4-22.2-21.4h-11.8
			c-15.2,0-23.2,10.3-23.2,21.6v64.3c0,12.5,5.7,22.6,21.5,22.6H290.2z"/>
		<path style="&st14;" d="M360.1,985.6c15.2,10.7,33.6,19.8,55.5,19.8c15.2,0,29.8-3.6,31.5-15.5c1.7-14.4-19-21.2-27.2-23
			c-22-6.2-35.9-10.9-39.9-13.4c-13.1-8-19.6-19.1-19.6-33.7c0-31,30.6-46.3,57-46.3c18.6,0,36.3,5.2,51.3,16.4v31.9
			c-11.6-10.7-29.3-21.2-45.8-19.4c-13.7,1.6-22.6,5.7-22.6,17.3c0,11.2,22.4,18.7,30,21c28.7,9.1,49.6,15.7,48.5,50.6
			c-1.1,34.4-35.7,48.3-61.8,48.3c-18.8,0-40.5-6.4-56.8-17.3V985.6z"/>
		<path style="&st14;" d="M481.2,1039.6l54.9-166.1h29.8l54.5,166.1h-28.1l-9.5-34.4h-57l-10.6,34.4H481.2z M573.7,985.6l-19.2-70.4
			H554l-19.8,70.4H573.7z"/>
		<path style="&st14;" d="M742.3,1039.3L664.6,978v61.3h-31.2V873.7h31.2v46l74.9-45.6v37.4l-58,37.1l60.8,51.5V1039.3z"/>
	</g>
</g>
<g>
	<path style="&st15;" d="M129,176.9c-10.7,0-26.3-6-26.3-23.9v-37.6c0-15.7,13.1-26.1,28.5-26.1h12.3c15.9,0,27.4,10.3,27.4,26v38.1
		c0,14.2-13.3,23.6-24,23.6H129z M140.3,162.4c7.7,0,12.7-4.2,12.7-11.9v-34c0-6.1-4.1-11.3-12.6-11.3h-6.7
		c-8.7,0-13.2,5.4-13.2,11.4v33.9c0,6.6,3.2,11.9,12.3,11.9H140.3z"/>
	<path style="&st15;" d="M181.5,148.4c8.7,5.6,19.1,10.5,31.6,10.5c8.7,0,16.9-1.9,17.9-8.2c1-7.6-10.8-11.2-15.5-12.1
		c-12.5-3.2-20.4-5.8-22.7-7.1c-7.5-4.2-11.2-10.1-11.2-17.8c0-16.3,17.4-24.4,32.5-24.4c10.6,0,20.7,2.8,29.2,8.7v16.8
		c-6.6-5.6-16.7-11.2-26.1-10.2c-7.8,0.8-12.9,3-12.9,9.1c0,5.9,12.7,9.9,17.1,11.1c16.3,4.8,28.2,8.3,27.6,26.7
		c-0.6,18.1-20.3,25.5-35.2,25.5c-10.7,0-23.1-3.4-32.3-9.1V148.4z"/>
	<path style="&st15;" d="M251.9,176.9l31.3-87.6h16.9l31,87.6h-16l-5.4-18.1h-32.5l-6,18.1H251.9z M304.6,148.4l-10.9-37.1h-0.2
		l-11.3,37.1H304.6z"/>
	<path style="&st15;" d="M402,176.7l-44.2-32.3v32.3H340V89.4h17.8v24.3l42.7-24v19.7l-33.1,19.6l34.6,27.2V176.7z"/>
	<path style="&st15;" d="M408.5,176.9l31.3-87.6h16.9l31,87.6h-16l-5.4-18.1h-32.5l-6,18.1H408.5z M461.2,148.4l-10.9-37.1H450
		l-11.3,37.1H461.2z"/>
	<path style="&st15;" d="M509,176.9h-13.2v-13.2H509V176.9z"/>
	<path style="&st15;" d="M629.1,89.2l-28.8,87.6h-14.7l-12.5-31.1l-12.5,31.1h-14.7L517,89.2h21.8l18.5,58.4l13-38.2h5.5l17.3,42.5
		l18.5-62.7H629.1z"/>
	<path style="&st15;" d="M637.9,176.9V89.4h17.5v87.5H637.9z"/>
	<path style="&st15;" d="M669.2,176.9V89.2h21.3l31.9,60.7V89.2h17.5v87.6h-18.5L690.5,122v54.8H669.2z"/>
</g>
<g>
	<path style="&st3;" d="M106.5,1125.2c0,7.4-5.1,11.9-11.9,11.9h-7.2c-4.6,0-11.3-2.6-11.3-10.9v-15.8c0-6.7,4.8-12.1,12.7-12.1h5.9
		c5.9,0,9.8,3.7,11.5,8.7l-7.3,2.3c-0.9-2-2.8-3.4-4.8-3.4h-4c-3.7,0-5.4,2.9-5.4,5.7v12.7c0,3.5,0.8,6,4.8,6h4.5
		c3.3,0,4.7-2.3,5-5.2H106.5z"/>
	<path style="&st3;" d="M119.8,1124.1c0,1.9,0.9,4.7,4.5,4.7h5.3c3.6,0,4.7-2.7,4.7-5v-25.2h8.6v27.1c0,8.1-5.6,11.5-12.1,11.5h-7.1
		c-7.7,0-13-5.2-12.6-12.6v-26h8.6V1124.1z"/>
	<path style="&st3;" d="M175,1131.5v5.7h-26.3v-38.8h8.6v33.1H175z"/>
	<path style="&st3;" d="M204.4,1098.3v8.2H192v30.6h-8.3v-30.6h-13.1v-8.2H204.4z"/>
	<path style="&st3;" d="M237,1137.1c-4.7,0-11.7-2.7-11.7-10.6v-16.7c0-7,5.8-11.6,12.6-11.6h5.4c7,0,12.1,4.6,12.1,11.5v16.9
		c0,6.3-5.9,10.4-10.7,10.4H237z M242,1130.7c3.4,0,5.6-1.9,5.6-5.3v-15.1c0-2.7-1.8-5-5.6-5h-3c-3.8,0-5.9,2.4-5.9,5.1v15
		c0,2.9,1.4,5.3,5.4,5.3H242z"/>
	<path style="&st3;" d="M270.1,1103.6v10.7h15v5.2h-15v17.7h-9v-38.8h26v5.3H270.1z"/>
	<path style="&st3;" d="M340.4,1098.3v8.2h-12.4v30.6h-8.3v-30.6h-13.1v-8.2H340.4z"/>
	<path style="&st3;" d="M353.7,1137.1h-9.4v-38.8h9.4v15.5h13.6v-15.5h7.2v38.8h-7.2v-17.5h-13.6V1137.1z"/>
	<path style="&st3;" d="M389.8,1104.4v9.5h14.5v5.3h-14.5v12h17.6v5.8H381v-38.7h26.4v6.1H389.8z"/>
	<path style="&st3;" d="M446.1,1098.3c10,0,12.6,4.8,12.6,10c0,5.6-3.2,7.2-5,8.1c4.7,1.9,6.2,4.9,6,9.2
		c-0.3,7.8-6.2,11.6-15.6,11.6h-13.9v-38.8H446.1z M446.3,1114.1c4.2,0,7.4-1.8,7.4-5.7c0-3.5-2.8-5.2-7.6-5.2h-7v10.9H446.3z
		 M447,1130.7c4.8,0,7.1-3,7.1-6c0-4-3.1-5.9-6.7-5.9h-8.2v11.9H447z"/>
	<path style="&st3;" d="M490.9,1131.5v5.7h-26.3v-38.8h8.6v33.1H490.9z"/>
	<path style="&st3;" d="M493.5,1137.1l13.9-38.8h7.5l13.7,38.8h-7.1l-2.4-8h-14.4l-2.7,8H493.5z M516.9,1124.5L512,1108h-0.1
		l-5,16.5H516.9z"/>
	<path style="&st3;" d="M562.5,1125.2c0,7.4-5.1,11.9-11.9,11.9h-7.2c-4.6,0-11.3-2.6-11.3-10.9v-15.8c0-6.7,4.8-12.1,12.7-12.1h5.9
		c5.9,0,9.8,3.7,11.5,8.7l-7.3,2.3c-0.9-2-2.8-3.4-4.8-3.4h-4c-3.7,0-5.4,2.9-5.4,5.7v12.7c0,3.5,0.8,6,4.8,6h4.5
		c3.3,0,4.7-2.3,5-5.2H562.5z"/>
	<path style="&st3;" d="M594.7,1137.1l-19.6-14.3v14.3h-7.9v-38.7h7.9v10.8l18.9-10.7v8.7l-14.7,8.7l15.3,12V1137.1z"/>
	<path style="&st3;" d="M616.5,1124.5c3.8,2.5,8.5,4.6,14,4.6c3.8,0,7.5-0.9,7.9-3.6c0.4-3.4-4.8-5-6.9-5.4
		c-5.5-1.4-9.1-2.6-10.1-3.1c-3.3-1.9-5-4.5-5-7.9c0-7.2,7.7-10.8,14.4-10.8c4.7,0,9.2,1.2,12.9,3.8v7.5c-2.9-2.5-7.4-5-11.6-4.5
		c-3.5,0.4-5.7,1.3-5.7,4c0,2.6,5.6,4.4,7.6,4.9c7.2,2.1,12.5,3.7,12.3,11.8c-0.3,8-9,11.3-15.6,11.3c-4.7,0-10.2-1.5-14.3-4V1124.5
		z"/>
	<path style="&st3;" d="M660,1137.1h-9.4v-38.8h9.4v15.5h13.6v-15.5h7.2v38.8h-7.2v-17.5H660V1137.1z"/>
	<path style="&st3;" d="M687,1137.1v-38.8h7.8v38.8H687z"/>
	<path style="&st3;" d="M716.7,1098.3c10,0,12.6,4.8,12.6,10c0,5.6-3.2,7.2-5,8.1c4.7,1.9,6.2,4.9,6,9.2
		c-0.3,7.8-6.2,11.6-15.6,11.6h-13.9v-38.8H716.7z M716.9,1114.1c4.2,0,7.4-1.8,7.4-5.7c0-3.5-2.8-5.2-7.6-5.2h-7v10.9H716.9z
		 M717.6,1130.7c4.8,0,7.1-3,7.1-6c0-4-3.1-5.9-6.7-5.9h-8.2v11.9H717.6z"/>
	<path style="&st3;" d="M732.5,1137.1l13.9-38.8h7.5l13.7,38.8h-7.1l-2.4-8h-14.4l-2.7,8H732.5z M755.9,1124.5L751,1108h-0.1
		l-5,16.5H755.9z"/>
</g>
<g>
	<g>
		<g>
			<path style="&st3;" d="M547.3,697c1.2-1.4,2.4-2.9,3.6-4.3c0.3-0.3,0.7-0.9,1-1.6C550.4,693,548.9,695,547.3,697z"/>
			<path style="&st3;" d="M224.6,767.3c2.1,0.7,4.3,1.3,6.4,1.8C228.6,768.4,226.5,767.8,224.6,767.3z"/>
			<path style="&st3;" d="M586.3,359.4c4.4-21.6,7.9-43.8,5.6-66c-1.5-14.6-5.7-27.7-16.6-36.1c-3.6-2.8-8-5-13.2-6.6
				c-1.5-0.5-3.1-0.9-4.7-1.2c-0.5-0.1-1.1-0.1-1.6-0.2c-1.1-0.2-2.1-0.4-3.1-0.5c-0.6,0-1.2-0.1-1.8-0.2c-1-0.1-1.9-0.2-2.8-0.2
				c-0.7,0-1.2,0-1.9,0c-0.9,0.1-1.8,0-2.7,0.1l-1.4,0.1c-2.3,0.1-4.6,0.4-6.8,0.9c-0.3,0.1-0.6,0.1-0.8,0.2
				c-2.4,0.5-4.8,1.1-7.2,1.9c-3.7,1.1-7.5,2.7-11.2,4.5c-23.4,11.2-39.7,29.7-55.3,49l-0.4,0.4c-0.5,0.6-1,1.2-1.5,1.6
				c-0.2,0.2-0.4,0.3-0.6,0.5c-0.4,0.3-0.7,0.7-1.1,0.9c-0.2,0.1-0.4,0.2-0.6,0.3c-0.3,0.2-0.7,0.4-1,0.5c-0.2,0.1-0.5,0.1-0.6,0.1
				c-0.3,0.1-0.6,0.2-0.9,0.2c-0.3,0-0.6,0-0.9,0c-0.3,0-0.5,0-0.7-0.1c-0.3,0-0.6-0.1-0.9-0.2c-0.3-0.1-0.5-0.1-0.7-0.2
				c-0.3,0-0.7-0.2-1-0.3c-0.3-0.1-0.5-0.2-0.8-0.3l0-0.1c-0.6-0.2-1.2-0.5-1.9-0.8c-14.5-6.6-28.9-13.8-44-19.1
				c-22.7-8-46.5-10.7-70.6-10.5c-8.1,0.5-16.2,1.1-24.2,1.6c-8,1.5-16.1,2.8-24,4.5c-25.2,5.5-48.8,15-70.4,29.4
				c-0.4,0.3-1.1,0.5-1.7,0.7c-0.2,0-0.5,0-0.6,0.1c-0.3,0-0.5,0.1-0.8,0.1c-0.1,0-0.3,0-0.5,0c-0.7,0-1.2-0.1-1.8-0.2
				c-0.3,0-0.6,0-0.9-0.1c-0.9-0.2-1.7-0.5-2.3-0.9c-9.5-6.3-18.4-13.4-27.8-19.9c-3.1-2.2-6.3-4.2-9.5-6.2
				c-1.8-1.1-3.7-2.1-5.5-3.2c-0.5-0.2-1.1-0.5-1.6-0.8c-1.4-0.7-2.7-1.4-4.1-2.1c-0.7-0.4-1.4-0.6-2.1-1c-1.2-0.6-2.4-1.1-3.6-1.6
				c-0.7-0.3-1.5-0.6-2.3-0.9c-1.1-0.5-2.3-0.9-3.5-1.3c-0.8-0.3-1.7-0.6-2.5-0.8c-1.1-0.3-2.3-0.7-3.4-1c-0.9-0.2-1.9-0.4-2.7-0.6
				c-1.2-0.3-2.3-0.5-3.4-0.7c-0.9-0.1-1.9-0.2-2.8-0.3c-1.2-0.1-2.3-0.3-3.5-0.3c-1-0.1-2,0-2.9,0c-1,0-1.9,0-2.8,0l-1.5,0.1
				c-1,0.1-2,0.2-3,0.3C87.7,276.8,72.4,295,73.2,324c0.1,2.5,0.2,5.1,0.3,7.7c0.8,13.8,2.8,27.3,7,40.7c8.9,29.3,17.3,58.9,25,88.6
				c0.6,2.3,1.4,4.6,2.3,6.9c0.9,2.3,1.8,4.6,2.5,6.9c1.1,3.5,1.8,7,1.4,10.9c-0.1,1.3-0.3,2.5-0.7,3.8c-2,7.6-3.4,15.3-4.1,23
				c-0.5,5.7-0.5,11.3-0.1,17c0.1,2.2,0.3,4.3,0.5,6.5c0.5,8.2,1.1,16.3,1.7,24.5c0.6,5.6,1.4,11.3,1.8,16.9c0.1,2,0,3.9-0.3,5.8
				c-0.2,0.7-0.2,1.3-0.3,1.9c-0.6,2.2-1.2,4.4-1.6,6.6s-0.9,4.4-1.3,6.6c0,0,0,0.1-0.1,0.2c-0.8,3-12.3,46.7,13.9,88
				c0.2,0.3,0.4,0.6,0.6,0.9c3,5.4,6.3,10.6,9.7,15.5c10.3,14.6,23,27.5,38.7,38.5c14.5,10.2,30,17.6,46,23.1l0,0.1
				c0.5,0.2,2.6,0.9,5.9,1.9c0.8,0.2,1.7,0.5,2.7,0.8c1.9,0.5,4,1.1,6.4,1.8c1.3,0.3,2.7,0.7,4.1,1.1c1.1,0.3,2.3,0.6,3.4,0.9
				c16.1,4,39.5,8.7,65.9,10.5c8.7,0.6,17.8,0.9,27,0.7c12.8-0.2,25.9-1.3,38.8-3.6c0.8-0.1,1.6-0.2,2.4-0.2
				c1.6-0.2,7.1-1.8,8.7-1.9c2.3-0.3,4.4-0.8,6.3-1.3c31-6,56.7-14.3,77-22.6c36.4-14.9,55.6-29.6,57.4-31.1c0.1,0,0.1-0.1,0.1-0.1
				c4.8-3.9,9.4-7.9,14-12c3.4-3.1,6.4-6.7,9.3-10.3c0.6-0.8,1.2-1.4,1.7-2.1c1.7-2,3.2-4,4.6-5.8c1.5-2,2.9-3.9,4.2-5.7
				c0.1-0.3,0.2-0.5,0.4-0.7c11.8-17.5,13.3-27.5,13.3-27.5c0.2-0.5,0.4-1.1,0.6-1.6s0.3-1,0.5-1.5c0.5-1.5,1-3,1.4-4.5
				c0.5-1.7,1-3.5,1.4-5.3c0.4-1.6,0.8-3.1,1.1-4.7c0.4-1.7,0.7-3.5,1-5.3c0.3-1.5,0.5-3,0.8-4.6c0.2-1.8,0.4-3.7,0.6-5.6
				c0.1-0.7,0.1-1.4,0.2-2.2s0.1-1.4,0.2-2.2c0.1-2,0.1-4.1,0.1-6.1c0-1.3,0-2.6,0-3.9c-0.1-2.3-0.3-4.6-0.5-6.9l-0.2-3.3
				c-0.3-2.7-0.8-5.3-1.2-7.9c-0.1-0.8-0.2-1.6-0.3-2.3c-0.7-3.4-1.5-6.9-2.5-10.4c-3.5-12-6-25.4-4.4-37.5
				c2.7-20.3-2.5-39.4-5-58.8c-1.2-9.6-3.3-18.1-0.6-27.9C571.4,423.2,579.7,391.4,586.3,359.4z M108,373.5
				c-0.8-3.1-1.5-6.3-2.3-9.4c-0.3-1.1-0.5-2.1-0.7-3.2c-7-32.8-3.7-46.7-2.4-50.5c0.3-0.9,0.5-1.2,0.5-1.2
				c4.4-9.6,11.3-12.9,22.4-11.9c2,0.1,4.2,0.4,6.5,0.8c15.8,2.9,28.9,12,41.7,21.5c4.2,3.1,8.7,5.8,12.4,9.4
				c2.8,2.6,3.6,5.9-0.4,8.9c-14,10.7-25.1,24.3-35.8,38c-2.8,3.6-3.9,4.3-5.5,0.8c-0.2-0.3-0.4-0.8-0.5-1.2
				c-1.6-4.5-3.5-8.9-5.2-13.4c-2.6-6.5-7.1-8.7-14.2-8c-7.1,0.7-9.7,4-8.3,10.4c2.1,9,5,17.9,7.4,26.8c2.4,8.9,4.8,17.8,7,26.8
				c0.5,2.1,0.7,4.6,0,6.7c-0.7,2.3-2.4,4.2-3.8,6.3c-1.6-1.9-3.9-3.6-4.5-5.8C117.5,408.2,112.5,390.9,108,373.5z M545.6,637.9
				c-3.5,21.8-15.1,40.3-30,55.3c-12.4,12.5-28,22.3-43.1,31.7c-5.2,3.3-10.6,6.3-16,9c-15,7.6-30.9,13.2-47.2,17.3
				c-21.2,5.3-42.8,8.7-64.2,13c-34,0.3-66.5-4-97.4-14c-18.8-6.1-37.1-14.3-54.9-24.7c-29-17-49.3-41.1-56.4-73.6
				c-4.5-20.3-6.5-42.1,5.2-62c1.5-2.5,1.1-6.5,0.7-9.7c-1.5-17.1-5.5-34.4-4.3-51.3c1.7-25.6,8.3-50.5,21.6-73.3
				c1-1.8,2.1-3.5,3.2-5.3c11.8-18.9,26.7-34.8,44-48.7c8.3-6.6,17.2-2,25.4,0.1c7.6,2,15.4,5.2,21.9,9.7c7,4.8,13.9,10.7,18.4,17.7
				c10.2,15.9,18.9,32.7,28.1,49.2c1.6,2.9,2.2,6.4,4.2,8.8c4.4,5.7,8,12.1,17.7,10.7c12.3-1.8,24.9-0.9,37.1-2.9
				c7.1-1.1,9.8-8.4,11.3-15.1c1.7-7.4,2.2-15.3,4.9-22.3c9.7-25.4,24.4-47.3,47.3-62.6c5.4-3.6,11.4-6.8,17.6-8.6
				c8.8-2.6,16.7,1.8,23.6,6.8c14.9,11.1,29,23.1,40,38.2c1.1,1.4,2.2,3,3.2,4.5c11,16.4,20.4,33.7,23.4,53.6
				c2.2,14.3,5.2,28.5,6.7,42.8c1,8.5-0.4,17.1-0.5,25.8c0,4.1-0.2,8.3,0.8,12.3c2.4,8.7,5.1,17.4,8.3,25.9
				C551.4,610,547.8,624,545.6,637.9z M555.3,381.9c-2.4,13-5.5,26.1-8.3,39.1c-0.2,0.9-1.8,1.5-2.7,2.3c-2.1-5.2-6.5-10.8-5.8-15.6
				c2.5-18.6,6.8-36.9,10.3-55.4c0.5-2.5,1.1-5.2,0.8-7.7c-0.1-0.5,0.9-6.9-2.9-9.6c-6.5-4.7-12.1,0.6-15.3,3.9
				c-4.2,4.5-5.7,11.7-8.1,17.8c-0.9,2.4-0.9,5.1-1.9,7.6c-1.7,5.1-3.8,4.3-7.3,0.9c-0.3-0.2-0.6-0.6-0.8-0.8
				c-12-11.8-24.1-23.5-36.9-34.5c-2.8-2.5-3.3-3.2-1.1-5.8c14.3-16.9,29.6-32.6,48.7-43.7c3.1-1.9,6.3-3.6,9.7-5.2
				c9.3-4.4,20.4-2.2,27,7.6c0.1,0.2,0.3,0.4,0.4,0.6c0.3,0.4,0.6,0.9,0.9,1.4c0.1,0.3,0.3,0.7,0.5,1.1c3,6.9,3.4,18.9,2.5,32.1
				C563.2,346.9,555.3,381.9,555.3,381.9z"/>
			<path style="&st3;" d="M412.9,649.1c-1-0.4-3.3,2.5-5.1,3.8c-2.9,2.1-5.6,4.5-8.8,6c-19.5,8.7-36.1,1-49.3-12.2
				c-6.6-6.6-8.1-3.7-11.9,0.7c-12.2,14.1-27.6,21-46.3,19.8c-6.3-0.4-12.4-1.5-16.7-7.1c-1.1-1.4-3.6-2.9-4.8-2.5
				c-1.7,0.7-3.6,2.9-3.9,4.7c-0.6,3.8,0.5,6.7,5,8.5c8.9,3.7,17.7,6.8,27.5,5.1c4.4-0.8,6.4,0.4,7.5,5.3c1.7,7.4,4.7,14.6,7.6,21.7
				c5.9,14.4,19.2,23.1,30.7,22.4c13.6-0.3,22.6-4.5,28.1-13.9c6-10.2,9.5-21.4,10.2-33.3c0.3-5.4,2.4-6.5,7.2-7.8
				c8.8-2.3,17.3-5.9,25.7-9.6c1.9-0.8,4.4-4.7,3.9-6C418.3,652.3,415.5,650.2,412.9,649.1z M364.2,710.3c-0.2,0.5-0.5,0.9-0.8,1.3
				c-0.2,0.3-0.5,0.6-0.7,0.9c-0.3,0.4-0.7,0.8-1,1.1c-0.4,0.4-0.8,0.6-1.3,1c-3.1,2.1-7.3,3.4-12.7,3.8
				c-11.8,0.8-23.6-6.9-24.1-15.6c0-0.7,0.2-1.5,0.5-2.3c0.8-1.7,2.2-3.7,4.1-5.7c0.9-0.9,1.8-1.8,2.8-2.7c4.4-4,9.9-7.3,13.3-7.5
				c7.6-0.3,21,10.2,21.6,17.1C366.1,705,365.5,707.9,364.2,710.3z"/>
			<path style="&st3;" d="M281.2,579.4c0,5.6-3.4,6.8-7.6,4.6c-8.2-4.4-14.9-9.7-18.5-19.3c-2.9-7.6-8.8-14.4-14.4-20.4
				c-4.9-5.3-10.2-4.8-13.5,1.4c-4.8,9-8.7,18.5-11.9,28.2c-2,5.9,0.4,7.3,7.3,5.6c3.2-0.8,6.6-1.8,9.9-1.5c2.5,0.1,7.2,0.5,7.2,3.1
				c-0.1,2.5-4.3,2.4-6.7,3.1c-6.7,2-13.6,3.2-20.2,5.4c-4.4,1.6-8.5,4.3-12.4,6.8c-3.2,2-4.8,1.5-5-2.3c-1.5-26.6,0.8-52.1,19-73.6
				c5.3-6.2,12-8,19.4-8.9c10.7-1,25.3,8,33,24.3c5.4,11.5,9.2,23.8,13.6,35.8C281.1,574,281.2,576.8,281.2,579.4z"/>
			<path style="&st3;" d="M478.9,575.7c-1.2,2.1-5.5,4.8-6.7,4.1c-10.6-6-21.8-8-33.7-7.7c-2.1,0.1-4.2-1.1-6.3-1.7
				c-0.9-0.3-1.8-0.7-2.7-1c1-0.5,1.9-1.4,2.9-1.5c6.2-0.8,12.8-2.9,18.8-1.9c6.6,1.1,8.3-0.9,6.1-5.9c-4.2-9.4-8.9-18.5-14.4-27.2
				c-3.3-5.2-9.5-6.1-13.2-0.5c-5.1,7.5-10.1,15.6-12.9,24.1c-3.4,10.2-10.6,15.6-19.2,20.1c-0.7,0.4-3.9-1.7-3.9-2.6
				c1.1-21.3,5.3-42.1,17.5-59.6c15.5-22.1,37.1-18.1,50.3,2.6c9.8,15.4,14.9,32.8,17,49.6C478.8,570.6,480,573.8,478.9,575.7z"/>
			<path style="&st3;" d="M366.2,604.5c0,2.9-4.8,7-8.3,8.5c-4.3,1.9-9.5,1.7-15.4,2.5c-4.3-0.1-9.7,0.4-14.6-0.7
				c-3.1-0.7-7.2-3.5-8-6.2c-0.8-2.8,1-7.4,3.2-9.7c6.9-7,27.5-9.7,36-4.5C362.5,596.4,366.3,601,366.2,604.5z"/>
			<path style="&st3;" d="M259.6,487.7c0.3,1-2,3.9-3.1,3.8c-2.4-0.1-4.9-1.3-7.2-2.1c-11.7-4.2-22.8-5.2-32.8,4.1
				c-1.5,1.3-4.3,1.2-6.6,1.7c0.4-2.2,0.1-4.7,1.1-6.4c5.9-9.1,12.3-17.6,24.7-17.8C242.2,470.7,258.1,481.7,259.6,487.7z"/>
			<path style="&st3;" d="M463,482.3c-3.1-0.7-5-0.8-6.3-1.6c-9.2-6.1-19.2-8.6-29.9-5.2c-4.5,1.4-8.5,4.2-12.7,6.3
				c-1.1,0.5-2.5,0.5-3.8,0.7c-0.2-1.4-0.8-3-0.4-4.2c5.6-17.6,27.4-23.6,40.9-11.3c3.6,3.2,6.5,7,9.7,10.6
				C461.1,478.5,461.5,479.6,463,482.3z"/>
		</g>
	</g>
</g>
<g>
	<g>
		<path style="&st2;" d="M465.6,656.9c-5,0-9.4-2.9-11.6-7.5c-2.1-4.6-1.4-9.8,1.8-13.7l55.6-66.4L528,362
			c0.7-9.1,8.4-16.2,17.5-16.2c0.5,0,0.9,0,1.4,0.1L794,365.5c9.7,0.8,16.9,9.3,16.1,18.9l-19.7,247.1c-0.7,9.1-8.4,16.2-17.5,16.2
			c-0.5,0-0.9,0-1.4-0.1L587,633l-118.7,23.7C467.4,656.9,466.5,656.9,465.6,656.9z"/>
		<path style="&st2;" d="M545.5,349.8c0.4,0,0.7,0,1.1,0l247.1,19.7c7.5,0.6,13.1,7.2,12.5,14.6l-19.7,247.1
			c-0.6,7.1-6.5,12.5-13.5,12.5c-0.4,0-0.7,0-1.1,0l-185.1-14.8h0l-119.3,23.8c-0.6,0.1-1.2,0.2-1.8,0.2c-7.2,0-11.7-8.6-6.7-14.6
			l56.4-67.3L532,362.3C532.5,355.2,538.5,349.8,545.5,349.8 M545.5,341.8L545.5,341.8c-11.2,0-20.6,8.7-21.5,19.9l-16.4,206.2
			l-54.8,65.4c-4.3,5.1-5.2,12-2.4,17.9c2.8,6,8.6,9.8,15.2,9.8c1.1,0,2.3-0.1,3.4-0.3L587.2,637l184,14.7c0.6,0,1.2,0.1,1.7,0.1
			c11.2,0,20.6-8.7,21.5-19.9l19.7-247.1c1-11.9-7.9-22.3-19.8-23.3l-247.1-19.7C546.7,341.8,546.1,341.8,545.5,341.8L545.5,341.8z"
			/>
		<path style="&st10;" d="M806.2,384.2l-19.7,247.1c-0.6,7.5-7.2,13.1-14.6,12.5l-185.1-14.8h0l-119.3,23.8
			c-8.2,1.6-13.9-8-8.5-14.4l56.4-67.3L532,362.3c0.6-7.5,7.2-13.1,14.6-12.5l247.1,19.7C801.2,370.1,806.8,376.7,806.2,384.2z"/>
	</g>
	<g transform="translate(80,80)">
		<g transform="translate(360,0) scale(0.4,0.4)">
			<g transform="">
				
					<rect x="484.6" y="735" transform="matrix(7.949831e-02 -0.9968 0.9968 7.949831e-02 -287.5667 1182.6411)" style="&st3;" width="24" height="24"/>
			</g>
		</g>
		<g transform="translate(400,0) scale(0.4,0.4)">
			<g transform="">
				
					<rect x="408.5" y="736.9" transform="matrix(7.949831e-02 -0.9968 0.9968 7.949831e-02 -359.4595 1108.6094)" style="&st3;" width="24" height="24"/>
			</g>
		</g>
		<g transform="translate(560,0) scale(0.4,0.4)">
			<g transform="">
				
					<rect x="104.4" y="744.6" transform="matrix(7.949831e-02 -0.9968 0.9968 7.949831e-02 -647.0308 812.4829)" style="&st3;" width="24" height="24"/>
			</g>
		</g>
		<g transform="translate(640,0) scale(0.4,0.4)">
			<g transform="">
				
					<rect x="-47.7" y="748.4" transform="matrix(7.949831e-02 -0.9968 0.9968 7.949831e-02 -790.8165 664.4196)" style="&st3;" width="24" height="24"/>
			</g>
		</g>
		<g transform="translate(320,40) scale(0.4,0.4)">
			<g transform="">
				
					<rect x="558.7" y="657.1" transform="matrix(7.949831e-02 -0.9968 0.9968 7.949831e-02 -141.6422 1184.7799)" style="&st3;" width="24" height="24"/>
			</g>
		</g>
		<g transform="translate(360,40) scale(0.4,0.4)">
			<g transform="">
				
					<rect x="482.6" y="659" transform="matrix(7.949831e-02 -0.9968 0.9968 7.949831e-02 -213.5351 1110.7483)" style="&st3;" width="24" height="24"/>
			</g>
		</g>
		<g transform="translate(400,40) scale(0.4,0.4)">
			<g transform="">
				
					<rect x="406.6" y="660.9" transform="matrix(7.949831e-02 -0.9968 0.9968 7.949831e-02 -285.4279 1036.7166)" style="&st3;" width="24" height="24"/>
			</g>
		</g>
		<g transform="translate(440,40) scale(0.4,0.4)">
			<g transform="">
				
					<rect x="330.6" y="662.8" transform="matrix(7.949831e-02 -0.9968 0.9968 7.949831e-02 -357.3207 962.6849)" style="&st3;" width="24" height="24"/>
			</g>
		</g>
		<g transform="translate(520,40) scale(0.4,0.4)">
			<g transform="">
				
					<rect x="178.5" y="666.6" transform="matrix(7.949831e-02 -0.9968 0.9968 7.949831e-02 -501.1064 814.6217)" style="&st3;" width="24" height="24"/>
			</g>
		</g>
		<g transform="translate(560,40) scale(0.4,0.4)">
			<g transform="">
				
					<rect x="102.5" y="668.5" transform="matrix(7.949831e-02 -0.9968 0.9968 7.949831e-02 -572.9992 740.5901)" style="&st3;" width="24" height="24"/>
			</g>
		</g>
		<g transform="translate(640,40) scale(0.4,0.4)">
			<g transform="">
				
					<rect x="-49.6" y="672.4" transform="matrix(7.949831e-02 -0.9968 0.9968 7.949831e-02 -716.7849 592.5268)" style="&st3;" width="24" height="24"/>
			</g>
		</g>
		<g transform="translate(320,80) scale(0.4,0.4)">
			<g transform="">
				
					<rect x="556.8" y="581" transform="matrix(7.949831e-02 -0.9968 0.9968 7.949831e-02 -67.6106 1112.8871)" style="&st3;" width="24" height="24"/>
			</g>
		</g>
		<g transform="translate(400,80) scale(0.4,0.4)">
			<g transform="">
				
					<rect x="404.7" y="584.9" transform="matrix(7.949831e-02 -0.9968 0.9968 7.949831e-02 -211.3963 964.8238)" style="&st3;" width="24" height="24"/>
			</g>
		</g>
		<g transform="translate(440,80) scale(0.4,0.4)">
			<g transform="">
				
					<rect x="328.7" y="586.8" transform="matrix(7.949831e-02 -0.9968 0.9968 7.949831e-02 -283.2891 890.7921)" style="&st3;" width="24" height="24"/>
			</g>
		</g>
		<g transform="translate(480,80) scale(0.4,0.4)">
			<g transform="">
				
					<rect x="252.6" y="588.7" transform="matrix(7.949831e-02 -0.9968 0.9968 7.949831e-02 -355.1819 816.7605)" style="&st3;" width="24" height="24"/>
			</g>
		</g>
		<g transform="translate(600,80) scale(0.4,0.4)">
			<g transform="">
				
					<rect x="24.5" y="594.4" transform="matrix(7.949831e-02 -0.9968 0.9968 7.949831e-02 -570.8604 594.6656)" style="&st3;" width="24" height="24"/>
			</g>
		</g>
		<g transform="translate(320,120) scale(0.4,0.4)">
			<g transform="">
				
					<rect x="554.8" y="505" transform="matrix(7.949831e-02 -0.9968 0.9968 7.949831e-02 6.421 1040.9943)" style="&st3;" width="24" height="24"/>
			</g>
		</g>
		<g transform="translate(440,120) scale(0.4,0.4)">
			<g transform="">
				
					<rect x="326.8" y="510.7" transform="matrix(7.949831e-02 -0.9968 0.9968 7.949831e-02 -209.2574 818.8993)" style="&st3;" width="24" height="24"/>
			</g>
		</g>
		<g transform="translate(520,120) scale(0.4,0.4)">
			<g transform="">
				
					<rect x="174.7" y="514.6" transform="matrix(7.949831e-02 -0.9968 0.9968 7.949831e-02 -353.0431 670.8361)" style="&st3;" width="24" height="24"/>
			</g>
		</g>
		<g transform="translate(640,120) scale(0.4,0.4)">
			<g transform="">
				
					<rect x="-53.4" y="520.3" transform="matrix(7.949831e-02 -0.9968 0.9968 7.949831e-02 -568.7216 448.7411)" style="&st3;" width="24" height="24"/>
			</g>
		</g>
		<g transform="translate(360,160) scale(0.4,0.4)">
			<g transform="">
				
					<rect x="476.9" y="430.9" transform="matrix(7.949831e-02 -0.9968 0.9968 7.949831e-02 8.5598 895.0698)" style="&st3;" width="24" height="24"/>
			</g>
		</g>
		<g transform="translate(400,160) scale(0.4,0.4)">
			<g transform="">
				
					<rect x="400.9" y="432.8" transform="matrix(7.949831e-02 -0.9968 0.9968 7.949831e-02 -63.333 821.0381)" style="&st3;" width="24" height="24"/>
			</g>
		</g>
		<g transform="translate(440,160) scale(0.4,0.4)">
			<g transform="">
				
					<rect x="324.8" y="434.7" transform="matrix(7.949831e-02 -0.9968 0.9968 7.949831e-02 -135.2258 747.0065)" style="&st3;" width="24" height="24"/>
			</g>
		</g>
		<g transform="translate(560,160) scale(0.4,0.4)">
			<g transform="">
				
					<rect x="96.7" y="440.4" transform="matrix(7.949831e-02 -0.9968 0.9968 7.949831e-02 -350.9043 524.9116)" style="&st3;" width="24" height="24"/>
			</g>
		</g>
		<g transform="translate(640,160) scale(0.4,0.4)">
			<g transform="">
				
					<rect x="-55.3" y="444.3" transform="matrix(7.949831e-02 -0.9968 0.9968 7.949831e-02 -494.69 376.8483)" style="&st3;" width="24" height="24"/>
			</g>
		</g>
		<g transform="translate(360,200) scale(0.4,0.4)">
			<g transform="">
				
					<rect x="475" y="354.8" transform="matrix(7.949831e-02 -0.9968 0.9968 7.949831e-02 82.5915 823.1769)" style="&st3;" width="24" height="24"/>
			</g>
		</g>
		<g transform="translate(520,200) scale(0.4,0.4)">
			<g transform="">
				
					<rect x="170.9" y="362.5" transform="matrix(7.949831e-02 -0.9968 0.9968 7.949831e-02 -204.9798 527.0504)" style="&st3;" width="24" height="24"/>
			</g>
		</g>
		<g transform="translate(560,200) scale(0.4,0.4)">
			<g transform="">
				
					<rect x="94.8" y="364.4" transform="matrix(7.949831e-02 -0.9968 0.9968 7.949831e-02 -276.8727 453.0187)" style="&st3;" width="24" height="24"/>
			</g>
		</g>
		<g transform="translate(640,200) scale(0.4,0.4)">
			<g transform="">
				
					<rect x="-57.2" y="368.2" transform="matrix(7.949831e-02 -0.9968 0.9968 7.949831e-02 -420.6583 304.9555)" style="&st3;" width="24" height="24"/>
			</g>
		</g>
		<g transform="translate(320,240) scale(0.4,0.4)">
			<g transform="">
				
					<rect x="549.1" y="276.9" transform="matrix(7.949831e-02 -0.9968 0.9968 7.949831e-02 228.5159 825.3157)" style="&st3;" width="24" height="24"/>
			</g>
		</g>
		<g transform="translate(400,240) scale(0.4,0.4)">
			<g transform="">
				
					<rect x="397.1" y="280.7" transform="matrix(7.949831e-02 -0.9968 0.9968 7.949831e-02 84.7303 677.2524)" style="&st3;" width="24" height="24"/>
			</g>
		</g>
		<g transform="translate(480,240) scale(0.4,0.4)">
			<g transform="">
				
					<rect x="245" y="284.5" transform="matrix(7.949831e-02 -0.9968 0.9968 7.949831e-02 -59.0554 529.1892)" style="&st3;" width="24" height="24"/>
			</g>
		</g>
		<g transform="translate(560,240) scale(0.4,0.4)">
			<g transform="">
				
					<rect x="92.9" y="288.4" transform="matrix(7.949831e-02 -0.9968 0.9968 7.949831e-02 -202.841 381.1259)" style="&st3;" width="24" height="24"/>
			</g>
		</g>
		<g transform="translate(640,240) scale(0.4,0.4)">
			<g transform="">
				
					<rect x="-59.1" y="292.2" transform="matrix(7.949831e-02 -0.9968 0.9968 7.949831e-02 -346.6267 233.0627)" style="&st3;" width="24" height="24"/>
			</g>
		</g>
		<g transform="translate(320,280) scale(0.4,0.4)">
			<g transform="">
				
					<rect x="547.2" y="200.9" transform="matrix(7.949831e-02 -0.9968 0.9968 7.949831e-02 302.5476 753.4229)" style="&st3;" width="24" height="24"/>
			</g>
		</g>
		<g transform="translate(360,280) scale(0.4,0.4)">
			<g transform="">
				
					<rect x="471.2" y="202.8" transform="matrix(7.949831e-02 -0.9968 0.9968 7.949831e-02 230.6547 679.3912)" style="&st3;" width="24" height="24"/>
			</g>
		</g>
		<g transform="translate(440,280) scale(0.4,0.4)">
			<g transform="">
				
					<rect x="319.1" y="206.6" transform="matrix(7.949831e-02 -0.9968 0.9968 7.949831e-02 86.8691 531.328)" style="&st3;" width="24" height="24"/>
			</g>
		</g>
		<g transform="translate(480,280) scale(0.4,0.4)">
			<g transform="">
				
					<rect x="243.1" y="208.5" transform="matrix(7.949831e-02 -0.9968 0.9968 7.949831e-02 14.9763 457.2964)" style="&st3;" width="24" height="24"/>
			</g>
		</g>
		<g transform="translate(560,280) scale(0.4,0.4)">
			<g transform="">
				
					<rect x="91" y="212.3" transform="matrix(7.949831e-02 -0.9968 0.9968 7.949831e-02 -128.8094 309.2331)" style="&st3;" width="24" height="24"/>
			</g>
		</g>
		<g transform="translate(600,280) scale(0.4,0.4)">
			<g transform="">
				
					<rect x="15" y="214.3" transform="matrix(7.949831e-02 -0.9968 0.9968 7.949831e-02 -200.7022 235.2014)" style="&st3;" width="24" height="24"/>
			</g>
		</g>
		<g transform="translate(0,320) scale(0.4,0.4)">
			<g transform="">
				
					<rect x="1153.5" y="109.5" transform="matrix(7.949831e-02 -0.9968 0.9968 7.949831e-02 951.7219 1273.7831)" style="&st3;" width="24" height="24"/>
			</g>
		</g>
		<g transform="translate(240,320) scale(0.4,0.4)">
			<g transform="">
				
					<rect x="697.4" y="121" transform="matrix(7.949831e-02 -0.9968 0.9968 7.949831e-02 520.3649 829.5933)" style="&st3;" width="24" height="24"/>
			</g>
		</g>
		<g transform="translate(320,320) scale(0.4,0.4)">
			<g transform="">
				
					<rect x="545.3" y="124.8" transform="matrix(7.949831e-02 -0.9968 0.9968 7.949831e-02 376.5792 681.5301)" style="&st3;" width="24" height="24"/>
			</g>
		</g>
		<g transform="translate(480,320) scale(0.4,0.4)">
			<g transform="">
				
					<rect x="241.2" y="132.5" transform="matrix(7.949831e-02 -0.9968 0.9968 7.949831e-02 89.0079 385.4035)" style="&st3;" width="24" height="24"/>
			</g>
		</g>
		<g transform="translate(520,320) scale(0.4,0.4)">
			<g transform="">
				
					<rect x="165.1" y="134.4" transform="matrix(7.949831e-02 -0.9968 0.9968 7.949831e-02 17.1151 311.3719)" style="&st3;" width="24" height="24"/>
			</g>
		</g>
		<g transform="translate(560,320) scale(0.4,0.4)">
			<g transform="">
				
					<rect x="89.1" y="136.3" transform="matrix(7.949831e-02 -0.9968 0.9968 7.949831e-02 -54.7778 237.3403)" style="&st3;" width="24" height="24"/>
			</g>
		</g>
		<g transform="translate(680,320) scale(0.4,0.4)">
			<g transform="">
				
					<rect x="-139" y="142" transform="matrix(7.949831e-02 -0.9968 0.9968 7.949831e-02 -270.4563 15.2454)" style="&st3;" width="24" height="24"/>
			</g>
		</g>
		<g transform="translate(720,320) scale(0.4,0.4)">
			<g transform="">
				
					<rect x="-215" y="144" transform="matrix(7.949831e-02 -0.9968 0.9968 7.949831e-02 -342.3491 -58.7863)" style="&st3;" width="24" height="24"/>
			</g>
		</g>
		<g transform="translate(840,320) scale(0.4,0.4)">
			<g transform="">
				
					<rect x="-443.1" y="149.7" transform="matrix(7.949831e-02 -0.9968 0.9968 7.949831e-02 -558.0276 -280.8812)" style="&st3;" width="24" height="24"/>
			</g>
		</g>
		<g transform="translate(880,320) scale(0.4,0.4)">
			<g transform="">
				
					<rect x="-519.2" y="151.6" transform="matrix(7.949831e-02 -0.9968 0.9968 7.949831e-02 -629.9204 -354.9128)" style="&st3;" width="24" height="24"/>
			</g>
		</g>
		<g transform="translate(920,320) scale(0.4,0.4)">
			<g transform="">
				
					<rect x="-595.2" y="153.5" transform="matrix(7.949831e-02 -0.9968 0.9968 7.949831e-02 -701.8132 -428.9445)" style="&st3;" width="24" height="24"/>
			</g>
		</g>
		<g transform="translate(40,360) scale(0.4,0.4)">
			<g transform="">
				
					<rect x="1075.6" y="35.4" transform="matrix(7.949831e-02 -0.9968 0.9968 7.949831e-02 953.8607 1127.8586)" style="&st3;" width="24" height="24"/>
			</g>
		</g>
		<g transform="translate(80,360) scale(0.4,0.4)">
			<g transform="">
				
					<rect x="999.6" y="37.3" transform="matrix(7.949831e-02 -0.9968 0.9968 7.949831e-02 881.9678 1053.827)" style="&st3;" width="24" height="24"/>
			</g>
		</g>
		<g transform="translate(160,360) scale(0.4,0.4)">
			<g transform="">
				
					<rect x="847.5" y="41.2" transform="matrix(7.949831e-02 -0.9968 0.9968 7.949831e-02 738.1821 905.7638)" style="&st3;" width="24" height="24"/>
			</g>
		</g>
		<g transform="translate(280,360) scale(0.4,0.4)">
			<g transform="">
				
					<rect x="619.4" y="46.9" transform="matrix(7.949831e-02 -0.9968 0.9968 7.949831e-02 522.5037 683.6689)" style="&st3;" width="24" height="24"/>
			</g>
		</g>
		<g transform="translate(320,360) scale(0.4,0.4)">
			<g transform="">
				
					<rect x="543.4" y="48.8" transform="matrix(7.949831e-02 -0.9968 0.9968 7.949831e-02 450.6108 609.6372)" style="&st3;" width="24" height="24"/>
			</g>
		</g>
		<g transform="translate(360,360) scale(0.4,0.4)">
			<g transform="">
				
					<rect x="467.3" y="50.7" transform="matrix(7.949831e-02 -0.9968 0.9968 7.949831e-02 378.718 535.6056)" style="&st3;" width="24" height="24"/>
			</g>
		</g>
		<g transform="translate(400,360) scale(0.4,0.4)">
			<g transform="">
				
					<rect x="391.3" y="52.6" transform="matrix(7.949831e-02 -0.9968 0.9968 7.949831e-02 306.8252 461.574)" style="&st3;" width="24" height="24"/>
			</g>
		</g>
		<g transform="translate(440,360) scale(0.4,0.4)">
			<g transform="">
				
					<rect x="315.3" y="54.5" transform="matrix(7.949831e-02 -0.9968 0.9968 7.949831e-02 234.9324 387.5423)" style="&st3;" width="24" height="24"/>
			</g>
		</g>
		<g transform="translate(480,360) scale(0.4,0.4)">
			<g transform="">
				
					<rect x="239.3" y="56.5" transform="matrix(7.949831e-02 -0.9968 0.9968 7.949831e-02 163.0395 313.5107)" style="&st3;" width="24" height="24"/>
			</g>
		</g>
		<g transform="translate(520,360) scale(0.4,0.4)">
			<g transform="">
				
					<rect x="163.2" y="58.4" transform="matrix(7.949831e-02 -0.9968 0.9968 7.949831e-02 91.1467 239.4791)" style="&st3;" width="24" height="24"/>
			</g>
		</g>
		<g transform="translate(560,360) scale(0.4,0.4)">
			<g transform="">
				
					<rect x="87.2" y="60.3" transform="matrix(7.949831e-02 -0.9968 0.9968 7.949831e-02 19.2539 165.4474)" style="&st3;" width="24" height="24"/>
			</g>
		</g>
		<g transform="translate(600,360) scale(0.4,0.4)">
			<g transform="">
				
					<rect x="11.2" y="62.2" transform="matrix(7.949831e-02 -0.9968 0.9968 7.949831e-02 -52.639 91.4158)" style="&st3;" width="24" height="24"/>
			</g>
		</g>
		<g transform="translate(680,360) scale(0.4,0.4)">
			<g transform="">
				
					<rect x="-140.9" y="66" transform="matrix(7.949831e-02 -0.9968 0.9968 7.949831e-02 -196.4246 -56.6475)" style="&st3;" width="24" height="24"/>
			</g>
		</g>
		<g transform="translate(760,360) scale(0.4,0.4)">
			<g transform="">
				
					<rect x="-293" y="69.8" transform="matrix(7.949831e-02 -0.9968 0.9968 7.949831e-02 -340.2103 -204.7107)" style="&st3;" width="24" height="24"/>
			</g>
		</g>
		<g transform="translate(800,360) scale(0.4,0.4)">
			<g transform="">
				
					<rect x="-369" y="71.7" transform="matrix(7.949831e-02 -0.9968 0.9968 7.949831e-02 -412.1031 -278.7424)" style="&st3;" width="24" height="24"/>
			</g>
		</g>
		<g transform="translate(840,360) scale(0.4,0.4)">
			<g transform="">
				
					<rect x="-445" y="73.7" transform="matrix(7.949831e-02 -0.9968 0.9968 7.949831e-02 -483.9959 -352.774)" style="&st3;" width="24" height="24"/>
			</g>
		</g>
		<g transform="translate(880,360) scale(0.4,0.4)">
			<g transform="">
				
					<rect x="-521.1" y="75.6" transform="matrix(7.949831e-02 -0.9968 0.9968 7.949831e-02 -555.8888 -426.8056)" style="&st3;" width="24" height="24"/>
			</g>
		</g>
		<g transform="translate(920,360) scale(0.4,0.4)">
			<g transform="">
				
					<rect x="-597.1" y="77.5" transform="matrix(7.949831e-02 -0.9968 0.9968 7.949831e-02 -627.7816 -500.8373)" style="&st3;" width="24" height="24"/>
			</g>
		</g>
		<g transform="translate(0,400) scale(0.4,0.4)">
			<g transform="">
				
					<rect x="1149.7" y="-42.5" transform="matrix(7.949831e-02 -0.9968 0.9968 7.949831e-02 1099.7852 1129.9974)" style="&st3;" width="24" height="24"/>
			</g>
		</g>
		<g transform="translate(160,400) scale(0.4,0.4)">
			<g transform="">
				
					<rect x="845.6" y="-34.9" transform="matrix(7.949831e-02 -0.9968 0.9968 7.949831e-02 812.2138 833.8709)" style="&st3;" width="24" height="24"/>
			</g>
		</g>
		<g transform="translate(200,400) scale(0.4,0.4)">
			<g transform="">
				
					<rect x="769.6" y="-33" transform="matrix(7.949831e-02 -0.9968 0.9968 7.949831e-02 740.321 759.8393)" style="&st3;" width="24" height="24"/>
			</g>
		</g>
		<g transform="translate(240,400) scale(0.4,0.4)">
			<g transform="">
				
					<rect x="693.5" y="-31" transform="matrix(7.949831e-02 -0.9968 0.9968 7.949831e-02 668.4282 685.8077)" style="&st3;" width="24" height="24"/>
			</g>
		</g>
		<g transform="translate(320,400) scale(0.4,0.4)">
			<g transform="">
				
					<rect x="541.5" y="-27.2" transform="matrix(7.949831e-02 -0.9968 0.9968 7.949831e-02 524.6425 537.7444)" style="&st3;" width="24" height="24"/>
			</g>
		</g>
		<g transform="translate(400,400) scale(0.4,0.4)">
			<g transform="">
				
					<rect x="389.4" y="-23.4" transform="matrix(7.949831e-02 -0.9968 0.9968 7.949831e-02 380.8568 389.6811)" style="&st3;" width="24" height="24"/>
			</g>
		</g>
		<g transform="translate(440,400) scale(0.4,0.4)">
			<g transform="">
				
					<rect x="313.4" y="-21.5" transform="matrix(7.949831e-02 -0.9968 0.9968 7.949831e-02 308.964 315.6495)" style="&st3;" width="24" height="24"/>
			</g>
		</g>
		<g transform="translate(600,400) scale(0.4,0.4)">
			<g transform="">
				
					<rect x="9.2" y="-13.8" transform="matrix(7.949831e-02 -0.9968 0.9968 7.949831e-02 21.3927 19.523)" style="&st3;" width="24" height="24"/>
			</g>
		</g>
		<g transform="translate(640,400) scale(0.4,0.4)">
			<g transform="">
				
					<rect x="-66.8" y="-11.9" transform="matrix(7.949831e-02 -0.9968 0.9968 7.949831e-02 -50.5002 -54.5087)" style="&st3;" width="24" height="24"/>
			</g>
		</g>
		<g transform="translate(680,400) scale(0.4,0.4)">
			<g transform="">
				
					<rect x="-142.8" y="-10" transform="matrix(7.949831e-02 -0.9968 0.9968 7.949831e-02 -122.393 -128.5403)" style="&st3;" width="24" height="24"/>
			</g>
		</g>
		<g transform="translate(720,400) scale(0.4,0.4)">
			<g transform="">
				
					<rect x="-218.9" y="-8.1" transform="matrix(7.949831e-02 -0.9968 0.9968 7.949831e-02 -194.2858 -202.5719)" style="&st3;" width="24" height="24"/>
			</g>
		</g>
		<g transform="translate(760,400) scale(0.4,0.4)">
			<g transform="">
				
					<rect x="-294.9" y="-6.2" transform="matrix(7.949831e-02 -0.9968 0.9968 7.949831e-02 -266.1786 -276.6036)" style="&st3;" width="24" height="24"/>
			</g>
		</g>
		<g transform="translate(800,400) scale(0.4,0.4)">
			<g transform="">
				
					<rect x="-370.9" y="-4.3" transform="matrix(7.949831e-02 -0.9968 0.9968 7.949831e-02 -338.0715 -350.6352)" style="&st3;" width="24" height="24"/>
			</g>
		</g>
		<g transform="translate(840,400) scale(0.4,0.4)">
			<g transform="">
				
					<rect x="-446.9" y="-2.4" transform="matrix(7.949831e-02 -0.9968 0.9968 7.949831e-02 -409.9643 -424.6668)" style="&st3;" width="24" height="24"/>
			</g>
		</g>
		<g transform="translate(920,400) scale(0.4,0.4)">
			<g transform="">
				
					<rect x="-599" y="1.4" transform="matrix(7.949831e-02 -0.9968 0.9968 7.949831e-02 -553.7499 -572.7301)" style="&st3;" width="24" height="24"/>
			</g>
		</g>
		<g transform="translate(960,400) scale(0.4,0.4)">
			<g transform="">
				
					<rect x="-675" y="3.4" transform="matrix(7.949831e-02 -0.9968 0.9968 7.949831e-02 -625.6428 -646.7617)" style="&st3;" width="24" height="24"/>
			</g>
		</g>
		<g transform="translate(0,440) scale(0.4,0.4)">
			<g transform="">
				
					<rect x="1147.8" y="-118.5" transform="matrix(7.949831e-02 -0.9968 0.9968 7.949831e-02 1173.8168 1058.1046)" style="&st3;" width="24" height="24"/>
			</g>
		</g>
		<g transform="translate(80,440) scale(0.4,0.4)">
			<g transform="">
				
					<rect x="995.7" y="-114.7" transform="matrix(7.949831e-02 -0.9968 0.9968 7.949831e-02 1030.0311 910.0414)" style="&st3;" width="24" height="24"/>
			</g>
		</g>
		<g transform="translate(360,440) scale(0.4,0.4)">
			<g transform="">
				
					<rect x="463.5" y="-101.3" transform="matrix(7.949831e-02 -0.9968 0.9968 7.949831e-02 526.7812 391.8199)" style="&st3;" width="24" height="24"/>
			</g>
		</g>
		<g transform="translate(480,440) scale(0.4,0.4)">
			<g transform="">
				
					<rect x="235.4" y="-95.6" transform="matrix(7.949831e-02 -0.9968 0.9968 7.949831e-02 311.1028 169.725)" style="&st3;" width="24" height="24"/>
			</g>
		</g>
		<g transform="translate(560,440) scale(0.4,0.4)">
			<g transform="">
				
					<rect x="83.4" y="-91.8" transform="matrix(7.949831e-02 -0.9968 0.9968 7.949831e-02 167.3171 21.6618)" style="&st3;" width="24" height="24"/>
			</g>
		</g>
		<g transform="translate(680,440) scale(0.4,0.4)">
			<g transform="">
				
					<rect x="-144.7" y="-86.1" transform="matrix(7.949831e-02 -0.9968 0.9968 7.949831e-02 -48.3614 -200.4331)" style="&st3;" width="24" height="24"/>
			</g>
		</g>
		<g transform="translate(760,440) scale(0.4,0.4)">
			<g transform="">
				
					<rect x="-296.8" y="-82.2" transform="matrix(7.949831e-02 -0.9968 0.9968 7.949831e-02 -192.147 -348.4964)" style="&st3;" width="24" height="24"/>
			</g>
		</g>
		<g transform="translate(840,440) scale(0.4,0.4)">
			<g transform="">
				
					<rect x="-448.9" y="-78.4" transform="matrix(7.949831e-02 -0.9968 0.9968 7.949831e-02 -335.9327 -496.5597)" style="&st3;" width="24" height="24"/>
			</g>
		</g>
		<g transform="translate(960,440) scale(0.4,0.4)">
			<g transform="">
				
					<rect x="-677" y="-72.7" transform="matrix(7.949831e-02 -0.9968 0.9968 7.949831e-02 -551.6111 -718.6546)" style="&st3;" width="24" height="24"/>
			</g>
		</g>
		<g transform="translate(40,480) scale(0.4,0.4)">
			<g transform="">
				
					<rect x="1069.9" y="-192.7" transform="matrix(7.949831e-02 -0.9968 0.9968 7.949831e-02 1175.9556 912.1802)" style="&st3;" width="24" height="24"/>
			</g>
		</g>
		<g transform="translate(80,480) scale(0.4,0.4)">
			<g transform="">
				
					<rect x="993.8" y="-190.8" transform="matrix(7.949831e-02 -0.9968 0.9968 7.949831e-02 1104.0627 838.1486)" style="&st3;" width="24" height="24"/>
			</g>
		</g>
		<g transform="translate(160,480) scale(0.4,0.4)">
			<g transform="">
				
					<rect x="841.8" y="-186.9" transform="matrix(7.949831e-02 -0.9968 0.9968 7.949831e-02 960.277 690.0853)" style="&st3;" width="24" height="24"/>
			</g>
		</g>
		<g transform="translate(240,480) scale(0.4,0.4)">
			<g transform="">
				
					<rect x="689.7" y="-183.1" transform="matrix(7.949831e-02 -0.9968 0.9968 7.949831e-02 816.4914 542.022)" style="&st3;" width="24" height="24"/>
			</g>
		</g>
		<g transform="translate(280,480) scale(0.4,0.4)">
			<g transform="">
				
					<rect x="613.7" y="-181.2" transform="matrix(7.949831e-02 -0.9968 0.9968 7.949831e-02 744.5986 467.9904)" style="&st3;" width="24" height="24"/>
			</g>
		</g>
		<g transform="translate(320,480) scale(0.4,0.4)">
			<g transform="">
				
					<rect x="537.6" y="-179.3" transform="matrix(7.949831e-02 -0.9968 0.9968 7.949831e-02 672.7057 393.9587)" style="&st3;" width="24" height="24"/>
			</g>
		</g>
		<g transform="translate(360,480) scale(0.4,0.4)">
			<g transform="">
				
					<rect x="461.6" y="-177.4" transform="matrix(7.949831e-02 -0.9968 0.9968 7.949831e-02 600.8129 319.9271)" style="&st3;" width="24" height="24"/>
			</g>
		</g>
		<g transform="translate(400,480) scale(0.4,0.4)">
			<g transform="">
				
					<rect x="385.6" y="-175.5" transform="matrix(7.949831e-02 -0.9968 0.9968 7.949831e-02 528.9201 245.8955)" style="&st3;" width="24" height="24"/>
			</g>
		</g>
		<g transform="translate(440,480) scale(0.4,0.4)">
			<g transform="">
				
					<rect x="309.5" y="-173.6" transform="matrix(7.949831e-02 -0.9968 0.9968 7.949831e-02 457.0273 171.8638)" style="&st3;" width="24" height="24"/>
			</g>
		</g>
		<g transform="translate(480,480) scale(0.4,0.4)">
			<g transform="">
				
					<rect x="233.5" y="-171.6" transform="matrix(7.949831e-02 -0.9968 0.9968 7.949831e-02 385.1344 97.8322)" style="&st3;" width="24" height="24"/>
			</g>
		</g>
		<g transform="translate(600,480) scale(0.4,0.4)">
			<g transform="">
				
					<rect x="5.4" y="-165.9" transform="matrix(7.949831e-02 -0.9968 0.9968 7.949831e-02 169.4559 -124.2627)" style="&st3;" width="24" height="24"/>
			</g>
		</g>
		<g transform="translate(640,480) scale(0.4,0.4)">
			<g transform="">
				
					<rect x="-70.6" y="-164" transform="matrix(7.949831e-02 -0.9968 0.9968 7.949831e-02 97.5631 -198.2943)" style="&st3;" width="24" height="24"/>
			</g>
		</g>
		<g transform="translate(720,480) scale(0.4,0.4)">
			<g transform="">
				
					<rect x="-222.7" y="-160.2" transform="matrix(7.949831e-02 -0.9968 0.9968 7.949831e-02 -46.2225 -346.3576)" style="&st3;" width="24" height="24"/>
			</g>
		</g>
		<g transform="translate(960,480) scale(0.4,0.4)">
			<g transform="">
				
					<rect x="-678.9" y="-148.7" transform="matrix(7.949831e-02 -0.9968 0.9968 7.949831e-02 -477.5795 -790.5474)" style="&st3;" width="24" height="24"/>
			</g>
		</g>
		<g transform="translate(0,520) scale(0.4,0.4)">
			<g transform="">
				
					<rect x="1144" y="-270.6" transform="matrix(7.949831e-02 -0.9968 0.9968 7.949831e-02 1321.88 914.319)" style="&st3;" width="24" height="24"/>
			</g>
		</g>
		<g transform="translate(120,520) scale(0.4,0.4)">
			<g transform="">
				
					<rect x="915.9" y="-264.9" transform="matrix(7.949831e-02 -0.9968 0.9968 7.949831e-02 1106.2015 692.2241)" style="&st3;" width="24" height="24"/>
			</g>
		</g>
		<g transform="translate(200,520) scale(0.4,0.4)">
			<g transform="">
				
					<rect x="763.8" y="-261.1" transform="matrix(7.949831e-02 -0.9968 0.9968 7.949831e-02 962.4159 544.1608)" style="&st3;" width="24" height="24"/>
			</g>
		</g>
		<g transform="translate(520,520) scale(0.4,0.4)">
			<g transform="">
				
					<rect x="155.6" y="-245.8" transform="matrix(7.949831e-02 -0.9968 0.9968 7.949831e-02 387.2732 -48.0923)" style="&st3;" width="24" height="24"/>
			</g>
		</g>
		<g transform="translate(600,520) scale(0.4,0.4)">
			<g transform="">
				
					<rect x="3.5" y="-241.9" transform="matrix(7.949831e-02 -0.9968 0.9968 7.949831e-02 243.4876 -196.1555)" style="&st3;" width="24" height="24"/>
			</g>
		</g>
		<g transform="translate(640,520) scale(0.4,0.4)">
			<g transform="">
				
					<rect x="-72.5" y="-240" transform="matrix(7.949831e-02 -0.9968 0.9968 7.949831e-02 171.5947 -270.1872)" style="&st3;" width="24" height="24"/>
			</g>
		</g>
		<g transform="translate(680,520) scale(0.4,0.4)">
			<g transform="">
				
					<rect x="-148.6" y="-238.1" transform="matrix(7.949831e-02 -0.9968 0.9968 7.949831e-02 99.7019 -344.2188)" style="&st3;" width="24" height="24"/>
			</g>
		</g>
		<g transform="translate(760,520) scale(0.4,0.4)">
			<g transform="">
				
					<rect x="-300.6" y="-234.3" transform="matrix(7.949831e-02 -0.9968 0.9968 7.949831e-02 -44.0837 -492.2821)" style="&st3;" width="24" height="24"/>
			</g>
		</g>
		<g transform="translate(920,520) scale(0.4,0.4)">
			<g transform="">
				
					<rect x="-604.7" y="-226.6" transform="matrix(7.949831e-02 -0.9968 0.9968 7.949831e-02 -331.6551 -788.4086)" style="&st3;" width="24" height="24"/>
			</g>
		</g>
		<g transform="translate(0,560) scale(0.4,0.4)">
			<g transform="">
				
					<rect x="1142.1" y="-346.6" transform="matrix(7.949831e-02 -0.9968 0.9968 7.949831e-02 1395.9116 842.4261)" style="&st3;" width="24" height="24"/>
			</g>
		</g>
		<g transform="translate(120,560) scale(0.4,0.4)">
			<g transform="">
				
					<rect x="914" y="-340.9" transform="matrix(7.949831e-02 -0.9968 0.9968 7.949831e-02 1180.2332 620.3312)" style="&st3;" width="24" height="24"/>
			</g>
		</g>
		<g transform="translate(240,560) scale(0.4,0.4)">
			<g transform="">
				
					<rect x="685.9" y="-335.2" transform="matrix(7.949831e-02 -0.9968 0.9968 7.949831e-02 964.5547 398.2364)" style="&st3;" width="24" height="24"/>
			</g>
		</g>
		<g transform="translate(280,560) scale(0.4,0.4)">
			<g transform="">
				
					<rect x="609.9" y="-333.3" transform="matrix(7.949831e-02 -0.9968 0.9968 7.949831e-02 892.6619 324.2047)" style="&st3;" width="24" height="24"/>
			</g>
		</g>
		<g transform="translate(400,560) scale(0.4,0.4)">
			<g transform="">
				
					<rect x="381.8" y="-327.5" transform="matrix(7.949831e-02 -0.9968 0.9968 7.949831e-02 676.9833 102.1098)" style="&st3;" width="24" height="24"/>
			</g>
		</g>
		<g transform="translate(440,560) scale(0.4,0.4)">
			<g transform="">
				
					<rect x="305.7" y="-325.6" transform="matrix(7.949831e-02 -0.9968 0.9968 7.949831e-02 605.0905 28.0782)" style="&st3;" width="24" height="24"/>
			</g>
		</g>
		<g transform="translate(480,560) scale(0.4,0.4)">
			<g transform="">
				
					<rect x="229.7" y="-323.7" transform="matrix(7.949831e-02 -0.9968 0.9968 7.949831e-02 533.1977 -45.9534)" style="&st3;" width="24" height="24"/>
			</g>
		</g>
		<g transform="translate(520,560) scale(0.4,0.4)">
			<g transform="">
				
					<rect x="153.7" y="-321.8" transform="matrix(7.949831e-02 -0.9968 0.9968 7.949831e-02 461.3049 -119.9851)" style="&st3;" width="24" height="24"/>
			</g>
		</g>
		<g transform="translate(560,560) scale(0.4,0.4)">
			<g transform="">
				
					<rect x="77.6" y="-319.9" transform="matrix(7.949831e-02 -0.9968 0.9968 7.949831e-02 389.412 -194.0167)" style="&st3;" width="24" height="24"/>
			</g>
		</g>
		<g transform="translate(600,560) scale(0.4,0.4)">
			<g transform="">
				
					<rect x="1.6" y="-318" transform="matrix(7.949831e-02 -0.9968 0.9968 7.949831e-02 317.5192 -268.0483)" style="&st3;" width="24" height="24"/>
			</g>
		</g>
		<g transform="translate(640,560) scale(0.4,0.4)">
			<g transform="">
				
					<rect x="-74.4" y="-316.1" transform="matrix(7.949831e-02 -0.9968 0.9968 7.949831e-02 245.6264 -342.08)" style="&st3;" width="24" height="24"/>
			</g>
		</g>
		<g transform="translate(680,560) scale(0.4,0.4)">
			<g transform="">
				
					<rect x="-150.5" y="-314.1" transform="matrix(7.949831e-02 -0.9968 0.9968 7.949831e-02 173.7336 -416.1116)" style="&st3;" width="24" height="24"/>
			</g>
		</g>
		<g transform="translate(720,560) scale(0.4,0.4)">
			<g transform="">
				
					<rect x="-226.5" y="-312.2" transform="matrix(7.949831e-02 -0.9968 0.9968 7.949831e-02 101.8407 -490.1432)" style="&st3;" width="24" height="24"/>
			</g>
		</g>
		<g transform="translate(760,560) scale(0.4,0.4)">
			<g transform="">
				
					<rect x="-302.5" y="-310.3" transform="matrix(7.949831e-02 -0.9968 0.9968 7.949831e-02 29.9479 -564.1749)" style="&st3;" width="24" height="24"/>
			</g>
		</g>
		<g transform="translate(800,560) scale(0.4,0.4)">
			<g transform="">
				
					<rect x="-378.6" y="-308.4" transform="matrix(7.949831e-02 -0.9968 0.9968 7.949831e-02 -41.9449 -638.2065)" style="&st3;" width="24" height="24"/>
			</g>
		</g>
		<g transform="translate(840,560) scale(0.4,0.4)">
			<g transform="">
				
					<rect x="-454.6" y="-306.5" transform="matrix(7.949831e-02 -0.9968 0.9968 7.949831e-02 -113.8378 -712.2382)" style="&st3;" width="24" height="24"/>
			</g>
		</g>
		<g transform="translate(920,560) scale(0.4,0.4)">
			<g transform="">
				
					<rect x="-606.7" y="-302.7" transform="matrix(7.949831e-02 -0.9968 0.9968 7.949831e-02 -257.6234 -860.3015)" style="&st3;" width="24" height="24"/>
			</g>
		</g>
		<g transform="translate(960,560) scale(0.4,0.4)">
			<g transform="">
				
					<rect x="-682.7" y="-300.8" transform="matrix(7.949831e-02 -0.9968 0.9968 7.949831e-02 -329.5163 -934.3331)" style="&st3;" width="24" height="24"/>
			</g>
		</g>
		<g transform="translate(0,600) scale(0.4,0.4)">
			<g transform="">
				
					<rect x="1140.2" y="-422.7" transform="matrix(7.949831e-02 -0.9968 0.9968 7.949831e-02 1469.9432 770.5333)" style="&st3;" width="24" height="24"/>
			</g>
		</g>
		<g transform="translate(80,600) scale(0.4,0.4)">
			<g transform="">
				
					<rect x="988.1" y="-418.9" transform="matrix(7.949831e-02 -0.9968 0.9968 7.949831e-02 1326.1576 622.4701)" style="&st3;" width="24" height="24"/>
			</g>
		</g>
		<g transform="translate(160,600) scale(0.4,0.4)">
			<g transform="">
				
					<rect x="836" y="-415" transform="matrix(7.949831e-02 -0.9968 0.9968 7.949831e-02 1182.3719 474.4068)" style="&st3;" width="24" height="24"/>
			</g>
		</g>
		<g transform="translate(200,600) scale(0.4,0.4)">
			<g transform="">
				
					<rect x="760" y="-413.1" transform="matrix(7.949831e-02 -0.9968 0.9968 7.949831e-02 1110.4791 400.3752)" style="&st3;" width="24" height="24"/>
			</g>
		</g>
		<g transform="translate(320,600) scale(0.4,0.4)">
			<g transform="">
				
					<rect x="531.9" y="-407.4" transform="matrix(7.949831e-02 -0.9968 0.9968 7.949831e-02 894.8007 178.2803)" style="&st3;" width="24" height="24"/>
			</g>
		</g>
		<g transform="translate(440,600) scale(0.4,0.4)">
			<g transform="">
				
					<rect x="303.8" y="-401.6" transform="matrix(7.949831e-02 -0.9968 0.9968 7.949831e-02 679.1221 -43.8146)" style="&st3;" width="24" height="24"/>
			</g>
		</g>
		<g transform="translate(560,600) scale(0.4,0.4)">
			<g transform="">
				
					<rect x="75.7" y="-395.9" transform="matrix(7.949831e-02 -0.9968 0.9968 7.949831e-02 463.4437 -265.9095)" style="&st3;" width="24" height="24"/>
			</g>
		</g>
		<g transform="translate(600,600) scale(0.4,0.4)">
			<g transform="">
				
					<rect x="-0.3" y="-394" transform="matrix(7.949831e-02 -0.9968 0.9968 7.949831e-02 391.5508 -339.9412)" style="&st3;" width="24" height="24"/>
			</g>
		</g>
		<g transform="translate(640,600) scale(0.4,0.4)">
			<g transform="">
				
					<rect x="-76.3" y="-392.1" transform="matrix(7.949831e-02 -0.9968 0.9968 7.949831e-02 319.658 -413.9728)" style="&st3;" width="24" height="24"/>
			</g>
		</g>
		<g transform="translate(680,600) scale(0.4,0.4)">
			<g transform="">
				
					<rect x="-152.4" y="-390.2" transform="matrix(7.949831e-02 -0.9968 0.9968 7.949831e-02 247.7652 -488.0045)" style="&st3;" width="24" height="24"/>
			</g>
		</g>
		<g transform="translate(760,600) scale(0.4,0.4)">
			<g transform="">
				
					<rect x="-304.4" y="-386.4" transform="matrix(7.949831e-02 -0.9968 0.9968 7.949831e-02 103.9795 -636.0677)" style="&st3;" width="24" height="24"/>
			</g>
		</g>
		<g transform="translate(840,600) scale(0.4,0.4)">
			<g transform="">
				
					<rect x="-456.5" y="-382.5" transform="matrix(7.949831e-02 -0.9968 0.9968 7.949831e-02 -39.8061 -784.131)" style="&st3;" width="24" height="24"/>
			</g>
		</g>
		<g transform="translate(880,600) scale(0.4,0.4)">
			<g transform="">
				
					<rect x="-532.5" y="-380.6" transform="matrix(7.949831e-02 -0.9968 0.9968 7.949831e-02 -111.699 -858.1626)" style="&st3;" width="24" height="24"/>
			</g>
		</g>
		<g transform="translate(960,600) scale(0.4,0.4)">
			<g transform="">
				
					<rect x="-684.6" y="-376.8" transform="matrix(7.949831e-02 -0.9968 0.9968 7.949831e-02 -255.4846 -1006.2259)" style="&st3;" width="24" height="24"/>
			</g>
		</g>
		<g transform="translate(0,640) scale(0.4,0.4)">
			<g transform="">
				
					<rect x="1138.3" y="-498.7" transform="matrix(7.949831e-02 -0.9968 0.9968 7.949831e-02 1543.9749 698.6405)" style="&st3;" width="24" height="24"/>
			</g>
		</g>
		<g transform="translate(80,640) scale(0.4,0.4)">
			<g transform="">
				
					<rect x="986.2" y="-494.9" transform="matrix(7.949831e-02 -0.9968 0.9968 7.949831e-02 1400.1892 550.5772)" style="&st3;" width="24" height="24"/>
			</g>
		</g>
		<g transform="translate(120,640) scale(0.4,0.4)">
			<g transform="">
				
					<rect x="910.2" y="-493" transform="matrix(7.949831e-02 -0.9968 0.9968 7.949831e-02 1328.2964 476.5456)" style="&st3;" width="24" height="24"/>
			</g>
		</g>
		<g transform="translate(160,640) scale(0.4,0.4)">
			<g transform="">
				
					<rect x="834.1" y="-491.1" transform="matrix(7.949831e-02 -0.9968 0.9968 7.949831e-02 1256.4036 402.514)" style="&st3;" width="24" height="24"/>
			</g>
		</g>
		<g transform="translate(240,640) scale(0.4,0.4)">
			<g transform="">
				
					<rect x="682.1" y="-487.2" transform="matrix(7.949831e-02 -0.9968 0.9968 7.949831e-02 1112.6179 254.4507)" style="&st3;" width="24" height="24"/>
			</g>
		</g>
		<g transform="translate(280,640) scale(0.4,0.4)">
			<g transform="">
				
					<rect x="606" y="-485.3" transform="matrix(7.949831e-02 -0.9968 0.9968 7.949831e-02 1040.7251 180.4191)" style="&st3;" width="24" height="24"/>
			</g>
		</g>
		<g transform="translate(320,640) scale(0.4,0.4)">
			<g transform="">
				
					<rect x="530" y="-483.4" transform="matrix(7.949831e-02 -0.9968 0.9968 7.949831e-02 968.8323 106.3874)" style="&st3;" width="24" height="24"/>
			</g>
		</g>
		<g transform="translate(440,640) scale(0.4,0.4)">
			<g transform="">
				
					<rect x="301.9" y="-477.7" transform="matrix(7.949831e-02 -0.9968 0.9968 7.949831e-02 753.1538 -115.7075)" style="&st3;" width="24" height="24"/>
			</g>
		</g>
		<g transform="translate(600,640) scale(0.4,0.4)">
			<g transform="">
				
					<rect x="-2.2" y="-470" transform="matrix(7.949831e-02 -0.9968 0.9968 7.949831e-02 465.5825 -411.834)" style="&st3;" width="24" height="24"/>
			</g>
		</g>
		<g transform="translate(640,640) scale(0.4,0.4)">
			<g transform="">
				
					<rect x="-78.3" y="-468.1" transform="matrix(7.949831e-02 -0.9968 0.9968 7.949831e-02 393.6896 -485.8656)" style="&st3;" width="24" height="24"/>
			</g>
		</g>
		<g transform="translate(680,640) scale(0.4,0.4)">
			<g transform="">
				
					<rect x="-154.3" y="-466.2" transform="matrix(7.949831e-02 -0.9968 0.9968 7.949831e-02 321.7968 -559.8973)" style="&st3;" width="24" height="24"/>
			</g>
		</g>
		<g transform="translate(720,640) scale(0.4,0.4)">
			<g transform="">
				
					<rect x="-230.3" y="-464.3" transform="matrix(7.949831e-02 -0.9968 0.9968 7.949831e-02 249.904 -633.9289)" style="&st3;" width="24" height="24"/>
			</g>
		</g>
		<g transform="translate(760,640) scale(0.4,0.4)">
			<g transform="">
				
					<rect x="-306.4" y="-462.4" transform="matrix(7.949831e-02 -0.9968 0.9968 7.949831e-02 178.0112 -707.9606)" style="&st3;" width="24" height="24"/>
			</g>
		</g>
		<g transform="translate(800,640) scale(0.4,0.4)">
			<g transform="">
				
					<rect x="-382.4" y="-460.5" transform="matrix(7.949831e-02 -0.9968 0.9968 7.949831e-02 106.1183 -781.9922)" style="&st3;" width="24" height="24"/>
			</g>
		</g>
		<g transform="translate(880,640) scale(0.4,0.4)">
			<g transform="">
				
					<rect x="-534.4" y="-456.7" transform="matrix(7.949831e-02 -0.9968 0.9968 7.949831e-02 -37.6673 -930.0554)" style="&st3;" width="24" height="24"/>
			</g>
		</g>
		<g transform="translate(320,680) scale(0.4,0.4)">
			<g transform="">
				
					<rect x="528.1" y="-559.4" transform="matrix(7.949831e-02 -0.9968 0.9968 7.949831e-02 1042.8639 34.4946)" style="&st3;" width="24" height="24"/>
			</g>
		</g>
		<g transform="translate(360,680) scale(0.4,0.4)">
			<g transform="">
				
					<rect x="452.1" y="-557.5" transform="matrix(7.949831e-02 -0.9968 0.9968 7.949831e-02 970.9711 -39.537)" style="&st3;" width="24" height="24"/>
			</g>
		</g>
		<g transform="translate(480,680) scale(0.4,0.4)">
			<g transform="">
				
					<rect x="224" y="-551.8" transform="matrix(7.949831e-02 -0.9968 0.9968 7.949831e-02 755.2926 -261.6319)" style="&st3;" width="24" height="24"/>
			</g>
		</g>
		<g transform="translate(520,680) scale(0.4,0.4)">
			<g transform="">
				
					<rect x="147.9" y="-549.9" transform="matrix(7.949831e-02 -0.9968 0.9968 7.949831e-02 683.3998 -335.6636)" style="&st3;" width="24" height="24"/>
			</g>
		</g>
		<g transform="translate(600,680) scale(0.4,0.4)">
			<g transform="">
				
					<rect x="-4.1" y="-546.1" transform="matrix(7.949831e-02 -0.9968 0.9968 7.949831e-02 539.6141 -483.7268)" style="&st3;" width="24" height="24"/>
			</g>
		</g>
		<g transform="translate(640,680) scale(0.4,0.4)">
			<g transform="">
				
					<rect x="-80.2" y="-544.2" transform="matrix(7.949831e-02 -0.9968 0.9968 7.949831e-02 467.7213 -557.7585)" style="&st3;" width="24" height="24"/>
			</g>
		</g>
		<g transform="translate(800,680) scale(0.4,0.4)">
			<g transform="">
				
					<rect x="-384.3" y="-536.5" transform="matrix(7.949831e-02 -0.9968 0.9968 7.949831e-02 180.15 -853.885)" style="&st3;" width="24" height="24"/>
			</g>
		</g>
		<g transform="translate(360,720) scale(0.4,0.4)">
			<g transform="">
				
					<rect x="450.1" y="-633.6" transform="matrix(7.949831e-02 -0.9968 0.9968 7.949831e-02 1045.0027 -111.4299)" style="&st3;" width="24" height="24"/>
			</g>
		</g>
		<g transform="translate(440,720) scale(0.4,0.4)">
			<g transform="">
				
					<rect x="298.1" y="-629.7" transform="matrix(7.949831e-02 -0.9968 0.9968 7.949831e-02 901.217 -259.4931)" style="&st3;" width="24" height="24"/>
			</g>
		</g>
		<g transform="translate(640,720) scale(0.4,0.4)">
			<g transform="">
				
					<rect x="-82.1" y="-620.2" transform="matrix(7.949831e-02 -0.9968 0.9968 7.949831e-02 541.7529 -629.6513)" style="&st3;" width="24" height="24"/>
			</g>
		</g>
		<g transform="translate(720,720) scale(0.4,0.4)">
			<g transform="">
				
					<rect x="-234.1" y="-616.4" transform="matrix(7.949831e-02 -0.9968 0.9968 7.949831e-02 397.9673 -777.7146)" style="&st3;" width="24" height="24"/>
			</g>
		</g>
		<g transform="translate(800,720) scale(0.4,0.4)">
			<g transform="">
				
					<rect x="-386.2" y="-612.5" transform="matrix(7.949831e-02 -0.9968 0.9968 7.949831e-02 254.1816 -925.7778)" style="&st3;" width="24" height="24"/>
			</g>
		</g>
		<g transform="translate(960,720) scale(0.4,0.4)">
			<g transform="">
				
					<rect x="-690.3" y="-604.9" transform="matrix(7.949831e-02 -0.9968 0.9968 7.949831e-02 -33.3897 -1221.9044)" style="&st3;" width="24" height="24"/>
			</g>
		</g>
		<g transform="translate(360,760) scale(0.4,0.4)">
			<g transform="">
				
					<rect x="448.2" y="-709.6" transform="matrix(7.949831e-02 -0.9968 0.9968 7.949831e-02 1119.0343 -183.3227)" style="&st3;" width="24" height="24"/>
			</g>
		</g>
		<g transform="translate(400,760) scale(0.4,0.4)">
			<g transform="">
				
					<rect x="372.2" y="-707.7" transform="matrix(7.949831e-02 -0.9968 0.9968 7.949831e-02 1047.1415 -257.3543)" style="&st3;" width="24" height="24"/>
			</g>
		</g>
		<g transform="translate(480,760) scale(0.4,0.4)">
			<g transform="">
				
					<rect x="220.1" y="-703.9" transform="matrix(7.949831e-02 -0.9968 0.9968 7.949831e-02 903.3559 -405.4176)" style="&st3;" width="24" height="24"/>
			</g>
		</g>
		<g transform="translate(520,760) scale(0.4,0.4)">
			<g transform="">
				
					<rect x="144.1" y="-702" transform="matrix(7.949831e-02 -0.9968 0.9968 7.949831e-02 831.463 -479.4492)" style="&st3;" width="24" height="24"/>
			</g>
		</g>
		<g transform="translate(600,760) scale(0.4,0.4)">
			<g transform="">
				
					<rect x="-8" y="-698.1" transform="matrix(7.949831e-02 -0.9968 0.9968 7.949831e-02 687.6774 -627.5125)" style="&st3;" width="24" height="24"/>
			</g>
		</g>
		<g transform="translate(640,760) scale(0.4,0.4)">
			<g transform="">
				
					<rect x="-84" y="-696.2" transform="matrix(7.949831e-02 -0.9968 0.9968 7.949831e-02 615.7845 -701.5441)" style="&st3;" width="24" height="24"/>
			</g>
		</g>
		<g transform="translate(800,760) scale(0.4,0.4)">
			<g transform="">
				
					<rect x="-388.1" y="-688.6" transform="matrix(7.949831e-02 -0.9968 0.9968 7.949831e-02 328.2132 -997.6707)" style="&st3;" width="24" height="24"/>
			</g>
		</g>
		<g transform="translate(920,760) scale(0.4,0.4)">
			<g transform="">
				
					<rect x="-616.2" y="-682.8" transform="matrix(7.949831e-02 -0.9968 0.9968 7.949831e-02 112.5347 -1219.7656)" style="&st3;" width="24" height="24"/>
			</g>
		</g>
		<g transform="translate(960,760) scale(0.4,0.4)">
			<g transform="">
				
					<rect x="-692.2" y="-680.9" transform="matrix(7.949831e-02 -0.9968 0.9968 7.949831e-02 40.6419 -1293.7972)" style="&st3;" width="24" height="24"/>
			</g>
		</g>
		<g transform="translate(360,800) scale(0.4,0.4)">
			<g transform="">
				
					<rect x="446.3" y="-785.6" transform="matrix(7.949831e-02 -0.9968 0.9968 7.949831e-02 1193.066 -255.2155)" style="&st3;" width="24" height="24"/>
			</g>
		</g>
		<g transform="translate(480,800) scale(0.4,0.4)">
			<g transform="">
				
					<rect x="218.2" y="-779.9" transform="matrix(7.949831e-02 -0.9968 0.9968 7.949831e-02 977.3875 -477.3104)" style="&st3;" width="24" height="24"/>
			</g>
		</g>
		<g transform="translate(560,800) scale(0.4,0.4)">
			<g transform="">
				
					<rect x="66.2" y="-776.1" transform="matrix(7.949831e-02 -0.9968 0.9968 7.949831e-02 833.6019 -625.3737)" style="&st3;" width="24" height="24"/>
			</g>
		</g>
		<g transform="translate(600,800) scale(0.4,0.4)">
			<g transform="">
				
					<rect x="-9.9" y="-774.2" transform="matrix(7.949831e-02 -0.9968 0.9968 7.949831e-02 761.709 -699.4053)" style="&st3;" width="24" height="24"/>
			</g>
		</g>
		<g transform="translate(640,800) scale(0.4,0.4)">
			<g transform="">
				
					<rect x="-85.9" y="-772.3" transform="matrix(7.949831e-02 -0.9968 0.9968 7.949831e-02 689.8162 -773.437)" style="&st3;" width="24" height="24"/>
			</g>
		</g>
		<g transform="translate(680,800) scale(0.4,0.4)">
			<g transform="">
				
					<rect x="-161.9" y="-770.3" transform="matrix(7.949831e-02 -0.9968 0.9968 7.949831e-02 617.9233 -847.4686)" style="&st3;" width="24" height="24"/>
			</g>
		</g>
		<g transform="translate(720,800) scale(0.4,0.4)">
			<g transform="">
				
					<rect x="-238" y="-768.4" transform="matrix(7.949831e-02 -0.9968 0.9968 7.949831e-02 546.0305 -921.5002)" style="&st3;" width="24" height="24"/>
			</g>
		</g>
		<g transform="translate(760,800) scale(0.4,0.4)">
			<g transform="">
				
					<rect x="-314" y="-766.5" transform="matrix(7.949831e-02 -0.9968 0.9968 7.949831e-02 474.1377 -995.5319)" style="&st3;" width="24" height="24"/>
			</g>
		</g>
		<g transform="translate(800,800) scale(0.4,0.4)">
			<g transform="">
				
					<rect x="-390" y="-764.6" transform="matrix(7.949831e-02 -0.9968 0.9968 7.949831e-02 402.2449 -1069.5635)" style="&st3;" width="24" height="24"/>
			</g>
		</g>
		<g transform="translate(880,800) scale(0.4,0.4)">
			<g transform="">
				
					<rect x="-542.1" y="-760.8" transform="matrix(7.949831e-02 -0.9968 0.9968 7.949831e-02 258.4592 -1217.6267)" style="&st3;" width="24" height="24"/>
			</g>
		</g>
		<g transform="translate(920,800) scale(0.4,0.4)">
			<g transform="">
				
					<rect x="-618.1" y="-758.9" transform="matrix(7.949831e-02 -0.9968 0.9968 7.949831e-02 186.5664 -1291.6584)" style="&st3;" width="24" height="24"/>
			</g>
		</g>
		<g transform="translate(960,800) scale(0.4,0.4)">
			<g transform="">
				
					<rect x="-694.2" y="-757" transform="matrix(7.949831e-02 -0.9968 0.9968 7.949831e-02 114.6736 -1365.6901)" style="&st3;" width="24" height="24"/>
			</g>
		</g>
		<g transform="translate(360,840) scale(0.4,0.4)">
			<g transform="">
				
					<rect x="444.4" y="-861.7" transform="matrix(7.949831e-02 -0.9968 0.9968 7.949831e-02 1267.0977 -327.1083)" style="&st3;" width="24" height="24"/>
			</g>
		</g>
		<g transform="translate(560,840) scale(0.4,0.4)">
			<g transform="">
				
					<rect x="64.3" y="-852.1" transform="matrix(7.949831e-02 -0.9968 0.9968 7.949831e-02 907.6335 -697.2665)" style="&st3;" width="24" height="24"/>
			</g>
		</g>
		<g transform="translate(600,840) scale(0.4,0.4)">
			<g transform="">
				
					<rect x="-11.8" y="-850.2" transform="matrix(7.949831e-02 -0.9968 0.9968 7.949831e-02 835.7407 -771.2982)" style="&st3;" width="24" height="24"/>
			</g>
		</g>
		<g transform="translate(720,840) scale(0.4,0.4)">
			<g transform="">
				
					<rect x="-239.9" y="-844.5" transform="matrix(7.949831e-02 -0.9968 0.9968 7.949831e-02 620.0621 -993.3931)" style="&st3;" width="24" height="24"/>
			</g>
		</g>
		<g transform="translate(920,840) scale(0.4,0.4)">
			<g transform="">
				
					<rect x="-620" y="-834.9" transform="matrix(7.949831e-02 -0.9968 0.9968 7.949831e-02 260.598 -1363.5513)" style="&st3;" width="24" height="24"/>
			</g>
		</g>
		<g transform="translate(960,840) scale(0.4,0.4)">
			<g transform="">
				
					<rect x="-696.1" y="-833" transform="matrix(7.949831e-02 -0.9968 0.9968 7.949831e-02 188.7052 -1437.5829)" style="&st3;" width="24" height="24"/>
			</g>
		</g>
		<g transform="translate(440,880) scale(0.4,0.4)">
			<g transform="">
				
					<rect x="290.4" y="-933.9" transform="matrix(7.949831e-02 -0.9968 0.9968 7.949831e-02 1197.3436 -547.0645)" style="&st3;" width="24" height="24"/>
			</g>
		</g>
		<g transform="translate(480,880) scale(0.4,0.4)">
			<g transform="">
				
					<rect x="214.4" y="-932" transform="matrix(7.949831e-02 -0.9968 0.9968 7.949831e-02 1125.4508 -621.0961)" style="&st3;" width="24" height="24"/>
			</g>
		</g>
		<g transform="translate(640,880) scale(0.4,0.4)">
			<g transform="">
				
					<rect x="-89.7" y="-924.3" transform="matrix(7.949831e-02 -0.9968 0.9968 7.949831e-02 837.8795 -917.2226)" style="&st3;" width="24" height="24"/>
			</g>
		</g>
		<g transform="translate(840,880) scale(0.4,0.4)">
			<g transform="">
				
					<rect x="-469.9" y="-914.8" transform="matrix(7.949831e-02 -0.9968 0.9968 7.949831e-02 478.4153 -1287.3807)" style="&st3;" width="24" height="24"/>
			</g>
		</g>
		<g transform="translate(880,880) scale(0.4,0.4)">
			<g transform="">
				
					<rect x="-545.9" y="-912.8" transform="matrix(7.949831e-02 -0.9968 0.9968 7.949831e-02 406.5225 -1361.4125)" style="&st3;" width="24" height="24"/>
			</g>
		</g>
		<g transform="translate(960,880) scale(0.4,0.4)">
			<g transform="">
				
					<rect x="-698" y="-909" transform="matrix(7.949831e-02 -0.9968 0.9968 7.949831e-02 262.7368 -1509.4757)" style="&st3;" width="24" height="24"/>
			</g>
		</g>
		<g transform="translate(400,920) scale(0.4,0.4)">
			<g transform="">
				
					<rect x="364.6" y="-1011.8" transform="matrix(7.949831e-02 -0.9968 0.9968 7.949831e-02 1343.2681 -544.9257)" style="&st3;" width="24" height="24"/>
			</g>
		</g>
		<g transform="translate(440,920) scale(0.4,0.4)">
			<g transform="">
				
					<rect x="288.5" y="-1009.9" transform="matrix(7.949831e-02 -0.9968 0.9968 7.949831e-02 1271.3752 -618.9573)" style="&st3;" width="24" height="24"/>
			</g>
		</g>
		<g transform="translate(560,920) scale(0.4,0.4)">
			<g transform="">
				
					<rect x="60.4" y="-1004.2" transform="matrix(7.949831e-02 -0.9968 0.9968 7.949831e-02 1055.6968 -841.0522)" style="&st3;" width="24" height="24"/>
			</g>
		</g>
		<g transform="translate(640,920) scale(0.4,0.4)">
			<g transform="">
				
					<rect x="-91.6" y="-1000.3" transform="matrix(7.949831e-02 -0.9968 0.9968 7.949831e-02 911.9111 -989.1155)" style="&st3;" width="24" height="24"/>
			</g>
		</g>
		<g transform="translate(680,920) scale(0.4,0.4)">
			<g transform="">
				
					<rect x="-167.7" y="-998.4" transform="matrix(7.949831e-02 -0.9968 0.9968 7.949831e-02 840.0182 -1063.1471)" style="&st3;" width="24" height="24"/>
			</g>
		</g>
		<g transform="translate(760,920) scale(0.4,0.4)">
			<g transform="">
				
					<rect x="-319.7" y="-994.6" transform="matrix(7.949831e-02 -0.9968 0.9968 7.949831e-02 696.2326 -1211.2103)" style="&st3;" width="24" height="24"/>
			</g>
		</g>
		<g transform="translate(800,920) scale(0.4,0.4)">
			<g transform="">
				
					<rect x="-395.8" y="-992.7" transform="matrix(7.949831e-02 -0.9968 0.9968 7.949831e-02 624.3398 -1285.2419)" style="&st3;" width="24" height="24"/>
			</g>
		</g>
		<g transform="translate(960,920) scale(0.4,0.4)">
			<g transform="">
				
					<rect x="-699.9" y="-985.1" transform="matrix(7.949831e-02 -0.9968 0.9968 7.949831e-02 336.7685 -1581.3685)" style="&st3;" width="24" height="24"/>
			</g>
		</g>
		<g transform="translate(320,960) scale(0.4,0.4)">
			<g transform="">
				
					<rect x="514.7" y="-1091.7" transform="matrix(7.949831e-02 -0.9968 0.9968 7.949831e-02 1561.0853 -468.7552)" style="&st3;" width="24" height="24"/>
			</g>
		</g>
		<g transform="translate(400,960) scale(0.4,0.4)">
			<g transform="">
				
					<rect x="362.6" y="-1087.8" transform="matrix(7.949831e-02 -0.9968 0.9968 7.949831e-02 1417.2997 -616.8185)" style="&st3;" width="24" height="24"/>
			</g>
		</g>
		<g transform="translate(520,960) scale(0.4,0.4)">
			<g transform="">
				
					<rect x="134.5" y="-1082.1" transform="matrix(7.949831e-02 -0.9968 0.9968 7.949831e-02 1201.6212 -838.9134)" style="&st3;" width="24" height="24"/>
			</g>
		</g>
		<g transform="translate(560,960) scale(0.4,0.4)">
			<g transform="">
				
					<rect x="58.5" y="-1080.2" transform="matrix(7.949831e-02 -0.9968 0.9968 7.949831e-02 1129.7284 -912.945)" style="&st3;" width="24" height="24"/>
			</g>
		</g>
		<g transform="translate(640,960) scale(0.4,0.4)">
			<g transform="">
				
					<rect x="-93.5" y="-1076.4" transform="matrix(7.949831e-02 -0.9968 0.9968 7.949831e-02 985.9427 -1061.0083)" style="&st3;" width="24" height="24"/>
			</g>
		</g>
		<g transform="translate(680,960) scale(0.4,0.4)">
			<g transform="">
				
					<rect x="-169.6" y="-1074.5" transform="matrix(7.949831e-02 -0.9968 0.9968 7.949831e-02 914.0499 -1135.0399)" style="&st3;" width="24" height="24"/>
			</g>
		</g>
		<g transform="translate(840,960) scale(0.4,0.4)">
			<g transform="">
				
					<rect x="-473.7" y="-1066.8" transform="matrix(7.949831e-02 -0.9968 0.9968 7.949831e-02 626.4786 -1431.1665)" style="&st3;" width="24" height="24"/>
			</g>
		</g>
		<g transform="translate(960,960) scale(0.4,0.4)">
			<g transform="">
				
					<rect x="-701.8" y="-1061.1" transform="matrix(7.949831e-02 -0.9968 0.9968 7.949831e-02 410.8001 -1653.2614)" style="&st3;" width="24" height="24"/>
			</g>
		</g>
		<g transform="translate(0,0) scale(2.8, 2.8)">
			<g transform="">
				<g>
					
						<rect x="169.7" y="106.9" transform="matrix(7.949831e-02 -0.9968 0.9968 7.949831e-02 48.9979 283.7648)" style="&st6;" width="16.8" height="16.8"/>
					<path style="&st3;" d="M187.5,104l-16.8-1.3l-3.6-0.3l-0.3,3.6l-1.3,16.8l-0.3,3.6l3.6,0.3l16.8,1.3l3.6,0.3l0.3-3.6l1.3-16.8
						l0.3-3.6L187.5,104z M185.9,124.4l-16.8-1.3l1.3-16.8l16.8,1.3L185.9,124.4z"/>
				</g>
			</g>
		</g>
		<g transform="translate(720,0) scale(2.8, 2.8)">
			<g transform="">
				<g>
					
						<rect x="-25.8" y="111.9" transform="matrix(7.949831e-02 -0.9968 0.9968 7.949831e-02 -135.8694 93.3977)" style="&st6;" width="16.8" height="16.8"/>
					<path style="&st3;" d="M-8,109l-16.8-1.3l-3.6-0.3l-0.3,3.6l-1.3,16.8l-0.3,3.6l3.6,0.3l16.8,1.3l3.6,0.3l0.3-3.6l1.3-16.8
						l0.3-3.6L-8,109z M-9.6,129.3l-16.8-1.3l1.3-16.8l16.8,1.3L-9.6,129.3z"/>
				</g>
			</g>
		</g>
		<g transform="translate(0,720) scale(2.8, 2.8)">
			<g transform="">
				<g>
					
						<rect x="164.8" y="-88.6" transform="matrix(7.949831e-02 -0.9968 0.9968 7.949831e-02 239.3649 98.8975)" style="&st6;" width="16.8" height="16.8"/>
					<path style="&st3;" d="M182.6-91.5l-16.8-1.3l-3.6-0.3l-0.3,3.6l-1.3,16.8l-0.3,3.6l3.6,0.3l16.8,1.3l3.6,0.3l0.3-3.6l1.3-16.8
						l0.3-3.6L182.6-91.5z M181-71.1l-16.8-1.3l1.3-16.8l16.8,1.3L181-71.1z"/>
				</g>
			</g>
		</g>
		<g transform="translate(80,80) scale(1.2, 1.2)">
			<g transform="">
				
					<rect x="337" y="190.5" transform="matrix(7.949831e-02 -0.9968 0.9968 7.949831e-02 119.4173 534.2953)" style="&st3;" width="24" height="24"/>
			</g>
		</g>
		<g transform="translate(800,80) scale(1.2, 1.2)">
			<g transform="">
				
					<rect x="-119.2" y="201.9" transform="matrix(7.949831e-02 -0.9968 0.9968 7.949831e-02 -311.9397 90.1055)" style="&st3;" width="24" height="24"/>
			</g>
		</g>
		<g transform="translate(80,800) scale(1.2, 1.2)">
			<g transform="">
				
					<rect x="325.5" y="-265.7" transform="matrix(7.949831e-02 -0.9968 0.9968 7.949831e-02 563.6071 102.9384)" style="&st3;" width="24" height="24"/>
			</g>
		</g>
	</g>
</g>
</svg>
