<?xml version="1.0" encoding="utf-8"?>
<!-- Generator: Adobe Illustrator 28.6.0, SVG Export Plug-In . SVG Version: 9.03 Build 54939)  -->
<!DOCTYPE svg PUBLIC "-//W3C//DTD SVG 1.1//EN" "http://www.w3.org/Graphics/SVG/1.1/DTD/svg11.dtd" [
	<!ENTITY st0 "fill:#020203;">
	<!ENTITY st1 "fill:#E73B33;">
	<!ENTITY st2 "fill:#E5231E;">
	<!ENTITY st3 "fill:#FFFFFF;">
	<!ENTITY st4 "fill:#FFFFFF;stroke:#FFFFFF;stroke-width:10;stroke-miterlimit:10;">
	<!ENTITY st5 "fill:#FFFFFF;stroke:#FFFFFF;stroke-width:12.6265;stroke-miterlimit:10;">
	<!ENTITY st6 "fill:#BD271F;">
	<!ENTITY st7 "fill:none;">
	<!ENTITY st8 "fill:none;stroke:#FFFFFF;stroke-width:3.2659;stroke-miterlimit:10;">
	<!ENTITY st9 "fill:#1F090B;">
]>
<svg version="1.1" id="Capa_1" xmlns="http://www.w3.org/2000/svg" xmlns:xlink="http://www.w3.org/1999/xlink" x="0px" y="0px"
	 viewBox="0 0 841.9 1190.6" style="enable-background:new 0 0 841.9 1190.6;" xml:space="preserve">
<g>
	<rect x="25.8" y="22.3" style="&st2;" width="790.4" height="1146"/>
	<path style="&st3;" d="M816.1,22.3v1146H25.8V22.3H816.1 M841.9,0h-25.8H25.8H0v22.3v1146v22.3h25.8h790.4h25.8v-22.3V22.3V0
		L841.9,0z"/>
</g>
<g>
	<g>
		<g>
			<g>
				<g>
					<path style="&st5;" d="M302.9,130.6c0.8,0.3,1.5,0.7,2.3,1.1c0.8,0.4,1.6,0.8,2.4,1.2c1,0.5,1.8,1.1,2.7,1.6
						c0.7,0.4,1.5,0.9,2.2,1.4c0.8,0.6,1.7,1.2,2.5,2c0.6,0.5,1.3,1,2,1.6c0.8,0.7,1.6,1.5,2.4,2.2c0.6,0.5,1.2,1.1,1.8,1.7
						c0.8,0.8,1.6,1.7,2.3,2.5c0.5,0.6,1.1,1.1,1.5,1.7c0.8,0.9,1.5,1.8,2.3,2.8c0.4,0.6,0.9,1.1,1.3,1.7c0.8,1.1,1.7,2.2,2.5,3.4
						c0.3,0.4,0.6,0.9,0.9,1.3c1.1,1.6,2.1,3.3,3.2,4.9c1.9,3,3.6,5.9,5.2,9c5,9.1,9.4,18.6,14.5,27.7c0.3,0.6,0.9,1.2,1.5,1.7
						c0.2,0.2,0.4,0.2,0.7,0.4c0.4,0.3,0.9,0.6,1.4,0.9c0.1,0,0.3,0.2,0.4,0.2c0.3,0.1,0.5,0.2,0.7,0.3c0.2,0,0.4,0.1,0.6,0.2
						c0.6,0.1,1.2,0.2,1.7,0.1c23.6-2.8,46.8-0.9,69.7,5c7.2,1.9,14.3,4.2,21.5,6.2c6.8,2.9,13.6,5.8,20.5,8.7
						c19.8,9.8,38.2,21.7,53.4,37.7c10.1,10.5,18.9,22.3,28.1,33.7c0.4,0.5,0.8,1,1.2,1.4l0,0.1c0.2,0.2,0.4,0.4,0.5,0.6
						c0.2,0.2,0.4,0.5,0.7,0.7c0.1,0.2,0.3,0.3,0.5,0.5c0.2,0.2,0.4,0.4,0.6,0.5s0.4,0.2,0.6,0.4c0.2,0.1,0.5,0.3,0.7,0.4
						c0.3,0.1,0.5,0.2,0.8,0.2c0.2,0.1,0.4,0.2,0.6,0.2c0.3,0,0.7,0,1,0c0.2,0,0.4,0,0.6,0c0.4,0,0.8-0.2,1.3-0.3
						c0.2,0,0.4-0.1,0.7-0.2c0.6-0.1,1.2-0.4,1.9-0.7l0.5-0.2c20.7-9.4,41.7-17.8,65.4-17.3c3.8,0.1,7.5,0.4,11,1
						c2.3,0.3,4.5,0.8,6.6,1.4c0.2,0,0.5,0.1,0.8,0.2c2,0.6,4,1.3,5.9,2.1l1.2,0.5c0.8,0.3,1.5,0.7,2.2,1c0.5,0.3,1,0.6,1.5,0.8
						c0.7,0.4,1.4,0.9,2.2,1.4c0.5,0.3,0.9,0.6,1.4,0.9c0.8,0.5,1.5,1.1,2.3,1.7c0.4,0.3,0.8,0.5,1.2,0.8c1.1,0.9,2.2,1.9,3.3,2.9
						c3.6,3.5,6.3,7.1,8,10.9c5.5,11.4,3.5,23.8-1.3,36.4c-7.3,19.1-19.3,35.8-31.8,51.7c-18.6,23.4-38.5,46-58.4,68.3
						c-6.2,7-8,14.8-11,23.1c-5.9,16.9-9.6,34.7-20.2,50.1c-6.4,9.3-9.8,21.3-11.9,32.5c-0.6,3.3-1.4,6.5-2.2,9.5
						c-0.2,0.7-0.5,1.4-0.7,2c-0.7,2.3-1.4,4.7-2.2,7l-1.2,2.7c-0.8,1.9-1.6,3.9-2.4,5.8c-0.5,1.1-1.1,2.1-1.6,3.1
						c-0.8,1.7-1.7,3.4-2.6,4.9c-0.4,0.6-0.7,1.1-1.1,1.7c-0.4,0.6-0.7,1.1-1.1,1.7c-0.9,1.5-1.9,2.9-2.8,4.3
						c-0.8,1.2-1.7,2.3-2.5,3.5c-1,1.3-1.9,2.7-3,3.9c-0.9,1.2-1.9,2.2-2.8,3.4c-1.1,1.2-2.2,2.5-3.3,3.7c-1,1-2,2.1-3,3.1
						c-0.4,0.4-0.7,0.7-1,1c-0.4,0.4-0.7,0.7-1.1,1.1c0,0-5.4,7.6-22.2,17c-0.2,0.1-0.4,0.2-0.6,0.4c-1.8,1-3.7,2-5.8,3l0,0.1
						c-0.5,0.4-1,0.7-1.4,0.9c-1.6,0.6-3,1.3-4.7,1.9c-0.7,0.3-1.5,0.7-2.3,1c-3.9,1.8-7.8,3.5-11.8,4.6c-5.4,1.5-10.9,2.9-16.4,4.1
						c0,0-0.1,0-0.1,0c-2,0.4-23.8,4.6-59.7,1.7c-20-1.6-44.4-5.4-72.3-13.3c-1.8-0.4-3.7-0.9-5.7-1.6c-1.3-0.5-6.5-1.5-7.9-2
						c-0.7-0.3-1.3-0.6-2.1-0.8c-8.2-2.4-16.3-5.4-24-8.8c-3.1-1.4-6.2-2.8-9.2-4.3c-7.6-3.7-14.9-7.6-21.8-11.7
						c-20.8-12.3-38-25.9-49.6-35.8c-0.8-0.7-1.7-1.4-2.4-2.1c-1-0.9-2-1.8-2.9-2.6c-1.7-1.6-3.2-2.9-4.5-4.1
						c-0.7-0.6-1.3-1.2-1.9-1.7c-2.2-2.2-3.7-3.6-4-4l0-0.1c-10.9-11-20.4-23.5-28.1-37.8c-8.3-15.5-13.4-31.2-15.8-47.4
						c-0.8-5.5-1.3-11.1-1.6-16.7c0-0.3,0-0.7-0.1-1c-4.4-44.6,23-75.6,24.9-77.7c0.1-0.1,0.1-0.1,0.1-0.1c1.2-1.7,2.5-3.3,3.8-4.9
						c1.3-1.6,2.7-3.2,4.1-4.7c0.4-0.4,0.7-0.9,1.1-1.4c1-1.4,1.9-2.9,2.6-4.6c2-4.7,3.7-9.7,5.5-14.5c2.9-6.9,5.8-13.8,8.7-20.7
						c0.7-1.9,1.5-3.7,2.2-5.5c2.1-4.8,4.4-9.4,7.1-13.8c3.7-6.1,8-11.8,12.8-17.1c0.9-0.9,1.5-1.9,2.1-2.9c1.9-3,2.7-6.2,3.3-9.5
						c0.4-2.2,0.6-4.5,0.8-6.7c0.3-2.2,0.5-4.4,1-6.6c6-27.5,11.3-55.1,16.1-82.7c2.1-12.6,6.1-24.6,11.1-36.2
						c1-2.2,1.9-4.3,2.9-6.4c11.3-24.1,31.3-32.7,56.8-23.9c0.9,0.3,1.8,0.6,2.6,1L302.9,130.6 M305.3,125.1l-1.3-0.5
						c-0.9-0.4-1.8-0.7-2.7-1.1c-28.4-9.8-51.8,0-64.4,26.9c-1,2.2-2,4.3-3,6.6c-5.7,13.1-9.4,25.4-11.5,37.6
						c-5.2,29.7-10.4,56.6-16.1,82.4c-0.5,2.3-0.7,4.6-1,6.7l-0.1,0.4l-0.2,1.8c-0.2,1.6-0.3,3.1-0.6,4.6c-0.5,3.2-1.3,5.4-2.5,7.2
						c-0.5,0.8-1,1.5-1.5,2c-5.2,5.7-9.7,11.8-13.6,18.1c-2.7,4.5-5.2,9.2-7.5,14.6c-0.8,1.9-1.6,3.7-2.3,5.7
						c-2.9,6.8-5.8,13.7-8.7,20.6c-0.7,1.8-1.3,3.4-1.9,5.1c-1.2,3.1-2.3,6.4-3.6,9.5c-0.4,1-1.1,2.2-1.9,3.3
						c-0.3,0.3-0.5,0.6-0.6,0.9l-0.2,0.3c-1.4,1.6-2.9,3.2-4.2,4.9c-1.3,1.5-2.5,3.1-3.8,4.9c-3.7,4.1-30.9,36.4-26.3,82.2l0.1,0.5
						c0.2,6,0.8,11.8,1.6,17.5c2.7,17.5,8,33.7,16.4,49.4c7.4,13.9,17.1,26.8,28.5,38.6l0.3,0.3c0.5,0.6,1.4,1.5,4.2,4.2l0.1,0.1
						l0.3,0.3c0.5,0.5,1.2,1.1,1.8,1.6c1.4,1.3,2.9,2.6,4.5,4.1l0.1,0.1l0.1,0.1c0.5,0.4,1,0.9,1.6,1.4l1.2,1.1l0.8,0.7
						c0.6,0.5,1.1,1,1.7,1.5c16.2,13.9,33.2,26.1,50.4,36.3c7.2,4.3,14.7,8.3,22.2,12c3.2,1.5,6.3,3,9.5,4.4
						c8.3,3.6,16.6,6.7,24.7,9.1c0.2,0.1,0.5,0.2,0.9,0.4c0.2,0.1,0.3,0.1,0.5,0.2c1.3,0.5,2.7,0.8,5,1.3c1.2,0.3,2.5,0.6,3.2,0.8
						c2.2,0.7,4.2,1.3,6.3,1.8c24.7,7,49.3,11.5,73.3,13.5c32.3,2.5,53.3-0.4,59.5-1.5l0.6,0.3l1.9-0.7c5.6-1.3,11.1-2.6,16.2-4.1
						c4.4-1.2,8.6-3,12.7-4.9l2.1-1c0.7-0.3,1.6-0.6,2.4-1c0.7-0.3,1.4-0.6,2.2-0.9c0.9-0.3,1.7-0.9,2.6-1.4
						c1.9-0.9,3.7-1.9,5.4-2.8l0.5-0.3l0.1-0.1l0,0c15.4-8.6,22-15.9,23.7-18.1c0.4-0.4,0.7-0.7,1-1l0.4-0.4l0.6-0.6
						c0.9-1,2.1-2,3-3.1c1.2-1.4,2.4-2.7,3.5-3.9l1.1-1.2c0.7-0.8,1.3-1.5,1.9-2.3c1.2-1.4,2.2-2.8,3.2-4.2c0.8-1,1.7-2.3,2.6-3.5
						c1.1-1.7,2.1-3.1,3-4.7c0.1-0.1,0.3-0.5,0.6-0.9c0.2-0.2,0.2-0.4,0.4-0.6c0.2-0.4,0.4-0.7,0.7-1.1c0.2-0.2,0.2-0.4,0.4-0.6
						l0.2-0.2l0.1-0.2c0.9-1.6,1.8-3.3,2.6-4.9l0-0.1l0.1-0.3c0.2-0.5,0.5-1,0.8-1.4c0.3-0.6,0.6-1.1,0.9-1.7c1-2.1,1.8-4.2,2.6-6.2
						l1.1-2.6c1-2.7,1.7-5.1,2.5-7.7l0.1-0.3c0.2-0.7,0.5-1.3,0.7-2c0.8-2.8,1.6-6.3,2.3-9.8c2.5-13.2,6.1-23.1,11-30.2
						c8.4-12.3,12.6-25.8,16.7-38.8c1.3-4.2,2.6-8.5,4.1-12.7c0.5-1.4,1-2.9,1.5-4.3c2.1-6.4,4-12,8.3-16.8
						c19.3-21.5,39.7-44.7,58.7-68.6c12.4-15.6,24.9-32.9,32.7-53.2c6.3-16.5,6.6-29.6,1.1-41.1c-2.1-4.4-5.2-8.6-9.3-12.6
						c-1-0.9-2.1-2-3.2-2.9l-0.4-0.3c-0.5-0.4-0.8-0.6-1.1-0.8l-0.3-0.2l-0.4-0.3c-0.7-0.6-1.5-1.1-2.2-1.6l-0.2-0.2l-0.2-0.1
						l-0.4-0.2c-0.3-0.2-0.7-0.4-1-0.6l-2-1.3l-0.4-0.2l-0.4-0.2c-0.3-0.1-0.6-0.3-0.9-0.4l-0.3-0.2l-0.4-0.2
						c-0.3-0.1-0.6-0.3-0.9-0.4c-0.4-0.2-0.9-0.4-1.3-0.6l-1.2-0.5c-2.3-1-4.5-1.8-6.7-2.4l-0.2-0.1l-0.2,0
						c-0.2-0.1-0.4-0.1-0.6-0.2c-2.5-0.7-4.8-1.2-7.2-1.5c-3.5-0.6-7.5-1-11.8-1c-25.3-0.5-47.5,8.5-68,17.8l-0.2,0.1l-0.2,0.1
						l-0.2,0.1c-0.3,0.1-0.5,0.2-0.7,0.3l-0.4,0.1l-0.1,0l-0.1,0l-0.4,0.1l-0.1,0l-0.1,0l-0.1,0l0,0l-0.1,0l-0.2-0.3l-0.5-0.3
						l-0.7-0.8c-0.2-0.2-0.3-0.4-0.6-0.6l-0.5-0.6c-1.9-2.4-3.9-4.9-5.9-7.4c-7.1-8.9-14.4-18.2-22.5-26.7
						c-14.2-14.8-32.2-27.6-55-38.9l-0.2-0.1l-0.2-0.1l-20.5-8.7l-0.3-0.1l-0.4-0.1c-2.6-0.7-5.2-1.5-7.7-2.3c-4.6-1.4-9.2-2.8-14-4
						c-23.9-6.2-48-7.9-71.5-5.2c-0.1,0-0.2-0.1-0.3-0.1c-0.2-0.1-0.3-0.1-0.5-0.2c-0.1,0-0.2-0.2-0.3-0.3c-0.2-0.2-0.4-0.2-0.6-0.4
						c-2.8-4.9-5.4-10-7.9-15c-2.1-4.1-4.2-8.4-6.5-12.5c-1.8-3.3-3.6-6.3-5.4-9.3l-2-3l-1.2-2l-0.2-0.3l-0.3-0.3
						c-0.1-0.2-0.3-0.4-0.4-0.6l-0.1-0.2l-0.1-0.2c-0.8-1.2-1.7-2.4-2.6-3.5c-0.1-0.2-0.4-0.6-0.7-0.9c-0.2-0.2-0.3-0.4-0.4-0.6
						c-0.9-1.2-1.7-2.2-2.5-3.2c-0.5-0.7-1.2-1.4-1.9-2c-0.7-0.7-1.5-1.7-2.4-2.6c-0.6-0.6-1.3-1.3-2.1-2l-0.6-0.5
						c-0.7-0.6-1.2-1.2-1.9-1.7c-0.4-0.3-0.7-0.6-1.1-0.9c-0.3-0.3-0.6-0.5-0.9-0.7c-1.1-0.9-2-1.5-2.8-2.2
						c-0.8-0.6-1.6-1.1-2.4-1.6l-0.3-0.2c-1-0.6-1.9-1.2-2.9-1.7c-0.6-0.3-1.2-0.7-1.9-1l-0.7-0.4
						C307,125.9,306.2,125.5,305.3,125.1L305.3,125.1z"/>
				</g>
				<g>
					<path style="&st6;" d="M185.8,584.2c-1.6-1.3-3.2-2.8-4.6-4.2l4.1-4.4c1.3,1.2,2.9,2.6,4.6,4.2L185.8,584.2z"/>
					<path style="&st3;" d="M183.3,577.9c1.3,1.2,2.8,2.5,4.5,4.1C186.3,580.6,184.7,579.3,183.3,577.9 M187.3,573.4l-8.2,8.7
						c1.3,1.3,2.9,2.8,4.8,4.4l8-8.9C190.2,576,188.6,574.6,187.3,573.4L187.3,573.4z"/>
				</g>
			</g>
		</g>
	</g>
	<g>
		<path style="&st6;" d="M315,559.7c-5.7-2.6-22.5,1.7-24.5,6.2c-3.2,7.3,3.3,18.4,13.3,22.7c10.4,4.5,18.5,2.3,21.8-6.1
			C327.9,576.7,321.4,562.6,315,559.7z"/>
		<g>
			<path style="&st0;" d="M476.1,653.4c1.6-0.7,3.1-1.4,4.7-2c0.4-0.2,0.9-0.5,1.4-0.9C480.3,651.5,478.3,652.5,476.1,653.4z"/>
			<path style="&st0;" d="M183.3,577.9c1.4,1.4,3,2.8,4.5,4.1C186.1,580.4,184.6,579,183.3,577.9z"/>
			<path style="&st0;" d="M647.2,393.5c12.5-15.8,24.5-32.6,31.8-51.7c4.8-12.5,6.7-25,1.3-36.4c-1.8-3.8-4.4-7.4-8-10.9
				c-1-1-2.2-2-3.3-2.9c-0.4-0.3-0.8-0.5-1.2-0.8c-0.8-0.6-1.5-1.2-2.3-1.7c-0.5-0.3-0.9-0.6-1.4-0.9c-0.8-0.5-1.5-0.9-2.2-1.4
				c-0.5-0.2-1-0.5-1.5-0.8c-0.8-0.3-1.5-0.7-2.2-1l-1.2-0.5c-1.9-0.8-3.9-1.6-5.9-2.1c-0.3-0.1-0.5-0.2-0.8-0.2
				c-2.2-0.6-4.4-1.1-6.6-1.4c-3.5-0.6-7.2-0.9-11-1c-23.7-0.5-44.7,7.9-65.4,17.3l-0.5,0.2c-0.7,0.3-1.3,0.6-1.9,0.7
				c-0.2,0.1-0.4,0.1-0.7,0.2c-0.4,0.1-0.9,0.3-1.3,0.3c-0.2,0-0.4,0-0.6,0c-0.3,0-0.7,0-1,0c-0.2,0-0.4-0.1-0.6-0.2
				c-0.3-0.1-0.5-0.1-0.8-0.2c-0.2-0.1-0.5-0.3-0.7-0.4c-0.2-0.2-0.4-0.2-0.6-0.4c-0.2-0.2-0.4-0.3-0.6-0.5
				c-0.2-0.2-0.4-0.3-0.5-0.5c-0.3-0.2-0.5-0.5-0.7-0.7c-0.2-0.2-0.4-0.4-0.5-0.6l0-0.1c-0.4-0.4-0.8-0.9-1.2-1.4
				c-9.2-11.4-18-23.2-28.1-33.7c-15.2-15.9-33.6-27.9-53.4-37.7c-6.8-2.9-13.7-5.8-20.5-8.7c-7.2-2.1-14.3-4.4-21.5-6.2
				c-22.9-5.9-46.1-7.8-69.7-5c-0.5,0.1-1.1,0-1.7-0.1c-0.2-0.1-0.4-0.2-0.6-0.2c-0.2-0.1-0.5-0.1-0.7-0.3c-0.1,0-0.3-0.2-0.4-0.2
				c-0.5-0.2-1-0.6-1.4-0.9c-0.3-0.2-0.5-0.3-0.7-0.4c-0.6-0.5-1.2-1.1-1.5-1.7c-5.1-9.1-9.5-18.5-14.5-27.7c-1.7-3.1-3.4-6-5.2-9
				c-1.1-1.6-2.1-3.3-3.2-4.9c-0.3-0.4-0.7-0.9-0.9-1.3c-0.8-1.1-1.6-2.3-2.5-3.4c-0.4-0.6-0.9-1.1-1.3-1.7c-0.8-1-1.5-1.9-2.3-2.8
				c-0.5-0.6-1-1.2-1.5-1.7c-0.7-0.8-1.5-1.7-2.3-2.5c-0.5-0.6-1.1-1.1-1.8-1.7c-0.8-0.7-1.6-1.5-2.4-2.2c-0.7-0.6-1.4-1.1-2-1.6
				c-0.9-0.7-1.7-1.3-2.5-2c-0.7-0.5-1.5-1-2.2-1.4c-0.9-0.6-1.8-1.2-2.7-1.6c-0.8-0.5-1.6-0.8-2.4-1.2c-0.8-0.4-1.5-0.8-2.3-1.1
				l-1.3-0.5c-0.8-0.4-1.7-0.7-2.6-1c-25.5-8.8-45.5-0.2-56.8,23.9c-1,2.1-2,4.2-2.9,6.4c-5,11.6-9,23.5-11.1,36.2
				c-4.8,27.7-10.1,55.3-16.1,82.7c-0.5,2.1-0.7,4.3-1,6.6c-0.3,2.2-0.4,4.5-0.8,6.7c-0.6,3.3-1.4,6.5-3.3,9.5
				c-0.6,1-1.3,1.9-2.1,2.9c-4.8,5.4-9.1,11.1-12.8,17.1c-2.7,4.4-5,9-7.1,13.8c-0.8,1.8-1.6,3.6-2.2,5.5
				c-2.9,6.9-5.8,13.8-8.7,20.7c-1.8,4.8-3.5,9.8-5.5,14.5c-0.7,1.6-1.6,3.2-2.6,4.6c-0.4,0.5-0.7,1-1.1,1.4
				c-1.4,1.6-2.8,3.1-4.1,4.7c-1.3,1.6-2.6,3.2-3.8,4.9c0,0,0,0.1-0.1,0.1c-1.9,2.1-29.3,33.1-24.9,77.7c0,0.3,0.1,0.7,0.1,1
				c0.2,5.6,0.8,11.2,1.6,16.7c2.4,16.2,7.5,32,15.8,47.4c7.7,14.3,17.2,26.8,28.1,37.8l0,0.1c0.3,0.4,1.8,1.8,4,4
				c0.6,0.5,1.2,1.1,1.9,1.7c1.3,1.2,2.8,2.5,4.5,4.1c1,0.8,1.9,1.7,2.9,2.6c0.8,0.7,1.6,1.4,2.4,2.1c11.6,9.9,28.8,23.4,49.6,35.8
				c6.9,4.1,14.2,8,21.8,11.7c10.5,5.1,21.7,9.6,33.2,13c0.7,0.3,1.4,0.5,2.1,0.8c1.3,0.5,6.5,1.5,7.9,2c2,0.7,3.9,1.2,5.7,1.6
				c27.8,7.9,52.2,11.7,72.3,13.3c35.9,2.8,57.7-1.3,59.7-1.7c0.1,0,0.1,0,0.1,0c5.5-1.2,11-2.6,16.4-4.1c4.1-1.1,7.9-2.8,11.8-4.6
				c0.8-0.4,1.5-0.7,2.3-1c2.2-1,4.2-1.9,6.1-2.9c2.1-1,4-2,5.8-3c0.2-0.2,0.4-0.3,0.6-0.4c16.8-9.4,22.2-17,22.2-17
				c0.4-0.3,0.8-0.7,1.1-1.1c0.4-0.4,0.7-0.7,1-1c1-1,2.1-2,3-3.1c1.1-1.2,2.3-2.5,3.3-3.7c1-1.2,1.9-2.2,2.8-3.4
				c1.1-1.2,2-2.6,3-3.9c0.9-1.1,1.7-2.3,2.5-3.5c0.9-1.4,1.9-2.8,2.8-4.3c0.4-0.6,0.7-1.1,1.1-1.7c0.4-0.6,0.7-1.1,1.1-1.7
				c0.9-1.6,1.8-3.3,2.6-4.9c0.5-1.1,1.1-2.1,1.6-3.1c0.9-1.9,1.7-3.8,2.4-5.8l1.2-2.7c0.9-2.3,1.6-4.7,2.2-7c0.2-0.7,0.5-1.3,0.7-2
				c0.9-3.1,1.6-6.3,2.2-9.5c2.1-11.2,5.6-23.2,11.9-32.5c10.5-15.5,14.2-33.3,20.2-50.1c2.9-8.3,4.8-16.1,11-23.1
				C608.8,439.5,628.6,416.9,647.2,393.5z M250.4,207.8c0.6-2.9,1.3-5.8,2-8.6c0.2-1,0.5-1.9,0.7-2.9c7.8-29.7,16.2-39.7,18.9-42.3
				c0.6-0.6,0.9-0.8,0.9-0.8c7.5-6.1,14.6-5.9,23.3-0.5c1.6,0.9,3.3,2.1,5,3.3c11.7,8.9,18.7,21.7,25.2,34.7
				c2.1,4.3,4.7,8.4,6.3,12.8c1.2,3.3,0.5,6.3-4,7.1c-15.9,3-30.5,9.5-44.9,16.4c-3.8,1.8-5,1.9-4.8-1.6c0-0.3,0-0.8,0.1-1.2
				c0.5-4.3,0.8-8.7,1.2-13.1c0.5-6.4-2.2-10-8.3-12.4c-6.1-2.3-9.6-0.7-11.1,5.1c-2,8.3-3.3,16.6-5,25c-1.7,8.3-3.4,16.5-5.3,24.8
				c-0.5,2-1.4,4-2.8,5.5c-1.5,1.6-3.7,2.4-5.7,3.6c-0.5-2.2-1.8-4.5-1.3-6.6C243.8,240,246.8,223.9,250.4,207.8z M499.2,604.4
				c-11.9,16.4-28.9,26.7-47.4,32.9c-15.3,5.1-32.1,6.7-48.3,8.1c-5.6,0.5-11.2,0.8-16.8,0.7c-15.4,0-30.7-1.9-45.7-5.3
				c-19.5-4.4-38.6-10.5-57.8-15.8c-27.9-13.7-52.7-30.7-73.9-51.6c-12.9-12.8-24.5-27-34.7-42.8c-16.7-25.9-23.4-53.9-15.8-83.5
				c4.7-18.4,12-37.1,29.8-48.5c2.3-1.4,3.5-4.9,4.6-7.7c5.9-14.6,9.7-30.4,17.6-43.7c12-20.3,27.6-37.8,47.9-51c1.6-1,3.2-2,4.8-3
				c17.4-10.6,36.2-17.5,56.1-21.7c9.5-2,14.9,5.5,20.7,10.5c5.4,4.8,10.4,10.6,13.9,16.9c3.7,6.8,7,14.5,7.7,22.1
				c1.7,17.2,1.9,34.5,2.7,51.8c0.1,3-0.8,6.1-0.2,8.9c1.2,6.5,1.6,13.2,10.1,16c10.8,3.6,20.7,9.5,31.5,12.9
				c6.3,2,11.5-2.9,15.5-7.7c4.5-5.4,8.1-11.6,13.2-16.2c18.4-16.8,39.4-28.6,64.5-31.7c5.9-0.7,12.1-0.8,17.9,0.3
				c8.3,1.5,13,8.4,16.5,15.3c7.6,15.2,14.2,30.9,16.9,47.7c0.3,1.6,0.6,3.3,0.8,5c2.2,17.9,2.8,35.9-2.9,53.5
				c-4.1,12.6-7.5,25.4-12.2,37.7c-2.7,7.3-7.4,13.8-11,20.9c-1.7,3.3-3.6,6.7-4.4,10.4c-1.6,8.1-3,16.3-3.9,24.6
				C515.4,584,506.7,594,499.2,604.4z M612.6,399.1c-7.4,9.7-15.2,19-22.9,28.5c-0.6,0.7-2.1,0.5-3.2,0.8c0.4-5.1-0.9-11.5,1.7-15.1
				c9.7-14.2,20.8-27.4,31.2-41.1c1.5-1.9,3.1-3.8,3.8-6c0.1-0.4,3.6-5.3,1.6-9c-3.4-6.5-10.2-4.5-14.1-3.1c-5.3,2-9.4,7.2-14,11.2
				c-1.7,1.6-2.9,3.8-4.6,5.4c-3.5,3.5-4.9,2-6.4-2.3c-0.1-0.3-0.2-0.7-0.3-1c-4.9-14.6-10-29.1-15.9-43.4c-1.3-3.2-1.4-3.9,1.5-5.2
				c18.7-8,37.6-14.4,57.8-15.7c3.3-0.3,6.7-0.3,10.1-0.2c9.4,0.2,17.6,6.6,19,17.4c0,0.2,0.1,0.5,0.1,0.7c0.1,0.5,0.1,1,0.1,1.5
				c0,0.3,0,0.7,0,1.1c-0.4,6.9-5,16.8-11.2,27.3C633.5,373.7,612.6,399.1,612.6,399.1z"/>
			<path style="&st3;" d="M516.9,570.3c0.9-8.3,2.3-16.5,3.9-24.6c0.8-3.6,2.7-7.1,4.4-10.4c3.6-7,8.3-13.6,11-20.9
				c4.7-12.3,8.1-25.1,12.2-37.7c5.7-17.6,5.2-35.6,2.9-53.5c-0.2-1.7-0.5-3.3-0.8-5c-2.7-16.9-9.3-32.5-16.9-47.7
				c-3.5-6.9-8.2-13.8-16.5-15.3c-5.8-1.1-12-1-17.9-0.3c-25.1,3.1-46.1,14.9-64.5,31.7c-5.1,4.7-8.7,10.9-13.2,16.2
				c-4,4.9-9.2,9.7-15.5,7.7c-10.8-3.4-20.7-9.4-31.5-12.9c-8.5-2.8-8.8-9.6-10.1-16c-0.6-2.8,0.3-5.9,0.2-8.9
				c-0.7-17.3-0.9-34.6-2.7-51.8c-0.8-7.6-4-15.3-7.7-22.1c-3.5-6.3-8.4-12.1-13.9-16.9c-5.8-5.1-11.2-12.6-20.7-10.5
				c-19.9,4.2-38.6,11.1-56.1,21.7c-1.7,1-3.3,2-4.8,3c-20.3,13.2-35.9,30.8-47.9,51c-7.9,13.3-11.8,29.1-17.6,43.7
				c-1.1,2.8-2.4,6.2-4.6,7.7c-17.8,11.4-25.1,30.1-29.8,48.5c-7.6,29.5-0.9,57.6,15.8,83.5c10.2,15.9,21.8,30.1,34.7,42.8
				c21.2,20.9,46,37.9,73.9,51.6c19.2,5.3,38.3,11.4,57.8,15.8c15,3.4,30.3,5.3,45.7,5.3c5.6,0,11.2-0.2,16.8-0.7
				c16.2-1.5,33-3,48.3-8.1c18.4-6.1,35.5-16.5,47.4-32.9C506.7,594,515.4,584,516.9,570.3z M453.9,418c11.8-12,32.1-8,38.1,7.6
				c1.6,4.1,2.4,8.4,3.5,12.7c0.2,1,0.1,2,0.3,4.8c-2.2-1.9-3.7-2.7-4.5-3.9c-5-8.8-12.2-14.9-22.3-16.6c-4.3-0.7-8.7,0-13-0.1
				c-1.2,0-2.3-0.6-3.4-1C452.9,420.4,453.1,418.8,453.9,418z M333.3,480.7c8.5-2.9,26.4,3.4,31.3,11.1c1.9,3.1,3.1,8.5,1.7,11.2
				c-1.2,2.4-6.8,3.7-10.3,3.5c-4.3-0.2-8.5-2.6-13.6-4.3c-3.4-1.9-8.1-3.6-11.7-6.6c-2.3-1.8-4.5-5.8-4-8.4
				C327.2,484.7,330.6,481.7,333.3,480.7z M287,344.6c8.6-5,17.4-9.3,27.5-4.4c5.4,2.4,13.9,17.9,12.6,23.5c-0.2,1-3.2,2.3-4.1,1.9
				c-2-1-3.4-3.1-5-4.7c-7.8-8.3-16.5-13.6-28.6-10.2c-1.8,0.5-4-0.8-6.1-1.3C284.7,347.7,285.4,345.5,287,344.6z M288.4,402.1
				c-1.8-6.4-6.4-8.1-11.6-4.5c-7.6,5.4-14.7,11.6-21.4,18.2c-4.1,4-2.7,6.2,3.7,7.6c3,0.6,6.2,1.3,8.7,2.8c2,1.1,5.7,3.4,4.6,5.5
				c-1.1,2-4.5,0.2-6.7-0.2c-6.3-1.2-12.5-3-18.7-3.9c-4.3-0.5-8.7,0-13,0.4c-3.4,0.3-4.6-0.7-3.2-4c9.7-22.3,22.1-42.2,45.9-52.4
				c6.9-2.9,13.1-1.6,19.5,0.7c9.2,3.6,17.4,17,16.9,33.5c-0.4,11.7-2.2,23.2-3.6,34.9c-0.3,2.3-1.4,4.6-2.4,6.7
				c-2.3,4.6-5.6,4.2-8.1,0.6c-4.9-6.9-8.2-14.1-7.2-23.4C292.6,417.4,290.5,409.4,288.4,402.1z M383.3,569.4
				c-8.4-0.5-16.8-1-25-2.8c-4.5-1-6.6-0.9-9.1,3.4c-5.4,9.4-13,17.2-22,23c-8.4,5.4-17.5,5.1-28.7-0.2c-9.6-4.2-16.9-16.8-15.8-31
				c0.6-7,1.1-14.1,2.8-20.9c1.1-4.5,0-6.3-3.9-7.5c-8.7-2.6-14.7-8.8-20.4-15.5c-3-3.4-2.7-6.2-0.6-9.1c1-1.3,3.4-2.4,5.1-2.2
				c1.1,0.2,2.6,2.5,2.9,4.1c1.2,6.4,5.7,9.8,10.7,12.7c14.8,8.7,30.2,9.4,46.1,2.9c5-2,7.4-3.7,10.1,4.4
				c5.4,16.2,15.7,29.4,35.3,30.3c3.2,0.1,6.5-0.7,9.7-1.2c2-0.3,5.1-1.7,5.7-1c1.7,2,3.1,4.9,3,7.3
				C388.8,567.4,385.2,569.5,383.3,569.4z M470.2,526.1c-1.8,1.2-6.5,1.6-7.2,0.6c-6.2-9.3-14.6-15.5-24.4-20.2
				c-1.7-0.8-3-2.6-4.4-4c-0.7-0.6-1.2-1.3-1.8-1.9c1,0,2.1-0.3,3,0c5.4,1.9,11.7,2.9,16.1,6.2c4.9,3.6,7.2,2.7,7.4-2.3
				c0.5-9.4,0.4-18.8-0.5-28.2c-0.6-5.7-5.2-8.9-10.6-5.9c-7.3,4-14.7,8.6-20.5,14.4c-7,6.9-15.1,8.4-24,8.5c-0.7,0-2.5-3-2.1-3.7
				c9.6-17,21.7-32.2,38.9-41.5c21.8-11.7,37.8,0.5,40,22.8c1.7,16.6-1.3,33-6.6,47.5C472.3,521.9,471.9,525,470.2,526.1z"/>
			<path style="&st3;" d="M646.9,350.8c-13.5,22.9-34.3,48.3-34.3,48.3c-7.4,9.7-15.2,19-22.9,28.5c-0.6,0.7-2.1,0.5-3.2,0.8
				c0.4-5.1-0.9-11.5,1.7-15.1c9.7-14.2,20.8-27.4,31.2-41.1c1.5-1.9,3.1-3.8,3.8-6c0.1-0.4,3.6-5.3,1.6-9
				c-3.4-6.5-10.2-4.5-14.1-3.1c-5.3,2-9.4,7.2-14,11.2c-1.7,1.6-2.9,3.8-4.6,5.4c-3.5,3.5-4.9,2-6.4-2.3c-0.1-0.3-0.2-0.7-0.3-1
				c-4.9-14.6-10-29.1-15.9-43.4c-1.3-3.2-1.4-3.9,1.5-5.2c18.7-8,37.6-14.4,57.8-15.7c3.3-0.3,6.7-0.3,10.1-0.2
				c9.4,0.2,17.6,6.6,19,17.4c0,0.2,0.1,0.5,0.1,0.7c0.1,0.5,0.1,1,0.1,1.5c0,0.3,0,0.7,0,1.1C657.7,330.4,653.1,340.3,646.9,350.8z
				"/>
			<path style="&st3;" d="M328.7,210.8c-15.9,3-30.5,9.5-44.9,16.4c-3.8,1.8-5,1.9-4.8-1.6c0-0.3,0-0.8,0.1-1.2
				c0.5-4.3,0.8-8.7,1.2-13.1c0.5-6.4-2.2-10-8.3-12.4c-6.1-2.3-9.6-0.7-11.1,5.1c-2,8.3-3.3,16.6-5,25c-1.7,8.3-3.4,16.5-5.3,24.8
				c-0.5,2-1.4,4-2.8,5.5c-1.5,1.6-3.7,2.4-5.7,3.6c-0.5-2.2-1.8-4.5-1.3-6.6c2.9-16.1,6-32.3,9.5-48.4c0.6-2.9,1.3-5.8,2-8.6
				c0.2-1,0.5-1.9,0.7-2.9c7.8-29.7,16.2-39.7,18.9-42.3c0.6-0.6,0.9-0.8,0.9-0.8c7.5-6.1,14.6-5.9,23.3-0.5c1.6,0.9,3.3,2.1,5,3.3
				c11.7,8.9,18.7,21.7,25.2,34.7c2.1,4.3,4.7,8.4,6.3,12.8C333.9,206.9,333.2,209.9,328.7,210.8z"/>
			<path style="&st0;" d="M386,558.8c-0.7-0.7-3.7,0.7-5.7,1c-3.2,0.5-6.5,1.4-9.7,1.2c-19.6-0.9-29.9-14.1-35.3-30.3
				c-2.7-8.1-5.1-6.4-10.1-4.4c-15.8,6.5-31.2,5.8-46.1-2.9c-5-2.9-9.5-6.3-10.7-12.7c-0.3-1.6-1.8-3.9-2.9-4.1
				c-1.7-0.1-4.2,0.9-5.1,2.2c-2.1,2.9-2.4,5.6,0.6,9.1c5.7,6.7,11.7,12.9,20.4,15.5c3.9,1.2,5,3,3.9,7.5
				c-1.7,6.8-2.2,13.9-2.8,20.9c-1.1,14.2,6.2,26.8,15.8,31c11.3,5.3,20.3,5.7,28.7,0.2c9.1-5.9,16.6-13.6,22-23
				c2.4-4.3,4.6-4.3,9.1-3.4c8.1,1.8,16.6,2.3,25,2.8c1.9,0.1,5.6-2,5.7-3.3C389.1,563.7,387.7,560.8,386,558.8z M320.9,588.8
				c-0.4,0.3-0.8,0.5-1.2,0.7c-0.3,0.2-0.7,0.3-1,0.4c-0.4,0.2-0.9,0.3-1.3,0.5c-0.5,0.1-0.9,0.2-1.4,0.3c-3.4,0.5-7.4-0.2-11.9-2.2
				c-10-4.3-16.5-15.4-13.3-22.7c0.2-0.5,0.7-1.1,1.4-1.7c1.3-1.1,3.3-2.1,5.7-2.9c1.1-0.4,2.2-0.7,3.4-1c5.3-1.4,11.1-1.9,14-0.6
				c6.3,2.9,12.9,17,10.6,22.9C324.7,585.3,323,587.4,320.9,588.8z"/>
			<path style="&st0;" d="M307,447.6c-2.3,4.6-5.6,4.2-8.1,0.6c-4.9-6.9-8.2-14.1-7.2-23.4c0.8-7.4-1.3-15.4-3.4-22.7
				c-1.8-6.4-6.4-8.1-11.6-4.5c-7.6,5.4-14.7,11.6-21.4,18.2c-4.1,4-2.7,6.2,3.7,7.6c3,0.6,6.2,1.3,8.7,2.8c2,1.1,5.7,3.4,4.6,5.5
				c-1.1,2-4.5,0.2-6.7-0.2c-6.3-1.2-12.5-3-18.7-3.9c-4.3-0.5-8.7,0-13,0.4c-3.4,0.3-4.6-0.7-3.2-4c9.7-22.3,22.1-42.2,45.9-52.4
				c6.9-2.9,13.1-1.6,19.5,0.7c9.2,3.6,17.4,17,16.9,33.5c-0.4,11.7-2.2,23.2-3.6,34.9C309.2,443.1,308.1,445.4,307,447.6z"/>
			<path style="&st0;" d="M470.2,526.1c-1.8,1.2-6.5,1.6-7.2,0.6c-6.2-9.3-14.6-15.5-24.4-20.2c-1.7-0.8-3-2.6-4.4-4
				c-0.7-0.6-1.2-1.3-1.8-1.9c1,0,2.1-0.3,3,0c5.4,1.9,11.7,2.9,16.1,6.2c4.9,3.6,7.2,2.7,7.4-2.3c0.5-9.4,0.4-18.8-0.5-28.2
				c-0.6-5.7-5.2-8.9-10.6-5.9c-7.3,4-14.7,8.6-20.5,14.4c-7,6.9-15.1,8.4-24,8.5c-0.7,0-2.5-3-2.1-3.7c9.6-17,21.7-32.2,38.9-41.5
				c21.8-11.7,37.8,0.5,40,22.8c1.7,16.6-1.3,33-6.6,47.5C472.3,521.9,471.9,525,470.2,526.1z"/>
			<path style="&st0;" d="M366.2,503.1c-1.2,2.4-6.8,3.7-10.3,3.5c-4.3-0.2-8.5-2.6-13.6-4.3c-3.4-1.9-8.1-3.6-11.7-6.6
				c-2.3-1.8-4.5-5.8-4-8.4c0.5-2.6,3.9-5.6,6.6-6.6c8.5-2.9,26.4,3.4,31.3,11.1C366.5,495,367.7,500.3,366.2,503.1z"/>
			<path style="&st0;" d="M327.2,363.7c-0.2,1-3.2,2.3-4.1,1.9c-2-1-3.4-3.1-5-4.7c-7.8-8.3-16.5-13.6-28.6-10.2
				c-1.8,0.5-4-0.8-6.1-1.3c1.2-1.6,2-3.8,3.6-4.8c8.6-5,17.4-9.3,27.5-4.4C320,342.6,328.5,358.1,327.2,363.7z"/>
			<path style="&st0;" d="M495.7,443.1c-2.2-1.9-3.7-2.7-4.5-3.9c-5-8.8-12.2-14.9-22.3-16.6c-4.3-0.7-8.7,0-13-0.1
				c-1.2,0-2.3-0.6-3.4-1c0.4-1.2,0.5-2.8,1.4-3.6c11.8-12,32.1-8,38.1,7.6c1.6,4.1,2.4,8.4,3.5,12.7
				C495.7,439.2,495.6,440.3,495.7,443.1z"/>
		</g>
	</g>
</g>
<g transform="translate(80,80)">
	<g transform="translate(360,0) scale(0.4,0.4)">
		<g transform="">
			<rect x="362.8" y="1887.9" style="&st3;" width="23.7" height="23.7"/>
		</g>
	</g>
	<g transform="translate(400,0) scale(0.4,0.4)">
		<g transform="">
			<rect x="286.5" y="1887.9" style="&st3;" width="23.7" height="23.7"/>
		</g>
	</g>
	<g transform="translate(560,0) scale(0.4,0.4)">
		<g transform="">
			<rect x="-18.5" y="1887.9" style="&st3;" width="23.7" height="23.7"/>
		</g>
	</g>
	<g transform="translate(640,0) scale(0.4,0.4)">
		<g transform="">
			<rect x="-171.1" y="1887.9" style="&st3;" width="23.7" height="23.7"/>
		</g>
	</g>
	<g transform="translate(320,40) scale(0.4,0.4)">
		<g transform="">
			<rect x="439" y="1811.7" style="&st3;" width="23.7" height="23.7"/>
		</g>
	</g>
	<g transform="translate(360,40) scale(0.4,0.4)">
		<g transform="">
			<rect x="362.8" y="1811.7" style="&st3;" width="23.7" height="23.7"/>
		</g>
	</g>
	<g transform="translate(400,40) scale(0.4,0.4)">
		<g transform="">
			<rect x="286.5" y="1811.7" style="&st3;" width="23.7" height="23.7"/>
		</g>
	</g>
	<g transform="translate(440,40) scale(0.4,0.4)">
		<g transform="">
			<rect x="210.2" y="1811.7" style="&st3;" width="23.7" height="23.7"/>
		</g>
	</g>
	<g transform="translate(520,40) scale(0.4,0.4)">
		<g transform="">
			<rect x="57.7" y="1811.7" style="&st3;" width="23.7" height="23.7"/>
		</g>
	</g>
	<g transform="translate(560,40) scale(0.4,0.4)">
		<g transform="">
			<rect x="-18.5" y="1811.7" style="&st3;" width="23.7" height="23.7"/>
		</g>
	</g>
	<g transform="translate(640,40) scale(0.4,0.4)">
		<g transform="">
			<rect x="-171.1" y="1811.7" style="&st3;" width="23.7" height="23.7"/>
		</g>
	</g>
	<g transform="translate(320,80) scale(0.4,0.4)">
		<g transform="">
			<rect x="439" y="1735.4" style="&st3;" width="23.7" height="23.7"/>
		</g>
	</g>
	<g transform="translate(400,80) scale(0.4,0.4)">
		<g transform="">
			<rect x="286.5" y="1735.4" style="&st3;" width="23.7" height="23.7"/>
		</g>
	</g>
	<g transform="translate(440,80) scale(0.4,0.4)">
		<g transform="">
			<rect x="210.2" y="1735.4" style="&st3;" width="23.7" height="23.7"/>
		</g>
	</g>
	<g transform="translate(480,80) scale(0.4,0.4)">
		<g transform="">
			<rect x="134" y="1735.4" style="&st3;" width="23.7" height="23.7"/>
		</g>
	</g>
	<g transform="translate(600,80) scale(0.4,0.4)">
		<g transform="">
			<rect x="-94.8" y="1735.4" style="&st3;" width="23.7" height="23.7"/>
		</g>
	</g>
	<g transform="translate(320,120) scale(0.4,0.4)">
		<g transform="">
			<rect x="439" y="1659.1" style="&st3;" width="23.7" height="23.7"/>
		</g>
	</g>
	<g transform="translate(440,120) scale(0.4,0.4)">
		<g transform="">
			<rect x="210.2" y="1659.1" style="&st3;" width="23.7" height="23.7"/>
		</g>
	</g>
	<g transform="translate(520,120) scale(0.4,0.4)">
		<g transform="">
			<rect x="57.7" y="1659.1" style="&st3;" width="23.7" height="23.7"/>
		</g>
	</g>
	<g transform="translate(640,120) scale(0.4,0.4)">
		<g transform="">
			<rect x="-171.1" y="1659.1" style="&st3;" width="23.7" height="23.7"/>
		</g>
	</g>
	<g transform="translate(360,160) scale(0.4,0.4)">
		<g transform="">
			<rect x="362.8" y="1582.9" style="&st3;" width="23.7" height="23.7"/>
		</g>
	</g>
	<g transform="translate(400,160) scale(0.4,0.4)">
		<g transform="">
			<rect x="286.5" y="1582.9" style="&st3;" width="23.7" height="23.7"/>
		</g>
	</g>
	<g transform="translate(440,160) scale(0.4,0.4)">
		<g transform="">
			<rect x="210.2" y="1582.9" style="&st3;" width="23.7" height="23.7"/>
		</g>
	</g>
	<g transform="translate(560,160) scale(0.4,0.4)">
		<g transform="">
			<rect x="-18.5" y="1582.9" style="&st3;" width="23.7" height="23.7"/>
		</g>
	</g>
	<g transform="translate(640,160) scale(0.4,0.4)">
		<g transform="">
			<rect x="-171.1" y="1582.9" style="&st3;" width="23.7" height="23.7"/>
		</g>
	</g>
	<g transform="translate(360,200) scale(0.4,0.4)">
		<g transform="">
			<rect x="362.8" y="1506.6" style="&st3;" width="23.7" height="23.7"/>
		</g>
	</g>
	<g transform="translate(520,200) scale(0.4,0.4)">
		<g transform="">
			<rect x="57.7" y="1506.6" style="&st3;" width="23.7" height="23.7"/>
		</g>
	</g>
	<g transform="translate(560,200) scale(0.4,0.4)">
		<g transform="">
			<rect x="-18.5" y="1506.6" style="&st3;" width="23.7" height="23.7"/>
		</g>
	</g>
	<g transform="translate(640,200) scale(0.4,0.4)">
		<g transform="">
			<rect x="-171.1" y="1506.6" style="&st3;" width="23.7" height="23.7"/>
		</g>
	</g>
	<g transform="translate(320,240) scale(0.4,0.4)">
		<g transform="">
			<rect x="439" y="1430.4" style="&st3;" width="23.7" height="23.7"/>
		</g>
	</g>
	<g transform="translate(400,240) scale(0.4,0.4)">
		<g transform="">
			<rect x="286.5" y="1430.4" style="&st3;" width="23.7" height="23.7"/>
		</g>
	</g>
	<g transform="translate(480,240) scale(0.4,0.4)">
		<g transform="">
			<rect x="134" y="1430.4" style="&st3;" width="23.7" height="23.7"/>
		</g>
	</g>
	<g transform="translate(560,240) scale(0.4,0.4)">
		<g transform="">
			<rect x="-18.5" y="1430.4" style="&st3;" width="23.7" height="23.7"/>
		</g>
	</g>
	<g transform="translate(640,240) scale(0.4,0.4)">
		<g transform="">
			<rect x="-171.1" y="1430.4" style="&st3;" width="23.7" height="23.7"/>
		</g>
	</g>
	<g transform="translate(320,280) scale(0.4,0.4)">
		<g transform="">
			<rect x="439" y="1354.1" style="&st3;" width="23.7" height="23.7"/>
		</g>
	</g>
	<g transform="translate(360,280) scale(0.4,0.4)">
		<g transform="">
			<rect x="362.8" y="1354.1" style="&st3;" width="23.7" height="23.7"/>
		</g>
	</g>
	<g transform="translate(440,280) scale(0.4,0.4)">
		<g transform="">
			<rect x="210.2" y="1354.1" style="&st3;" width="23.7" height="23.7"/>
		</g>
	</g>
	<g transform="translate(480,280) scale(0.4,0.4)">
		<g transform="">
			<rect x="134" y="1354.1" style="&st3;" width="23.7" height="23.7"/>
		</g>
	</g>
	<g transform="translate(560,280) scale(0.4,0.4)">
		<g transform="">
			<rect x="-18.5" y="1354.1" style="&st3;" width="23.7" height="23.7"/>
		</g>
	</g>
	<g transform="translate(600,280) scale(0.4,0.4)">
		<g transform="">
			<rect x="-94.8" y="1354.1" style="&st3;" width="23.7" height="23.7"/>
		</g>
	</g>
	<g transform="translate(0,320) scale(0.4,0.4)">
		<g transform="">
			<rect x="1049.1" y="1277.8" style="&st3;" width="23.7" height="23.7"/>
		</g>
	</g>
	<g transform="translate(240,320) scale(0.4,0.4)">
		<g transform="">
			<rect x="591.5" y="1277.8" style="&st3;" width="23.7" height="23.7"/>
		</g>
	</g>
	<g transform="translate(320,320) scale(0.4,0.4)">
		<g transform="">
			<rect x="439" y="1277.8" style="&st3;" width="23.7" height="23.7"/>
		</g>
	</g>
	<g transform="translate(480,320) scale(0.4,0.4)">
		<g transform="">
			<rect x="134" y="1277.8" style="&st3;" width="23.7" height="23.7"/>
		</g>
	</g>
	<g transform="translate(520,320) scale(0.4,0.4)">
		<g transform="">
			<rect x="57.7" y="1277.8" style="&st3;" width="23.7" height="23.7"/>
		</g>
	</g>
	<g transform="translate(560,320) scale(0.4,0.4)">
		<g transform="">
			<rect x="-18.5" y="1277.8" style="&st3;" width="23.7" height="23.7"/>
		</g>
	</g>
	<g transform="translate(680,320) scale(0.4,0.4)">
		<g transform="">
			<rect x="-247.3" y="1277.8" style="&st3;" width="23.7" height="23.7"/>
		</g>
	</g>
	<g transform="translate(720,320) scale(0.4,0.4)">
		<g transform="">
			<rect x="-323.6" y="1277.8" style="&st3;" width="23.7" height="23.7"/>
		</g>
	</g>
	<g transform="translate(840,320) scale(0.4,0.4)">
		<g transform="">
			<rect x="-552.4" y="1277.8" style="&st3;" width="23.7" height="23.7"/>
		</g>
	</g>
	<g transform="translate(880,320) scale(0.4,0.4)">
		<g transform="">
			<rect x="-628.6" y="1277.8" style="&st3;" width="23.7" height="23.7"/>
		</g>
	</g>
	<g transform="translate(920,320) scale(0.4,0.4)">
		<g transform="">
			<rect x="-704.9" y="1277.8" style="&st3;" width="23.7" height="23.7"/>
		</g>
	</g>
	<g transform="translate(40,360) scale(0.4,0.4)">
		<g transform="">
			<rect x="972.8" y="1201.6" style="&st3;" width="23.7" height="23.7"/>
		</g>
	</g>
	<g transform="translate(80,360) scale(0.4,0.4)">
		<g transform="">
			<rect x="896.6" y="1201.6" style="&st3;" width="23.7" height="23.7"/>
		</g>
	</g>
	<g transform="translate(160,360) scale(0.4,0.4)">
		<g transform="">
			<rect x="744.1" y="1201.6" style="&st3;" width="23.7" height="23.7"/>
		</g>
	</g>
	<g transform="translate(280,360) scale(0.4,0.4)">
		<g transform="">
			<rect x="515.3" y="1201.6" style="&st3;" width="23.7" height="23.7"/>
		</g>
	</g>
	<g transform="translate(320,360) scale(0.4,0.4)">
		<g transform="">
			<rect x="439" y="1201.6" style="&st3;" width="23.7" height="23.7"/>
		</g>
	</g>
	<g transform="translate(360,360) scale(0.4,0.4)">
		<g transform="">
			<rect x="362.8" y="1201.6" style="&st3;" width="23.7" height="23.7"/>
		</g>
	</g>
	<g transform="translate(400,360) scale(0.4,0.4)">
		<g transform="">
			<rect x="286.5" y="1201.6" style="&st3;" width="23.7" height="23.7"/>
		</g>
	</g>
	<g transform="translate(440,360) scale(0.4,0.4)">
		<g transform="">
			<rect x="210.2" y="1201.6" style="&st3;" width="23.7" height="23.7"/>
		</g>
	</g>
	<g transform="translate(480,360) scale(0.4,0.4)">
		<g transform="">
			<rect x="134" y="1201.6" style="&st3;" width="23.7" height="23.7"/>
		</g>
	</g>
	<g transform="translate(520,360) scale(0.4,0.4)">
		<g transform="">
			<rect x="57.7" y="1201.6" style="&st3;" width="23.7" height="23.7"/>
		</g>
	</g>
	<g transform="translate(560,360) scale(0.4,0.4)">
		<g transform="">
			<rect x="-18.5" y="1201.6" style="&st3;" width="23.7" height="23.7"/>
		</g>
	</g>
	<g transform="translate(600,360) scale(0.4,0.4)">
		<g transform="">
			<rect x="-94.8" y="1201.6" style="&st3;" width="23.7" height="23.7"/>
		</g>
	</g>
	<g transform="translate(680,360) scale(0.4,0.4)">
		<g transform="">
			<rect x="-247.3" y="1201.6" style="&st3;" width="23.7" height="23.7"/>
		</g>
	</g>
	<g transform="translate(760,360) scale(0.4,0.4)">
		<g transform="">
			<rect x="-399.8" y="1201.6" style="&st3;" width="23.7" height="23.7"/>
		</g>
	</g>
	<g transform="translate(800,360) scale(0.4,0.4)">
		<g transform="">
			<rect x="-476.1" y="1201.6" style="&st3;" width="23.7" height="23.7"/>
		</g>
	</g>
	<g transform="translate(840,360) scale(0.4,0.4)">
		<g transform="">
			<rect x="-552.4" y="1201.6" style="&st3;" width="23.7" height="23.7"/>
		</g>
	</g>
	<g transform="translate(880,360) scale(0.4,0.4)">
		<g transform="">
			<rect x="-628.6" y="1201.6" style="&st3;" width="23.7" height="23.7"/>
		</g>
	</g>
	<g transform="translate(920,360) scale(0.4,0.4)">
		<g transform="">
			<rect x="-704.9" y="1201.6" style="&st3;" width="23.7" height="23.7"/>
		</g>
	</g>
	<g transform="translate(0,400) scale(0.4,0.4)">
		<g transform="">
			<rect x="1049.1" y="1125.3" style="&st3;" width="23.7" height="23.7"/>
		</g>
	</g>
	<g transform="translate(160,400) scale(0.4,0.4)">
		<g transform="">
			<rect x="744.1" y="1125.3" style="&st3;" width="23.7" height="23.7"/>
		</g>
	</g>
	<g transform="translate(200,400) scale(0.4,0.4)">
		<g transform="">
			<rect x="667.8" y="1125.3" style="&st3;" width="23.7" height="23.7"/>
		</g>
	</g>
	<g transform="translate(240,400) scale(0.4,0.4)">
		<g transform="">
			<rect x="591.5" y="1125.3" style="&st3;" width="23.7" height="23.7"/>
		</g>
	</g>
	<g transform="translate(320,400) scale(0.4,0.4)">
		<g transform="">
			<rect x="439" y="1125.3" style="&st3;" width="23.7" height="23.7"/>
		</g>
	</g>
	<g transform="translate(400,400) scale(0.4,0.4)">
		<g transform="">
			<rect x="286.5" y="1125.3" style="&st3;" width="23.7" height="23.7"/>
		</g>
	</g>
	<g transform="translate(440,400) scale(0.4,0.4)">
		<g transform="">
			<rect x="210.2" y="1125.3" style="&st3;" width="23.7" height="23.7"/>
		</g>
	</g>
	<g transform="translate(600,400) scale(0.4,0.4)">
		<g transform="">
			<rect x="-94.8" y="1125.3" style="&st3;" width="23.7" height="23.7"/>
		</g>
	</g>
	<g transform="translate(640,400) scale(0.4,0.4)">
		<g transform="">
			<rect x="-171.1" y="1125.3" style="&st3;" width="23.7" height="23.7"/>
		</g>
	</g>
	<g transform="translate(680,400) scale(0.4,0.4)">
		<g transform="">
			<rect x="-247.3" y="1125.3" style="&st3;" width="23.7" height="23.7"/>
		</g>
	</g>
	<g transform="translate(720,400) scale(0.4,0.4)">
		<g transform="">
			<rect x="-323.6" y="1125.3" style="&st3;" width="23.7" height="23.7"/>
		</g>
	</g>
	<g transform="translate(760,400) scale(0.4,0.4)">
		<g transform="">
			<rect x="-399.8" y="1125.3" style="&st3;" width="23.7" height="23.7"/>
		</g>
	</g>
	<g transform="translate(800,400) scale(0.4,0.4)">
		<g transform="">
			<rect x="-476.1" y="1125.3" style="&st3;" width="23.7" height="23.7"/>
		</g>
	</g>
	<g transform="translate(840,400) scale(0.4,0.4)">
		<g transform="">
			<rect x="-552.4" y="1125.3" style="&st3;" width="23.7" height="23.7"/>
		</g>
	</g>
	<g transform="translate(920,400) scale(0.4,0.4)">
		<g transform="">
			<rect x="-704.9" y="1125.3" style="&st3;" width="23.7" height="23.7"/>
		</g>
	</g>
	<g transform="translate(960,400) scale(0.4,0.4)">
		<g transform="">
			<rect x="-781.1" y="1125.3" style="&st3;" width="23.7" height="23.7"/>
		</g>
	</g>
	<g transform="translate(0,440) scale(0.4,0.4)">
		<g transform="">
			<rect x="1049.1" y="1049.1" style="&st3;" width="23.7" height="23.7"/>
		</g>
	</g>
	<g transform="translate(80,440) scale(0.4,0.4)">
		<g transform="">
			<rect x="896.6" y="1049.1" style="&st3;" width="23.7" height="23.7"/>
		</g>
	</g>
	<g transform="translate(360,440) scale(0.4,0.4)">
		<g transform="">
			<rect x="362.8" y="1049.1" style="&st3;" width="23.7" height="23.7"/>
		</g>
	</g>
	<g transform="translate(480,440) scale(0.4,0.4)">
		<g transform="">
			<rect x="134" y="1049.1" style="&st3;" width="23.7" height="23.7"/>
		</g>
	</g>
	<g transform="translate(560,440) scale(0.4,0.4)">
		<g transform="">
			<rect x="-18.5" y="1049.1" style="&st3;" width="23.7" height="23.7"/>
		</g>
	</g>
	<g transform="translate(680,440) scale(0.4,0.4)">
		<g transform="">
			<rect x="-247.3" y="1049.1" style="&st3;" width="23.7" height="23.7"/>
		</g>
	</g>
	<g transform="translate(760,440) scale(0.4,0.4)">
		<g transform="">
			<rect x="-399.8" y="1049.1" style="&st3;" width="23.7" height="23.7"/>
		</g>
	</g>
	<g transform="translate(840,440) scale(0.4,0.4)">
		<g transform="">
			<rect x="-552.4" y="1049.1" style="&st3;" width="23.7" height="23.7"/>
		</g>
	</g>
	<g transform="translate(960,440) scale(0.4,0.4)">
		<g transform="">
			<rect x="-781.1" y="1049.1" style="&st3;" width="23.7" height="23.7"/>
		</g>
	</g>
	<g transform="translate(40,480) scale(0.4,0.4)">
		<g transform="">
			<rect x="972.8" y="972.8" style="&st3;" width="23.7" height="23.7"/>
		</g>
	</g>
	<g transform="translate(80,480) scale(0.4,0.4)">
		<g transform="">
			<rect x="896.6" y="972.8" style="&st3;" width="23.7" height="23.7"/>
		</g>
	</g>
	<g transform="translate(160,480) scale(0.4,0.4)">
		<g transform="">
			<rect x="744.1" y="972.8" style="&st3;" width="23.7" height="23.7"/>
		</g>
	</g>
	<g transform="translate(240,480) scale(0.4,0.4)">
		<g transform="">
			<rect x="591.5" y="972.8" style="&st3;" width="23.7" height="23.7"/>
		</g>
	</g>
	<g transform="translate(280,480) scale(0.4,0.4)">
		<g transform="">
			<rect x="515.3" y="972.8" style="&st3;" width="23.7" height="23.7"/>
		</g>
	</g>
	<g transform="translate(320,480) scale(0.4,0.4)">
		<g transform="">
			<rect x="439" y="972.8" style="&st3;" width="23.7" height="23.7"/>
		</g>
	</g>
	<g transform="translate(360,480) scale(0.4,0.4)">
		<g transform="">
			<rect x="362.8" y="972.8" style="&st3;" width="23.7" height="23.7"/>
		</g>
	</g>
	<g transform="translate(400,480) scale(0.4,0.4)">
		<g transform="">
			<rect x="286.5" y="972.8" style="&st3;" width="23.7" height="23.7"/>
		</g>
	</g>
	<g transform="translate(440,480) scale(0.4,0.4)">
		<g transform="">
			<rect x="210.2" y="972.8" style="&st3;" width="23.7" height="23.7"/>
		</g>
	</g>
	<g transform="translate(480,480) scale(0.4,0.4)">
		<g transform="">
			<rect x="134" y="972.8" style="&st3;" width="23.7" height="23.7"/>
		</g>
	</g>
	<g transform="translate(600,480) scale(0.4,0.4)">
		<g transform="">
			<rect x="-94.8" y="972.8" style="&st3;" width="23.7" height="23.7"/>
		</g>
	</g>
	<g transform="translate(640,480) scale(0.4,0.4)">
		<g transform="">
			<rect x="-171.1" y="972.8" style="&st3;" width="23.7" height="23.7"/>
		</g>
	</g>
	<g transform="translate(720,480) scale(0.4,0.4)">
		<g transform="">
			<rect x="-323.6" y="972.8" style="&st3;" width="23.7" height="23.7"/>
		</g>
	</g>
	<g transform="translate(960,480) scale(0.4,0.4)">
		<g transform="">
			<rect x="-781.1" y="972.8" style="&st3;" width="23.7" height="23.7"/>
		</g>
	</g>
	<g transform="translate(0,520) scale(0.4,0.4)">
		<g transform="">
			<rect x="1049.1" y="896.5" style="&st3;" width="23.7" height="23.7"/>
		</g>
	</g>
	<g transform="translate(120,520) scale(0.4,0.4)">
		<g transform="">
			<rect x="820.3" y="896.5" style="&st3;" width="23.7" height="23.7"/>
		</g>
	</g>
	<g transform="translate(200,520) scale(0.4,0.4)">
		<g transform="">
			<rect x="667.8" y="896.5" style="&st3;" width="23.7" height="23.7"/>
		</g>
	</g>
	<g transform="translate(520,520) scale(0.4,0.4)">
		<g transform="">
			<rect x="57.7" y="896.5" style="&st3;" width="23.7" height="23.7"/>
		</g>
	</g>
	<g transform="translate(600,520) scale(0.4,0.4)">
		<g transform="">
			<rect x="-94.8" y="896.5" style="&st3;" width="23.7" height="23.7"/>
		</g>
	</g>
	<g transform="translate(640,520) scale(0.4,0.4)">
		<g transform="">
			<rect x="-171.1" y="896.5" style="&st3;" width="23.7" height="23.7"/>
		</g>
	</g>
	<g transform="translate(680,520) scale(0.4,0.4)">
		<g transform="">
			<rect x="-247.3" y="896.5" style="&st3;" width="23.7" height="23.7"/>
		</g>
	</g>
	<g transform="translate(760,520) scale(0.4,0.4)">
		<g transform="">
			<rect x="-399.8" y="896.5" style="&st3;" width="23.7" height="23.7"/>
		</g>
	</g>
	<g transform="translate(920,520) scale(0.4,0.4)">
		<g transform="">
			<rect x="-704.9" y="896.5" style="&st3;" width="23.7" height="23.7"/>
		</g>
	</g>
	<g transform="translate(0,560) scale(0.4,0.4)">
		<g transform="">
			<rect x="1049.1" y="820.3" style="&st3;" width="23.7" height="23.7"/>
		</g>
	</g>
	<g transform="translate(120,560) scale(0.4,0.4)">
		<g transform="">
			<rect x="820.3" y="820.3" style="&st3;" width="23.7" height="23.7"/>
		</g>
	</g>
	<g transform="translate(240,560) scale(0.4,0.4)">
		<g transform="">
			<rect x="591.5" y="820.3" style="&st3;" width="23.7" height="23.7"/>
		</g>
	</g>
	<g transform="translate(280,560) scale(0.4,0.4)">
		<g transform="">
			<rect x="515.3" y="820.3" style="&st3;" width="23.7" height="23.7"/>
		</g>
	</g>
	<g transform="translate(400,560) scale(0.4,0.4)">
		<g transform="">
			<rect x="286.5" y="820.3" style="&st3;" width="23.7" height="23.7"/>
		</g>
	</g>
	<g transform="translate(440,560) scale(0.4,0.4)">
		<g transform="">
			<rect x="210.2" y="820.3" style="&st3;" width="23.7" height="23.7"/>
		</g>
	</g>
	<g transform="translate(480,560) scale(0.4,0.4)">
		<g transform="">
			<rect x="134" y="820.3" style="&st3;" width="23.7" height="23.7"/>
		</g>
	</g>
	<g transform="translate(520,560) scale(0.4,0.4)">
		<g transform="">
			<rect x="57.7" y="820.3" style="&st3;" width="23.7" height="23.7"/>
		</g>
	</g>
	<g transform="translate(560,560) scale(0.4,0.4)">
		<g transform="">
			<rect x="-18.5" y="820.3" style="&st3;" width="23.7" height="23.7"/>
		</g>
	</g>
	<g transform="translate(600,560) scale(0.4,0.4)">
		<g transform="">
			<rect x="-94.8" y="820.3" style="&st3;" width="23.7" height="23.7"/>
		</g>
	</g>
	<g transform="translate(640,560) scale(0.4,0.4)">
		<g transform="">
			<rect x="-171.1" y="820.3" style="&st3;" width="23.7" height="23.7"/>
		</g>
	</g>
	<g transform="translate(680,560) scale(0.4,0.4)">
		<g transform="">
			<rect x="-247.3" y="820.3" style="&st3;" width="23.7" height="23.7"/>
		</g>
	</g>
	<g transform="translate(720,560) scale(0.4,0.4)">
		<g transform="">
			<rect x="-323.6" y="820.3" style="&st3;" width="23.7" height="23.7"/>
		</g>
	</g>
	<g transform="translate(760,560) scale(0.4,0.4)">
		<g transform="">
			<rect x="-399.8" y="820.3" style="&st3;" width="23.7" height="23.7"/>
		</g>
	</g>
	<g transform="translate(800,560) scale(0.4,0.4)">
		<g transform="">
			<rect x="-476.1" y="820.3" style="&st3;" width="23.7" height="23.7"/>
		</g>
	</g>
	<g transform="translate(840,560) scale(0.4,0.4)">
		<g transform="">
			<rect x="-552.4" y="820.3" style="&st3;" width="23.7" height="23.7"/>
		</g>
	</g>
	<g transform="translate(920,560) scale(0.4,0.4)">
		<g transform="">
			<rect x="-704.9" y="820.3" style="&st3;" width="23.7" height="23.7"/>
		</g>
	</g>
	<g transform="translate(960,560) scale(0.4,0.4)">
		<g transform="">
			<rect x="-781.1" y="820.3" style="&st3;" width="23.7" height="23.7"/>
		</g>
	</g>
	<g transform="translate(0,600) scale(0.4,0.4)">
		<g transform="">
			<rect x="1049.1" y="744" style="&st3;" width="23.7" height="23.7"/>
		</g>
	</g>
	<g transform="translate(80,600) scale(0.4,0.4)">
		<g transform="">
			<rect x="896.6" y="744" style="&st3;" width="23.7" height="23.7"/>
		</g>
	</g>
	<g transform="translate(160,600) scale(0.4,0.4)">
		<g transform="">
			<rect x="744.1" y="744" style="&st3;" width="23.7" height="23.7"/>
		</g>
	</g>
	<g transform="translate(200,600) scale(0.4,0.4)">
		<g transform="">
			<rect x="667.8" y="744" style="&st3;" width="23.7" height="23.7"/>
		</g>
	</g>
	<g transform="translate(320,600) scale(0.4,0.4)">
		<g transform="">
			<rect x="439" y="744" style="&st3;" width="23.7" height="23.7"/>
		</g>
	</g>
	<g transform="translate(440,600) scale(0.4,0.4)">
		<g transform="">
			<rect x="210.2" y="744" style="&st3;" width="23.7" height="23.7"/>
		</g>
	</g>
	<g transform="translate(560,600) scale(0.4,0.4)">
		<g transform="">
			<rect x="-18.5" y="744" style="&st3;" width="23.7" height="23.7"/>
		</g>
	</g>
	<g transform="translate(600,600) scale(0.4,0.4)">
		<g transform="">
			<rect x="-94.8" y="744" style="&st3;" width="23.7" height="23.7"/>
		</g>
	</g>
	<g transform="translate(640,600) scale(0.4,0.4)">
		<g transform="">
			<rect x="-171.1" y="744" style="&st3;" width="23.7" height="23.7"/>
		</g>
	</g>
	<g transform="translate(680,600) scale(0.4,0.4)">
		<g transform="">
			<rect x="-247.3" y="744" style="&st3;" width="23.7" height="23.7"/>
		</g>
	</g>
	<g transform="translate(760,600) scale(0.4,0.4)">
		<g transform="">
			<rect x="-399.8" y="744" style="&st3;" width="23.7" height="23.7"/>
		</g>
	</g>
	<g transform="translate(840,600) scale(0.4,0.4)">
		<g transform="">
			<rect x="-552.4" y="744" style="&st3;" width="23.7" height="23.7"/>
		</g>
	</g>
	<g transform="translate(880,600) scale(0.4,0.4)">
		<g transform="">
			<rect x="-628.6" y="744" style="&st3;" width="23.7" height="23.7"/>
		</g>
	</g>
	<g transform="translate(960,600) scale(0.4,0.4)">
		<g transform="">
			<rect x="-781.1" y="744" style="&st3;" width="23.7" height="23.7"/>
		</g>
	</g>
	<g transform="translate(0,640) scale(0.4,0.4)">
		<g transform="">
			<rect x="1049.1" y="667.8" style="&st3;" width="23.7" height="23.7"/>
		</g>
	</g>
	<g transform="translate(80,640) scale(0.4,0.4)">
		<g transform="">
			<rect x="896.6" y="667.8" style="&st3;" width="23.7" height="23.7"/>
		</g>
	</g>
	<g transform="translate(120,640) scale(0.4,0.4)">
		<g transform="">
			<rect x="820.3" y="667.8" style="&st3;" width="23.7" height="23.7"/>
		</g>
	</g>
	<g transform="translate(160,640) scale(0.4,0.4)">
		<g transform="">
			<rect x="744.1" y="667.8" style="&st3;" width="23.7" height="23.7"/>
		</g>
	</g>
	<g transform="translate(240,640) scale(0.4,0.4)">
		<g transform="">
			<rect x="591.5" y="667.8" style="&st3;" width="23.7" height="23.7"/>
		</g>
	</g>
	<g transform="translate(280,640) scale(0.4,0.4)">
		<g transform="">
			<rect x="515.3" y="667.8" style="&st3;" width="23.7" height="23.7"/>
		</g>
	</g>
	<g transform="translate(320,640) scale(0.4,0.4)">
		<g transform="">
			<rect x="439" y="667.8" style="&st3;" width="23.7" height="23.7"/>
		</g>
	</g>
	<g transform="translate(440,640) scale(0.4,0.4)">
		<g transform="">
			<rect x="210.2" y="667.8" style="&st3;" width="23.7" height="23.7"/>
		</g>
	</g>
	<g transform="translate(600,640) scale(0.4,0.4)">
		<g transform="">
			<rect x="-94.8" y="667.8" style="&st3;" width="23.7" height="23.7"/>
		</g>
	</g>
	<g transform="translate(640,640) scale(0.4,0.4)">
		<g transform="">
			<rect x="-171.1" y="667.8" style="&st3;" width="23.7" height="23.7"/>
		</g>
	</g>
	<g transform="translate(680,640) scale(0.4,0.4)">
		<g transform="">
			<rect x="-247.3" y="667.8" style="&st3;" width="23.7" height="23.7"/>
		</g>
	</g>
	<g transform="translate(720,640) scale(0.4,0.4)">
		<g transform="">
			<rect x="-323.6" y="667.8" style="&st3;" width="23.7" height="23.7"/>
		</g>
	</g>
	<g transform="translate(760,640) scale(0.4,0.4)">
		<g transform="">
			<rect x="-399.8" y="667.8" style="&st3;" width="23.7" height="23.7"/>
		</g>
	</g>
	<g transform="translate(800,640) scale(0.4,0.4)">
		<g transform="">
			<rect x="-476.1" y="667.8" style="&st3;" width="23.7" height="23.7"/>
		</g>
	</g>
	<g transform="translate(880,640) scale(0.4,0.4)">
		<g transform="">
			<rect x="-628.6" y="667.8" style="&st3;" width="23.7" height="23.7"/>
		</g>
	</g>
	<g transform="translate(320,680) scale(0.4,0.4)">
		<g transform="">
			<rect x="439" y="591.5" style="&st3;" width="23.7" height="23.7"/>
		</g>
	</g>
	<g transform="translate(360,680) scale(0.4,0.4)">
		<g transform="">
			<rect x="362.8" y="591.5" style="&st3;" width="23.7" height="23.7"/>
		</g>
	</g>
	<g transform="translate(480,680) scale(0.4,0.4)">
		<g transform="">
			<rect x="134" y="591.5" style="&st3;" width="23.7" height="23.7"/>
		</g>
	</g>
	<g transform="translate(520,680) scale(0.4,0.4)">
		<g transform="">
			<rect x="57.7" y="591.5" style="&st3;" width="23.7" height="23.7"/>
		</g>
	</g>
	<g transform="translate(600,680) scale(0.4,0.4)">
		<g transform="">
			<rect x="-94.8" y="591.5" style="&st3;" width="23.7" height="23.7"/>
		</g>
	</g>
	<g transform="translate(640,680) scale(0.4,0.4)">
		<g transform="">
			<rect x="-171.1" y="591.5" style="&st3;" width="23.7" height="23.7"/>
		</g>
	</g>
	<g transform="translate(800,680) scale(0.4,0.4)">
		<g transform="">
			<rect x="-476.1" y="591.5" style="&st3;" width="23.7" height="23.7"/>
		</g>
	</g>
	<g transform="translate(360,720) scale(0.4,0.4)">
		<g transform="">
			<rect x="362.8" y="515.2" style="&st3;" width="23.7" height="23.7"/>
		</g>
	</g>
	<g transform="translate(440,720) scale(0.4,0.4)">
		<g transform="">
			<rect x="210.2" y="515.2" style="&st3;" width="23.7" height="23.7"/>
		</g>
	</g>
	<g transform="translate(640,720) scale(0.4,0.4)">
		<g transform="">
			<rect x="-171.1" y="515.2" style="&st3;" width="23.7" height="23.7"/>
		</g>
	</g>
	<g transform="translate(720,720) scale(0.4,0.4)">
		<g transform="">
			<rect x="-323.6" y="515.2" style="&st3;" width="23.7" height="23.7"/>
		</g>
	</g>
	<g transform="translate(800,720) scale(0.4,0.4)">
		<g transform="">
			<rect x="-476.1" y="515.2" style="&st3;" width="23.7" height="23.7"/>
		</g>
	</g>
	<g transform="translate(960,720) scale(0.4,0.4)">
		<g transform="">
			<rect x="-781.1" y="515.2" style="&st3;" width="23.7" height="23.7"/>
		</g>
	</g>
	<g transform="translate(360,760) scale(0.4,0.4)">
		<g transform="">
			<rect x="362.8" y="439" style="&st3;" width="23.7" height="23.7"/>
		</g>
	</g>
	<g transform="translate(400,760) scale(0.4,0.4)">
		<g transform="">
			<rect x="286.5" y="439" style="&st3;" width="23.7" height="23.7"/>
		</g>
	</g>
	<g transform="translate(480,760) scale(0.4,0.4)">
		<g transform="">
			<rect x="134" y="439" style="&st3;" width="23.7" height="23.7"/>
		</g>
	</g>
	<g transform="translate(520,760) scale(0.4,0.4)">
		<g transform="">
			<rect x="57.7" y="439" style="&st3;" width="23.7" height="23.7"/>
		</g>
	</g>
	<g transform="translate(600,760) scale(0.4,0.4)">
		<g transform="">
			<rect x="-94.8" y="439" style="&st3;" width="23.7" height="23.7"/>
		</g>
	</g>
	<g transform="translate(640,760) scale(0.4,0.4)">
		<g transform="">
			<rect x="-171.1" y="439" style="&st3;" width="23.7" height="23.7"/>
		</g>
	</g>
	<g transform="translate(800,760) scale(0.4,0.4)">
		<g transform="">
			<rect x="-476.1" y="439" style="&st3;" width="23.7" height="23.7"/>
		</g>
	</g>
	<g transform="translate(920,760) scale(0.4,0.4)">
		<g transform="">
			<rect x="-704.9" y="439" style="&st3;" width="23.7" height="23.7"/>
		</g>
	</g>
	<g transform="translate(960,760) scale(0.4,0.4)">
		<g transform="">
			<rect x="-781.1" y="439" style="&st3;" width="23.7" height="23.7"/>
		</g>
	</g>
	<g transform="translate(360,800) scale(0.4,0.4)">
		<g transform="">
			<rect x="362.8" y="362.7" style="&st3;" width="23.7" height="23.7"/>
		</g>
	</g>
	<g transform="translate(480,800) scale(0.4,0.4)">
		<g transform="">
			<rect x="134" y="362.7" style="&st3;" width="23.7" height="23.7"/>
		</g>
	</g>
	<g transform="translate(560,800) scale(0.4,0.4)">
		<g transform="">
			<rect x="-18.5" y="362.7" style="&st3;" width="23.7" height="23.7"/>
		</g>
	</g>
	<g transform="translate(600,800) scale(0.4,0.4)">
		<g transform="">
			<rect x="-94.8" y="362.7" style="&st3;" width="23.7" height="23.7"/>
		</g>
	</g>
	<g transform="translate(640,800) scale(0.4,0.4)">
		<g transform="">
			<rect x="-171.1" y="362.7" style="&st3;" width="23.7" height="23.7"/>
		</g>
	</g>
	<g transform="translate(680,800) scale(0.4,0.4)">
		<g transform="">
			<rect x="-247.3" y="362.7" style="&st3;" width="23.7" height="23.7"/>
		</g>
	</g>
	<g transform="translate(720,800) scale(0.4,0.4)">
		<g transform="">
			<rect x="-323.6" y="362.7" style="&st3;" width="23.7" height="23.7"/>
		</g>
	</g>
	<g transform="translate(760,800) scale(0.4,0.4)">
		<g transform="">
			<rect x="-399.8" y="362.7" style="&st3;" width="23.7" height="23.7"/>
		</g>
	</g>
	<g transform="translate(800,800) scale(0.4,0.4)">
		<g transform="">
			<rect x="-476.1" y="362.7" style="&st3;" width="23.7" height="23.7"/>
		</g>
	</g>
	<g transform="translate(880,800) scale(0.4,0.4)">
		<g transform="">
			<rect x="-628.6" y="362.7" style="&st3;" width="23.7" height="23.7"/>
		</g>
	</g>
	<g transform="translate(920,800) scale(0.4,0.4)">
		<g transform="">
			<rect x="-704.9" y="362.7" style="&st3;" width="23.7" height="23.7"/>
		</g>
	</g>
	<g transform="translate(960,800) scale(0.4,0.4)">
		<g transform="">
			<rect x="-781.1" y="362.7" style="&st3;" width="23.7" height="23.7"/>
		</g>
	</g>
	<g transform="translate(360,840) scale(0.4,0.4)">
		<g transform="">
			<rect x="362.8" y="286.5" style="&st3;" width="23.7" height="23.7"/>
		</g>
	</g>
	<g transform="translate(560,840) scale(0.4,0.4)">
		<g transform="">
			<rect x="-18.5" y="286.5" style="&st3;" width="23.7" height="23.7"/>
		</g>
	</g>
	<g transform="translate(600,840) scale(0.4,0.4)">
		<g transform="">
			<rect x="-94.8" y="286.5" style="&st3;" width="23.7" height="23.7"/>
		</g>
	</g>
	<g transform="translate(720,840) scale(0.4,0.4)">
		<g transform="">
			<rect x="-323.6" y="286.5" style="&st3;" width="23.7" height="23.7"/>
		</g>
	</g>
	<g transform="translate(920,840) scale(0.4,0.4)">
		<g transform="">
			<rect x="-704.9" y="286.5" style="&st3;" width="23.7" height="23.7"/>
		</g>
	</g>
	<g transform="translate(960,840) scale(0.4,0.4)">
		<g transform="">
			<rect x="-781.1" y="286.5" style="&st3;" width="23.7" height="23.7"/>
		</g>
	</g>
	<g transform="translate(440,880) scale(0.4,0.4)">
		<g transform="">
			<rect x="210.2" y="210.2" style="&st3;" width="23.7" height="23.7"/>
		</g>
	</g>
	<g transform="translate(480,880) scale(0.4,0.4)">
		<g transform="">
			<rect x="134" y="210.2" style="&st3;" width="23.7" height="23.7"/>
		</g>
	</g>
	<g transform="translate(640,880) scale(0.4,0.4)">
		<g transform="">
			<rect x="-171.1" y="210.2" style="&st3;" width="23.7" height="23.7"/>
		</g>
	</g>
	<g transform="translate(840,880) scale(0.4,0.4)">
		<g transform="">
			<rect x="-552.4" y="210.2" style="&st3;" width="23.7" height="23.7"/>
		</g>
	</g>
	<g transform="translate(880,880) scale(0.4,0.4)">
		<g transform="">
			<rect x="-628.6" y="210.2" style="&st3;" width="23.7" height="23.7"/>
		</g>
	</g>
	<g transform="translate(960,880) scale(0.4,0.4)">
		<g transform="">
			<rect x="-781.1" y="210.2" style="&st3;" width="23.7" height="23.7"/>
		</g>
	</g>
	<g transform="translate(400,920) scale(0.4,0.4)">
		<g transform="">
			<rect x="286.5" y="133.9" style="&st3;" width="23.7" height="23.7"/>
		</g>
	</g>
	<g transform="translate(440,920) scale(0.4,0.4)">
		<g transform="">
			<rect x="210.2" y="133.9" style="&st3;" width="23.7" height="23.7"/>
		</g>
	</g>
	<g transform="translate(560,920) scale(0.4,0.4)">
		<g transform="">
			<rect x="-18.5" y="133.9" style="&st3;" width="23.7" height="23.7"/>
		</g>
	</g>
	<g transform="translate(640,920) scale(0.4,0.4)">
		<g transform="">
			<rect x="-171.1" y="133.9" style="&st3;" width="23.7" height="23.7"/>
		</g>
	</g>
	<g transform="translate(680,920) scale(0.4,0.4)">
		<g transform="">
			<rect x="-247.3" y="133.9" style="&st3;" width="23.7" height="23.7"/>
		</g>
	</g>
	<g transform="translate(760,920) scale(0.4,0.4)">
		<g transform="">
			<rect x="-399.8" y="133.9" style="&st3;" width="23.7" height="23.7"/>
		</g>
	</g>
	<g transform="translate(800,920) scale(0.4,0.4)">
		<g transform="">
			<rect x="-476.1" y="133.9" style="&st3;" width="23.7" height="23.7"/>
		</g>
	</g>
	<g transform="translate(960,920) scale(0.4,0.4)">
		<g transform="">
			<rect x="-781.1" y="133.9" style="&st3;" width="23.7" height="23.7"/>
		</g>
	</g>
	<g transform="translate(320,960) scale(0.4,0.4)">
		<g transform="">
			<rect x="439" y="57.7" style="&st3;" width="23.7" height="23.7"/>
		</g>
	</g>
	<g transform="translate(400,960) scale(0.4,0.4)">
		<g transform="">
			<rect x="286.5" y="57.7" style="&st3;" width="23.7" height="23.7"/>
		</g>
	</g>
	<g transform="translate(520,960) scale(0.4,0.4)">
		<g transform="">
			<rect x="57.7" y="57.7" style="&st3;" width="23.7" height="23.7"/>
		</g>
	</g>
	<g transform="translate(560,960) scale(0.4,0.4)">
		<g transform="">
			<rect x="-18.5" y="57.7" style="&st3;" width="23.7" height="23.7"/>
		</g>
	</g>
	<g transform="translate(640,960) scale(0.4,0.4)">
		<g transform="">
			<rect x="-171.1" y="57.7" style="&st3;" width="23.7" height="23.7"/>
		</g>
	</g>
	<g transform="translate(680,960) scale(0.4,0.4)">
		<g transform="">
			<rect x="-247.3" y="57.7" style="&st3;" width="23.7" height="23.7"/>
		</g>
	</g>
	<g transform="translate(840,960) scale(0.4,0.4)">
		<g transform="">
			<rect x="-552.4" y="57.7" style="&st3;" width="23.7" height="23.7"/>
		</g>
	</g>
	<g transform="translate(960,960) scale(0.4,0.4)">
		<g transform="">
			<rect x="-781.1" y="57.7" style="&st3;" width="23.7" height="23.7"/>
		</g>
	</g>
	<g transform="translate(0,0) scale(2.8, 2.8)">
		<g transform="">
			<g>
				<rect x="153.4" y="273.3" style="&st7;" width="16.6" height="16.6"/>
				<path style="&st3;" d="M170.1,269.7h-16.6h-3.6v3.6v16.6v3.6h3.6h16.6h3.6v-3.6v-16.6v-3.6H170.1z M170.1,289.9h-16.6v-16.6
					h16.6V289.9z"/>
			</g>
		</g>
	</g>
	<g transform="translate(720,0) scale(2.8, 2.8)">
		<g transform="">
			<g>
				<rect x="-42.7" y="273.3" style="&st7;" width="16.6" height="16.6"/>
				<path style="&st3;" d="M-26,269.7h-16.6h-3.6v3.6v16.6v3.6h3.6H-26h3.6v-3.6v-16.6v-3.6H-26z M-26,289.9h-16.6v-16.6H-26V289.9z
					"/>
			</g>
		</g>
	</g>
	<g transform="translate(0,720) scale(2.8, 2.8)">
		<g transform="">
			<g>
				<rect x="153.4" y="77.2" style="&st7;" width="16.6" height="16.6"/>
				<path style="&st3;" d="M170.1,73.6h-16.6h-3.6v3.6v16.6v3.6h3.6h16.6h3.6v-3.6V77.2v-3.6H170.1z M170.1,93.8h-16.6V77.2h16.6
					V93.8z"/>
			</g>
		</g>
	</g>
	<g transform="translate(80,80) scale(1.2, 1.2)">
		<g transform="">
			<rect x="298.9" y="578.5" style="&st3;" width="23.7" height="23.7"/>
		</g>
	</g>
	<g transform="translate(800,80) scale(1.2, 1.2)">
		<g transform="">
			<rect x="-158.7" y="578.5" style="&st3;" width="23.7" height="23.7"/>
		</g>
	</g>
	<g transform="translate(80,800) scale(1.2, 1.2)">
		<g transform="">
			<rect x="298.9" y="120.9" style="&st3;" width="23.7" height="23.7"/>
		</g>
	</g>
</g>
</svg>
