<?xml version="1.0" encoding="utf-8"?>
<!-- Generator: Adobe Illustrator 28.6.0, SVG Export Plug-In . SVG Version: 9.03 Build 54939)  -->
<!DOCTYPE svg PUBLIC "-//W3C//DTD SVG 1.1//EN" "http://www.w3.org/Graphics/SVG/1.1/DTD/svg11.dtd" [
	<!ENTITY ns_extend "http://ns.adobe.com/Extensibility/1.0/">
	<!ENTITY ns_ai "http://ns.adobe.com/AdobeIllustrator/10.0/">
	<!ENTITY ns_graphs "http://ns.adobe.com/Graphs/1.0/">
	<!ENTITY ns_vars "http://ns.adobe.com/Variables/1.0/">
	<!ENTITY ns_imrep "http://ns.adobe.com/ImageReplacement/1.0/">
	<!ENTITY ns_sfw "http://ns.adobe.com/SaveForWeb/1.0/">
	<!ENTITY ns_custom "http://ns.adobe.com/GenericCustomNamespace/1.0/">
	<!ENTITY ns_adobe_xpath "http://ns.adobe.com/XPath/1.0/">
	<!ENTITY st0 "fill:#020203;">
	<!ENTITY st1 "fill:#E73B33;">
	<!ENTITY st2 "fill:#E5231E;">
	<!ENTITY st3 "fill:#FFFFFF;">
	<!ENTITY st4 "fill:#FFFFFF;stroke:#FFFFFF;stroke-width:12.6265;stroke-miterlimit:10;">
	<!ENTITY st5 "fill:#BD271F;">
	<!ENTITY st6 "fill:none;">
	<!ENTITY st7 "fill:none;stroke:#FFFFFF;stroke-width:3.2659;stroke-miterlimit:10;">
	<!ENTITY st8 "fill:#1F090B;">
	<!ENTITY st9 "fill:none;stroke:#FFFFFF;stroke-width:4;stroke-miterlimit:10;">
	<!ENTITY st10 "fill:none;stroke:#FFFFFF;stroke-width:6;stroke-linejoin:round;stroke-miterlimit:10;">
	<!ENTITY st11 "fill:#FFFFFF;stroke:#FFFFFF;stroke-width:12.7233;stroke-miterlimit:10;">
	<!ENTITY st12 "fill:none;stroke:#000000;stroke-width:4;stroke-linejoin:round;stroke-miterlimit:10;">
	<!ENTITY st13 "fill:#2C52A0;">
	<!ENTITY st14 "fill:#FFFFFF;stroke:#FFFFFF;stroke-width:3;stroke-miterlimit:10;">
	<!ENTITY st15 "fill:#FFFFFF;stroke:#FFFFFF;stroke-width:2;stroke-miterlimit:10;">
	<!ENTITY st16 "fill:none;stroke:#FFFFFF;stroke-width:2.2659;stroke-miterlimit:10;">
	<!ENTITY st17 "fill:none;stroke:#000000;stroke-width:3.726;stroke-linejoin:round;stroke-miterlimit:10;">
	<!ENTITY st18 "fill:#FFFFFF;stroke:#FFFFFF;stroke-width:2.1439;stroke-miterlimit:10;">
	<!ENTITY st19 "fill:none;stroke:#000000;stroke-width:3.4833;stroke-linejoin:round;stroke-miterlimit:10;">
]>
<svg version="1.1" id="Capa_1" xmlns:x="&ns_extend;" xmlns:i="&ns_ai;" xmlns:graph="&ns_graphs;"
	 xmlns="http://www.w3.org/2000/svg" xmlns:xlink="http://www.w3.org/1999/xlink" x="0px" y="0px" viewBox="0 0 841.9 1190.6"
	 style="enable-background:new 0 0 841.9 1190.6;" xml:space="preserve">
<metadata>
	<sfw  xmlns="&ns_sfw;">
		<slices></slices>
		<sliceSourceBounds  bottomLeftOrigin="true" height="6871.7" width="8713.2" x="-528" y="-2600.1"></sliceSourceBounds>
	</sfw>
</metadata>
<g>
	<rect x="25.8" y="22.3" style="&st2;" width="790.4" height="1146"/>
	<path style="&st3;" d="M816.1,22.3v1146H25.8V22.3H816.1 M841.9,0h-25.8H25.8H0v22.3v1146v22.3h25.8h790.4h25.8v-22.3V22.3V0
		L841.9,0z"/>
</g>
<g>
	<path style="&st14;" d="M137.4,1058.4v-19.1c-14.6-1.8-28.7-7.3-41.2-15.5v-34.6c11.6,8,25.1,15.3,41.2,18v-39.4
		c-11.8-3.9-19.4-6.6-24.3-9.1c-13.3-6.2-18.8-18-18.8-31.9c0-25.3,17.1-39.9,43.1-42.8v-16.4h30.8v17.3c11.6,2.3,22,6.8,31,13.7
		v30.3c-8.2-7.3-19.2-13-31-16.4v35.1c24.7,8,41.4,15.7,40.7,49.7c-0.6,25.5-19,36.9-40.7,41.2v20.1H137.4z M137.4,937.7v-25.5
		c-7.2,2.5-10.8,7.3-10.8,14.6C126.6,931,131.3,934.7,137.4,937.7z M168.2,977.5v29.4c7.4-1.6,11.4-5.5,12.2-13.9
		C181.1,985.7,175.2,980.9,168.2,977.5z"/>
	<path style="&st14;" d="M270.2,1040.2c-18.8,0-46.2-11.4-46.2-45.3v-71.3c0-29.8,23-49.4,50-49.4h21.5c27.9,0,48.1,19.6,48.1,49.2
		v72.2c0,26.9-23.4,44.7-42.2,44.7H270.2z M290,1012.8c13.5,0,22.4-8,22.4-22.6v-64.5c0-11.6-7.2-21.4-22.2-21.4h-11.8
		c-15.2,0-23.2,10.3-23.2,21.6v64.3c0,12.5,5.7,22.6,21.5,22.6H290z"/>
	<path style="&st14;" d="M359.9,986.2c15.2,10.7,33.6,19.8,55.5,19.8c15.2,0,29.8-3.6,31.5-15.5c1.7-14.4-19-21.2-27.2-23
		c-22-6.2-35.9-10.9-39.9-13.4c-13.1-8-19.6-19.1-19.6-33.7c0-31,30.6-46.3,57-46.3c18.6,0,36.3,5.2,51.3,16.4v31.9
		c-11.6-10.7-29.3-21.2-45.8-19.4c-13.7,1.6-22.6,5.7-22.6,17.3c0,11.2,22.4,18.7,30,21c28.7,9.1,49.6,15.7,48.5,50.6
		c-1.1,34.4-35.7,48.3-61.8,48.3c-18.8,0-40.5-6.4-56.8-17.3V986.2z"/>
	<path style="&st14;" d="M481,1040.2l54.9-166.1h29.8l54.5,166.1h-28.1l-9.5-34.4h-57l-10.6,34.4H481z M573.5,986.2l-19.2-70.4h-0.4
		L534,986.2H573.5z"/>
	<path style="&st14;" d="M742.1,1040l-77.7-61.3v61.3h-31.2V874.3h31.2v46l74.9-45.6v37.4l-58,37.1l60.8,51.5V1040z"/>
</g>
<g>
	<path style="&st15;" d="M128.8,177.5c-10.7,0-26.3-6-26.3-23.9v-37.6c0-15.7,13.1-26.1,28.5-26.1h12.3c15.9,0,27.4,10.3,27.4,26
		v38.1c0,14.2-13.3,23.6-24,23.6H128.8z M140.1,163.1c7.7,0,12.7-4.2,12.7-11.9v-34c0-6.1-4.1-11.3-12.6-11.3h-6.7
		c-8.7,0-13.2,5.4-13.2,11.4v33.9c0,6.6,3.2,11.9,12.3,11.9H140.1z"/>
	<path style="&st15;" d="M181.3,149c8.7,5.6,19.1,10.5,31.6,10.5c8.7,0,16.9-1.9,17.9-8.2c1-7.6-10.8-11.2-15.5-12.1
		c-12.5-3.2-20.4-5.8-22.7-7.1c-7.5-4.2-11.2-10.1-11.2-17.8c0-16.3,17.4-24.4,32.5-24.4c10.6,0,20.7,2.8,29.2,8.7v16.8
		c-6.6-5.6-16.7-11.2-26.1-10.2c-7.8,0.8-12.9,3-12.9,9.1c0,5.9,12.7,9.9,17.1,11.1c16.3,4.8,28.2,8.3,27.6,26.7
		c-0.6,18.1-20.3,25.5-35.2,25.5c-10.7,0-23.1-3.4-32.3-9.1V149z"/>
	<path style="&st15;" d="M251.7,177.5L283,89.9h16.9l31,87.6h-16l-5.4-18.1h-32.5l-6,18.1H251.7z M304.4,149l-10.9-37.1h-0.2
		L281.9,149H304.4z"/>
	<path style="&st15;" d="M401.8,177.4L357.6,145v32.3h-17.8V90h17.8v24.3l42.7-24v19.7l-33.1,19.6l34.6,27.2V177.4z"/>
	<path style="&st15;" d="M408.3,177.5l31.3-87.6h16.9l31,87.6h-16l-5.4-18.1h-32.5l-6,18.1H408.3z M461,149L450,111.9h-0.2
		L438.5,149H461z"/>
	<path style="&st15;" d="M508.8,177.5h-13.2v-13.2h13.2V177.5z"/>
	<path style="&st15;" d="M628.9,89.9L600,177.5h-14.7l-12.5-31.1l-12.5,31.1h-14.7l-28.8-87.6h21.8l18.5,58.4l13-38.2h5.5l17.3,42.5
		l18.5-62.7H628.9z"/>
	<path style="&st15;" d="M637.8,177.5V90h17.5v87.5H637.8z"/>
	<path style="&st15;" d="M669,177.5V89.9h21.3l31.9,60.7V89.9h17.5v87.6h-18.5l-30.9-54.8v54.8H669z"/>
</g>
<g>
	<g>
		<g>
			<g>
				<g>
					<path style="&st11;" d="M124.6,323.9c0.8-0.1,1.7-0.1,2.6-0.1c0.9,0,1.8-0.1,2.7,0c1.1,0,2.1,0.1,3.2,0.2
						c0.9,0.1,1.8,0.1,2.6,0.2c1,0.2,2.1,0.3,3.2,0.5c0.8,0.2,1.7,0.3,2.5,0.5c1,0.2,2.1,0.6,3.2,0.8c0.8,0.2,1.6,0.4,2.4,0.7
						c1.1,0.3,2.2,0.7,3.2,1.1c0.7,0.2,1.5,0.5,2.2,0.8c1.2,0.5,2.3,0.9,3.4,1.4c0.6,0.3,1.3,0.6,1.9,0.9c1.3,0.6,2.5,1.2,3.8,1.8
						c0.4,0.3,0.9,0.5,1.4,0.7c1.7,1,3.4,1.9,5.1,2.9c3,1.8,6,3.6,8.9,5.5c8.7,5.8,17.1,12.2,26,17.8c0.6,0.4,1.3,0.6,2.1,0.8
						c0.2,0,0.5,0,0.8,0.1c0.6,0.1,1.1,0.2,1.7,0.1c0.1,0,0.3,0,0.4,0c0.3,0,0.5-0.1,0.8-0.1c0.2-0.1,0.4-0.1,0.6-0.1
						c0.6-0.2,1.2-0.4,1.6-0.7c19.7-13.6,41.2-22.9,64.4-28.4c7.3-1.7,14.7-3,22.1-4.6c7.4-0.6,14.8-1.3,22.3-1.9
						c22.2-0.6,44.2,1.4,65.3,8.4c14,4.6,27.4,10.9,40.9,16.8c0.6,0.3,1.2,0.5,1.8,0.7l0,0.1c0.3,0.1,0.5,0.1,0.7,0.2
						c0.3,0.1,0.6,0.3,0.9,0.3c0.2,0.1,0.4,0.1,0.7,0.2c0.3,0.1,0.6,0.1,0.8,0.2c0.2,0,0.4,0,0.7,0.1c0.2,0,0.5,0,0.8,0
						c0.3,0,0.5-0.1,0.8-0.2c0.2,0,0.4,0,0.6-0.1c0.3-0.1,0.6-0.3,0.9-0.5c0.2-0.1,0.4-0.1,0.5-0.3c0.3-0.2,0.7-0.5,1-0.9
						c0.2-0.1,0.3-0.3,0.5-0.5c0.5-0.4,0.9-0.9,1.3-1.5l0.3-0.4c14-18.1,28.8-35.5,50.1-46.2c3.4-1.7,6.8-3.2,10.3-4.3
						c2.2-0.8,4.4-1.4,6.6-1.8c0.2-0.1,0.5-0.1,0.8-0.2c2.1-0.5,4.2-0.8,6.3-0.9l1.3-0.1c0.8-0.1,1.6-0.1,2.5-0.1c0.6,0,1.2,0,1.8,0
						c0.9,0.1,1.7,0.1,2.6,0.2c0.5,0,1.1,0.1,1.6,0.1c1,0.1,1.9,0.3,2.9,0.4c0.5,0.1,1,0.1,1.5,0.2c1.4,0.3,2.9,0.6,4.3,1.1
						c4.8,1.4,8.9,3.4,12.3,5.9c10.2,7.6,14.4,19.6,16,33c2.4,20.4-0.3,41-4,61c-5.5,29.7-12.6,59.1-19.8,88.4
						c-2.3,9.1-0.2,17,1.1,25.8c2.7,17.8,7.8,35.4,5.7,54.2c-1.3,11.2,1.3,23.6,4.7,34.6c1,3.2,1.8,6.4,2.5,9.5
						c0.2,0.7,0.2,1.4,0.4,2.2c0.5,2.4,1,4.8,1.3,7.3l0.2,3c0.2,2.1,0.4,4.2,0.6,6.3c0,1.2,0,2.4,0,3.6c0,1.9,0.1,3.8,0,5.6
						c-0.1,0.7-0.1,1.3-0.1,2c-0.1,0.7-0.1,1.3-0.1,2c-0.1,1.8-0.3,3.5-0.4,5.2c-0.2,1.5-0.4,2.9-0.6,4.3c-0.2,1.7-0.5,3.3-0.8,4.9
						c-0.2,1.5-0.6,2.9-0.9,4.4c-0.4,1.6-0.8,3.3-1.2,4.9c-0.4,1.4-0.8,2.8-1.2,4.2c-0.1,0.5-0.3,0.9-0.4,1.4
						c-0.1,0.5-0.3,1-0.5,1.5c0,0-1.3,9.3-11.8,25.6c-0.2,0.2-0.3,0.4-0.4,0.6c-1.1,1.7-2.4,3.5-3.8,5.4l0,0.1
						c-0.3,0.6-0.6,1.1-0.9,1.5c-1.1,1.3-2.1,2.6-3.3,3.9c-0.5,0.6-1,1.3-1.5,2c-2.6,3.4-5.3,6.8-8.4,9.7
						c-4.1,3.9-8.4,7.7-12.7,11.3c0,0-0.1,0.1-0.1,0.1c-1.6,1.3-19.1,15.3-52.4,29.7c-18.6,8-42.1,16.1-70.6,22.2
						c-1.8,0.5-3.7,1-5.8,1.3c-1.4,0.2-6.5,1.8-8,2c-0.7,0.1-1.4,0.1-2.2,0.2c-8.5,1.7-17,2.8-25.5,3.5c-3.4,0.3-6.9,0.5-10.2,0.6
						c-8.5,0.3-16.9,0.2-25-0.2c-24.4-1.2-46-5.1-61-8.5c-1-0.2-2.2-0.5-3.1-0.7c-1.4-0.3-2.6-0.6-3.8-0.9c-2.2-0.6-4.2-1.1-5.9-1.5
						c-0.9-0.2-1.7-0.5-2.5-0.7c-3-0.9-5-1.5-5.5-1.7l0-0.1c-14.9-4.7-29.3-11.3-42.9-20.4c-14.7-9.9-26.6-21.5-36.4-34.8
						c-3.3-4.5-6.4-9.2-9.3-14.2c-0.1-0.3-0.3-0.6-0.6-0.9c-25-37.6-15.1-78.2-14.4-80.9c0.1-0.1,0-0.2,0-0.2c0.3-2.1,0.6-4.1,1-6.1
						c0.4-2,0.9-4.1,1.4-6.1c0.1-0.6,0.2-1.2,0.3-1.8c0.2-1.7,0.3-3.5,0.2-5.3c-0.5-5.2-1.3-10.4-1.9-15.5c-0.7-7.5-1.4-15-2-22.5
						c-0.3-2-0.4-4-0.6-5.9c-0.4-5.2-0.5-10.4-0.2-15.7c0.5-7.2,1.6-14.3,3.4-21.3c0.3-1.2,0.5-2.4,0.6-3.6c0.3-3.5-0.5-6.8-1.5-10
						c-0.7-2.1-1.6-4.2-2.4-6.3c-0.8-2.1-1.7-4.2-2.2-6.3c-7.6-27.3-15.9-54.4-24.6-81.3c-4-12.3-6.2-24.8-7.2-37.4
						c-0.2-2.4-0.3-4.8-0.4-7.1c-1.2-26.8,12.5-43.9,39.3-48.1c1-0.1,1.9-0.3,2.8-0.3L124.6,323.9 M124.1,317.8l-1.4,0.1
						c-1,0.1-1.9,0.2-2.9,0.4c-29.9,4.6-46.1,24.4-44.7,54.3c0.1,2.5,0.3,4.8,0.4,7.3c1.1,14.4,3.6,27.1,7.5,38.9
						c9.4,28.9,17.4,55.4,24.6,81c0.7,2.3,1.5,4.4,2.3,6.5l0.2,0.4l0.7,1.6c0.6,1.5,1.2,2.9,1.7,4.4c1,3.1,1.4,5.4,1.2,7.6
						c-0.1,1-0.2,1.8-0.4,2.5c-1.9,7.5-3.1,15.1-3.6,22.5c-0.3,5.3-0.3,10.7,0.2,16.5c0.2,2,0.3,4.1,0.6,6.1c0.6,7.5,1.3,15,2,22.4
						c0.2,1.9,0.5,3.7,0.7,5.4c0.4,3.4,1,6.8,1.2,10.1c0.1,1.1,0.1,2.4-0.1,3.8c-0.1,0.4-0.1,0.7-0.2,1.1l0,0.3
						c-0.5,2-1.1,4.2-1.4,6.3c-0.4,2-0.8,4-1,6.1c-1.3,5.4-10.3,47,15.3,85.6l0.3,0.4c3,5.2,6.3,10.2,9.7,14.9
						c10.6,14.4,23.1,26.2,37.9,36.3c13.2,8.8,27.9,15.9,43.6,20.9l0.4,0.2c0.7,0.3,1.9,0.7,5.8,1.8l0.1,0.1l0.4,0.1
						c0.7,0.2,1.5,0.4,2.3,0.6c1.9,0.5,3.8,0.9,5.9,1.5l0.2,0l0.2,0c0.7,0.1,1.4,0.3,2.1,0.5l1.6,0.4l1,0.2c0.7,0.2,1.5,0.4,2.2,0.5
						c21,4.7,41.9,7.6,62,8.6c8.4,0.4,17,0.5,25.4,0.2c3.6-0.2,7.1-0.3,10.5-0.6c9.1-0.7,17.9-1.9,26.2-3.6c0.2,0,0.6,0,1-0.1
						c0.2,0,0.4,0,0.5,0c1.4-0.2,2.8-0.5,5.1-1.2c1.2-0.3,2.5-0.7,3.2-0.8c2.3-0.4,4.4-0.8,6.5-1.4c25.3-5.4,49.3-13,71.6-22.6
						c30-13,47.3-25.4,52.3-29.4l0.7-0.1l1.4-1.6c4.4-3.8,8.7-7.6,12.6-11.3c3.3-3.1,6.2-6.7,9-10.4l1.4-1.9c0.5-0.6,1.1-1.3,1.7-2
						c0.5-0.6,1-1.2,1.5-1.8c0.6-0.7,1.1-1.6,1.6-2.5c1.3-1.7,2.4-3.4,3.5-5l0.3-0.5l0-0.2l0,0c9.7-14.9,12.1-24.5,12.6-27.3
						c0.1-0.5,0.3-0.9,0.4-1.4l0.2-0.6l0.2-0.8c0.4-1.3,0.9-2.8,1.2-4.2c0.5-1.8,0.9-3.5,1.3-5.2l0.4-1.6c0.2-1,0.5-2,0.6-3
						c0.4-1.8,0.6-3.6,0.9-5.2c0.3-1.3,0.4-2.8,0.6-4.3c0.2-2,0.4-3.8,0.5-5.6c0-0.2,0.1-0.6,0.1-1c0-0.2,0-0.5,0.1-0.7
						c0-0.4,0.1-0.9,0.1-1.3c0-0.2,0-0.5,0.1-0.7l0-0.2l0-0.2c0-1.8,0-3.8,0-5.6l0-0.1l0-0.3c0-0.5,0-1.1,0-1.6c0-0.7,0-1.3,0-1.9
						c-0.1-2.4-0.4-4.6-0.6-6.8l-0.2-2.8c-0.3-2.9-0.8-5.3-1.4-8l0-0.3c-0.1-0.7-0.2-1.4-0.3-2.1c-0.6-2.9-1.5-6.4-2.6-9.8
						c-4-12.9-5.5-23.5-4.4-32.1c1.7-15-0.9-28.9-3.4-42.5c-0.8-4.4-1.7-8.8-2.3-13.3c-0.2-1.5-0.5-3-0.7-4.5
						c-1.1-6.8-2.1-12.5-0.5-18.9c7-28.3,14.2-58.6,19.9-88.7c3.7-19.8,6.7-41.1,4-62.8c-2.2-17.7-8.1-29.5-18.4-37.1
						c-3.9-3-8.7-5.3-14.2-6.8c-1.3-0.4-2.8-0.8-4.2-1.1l-0.5-0.1c-0.7-0.1-1-0.2-1.4-0.2l-0.4,0l-0.5-0.1c-0.9-0.2-1.8-0.3-2.8-0.4
						l-0.2,0l-0.2,0l-0.5,0c-0.4,0-0.8-0.1-1.2-0.1l-2.4-0.2l-0.4,0l-0.5,0c-0.4,0-0.7,0-1,0l-0.3,0l-0.5,0c-0.4,0-0.7,0.1-1,0.1
						c-0.5,0-1,0-1.4,0.1l-1.3,0.1c-2.5,0.2-4.9,0.6-7.1,1l-0.2,0l-0.2,0.1c-0.2,0-0.4,0.1-0.6,0.1c-2.6,0.6-4.9,1.2-7.1,2
						c-3.4,1.1-7.2,2.7-11,4.6c-22.8,11.5-38.3,29.9-52.2,47.9l-0.2,0.2l-0.1,0.1l-0.1,0.1c-0.2,0.3-0.3,0.4-0.5,0.6l-0.3,0.3
						l-0.1,0.1l-0.1,0.1l-0.3,0.3l-0.1,0.1l-0.1,0.1l-0.1,0l0,0l-0.1,0l-0.3-0.2l-0.6-0.1l-1-0.3c-0.3-0.1-0.5-0.2-0.8-0.3l-0.7-0.3
						c-2.8-1.2-5.8-2.5-8.7-3.8c-10.5-4.6-21.4-9.4-32.6-13.1c-19.6-6.5-41.7-9.4-67.3-8.7l-0.2,0l-0.2,0l-22.3,1.9l-0.4,0l-0.4,0.1
						c-2.6,0.6-5.3,1.1-7.9,1.6c-4.7,0.9-9.5,1.9-14.4,3c-24.2,5.8-46.5,15.6-66.1,29.1c-0.1,0-0.2,0-0.3,0.1c-0.2,0-0.4,0-0.5,0
						c-0.1,0-0.2,0-0.4-0.1c-0.2,0-0.5,0-0.7-0.1c-4.8-3.1-9.5-6.4-14.1-9.6c-3.8-2.7-7.7-5.5-11.6-8c-3.1-2.1-6.2-3.9-9.2-5.8
						l-3.2-1.7l-2-1.2l-0.3-0.2l-0.4-0.2c-0.2-0.1-0.4-0.2-0.6-0.3l-0.2-0.1l-0.2-0.1c-1.3-0.7-2.6-1.3-4-1.9
						c-0.2-0.1-0.6-0.3-1.1-0.5c-0.3-0.1-0.4-0.2-0.6-0.3c-1.4-0.6-2.5-1.1-3.8-1.6c-0.8-0.4-1.7-0.7-2.6-0.9
						c-0.9-0.4-2.1-0.8-3.4-1.2c-0.8-0.2-1.8-0.5-2.8-0.8l-0.7-0.2c-0.9-0.2-1.7-0.5-2.5-0.6c-0.5-0.1-0.9-0.2-1.4-0.3
						c-0.4-0.1-0.7-0.1-1.1-0.2c-1.4-0.3-2.5-0.4-3.6-0.6c-1-0.2-2-0.2-2.9-0.3l-0.4,0c-1.2-0.1-2.3-0.2-3.4-0.2c-0.7,0-1.4,0-2.1,0
						l-0.8,0C126,317.8,125.1,317.8,124.1,317.8L124.1,317.8z"/>
				</g>
				<g>
					<path style="&st5;" d="M234.2,783.1c-2-0.4-4.1-1-6.1-1.6l1.5-5.8c1.7,0.4,3.8,0.9,6.1,1.6L234.2,783.1z"/>
					<path style="&st3;" d="M228.9,778.6c1.7,0.4,3.7,0.9,5.9,1.5C232.9,779.7,230.9,779.2,228.9,778.6 M230.4,772.7l-3.1,11.6
						c1.8,0.5,3.9,1.1,6.3,1.6l3-11.7C234.2,773.7,232.1,773.2,230.4,772.7L230.4,772.7z"/>
				</g>
			</g>
		</g>
	</g>
	<g>
		<path style="&st5;" d="M337.7,700.3c-6.3,0.4-19.3,12.2-18.9,17.1c0.6,8,11.6,14.8,22.5,14c11.4-0.9,17.5-6.7,16.5-15.7
			C357.2,709.4,344.7,699.9,337.7,700.3z"/>
		<g>
			<path style="&st0;" d="M525.3,707.8c1.1-1.4,2.1-2.7,3.3-4c0.3-0.3,0.6-0.8,0.9-1.5C528.2,704.1,526.8,706,525.3,707.8z"/>
			<path style="&st0;" d="M228.9,778.6c1.9,0.6,4,1.1,5.9,1.5C232.6,779.5,230.7,779,228.9,778.6z"/>
			<path style="&st0;" d="M555.2,395.7c3.7-20,6.4-40.6,4-61c-1.7-13.4-5.8-25.5-16-33c-3.3-2.5-7.4-4.5-12.3-5.9
				c-1.4-0.4-2.9-0.7-4.3-1.1c-0.5-0.1-1-0.1-1.5-0.2c-1-0.2-1.9-0.3-2.9-0.4c-0.5,0-1.1-0.1-1.6-0.1c-0.9,0-1.8-0.1-2.6-0.2
				c-0.6,0-1.1,0-1.8,0c-0.8,0.1-1.6,0.1-2.5,0.1l-1.3,0.1c-2.1,0.2-4.2,0.5-6.3,0.9c-0.3,0.1-0.5,0.1-0.8,0.2
				c-2.2,0.5-4.4,1.1-6.6,1.8c-3.4,1.1-6.9,2.6-10.3,4.3c-21.4,10.8-36.1,28.1-50.1,46.2l-0.3,0.4c-0.4,0.6-0.9,1.1-1.3,1.5
				c-0.2,0.2-0.3,0.3-0.5,0.5c-0.3,0.3-0.7,0.7-1,0.9c-0.2,0.1-0.3,0.2-0.5,0.3c-0.3,0.2-0.6,0.4-0.9,0.5c-0.2,0.1-0.4,0.1-0.6,0.1
				c-0.3,0.1-0.5,0.2-0.8,0.2c-0.2,0-0.5,0-0.8,0c-0.2,0-0.4,0-0.7-0.1c-0.2,0-0.6-0.1-0.8-0.2c-0.2,0-0.5-0.1-0.7-0.2
				c-0.3,0-0.6-0.2-0.9-0.3c-0.3-0.1-0.5-0.1-0.7-0.2l0-0.1c-0.6-0.2-1.1-0.5-1.8-0.7c-13.5-5.8-26.9-12.2-40.9-16.8
				c-21.1-7-43.1-9-65.3-8.4c-7.5,0.6-14.9,1.3-22.3,1.9c-7.4,1.5-14.8,2.9-22.1,4.6c-23.2,5.5-44.7,14.8-64.4,28.4
				c-0.4,0.3-1,0.5-1.6,0.7c-0.2,0-0.4,0-0.6,0.1c-0.2,0-0.5,0.1-0.8,0.1c-0.1,0-0.3,0-0.4,0c-0.6,0-1.2,0-1.7-0.1
				c-0.3,0-0.5,0-0.8-0.1c-0.8-0.2-1.5-0.4-2.1-0.8c-8.9-5.7-17.2-12-26-17.8c-2.9-1.9-5.9-3.8-8.9-5.5c-1.7-1-3.4-1.9-5.1-2.9
				c-0.5-0.2-1-0.5-1.4-0.7c-1.3-0.6-2.5-1.3-3.8-1.8c-0.6-0.3-1.3-0.6-1.9-0.9c-1.1-0.5-2.2-1-3.4-1.4c-0.7-0.3-1.4-0.6-2.2-0.8
				c-1.1-0.4-2.1-0.8-3.2-1.1c-0.7-0.2-1.6-0.5-2.4-0.7c-1.1-0.3-2.1-0.6-3.2-0.8c-0.9-0.2-1.7-0.3-2.5-0.5
				c-1.1-0.2-2.1-0.4-3.2-0.5c-0.9-0.1-1.8-0.2-2.6-0.2c-1.1-0.1-2.1-0.2-3.2-0.2c-0.9,0-1.8,0-2.7,0c-0.9,0-1.8,0-2.6,0.1l-1.4,0.1
				c-0.9,0.1-1.8,0.2-2.8,0.3c-26.9,4.2-40.6,21.3-39.3,48.1c0.1,2.4,0.2,4.7,0.4,7.1c1,12.7,3.1,25.2,7.2,37.4
				c8.8,26.9,17.1,54,24.6,81.3c0.6,2.1,1.4,4.2,2.2,6.3c0.8,2.1,1.7,4.2,2.4,6.3c1,3.2,1.8,6.5,1.5,10c-0.1,1.2-0.2,2.3-0.6,3.6
				c-1.7,7-2.9,14.1-3.4,21.3c-0.3,5.2-0.2,10.4,0.2,15.7c0.2,2,0.3,4,0.6,5.9c0.6,7.5,1.3,15,2,22.5c0.6,5.2,1.5,10.4,1.9,15.5
				c0.1,1.8,0,3.6-0.2,5.3c-0.1,0.6-0.1,1.2-0.3,1.8c-0.5,2-1,4.1-1.4,6.1c-0.4,2-0.8,4.1-1,6.1c0,0,0,0.1,0,0.2
				c-0.7,2.8-10.5,43.3,14.4,80.9c0.2,0.3,0.4,0.6,0.6,0.9c2.9,4.9,6,9.6,9.3,14.2c9.8,13.3,21.7,24.9,36.4,34.8
				c13.6,9.1,28,15.7,42.9,20.4l0,0.1c0.5,0.2,2.4,0.8,5.5,1.7c0.7,0.2,1.6,0.4,2.5,0.7c1.7,0.4,3.7,0.9,5.9,1.5
				c1.2,0.3,2.5,0.6,3.8,0.9c1,0.2,2.1,0.5,3.1,0.7c15,3.4,36.6,7.3,61,8.5c8.1,0.4,16.4,0.5,25,0.2c11.8-0.4,23.8-1.7,35.8-4.1
				c0.8-0.1,1.5-0.2,2.2-0.2c1.4-0.2,6.5-1.8,8-2c2.2-0.4,4.1-0.8,5.8-1.3c28.5-6.1,52-14.2,70.6-22.2
				c33.3-14.4,50.8-28.4,52.4-29.7c0.1,0,0.1-0.1,0.1-0.1c4.3-3.7,8.6-7.4,12.7-11.3c3.1-2.9,5.7-6.3,8.4-9.7c0.5-0.7,1-1.4,1.5-2
				c1.5-1.9,2.9-3.7,4.1-5.5c1.4-1.9,2.6-3.7,3.8-5.4c0.1-0.2,0.2-0.4,0.4-0.6c10.5-16.3,11.8-25.6,11.8-25.6c0.2-0.5,0.3-1,0.5-1.5
				c0.1-0.5,0.3-0.9,0.4-1.4c0.4-1.4,0.9-2.8,1.2-4.2c0.4-1.6,0.8-3.3,1.2-4.9c0.3-1.5,0.7-2.9,0.9-4.4c0.4-1.6,0.6-3.3,0.8-4.9
				c0.3-1.4,0.4-2.8,0.6-4.3c0.2-1.7,0.3-3.4,0.4-5.2c0.1-0.7,0.1-1.3,0.1-2c0.1-0.7,0.1-1.3,0.1-2c0-1.8,0-3.8,0-5.6
				c0-1.2,0-2.4,0-3.6c-0.1-2.1-0.3-4.2-0.6-6.3l-0.2-3c-0.3-2.5-0.8-4.9-1.3-7.3c-0.1-0.7-0.2-1.4-0.4-2.2
				c-0.7-3.2-1.5-6.4-2.5-9.5c-3.4-11-6-23.3-4.7-34.6c2.1-18.7-3-36.3-5.7-54.2c-1.3-8.8-3.4-16.6-1.1-25.8
				C542.6,454.7,549.6,425.3,555.2,395.7z M114.2,417.4c-0.8-2.8-1.5-5.8-2.3-8.7c-0.3-1-0.5-2-0.7-2.9c-7-30.1-4.3-43-3.1-46.5
				c0.3-0.8,0.5-1.1,0.5-1.1c3.8-9,10.2-12.1,20.5-11.4c1.9,0,3.9,0.3,6,0.6c14.7,2.4,26.9,10.5,38.8,19.1c3.9,2.8,8.1,5.2,11.6,8.5
				c2.6,2.3,3.4,5.4-0.2,8.2c-12.8,10.1-22.7,22.8-32.3,35.8c-2.5,3.3-3.6,4-5,0.9c-0.2-0.3-0.4-0.7-0.5-1.1
				c-1.6-4.1-3.4-8.1-5.1-12.3c-2.5-5.9-6.7-7.9-13.2-7.1c-6.5,0.8-8.9,3.9-7.5,9.7c2.1,8.3,4.9,16.4,7.3,24.6
				c2.4,8.2,4.8,16.3,6.9,24.6c0.5,2,0.7,4.2,0.1,6.2c-0.6,2.1-2.2,3.9-3.4,5.9c-1.5-1.7-3.7-3.2-4.3-5.2
				C123.5,449.2,118.6,433.4,114.2,417.4z M522.7,653.3c-2.8,20.2-13.2,37.5-26.7,51.6c-11.2,11.8-25.4,21.1-39.2,30
				c-4.8,3.1-9.6,6-14.6,8.6c-13.7,7.2-28.2,12.7-43.2,16.8c-19.4,5.3-39.3,8.8-59,13.2c-31.3,0.9-61.4-2.5-90.1-11.1
				c-17.5-5.3-34.5-12.5-51.1-21.8c-27.1-15.2-46.2-37-53.4-66.9c-4.5-18.7-6.8-38.8,3.7-57.3c1.3-2.3,0.9-6,0.5-9
				c-1.7-15.8-5.7-31.6-4.9-47.3c1.1-23.7,6.8-46.7,18.6-68c0.9-1.6,1.9-3.3,2.9-4.9c10.5-17.7,24-32.6,39.7-45.8
				c7.5-6.3,15.8-2.1,23.4-0.4c7.1,1.7,14.3,4.5,20.3,8.5c6.5,4.3,13,9.6,17.3,16c9.7,14.5,18,29.8,26.8,44.9c1.5,2.6,2.2,5.8,4,8
				c4.2,5.2,7.6,11,16.5,9.5c11.3-1.9,23-1.3,34.2-3.3c6.5-1.2,8.9-8,10.1-14.2c1.5-6.9,1.7-14.1,4.1-20.7
				c8.4-23.6,21.6-44.1,42.5-58.6c4.9-3.4,10.4-6.4,16.1-8.2c8.1-2.6,15.5,1.3,21.9,5.9c14,9.9,27.2,20.8,37.6,34.5
				c1.1,1.3,2.1,2.7,3,4.1c10.4,14.9,19.4,30.7,22.6,49c2.3,13.1,5.3,26.2,7,39.3c1,7.8,0,15.8,0,23.8c0.1,3.7,0,7.7,1,11.3
				c2.4,8,5.1,15.9,8.2,23.8C527.6,627.5,524.5,640.5,522.7,653.3z M527,417c-2,12.1-4.6,24.1-6.9,36.2c-0.2,0.9-1.6,1.5-2.5,2.2
				c-2-4.7-6.2-9.8-5.7-14.3c2-17.2,5.6-34.2,8.5-51.3c0.4-2.3,1-4.9,0.6-7.1c-0.1-0.4,0.7-6.4-2.8-8.8c-6.1-4.2-11.2,0.8-14,3.9
				c-3.8,4.2-5,10.9-7.2,16.5c-0.8,2.2-0.8,4.7-1.6,7c-1.5,4.8-3.4,4.1-6.8,1c-0.3-0.2-0.5-0.5-0.8-0.7
				c-11.2-10.7-22.7-21.2-34.6-31.2c-2.7-2.2-3.1-2.8-1.1-5.3c12.9-15.9,26.7-30.6,44.1-41.2c2.8-1.8,5.8-3.4,8.9-4.9
				c8.5-4.2,18.8-2.4,25.1,6.5c0.1,0.2,0.3,0.4,0.4,0.6c0.3,0.4,0.5,0.8,0.8,1.3c0.1,0.3,0.3,0.6,0.5,1c2.9,6.3,3.5,17.3,2.9,29.6
				C533.6,384.6,527,417,527,417z"/>
			<path style="&st3;" d="M522.4,614.6c-3.1-7.8-5.8-15.8-8.2-23.8c-1-3.6-1-7.6-1-11.3c-0.1-8,1-16,0-23.8
				c-1.6-13.2-4.7-26.2-7-39.3c-3.2-18.3-12.2-34.1-22.6-49c-1-1.4-2-2.8-3-4.1c-10.4-13.7-23.6-24.6-37.6-34.5
				c-6.4-4.5-13.8-8.4-21.9-5.9c-5.7,1.8-11.2,4.8-16.1,8.2c-20.9,14.6-34.1,35-42.5,58.6c-2.3,6.5-2.6,13.8-4.1,20.7
				c-1.3,6.2-3.6,13-10.1,14.2c-11.2,2-22.9,1.4-34.2,3.3c-8.9,1.5-12.4-4.4-16.5-9.5c-1.9-2.2-2.5-5.4-4-8
				c-8.8-15-17.1-30.4-26.8-44.9c-4.3-6.4-10.8-11.7-17.3-16c-6.1-4-13.2-6.8-20.3-8.5c-7.6-1.8-15.9-5.9-23.4,0.4
				c-15.7,13.2-29.2,28.1-39.7,45.8c-1,1.7-2,3.3-2.9,4.9c-11.8,21.3-17.5,44.3-18.6,68c-0.8,15.6,3.3,31.5,4.9,47.3
				c0.4,3,0.8,6.7-0.5,9c-10.5,18.6-8.2,38.7-3.7,57.3c7.2,29.9,26.3,51.7,53.4,66.9c16.6,9.3,33.6,16.5,51.1,21.8
				c28.8,8.6,58.8,12,90.1,11.1c19.6-4.3,39.5-7.9,59-13.2c15-4.1,29.5-9.6,43.2-16.8c5-2.6,9.9-5.5,14.6-8.6
				c13.8-8.9,27.9-18.2,39.2-30c13.5-14.1,23.9-31.4,26.7-51.6C524.5,640.5,527.6,627.5,522.4,614.6z M394.5,508.6
				c4.8-16.3,24.8-22.3,37.5-11.2c3.4,2.9,6.1,6.4,9.1,9.6c0.7,0.7,1,1.7,2.5,4.2c-2.8-0.6-4.6-0.6-5.8-1.4
				c-8.6-5.5-17.9-7.6-27.7-4.2c-4.1,1.4-7.7,4.1-11.6,6.1c-1,0.5-2.3,0.5-3.5,0.8C394.8,511.2,394.2,509.8,394.5,508.6z
				 M316.7,621.4c6.2-6.5,25.2-9.4,33.1-4.8c3.2,1.9,6.8,6.1,6.8,9.2c0,2.7-4.3,6.5-7.5,8c-3.9,1.8-8.8,1.7-14.1,2.6
				c-3.9-0.1-8.9,0.6-13.5-0.4c-2.9-0.6-6.7-3.1-7.5-5.6C313.1,627.8,314.7,623.5,316.7,621.4z M211.3,522
				c5.3-8.5,11.1-16.5,22.5-16.9c6-0.4,20.8,9.4,22.3,15c0.3,0.9-1.8,3.6-2.7,3.6c-2.2,0-4.5-1.1-6.7-1.8
				c-10.9-3.7-21.2-4.3-30.2,4.4c-1.4,1.3-4,1.2-6,1.7C210.7,525.9,210.4,523.5,211.3,522z M239.7,572.5c-4.6-4.8-9.5-4.2-12.5,1.5
				c-4.2,8.4-7.7,17.2-10.5,26.2c-1.7,5.5,0.5,6.7,6.9,5c3-0.8,6.1-1.7,9.1-1.6c2.3,0.1,6.6,0.3,6.7,2.7c0,2.3-3.9,2.3-6.1,3
				c-6.1,1.9-12.5,3.2-18.5,5.4c-4.1,1.5-7.7,4.1-11.4,6.5c-2.9,1.9-4.4,1.5-4.7-2.1c-1.9-24.5-0.2-48,16.2-68.3
				c4.7-5.8,10.9-7.6,17.7-8.6c9.8-1.1,23.5,6.9,30.9,21.9c5.2,10.5,9,21.8,13.2,32.8c0.8,2.2,0.9,4.7,1,7.1c0.1,5.1-3,6.3-6.9,4.4
				c-7.6-3.9-13.9-8.7-17.4-17.5C250.6,584.2,244.9,578,239.7,572.5z M403,676.8c-7.7,3.5-15.5,7-23.5,9.3c-4.4,1.3-6.4,2.3-6.5,7.3
				c-0.4,10.9-3.5,21.4-8.8,30.9c-4.9,8.8-13.2,12.8-25.7,13.3c-10.6,0.8-22.9-7-28.7-20.1c-2.8-6.5-5.7-13.1-7.4-19.9
				c-1.1-4.5-3-5.6-7-4.8c-9,1.8-17.2-0.9-25.4-4.2c-4.2-1.7-5.3-4.2-4.8-7.8c0.2-1.7,1.9-3.7,3.5-4.4c1.1-0.4,3.5,1,4.5,2.3
				c4,5.1,9.7,6,15.5,6.3c17.3,0.8,31.4-5.8,42.4-19.1c3.5-4.1,4.8-6.8,11-0.9c12.4,11.9,27.9,18.8,45.7,10.3c2.9-1.4,5.4-3.7,8-5.7
				c1.7-1.2,3.7-3.9,4.6-3.6c2.4,1,5.1,2.9,6.1,5.1C407,672.4,404.8,676,403,676.8z M460,597.2c-1.1,2-5,4.5-6.1,3.9
				c-9.9-5.3-20.3-6.9-31.3-6.5c-1.9,0.1-3.9-0.9-5.8-1.5c-0.9-0.2-1.7-0.6-2.5-0.9c0.9-0.5,1.7-1.3,2.7-1.4
				c5.7-0.9,11.8-2.9,17.3-2.1c6.1,0.9,7.7-1,5.6-5.5c-4-8.6-8.5-16.9-13.7-24.8c-3.2-4.8-8.8-5.4-12.2-0.3c-4.6,7-9,14.6-11.4,22.5
				c-3,9.4-9.5,14.6-17.3,18.9c-0.6,0.4-3.6-1.5-3.6-2.3c0.6-19.7,4.1-38.9,15.1-55.4c13.9-20.6,33.9-17.4,46.4,1.5
				c9.3,14,14.4,30,16.6,45.4C459.9,592.5,461,595.4,460,597.2z"/>
			<path style="&st3;" d="M534.8,357.8c-1.2,26.8-7.8,59.2-7.8,59.2c-2,12.1-4.6,24.1-6.9,36.2c-0.2,0.9-1.6,1.5-2.5,2.2
				c-2-4.7-6.2-9.8-5.7-14.3c2-17.2,5.6-34.2,8.5-51.3c0.4-2.3,1-4.9,0.6-7.1c-0.1-0.4,0.7-6.4-2.8-8.8c-6.1-4.2-11.2,0.8-14,3.9
				c-3.8,4.2-5,10.9-7.2,16.5c-0.8,2.2-0.8,4.7-1.6,7c-1.5,4.8-3.4,4.1-6.8,1c-0.3-0.2-0.5-0.5-0.8-0.7
				c-11.2-10.7-22.7-21.2-34.6-31.2c-2.7-2.2-3.1-2.8-1.1-5.3c12.9-15.9,26.7-30.6,44.1-41.2c2.8-1.8,5.8-3.4,8.9-4.9
				c8.5-4.2,18.8-2.4,25.1,6.5c0.1,0.2,0.3,0.4,0.4,0.6c0.3,0.4,0.5,0.8,0.8,1.3c0.1,0.3,0.3,0.6,0.5,1
				C534.7,334.5,535.3,345.6,534.8,357.8z"/>
			<path style="&st3;" d="M185.3,383.1c-12.8,10.1-22.7,22.8-32.3,35.8c-2.5,3.3-3.6,4-5,0.9c-0.2-0.3-0.4-0.7-0.5-1.1
				c-1.6-4.1-3.4-8.1-5.1-12.3c-2.5-5.9-6.7-7.9-13.2-7.1c-6.5,0.8-8.9,3.9-7.5,9.7c2.1,8.3,4.9,16.4,7.3,24.6
				c2.4,8.2,4.8,16.3,6.9,24.6c0.5,2,0.7,4.2,0.1,6.2c-0.6,2.1-2.2,3.9-3.4,5.9c-1.5-1.7-3.7-3.2-4.3-5.2
				c-5-15.8-9.9-31.6-14.3-47.6c-0.8-2.8-1.5-5.8-2.3-8.7c-0.3-1-0.5-2-0.7-2.9c-7-30.1-4.3-43-3.1-46.5c0.3-0.8,0.5-1.1,0.5-1.1
				c3.8-9,10.2-12.1,20.5-11.4c1.9,0,3.9,0.3,6,0.6c14.7,2.4,26.9,10.5,38.8,19.1c3.9,2.8,8.1,5.2,11.6,8.5
				C188.1,377.2,188.9,380.3,185.3,383.1z"/>
			<path style="&st0;" d="M400.4,666.1c-0.9-0.4-3,2.4-4.6,3.6c-2.6,2-5.1,4.3-8,5.7c-17.9,8.4-33.3,1.6-45.7-10.3
				c-6.2-5.9-7.5-3.3-11,0.9c-11,13.3-25.1,19.9-42.4,19.1c-5.8-0.3-11.5-1.2-15.5-6.3c-1-1.3-3.4-2.6-4.5-2.3
				c-1.6,0.7-3.3,2.7-3.5,4.4c-0.5,3.6,0.5,6.1,4.8,7.8c8.2,3.3,16.4,6,25.4,4.2c4.1-0.8,5.9,0.3,7,4.8c1.7,6.8,4.6,13.4,7.4,19.9
				c5.8,13.2,18.1,20.9,28.7,20.1c12.5-0.6,20.8-4.5,25.7-13.3c5.3-9.5,8.4-20,8.8-30.9c0.2-5,2.1-6,6.5-7.3
				c8.1-2.3,15.8-5.8,23.5-9.3c1.8-0.8,4-4.4,3.5-5.6C405.5,669,402.9,667.1,400.4,666.1z M356.6,723.5c-0.2,0.4-0.5,0.8-0.8,1.2
				c-0.2,0.3-0.4,0.6-0.7,0.8c-0.3,0.4-0.6,0.7-0.9,1c-0.4,0.3-0.7,0.6-1.1,0.9c-2.8,2-6.7,3.3-11.6,3.7c-10.9,0.9-21.9-5.9-22.5-14
				c0-0.6,0.1-1.3,0.4-2.2c0.7-1.6,2-3.4,3.7-5.3c0.8-0.8,1.6-1.7,2.5-2.5c4-3.8,9-6.9,12.2-7.1c7-0.4,19.5,9.1,20.2,15.4
				C358.3,718.5,357.8,721.2,356.6,723.5z"/>
			<path style="&st0;" d="M277.7,604.2c0.1,5.1-3,6.3-6.9,4.4c-7.6-3.9-13.9-8.7-17.4-17.5c-2.8-6.9-8.4-13.1-13.7-18.6
				c-4.6-4.8-9.5-4.2-12.5,1.5c-4.2,8.4-7.7,17.2-10.5,26.2c-1.7,5.5,0.5,6.7,6.9,5c3-0.8,6.1-1.7,9.1-1.6c2.3,0.1,6.6,0.3,6.7,2.7
				c0,2.3-3.9,2.3-6.1,3c-6.1,1.9-12.5,3.2-18.5,5.4c-4.1,1.5-7.7,4.1-11.4,6.5c-2.9,1.9-4.4,1.5-4.7-2.1
				c-1.9-24.5-0.2-48,16.2-68.3c4.7-5.8,10.9-7.6,17.7-8.6c9.8-1.1,23.5,6.9,30.9,21.9c5.2,10.5,9,21.8,13.2,32.8
				C277.5,599.3,277.6,601.8,277.7,604.2z"/>
			<path style="&st0;" d="M460,597.2c-1.1,2-5,4.5-6.1,3.9c-9.9-5.3-20.3-6.9-31.3-6.5c-1.9,0.1-3.9-0.9-5.8-1.5
				c-0.9-0.2-1.7-0.6-2.5-0.9c0.9-0.5,1.7-1.3,2.7-1.4c5.7-0.9,11.8-2.9,17.3-2.1c6.1,0.9,7.7-1,5.6-5.5c-4-8.6-8.5-16.9-13.7-24.8
				c-3.2-4.8-8.8-5.4-12.2-0.3c-4.6,7-9,14.6-11.4,22.5c-3,9.4-9.5,14.6-17.3,18.9c-0.6,0.4-3.6-1.5-3.6-2.3
				c0.6-19.7,4.1-38.9,15.1-55.4c13.9-20.6,33.9-17.4,46.4,1.5c9.3,14,14.4,30,16.6,45.4C459.9,592.5,461,595.4,460,597.2z"/>
			<path style="&st0;" d="M356.6,625.8c0,2.7-4.3,6.5-7.5,8c-3.9,1.8-8.8,1.7-14.1,2.6c-3.9-0.1-8.9,0.6-13.5-0.4
				c-2.9-0.6-6.7-3.1-7.5-5.6c-0.8-2.5,0.8-6.8,2.8-9c6.2-6.5,25.2-9.4,33.1-4.8C353,618.4,356.6,622.6,356.6,625.8z"/>
			<path style="&st0;" d="M256.1,520c0.3,0.9-1.8,3.6-2.7,3.6c-2.2,0-4.5-1.1-6.7-1.8c-10.9-3.7-21.2-4.3-30.2,4.4
				c-1.4,1.3-4,1.2-6,1.7c0.3-2,0-4.4,0.9-5.9c5.3-8.5,11.1-16.5,22.5-16.9C239.7,504.7,254.6,514.5,256.1,520z"/>
			<path style="&st0;" d="M443.6,511.3c-2.8-0.6-4.6-0.6-5.8-1.4c-8.6-5.5-17.9-7.6-27.7-4.2c-4.1,1.4-7.7,4.1-11.6,6.1
				c-1,0.5-2.3,0.5-3.5,0.8c-0.2-1.3-0.8-2.7-0.5-3.8c4.8-16.3,24.8-22.3,37.5-11.2c3.4,2.9,6.1,6.4,9.1,9.6
				C441.8,507.8,442.2,508.8,443.6,511.3z"/>
		</g>
	</g>
</g>
<g>
	<g>
		<path style="&st3;" d="M463.1,687.1c-5,0-9.4-2.9-11.6-7.5c-2.1-4.6-1.4-9.8,1.8-13.7l55.6-66.4l16.5-207.4
			c0.7-9.1,8.4-16.2,17.5-16.2c0.5,0,0.9,0,1.4,0.1l247.1,19.7c4.7,0.4,8.9,2.5,12,6.1c3,3.6,4.5,8.1,4.2,12.8l-19.7,247.1
			c-0.7,9.1-8.4,16.2-17.5,16.2c-0.5,0-0.9,0-1.4-0.1l-184.5-14.7l-118.7,23.7C464.8,687,464,687.1,463.1,687.1z"/>
		<path d="M543,380c0.4,0,0.7,0,1.1,0l247.1,19.7c7.5,0.6,13.1,7.2,12.5,14.6l-19.7,247.1c-0.6,7.1-6.5,12.5-13.5,12.5
			c-0.4,0-0.7,0-1.1,0l-185.1-14.8h0l-119.3,23.8c-0.6,0.1-1.2,0.2-1.8,0.2c-7.2,0-11.7-8.6-6.7-14.6l56.4-67.4l0,0l16.6-208.7
			C530,385.3,536,380,543,380 M543,372L543,372c-11.2,0-20.6,8.7-21.5,19.9L505,598l-54.8,65.4c-4.3,5.1-5.2,11.9-2.4,17.9
			c2.8,6,8.6,9.8,15.2,9.8c1.1,0,2.3-0.1,3.4-0.3l118.2-23.6l184,14.7c0.6,0,1.2,0.1,1.7,0.1c11.2,0,20.6-8.7,21.5-19.9L811.6,415
			c0.5-5.8-1.4-11.3-5.1-15.7c-3.7-4.4-9-7.1-14.7-7.5L544.7,372C544.1,372,543.6,372,543,372L543,372z"/>
		<path style="&st12;" d="M803.6,414.3l-19.7,247.1c-0.6,7.5-7.1,13.1-14.6,12.5l-185.1-14.8h0l-119.3,23.8
			c-8.2,1.6-13.9-8-8.5-14.4l56.4-67.4l0,0l16.6-208.7c0.6-7.5,7.2-13.1,14.6-12.5l247.1,19.7C798.6,400.3,804.2,406.9,803.6,414.3z
			"/>
	</g>
	<g transform="translate(80,80)">
		<g transform="translate(360,0) scale(0.4,0.4)">
			<g transform="">
				
					<rect x="478.6" y="812.5" transform="matrix(7.949831e-02 -0.9968 0.9968 7.949831e-02 -370.2861 1247.8882)" width="23.9" height="23.9"/>
			</g>
		</g>
		<g transform="translate(400,0) scale(0.4,0.4)">
			<g transform="">
				
					<rect x="402.4" y="814.4" transform="matrix(7.949831e-02 -0.9968 0.9968 7.949831e-02 -442.3135 1173.6853)" width="23.9" height="23.9"/>
			</g>
		</g>
		<g transform="translate(560,0) scale(0.4,0.4)">
			<g transform="">
				
					<rect x="97.6" y="822" transform="matrix(7.949831e-02 -0.9968 0.9968 7.949831e-02 -730.423 876.8739)" width="23.9" height="23.9"/>
			</g>
		</g>
		<g transform="translate(640,0) scale(0.4,0.4)">
			<g transform="">
				
					<rect x="-54.7" y="825.8" transform="matrix(7.949831e-02 -0.9968 0.9968 7.949831e-02 -874.4777 728.4682)" width="23.9" height="23.9"/>
			</g>
		</g>
		<g transform="translate(320,40) scale(0.4,0.4)">
			<g transform="">
				
					<rect x="552.9" y="734.4" transform="matrix(7.949831e-02 -0.9968 0.9968 7.949831e-02 -224.0559 1250.0636)" width="23.9" height="23.9"/>
			</g>
		</g>
		<g transform="translate(360,40) scale(0.4,0.4)">
			<g transform="">
				
					<rect x="476.7" y="736.3" transform="matrix(7.949831e-02 -0.9968 0.9968 7.949831e-02 -296.0833 1175.8607)" width="23.9" height="23.9"/>
			</g>
		</g>
		<g transform="translate(400,40) scale(0.4,0.4)">
			<g transform="">
				
					<rect x="400.5" y="738.2" transform="matrix(7.949831e-02 -0.9968 0.9968 7.949831e-02 -368.1107 1101.658)" width="23.9" height="23.9"/>
			</g>
		</g>
		<g transform="translate(440,40) scale(0.4,0.4)">
			<g transform="">
				
					<rect x="324.3" y="740.1" transform="matrix(7.949831e-02 -0.9968 0.9968 7.949831e-02 -440.138 1027.4551)" width="23.9" height="23.9"/>
			</g>
		</g>
		<g transform="translate(520,40) scale(0.4,0.4)">
			<g transform="">
				
					<rect x="171.9" y="743.9" transform="matrix(7.949831e-02 -0.9968 0.9968 7.949831e-02 -584.1927 879.0494)" width="23.9" height="23.9"/>
			</g>
		</g>
		<g transform="translate(560,40) scale(0.4,0.4)">
			<g transform="">
				
					<rect x="95.7" y="745.8" transform="matrix(7.949831e-02 -0.9968 0.9968 7.949831e-02 -656.2202 804.8465)" width="23.9" height="23.9"/>
			</g>
		</g>
		<g transform="translate(640,40) scale(0.4,0.4)">
			<g transform="">
				
					<rect x="-56.6" y="749.6" transform="matrix(7.949831e-02 -0.9968 0.9968 7.949831e-02 -800.2748 656.4409)" width="23.9" height="23.9"/>
			</g>
		</g>
		<g transform="translate(320,80) scale(0.4,0.4)">
			<g transform="">
				
					<rect x="551" y="658.2" transform="matrix(7.949831e-02 -0.9968 0.9968 7.949831e-02 -149.8531 1178.0363)" width="23.9" height="23.9"/>
			</g>
		</g>
		<g transform="translate(400,80) scale(0.4,0.4)">
			<g transform="">
				
					<rect x="398.6" y="662" transform="matrix(7.949831e-02 -0.9968 0.9968 7.949831e-02 -293.9078 1029.6305)" width="23.9" height="23.9"/>
			</g>
		</g>
		<g transform="translate(440,80) scale(0.4,0.4)">
			<g transform="">
				
					<rect x="322.4" y="663.9" transform="matrix(7.949831e-02 -0.9968 0.9968 7.949831e-02 -365.9352 955.4277)" width="23.9" height="23.9"/>
			</g>
		</g>
		<g transform="translate(480,80) scale(0.4,0.4)">
			<g transform="">
				
					<rect x="246.2" y="665.8" transform="matrix(7.949831e-02 -0.9968 0.9968 7.949831e-02 -437.9626 881.2249)" width="23.9" height="23.9"/>
			</g>
		</g>
		<g transform="translate(600,80) scale(0.4,0.4)">
			<g transform="">
				
					<rect x="17.7" y="671.5" transform="matrix(7.949831e-02 -0.9968 0.9968 7.949831e-02 -654.0447 658.6163)" width="23.9" height="23.9"/>
			</g>
		</g>
		<g transform="translate(320,120) scale(0.4,0.4)">
			<g transform="">
				
					<rect x="549.1" y="582" transform="matrix(7.949831e-02 -0.9968 0.9968 7.949831e-02 -75.6502 1106.0089)" width="23.9" height="23.9"/>
			</g>
		</g>
		<g transform="translate(440,120) scale(0.4,0.4)">
			<g transform="">
				
					<rect x="320.5" y="587.7" transform="matrix(7.949831e-02 -0.9968 0.9968 7.949831e-02 -291.7323 883.4003)" width="23.9" height="23.9"/>
			</g>
		</g>
		<g transform="translate(520,120) scale(0.4,0.4)">
			<g transform="">
				
					<rect x="168.1" y="591.5" transform="matrix(7.949831e-02 -0.9968 0.9968 7.949831e-02 -435.7871 734.9946)" width="23.9" height="23.9"/>
			</g>
		</g>
		<g transform="translate(640,120) scale(0.4,0.4)">
			<g transform="">
				
					<rect x="-60.4" y="597.2" transform="matrix(7.949831e-02 -0.9968 0.9968 7.949831e-02 -651.8692 512.3861)" width="23.9" height="23.9"/>
			</g>
		</g>
		<g transform="translate(360,160) scale(0.4,0.4)">
			<g transform="">
				
					<rect x="471" y="507.7" transform="matrix(7.949831e-02 -0.9968 0.9968 7.949831e-02 -73.4747 959.7786)" width="23.9" height="23.9"/>
			</g>
		</g>
		<g transform="translate(400,160) scale(0.4,0.4)">
			<g transform="">
				
					<rect x="394.8" y="509.6" transform="matrix(7.949831e-02 -0.9968 0.9968 7.949831e-02 -145.5021 885.5758)" width="23.9" height="23.9"/>
			</g>
		</g>
		<g transform="translate(440,160) scale(0.4,0.4)">
			<g transform="">
				
					<rect x="318.6" y="511.5" transform="matrix(7.949831e-02 -0.9968 0.9968 7.949831e-02 -217.5295 811.373)" width="23.9" height="23.9"/>
			</g>
		</g>
		<g transform="translate(560,160) scale(0.4,0.4)">
			<g transform="">
				
					<rect x="90" y="517.2" transform="matrix(7.949831e-02 -0.9968 0.9968 7.949831e-02 -433.6116 588.7644)" width="23.9" height="23.9"/>
			</g>
		</g>
		<g transform="translate(640,160) scale(0.4,0.4)">
			<g transform="">
				
					<rect x="-62.3" y="521" transform="matrix(7.949831e-02 -0.9968 0.9968 7.949831e-02 -577.6663 440.3587)" width="23.9" height="23.9"/>
			</g>
		</g>
		<g transform="translate(360,200) scale(0.4,0.4)">
			<g transform="">
				
					<rect x="469.1" y="431.5" transform="matrix(7.949831e-02 -0.9968 0.9968 7.949831e-02 0.7281 887.7513)" width="23.9" height="23.9"/>
			</g>
		</g>
		<g transform="translate(520,200) scale(0.4,0.4)">
			<g transform="">
				
					<rect x="164.3" y="439.1" transform="matrix(7.949831e-02 -0.9968 0.9968 7.949831e-02 -287.3814 590.9399)" width="23.9" height="23.9"/>
			</g>
		</g>
		<g transform="translate(560,200) scale(0.4,0.4)">
			<g transform="">
				
					<rect x="88.1" y="441" transform="matrix(7.949831e-02 -0.9968 0.9968 7.949831e-02 -359.4088 516.7371)" width="23.9" height="23.9"/>
			</g>
		</g>
		<g transform="translate(640,200) scale(0.4,0.4)">
			<g transform="">
				
					<rect x="-64.2" y="444.8" transform="matrix(7.949831e-02 -0.9968 0.9968 7.949831e-02 -503.4635 368.3314)" width="23.9" height="23.9"/>
			</g>
		</g>
		<g transform="translate(320,240) scale(0.4,0.4)">
			<g transform="">
				
					<rect x="543.4" y="353.4" transform="matrix(7.949831e-02 -0.9968 0.9968 7.949831e-02 146.9583 889.9268)" width="23.9" height="23.9"/>
			</g>
		</g>
		<g transform="translate(400,240) scale(0.4,0.4)">
			<g transform="">
				
					<rect x="391" y="357.2" transform="matrix(7.949831e-02 -0.9968 0.9968 7.949831e-02 2.9036 741.5211)" width="23.9" height="23.9"/>
			</g>
		</g>
		<g transform="translate(480,240) scale(0.4,0.4)">
			<g transform="">
				
					<rect x="238.6" y="361" transform="matrix(7.949831e-02 -0.9968 0.9968 7.949831e-02 -141.1512 593.1154)" width="23.9" height="23.9"/>
			</g>
		</g>
		<g transform="translate(560,240) scale(0.4,0.4)">
			<g transform="">
				
					<rect x="86.2" y="364.8" transform="matrix(7.949831e-02 -0.9968 0.9968 7.949831e-02 -285.2059 444.7097)" width="23.9" height="23.9"/>
			</g>
		</g>
		<g transform="translate(640,240) scale(0.4,0.4)">
			<g transform="">
				
					<rect x="-66.1" y="368.6" transform="matrix(7.949831e-02 -0.9968 0.9968 7.949831e-02 -429.2606 296.304)" width="23.9" height="23.9"/>
			</g>
		</g>
		<g transform="translate(320,280) scale(0.4,0.4)">
			<g transform="">
				
					<rect x="541.5" y="277.3" transform="matrix(7.949831e-02 -0.9968 0.9968 7.949831e-02 221.1612 817.8994)" width="23.9" height="23.9"/>
			</g>
		</g>
		<g transform="translate(360,280) scale(0.4,0.4)">
			<g transform="">
				
					<rect x="465.3" y="279.2" transform="matrix(7.949831e-02 -0.9968 0.9968 7.949831e-02 149.1338 743.6965)" width="23.9" height="23.9"/>
			</g>
		</g>
		<g transform="translate(440,280) scale(0.4,0.4)">
			<g transform="">
				
					<rect x="312.9" y="283" transform="matrix(7.949831e-02 -0.9968 0.9968 7.949831e-02 5.0791 595.2908)" width="23.9" height="23.9"/>
			</g>
		</g>
		<g transform="translate(480,280) scale(0.4,0.4)">
			<g transform="">
				
					<rect x="236.7" y="284.9" transform="matrix(7.949831e-02 -0.9968 0.9968 7.949831e-02 -66.9483 521.088)" width="23.9" height="23.9"/>
			</g>
		</g>
		<g transform="translate(560,280) scale(0.4,0.4)">
			<g transform="">
				
					<rect x="84.4" y="288.6" transform="matrix(7.949831e-02 -0.9968 0.9968 7.949831e-02 -211.0031 372.6823)" width="23.9" height="23.9"/>
			</g>
		</g>
		<g transform="translate(600,280) scale(0.4,0.4)">
			<g transform="">
				
					<rect x="8.2" y="290.5" transform="matrix(7.949831e-02 -0.9968 0.9968 7.949831e-02 -283.0304 298.4795)" width="23.9" height="23.9"/>
			</g>
		</g>
		<g transform="translate(0,320) scale(0.4,0.4)">
			<g transform="">
				
					<rect x="1149.1" y="185.9" transform="matrix(7.949831e-02 -0.9968 0.9968 7.949831e-02 871.5829 1339.4948)" width="23.9" height="23.9"/>
			</g>
		</g>
		<g transform="translate(240,320) scale(0.4,0.4)">
			<g transform="">
				
					<rect x="692" y="197.3" transform="matrix(7.949831e-02 -0.9968 0.9968 7.949831e-02 439.4188 894.2777)" width="23.9" height="23.9"/>
			</g>
		</g>
		<g transform="translate(320,320) scale(0.4,0.4)">
			<g transform="">
				
					<rect x="539.6" y="201.1" transform="matrix(7.949831e-02 -0.9968 0.9968 7.949831e-02 295.364 745.872)" width="23.9" height="23.9"/>
			</g>
		</g>
		<g transform="translate(480,320) scale(0.4,0.4)">
			<g transform="">
				
					<rect x="234.8" y="208.7" transform="matrix(7.949831e-02 -0.9968 0.9968 7.949831e-02 7.2545 449.0606)" width="23.9" height="23.9"/>
			</g>
		</g>
		<g transform="translate(520,320) scale(0.4,0.4)">
			<g transform="">
				
					<rect x="158.6" y="210.6" transform="matrix(7.949831e-02 -0.9968 0.9968 7.949831e-02 -64.7728 374.8578)" width="23.9" height="23.9"/>
			</g>
		</g>
		<g transform="translate(560,320) scale(0.4,0.4)">
			<g transform="">
				
					<rect x="82.5" y="212.5" transform="matrix(7.949831e-02 -0.9968 0.9968 7.949831e-02 -136.8002 300.6549)" width="23.9" height="23.9"/>
			</g>
		</g>
		<g transform="translate(680,320) scale(0.4,0.4)">
			<g transform="">
				
					<rect x="-146.1" y="218.2" transform="matrix(7.949831e-02 -0.9968 0.9968 7.949831e-02 -352.8823 78.0464)" width="23.9" height="23.9"/>
			</g>
		</g>
		<g transform="translate(720,320) scale(0.4,0.4)">
			<g transform="">
				
					<rect x="-222.3" y="220.1" transform="matrix(7.949831e-02 -0.9968 0.9968 7.949831e-02 -424.9097 3.8436)" width="23.9" height="23.9"/>
			</g>
		</g>
		<g transform="translate(840,320) scale(0.4,0.4)">
			<g transform="">
				
					<rect x="-450.9" y="225.7" transform="matrix(7.949831e-02 -0.9968 0.9968 7.949831e-02 -640.9918 -218.765)" width="23.9" height="23.9"/>
			</g>
		</g>
		<g transform="translate(880,320) scale(0.4,0.4)">
			<g transform="">
				
					<rect x="-527.1" y="227.6" transform="matrix(7.949831e-02 -0.9968 0.9968 7.949831e-02 -713.0192 -292.9678)" width="23.9" height="23.9"/>
			</g>
		</g>
		<g transform="translate(920,320) scale(0.4,0.4)">
			<g transform="">
				
					<rect x="-603.3" y="229.5" transform="matrix(7.949831e-02 -0.9968 0.9968 7.949831e-02 -785.0465 -367.1707)" width="23.9" height="23.9"/>
			</g>
		</g>
		<g transform="translate(40,360) scale(0.4,0.4)">
			<g transform="">
				
					<rect x="1071" y="111.6" transform="matrix(7.949831e-02 -0.9968 0.9968 7.949831e-02 873.7584 1193.2645)" width="23.9" height="23.9"/>
			</g>
		</g>
		<g transform="translate(80,360) scale(0.4,0.4)">
			<g transform="">
				
					<rect x="994.9" y="113.5" transform="matrix(7.949831e-02 -0.9968 0.9968 7.949831e-02 801.7311 1119.0618)" width="23.9" height="23.9"/>
			</g>
		</g>
		<g transform="translate(160,360) scale(0.4,0.4)">
			<g transform="">
				
					<rect x="842.5" y="117.3" transform="matrix(7.949831e-02 -0.9968 0.9968 7.949831e-02 657.6763 970.6561)" width="23.9" height="23.9"/>
			</g>
		</g>
		<g transform="translate(280,360) scale(0.4,0.4)">
			<g transform="">
				
					<rect x="613.9" y="123" transform="matrix(7.949831e-02 -0.9968 0.9968 7.949831e-02 441.5942 748.0475)" width="23.9" height="23.9"/>
			</g>
		</g>
		<g transform="translate(320,360) scale(0.4,0.4)">
			<g transform="">
				
					<rect x="537.7" y="124.9" transform="matrix(7.949831e-02 -0.9968 0.9968 7.949831e-02 369.5669 673.8447)" width="23.9" height="23.9"/>
			</g>
		</g>
		<g transform="translate(360,360) scale(0.4,0.4)">
			<g transform="">
				
					<rect x="461.5" y="126.8" transform="matrix(7.949831e-02 -0.9968 0.9968 7.949831e-02 297.5395 599.6418)" width="23.9" height="23.9"/>
			</g>
		</g>
		<g transform="translate(400,360) scale(0.4,0.4)">
			<g transform="">
				
					<rect x="385.3" y="128.7" transform="matrix(7.949831e-02 -0.9968 0.9968 7.949831e-02 225.5121 525.439)" width="23.9" height="23.9"/>
			</g>
		</g>
		<g transform="translate(440,360) scale(0.4,0.4)">
			<g transform="">
				
					<rect x="309.1" y="130.6" transform="matrix(7.949831e-02 -0.9968 0.9968 7.949831e-02 153.4848 451.2361)" width="23.9" height="23.9"/>
			</g>
		</g>
		<g transform="translate(480,360) scale(0.4,0.4)">
			<g transform="">
				
					<rect x="232.9" y="132.5" transform="matrix(7.949831e-02 -0.9968 0.9968 7.949831e-02 81.4574 377.0333)" width="23.9" height="23.9"/>
			</g>
		</g>
		<g transform="translate(520,360) scale(0.4,0.4)">
			<g transform="">
				
					<rect x="156.7" y="134.4" transform="matrix(7.949831e-02 -0.9968 0.9968 7.949831e-02 9.43 302.8304)" width="23.9" height="23.9"/>
			</g>
		</g>
		<g transform="translate(560,360) scale(0.4,0.4)">
			<g transform="">
				
					<rect x="80.6" y="136.3" transform="matrix(7.949831e-02 -0.9968 0.9968 7.949831e-02 -62.5974 228.6276)" width="23.9" height="23.9"/>
			</g>
		</g>
		<g transform="translate(600,360) scale(0.4,0.4)">
			<g transform="">
				
					<rect x="4.4" y="138.2" transform="matrix(7.949831e-02 -0.9968 0.9968 7.949831e-02 -134.6247 154.4247)" width="23.9" height="23.9"/>
			</g>
		</g>
		<g transform="translate(680,360) scale(0.4,0.4)">
			<g transform="">
				
					<rect x="-148" y="142" transform="matrix(7.949831e-02 -0.9968 0.9968 7.949831e-02 -278.6795 6.019)" width="23.9" height="23.9"/>
			</g>
		</g>
		<g transform="translate(760,360) scale(0.4,0.4)">
			<g transform="">
				
					<rect x="-300.4" y="145.8" transform="matrix(7.949831e-02 -0.9968 0.9968 7.949831e-02 -422.7342 -142.3867)" width="23.9" height="23.9"/>
			</g>
		</g>
		<g transform="translate(800,360) scale(0.4,0.4)">
			<g transform="">
				
					<rect x="-376.6" y="147.7" transform="matrix(7.949831e-02 -0.9968 0.9968 7.949831e-02 -494.7616 -216.5895)" width="23.9" height="23.9"/>
			</g>
		</g>
		<g transform="translate(840,360) scale(0.4,0.4)">
			<g transform="">
				
					<rect x="-452.8" y="149.6" transform="matrix(7.949831e-02 -0.9968 0.9968 7.949831e-02 -566.7889 -290.7924)" width="23.9" height="23.9"/>
			</g>
		</g>
		<g transform="translate(880,360) scale(0.4,0.4)">
			<g transform="">
				
					<rect x="-529" y="151.5" transform="matrix(7.949831e-02 -0.9968 0.9968 7.949831e-02 -638.8163 -364.9952)" width="23.9" height="23.9"/>
			</g>
		</g>
		<g transform="translate(920,360) scale(0.4,0.4)">
			<g transform="">
				
					<rect x="-605.2" y="153.4" transform="matrix(7.949831e-02 -0.9968 0.9968 7.949831e-02 -710.8437 -439.1981)" width="23.9" height="23.9"/>
			</g>
		</g>
		<g transform="translate(0,400) scale(0.4,0.4)">
			<g transform="">
				
					<rect x="1145.3" y="33.5" transform="matrix(7.949831e-02 -0.9968 0.9968 7.949831e-02 1019.9886 1195.4401)" width="23.9" height="23.9"/>
			</g>
		</g>
		<g transform="translate(160,400) scale(0.4,0.4)">
			<g transform="">
				
					<rect x="840.6" y="41.1" transform="matrix(7.949831e-02 -0.9968 0.9968 7.949831e-02 731.8792 898.6287)" width="23.9" height="23.9"/>
			</g>
		</g>
		<g transform="translate(200,400) scale(0.4,0.4)">
			<g transform="">
				
					<rect x="764.4" y="43" transform="matrix(7.949831e-02 -0.9968 0.9968 7.949831e-02 659.8518 824.4258)" width="23.9" height="23.9"/>
			</g>
		</g>
		<g transform="translate(240,400) scale(0.4,0.4)">
			<g transform="">
				
					<rect x="688.2" y="44.9" transform="matrix(7.949831e-02 -0.9968 0.9968 7.949831e-02 587.8245 750.223)" width="23.9" height="23.9"/>
			</g>
		</g>
		<g transform="translate(320,400) scale(0.4,0.4)">
			<g transform="">
				
					<rect x="535.8" y="48.7" transform="matrix(7.949831e-02 -0.9968 0.9968 7.949831e-02 443.7697 601.8173)" width="23.9" height="23.9"/>
			</g>
		</g>
		<g transform="translate(400,400) scale(0.4,0.4)">
			<g transform="">
				
					<rect x="383.4" y="52.5" transform="matrix(7.949831e-02 -0.9968 0.9968 7.949831e-02 299.715 453.4116)" width="23.9" height="23.9"/>
			</g>
		</g>
		<g transform="translate(440,400) scale(0.4,0.4)">
			<g transform="">
				
					<rect x="307.2" y="54.4" transform="matrix(7.949831e-02 -0.9968 0.9968 7.949831e-02 227.6876 379.2087)" width="23.9" height="23.9"/>
			</g>
		</g>
		<g transform="translate(600,400) scale(0.4,0.4)">
			<g transform="">
				
					<rect x="2.5" y="62" transform="matrix(7.949831e-02 -0.9968 0.9968 7.949831e-02 -60.4219 82.3974)" width="23.9" height="23.9"/>
			</g>
		</g>
		<g transform="translate(640,400) scale(0.4,0.4)">
			<g transform="">
				
					<rect x="-73.7" y="63.9" transform="matrix(7.949831e-02 -0.9968 0.9968 7.949831e-02 -132.4492 8.1945)" width="23.9" height="23.9"/>
			</g>
		</g>
		<g transform="translate(680,400) scale(0.4,0.4)">
			<g transform="">
				
					<rect x="-149.9" y="65.8" transform="matrix(7.949831e-02 -0.9968 0.9968 7.949831e-02 -204.4766 -66.0083)" width="23.9" height="23.9"/>
			</g>
		</g>
		<g transform="translate(720,400) scale(0.4,0.4)">
			<g transform="">
				
					<rect x="-226.1" y="67.7" transform="matrix(7.949831e-02 -0.9968 0.9968 7.949831e-02 -276.504 -140.2112)" width="23.9" height="23.9"/>
			</g>
		</g>
		<g transform="translate(760,400) scale(0.4,0.4)">
			<g transform="">
				
					<rect x="-302.3" y="69.6" transform="matrix(7.949831e-02 -0.9968 0.9968 7.949831e-02 -348.5313 -214.414)" width="23.9" height="23.9"/>
			</g>
		</g>
		<g transform="translate(800,400) scale(0.4,0.4)">
			<g transform="">
				
					<rect x="-378.5" y="71.5" transform="matrix(7.949831e-02 -0.9968 0.9968 7.949831e-02 -420.5587 -288.6169)" width="23.9" height="23.9"/>
			</g>
		</g>
		<g transform="translate(840,400) scale(0.4,0.4)">
			<g transform="">
				
					<rect x="-454.7" y="73.4" transform="matrix(7.949831e-02 -0.9968 0.9968 7.949831e-02 -492.5861 -362.8197)" width="23.9" height="23.9"/>
			</g>
		</g>
		<g transform="translate(920,400) scale(0.4,0.4)">
			<g transform="">
				
					<rect x="-607.1" y="77.2" transform="matrix(7.949831e-02 -0.9968 0.9968 7.949831e-02 -636.6408 -511.2254)" width="23.9" height="23.9"/>
			</g>
		</g>
		<g transform="translate(960,400) scale(0.4,0.4)">
			<g transform="">
				
					<rect x="-683.3" y="79.1" transform="matrix(7.949831e-02 -0.9968 0.9968 7.949831e-02 -708.6682 -585.4283)" width="23.9" height="23.9"/>
			</g>
		</g>
		<g transform="translate(0,440) scale(0.4,0.4)">
			<g transform="">
				
					<rect x="1143.4" y="-42.7" transform="matrix(7.949831e-02 -0.9968 0.9968 7.949831e-02 1094.1915 1123.4127)" width="23.9" height="23.9"/>
			</g>
		</g>
		<g transform="translate(80,440) scale(0.4,0.4)">
			<g transform="">
				
					<rect x="991.1" y="-38.9" transform="matrix(7.949831e-02 -0.9968 0.9968 7.949831e-02 950.1368 975.007)" width="23.9" height="23.9"/>
			</g>
		</g>
		<g transform="translate(360,440) scale(0.4,0.4)">
			<g transform="">
				
					<rect x="457.7" y="-25.6" transform="matrix(7.949831e-02 -0.9968 0.9968 7.949831e-02 445.9452 455.5871)" width="23.9" height="23.9"/>
			</g>
		</g>
		<g transform="translate(480,440) scale(0.4,0.4)">
			<g transform="">
				
					<rect x="229.1" y="-19.9" transform="matrix(7.949831e-02 -0.9968 0.9968 7.949831e-02 229.8631 232.9785)" width="23.9" height="23.9"/>
			</g>
		</g>
		<g transform="translate(560,440) scale(0.4,0.4)">
			<g transform="">
				
					<rect x="76.8" y="-16.1" transform="matrix(7.949831e-02 -0.9968 0.9968 7.949831e-02 85.8083 84.5728)" width="23.9" height="23.9"/>
			</g>
		</g>
		<g transform="translate(680,440) scale(0.4,0.4)">
			<g transform="">
				
					<rect x="-151.8" y="-10.4" transform="matrix(7.949831e-02 -0.9968 0.9968 7.949831e-02 -130.2738 -138.0357)" width="23.9" height="23.9"/>
			</g>
		</g>
		<g transform="translate(760,440) scale(0.4,0.4)">
			<g transform="">
				
					<rect x="-304.2" y="-6.6" transform="matrix(7.949831e-02 -0.9968 0.9968 7.949831e-02 -274.3285 -286.4414)" width="23.9" height="23.9"/>
			</g>
		</g>
		<g transform="translate(840,440) scale(0.4,0.4)">
			<g transform="">
				
					<rect x="-456.6" y="-2.8" transform="matrix(7.949831e-02 -0.9968 0.9968 7.949831e-02 -418.3832 -434.8471)" width="23.9" height="23.9"/>
			</g>
		</g>
		<g transform="translate(960,440) scale(0.4,0.4)">
			<g transform="">
				
					<rect x="-685.2" y="2.9" transform="matrix(7.949831e-02 -0.9968 0.9968 7.949831e-02 -634.4653 -657.4556)" width="23.9" height="23.9"/>
			</g>
		</g>
		<g transform="translate(40,480) scale(0.4,0.4)">
			<g transform="">
				
					<rect x="1065.3" y="-117" transform="matrix(7.949831e-02 -0.9968 0.9968 7.949831e-02 1096.3669 977.1825)" width="23.9" height="23.9"/>
			</g>
		</g>
		<g transform="translate(80,480) scale(0.4,0.4)">
			<g transform="">
				
					<rect x="989.2" y="-115.1" transform="matrix(7.949831e-02 -0.9968 0.9968 7.949831e-02 1024.3396 902.9796)" width="23.9" height="23.9"/>
			</g>
		</g>
		<g transform="translate(160,480) scale(0.4,0.4)">
			<g transform="">
				
					<rect x="836.8" y="-111.3" transform="matrix(7.949831e-02 -0.9968 0.9968 7.949831e-02 880.2849 754.5739)" width="23.9" height="23.9"/>
			</g>
		</g>
		<g transform="translate(240,480) scale(0.4,0.4)">
			<g transform="">
				
					<rect x="684.4" y="-107.5" transform="matrix(7.949831e-02 -0.9968 0.9968 7.949831e-02 736.2302 606.1682)" width="23.9" height="23.9"/>
			</g>
		</g>
		<g transform="translate(280,480) scale(0.4,0.4)">
			<g transform="">
				
					<rect x="608.2" y="-105.6" transform="matrix(7.949831e-02 -0.9968 0.9968 7.949831e-02 664.2028 531.9654)" width="23.9" height="23.9"/>
			</g>
		</g>
		<g transform="translate(320,480) scale(0.4,0.4)">
			<g transform="">
				
					<rect x="532" y="-103.7" transform="matrix(7.949831e-02 -0.9968 0.9968 7.949831e-02 592.1754 457.7625)" width="23.9" height="23.9"/>
			</g>
		</g>
		<g transform="translate(360,480) scale(0.4,0.4)">
			<g transform="">
				
					<rect x="455.8" y="-101.8" transform="matrix(7.949831e-02 -0.9968 0.9968 7.949831e-02 520.148 383.5597)" width="23.9" height="23.9"/>
			</g>
		</g>
		<g transform="translate(400,480) scale(0.4,0.4)">
			<g transform="">
				
					<rect x="379.6" y="-99.9" transform="matrix(7.949831e-02 -0.9968 0.9968 7.949831e-02 448.1207 309.3568)" width="23.9" height="23.9"/>
			</g>
		</g>
		<g transform="translate(440,480) scale(0.4,0.4)">
			<g transform="">
				
					<rect x="303.4" y="-98" transform="matrix(7.949831e-02 -0.9968 0.9968 7.949831e-02 376.0933 235.154)" width="23.9" height="23.9"/>
			</g>
		</g>
		<g transform="translate(480,480) scale(0.4,0.4)">
			<g transform="">
				
					<rect x="227.2" y="-96.1" transform="matrix(7.949831e-02 -0.9968 0.9968 7.949831e-02 304.0659 160.9512)" width="23.9" height="23.9"/>
			</g>
		</g>
		<g transform="translate(600,480) scale(0.4,0.4)">
			<g transform="">
				
					<rect x="-1.3" y="-90.4" transform="matrix(7.949831e-02 -0.9968 0.9968 7.949831e-02 87.9838 -61.6574)" width="23.9" height="23.9"/>
			</g>
		</g>
		<g transform="translate(640,480) scale(0.4,0.4)">
			<g transform="">
				
					<rect x="-77.5" y="-88.5" transform="matrix(7.949831e-02 -0.9968 0.9968 7.949831e-02 15.9565 -135.8602)" width="23.9" height="23.9"/>
			</g>
		</g>
		<g transform="translate(720,480) scale(0.4,0.4)">
			<g transform="">
				
					<rect x="-229.9" y="-84.7" transform="matrix(7.949831e-02 -0.9968 0.9968 7.949831e-02 -128.0983 -284.2659)" width="23.9" height="23.9"/>
			</g>
		</g>
		<g transform="translate(960,480) scale(0.4,0.4)">
			<g transform="">
				
					<rect x="-687.1" y="-73.3" transform="matrix(7.949831e-02 -0.9968 0.9968 7.949831e-02 -560.2625 -729.483)" width="23.9" height="23.9"/>
			</g>
		</g>
		<g transform="translate(0,520) scale(0.4,0.4)">
			<g transform="">
				
					<rect x="1139.6" y="-195.1" transform="matrix(7.949831e-02 -0.9968 0.9968 7.949831e-02 1242.5972 979.358)" width="23.9" height="23.9"/>
			</g>
		</g>
		<g transform="translate(120,520) scale(0.4,0.4)">
			<g transform="">
				
					<rect x="911.1" y="-189.4" transform="matrix(7.949831e-02 -0.9968 0.9968 7.949831e-02 1026.5151 756.7494)" width="23.9" height="23.9"/>
			</g>
		</g>
		<g transform="translate(200,520) scale(0.4,0.4)">
			<g transform="">
				
					<rect x="758.7" y="-185.6" transform="matrix(7.949831e-02 -0.9968 0.9968 7.949831e-02 882.4603 608.3438)" width="23.9" height="23.9"/>
			</g>
		</g>
		<g transform="translate(520,520) scale(0.4,0.4)">
			<g transform="">
				
					<rect x="149.1" y="-170.4" transform="matrix(7.949831e-02 -0.9968 0.9968 7.949831e-02 306.2414 14.7209)" width="23.9" height="23.9"/>
			</g>
		</g>
		<g transform="translate(600,520) scale(0.4,0.4)">
			<g transform="">
				
					<rect x="-3.2" y="-166.6" transform="matrix(7.949831e-02 -0.9968 0.9968 7.949831e-02 162.1867 -133.6848)" width="23.9" height="23.9"/>
			</g>
		</g>
		<g transform="translate(640,520) scale(0.4,0.4)">
			<g transform="">
				
					<rect x="-79.4" y="-164.7" transform="matrix(7.949831e-02 -0.9968 0.9968 7.949831e-02 90.1593 -207.8876)" width="23.9" height="23.9"/>
			</g>
		</g>
		<g transform="translate(680,520) scale(0.4,0.4)">
			<g transform="">
				
					<rect x="-155.6" y="-162.8" transform="matrix(7.949831e-02 -0.9968 0.9968 7.949831e-02 18.1319 -282.0905)" width="23.9" height="23.9"/>
			</g>
		</g>
		<g transform="translate(760,520) scale(0.4,0.4)">
			<g transform="">
				
					<rect x="-308" y="-159" transform="matrix(7.949831e-02 -0.9968 0.9968 7.949831e-02 -125.9228 -430.4961)" width="23.9" height="23.9"/>
			</g>
		</g>
		<g transform="translate(920,520) scale(0.4,0.4)">
			<g transform="">
				
					<rect x="-612.8" y="-151.4" transform="matrix(7.949831e-02 -0.9968 0.9968 7.949831e-02 -414.0323 -727.3075)" width="23.9" height="23.9"/>
			</g>
		</g>
		<g transform="translate(0,560) scale(0.4,0.4)">
			<g transform="">
				
					<rect x="1137.7" y="-271.3" transform="matrix(7.949831e-02 -0.9968 0.9968 7.949831e-02 1316.8 907.3306)" width="23.9" height="23.9"/>
			</g>
		</g>
		<g transform="translate(120,560) scale(0.4,0.4)">
			<g transform="">
				
					<rect x="909.2" y="-265.6" transform="matrix(7.949831e-02 -0.9968 0.9968 7.949831e-02 1100.7179 684.722)" width="23.9" height="23.9"/>
			</g>
		</g>
		<g transform="translate(240,560) scale(0.4,0.4)">
			<g transform="">
				
					<rect x="680.6" y="-259.9" transform="matrix(7.949831e-02 -0.9968 0.9968 7.949831e-02 884.6359 462.1135)" width="23.9" height="23.9"/>
			</g>
		</g>
		<g transform="translate(280,560) scale(0.4,0.4)">
			<g transform="">
				
					<rect x="604.4" y="-258" transform="matrix(7.949831e-02 -0.9968 0.9968 7.949831e-02 812.6085 387.9106)" width="23.9" height="23.9"/>
			</g>
		</g>
		<g transform="translate(400,560) scale(0.4,0.4)">
			<g transform="">
				
					<rect x="375.8" y="-252.3" transform="matrix(7.949831e-02 -0.9968 0.9968 7.949831e-02 596.5264 165.3021)" width="23.9" height="23.9"/>
			</g>
		</g>
		<g transform="translate(440,560) scale(0.4,0.4)">
			<g transform="">
				
					<rect x="299.6" y="-250.4" transform="matrix(7.949831e-02 -0.9968 0.9968 7.949831e-02 524.499 91.0993)" width="23.9" height="23.9"/>
			</g>
		</g>
		<g transform="translate(480,560) scale(0.4,0.4)">
			<g transform="">
				
					<rect x="223.4" y="-248.5" transform="matrix(7.949831e-02 -0.9968 0.9968 7.949831e-02 452.4716 16.8964)" width="23.9" height="23.9"/>
			</g>
		</g>
		<g transform="translate(520,560) scale(0.4,0.4)">
			<g transform="">
				
					<rect x="147.3" y="-246.6" transform="matrix(7.949831e-02 -0.9968 0.9968 7.949831e-02 380.4442 -57.3064)" width="23.9" height="23.9"/>
			</g>
		</g>
		<g transform="translate(560,560) scale(0.4,0.4)">
			<g transform="">
				
					<rect x="71.1" y="-244.7" transform="matrix(7.949831e-02 -0.9968 0.9968 7.949831e-02 308.4169 -131.5093)" width="23.9" height="23.9"/>
			</g>
		</g>
		<g transform="translate(600,560) scale(0.4,0.4)">
			<g transform="">
				
					<rect x="-5.1" y="-242.8" transform="matrix(7.949831e-02 -0.9968 0.9968 7.949831e-02 236.3895 -205.7121)" width="23.9" height="23.9"/>
			</g>
		</g>
		<g transform="translate(640,560) scale(0.4,0.4)">
			<g transform="">
				
					<rect x="-81.3" y="-240.9" transform="matrix(7.949831e-02 -0.9968 0.9968 7.949831e-02 164.3622 -279.915)" width="23.9" height="23.9"/>
			</g>
		</g>
		<g transform="translate(680,560) scale(0.4,0.4)">
			<g transform="">
				
					<rect x="-157.5" y="-239" transform="matrix(7.949831e-02 -0.9968 0.9968 7.949831e-02 92.3348 -354.1178)" width="23.9" height="23.9"/>
			</g>
		</g>
		<g transform="translate(720,560) scale(0.4,0.4)">
			<g transform="">
				
					<rect x="-233.7" y="-237.1" transform="matrix(7.949831e-02 -0.9968 0.9968 7.949831e-02 20.3074 -428.3206)" width="23.9" height="23.9"/>
			</g>
		</g>
		<g transform="translate(760,560) scale(0.4,0.4)">
			<g transform="">
				
					<rect x="-309.9" y="-235.2" transform="matrix(7.949831e-02 -0.9968 0.9968 7.949831e-02 -51.72 -502.5235)" width="23.9" height="23.9"/>
			</g>
		</g>
		<g transform="translate(800,560) scale(0.4,0.4)">
			<g transform="">
				
					<rect x="-386.1" y="-233.3" transform="matrix(7.949831e-02 -0.9968 0.9968 7.949831e-02 -123.7473 -576.7264)" width="23.9" height="23.9"/>
			</g>
		</g>
		<g transform="translate(840,560) scale(0.4,0.4)">
			<g transform="">
				
					<rect x="-462.3" y="-231.4" transform="matrix(7.949831e-02 -0.9968 0.9968 7.949831e-02 -195.7747 -650.9292)" width="23.9" height="23.9"/>
			</g>
		</g>
		<g transform="translate(920,560) scale(0.4,0.4)">
			<g transform="">
				
					<rect x="-614.7" y="-227.6" transform="matrix(7.949831e-02 -0.9968 0.9968 7.949831e-02 -339.8294 -799.3349)" width="23.9" height="23.9"/>
			</g>
		</g>
		<g transform="translate(960,560) scale(0.4,0.4)">
			<g transform="">
				
					<rect x="-690.9" y="-225.7" transform="matrix(7.949831e-02 -0.9968 0.9968 7.949831e-02 -411.8568 -873.5377)" width="23.9" height="23.9"/>
			</g>
		</g>
		<g transform="translate(0,600) scale(0.4,0.4)">
			<g transform="">
				
					<rect x="1135.8" y="-347.5" transform="matrix(7.949831e-02 -0.9968 0.9968 7.949831e-02 1391.0029 835.3032)" width="23.9" height="23.9"/>
			</g>
		</g>
		<g transform="translate(80,600) scale(0.4,0.4)">
			<g transform="">
				
					<rect x="983.5" y="-343.7" transform="matrix(7.949831e-02 -0.9968 0.9968 7.949831e-02 1246.9481 686.8975)" width="23.9" height="23.9"/>
			</g>
		</g>
		<g transform="translate(160,600) scale(0.4,0.4)">
			<g transform="">
				
					<rect x="831.1" y="-339.9" transform="matrix(7.949831e-02 -0.9968 0.9968 7.949831e-02 1102.8934 538.4918)" width="23.9" height="23.9"/>
			</g>
		</g>
		<g transform="translate(200,600) scale(0.4,0.4)">
			<g transform="">
				
					<rect x="754.9" y="-338" transform="matrix(7.949831e-02 -0.9968 0.9968 7.949831e-02 1030.8661 464.289)" width="23.9" height="23.9"/>
			</g>
		</g>
		<g transform="translate(320,600) scale(0.4,0.4)">
			<g transform="">
				
					<rect x="526.3" y="-332.3" transform="matrix(7.949831e-02 -0.9968 0.9968 7.949831e-02 814.7839 241.6804)" width="23.9" height="23.9"/>
			</g>
		</g>
		<g transform="translate(440,600) scale(0.4,0.4)">
			<g transform="">
				
					<rect x="297.7" y="-326.6" transform="matrix(7.949831e-02 -0.9968 0.9968 7.949831e-02 598.7018 19.0719)" width="23.9" height="23.9"/>
			</g>
		</g>
		<g transform="translate(560,600) scale(0.4,0.4)">
			<g transform="">
				
					<rect x="69.2" y="-320.9" transform="matrix(7.949831e-02 -0.9968 0.9968 7.949831e-02 382.6197 -203.5366)" width="23.9" height="23.9"/>
			</g>
		</g>
		<g transform="translate(600,600) scale(0.4,0.4)">
			<g transform="">
				
					<rect x="-7" y="-319" transform="matrix(7.949831e-02 -0.9968 0.9968 7.949831e-02 310.5923 -277.7395)" width="23.9" height="23.9"/>
			</g>
		</g>
		<g transform="translate(640,600) scale(0.4,0.4)">
			<g transform="">
				
					<rect x="-83.2" y="-317.1" transform="matrix(7.949831e-02 -0.9968 0.9968 7.949831e-02 238.565 -351.9423)" width="23.9" height="23.9"/>
			</g>
		</g>
		<g transform="translate(680,600) scale(0.4,0.4)">
			<g transform="">
				
					<rect x="-159.4" y="-315.2" transform="matrix(7.949831e-02 -0.9968 0.9968 7.949831e-02 166.5376 -426.1452)" width="23.9" height="23.9"/>
			</g>
		</g>
		<g transform="translate(760,600) scale(0.4,0.4)">
			<g transform="">
				
					<rect x="-311.8" y="-311.4" transform="matrix(7.949831e-02 -0.9968 0.9968 7.949831e-02 22.4829 -574.5509)" width="23.9" height="23.9"/>
			</g>
		</g>
		<g transform="translate(840,600) scale(0.4,0.4)">
			<g transform="">
				
					<rect x="-464.2" y="-307.6" transform="matrix(7.949831e-02 -0.9968 0.9968 7.949831e-02 -121.5719 -722.9565)" width="23.9" height="23.9"/>
			</g>
		</g>
		<g transform="translate(880,600) scale(0.4,0.4)">
			<g transform="">
				
					<rect x="-540.4" y="-305.7" transform="matrix(7.949831e-02 -0.9968 0.9968 7.949831e-02 -193.5992 -797.1594)" width="23.9" height="23.9"/>
			</g>
		</g>
		<g transform="translate(960,600) scale(0.4,0.4)">
			<g transform="">
				
					<rect x="-692.8" y="-301.9" transform="matrix(7.949831e-02 -0.9968 0.9968 7.949831e-02 -337.654 -945.5651)" width="23.9" height="23.9"/>
			</g>
		</g>
		<g transform="translate(0,640) scale(0.4,0.4)">
			<g transform="">
				
					<rect x="1133.9" y="-423.7" transform="matrix(7.949831e-02 -0.9968 0.9968 7.949831e-02 1465.2057 763.2759)" width="23.9" height="23.9"/>
			</g>
		</g>
		<g transform="translate(80,640) scale(0.4,0.4)">
			<g transform="">
				
					<rect x="981.6" y="-419.9" transform="matrix(7.949831e-02 -0.9968 0.9968 7.949831e-02 1321.151 614.8702)" width="23.9" height="23.9"/>
			</g>
		</g>
		<g transform="translate(120,640) scale(0.4,0.4)">
			<g transform="">
				
					<rect x="905.4" y="-418" transform="matrix(7.949831e-02 -0.9968 0.9968 7.949831e-02 1249.1237 540.6673)" width="23.9" height="23.9"/>
			</g>
		</g>
		<g transform="translate(160,640) scale(0.4,0.4)">
			<g transform="">
				
					<rect x="829.2" y="-416.1" transform="matrix(7.949831e-02 -0.9968 0.9968 7.949831e-02 1177.0963 466.4644)" width="23.9" height="23.9"/>
			</g>
		</g>
		<g transform="translate(240,640) scale(0.4,0.4)">
			<g transform="">
				
					<rect x="676.8" y="-412.3" transform="matrix(7.949831e-02 -0.9968 0.9968 7.949831e-02 1033.0415 318.0588)" width="23.9" height="23.9"/>
			</g>
		</g>
		<g transform="translate(280,640) scale(0.4,0.4)">
			<g transform="">
				
					<rect x="600.6" y="-410.4" transform="matrix(7.949831e-02 -0.9968 0.9968 7.949831e-02 961.0142 243.8559)" width="23.9" height="23.9"/>
			</g>
		</g>
		<g transform="translate(320,640) scale(0.4,0.4)">
			<g transform="">
				
					<rect x="524.4" y="-408.5" transform="matrix(7.949831e-02 -0.9968 0.9968 7.949831e-02 888.9868 169.6531)" width="23.9" height="23.9"/>
			</g>
		</g>
		<g transform="translate(440,640) scale(0.4,0.4)">
			<g transform="">
				
					<rect x="295.8" y="-402.8" transform="matrix(7.949831e-02 -0.9968 0.9968 7.949831e-02 672.9047 -52.9555)" width="23.9" height="23.9"/>
			</g>
		</g>
		<g transform="translate(600,640) scale(0.4,0.4)">
			<g transform="">
				
					<rect x="-8.9" y="-395.2" transform="matrix(7.949831e-02 -0.9968 0.9968 7.949831e-02 384.7952 -349.7668)" width="23.9" height="23.9"/>
			</g>
		</g>
		<g transform="translate(640,640) scale(0.4,0.4)">
			<g transform="">
				
					<rect x="-85.1" y="-393.3" transform="matrix(7.949831e-02 -0.9968 0.9968 7.949831e-02 312.7679 -423.9697)" width="23.9" height="23.9"/>
			</g>
		</g>
		<g transform="translate(680,640) scale(0.4,0.4)">
			<g transform="">
				
					<rect x="-161.3" y="-391.4" transform="matrix(7.949831e-02 -0.9968 0.9968 7.949831e-02 240.7405 -498.1725)" width="23.9" height="23.9"/>
			</g>
		</g>
		<g transform="translate(720,640) scale(0.4,0.4)">
			<g transform="">
				
					<rect x="-237.5" y="-389.5" transform="matrix(7.949831e-02 -0.9968 0.9968 7.949831e-02 168.7131 -572.3754)" width="23.9" height="23.9"/>
			</g>
		</g>
		<g transform="translate(760,640) scale(0.4,0.4)">
			<g transform="">
				
					<rect x="-313.7" y="-387.6" transform="matrix(7.949831e-02 -0.9968 0.9968 7.949831e-02 96.6857 -646.5782)" width="23.9" height="23.9"/>
			</g>
		</g>
		<g transform="translate(800,640) scale(0.4,0.4)">
			<g transform="">
				
					<rect x="-389.9" y="-385.7" transform="matrix(7.949831e-02 -0.9968 0.9968 7.949831e-02 24.6584 -720.7811)" width="23.9" height="23.9"/>
			</g>
		</g>
		<g transform="translate(880,640) scale(0.4,0.4)">
			<g transform="">
				
					<rect x="-542.3" y="-381.9" transform="matrix(7.949831e-02 -0.9968 0.9968 7.949831e-02 -119.3964 -869.1868)" width="23.9" height="23.9"/>
			</g>
		</g>
		<g transform="translate(320,680) scale(0.4,0.4)">
			<g transform="">
				
					<rect x="522.5" y="-484.7" transform="matrix(7.949831e-02 -0.9968 0.9968 7.949831e-02 963.1896 97.6257)" width="23.9" height="23.9"/>
			</g>
		</g>
		<g transform="translate(360,680) scale(0.4,0.4)">
			<g transform="">
				
					<rect x="446.3" y="-482.8" transform="matrix(7.949831e-02 -0.9968 0.9968 7.949831e-02 891.1623 23.4229)" width="23.9" height="23.9"/>
			</g>
		</g>
		<g transform="translate(480,680) scale(0.4,0.4)">
			<g transform="">
				
					<rect x="217.7" y="-477.1" transform="matrix(7.949831e-02 -0.9968 0.9968 7.949831e-02 675.0801 -199.1857)" width="23.9" height="23.9"/>
			</g>
		</g>
		<g transform="translate(520,680) scale(0.4,0.4)">
			<g transform="">
				
					<rect x="141.6" y="-475.2" transform="matrix(7.949831e-02 -0.9968 0.9968 7.949831e-02 603.0528 -273.3885)" width="23.9" height="23.9"/>
			</g>
		</g>
		<g transform="translate(600,680) scale(0.4,0.4)">
			<g transform="">
				
					<rect x="-10.8" y="-471.4" transform="matrix(7.949831e-02 -0.9968 0.9968 7.949831e-02 458.998 -421.7942)" width="23.9" height="23.9"/>
			</g>
		</g>
		<g transform="translate(640,680) scale(0.4,0.4)">
			<g transform="">
				
					<rect x="-87" y="-469.5" transform="matrix(7.949831e-02 -0.9968 0.9968 7.949831e-02 386.9707 -495.9971)" width="23.9" height="23.9"/>
			</g>
		</g>
		<g transform="translate(800,680) scale(0.4,0.4)">
			<g transform="">
				
					<rect x="-391.8" y="-461.9" transform="matrix(7.949831e-02 -0.9968 0.9968 7.949831e-02 98.8612 -792.8085)" width="23.9" height="23.9"/>
			</g>
		</g>
		<g transform="translate(360,720) scale(0.4,0.4)">
			<g transform="">
				
					<rect x="444.4" y="-559" transform="matrix(7.949831e-02 -0.9968 0.9968 7.949831e-02 965.3651 -48.6045)" width="23.9" height="23.9"/>
			</g>
		</g>
		<g transform="translate(440,720) scale(0.4,0.4)">
			<g transform="">
				
					<rect x="292" y="-555.2" transform="matrix(7.949831e-02 -0.9968 0.9968 7.949831e-02 821.3104 -197.0102)" width="23.9" height="23.9"/>
			</g>
		</g>
		<g transform="translate(640,720) scale(0.4,0.4)">
			<g transform="">
				
					<rect x="-88.9" y="-545.7" transform="matrix(7.949831e-02 -0.9968 0.9968 7.949831e-02 461.1735 -568.0244)" width="23.9" height="23.9"/>
			</g>
		</g>
		<g transform="translate(720,720) scale(0.4,0.4)">
			<g transform="">
				
					<rect x="-241.3" y="-541.9" transform="matrix(7.949831e-02 -0.9968 0.9968 7.949831e-02 317.1188 -716.4301)" width="23.9" height="23.9"/>
			</g>
		</g>
		<g transform="translate(800,720) scale(0.4,0.4)">
			<g transform="">
				
					<rect x="-393.7" y="-538.1" transform="matrix(7.949831e-02 -0.9968 0.9968 7.949831e-02 173.0641 -864.8358)" width="23.9" height="23.9"/>
			</g>
		</g>
		<g transform="translate(960,720) scale(0.4,0.4)">
			<g transform="">
				
					<rect x="-698.5" y="-530.5" transform="matrix(7.949831e-02 -0.9968 0.9968 7.949831e-02 -115.0454 -1161.6472)" width="23.9" height="23.9"/>
			</g>
		</g>
		<g transform="translate(360,760) scale(0.4,0.4)">
			<g transform="">
				
					<rect x="442.5" y="-635.1" transform="matrix(7.949831e-02 -0.9968 0.9968 7.949831e-02 1039.568 -120.6319)" width="23.9" height="23.9"/>
			</g>
		</g>
		<g transform="translate(400,760) scale(0.4,0.4)">
			<g transform="">
				
					<rect x="366.3" y="-633.2" transform="matrix(7.949831e-02 -0.9968 0.9968 7.949831e-02 967.5406 -194.8347)" width="23.9" height="23.9"/>
			</g>
		</g>
		<g transform="translate(480,760) scale(0.4,0.4)">
			<g transform="">
				
					<rect x="213.9" y="-629.4" transform="matrix(7.949831e-02 -0.9968 0.9968 7.949831e-02 823.4858 -343.2404)" width="23.9" height="23.9"/>
			</g>
		</g>
		<g transform="translate(520,760) scale(0.4,0.4)">
			<g transform="">
				
					<rect x="137.8" y="-627.6" transform="matrix(7.949831e-02 -0.9968 0.9968 7.949831e-02 751.4585 -417.4433)" width="23.9" height="23.9"/>
			</g>
		</g>
		<g transform="translate(600,760) scale(0.4,0.4)">
			<g transform="">
				
					<rect x="-14.6" y="-623.8" transform="matrix(7.949831e-02 -0.9968 0.9968 7.949831e-02 607.4037 -565.8489)" width="23.9" height="23.9"/>
			</g>
		</g>
		<g transform="translate(640,760) scale(0.4,0.4)">
			<g transform="">
				
					<rect x="-90.8" y="-621.9" transform="matrix(7.949831e-02 -0.9968 0.9968 7.949831e-02 535.3764 -640.0518)" width="23.9" height="23.9"/>
			</g>
		</g>
		<g transform="translate(800,760) scale(0.4,0.4)">
			<g transform="">
				
					<rect x="-395.6" y="-614.3" transform="matrix(7.949831e-02 -0.9968 0.9968 7.949831e-02 247.2669 -936.8632)" width="23.9" height="23.9"/>
			</g>
		</g>
		<g transform="translate(920,760) scale(0.4,0.4)">
			<g transform="">
				
					<rect x="-624.2" y="-608.6" transform="matrix(7.949831e-02 -0.9968 0.9968 7.949831e-02 31.1848 -1159.4717)" width="23.9" height="23.9"/>
			</g>
		</g>
		<g transform="translate(960,760) scale(0.4,0.4)">
			<g transform="">
				
					<rect x="-700.4" y="-606.7" transform="matrix(7.949831e-02 -0.9968 0.9968 7.949831e-02 -40.8426 -1233.6746)" width="23.9" height="23.9"/>
			</g>
		</g>
		<g transform="translate(360,800) scale(0.4,0.4)">
			<g transform="">
				
					<rect x="440.6" y="-711.3" transform="matrix(7.949831e-02 -0.9968 0.9968 7.949831e-02 1113.7708 -192.6593)" width="23.9" height="23.9"/>
			</g>
		</g>
		<g transform="translate(480,800) scale(0.4,0.4)">
			<g transform="">
				
					<rect x="212.1" y="-705.6" transform="matrix(7.949831e-02 -0.9968 0.9968 7.949831e-02 897.6887 -415.2678)" width="23.9" height="23.9"/>
			</g>
		</g>
		<g transform="translate(560,800) scale(0.4,0.4)">
			<g transform="">
				
					<rect x="59.7" y="-701.8" transform="matrix(7.949831e-02 -0.9968 0.9968 7.949831e-02 753.634 -563.6735)" width="23.9" height="23.9"/>
			</g>
		</g>
		<g transform="translate(600,800) scale(0.4,0.4)">
			<g transform="">
				
					<rect x="-16.5" y="-699.9" transform="matrix(7.949831e-02 -0.9968 0.9968 7.949831e-02 681.6066 -637.8763)" width="23.9" height="23.9"/>
			</g>
		</g>
		<g transform="translate(640,800) scale(0.4,0.4)">
			<g transform="">
				
					<rect x="-92.7" y="-698" transform="matrix(7.949831e-02 -0.9968 0.9968 7.949831e-02 609.5792 -712.0792)" width="23.9" height="23.9"/>
			</g>
		</g>
		<g transform="translate(680,800) scale(0.4,0.4)">
			<g transform="">
				
					<rect x="-168.9" y="-696.1" transform="matrix(7.949831e-02 -0.9968 0.9968 7.949831e-02 537.5519 -786.282)" width="23.9" height="23.9"/>
			</g>
		</g>
		<g transform="translate(720,800) scale(0.4,0.4)">
			<g transform="">
				
					<rect x="-245.1" y="-694.2" transform="matrix(7.949831e-02 -0.9968 0.9968 7.949831e-02 465.5245 -860.4849)" width="23.9" height="23.9"/>
			</g>
		</g>
		<g transform="translate(760,800) scale(0.4,0.4)">
			<g transform="">
				
					<rect x="-321.3" y="-692.3" transform="matrix(7.949831e-02 -0.9968 0.9968 7.949831e-02 393.4971 -934.6877)" width="23.9" height="23.9"/>
			</g>
		</g>
		<g transform="translate(800,800) scale(0.4,0.4)">
			<g transform="">
				
					<rect x="-397.5" y="-690.5" transform="matrix(7.949831e-02 -0.9968 0.9968 7.949831e-02 321.4698 -1008.8906)" width="23.9" height="23.9"/>
			</g>
		</g>
		<g transform="translate(880,800) scale(0.4,0.4)">
			<g transform="">
				
					<rect x="-549.9" y="-686.7" transform="matrix(7.949831e-02 -0.9968 0.9968 7.949831e-02 177.415 -1157.2963)" width="23.9" height="23.9"/>
			</g>
		</g>
		<g transform="translate(920,800) scale(0.4,0.4)">
			<g transform="">
				
					<rect x="-626.1" y="-684.8" transform="matrix(7.949831e-02 -0.9968 0.9968 7.949831e-02 105.3876 -1231.4991)" width="23.9" height="23.9"/>
			</g>
		</g>
		<g transform="translate(960,800) scale(0.4,0.4)">
			<g transform="">
				
					<rect x="-702.3" y="-682.9" transform="matrix(7.949831e-02 -0.9968 0.9968 7.949831e-02 33.3603 -1305.7019)" width="23.9" height="23.9"/>
			</g>
		</g>
		<g transform="translate(360,840) scale(0.4,0.4)">
			<g transform="">
				
					<rect x="438.7" y="-787.5" transform="matrix(7.949831e-02 -0.9968 0.9968 7.949831e-02 1187.9736 -264.6866)" width="23.9" height="23.9"/>
			</g>
		</g>
		<g transform="translate(560,840) scale(0.4,0.4)">
			<g transform="">
				
					<rect x="57.8" y="-778" transform="matrix(7.949831e-02 -0.9968 0.9968 7.949831e-02 827.8368 -635.7009)" width="23.9" height="23.9"/>
			</g>
		</g>
		<g transform="translate(600,840) scale(0.4,0.4)">
			<g transform="">
				
					<rect x="-18.4" y="-776.1" transform="matrix(7.949831e-02 -0.9968 0.9968 7.949831e-02 755.8094 -709.9037)" width="23.9" height="23.9"/>
			</g>
		</g>
		<g transform="translate(720,840) scale(0.4,0.4)">
			<g transform="">
				
					<rect x="-247" y="-770.4" transform="matrix(7.949831e-02 -0.9968 0.9968 7.949831e-02 539.7274 -932.5123)" width="23.9" height="23.9"/>
			</g>
		</g>
		<g transform="translate(920,840) scale(0.4,0.4)">
			<g transform="">
				
					<rect x="-628" y="-760.9" transform="matrix(7.949831e-02 -0.9968 0.9968 7.949831e-02 179.5905 -1303.5265)" width="23.9" height="23.9"/>
			</g>
		</g>
		<g transform="translate(960,840) scale(0.4,0.4)">
			<g transform="">
				
					<rect x="-704.1" y="-759" transform="matrix(7.949831e-02 -0.9968 0.9968 7.949831e-02 107.5631 -1377.7294)" width="23.9" height="23.9"/>
			</g>
		</g>
		<g transform="translate(440,880) scale(0.4,0.4)">
			<g transform="">
				
					<rect x="284.4" y="-859.9" transform="matrix(7.949831e-02 -0.9968 0.9968 7.949831e-02 1118.1218 -485.1197)" width="23.9" height="23.9"/>
			</g>
		</g>
		<g transform="translate(480,880) scale(0.4,0.4)">
			<g transform="">
				
					<rect x="208.3" y="-858" transform="matrix(7.949831e-02 -0.9968 0.9968 7.949831e-02 1046.0944 -559.3225)" width="23.9" height="23.9"/>
			</g>
		</g>
		<g transform="translate(640,880) scale(0.4,0.4)">
			<g transform="">
				
					<rect x="-96.5" y="-850.4" transform="matrix(7.949831e-02 -0.9968 0.9968 7.949831e-02 757.9849 -856.1339)" width="23.9" height="23.9"/>
			</g>
		</g>
		<g transform="translate(840,880) scale(0.4,0.4)">
			<g transform="">
				
					<rect x="-477.5" y="-840.9" transform="matrix(7.949831e-02 -0.9968 0.9968 7.949831e-02 397.8481 -1227.1482)" width="23.9" height="23.9"/>
			</g>
		</g>
		<g transform="translate(880,880) scale(0.4,0.4)">
			<g transform="">
				
					<rect x="-553.7" y="-839" transform="matrix(7.949831e-02 -0.9968 0.9968 7.949831e-02 325.8207 -1301.351)" width="23.9" height="23.9"/>
			</g>
		</g>
		<g transform="translate(960,880) scale(0.4,0.4)">
			<g transform="">
				
					<rect x="-706" y="-835.2" transform="matrix(7.949831e-02 -0.9968 0.9968 7.949831e-02 181.766 -1449.7567)" width="23.9" height="23.9"/>
			</g>
		</g>
		<g transform="translate(400,920) scale(0.4,0.4)">
			<g transform="">
				
					<rect x="358.7" y="-938" transform="matrix(7.949831e-02 -0.9968 0.9968 7.949831e-02 1264.3519 -482.9442)" width="23.9" height="23.9"/>
			</g>
		</g>
		<g transform="translate(440,920) scale(0.4,0.4)">
			<g transform="">
				
					<rect x="282.5" y="-936.1" transform="matrix(7.949831e-02 -0.9968 0.9968 7.949831e-02 1192.3246 -557.147)" width="23.9" height="23.9"/>
			</g>
		</g>
		<g transform="translate(560,920) scale(0.4,0.4)">
			<g transform="">
				
					<rect x="54" y="-930.4" transform="matrix(7.949831e-02 -0.9968 0.9968 7.949831e-02 976.2425 -779.7556)" width="23.9" height="23.9"/>
			</g>
		</g>
		<g transform="translate(640,920) scale(0.4,0.4)">
			<g transform="">
				
					<rect x="-98.4" y="-926.6" transform="matrix(7.949831e-02 -0.9968 0.9968 7.949831e-02 832.1877 -928.1613)" width="23.9" height="23.9"/>
			</g>
		</g>
		<g transform="translate(680,920) scale(0.4,0.4)">
			<g transform="">
				
					<rect x="-174.6" y="-924.7" transform="matrix(7.949831e-02 -0.9968 0.9968 7.949831e-02 760.1604 -1002.3641)" width="23.9" height="23.9"/>
			</g>
		</g>
		<g transform="translate(760,920) scale(0.4,0.4)">
			<g transform="">
				
					<rect x="-327" y="-920.9" transform="matrix(7.949831e-02 -0.9968 0.9968 7.949831e-02 616.1057 -1150.7698)" width="23.9" height="23.9"/>
			</g>
		</g>
		<g transform="translate(800,920) scale(0.4,0.4)">
			<g transform="">
				
					<rect x="-403.2" y="-919" transform="matrix(7.949831e-02 -0.9968 0.9968 7.949831e-02 544.0783 -1224.9727)" width="23.9" height="23.9"/>
			</g>
		</g>
		<g transform="translate(960,920) scale(0.4,0.4)">
			<g transform="">
				
					<rect x="-707.9" y="-911.4" transform="matrix(7.949831e-02 -0.9968 0.9968 7.949831e-02 255.9688 -1521.7841)" width="23.9" height="23.9"/>
			</g>
		</g>
		<g transform="translate(320,960) scale(0.4,0.4)">
			<g transform="">
				
					<rect x="509.2" y="-1018" transform="matrix(7.949831e-02 -0.9968 0.9968 7.949831e-02 1482.6096 -406.5659)" width="23.9" height="23.9"/>
			</g>
		</g>
		<g transform="translate(400,960) scale(0.4,0.4)">
			<g transform="">
				
					<rect x="356.8" y="-1014.2" transform="matrix(7.949831e-02 -0.9968 0.9968 7.949831e-02 1338.5548 -554.9716)" width="23.9" height="23.9"/>
			</g>
		</g>
		<g transform="translate(520,960) scale(0.4,0.4)">
			<g transform="">
				
					<rect x="128.3" y="-1008.5" transform="matrix(7.949831e-02 -0.9968 0.9968 7.949831e-02 1122.4728 -777.5801)" width="23.9" height="23.9"/>
			</g>
		</g>
		<g transform="translate(560,960) scale(0.4,0.4)">
			<g transform="">
				
					<rect x="52.1" y="-1006.6" transform="matrix(7.949831e-02 -0.9968 0.9968 7.949831e-02 1050.4453 -851.783)" width="23.9" height="23.9"/>
			</g>
		</g>
		<g transform="translate(640,960) scale(0.4,0.4)">
			<g transform="">
				
					<rect x="-100.3" y="-1002.8" transform="matrix(7.949831e-02 -0.9968 0.9968 7.949831e-02 906.3906 -1000.1887)" width="23.9" height="23.9"/>
			</g>
		</g>
		<g transform="translate(680,960) scale(0.4,0.4)">
			<g transform="">
				
					<rect x="-176.5" y="-1000.9" transform="matrix(7.949831e-02 -0.9968 0.9968 7.949831e-02 834.3632 -1074.3915)" width="23.9" height="23.9"/>
			</g>
		</g>
		<g transform="translate(840,960) scale(0.4,0.4)">
			<g transform="">
				
					<rect x="-481.3" y="-993.3" transform="matrix(7.949831e-02 -0.9968 0.9968 7.949831e-02 546.2538 -1371.2029)" width="23.9" height="23.9"/>
			</g>
		</g>
		<g transform="translate(960,960) scale(0.4,0.4)">
			<g transform="">
				
					<rect x="-709.8" y="-987.6" transform="matrix(7.949831e-02 -0.9968 0.9968 7.949831e-02 330.1717 -1593.8114)" width="23.9" height="23.9"/>
			</g>
		</g>
		<g transform="translate(0,0) scale(2.8, 2.8)">
			<g transform="">
				<g>
					
						<rect x="169.1" y="118" transform="matrix(7.949831e-02 -0.9968 0.9968 7.949831e-02 37.3695 293.1749)" style="&st6;" width="16.7" height="16.7"/>
					<path d="M186.7,115.1l-16.7-1.3l-3.6-0.3l-0.3,3.6l-1.3,16.7l-0.3,3.6l3.6,0.3l16.7,1.3l3.6,0.3l0.3-3.6L190,119l0.3-3.6
						L186.7,115.1z M185.1,135.4l-16.7-1.3l1.3-16.7l16.7,1.3L185.1,135.4z"/>
				</g>
			</g>
		</g>
		<g transform="translate(720,0) scale(2.8, 2.8)">
			<g transform="">
				<g>
					
						<rect x="-26.9" y="122.9" transform="matrix(7.949831e-02 -0.9968 0.9968 7.949831e-02 -147.8437 102.3676)" style="&st6;" width="16.7" height="16.7"/>
					<path d="M-9.2,120l-16.7-1.3l-3.6-0.3l-0.3,3.6l-1.3,16.7l-0.3,3.6l3.6,0.3l16.7,1.3l3.6,0.3l0.3-3.6l1.3-16.7l0.3-3.6
						L-9.2,120z M-10.8,140.2l-16.7-1.3l1.3-16.7l16.7,1.3L-10.8,140.2z"/>
				</g>
			</g>
		</g>
		<g transform="translate(0,720) scale(2.8, 2.8)">
			<g transform="">
				<g>
					
						<rect x="164.2" y="-77.9" transform="matrix(7.949831e-02 -0.9968 0.9968 7.949831e-02 228.1768 107.9616)" style="&st6;" width="16.7" height="16.7"/>
					<path d="M181.8-80.8l-16.7-1.3l-3.6-0.3l-0.3,3.6L160-62.2l-0.3,3.6l3.6,0.3l16.7,1.3l3.6,0.3l0.3-3.6l1.3-16.7l0.3-3.6
						L181.8-80.8z M180.2-60.6l-16.7-1.3l1.3-16.7l16.7,1.3L180.2-60.6z"/>
				</g>
			</g>
		</g>
		<g transform="translate(80,80) scale(1.2, 1.2)">
			<g transform="">
				
					<rect x="335.4" y="216.2" transform="matrix(7.949831e-02 -0.9968 0.9968 7.949831e-02 92.2844 556.2523)" width="23.9" height="23.9"/>
			</g>
		</g>
		<g transform="translate(800,80) scale(1.2, 1.2)">
			<g transform="">
				
					<rect x="-121.8" y="227.6" transform="matrix(7.949831e-02 -0.9968 0.9968 7.949831e-02 -339.8798 111.0352)" width="23.9" height="23.9"/>
			</g>
		</g>
		<g transform="translate(80,800) scale(1.2, 1.2)">
			<g transform="">
				
					<rect x="324" y="-240.9" transform="matrix(7.949831e-02 -0.9968 0.9968 7.949831e-02 537.5015 124.088)" width="23.9" height="23.9"/>
			</g>
		</g>
	</g>
</g>
<g>
	<path style="&st3;" d="M113.2,1125.2c0,7.4-5.1,11.9-11.9,11.9h-7.2c-4.6,0-11.3-2.6-11.3-10.9v-15.8c0-6.7,4.8-12.1,12.7-12.1h5.9
		c5.9,0,9.8,3.7,11.5,8.7l-7.3,2.3c-0.9-2-2.8-3.4-4.8-3.4h-4c-3.7,0-5.4,2.9-5.4,5.7v12.7c0,3.5,0.8,6,4.8,6h4.5
		c3.3,0,4.7-2.3,5-5.2H113.2z"/>
	<path style="&st3;" d="M126.5,1124.1c0,1.9,0.9,4.7,4.5,4.7h5.3c3.6,0,4.7-2.7,4.7-5v-25.2h8.6v27.1c0,8.1-5.6,11.5-12.1,11.5h-7.1
		c-7.7,0-13-5.2-12.6-12.6v-26h8.6V1124.1z"/>
	<path style="&st3;" d="M181.7,1131.5v5.7h-26.3v-38.8h8.6v33.1H181.7z"/>
	<path style="&st3;" d="M211.1,1098.3v8.2h-12.4v30.6h-8.3v-30.6h-13.1v-8.2H211.1z"/>
	<path style="&st3;" d="M243.8,1137.1c-4.7,0-11.7-2.7-11.7-10.6v-16.7c0-7,5.8-11.6,12.6-11.6h5.4c7,0,12.1,4.6,12.1,11.5v16.9
		c0,6.3-5.9,10.4-10.7,10.4H243.8z M248.8,1130.7c3.4,0,5.6-1.9,5.6-5.3v-15.1c0-2.7-1.8-5-5.6-5h-3c-3.8,0-5.9,2.4-5.9,5.1v15
		c0,2.9,1.4,5.3,5.4,5.3H248.8z"/>
	<path style="&st3;" d="M276.8,1103.6v10.7h15v5.2h-15v17.7h-9v-38.8h26v5.3H276.8z"/>
	<path style="&st3;" d="M347.2,1098.3v8.2h-12.4v30.6h-8.3v-30.6h-13.1v-8.2H347.2z"/>
	<path style="&st3;" d="M360.5,1137.1h-9.4v-38.8h9.4v15.5h13.6v-15.5h7.2v38.8h-7.2v-17.5h-13.6V1137.1z"/>
	<path style="&st3;" d="M396.5,1104.4v9.5H411v5.3h-14.5v12h17.6v5.8h-26.4v-38.7h26.4v6.1H396.5z"/>
	<path style="&st3;" d="M452.8,1098.3c10,0,12.6,4.8,12.6,10c0,5.6-3.2,7.2-5,8.1c4.7,1.9,6.2,4.9,6,9.2
		c-0.3,7.8-6.2,11.6-15.6,11.6H437v-38.8H452.8z M453.1,1114.1c4.2,0,7.4-1.8,7.4-5.7c0-3.5-2.8-5.2-7.6-5.2h-7v10.9H453.1z
		 M453.7,1130.7c4.8,0,7.1-3,7.1-6c0-4-3.1-5.9-6.7-5.9H446v11.9H453.7z"/>
	<path style="&st3;" d="M497.7,1131.5v5.7h-26.3v-38.8h8.6v33.1H497.7z"/>
	<path style="&st3;" d="M500.3,1137.1l13.9-38.8h7.5l13.7,38.8h-7.1l-2.4-8h-14.4l-2.7,8H500.3z M523.6,1124.5l-4.8-16.5h-0.1
		l-5,16.5H523.6z"/>
	<path style="&st3;" d="M569.2,1125.2c0,7.4-5.1,11.9-11.9,11.9h-7.2c-4.6,0-11.3-2.6-11.3-10.9v-15.8c0-6.7,4.8-12.1,12.7-12.1h5.9
		c5.9,0,9.8,3.7,11.5,8.7l-7.3,2.3c-0.9-2-2.8-3.4-4.8-3.4h-4c-3.7,0-5.4,2.9-5.4,5.7v12.7c0,3.5,0.8,6,4.8,6h4.5
		c3.3,0,4.7-2.3,5-5.2H569.2z"/>
	<path style="&st3;" d="M601.5,1137.1l-19.6-14.3v14.3H574v-38.7h7.9v10.8l18.9-10.7v8.7l-14.7,8.7l15.3,12V1137.1z"/>
	<path style="&st3;" d="M623.2,1124.5c3.8,2.5,8.5,4.6,14,4.6c3.8,0,7.5-0.9,7.9-3.6c0.4-3.4-4.8-5-6.9-5.4
		c-5.5-1.4-9.1-2.6-10.1-3.1c-3.3-1.9-5-4.5-5-7.9c0-7.2,7.7-10.8,14.4-10.8c4.7,0,9.2,1.2,12.9,3.8v7.5c-2.9-2.5-7.4-5-11.6-4.5
		c-3.5,0.4-5.7,1.3-5.7,4c0,2.6,5.6,4.4,7.6,4.9c7.2,2.1,12.5,3.7,12.3,11.8c-0.3,8-9,11.3-15.6,11.3c-4.7,0-10.2-1.5-14.3-4V1124.5
		z"/>
	<path style="&st3;" d="M666.8,1137.1h-9.4v-38.8h9.4v15.5h13.6v-15.5h7.2v38.8h-7.2v-17.5h-13.6V1137.1z"/>
	<path style="&st3;" d="M693.7,1137.1v-38.8h7.8v38.8H693.7z"/>
	<path style="&st3;" d="M723.4,1098.3c10,0,12.6,4.8,12.6,10c0,5.6-3.2,7.2-5,8.1c4.7,1.9,6.2,4.9,6,9.2
		c-0.3,7.8-6.2,11.6-15.6,11.6h-13.9v-38.8H723.4z M723.7,1114.1c4.2,0,7.4-1.8,7.4-5.7c0-3.5-2.8-5.2-7.6-5.2h-7v10.9H723.7z
		 M724.3,1130.7c4.8,0,7.1-3,7.1-6c0-4-3.1-5.9-6.7-5.9h-8.2v11.9H724.3z"/>
	<path style="&st3;" d="M739.3,1137.1l13.9-38.8h7.5l13.7,38.8h-7.1l-2.4-8h-14.4l-2.7,8H739.3z M762.6,1124.5l-4.8-16.5h-0.1
		l-5,16.5H762.6z"/>
</g>
</svg>
