<?xml version="1.0" encoding="utf-8"?>
<!-- Generator: Adobe Illustrator 28.6.0, SVG Export Plug-In . SVG Version: 9.03 Build 54939)  -->
<!DOCTYPE svg PUBLIC "-//W3C//DTD SVG 1.1//EN" "http://www.w3.org/Graphics/SVG/1.1/DTD/svg11.dtd" [
	<!ENTITY st0 "fill:#020203;">
	<!ENTITY st1 "fill:#E73B33;">
	<!ENTITY st2 "fill:#E5231E;">
	<!ENTITY st3 "fill:#FFFFFF;">
	<!ENTITY st4 "fill:#FFFFFF;stroke:#FFFFFF;stroke-width:10;stroke-miterlimit:10;">
	<!ENTITY st5 "fill:#FFFFFF;stroke:#FFFFFF;stroke-width:12.6265;stroke-miterlimit:10;">
	<!ENTITY st6 "fill:#BD271F;">
	<!ENTITY st7 "fill:none;">
	<!ENTITY st8 "fill:none;stroke:#FFFFFF;stroke-width:3.2659;stroke-miterlimit:10;">
	<!ENTITY st9 "fill:#1F090B;">
]>
<svg version="1.1" id="Capa_1" xmlns="http://www.w3.org/2000/svg" xmlns:xlink="http://www.w3.org/1999/xlink" x="0px" y="0px"
	 viewBox="0 0 841.9 1190.6" style="enable-background:new 0 0 841.9 1190.6;" xml:space="preserve">
<g>
	<rect x="25.8" y="22.3" style="&st2;" width="790.4" height="1146"/>
	<path style="&st3;" d="M816.1,22.3v1146H25.8V22.3H816.1 M841.9,0h-25.8H25.8H0v22.3v1146v22.3h25.8h790.4h25.8v-22.3V22.3V0
		L841.9,0z"/>
</g>
<g>
	<path style="&st4;" d="M128.4,971.5c2.8,1.9,5.1,2.9,6.8,2.9c1.7,0,4.3-1.4,7.8-4.3s5.3-5.1,5.3-6.7c0-1.6-1.3-3.5-3.8-5.9
		c-2.6-2.3-8.8-6-18.7-11c-9.9-5-19.1-10.3-27.6-16.1c-8.4-5.7-14-11.3-16.5-16.9c-2.6-5.5-3.8-11.3-3.8-17.5c0-6.1,1-11.5,2.9-15.9
		c2-4.5,7.4-11,16.4-19.7c8.9-8.7,17-15.1,24.3-19.1v-25.1H148v26.1c17.5,8.5,30.3,20.1,38.3,35L153,902.1l-2.4-3.5
		c-8.6-11.9-15-17.8-19.2-17.8c-2.2,0-5,1.4-8.5,4.3c-3.5,2.9-5.3,5.2-5.3,7c0,1.8,1.2,3.8,3.7,5.9c2.5,2.1,8.5,5.8,18.3,11.1
		c9.7,5.3,19,10.9,27.7,16.7c8.7,5.8,14.4,11.1,16.9,15.9c2.6,4.8,3.8,11.9,3.8,21.3c0,9.4-1.4,16.2-4.3,20.2c-2.9,4-7.9,9-15,15
		c-7.2,5.9-14.1,10.8-20.8,14.6v26.1h-26.5v-26.4c-7.7-2.8-15.6-7.4-23.7-13.8c-8.2-6.5-14.2-13.4-18.1-20.8l33.3-24.8l2.4,3.5
		C121.2,964.6,125.6,969.6,128.4,971.5z"/>
	<path style="&st4;" d="M297.9,1021.9c-14,13.9-24.6,20.8-31.7,20.8s-17.6-6.9-31.7-20.8c-14-13.9-22.7-25.2-26.1-33.9
		c-2.2-5.5-3.2-19.4-3.2-41.7v-37.5c0-22.3,1.1-36.2,3.2-41.7c3.3-8.7,12-20,26.1-33.9c14-13.9,24.6-20.8,31.7-20.8
		s17.6,6.9,31.7,20.8c14,13.9,22.7,25.2,26.1,33.9c2.2,5.5,3.2,19.4,3.2,41.7v37.5c0,22.3-1.1,36.2-3.2,41.7
		C320.6,996.7,311.9,1008,297.9,1021.9z M256.3,990.7c3.8,4.3,7.1,6.5,9.9,6.5c2.7,0,6-2.2,9.9-6.5c3.8-4.3,6.5-8.5,8.1-12.4
		c1.6-3.9,2.4-14.6,2.4-32v-37.5c0-17.4-0.8-28-2.4-32c-1.6-3.9-4.3-8.1-8.1-12.4c-3.8-4.3-7.1-6.5-9.9-6.5c-2.8,0-6,2.2-9.9,6.5
		c-3.8,4.3-6.5,8.5-8.1,12.4c-1.6,3.9-2.4,14.6-2.4,32v37.5c0,17.4,0.8,28,2.4,32C249.8,982.2,252.5,986.4,256.3,990.7z"/>
	<path style="&st4;" d="M457.1,949.2c2.2,3.8,3.2,11.4,3.2,22.7c0,11.3-2.2,20.9-6.5,28.8c-3.9,6.2-12.3,14.7-25,25.6
		c-12.8,10.9-22.2,16.4-28.3,16.4c-10.8,0-23.2-6.1-37.1-18.3c-14-12.2-22.8-25.6-26.5-40.2l32.7-24.2c3.1,10,8.2,19.1,15,27.4
		c6.9,8.3,11.7,12.4,14.6,12.4c2.8,0,5.9-1,9.1-3c3.2-2,5.7-4.1,7.5-6.2c2.6-3.4,3.8-8.7,3.8-15.9c0-7.2-1.6-11.7-4.7-13.4
		c-3.9-3.6-11.5-8.4-22.8-14.3c-11.3-5.9-21.8-12.4-31.4-19.2c-9.6-6.9-15.8-13.6-18.4-20.2c-2.7-6.6-4-15.1-4-25.6
		s2.2-19.7,6.5-27.5c3.9-6.1,12.3-14.7,25-25.6c12.8-10.9,22.2-16.4,28.3-16.4c10.8,0,23.2,6.1,37.1,18.3
		c13.9,12.2,22.8,25.6,26.5,40.2l-32.7,24.5c-3.1-10-8.2-19.1-15-27.5c-6.9-8.4-11.7-12.6-14.6-12.6c-2.9,0-5.9,1-9.3,2.9
		c-3.3,1.9-6,4.3-8.1,7.2c-2.1,2.9-3.1,7.7-3.1,14.6c0,6.9,2,11.5,5.9,13.8c3.1,3,10.3,7.6,21.5,14
		C435.1,924.8,452,938.6,457.1,949.2z"/>
	<path style="&st4;" d="M508.1,833.1c13.9-13.8,24.6-20.7,31.8-20.7c7.3,0,17.9,6.9,31.8,20.7c13.9,13.8,22.6,25.1,25.9,34
		c2.2,6.2,3.2,20,3.2,41.7v130.1h-40.7v-47.7h-40.7v47.7h-40.7V908.8c0-21.6,1.1-35.5,3.2-41.7C485.5,858.2,494.2,846.9,508.1,833.1
		z M519.6,908.8V953h40.7v-44.2c0-17.4-0.8-28-2.4-32c-1.6-3.9-4.3-8.1-8.1-12.4c-3.8-4.3-7.1-6.5-9.9-6.5c-2.8,0-6,2.2-9.9,6.5
		c-3.8,4.3-6.5,8.5-8.1,12.4C520.4,880.8,519.6,891.4,519.6,908.8z"/>
	<path style="&st4;" d="M673.4,880.5v18.5h8.8c3.3,0,6.8-2,10.5-5.9c3.6-3.9,6.4-7.6,8.3-11.1c1.9-3.5,3.8-13.6,5.7-30.2
		c2-16.6,2.9-28.5,2.9-35.5h40.7c0,8.3-1.1,21.2-3.2,38.8c-2.2,17.6-4.1,28.4-5.9,32.4c-2.9,7-10.4,16.4-22.4,28.3
		c13.9,12.9,23,23.9,27.1,32.8c2,4.5,4,17.9,6,40.2c2.1,22.4,3.1,39.1,3.1,50.1h-40.7c0-10-0.9-25.6-2.8-46.9
		c-1.9-21.3-3.7-33.7-5.5-37.1c-6.1-11.9-13.3-17.8-21.5-17.8h-11.2v101.8h-40.7V899.6c0-17.2-1.1-29.1-3.4-35.8
		c-2.3-6.7-7-14.9-14.3-24.7l35.4-26.7c6.3,4.5,11.7,12.7,16.2,24.7C671.2,849,673.4,863.5,673.4,880.5z"/>
</g>
<g>
	<path style="&st3;" d="M149.2,124c0,33.7-16.5,48.1-39.9,48.1S69.4,157.6,69.4,124s16.5-48.1,39.9-48.1S149.2,90.3,149.2,124z
		 M125.8,124c0-23.8-5.9-32.5-16.5-32.5s-16.5,8.7-16.5,32.5s5.9,32.5,16.5,32.5S125.8,147.8,125.8,124z"/>
	<path style="&st3;" d="M179.7,139.8c1.6,10.6,6.4,16.3,16.3,16.3c5.6,0,9.9-2.9,9.9-8.9c0-6.7-4.1-9.4-18.9-14.5
		c-17.1-6-25.8-14.3-25.8-28.6c0-17.7,12.5-28.2,31.5-28.2c19.2,0,31,9.6,33.7,27.5l-21.4,4.4c-0.8-11.3-5.3-17.2-13.2-17.2
		c-6.1,0-9.5,3.8-9.5,9.6c0,6.4,4.4,9.7,17.9,14.1c20,6.4,28.4,13.8,28.4,29.2c0,17.4-12.6,28.6-33.8,28.6
		c-22.1,0-34.6-10-37.1-29.6L179.7,139.8z"/>
	<path style="&st3;" d="M315.6,170.8h-22.2l-5.4-22h-28.7l-5.3,22h-20.6l23.9-93.8h34.3L315.6,170.8z M276.6,102.3
		c-1.1-4.2-2-8.5-2.6-12.9h-0.6c-0.7,4.3-1.7,8.7-2.8,12.9l-7.3,29.7h20.6L276.6,102.3z"/>
	<path style="&st3;" d="M348.2,102.3c0,5.3-0.4,10-0.8,15.3h0.5c3-5.2,6.5-10.6,10.1-15.3l20-25.2h27L369.8,116l35.3,54.8h-26.8
		l-23.1-38.9l-7,7.7v31.3h-21.9V77.1h21.9V102.3z"/>
	<path style="&st3;" d="M486.1,170.8h-22.2l-5.4-22h-28.7l-5.3,22h-20.6l23.9-93.8h34.3L486.1,170.8z M447.2,102.3
		c-1.1-4.2-2-8.5-2.6-12.9h-0.6c-0.7,4.3-1.7,8.7-2.8,12.9l-7.3,29.7h20.6L447.2,102.3z"/>
	<path style="&st3;" d="M517.6,159.2c0,6.6-5.6,12.9-12.7,12.9c-7.2,0-12.7-5.8-12.7-12.9c0-6.9,5.5-12.6,12.7-12.6
		C511.9,146.6,517.6,152.3,517.6,159.2z"/>
	<path style="&st3;" d="M579.4,104.1c-0.4,7.1-3.6,26.8-4.9,34l-5.9,32.7h-31.4l-18.6-93.8h22.8l9.3,48.1c2,10.7,3.1,18.1,3.6,26.6
		h1.2c0.8-8.3,2.2-15.4,4.4-26.6l10-48.1h21.3l10.5,48.1c2.4,10.7,3.7,19.4,4.3,26.6h1.2c0.4-7.3,1.4-15.9,3.2-26.6l8.2-48.1h22.6
		l-18.6,93.8h-30l-6.7-33.2c-1.3-6.6-4.8-26.3-5.2-33.5H579.4z"/>
	<path style="&st3;" d="M675.4,170.8h-22.2V77.1h22.2V170.8z"/>
	<path style="&st3;" d="M769.5,77.1v93.8h-31.2l-20-55.9c-2.3-6.2-4-12.7-5.4-19.2h-1.1c1.6,15.4,2.3,37,2.3,50.1v25h-19.5V77.1
		h31.3l20,55.9c2.3,6.2,4.1,12.7,5.5,19.2h1.1c-1.6-15.5-2.4-32-2.4-47.6V77.1H769.5z"/>
</g>
<g>
	<path style="&st3;" d="M98.5,1121.1c-2.3,9.4-7.4,13.9-15.9,13.9c-11.8,0-18-7.2-18-21.3c0-13.2,6.7-21.3,17.5-21.3
		c8.7,0,14.3,4.7,15.8,13.2l-9.9,2.2c-0.5-5.9-2.6-8.5-6.4-8.5c-4.3,0-6.8,5-6.8,14c0,8.6,2.8,14.8,7.1,14.8c3.7,0,5.5-2.3,6.4-8.2
		L98.5,1121.1z"/>
	<path style="&st3;" d="M137.7,1092.9v26.6c0,10.7-6.9,15.5-16.8,15.5c-9.8,0-16.8-4.7-16.8-15.5v-26.6h9.9v26.2
		c0,6.3,2.9,8.9,6.9,8.9s6.9-2.6,6.9-8.9v-26.2H137.7z"/>
	<path style="&st3;" d="M171.9,1127v7.5h-25.7v-41.6h9.9v34.1H171.9z"/>
	<path style="&st3;" d="M203.3,1100.6h-11.2v33.8h-9.6v-33.8h-11.2v-7.7h32V1100.6z"/>
	<path style="&st3;" d="M254.1,1113.7c0,14.9-7.3,21.3-17.7,21.3c-10.4,0-17.7-6.4-17.7-21.3c0-14.9,7.3-21.3,17.7-21.3
		C246.8,1092.4,254.1,1098.7,254.1,1113.7z M243.7,1113.7c0-10.6-2.6-14.4-7.3-14.4c-4.7,0-7.3,3.8-7.3,14.4
		c0,10.5,2.6,14.4,7.3,14.4C241.1,1128.1,243.7,1124.2,243.7,1113.7z"/>
	<path style="&st3;" d="M270,1100.1v10.9h13.9v6.9H270v16.6h-9.6v-41.6h25v7.2H270z"/>
	<path style="&st3;" d="M331.7,1100.6h-11.2v33.8h-9.6v-33.8h-11.2v-7.7h32V1100.6z"/>
	<path style="&st3;" d="M370.6,1092.9v41.6h-9.9v-17.3h-13.9v17.3H337v-41.6h9.9v16.5h13.9v-16.5H370.6z"/>
	<path style="&st3;" d="M404.6,1127.3v7.2h-25.5v-41.6h25v7.2h-15.4v9.9h13.9v6.9h-13.9v10.4H404.6z"/>
	<path style="&st3;" d="M442.5,1113c5.2,0.4,10,2.7,10,9.3c0,8.5-6.3,12.1-15.2,12.1h-14.7v-41.6h13.9c8.5,0,14.1,3,14.1,10.7
		c0,5.3-3.2,8.1-8.1,9.2V1113z M431.9,1099.8v10.3h3.5c3,0,5.5-1.5,5.5-5.2c0-3.6-2.4-5.1-5.5-5.1H431.9z M437.1,1127.3
		c3.6,0,5.9-1.3,5.9-5.2c0-3.4-2.3-5-5.9-5h-5.2v10.2H437.1z"/>
	<path style="&st3;" d="M484.1,1127v7.5h-25.7v-41.6h9.9v34.1H484.1z"/>
	<path style="&st3;" d="M522.1,1134.4h-9.9l-2.4-9.8h-12.7l-2.3,9.8h-9.1l10.6-41.6h15.2L522.1,1134.4z M504.8,1104.1
		c-0.5-1.9-0.9-3.8-1.2-5.7h-0.3c-0.3,1.9-0.7,3.8-1.2,5.7l-3.2,13.2h9.1L504.8,1104.1z"/>
	<path style="&st3;" d="M558.1,1121.1c-2.3,9.4-7.4,13.9-15.9,13.9c-11.8,0-18-7.2-18-21.3c0-13.2,6.7-21.3,17.5-21.3
		c8.7,0,14.3,4.7,15.8,13.2l-9.9,2.2c-0.5-5.9-2.6-8.5-6.4-8.5c-4.3,0-6.8,5-6.8,14c0,8.6,2.8,14.8,7.1,14.8c3.7,0,5.5-2.3,6.4-8.2
		L558.1,1121.1z"/>
	<path style="&st3;" d="M573.4,1104.1c0,2.3-0.2,4.4-0.4,6.8h0.2c1.3-2.3,2.9-4.7,4.5-6.8l8.8-11.2h12l-15.6,17.3l15.7,24.3h-11.9
		l-10.2-17.3l-3.1,3.4v13.9h-9.7v-41.6h9.7V1104.1z"/>
	<path style="&st3;" d="M622.7,1120.7c0.7,4.7,2.8,7.2,7.2,7.2c2.5,0,4.4-1.3,4.4-3.9c0-3-1.8-4.2-8.4-6.4
		c-7.6-2.7-11.5-6.3-11.5-12.7c0-7.8,5.5-12.5,14-12.5c8.5,0,13.7,4.3,14.9,12.2l-9.5,2c-0.4-5-2.3-7.6-5.9-7.6
		c-2.7,0-4.2,1.7-4.2,4.3c0,2.8,2,4.3,7.9,6.2c8.8,2.8,12.6,6.1,12.6,12.9c0,7.7-5.6,12.7-15,12.7c-9.8,0-15.3-4.4-16.5-13.1
		L622.7,1120.7z"/>
	<path style="&st3;" d="M683.7,1092.9v41.6h-9.9v-17.3H660v17.3h-9.9v-41.6h9.9v16.5h13.9v-16.5H683.7z"/>
	<path style="&st3;" d="M702.1,1134.4h-9.9v-41.6h9.9V1134.4z"/>
	<path style="&st3;" d="M730.5,1113c5.2,0.4,10,2.7,10,9.3c0,8.5-6.3,12.1-15.2,12.1h-14.7v-41.6h13.9c8.5,0,14.1,3,14.1,10.7
		c0,5.3-3.2,8.1-8.1,9.2V1113z M720,1099.8v10.3h3.5c3,0,5.5-1.5,5.5-5.2c0-3.6-2.4-5.1-5.5-5.1H720z M725.1,1127.3
		c3.6,0,5.9-1.3,5.9-5.2c0-3.4-2.3-5-5.9-5H720v10.2H725.1z"/>
	<path style="&st3;" d="M779.1,1134.4h-9.9l-2.4-9.8h-12.7l-2.3,9.8h-9.1l10.6-41.6h15.2L779.1,1134.4z M761.9,1104.1
		c-0.5-1.9-0.9-3.8-1.2-5.7h-0.3c-0.3,1.9-0.7,3.8-1.2,5.7l-3.2,13.2h9.1L761.9,1104.1z"/>
</g>
<g>
	<g>
		<g>
			<g>
				<g>
					<path style="&st5;" d="M227.8,256.3c0.8,0,1.7,0.1,2.6,0.1c0.9,0.1,1.8,0.1,2.7,0.2c1.1,0.1,2.1,0.2,3.2,0.4
						c0.8,0.1,1.7,0.2,2.6,0.4c1,0.2,2,0.5,3.1,0.8c0.8,0.2,1.6,0.4,2.5,0.7c1,0.3,2,0.7,3.1,1.1c0.8,0.2,1.6,0.5,2.3,0.8
						c1.1,0.4,2.1,0.9,3.1,1.4c0.7,0.3,1.4,0.6,2.1,1c1.1,0.5,2.2,1.1,3.2,1.7c0.6,0.4,1.3,0.7,1.9,1c1.2,0.7,2.4,1.4,3.6,2.1
						c0.4,0.3,0.9,0.6,1.4,0.8c1.6,1.1,3.2,2.2,4.9,3.2c2.9,2,5.6,4,8.4,6.2c8.2,6.4,16,13.4,24.3,19.6c0.5,0.4,1.3,0.7,2,1
						c0.2,0.1,0.5,0.1,0.8,0.1c0.5,0.1,1.1,0.2,1.7,0.2c0.1,0,0.3,0.1,0.4,0.1c0.3,0,0.5-0.1,0.8-0.1c0.2-0.1,0.4-0.1,0.6-0.1
						c0.6-0.1,1.2-0.3,1.6-0.5c20.5-12,42.6-19.5,65.9-23.1c7.4-1.1,14.8-1.9,22.2-2.8c7.4-0.1,14.8-0.1,22.2-0.2
						c22,1.1,43.7,4.8,64,13.4c13.5,5.6,26.2,12.9,39.2,19.8c0.6,0.3,1.1,0.6,1.7,0.8v0.1c0.2,0.1,0.5,0.2,0.7,0.3
						c0.3,0.1,0.6,0.3,0.9,0.4c0.2,0.1,0.4,0.2,0.7,0.2c0.2,0.1,0.5,0.2,0.8,0.2c0.2,0.1,0.4,0.1,0.7,0.1c0.2,0,0.5,0.1,0.8,0.1
						c0.3,0,0.5-0.1,0.8-0.1c0.2,0,0.4,0,0.6-0.1c0.3-0.1,0.7-0.2,1-0.4c0.2-0.1,0.4-0.1,0.5-0.2c0.4-0.2,0.7-0.5,1.1-0.8
						c0.2-0.1,0.4-0.2,0.5-0.4c0.5-0.4,1-0.8,1.4-1.4l0.4-0.4c15.3-16.8,31.2-32.9,53.2-41.9c3.5-1.4,7-2.6,10.5-3.5
						c2.2-0.6,4.4-1,6.6-1.3c0.2-0.1,0.5-0.1,0.8-0.1c2.1-0.3,4.2-0.4,6.3-0.4h1.3c0.8,0,1.6,0.1,2.5,0.1c0.6,0.1,1.1,0.1,1.7,0.1
						c0.8,0.1,1.7,0.2,2.6,0.4c0.5,0.1,1.1,0.2,1.6,0.2c1,0.2,1.9,0.4,2.8,0.7c0.5,0.1,1,0.2,1.4,0.3c1.4,0.4,2.8,0.8,4.2,1.4
						c4.7,1.7,8.6,4,11.7,6.8c9.5,8.3,12.7,20.5,13.3,33.9c0.8,20.4-3.5,40.5-8.7,60.1c-7.8,28.9-17,57.5-26.5,85.9
						c-2.9,8.9-1.5,16.8-0.9,25.6c1.3,17.8,5,35.6,1.4,54c-2.2,11-0.5,23.4,2,34.6c0.7,3.2,1.3,6.5,1.7,9.6c0.1,0.7,0.1,1.4,0.2,2.2
						c0.3,2.4,0.6,4.9,0.7,7.3v3c0.1,2.1,0.1,4.2,0.1,6.3c-0.1,1.2-0.2,2.3-0.2,3.5c-0.1,1.9-0.2,3.8-0.4,5.6
						c-0.1,0.7-0.2,1.3-0.3,2c-0.1,0.7-0.2,1.3-0.3,2c-0.2,1.7-0.5,3.4-0.8,5.1c-0.3,1.4-0.6,2.8-1,4.2c-0.4,1.6-0.7,3.2-1.2,4.8
						c-0.4,1.4-0.8,2.8-1.3,4.3c-0.5,1.6-1,3.2-1.6,4.7c-0.5,1.3-1,2.7-1.6,4c-0.2,0.5-0.4,0.9-0.5,1.4c-0.2,0.5-0.4,1-0.6,1.4
						c0,0-2,9.1-13.7,24.4c-0.2,0.2-0.3,0.4-0.4,0.6c-1.3,1.6-2.6,3.3-4.1,5v0.1c-0.3,0.6-0.7,1.1-1,1.4c-1.2,1.2-2.3,2.4-3.5,3.7
						c-0.5,0.6-1.1,1.2-1.7,1.9c-2.9,3.2-5.7,6.3-9,8.9c-4.4,3.5-8.9,6.9-13.4,10.2c0,0-0.1,0.1-0.1,0.1
						c-1.7,1.2-20.1,13.7-54.1,25.3c-19,6.5-42.9,12.7-71.6,16.5c-1.8,0.4-3.7,0.7-5.9,0.8c-1.4,0.1-6.6,1.3-8,1.3
						c-0.7,0-1.4,0-2.2,0.1c-8.5,1-17.1,1.5-25.5,1.5c-3.4,0-6.8-0.1-10.2-0.2c-8.4-0.4-16.7-1.1-24.7-2.1
						c-24-3.1-45.2-8.6-59.7-13.1c-1-0.3-2.1-0.7-3.1-1c-1.3-0.4-2.5-0.8-3.7-1.2c-2.2-0.8-4.1-1.4-5.7-2c-0.8-0.3-1.7-0.6-2.4-0.8
						c-2.9-1.1-4.8-1.9-5.3-2.1v-0.1c-14.4-5.8-28.1-13.5-40.8-23.5c-13.8-10.9-24.7-23.4-33.4-37.2c-2.9-4.7-5.6-9.6-8.1-14.7
						c-0.1-0.3-0.3-0.6-0.5-0.9c-21.8-39.2-8.9-78.5-8-81.2c0.1-0.1,0.1-0.2,0.1-0.2c0.4-2,1-4,1.5-6c0.5-2,1.2-4,1.9-5.9
						c0.2-0.5,0.2-1.1,0.4-1.7c0.4-1.7,0.6-3.5,0.6-5.3c-0.1-5.2-0.5-10.4-0.7-15.5c-0.1-7.5-0.2-15-0.2-22.5c-0.1-2-0.1-4-0.1-5.9
						c0-5.2,0.3-10.4,1-15.5c1-7.1,2.7-14,5-20.8c0.4-1.2,0.7-2.3,0.8-3.5c0.5-3.5,0.1-6.8-0.7-10c-0.5-2.2-1.3-4.3-1.9-6.5
						c-0.7-2.2-1.3-4.3-1.7-6.4c-5.4-27.6-11.5-55-18.1-82.3c-3.1-12.5-4.2-25-4.2-37.6c0-2.4,0.1-4.7,0.1-7.1
						c0.8-26.6,15.7-42.5,42.6-44.5c1-0.1,1.9-0.1,2.8-0.1L227.8,256.3 M227.8,250.3h-1.4c-1,0-1.9,0.1-2.9,0.1
						c-29.9,2.3-47.5,20.6-48.4,50.3c-0.1,2.5-0.1,4.8-0.1,7.2c0,14.3,1.4,27.1,4.4,39c7.1,29.3,12.9,56.1,18,82
						c0.5,2.3,1.1,4.5,1.7,6.6l0.1,0.4l0.5,1.7c0.5,1.5,1,3,1.3,4.5c0.8,3.2,1,5.4,0.6,7.6c-0.2,1-0.3,1.7-0.6,2.4
						c-2.5,7.3-4.2,14.7-5.3,22c-0.7,5.2-1.1,10.5-1.1,16.3c0,2,0,4.1,0.1,6.1c0.1,7.4,0.1,14.9,0.2,22.3c0.1,1.9,0.2,3.7,0.3,5.4
						c0.2,3.4,0.4,6.8,0.4,10.1c0,1.1-0.1,2.4-0.4,3.8c-0.1,0.4-0.2,0.7-0.2,1.1l-0.1,0.3c-0.7,2-1.4,4.1-1.9,6.2
						c-0.5,1.9-1.1,3.9-1.5,6c-1.7,5.2-13.8,45.7,8.5,85.9l0.2,0.4c2.6,5.4,5.4,10.5,8.4,15.4c9.4,15,20.8,27.7,34.7,38.8
						c12.3,9.8,26.3,17.8,41.5,24.1l0.4,0.2c0.7,0.4,1.9,0.8,5.6,2.2l0.1,0.1l0.4,0.1c0.7,0.2,1.5,0.5,2.3,0.8
						c1.8,0.6,3.7,1.2,5.7,2l0.2,0.1l0.2,0.1c0.7,0.2,1.3,0.4,2,0.7l1.6,0.5l1,0.3c0.7,0.2,1.4,0.5,2.2,0.7
						c20.4,6.3,40.8,10.8,60.7,13.3c8.3,1.1,16.8,1.8,25.2,2.2c3.5,0.1,7,0.2,10.4,0.2c9,0,17.8-0.5,26.2-1.5c0.2,0,0.6,0,1,0
						c0.2,0,0.4,0,0.5,0c1.4-0.1,2.8-0.3,5.1-0.8c1.3-0.2,2.5-0.5,3.2-0.5c2.3-0.2,4.4-0.5,6.5-0.9c25.5-3.4,49.8-9,72.6-16.8
						c30.7-10.5,48.7-21.5,54-25h0.7l1.5-1.4c4.7-3.4,9.2-6.8,13.3-10.2c3.5-2.8,6.6-6.2,9.7-9.6l1.6-1.7c0.5-0.5,1.2-1.2,1.8-1.9
						c0.5-0.5,1.1-1.1,1.6-1.7c0.7-0.7,1.3-1.5,1.8-2.3c1.4-1.6,2.6-3.2,3.8-4.7l0.4-0.5l0.1-0.2l0,0c10.7-14,13.8-23.3,14.6-26
						c0.2-0.5,0.4-0.9,0.5-1.4l0.2-0.5l0.3-0.8c0.5-1.3,1.1-2.7,1.6-4.1c0.6-1.7,1.1-3.4,1.7-5l0.5-1.6c0.3-1,0.6-1.9,0.8-2.9
						c0.5-1.7,0.9-3.5,1.3-5.1c0.4-1.3,0.7-2.8,1-4.3c0.4-2,0.7-3.7,0.9-5.5c0.1-0.2,0.1-0.6,0.2-1c0.1-0.2,0.1-0.5,0.1-0.7
						c0.1-0.4,0.1-0.8,0.2-1.3c0.1-0.2,0.1-0.5,0.1-0.7l0.1-0.2v-0.2c0.2-1.8,0.3-3.7,0.4-5.5v-0.1v-0.3c0-0.5,0.1-1.1,0.1-1.6
						c0.1-0.7,0.1-1.3,0.1-1.9c0.1-2.3,0-4.6-0.1-6.8v-2.8c-0.1-2.9-0.4-5.3-0.8-8v-0.3c-0.1-0.7-0.1-1.4-0.2-2.1
						c-0.4-2.9-1-6.4-1.8-9.9c-3-13.1-3.6-23.7-1.9-32.1c2.8-14.7,1.3-28.7-0.1-42.3c-0.5-4.4-1-8.9-1.3-13.3
						c-0.1-1.5-0.2-3.1-0.4-4.6c-0.6-6.8-1.1-12.6,1-18.7c9.1-27.4,18.6-56.8,26.6-86.2c5.1-19.3,9.8-40.1,8.9-61.9
						c-0.8-17.7-5.7-29.8-15.3-38.1c-3.7-3.2-8.2-5.9-13.5-7.8c-1.3-0.5-2.7-1-4.1-1.4l-0.5-0.1c-0.7-0.2-1-0.2-1.4-0.3l-0.4-0.1
						l-0.5-0.1c-0.9-0.2-1.8-0.4-2.7-0.6l-0.2-0.1h-0.2l-0.5-0.1c-0.4-0.1-0.8-0.1-1.1-0.2l-2.3-0.4l-0.4-0.1h-0.5
						c-0.4,0-0.7-0.1-1-0.1l-0.3-0.1h-0.5c-0.4,0-0.7,0-1,0c-0.5,0-1-0.1-1.4-0.1h-1.3c-2.5,0-4.9,0.2-7.1,0.5h-0.2l-0.2,0.1
						c-0.2,0-0.4,0.1-0.6,0.1c-2.6,0.4-4.9,0.8-7.2,1.4c-3.5,0.8-7.3,2.1-11.2,3.7c-23.4,9.6-40.2,26.6-55.3,43.4l-0.2,0.2l-0.1,0.1
						l-0.1,0.1c-0.2,0.2-0.4,0.4-0.5,0.6l-0.3,0.2l-0.1,0.1l-0.1,0.1l-0.4,0.2l-0.1,0.1l-0.1,0.1h-0.1l0,0h-0.1l-0.3-0.2l-0.6-0.1
						l-1-0.4c-0.2-0.1-0.5-0.2-0.8-0.4l-0.7-0.4c-2.7-1.4-5.5-2.9-8.3-4.4c-10.1-5.4-20.4-11-31.3-15.5c-18.9-8-40.5-12.5-65.9-13.8
						h-0.2h-0.2l-22.2,0.2h-0.4l-0.4,0.1c-2.6,0.4-5.3,0.7-8,1c-4.7,0.5-9.6,1.1-14.4,1.9c-24.4,3.8-47.2,11.8-67.7,23.7
						c-0.1,0-0.2,0-0.3,0.1c-0.2,0-0.4,0-0.5,0c-0.1,0-0.2-0.1-0.4-0.1c-0.2-0.1-0.5-0.1-0.7-0.1c-4.5-3.4-8.9-7.1-13.2-10.6
						c-3.5-2.9-7.2-6-10.9-8.9c-2.9-2.3-5.8-4.4-8.7-6.4l-3-2l-1.9-1.3l-0.3-0.2l-0.4-0.2c-0.2-0.1-0.4-0.2-0.6-0.4l-0.2-0.1
						l-0.2-0.1c-1.3-0.8-2.5-1.5-3.8-2.2c-0.2-0.1-0.6-0.4-1-0.5c-0.2-0.1-0.4-0.2-0.6-0.4c-1.3-0.7-2.4-1.3-3.6-1.9
						c-0.8-0.4-1.6-0.8-2.5-1.1c-0.9-0.4-2-1-3.2-1.4c-0.8-0.3-1.7-0.7-2.7-1l-0.7-0.2c-0.8-0.3-1.6-0.6-2.5-0.8
						c-0.5-0.1-0.9-0.2-1.3-0.4c-0.4-0.1-0.7-0.2-1.1-0.3c-1.3-0.4-2.4-0.6-3.5-0.9c-1-0.2-1.9-0.4-2.8-0.5l-0.4-0.1
						c-1.1-0.2-2.2-0.4-3.4-0.4c-0.7-0.1-1.4-0.1-2.1-0.2l-0.8-0.1C229.6,250.4,228.7,250.3,227.8,250.3L227.8,250.3z"/>
				</g>
				<g>
					<path style="&st6;" d="M300.6,719.2c-2-0.6-4-1.3-5.9-2l2-5.6c1.7,0.5,3.7,1.2,5.9,2L300.6,719.2z"/>
					<path style="&st3;" d="M295.8,714.3c1.7,0.5,3.6,1.2,5.7,2C299.6,715.7,297.6,715,295.8,714.3 M297.6,708.6l-4,11.3
						c1.7,0.7,3.8,1.4,6.1,2.1l3.8-11.4C301.3,709.9,299.4,709.2,297.6,708.6L297.6,708.6z"/>
				</g>
			</g>
		</g>
	</g>
	<g>
		<path style="&st6;" d="M409.4,645.3c-6.2-0.1-20,10.5-20,15.4c0,8,10.4,15.6,21.2,15.6c11.4,0,17.8-5.3,17.5-14.3
			C428,655.8,416.4,645.4,409.4,645.3z"/>
		<g>
			<path style="&st0;" d="M594.5,667.3c1.2-1.3,2.3-2.5,3.5-3.7c0.3-0.3,0.7-0.8,1-1.4C597.6,663.8,596.1,665.5,594.5,667.3z"/>
			<path style="&st0;" d="M295.8,714.3c1.9,0.7,3.8,1.4,5.7,2C299.4,715.5,297.5,714.9,295.8,714.3z"/>
			<path style="&st0;" d="M648.2,360.7c5.2-19.5,9.5-39.6,8.7-60.1c-0.6-13.4-3.8-25.6-13.3-33.9c-3.1-2.8-7-5-11.7-6.8
				c-1.4-0.5-2.8-1-4.2-1.4c-0.5-0.1-1-0.2-1.4-0.3c-1-0.2-1.9-0.5-2.8-0.7c-0.5-0.1-1.1-0.2-1.6-0.2c-0.9-0.1-1.7-0.2-2.6-0.4
				c-0.6,0-1.1-0.1-1.7-0.1c-0.8,0-1.6-0.1-2.5-0.1h-1.3c-2.1,0-4.2,0.1-6.3,0.4c-0.3,0.1-0.5,0.1-0.8,0.1c-2.2,0.3-4.4,0.7-6.6,1.3
				c-3.5,0.8-7,2-10.5,3.5c-22,9-37.9,25-53.2,41.9l-0.4,0.4c-0.5,0.5-1,1-1.4,1.4c-0.2,0.2-0.4,0.3-0.5,0.4
				c-0.4,0.3-0.7,0.6-1.1,0.8c-0.2,0.1-0.4,0.2-0.5,0.2c-0.3,0.2-0.7,0.3-1,0.4c-0.2,0.1-0.4,0.1-0.6,0.1c-0.3,0.1-0.5,0.1-0.8,0.1
				c-0.2,0-0.5-0.1-0.8-0.1c-0.2-0.1-0.4-0.1-0.7-0.1c-0.2-0.1-0.5-0.1-0.8-0.2c-0.2-0.1-0.5-0.1-0.7-0.2c-0.3-0.1-0.6-0.2-0.9-0.4
				c-0.2-0.1-0.5-0.2-0.7-0.3v-0.1c-0.5-0.2-1.1-0.5-1.7-0.8c-12.9-6.8-25.7-14.1-39.2-19.8c-20.3-8.6-41.9-12.2-64-13.4
				c-7.4,0.1-14.9,0.1-22.2,0.2c-7.4,1-14.9,1.7-22.2,2.8c-23.4,3.7-45.4,11.1-65.9,23.1c-0.4,0.2-1,0.4-1.6,0.5
				c-0.2,0-0.4,0-0.6,0.1c-0.2,0-0.5,0.1-0.8,0.1c-0.1,0-0.3-0.1-0.4-0.1c-0.6,0-1.1-0.1-1.7-0.2c-0.3-0.1-0.5-0.1-0.8-0.1
				c-0.8-0.2-1.5-0.5-2-1c-8.3-6.3-16.1-13.2-24.3-19.6c-2.8-2.2-5.5-4.2-8.4-6.2c-1.6-1.1-3.2-2.2-4.9-3.2c-0.5-0.2-1-0.5-1.4-0.8
				c-1.2-0.7-2.4-1.4-3.6-2.1c-0.6-0.4-1.3-0.7-1.9-1c-1.1-0.6-2.1-1.1-3.2-1.7c-0.7-0.4-1.4-0.7-2.1-1c-1-0.5-2-1-3.1-1.4
				c-0.7-0.3-1.5-0.6-2.3-0.8c-1-0.4-2-0.8-3.1-1.1c-0.8-0.2-1.7-0.4-2.5-0.7c-1.1-0.3-2.1-0.5-3.1-0.8c-0.8-0.2-1.7-0.3-2.6-0.4
				c-1.1-0.2-2.1-0.4-3.2-0.4c-0.9-0.1-1.8-0.1-2.7-0.2c-0.9-0.1-1.7-0.1-2.6-0.1h-1.4c-0.9,0-1.8,0.1-2.8,0.1
				c-26.9,2-41.8,17.9-42.6,44.5c-0.1,2.3-0.1,4.7-0.1,7.1c0,12.6,1.1,25.2,4.2,37.6c6.6,27.3,12.7,54.7,18.1,82.3
				c0.4,2.2,1.1,4.3,1.7,6.4c0.7,2.2,1.4,4.3,1.9,6.5c0.8,3.2,1.3,6.5,0.7,10c-0.2,1.1-0.4,2.3-0.8,3.5c-2.3,6.8-4,13.8-5,20.8
				c-0.7,5.1-1,10.3-1,15.5c0,2,0,4,0.1,5.9c0.1,7.5,0.1,15,0.2,22.5c0.2,5.1,0.7,10.4,0.7,15.5c0,1.8-0.2,3.6-0.6,5.3
				c-0.2,0.6-0.2,1.2-0.4,1.7c-0.7,2-1.3,4-1.9,5.9c-0.5,2-1.1,4-1.5,6c0,0,0,0.1-0.1,0.2c-0.9,2.7-13.8,42,8,81.2
				c0.2,0.3,0.4,0.6,0.5,0.9c2.5,5.1,5.1,10,8.1,14.7c8.7,13.9,19.6,26.3,33.4,37.2c12.8,10.1,26.5,17.7,40.8,23.5v0.1
				c0.5,0.2,2.3,1,5.3,2.1c0.7,0.2,1.6,0.5,2.4,0.8c1.7,0.5,3.6,1.2,5.7,2c1.2,0.4,2.4,0.8,3.7,1.2c1,0.3,2,0.7,3.1,1
				c14.6,4.5,35.7,10.1,59.7,13.1c8,1,16.2,1.7,24.7,2.1c11.7,0.5,23.7,0.2,35.7-1.3c0.8-0.1,1.5-0.1,2.2-0.1c1.4-0.1,6.6-1.3,8-1.3
				c2.2-0.2,4.1-0.5,5.9-0.8c28.7-3.8,52.6-10.1,71.6-16.5c34.1-11.7,52.5-24.1,54.1-25.3c0.1,0,0.1-0.1,0.1-0.1
				c4.6-3.3,9-6.7,13.4-10.2c3.3-2.6,6.2-5.7,9-8.9c0.6-0.7,1.1-1.3,1.7-1.9c1.6-1.7,3.1-3.5,4.5-5.1c1.5-1.7,2.9-3.4,4.1-5
				c0.1-0.2,0.2-0.4,0.4-0.6c11.7-15.3,13.7-24.4,13.7-24.4c0.2-0.5,0.4-1,0.6-1.4c0.2-0.5,0.4-0.9,0.5-1.4c0.5-1.3,1.1-2.7,1.6-4
				c0.5-1.6,1.1-3.2,1.6-4.7c0.4-1.4,0.9-2.8,1.3-4.3c0.5-1.6,0.8-3.2,1.2-4.8c0.4-1.4,0.7-2.8,1-4.2c0.3-1.7,0.6-3.4,0.8-5.1
				c0.1-0.7,0.2-1.3,0.3-2c0.1-0.7,0.2-1.3,0.3-2c0.2-1.8,0.3-3.7,0.4-5.6c0.1-1.2,0.2-2.3,0.2-3.5c0.1-2.1,0-4.2-0.1-6.3v-3
				c-0.1-2.5-0.4-4.9-0.7-7.3c-0.1-0.7-0.1-1.4-0.2-2.2c-0.4-3.2-1-6.4-1.7-9.6c-2.5-11.1-4.1-23.5-2-34.6c3.5-18.4-0.2-36.2-1.4-54
				c-0.6-8.8-2-16.7,0.9-25.6C631.2,418.2,640.4,389.6,648.2,360.7z M210.2,348.1c-0.6-2.9-1.1-5.8-1.6-8.7c-0.2-1-0.3-2-0.5-2.9
				c-4.6-30.4-0.9-42.9,0.5-46.3c0.4-0.8,0.5-1.1,0.5-1.1c4.5-8.6,11-11.2,21.1-9.7c1.9,0.2,3.8,0.6,5.9,1.1
				c14.3,3.5,25.8,12.5,36.9,21.9c3.7,3.1,7.6,5.8,10.8,9.3c2.4,2.5,2.9,5.6-0.8,8.1c-13.4,9-24.3,20.8-34.7,32.9
				c-2.8,3.1-3.8,3.7-5,0.5c-0.2-0.3-0.3-0.7-0.4-1.1c-1.3-4.2-2.8-8.3-4.1-12.5c-2-6-6-8.3-12.5-8.1c-6.5,0.3-9.1,3.2-8.1,9
				c1.4,8.4,3.6,16.6,5.3,24.9c1.7,8.3,3.5,16.5,5,24.9c0.4,2,0.4,4.3-0.4,6.1c-0.8,2-2.5,3.7-3.8,5.6c-1.3-1.8-3.4-3.5-3.8-5.5
				C217,380.3,213.4,364.2,210.2,348.1z M596.2,613.1c-4.4,19.8-15.9,36-30.4,49c-12,10.8-26.8,18.9-41.1,26.6
				c-5,2.7-10,5.1-15.2,7.4c-14.1,6.1-28.9,10.4-44.1,13.3c-19.6,3.7-39.6,5.7-59.3,8.4c-31.1-1.5-60.5-7.2-88.3-18
				c-16.9-6.6-33.2-15-48.9-25.5c-25.6-17.1-42.9-40.2-47.7-70.3c-3-18.8-3.7-38.9,8.1-56.4c1.5-2.2,1.3-5.9,1.2-8.9
				c-0.4-15.7-3.2-31.7-1.2-47.1c2.9-23.4,10.3-45.7,23.7-65.9c1-1.6,2.1-3.1,3.2-4.7c11.8-16.6,26.2-30.4,42.8-42.2
				c7.9-5.6,15.8-0.9,23.2,1.4c6.9,2.2,13.8,5.6,19.5,10c6.1,4.7,12.2,10.5,15.9,17.2c8.4,15.1,15.5,30.9,23.1,46.5
				c1.3,2.7,1.7,5.9,3.4,8.3c3.7,5.4,6.7,11.5,15.6,10.7c11.3-1,22.8,0.5,34.1-0.7c6.5-0.7,9.4-7.2,11.1-13.2
				c2-6.7,2.8-13.8,5.6-20.1c10.2-22.7,24.8-41.9,46.6-54.7c5.1-3,10.8-5.6,16.5-6.9c8.2-1.9,15.2,2.5,21.2,7.5
				c13.1,10.9,25.3,22.7,34.5,37.1c1,1.4,1.9,2.8,2.7,4.3c9.2,15.6,16.8,31.9,18.6,50.2c1.3,13.2,3.2,26.3,3.8,39.5
				c0.4,7.8-1.3,15.6-1.8,23.5c-0.2,3.7-0.6,7.6,0.1,11.3c1.7,8.1,3.8,16.2,6.2,24.1C602.9,588,598.9,600.5,596.2,613.1z
				 M618.7,379.6c-2.9,11.8-6.4,23.5-9.6,35.3c-0.2,0.8-1.7,1.3-2.6,2c-1.6-4.9-5.4-10.2-4.5-14.6c3.3-16.9,8.1-33.4,12.3-50.1
				c0.6-2.3,1.3-4.7,1.1-7c-0.1-0.4,1.2-6.3-2.1-8.9c-5.7-4.6-11.1-0.1-14.2,2.8c-4.1,3.9-5.8,10.4-8.4,15.8c-1,2.2-1.1,4.6-2.1,6.8
				c-1.9,4.6-3.7,3.8-6.8,0.4c-0.2-0.2-0.5-0.5-0.7-0.8c-10.3-11.4-20.8-22.8-31.9-33.5c-2.5-2.4-2.8-3.1-0.7-5.3
				c14-14.7,28.8-28.2,46.8-37.4c2.9-1.6,6-2.9,9.2-4.2c8.7-3.5,18.8-1,24.3,8.4c0.1,0.2,0.2,0.4,0.4,0.6c0.2,0.4,0.5,0.8,0.7,1.3
				c0.1,0.3,0.2,0.7,0.4,1c2.3,6.5,2.1,17.4,0.6,29.5C627.7,348.1,618.7,379.6,618.7,379.6z"/>
			<path style="&st3;" d="M598.8,574.8c-2.5-8-4.5-16-6.2-24.1c-0.7-3.7-0.4-7.5-0.1-11.3c0.5-7.9,2.2-15.7,1.8-23.5
				c-0.6-13.2-2.6-26.3-3.8-39.5c-1.7-18.4-9.4-34.7-18.6-50.2c-0.8-1.4-1.7-2.9-2.7-4.3c-9.2-14.4-21.4-26.2-34.5-37.1
				c-6-5-13-9.4-21.2-7.5c-5.7,1.3-11.4,3.9-16.5,6.9c-21.8,12.8-36.4,32-46.6,54.7c-2.8,6.3-3.7,13.4-5.6,20.1
				c-1.7,6-4.6,12.6-11.1,13.2c-11.3,1.1-22.8-0.4-34.1,0.7c-8.9,0.8-11.9-5.3-15.6-10.7c-1.7-2.3-2-5.6-3.4-8.3
				c-7.5-15.6-14.6-31.4-23.1-46.5c-3.7-6.6-9.8-12.5-15.9-17.2c-5.7-4.4-12.6-7.8-19.5-10c-7.4-2.3-15.3-7.1-23.2-1.4
				c-16.6,11.8-31,25.6-42.8,42.2c-1.1,1.6-2.2,3.1-3.2,4.7c-13.4,20.2-20.7,42.5-23.7,65.9c-2,15.4,0.8,31.4,1.2,47.1
				c0.1,3,0.3,6.6-1.2,8.9c-11.8,17.5-11.1,37.6-8.1,56.4c4.8,30.1,22,53.2,47.7,70.3c15.7,10.5,32,18.9,48.9,25.5
				c27.8,10.7,57.2,16.5,88.3,18c19.8-2.8,39.7-4.7,59.3-8.4c15.2-2.9,29.9-7.2,44.1-13.3c5.1-2.2,10.2-4.7,15.2-7.4
				c14.3-7.8,29-15.9,41.1-26.6c14.5-12.9,26-29.2,30.4-49C598.9,600.5,602.9,588,598.8,574.8z M480.5,460.1
				c6-15.7,26.3-20.1,38-8.1c3.1,3.1,5.6,6.8,8.3,10.2c0.6,0.8,0.9,1.8,2.2,4.3c-2.8-0.8-4.5-1-5.6-1.8c-8.1-6.1-17.1-8.9-27.1-6.3
				c-4.2,1-8,3.4-12,5.1c-1.1,0.4-2.3,0.4-3.5,0.5C480.6,462.6,480.1,461.1,480.5,460.1z M394.8,565.6c6.6-6,25.6-7.4,33.1-2.2
				c3,2.1,6.2,6.5,6,9.6c-0.2,2.7-4.7,6.1-8,7.3c-4,1.5-8.8,1-14.2,1.5c-3.9-0.4-8.9-0.1-13.4-1.4c-2.8-0.8-6.4-3.6-7-6.1
				C390.8,571.7,392.7,567.5,394.8,565.6z M298.2,459c5.9-8,12.2-15.4,23.5-15c5.9,0.1,19.9,10.9,20.9,16.5c0.2,1-2,3.4-3,3.4
				c-2.2-0.2-4.4-1.4-6.5-2.3c-10.5-4.5-20.6-5.9-30.2,2c-1.4,1.1-4,0.8-6.1,1.2C297.3,462.9,297.2,460.5,298.2,459z M322.4,511.3
				c-4.2-5.1-9.1-4.9-12.5,0.5c-4.9,8-8.9,16.5-12.4,25.2c-2.2,5.3,0,6.7,6.4,5.5c3-0.6,6.2-1.3,9.1-0.8c2.3,0.2,6.5,0.8,6.4,3.2
				c-0.2,2.3-4.1,2-6.3,2.5c-6.2,1.4-12.6,2.2-18.7,3.9c-4.1,1.2-8,3.5-11.7,5.6c-3.1,1.6-4.5,1.1-4.5-2.4
				c0.1-24.4,3.5-47.5,21.3-66.3c5.1-5.4,11.4-6.7,18.2-7.1c9.8-0.4,22.7,8.7,28.9,24c4.3,10.8,7.2,22.2,10.5,33.5
				c0.7,2.2,0.5,4.7,0.4,7.1c-0.3,5.1-3.5,6-7.2,3.8c-7.2-4.4-13.1-9.6-15.9-18.6C332.2,523.7,327.2,517.1,322.4,511.3z
				 M475.9,627.1c-7.9,2.9-15.9,5.7-24,7.4c-4.5,0.9-6.5,1.8-7,6.7c-1.3,10.8-5.1,20.9-11.1,29.9c-5.6,8.3-14,11.6-26.5,11.2
				c-10.5-0.1-22.2-8.7-26.8-22.2c-2.3-6.6-4.6-13.4-5.7-20.2c-0.8-4.6-2.5-5.7-6.6-5.3c-9,1.1-16.9-2.2-24.9-6.1
				c-4.1-2-4.9-4.6-4.1-8.1c0.4-1.6,2.2-3.5,3.8-4.1c1.1-0.3,3.4,1.3,4.3,2.6c3.6,5.4,9.1,6.7,14.9,7.4c17.1,2.1,31.5-3.4,43.4-15.6
				c3.8-3.8,5.3-6.3,11,0c11.4,12.8,26.1,20.7,44.4,13.8c3-1.1,5.6-3.2,8.4-5c1.7-1.1,4-3.6,4.9-3.2c2.3,1.1,4.8,3.2,5.6,5.5
				C480.2,623,477.7,626.4,475.9,627.1z M538.4,552.8c-1.2,1.9-5.3,4.1-6.3,3.4c-9.3-6-19.5-8.4-30.4-8.9c-1.9-0.1-3.8-1.2-5.6-1.9
				c-0.8-0.3-1.6-0.7-2.4-1.1c1-0.4,1.8-1.1,2.8-1.2c5.7-0.4,11.9-2,17.2-0.7c5.9,1.4,7.7-0.4,5.9-5c-3.3-8.8-7.1-17.4-11.7-25.6
				c-2.8-5-8.3-6-12-1.2c-5.1,6.6-10.1,13.7-13.1,21.4c-3.7,9.1-10.5,13.7-18.6,17.4c-0.7,0.3-3.5-1.8-3.4-2.6
				c2.1-19.4,7.1-38.2,19.2-53.6c15.3-19.3,34.9-14.6,45.8,5c8.1,14.6,11.9,30.8,12.9,46.2C538.7,548.1,539.6,551.1,538.4,552.8z"/>
			<path style="&st3;" d="M630.9,321.7c-3.2,26.4-12.3,58-12.3,58c-2.9,11.8-6.4,23.5-9.6,35.3c-0.2,0.8-1.7,1.3-2.6,2
				c-1.6-4.9-5.4-10.2-4.5-14.6c3.3-16.9,8.1-33.4,12.3-50.1c0.6-2.3,1.3-4.7,1.1-7c-0.1-0.4,1.2-6.3-2.1-8.9
				c-5.7-4.6-11.1-0.1-14.2,2.8c-4.1,3.9-5.8,10.4-8.4,15.8c-1,2.2-1.1,4.6-2.1,6.8c-1.9,4.6-3.7,3.8-6.8,0.4
				c-0.2-0.2-0.5-0.5-0.7-0.8c-10.3-11.4-20.8-22.8-31.9-33.5c-2.5-2.4-2.8-3.1-0.7-5.3c14-14.7,28.8-28.2,46.8-37.4
				c2.9-1.6,6-2.9,9.2-4.2c8.7-3.5,18.8-1,24.3,8.4c0.1,0.2,0.2,0.4,0.4,0.6c0.2,0.4,0.5,0.8,0.7,1.3c0.1,0.3,0.2,0.7,0.4,1
				C632.7,298.7,632.4,309.6,630.9,321.7z"/>
			<path style="&st3;" d="M283.3,319.7c-13.4,9-24.3,20.8-34.7,32.9c-2.8,3.1-3.8,3.7-5,0.5c-0.2-0.3-0.3-0.7-0.4-1.1
				c-1.3-4.2-2.8-8.3-4.1-12.5c-2-6-6-8.3-12.5-8.1c-6.5,0.3-9.1,3.2-8.1,9c1.4,8.4,3.6,16.6,5.3,24.9c1.7,8.3,3.5,16.5,5,24.9
				c0.4,2,0.4,4.3-0.4,6.1c-0.8,2-2.5,3.7-3.8,5.6c-1.3-1.8-3.4-3.5-3.8-5.5c-3.7-16-7.3-32-10.5-48.2c-0.6-2.9-1.1-5.8-1.6-8.7
				c-0.2-1-0.3-2-0.5-2.9c-4.6-30.4-0.9-42.9,0.5-46.3c0.4-0.8,0.5-1.1,0.5-1.1c4.5-8.6,11-11.2,21.1-9.7c1.9,0.2,3.8,0.6,5.9,1.1
				c14.3,3.5,25.8,12.5,36.9,21.9c3.7,3.1,7.6,5.8,10.8,9.3C286.5,314.1,287,317.1,283.3,319.7z"/>
			<path style="&st0;" d="M474.2,616.3c-0.9-0.4-3.1,2.1-4.9,3.2c-2.8,1.7-5.4,3.8-8.4,5c-18.3,6.9-33.1-1-44.4-13.8
				c-5.7-6.3-7.2-3.8-11,0c-11.9,12.3-26.3,17.7-43.4,15.6c-5.7-0.7-11.3-2-14.9-7.4c-0.9-1.3-3.2-2.9-4.3-2.6
				c-1.6,0.5-3.5,2.5-3.8,4.1c-0.8,3.5,0.1,6.1,4.1,8.1c7.9,3.9,15.8,7.2,24.9,6.1c4.1-0.5,5.8,0.7,6.6,5.3
				c1.1,6.9,3.5,13.6,5.7,20.2c4.7,13.5,16.3,22.1,26.8,22.2c12.5,0.4,20.9-2.9,26.5-11.2c6-9,9.8-19.1,11.1-29.9
				c0.5-4.9,2.5-5.8,7-6.7c8.1-1.6,16.1-4.5,24-7.4c1.8-0.7,4.3-4.1,3.9-5.3C479,619.5,476.5,617.4,474.2,616.3z M426.4,669.6
				c-0.2,0.4-0.5,0.8-0.8,1.1c-0.2,0.3-0.5,0.5-0.7,0.8c-0.3,0.4-0.7,0.7-1,1c-0.4,0.3-0.8,0.5-1.2,0.8c-2.9,1.8-6.9,2.8-11.8,2.8
				c-10.8,0.1-21.2-7.5-21.2-15.6c0-0.6,0.2-1.3,0.6-2.1c0.8-1.5,2.2-3.2,4.1-5c0.8-0.8,1.7-1.6,2.7-2.3c4.3-3.4,9.4-6.2,12.6-6.1
				c6.9,0.1,18.6,10.5,18.8,16.8C428.4,664.9,427.8,667.6,426.4,669.6z"/>
			<path style="&st0;" d="M357.5,545.6c-0.3,5.1-3.5,6-7.2,3.8c-7.2-4.4-13.1-9.6-15.9-18.6c-2.2-7.1-7.3-13.6-12.1-19.5
				c-4.2-5.1-9.1-4.9-12.5,0.5c-4.9,8-8.9,16.5-12.4,25.2c-2.2,5.3,0,6.7,6.4,5.5c3-0.6,6.2-1.3,9.1-0.8c2.3,0.2,6.5,0.8,6.4,3.2
				c-0.2,2.3-4.1,2-6.3,2.5c-6.2,1.4-12.6,2.2-18.7,3.9c-4.1,1.2-8,3.5-11.7,5.6c-3.1,1.6-4.5,1.1-4.5-2.4
				c0.1-24.4,3.5-47.5,21.3-66.3c5.1-5.4,11.4-6.7,18.2-7.1c9.8-0.4,22.7,8.7,28.9,24c4.3,10.8,7.2,22.2,10.5,33.5
				C357.8,540.7,357.6,543.2,357.5,545.6z"/>
			<path style="&st0;" d="M538.4,552.8c-1.2,1.9-5.3,4.1-6.3,3.4c-9.3-6-19.5-8.4-30.4-8.9c-1.9-0.1-3.8-1.2-5.6-1.9
				c-0.8-0.3-1.6-0.7-2.4-1.1c1-0.4,1.8-1.1,2.8-1.2c5.7-0.4,11.9-2,17.2-0.7c5.9,1.4,7.7-0.4,5.9-5c-3.3-8.8-7.1-17.4-11.7-25.6
				c-2.8-5-8.3-6-12-1.2c-5.1,6.6-10.1,13.7-13.1,21.4c-3.7,9.1-10.5,13.7-18.6,17.4c-0.7,0.3-3.5-1.8-3.4-2.6
				c2.1-19.4,7.1-38.2,19.2-53.6c15.3-19.3,34.9-14.6,45.8,5c8.1,14.6,11.9,30.8,12.9,46.2C538.7,548.1,539.6,551.1,538.4,552.8z"/>
			<path style="&st0;" d="M433.9,573c-0.2,2.7-4.7,6.1-8,7.3c-4,1.5-8.8,1-14.2,1.5c-3.9-0.4-8.9-0.1-13.4-1.4
				c-2.8-0.8-6.4-3.6-7-6.1c-0.6-2.6,1.3-6.7,3.5-8.7c6.6-6,25.6-7.4,33.1-2.2C430.9,565.4,434.2,569.9,433.9,573z"/>
			<path style="&st0;" d="M342.7,460.6c0.2,1-2,3.4-3,3.4c-2.2-0.2-4.4-1.4-6.5-2.3c-10.5-4.5-20.6-5.9-30.2,2
				c-1.4,1.1-4,0.8-6.1,1.2c0.5-2,0.3-4.3,1.4-5.8c5.9-8,12.2-15.4,23.5-15C327.7,444.1,341.6,455,342.7,460.6z"/>
			<path style="&st0;" d="M528.9,466.5c-2.8-0.8-4.5-1-5.6-1.8c-8.1-6.1-17.1-8.9-27.1-6.3c-4.2,1-8,3.4-12,5.1
				c-1.1,0.4-2.3,0.4-3.5,0.5c-0.1-1.3-0.6-2.8-0.2-3.8c6-15.7,26.3-20.1,38-8.1c3.1,3.1,5.6,6.8,8.3,10.2
				C527.3,462.9,527.6,463.9,528.9,466.5z"/>
		</g>
	</g>
</g>
</svg>
