<?xml version="1.0" encoding="UTF-8"?>
<svg id="Capa_1" data-name="Capa 1" xmlns="http://www.w3.org/2000/svg" viewBox="0 0 176.74 75.48">
  <defs>
    <style>
      .cls-1 {
        fill: #fff;
        stroke-width: 0px;
      }
    </style>
  </defs>
  <g>
    <path class="cls-1" d="M39.74,18.3c-1.13-2.93-3.92-6.57-8.53-11.13C26.5,2.51,22.97.25,20.42.25s-6.09,2.26-10.8,6.92C5.01,11.73,2.22,15.37,1.1,18.29c-.74,1.89-1.1,6.35-1.1,13.62v11.92c0,7.27.36,11.73,1.1,13.61,1.12,2.93,3.91,6.57,8.52,11.13,4.71,4.65,8.24,6.91,10.8,6.91,1.28,0,2.8-.56,4.58-1.71,1.8-1.15,3.86-2.87,6.21-5.2,4.61-4.56,7.4-8.2,8.52-11.13.74-1.89,1.1-6.34,1.1-13.61v-11.92c0-7.27-.36-11.72-1.09-13.61ZM15,31.91c0-6.69.37-9,.68-9.77.45-1.13,1.25-2.35,2.38-3.64,1.37-1.55,2.11-1.72,2.36-1.72s.99.17,2.35,1.72c1.13,1.28,1.94,2.51,2.39,3.64.31.77.68,3.09.68,9.77v11.92c0,6.68-.37,9-.68,9.77-.45,1.13-1.26,2.35-2.39,3.64-1.36,1.55-2.1,1.71-2.35,1.71-.12,0-.37-.04-.76-.27-.39-.24-.92-.66-1.6-1.44-1.13-1.29-1.93-2.51-2.38-3.65-.31-.76-.68-3.07-.68-9.76v-11.92Z"/>
    <path class="cls-1" d="M81.99,44.26c.77,1.39,1.15,3.91,1.15,7.7s-.74,7.01-2.19,9.65c-1.35,2.12-4.02,4.85-8.19,8.42-4.29,3.67-7.45,5.45-9.66,5.45-3.68,0-7.88-2.04-12.48-6.06-4.57-4-7.52-8.48-8.75-13.31l-.17-.68,12.13-8.96.43,1.39c.96,3.02,2.5,5.83,4.58,8.34,2.84,3.4,3.75,3.56,3.84,3.56.7,0,1.49-.27,2.35-.8.93-.58,1.65-1.17,2.14-1.75.63-.85.97-2.34.97-4.39,0-1.81-.34-2.99-.95-3.33l-.21-.14c-1.18-1.08-3.54-2.56-7.03-4.4-3.62-1.89-7.01-3.98-10.09-6.18-3.25-2.33-5.29-4.58-6.21-6.88-.89-2.2-1.34-5.07-1.34-8.52s.73-6.61,2.19-9.24c1.34-2.12,4.01-4.86,8.19-8.42,4.29-3.67,7.45-5.46,9.66-5.46,3.67,0,7.87,2.04,12.48,6.07,4.57,4,7.51,8.47,8.75,13.31l.17.67-12.12,9.08-.45-1.4c-.95-3.03-2.49-5.85-4.58-8.4-2.83-3.44-3.74-3.6-3.83-3.61-.72,0-1.53.26-2.43.78-.93.52-1.68,1.19-2.25,1.97-.36.5-.78,1.61-.78,4.04,0,1.81.44,2.96,1.36,3.5l.18.14c.93.88,3.16,2.33,6.63,4.3,9.37,5.54,14.77,9.97,16.51,13.56Z"/>
    <path class="cls-1" d="M126.69,18.31c-1.13-3-3.9-6.66-8.48-11.19-4.68-4.62-8.22-6.87-10.84-6.87-1.31,0-2.85.56-4.65,1.7-1.8,1.14-3.85,2.86-6.19,5.17-4.58,4.53-7.36,8.19-8.49,11.21-.73,2.08-1.09,6.52-1.09,13.58v42.36h15v-15.15h10.84v15.15h15V31.91c0-7.05-.36-11.5-1.1-13.6ZM101.95,31.91c0-6.69.37-9,.68-9.77.45-1.13,1.25-2.35,2.38-3.64,1.37-1.55,2.11-1.72,2.36-1.72s.99.17,2.35,1.72c1.14,1.28,1.94,2.51,2.39,3.64.31.77.68,3.09.68,9.77v13h-10.84v-13Z"/>
  </g>
  <path class="cls-1" d="M176.74,73.23v1.04h-15v-1.04c0-3.11-.3-8.1-.89-14.81-.76-8.66-1.34-10.85-1.61-11.38-1.74-3.39-3.73-5.1-5.91-5.1h-2.52v32.33h-15V28.98c0-5.32-.34-9.03-1.02-11.04-.68-2-2.15-4.54-4.39-7.54l-.62-.83,12.67-9.57.62.44c2.19,1.55,4,4.27,5.52,8.32,1.47,3.9,2.22,8.67,2.22,14.15v4.82h1.77c.75,0,1.61-.51,2.56-1.53,1.08-1.17,1.91-2.29,2.46-3.32.3-.56.92-2.5,1.71-9.23.62-5.23.93-8.98.93-11.14v-1.05h15v1.05c0,2.65-.35,6.84-1.04,12.45-.7,5.75-1.34,9.21-1.95,10.6-.93,2.2-3.08,5-6.57,8.55,4.12,3.91,6.76,7.18,8.06,9.99.68,1.55,1.34,5.84,2.01,13.12.66,7.1.99,12.49.99,16.01Z"/>
</svg>