<?xml version="1.0" encoding="UTF-8"?>
<svg id="Capa_1" data-name="Capa 1" xmlns="http://www.w3.org/2000/svg" viewBox="0 0 176.74 75.48">
  <defs>
    <style>
      .cls-1 {
        stroke-width: 0px;
      }
    </style>
  </defs>
  <path class="cls-1" d="M39.74,18.29c-1.13-2.92-3.92-6.56-8.53-11.12C26.5,2.51,22.97.25,20.42.25s-6.09,2.26-10.8,6.92C5.01,11.72,2.23,15.37,1.1,18.29c-.74,1.89-1.1,6.34-1.1,13.61v11.92c0,7.28.36,11.73,1.1,13.61,1.13,2.93,3.91,6.57,8.52,11.13,4.71,4.66,8.24,6.92,10.8,6.92,1.28,0,2.8-.56,4.58-1.71,1.8-1.15,3.86-2.88,6.21-5.21,4.61-4.56,7.4-8.2,8.52-11.12.74-1.89,1.1-6.35,1.1-13.62v-11.92c0-7.27-.36-11.72-1.09-13.61ZM20.42,58.95c-.12,0-.37-.04-.76-.28-.39-.23-.92-.67-1.6-1.44-1.13-1.29-1.93-2.51-2.38-3.64-.31-.77-.68-3.08-.68-9.77v-11.92c0-6.68.37-9,.68-9.77.45-1.12,1.25-2.35,2.38-3.63,1.37-1.56,2.11-1.72,2.36-1.72s.99.16,2.35,1.72c1.13,1.28,1.94,2.51,2.39,3.63.31.77.68,3.09.68,9.77v11.92c0,6.68-.37,9-.68,9.77-.45,1.13-1.26,2.36-2.39,3.64-1.36,1.55-2.1,1.72-2.35,1.72Z"/>
  <path class="cls-1" d="M81.99,44.25c.78,1.39,1.15,3.92,1.15,7.71s-.74,7-2.19,9.64c-1.35,2.12-4.02,4.86-8.19,8.42-4.29,3.67-7.45,5.46-9.66,5.46-3.68,0-7.88-2.04-12.48-6.07-4.57-3.99-7.52-8.47-8.75-13.31l-.17-.67,12.13-8.97.43,1.4c.96,3.02,2.5,5.82,4.58,8.33,2.84,3.41,3.75,3.56,3.84,3.57.7,0,1.49-.27,2.35-.81.93-.57,1.65-1.16,2.14-1.75.63-.85.97-2.34.97-4.38,0-1.82-.34-3-.95-3.33l-.21-.15c-1.18-1.08-3.54-2.56-7.03-4.39-3.62-1.9-7.01-3.98-10.09-6.19-3.25-2.33-5.29-4.58-6.21-6.87-.89-2.2-1.34-5.07-1.34-8.53s.73-6.6,2.19-9.24c1.35-2.11,4.01-4.85,8.19-8.42,4.29-3.67,7.45-5.45,9.66-5.45,3.67,0,7.87,2.04,12.48,6.06,4.57,4,7.51,8.48,8.75,13.31l.17.67-12.12,9.08-.45-1.4c-.95-3.02-2.49-5.84-4.58-8.39-2.83-3.44-3.74-3.61-3.83-3.61-.72,0-1.53.26-2.43.77-.93.53-1.68,1.19-2.25,1.98-.36.5-.78,1.6-.78,4.04,0,1.81.44,2.95,1.36,3.5l.18.14c.93.87,3.16,2.32,6.63,4.29,9.37,5.54,14.77,9.98,16.51,13.56Z"/>
  <path class="cls-1" d="M126.69,18.3c-1.13-3-3.9-6.66-8.48-11.19-4.68-4.62-8.22-6.86-10.84-6.86-1.31,0-2.85.56-4.65,1.7-1.8,1.13-3.85,2.85-6.19,5.16-4.58,4.53-7.36,8.19-8.49,11.21-.73,2.08-1.09,6.53-1.09,13.58v42.37h15v-15.16h10.84v15.16h15V31.9c0-7.05-.36-11.49-1.1-13.6ZM101.95,31.9c0-6.68.37-9,.68-9.77.45-1.12,1.25-2.35,2.39-3.63,1.36-1.56,2.1-1.72,2.35-1.72s.99.16,2.35,1.72c1.14,1.28,1.94,2.51,2.39,3.63.31.77.68,3.09.68,9.77v13h-10.84v-13Z"/>
  <path class="cls-1" d="M175.75,57.22c.66,7.1.99,12.48.99,16v1.05h-15v-1.05c0-3.11-.3-8.09-.89-14.81-.76-8.65-1.34-10.84-1.61-11.38-1.74-3.38-3.73-5.1-5.91-5.1h-2.52v32.34h-15V28.97c0-5.31-.34-9.03-1.02-11.03-.68-2.01-2.15-4.55-4.39-7.54l-.62-.83,12.67-9.57.62.44c2.19,1.55,4,4.27,5.52,8.31,1.47,3.91,2.22,8.67,2.22,14.16v4.82h1.77c.75,0,1.61-.52,2.56-1.54,1.08-1.17,1.91-2.29,2.46-3.32.3-.55.92-2.5,1.71-9.23.62-5.23.93-8.98.93-11.14v-1.04h15v1.04c0,2.66-.35,6.84-1.04,12.45-.7,5.75-1.34,9.22-1.95,10.6-.93,2.2-3.08,5.01-6.57,8.55,4.12,3.91,6.76,7.19,8.06,9.99.68,1.56,1.34,5.84,2.01,13.13Z"/>
</svg>