<?xml version="1.0" encoding="UTF-8"?>
<svg id="Capa_1" data-name="Capa 1" xmlns="http://www.w3.org/2000/svg" viewBox="0 0 113.63 113.63">
  <defs>
    <style>
      .cls-1 {
        fill: #fdfeff;
        stroke-width: 0px;
      }
    </style>
  </defs>
  <path class="cls-1" d="M56.81,3.72c29.32,0,53.09,23.77,53.09,53.09s-23.77,53.09-53.09,53.09S3.73,86.13,3.73,56.81,27.49,3.72,56.81,3.72M56.81,0C25.49,0,0,25.49,0,56.81s25.49,56.81,56.81,56.81,56.81-25.49,56.81-56.81S88.14,0,56.81,0h0Z"/>
  <path class="cls-1" d="M36.43,98.21c.28.09.6.2.96.33-.32-.1-.65-.21-.96-.33"/>
  <g>
    <path class="cls-1" d="M86.31,90.34c.2-.21.39-.42.59-.62.05-.05.11-.13.16-.23-.23.27-.48.56-.75.85Z"/>
    <path class="cls-1" d="M36.43,98.2c.31.12.64.23.96.33-.36-.13-.68-.24-.96-.33Z"/>
    <path class="cls-1" d="M95.28,39.15c.87-3.26,1.59-6.62,1.45-10.03-.1-2.24-.63-4.28-2.22-5.66-.52-.46-1.17-.84-1.95-1.13-.23-.09-.47-.16-.7-.23-.08-.02-.16-.03-.24-.05-.16-.04-.31-.08-.47-.11-.09-.01-.18-.03-.27-.04-.15-.02-.29-.04-.43-.06-.1,0-.19-.01-.29-.02-.14,0-.27-.01-.41-.01h-.22c-.35,0-.7.02-1.05.07-.05.01-.09.01-.13.02-.37.05-.74.12-1.11.22-.58.14-1.17.34-1.75.58-3.67,1.5-6.33,4.18-8.88,6.99l-.06.06c-.08.09-.16.17-.24.23-.03.03-.06.05-.09.07-.06.05-.12.1-.18.13-.03.02-.06.03-.09.04-.05.03-.11.05-.16.07-.03,0-.07,0-.1,0-.05,0-.09.02-.14.02-.04,0-.09,0-.13,0-.04,0-.07,0-.11-.02-.04,0-.09-.02-.13-.04-.04,0-.08-.02-.11-.04-.05,0-.1-.04-.15-.06-.04-.02-.08-.03-.12-.05h0c-.09-.05-.18-.1-.28-.15-2.16-1.14-4.29-2.36-6.54-3.3-3.39-1.43-7-2.04-10.68-2.23-1.24,0-2.48.02-3.71.03-1.24.16-2.48.28-3.71.47-3.9.61-7.58,1.86-11.01,3.86-.07.04-.17.07-.27.09-.03,0-.07,0-.1,0-.04,0-.08,0-.13,0-.02,0-.05,0-.07,0-.1,0-.19-.02-.28-.04-.05,0-.09,0-.13-.02-.13-.04-.25-.09-.34-.16-1.39-1.05-2.69-2.21-4.06-3.28-.46-.36-.92-.7-1.4-1.03l-.81-.54c-.08-.04-.16-.09-.23-.14-.2-.12-.4-.24-.6-.35-.1-.06-.21-.11-.31-.17-.18-.1-.35-.19-.54-.28-.11-.06-.23-.11-.35-.16-.17-.08-.34-.16-.52-.23-.12-.05-.25-.1-.38-.14-.17-.06-.34-.13-.51-.18-.14-.04-.28-.07-.41-.11-.18-.05-.35-.09-.52-.13-.14-.03-.29-.05-.43-.07-.18-.03-.35-.06-.53-.07-.15-.02-.3-.02-.45-.03s-.29-.02-.43-.02h-.23c-.15,0-.3.01-.46.02-4.49.34-6.98,2.99-7.12,7.43-.01.39-.02.78-.02,1.18,0,2.11.19,4.2.7,6.28,1.1,4.56,2.12,9.14,3.02,13.75.07.36.18.71.29,1.07s.23.72.32,1.08c.13.54.21,1.09.12,1.67-.03.19-.07.38-.14.58-.38,1.14-.66,2.3-.83,3.48-.12.86-.17,1.72-.17,2.59,0,.33,0,.66.02.99,0,1.25.02,2.5.04,3.75.04.86.11,1.73.12,2.59,0,.3-.04.6-.1.88-.03.1-.04.2-.07.29-.11.33-.22.66-.31.99s-.18.66-.25,1c0,0,0,.01,0,.03-.15.45-2.3,7.02,1.34,13.56.03.05.06.1.08.15.41.85.86,1.67,1.35,2.46,1.45,2.32,3.27,4.4,5.57,6.22,2.13,1.68,4.42,2.96,6.82,3.93h0c.08.05.39.17.88.36.12.04.26.09.4.14.28.09.6.2.96.33.2.06.4.13.62.2.16.05.34.11.51.16,2.43.75,5.96,1.68,9.97,2.19,1.33.17,2.71.29,4.12.35,1.95.08,3.96.03,5.96-.21.13-.01.25-.01.37-.01.24-.01,1.1-.21,1.34-.22.36-.03.68-.08.98-.14,4.79-.64,8.78-1.68,11.96-2.76,5.69-1.95,8.76-4.03,9.04-4.23.01,0,.02-.01.02-.01.76-.55,1.51-1.12,2.24-1.71.55-.44,1.03-.96,1.51-1.49.1-.11.19-.21.28-.31.27-.29.52-.58.75-.85.25-.29.48-.57.69-.84.02-.04.04-.07.07-.1,1.95-2.56,2.28-4.08,2.28-4.08.04-.08.07-.16.1-.24.03-.08.06-.15.09-.23.09-.22.18-.45.26-.67.09-.26.18-.53.26-.79.07-.24.15-.47.21-.71.08-.26.14-.53.2-.8.06-.23.11-.46.16-.7.05-.28.1-.56.14-.85.02-.11.03-.22.05-.33s.03-.22.05-.33c.03-.3.05-.62.07-.93.01-.2.03-.39.04-.59.01-.35,0-.7-.01-1.05v-.5c-.02-.41-.07-.82-.12-1.22-.01-.12-.01-.24-.03-.36-.07-.53-.17-1.07-.29-1.61-.42-1.86-.69-3.93-.33-5.77.59-3.07-.03-6.04-.24-9.02-.1-1.47-.34-2.79.15-4.27,1.58-4.75,3.12-9.52,4.42-14.35ZM22.14,37.04c-.1-.48-.18-.97-.26-1.46-.03-.17-.05-.33-.08-.49-.77-5.07-.15-7.16.09-7.73.06-.13.09-.18.09-.18.75-1.43,1.84-1.87,3.53-1.62.31.03.64.1.99.18,2.39.59,4.31,2.09,6.17,3.65.61.51,1.27.97,1.81,1.55.4.42.49.93-.14,1.36-2.24,1.51-4.05,3.48-5.8,5.49-.46.52-.64.62-.84.08-.03-.05-.05-.12-.07-.19-.21-.7-.46-1.39-.68-2.09-.34-1.01-1-1.39-2.09-1.35-1.09.05-1.52.53-1.36,1.51.24,1.4.6,2.77.89,4.16.29,1.38.58,2.76.83,4.15.06.33.06.71-.06,1.02-.13.34-.41.62-.63.93-.22-.3-.57-.58-.64-.92-.62-2.67-1.22-5.35-1.75-8.05ZM86.59,81.3c-.73,3.3-2.66,6.02-5.08,8.18-2.01,1.8-4.47,3.15-6.86,4.45-.83.45-1.67.86-2.53,1.23-2.36,1.02-4.83,1.74-7.36,2.22-3.28.62-5.26,1.25-9.91,1.41-5.19-.25-10.11-1.21-14.75-3-2.82-1.1-5.54-2.51-8.16-4.26-4.28-2.86-7.16-6.71-7.96-11.74-.5-3.14-.62-6.49,1.35-9.42.25-.37.22-.98.2-1.48-.07-2.63-.53-5.3-.2-7.87.49-3.9,1.72-7.63,3.95-11,.17-.26.35-.52.54-.78,1.97-2.78,4.38-5.08,7.15-7.05,1.32-.94,2.64-.15,3.87.24,1.15.37,2.3.93,3.25,1.67,1.02.79,2.03,1.76,2.65,2.87,1.41,2.52,2.59,5.16,3.85,7.76.22.45.28.99.56,1.38.62.91,1.12,1.92,2.61,1.79,1.89-.17,3.81.08,5.69-.11,1.09-.11,1.57-1.2,1.86-2.21.33-1.12.47-2.31.94-3.36,1.7-3.79,4.14-7,7.78-9.14.85-.5,1.8-.93,2.76-1.15,1.37-.32,2.54.42,3.54,1.25,2.18,1.82,4.22,3.79,5.76,6.19.16.23.31.47.45.71,1.53,2.6,2.81,5.32,3.1,8.39.21,2.2.54,4.39.64,6.59.07,1.3-.21,2.61-.3,3.93-.04.62-.1,1.27.02,1.88.29,1.35.63,2.7,1.04,4.03.68,2.2,0,4.3-.45,6.4ZM90.35,42.31c-.49,1.97-1.07,3.93-1.61,5.89-.04.14-.29.22-.44.33-.27-.81-.9-1.7-.75-2.43.55-2.82,1.36-5.58,2.06-8.37.1-.38.22-.79.19-1.17-.01-.07.2-1.05-.35-1.49-.95-.77-1.86-.02-2.37.46-.68.65-.97,1.73-1.4,2.64-.16.36-.19.77-.35,1.14-.31.77-.62.63-1.13.07-.04-.04-.08-.09-.12-.13-1.72-1.91-3.47-3.8-5.32-5.6-.41-.4-.47-.51-.12-.89,2.33-2.46,4.81-4.71,7.82-6.24.49-.26,1-.49,1.53-.7,1.46-.59,3.14-.16,4.06,1.4.02.03.04.07.06.1.04.07.08.14.12.22.02.05.04.11.07.17.39,1.08.35,2.91.1,4.92-.54,4.41-2.05,9.68-2.05,9.68Z"/>
    <path class="cls-1" d="M66.22,81.83c-.15-.07-.52.35-.81.53-.46.29-.9.64-1.4.83-3.06,1.16-5.52-.17-7.42-2.3-.95-1.06-1.2-.64-1.83,0-1.99,2.05-4.4,2.96-7.25,2.61-.96-.12-1.88-.34-2.48-1.24-.15-.22-.53-.48-.71-.43-.27.09-.58.41-.64.68-.13.58,0,1.02.69,1.35,1.32.65,2.64,1.2,4.15,1.02.68-.08.97.12,1.1.88.19,1.15.58,2.27.96,3.38.78,2.25,2.72,3.69,4.48,3.7,2.08.07,3.49-.48,4.42-1.87,1-1.5,1.64-3.19,1.85-4.99.09-.82.42-.97,1.17-1.12,1.36-.27,2.69-.75,4.01-1.23.3-.11.72-.68.65-.88-.14-.38-.55-.73-.94-.92ZM58.24,90.74c-.04.07-.09.13-.14.19-.04.05-.08.09-.12.13-.05.06-.11.11-.17.16-.07.05-.13.09-.2.14-.49.3-1.15.46-1.97.46-1.81.01-3.54-1.26-3.54-2.6,0-.1.04-.22.1-.35.13-.25.37-.54.68-.83.14-.13.29-.26.45-.38.71-.57,1.57-1.03,2.1-1.02,1.16.02,3.11,1.75,3.14,2.8.01.51-.1.95-.33,1.3Z"/>
    <path class="cls-1" d="M46.74,70.02c-.05.85-.58,1.01-1.2.63-1.21-.74-2.19-1.61-2.65-3.11-.37-1.18-1.22-2.27-2.02-3.25-.7-.86-1.52-.82-2.08.09-.81,1.33-1.49,2.75-2.07,4.2-.36.89,0,1.12,1.07.92.5-.1,1.03-.21,1.52-.14.38.04,1.09.14,1.07.54-.03.38-.68.33-1.05.41-1.04.24-2.11.36-3.13.65-.69.2-1.33.58-1.96.93-.51.27-.75.19-.75-.4,0-4.07.59-7.94,3.56-11.07.86-.9,1.9-1.12,3.04-1.19,1.64-.06,3.79,1.45,4.82,4.01.72,1.81,1.2,3.71,1.76,5.59.11.37.09.79.07,1.19Z"/>
    <path class="cls-1" d="M76.95,71.22c-.2.31-.88.68-1.06.57-1.56-1.01-3.26-1.41-5.08-1.48-.32-.01-.63-.2-.94-.32-.14-.05-.27-.12-.4-.18.16-.07.3-.19.46-.2.96-.07,1.98-.33,2.88-.12.99.23,1.28-.07.99-.84-.55-1.47-1.19-2.91-1.95-4.28-.46-.83-1.39-1.01-2.01-.2-.85,1.1-1.68,2.29-2.18,3.57-.61,1.52-1.76,2.29-3.11,2.9-.11.05-.58-.3-.57-.43.35-3.24,1.18-6.38,3.21-8.95,2.56-3.23,5.83-2.44,7.65.84,1.36,2.44,1.99,5.14,2.15,7.72,0,.62.15,1.12-.04,1.4Z"/>
    <path class="cls-1" d="M59.5,74.6c-.03.45-.79,1.02-1.34,1.22-.67.25-1.47.17-2.37.25-.65-.06-1.48-.02-2.23-.24-.47-.13-1.07-.6-1.17-1.02-.1-.43.22-1.12.58-1.45,1.11-1,4.28-1.23,5.53-.37.5.35,1.04,1.09,1,1.61Z"/>
    <path class="cls-1" d="M44.26,55.83c.03.16-.34.57-.5.56-.37-.03-.73-.24-1.08-.39-1.75-.75-3.44-.99-5.05.34-.24.19-.67.14-1.02.2.08-.33.05-.72.23-.97.98-1.34,2.04-2.58,3.93-2.5.99.01,3.32,1.82,3.49,2.76Z"/>
    <path class="cls-1" d="M75.36,56.81c-.46-.14-.75-.16-.94-.3-1.35-1.02-2.86-1.48-4.52-1.06-.7.17-1.33.57-2,.85-.18.07-.39.06-.59.08-.02-.21-.1-.46-.03-.64,1.01-2.63,4.39-3.36,6.34-1.36.52.52.93,1.13,1.38,1.71.1.13.15.3.36.72Z"/>
  </g>
</svg>