<?xml version="1.0" encoding="UTF-8"?>
<svg xmlns="http://www.w3.org/2000/svg" version="1.1" viewBox="0 0 595.5 1040.5">
  <defs>
    <style>
      .cls-1 {
        fill: #fff;
        stroke: #fff;
        stroke-linejoin: round;
        stroke-width: 28.6px;
      }

      .cls-2 {
        fill: #bd251e;
      }
    </style>
  </defs>
  <!-- Generator: Adobe Illustrator 28.6.0, SVG Export Plug-In . SVG Version: 1.2.0 Build 709)  -->
  <g>
    <g id="Capa_1">
      <g>
        <path class="cls-1" d="M581.2,313.1c0,.6,0,1.2,0,1.8,0,.3,0,.6,0,.9,0,.3,0,.7-.2,1.1-.1.4-.2.7-.3,1.1-.1.3-.2.6-.3.9-1.8,2.4-3.5,4.8-5.2,7.2-4.9,6.7-9.7,13.4-15.4,19.2-7.2,7.2-14.2,14.9-23.5,20.1-2.8,1.6-4.9,5.1-6.3,8.2-1.4,2.9-1.3,6.4-2.2,9.5-.7,2.6-1.6,5.1-2.4,7.6-.5,1.5-1.1,2.9-1.6,4.4-.4,1.1-.8,2.2-1.3,3.2-.6,1.5-1.3,2.9-1.9,4.3-.4,1-.9,2-1.4,3-.8,1.6-1.6,3.1-2.4,4.6-.2.3-.4.7-.6,1.1h0c0,0,0,0,0,.1,0,.2,0,.5,0,.7s0,.2,0,.3c0,.1,0,.2,0,.3,0,.2,0,.4,0,.5-7.8,13.1-17.8,24.7-29.8,35.1-4.2,3.7-8.6,7.3-13.1,10.6-4.5,3.3-9.1,6.4-13.9,9.2-9.7,5.6-19.9,9.9-31.3,12.4-1.5.4-3.3,2.2-3.9,3.8-6.4,19.6-12.7,39.2-19.1,58.8-2.8,8.4-5.1,17-8.9,24.9-6.5,13.6-1.5,25.9,3,38.3,5.3,14.6,11.8,28.8,14.8,44.2,3.1,16.2,4.2,32.4.4,48.5-2.7,11.3-6.9,22.1-9.4,33.3-.5,2.1-.4,4.5-.1,6.9.3,2.4.8,4.7,1.3,7.1,2.8,13.3,6.3,26.5,4.2,40.5-3.7,24.9-19,46.8-41.8,53.8-1.5.4-3.1.4-4.6.6-3,.2-5.9.3-8.9.5-3.4-.2-6.9-.4-10.3-.6,0,0,0,0,0,0h0c0,0,0,0,0,0,0,0-.1-.2-.2-.2h0s-.1,0-.1,0c0,0,0,0-.1,0s0,0,0,0c0,0,0,0,0,0h-.2c-2.4-2.8-4.7-5.5-7-8.2-9.1-10.5-12.3-23.5-14.9-36.6-.1-.6-.2-1.1-.4-1.6-.1-.4-.3-.9-.6-1.2-.1-.2-.3-.4-.4-.5-.2-.2-.4-.3-.5-.4,0,0,0,0,0,0-.2-.2-.3-.2-.5-.3h0c0-.1-.2-.2-.4-.2-.2-.2-.4-.3-.7-.4-.6-.2-1.1-.4-1.6-.5-.1,0-.3,0-.4,0-.3,0-.5-.1-.8-.1s-.1,0-.2,0,0,0-.1,0c-.3,0-.6,0-.8.2,0,0-.1,0-.2,0-.2.1-.4.3-.6.7,0,0,0,.1-.1.2-.1.3-.2.5-.3.9,0,0,0,.2,0,.4,0,.4-.1.9-.2,1.5,0,1.8-.4,3.6-.2,5.4,1.3,10.3-1.9,19.9-3.8,29.9-2.1,10.9-3.3,21.9-3.9,33-.7,12.9,0,25.8-.3,38.7-.4,13.8,1.9,27.3,5.3,40.5,4.2,16.4,8.3,32.8,8.9,49.8.3,6.2-.8,12.7-2.4,18.8-2,7.5-9,10.3-15.4,12.4-6.9,2.2-14.3,3.5-21.5,3.6-2.4,0-4.9,0-7.3,0h-.6c-4.2,0-8.3-.2-12.5-.3-.9,0-1.8-.1-2.7-.2-4.3-.2-8.6-.5-12.8-1-6.4-.7-12.9-3.4-18.7-6.4-1.3-.7-2.4-1.5-3.4-2.4-.4-.5-.9-1-1.3-1.5-.4-.4-.6-.9-.9-1.5-.2-.3-.3-.6-.4-.9-.4-.6-.6-1.3-.8-2-.2-.7-.4-1.4-.5-2.2,0,0,0,0,0-.1,0,0,0,0,0-.1-.2-1.1-.3-2.2-.4-3.3,0-1.4,0-2.9,0-4.2,0-14.6,2.7-28.7,6.2-42.8,2.7-11.1,3.8-22.4,5.3-33.7.2-1.3.3-2.6.3-3.9,0-2.7-.4-5.3-1-7.9-.7-2.8-1.7-5.6-2.8-8.4-.4-.9-.8-1.8-1.2-2.7-1.3-2.9-2.2-6.1-3.3-9.1-2-5.6-4.2-11.1-6.2-16.7-4.2-11.1-8.5-22.3-12.5-33.5-2-5.5-4-11.2-5.9-16.8-.9-2.6-1.6-5.1-2.2-7.8-1.3-5.8-1.9-11.7-1.9-17.6s0-3.9.2-5.8c.6-10.4,3-20.8,6.2-30.9.9-2.9,1.3-5.6,1.4-8.1,0-.9,0-1.7-.1-2.5-.4-3.4-1.4-6.7-3.2-10.3-4.1-8.5-8-17.1-11.7-25.8-3.8-8.6-7.3-17.4-10.9-26.1-.6-1.4-1.1-2.9-1.5-4.4-.4-1.5-.9-3-1.2-4.6-.7-3.1-1.1-6.2-1.3-9.3-.8-10.2-1.6-20.4-1.6-30.6s.1-6.1.3-9.1c.2-3.1.8-6.2,1.6-9.3.6-2,1.3-4.1,1.9-6.2,1-3,2.1-6.1,3.1-9.1,2.7-8.9,5.9-17.7,8.6-26.6.3-.9.4-1.8.4-2.7v-.4c0-1.1-.1-2.1-.4-3.1-8-26.8-17.1-53.2-23.9-80.3-.4-1.6-.8-3-1.3-4.4-.2-.4-.2-.7-.4-1,0-.3-.2-.6-.4-.9-.1-.4-.3-.7-.5-1.1-.1-.4-.3-.7-.5-1.1-.1-.3-.3-.6-.5-.9,0,0,0,0,0,0-.2-.4-.4-.7-.6-1,0-.1-.1-.3-.2-.4t0,0c-.3-.5-.7-1-1.1-1.5,0,0,0-.1-.1-.2-.9-1-1.8-1.8-2.9-2.7-2-1.5-4.4-2.7-7.4-3.8-2.1-.7-4.2-1.6-6.3-2.5-.3-.1-.6-.3-.9-.4-.6-.3-1.2-.5-1.8-.8-.6-.3-1.2-.5-1.8-.9-.6-.3-1.2-.6-1.8-.9-.1,0-.2-.1-.3-.2-.2-.1-.4-.2-.6-.3-.8-.4-1.6-.9-2.4-1.3-.8-.4-1.6-.9-2.4-1.4,0,0,0,0-.1,0-.1,0-.2,0-.3-.2-.7-.4-1.4-.9-2.1-1.3-.7-.4-1.3-.9-2-1.3-.1-.1-.3-.2-.4-.3-1-.6-1.9-1.3-2.9-2-.4-.3-.7-.5-1.1-.8-.4-.3-.9-.7-1.3-1-.3-.2-.6-.4-.9-.7-.8-.6-1.6-1.3-2.4-1.9-.9-.7-1.6-1.3-2.4-2-.2-.1-.3-.2-.4-.3-.2-.1-.4-.3-.5-.4-.3-.3-.6-.5-.9-.8-1.2-1.1-2.4-2.2-3.5-3.3-1.6-1.5-3.3-3.1-4.9-4.7-.9-.9-1.8-1.9-2.7-2.9-.2-.2-.2-.2-.4-.3-.8-.8-1.5-1.7-2.3-2.5-7.8-8.8-14.3-18.4-19.5-28.5-1.3-2.5-2.5-5.1-3.6-7.8-3.4-7.9-6-16.2-8-24.8-.5-2.4-.4-4.9-.9-7.3-.2-.8-.3-1.6-.7-2.3-.6-1.6-1.4-3.3-2.4-4.9-.5-.7-1-1.5-1.6-2.1-.5-.6-1.2-1.2-1.9-1.6-4.4-2.9-8.3-6.3-11.9-10-3.6-3.7-6.9-7.7-10.3-11.5-1.3-1.6-2.6-3.1-3.9-4.8-3.7-4.9-7-10.1-10.3-15.4h0s0,0,0,0c0,0,0,0,0,0-.8-1.3-1.6-2.6-2.4-3.9-.2-.3-.4-.6-.6-.9-.5-.9-1-1.6-1.6-2.4,0,0,0,0,0,0,0-.1,0-.3-.1-.4,0-.1,0-.3,0-.4-.1-.5-.1-1-.2-1.5,0,0,0-.2,0-.4s0-.3,0-.4h0c0-.9,0-1.7,0-2.6.3-2.3,1.2-4.5,2.7-6.4,1.3-1.6,2.8-2.9,4.7-3.8.6-.2,1.3-.5,1.9-.7-.2-1.1-.2-2.2-.1-3.2.2-3.2,1.4-6.2,3.8-8.5,2.4-2.4,5.8-3.8,9.4-3.8s1.2,0,1.8,0c.1-3.4,1.2-6.7,3-9.3,1.8-2.7,4.4-4.7,7.5-5.7,1.4-.4,2.9-.6,4.3-.6s3.3.3,4.8.8h0c2.2.8,4.3,2.1,6.1,3.8,0,0,.1.1.2.2.2.2.4.4.6.5.4-.6.8-1.2,1.2-1.8,2.2-2.9,5.1-5,8.5-6,1.1-.3,2.3-.5,3.5-.6h.9c.7,0,1.4,0,2.1.1.7,0,1.4.3,2,.4,1.3.3,2.6.9,3.8,1.6,2.4,1.4,4.5,3.4,6,5.8.2.2.3.4.4.7,0,0,0,.1,0,.2,0,.1,0,.2.1.3,0,0,0,.1.1.2,0,0,0,0,0,.2t0,0c.1.3.2.6.3.9,0,.2,0,.5.1.7.2.9.4,1.8,1,2.7.1.2.3.4.5.6l.2.2c0,0,.2.1.2.2.1.1.2.2.3.3.1.1.2.2.3.3,1.3,1.7,2.6,3.4,3.9,5.2,1.3,1.8,2.7,3.5,4.1,5.1,1.1,1.3,2.8,2.3,4.4,2.8,4,1.2,8.1,2.2,12.3,3,1.2.2,2.4.4,3.7.4h.4c1,0,1.9-.2,2.8-.4h0c1.3-.4,2.7-.5,4.2-.5h0c1.1,0,2.3.2,3.4.4.2,0,.3,0,.5,0,1.1.2,2.2.6,3.3,1,.2,0,.3.1.4.2.7.3,1.3.6,2,.9-14.4-28.3-5.3-56.1-4.7-58,0,0,0-.1,0-.1.3-1.5.7-3,1.1-4.4.4-1.5.9-2.9,1.4-4.4.2-.4.2-.9.3-1.3.3-1.2.4-2.6.4-3.9,0-3.8-.4-7.7-.5-11.5,0-5.6-.1-11.1-.2-16.7,0-1.5,0-2.9,0-4.4,0-3.9.2-7.7.8-11.5.8-5.3,2-10.4,3.7-15.5.3-.9.5-1.7.6-2.6.4-2.6,0-5.1-.5-7.5-.4-1.6-.9-3.2-1.4-4.8-.5-1.6-1-3.2-1.3-4.8-4-20.6-8.6-41-13.5-61.4-2.3-9.3-3.1-18.6-3.1-28s0-3.5,0-5.3c.7-19.8,11.7-31.6,31.8-33.1.7,0,1.4,0,2,0h1c.6,0,1.3,0,1.9,0,.7,0,1.3,0,2,.1.8,0,1.6.2,2.4.3.6.1,1.3.2,1.9.3.8.2,1.5.4,2.3.6.6.2,1.2.3,1.8.5.8.2,1.5.5,2.3.8.6.2,1.2.4,1.7.6.8.3,1.5.7,2.3,1,.5.2,1.1.4,1.6.7.9.4,1.6.8,2.4,1.3.4.3.9.5,1.4.8.9.5,1.8,1,2.7,1.6.3.2.7.4,1,.6,1.2.8,2.4,1.6,3.6,2.4,2.1,1.5,4.2,3,6.2,4.6,6.1,4.8,11.9,10,18.1,14.6.4.3.9.5,1.5.7.2,0,.4,0,.6,0,.4,0,.8.2,1.3.2s.2,0,.3,0c.2,0,.4,0,.6,0,.1,0,.3,0,.4,0,.4,0,.9-.2,1.2-.4,15.3-8.9,31.7-14.5,49.1-17.2,5.5-.8,11-1.4,16.6-2.1,5.5,0,11,0,16.6-.1,16.4.9,32.5,3.6,47.6,10,10,4.2,19.5,9.6,29.2,14.7.4.2.9.4,1.3.6h0c.2.1.4.2.5.2.2.1.4.2.7.3.1,0,.3.1.5.2.2,0,.4.1.6.2s.3,0,.5,0c.2,0,.4,0,.6,0s.4,0,.6,0c.1,0,.3,0,.4,0,.2-.1.5-.2.7-.3.1,0,.3,0,.4-.2.3-.1.5-.4.8-.6.1-.1.3-.2.4-.3.4-.2.7-.6,1.1-1,.1-.1.2-.2.3-.3,11.4-12.5,23.3-24.5,39.6-31.2,2.6-1.1,5.2-2,7.8-2.6,1.6-.4,3.3-.8,4.9-1,.2,0,.4,0,.6,0,1.6-.2,3.1-.3,4.7-.3h1c.6,0,1.2,0,1.8,0,.4,0,.9,0,1.3,0,.6.1,1.3.2,1.9.3.4,0,.8.1,1.2.2.7.1,1.4.3,2.1.5.4,0,.7.1,1.1.2,1.1.3,2.1.6,3.1,1,3.5,1.3,6.4,3,8.7,5.1,7.1,6.2,9.5,15.3,9.9,25.3.6,15.2-2.6,30.2-6.5,44.8-5.8,21.5-12.6,42.8-19.8,63.9-2.2,6.6-1.1,12.5-.7,19.1.9,13.3,3.7,26.5,1.1,40.2-1.6,8.2-.4,17.5,1.5,25.7.5,2.4,1,4.8,1.3,7.2,0,.5,0,1.1.1,1.6.2,1.8.4,3.6.5,5.4v2.2c0,1.6,0,3.1,0,4.7,0,.9-.1,1.8-.2,2.7-.1,1.4-.2,2.8-.3,4.2,0,.5-.1,1-.2,1.5s-.1,1-.2,1.5c-.2,1.3-.4,2.5-.6,3.8-.2,1.1-.4,2.1-.7,3.1-.3,1.2-.5,2.4-.9,3.5-.3,1.1-.6,2.1-.9,3.2-.3,1.1-.7,2.4-1.1,3.5-.3,1-.7,2-1.1,3-.1.4-.3.7-.4,1-.1.4-.3.7-.4,1.1,0,0-.2.9-.8,2.4t0,0c1.1-.9,2.2-1.6,3.5-2.2h0s0,0,0,0c0,0,0,0,.1,0,.1-.1.3-.2.5-.3,4.6-2.2,9.9-2.9,14.5-1.4.6.2,1.3.3,1.9.4h.1c.1,0,.2,0,.3,0,.5,0,1,0,1.4,0h.5c.8,0,1.7,0,2.5-.2,4.2-.5,8.3-1.3,12.4-2.2.7-.2,1.3-.4,2-.7,1.1-.4,2-1.1,2.7-1.8.7-.8,1.5-1.6,2.2-2.4.7-.8,1.4-1.6,2.1-2.4.9-1.1,1.9-2.2,2.9-3.3.4-.5.9-1.1,1.4-1.6.2-.2.4-.4.5-.6h0c.2-.2.3-.3.4-.4.4-.3.7-.7.9-1.1.4-.7.7-1.4.9-2.1,0-.2,0-.5.2-.7.2-.7.5-1.2.9-1.8.1-.2.3-.4.5-.6h0c.4-.6.9-1.1,1.3-1.6.2-.2.4-.3.5-.5.3-.3.6-.6,1-.9.2-.2.4-.4.6-.5.3-.2.6-.5,1-.7.2-.2.5-.3.8-.4.3-.2.6-.4,1-.6.3-.2.5-.3.8-.4.4-.2.7-.3,1-.4.3-.2.6-.2.9-.3.4-.2.7-.2,1.1-.3.3,0,.6-.1.9-.2s.7-.1,1.1-.1c.3,0,.6,0,.9,0,.5,0,1.1,0,1.6,0,.3,0,.5,0,.9,0,2.4.3,4.7,1.1,6.6,2.4,2,1.2,3.6,2.9,5,4.9.2.3.4.6.6.9.1.1.2.3.3.4,0,.1.1.3.2.4l.2-.2c.1,0,.2-.2.3-.3.1,0,.2-.2.3-.2,1.9-1.6,4.1-2.8,6.4-3.4.7-.2,1.4-.3,2-.4.2,0,.4,0,.7,0,.3,0,.7,0,1.1,0h.9c1.5,0,2.9.4,4.3.9,6.1,2.4,9.8,8.7,9.6,15.6.3,0,.6,0,.9,0s.6,0,.9,0c3.6.2,6.8,1.8,9.1,4.4,2.9,3.3,3.8,7.7,2.8,12,2.5.9,4.7,2.6,6.2,4.9,1.3,2,2.1,4.2,2.3,6.6Z"/>
        <path class="cls-2" d="M295.8,303.8c-4.7,0-14.9,7.9-14.9,11.5,0,6,7.7,11.6,15.8,11.6,8.5,0,13.3-3.9,13.1-10.6,0-4.6-8.8-12.4-14-12.4Z"/>
        <g>
          <path class="cls-2" d="M265.1,477.3c-4.4-2-5.9-3-6.4-3.4l-.4-.3c-.4-.2-.7-.9-.7-2,0-2,.4-2.7.5-2.8.4-.6,1.1-1.1,1.8-1.6.8-.4,1.4-.7,1.7-.7,0,0,.9.3,3.2,2.7,2,2,3.4,4.3,4.3,6.9l1,2.8,2.4-1.8c3.4-2.6,6.9-5.2,10.3-7.8l1.3-.9-.4-1.5c-1.3-4.7-4.4-8.7-9.3-12.3-4.9-3.5-9.3-5.1-13.3-4.9-2.4.1-5.7,2-10.2,5.7-4.3,3.5-6.9,6.1-8.3,8.2-1.5,2.7-2.2,5.7-2.1,9.1,0,3.3.6,6.1,1.6,8.2,1.1,2.3,3.3,4.4,6.7,6.6,3.2,2,6.6,3.8,10.2,5.3,4.2,1.8,6,2.9,7.1,3.7,0,0,.3.4.3,1.8,0,2-.4,2.9-.6,3.2-.4.4-1,.9-1.8,1.4-.7.4-1.3.6-1.5.7,0,0-.9-.4-3.2-2.7-2-2.1-3.4-4.4-4.3-6.9l-1-2.8-2.4,1.7c-3.3,2.4-6.7,4.8-10,7.1l-1.1.8c.2-1.9.3-4.9.2-9.7l-.3-10.6c-.3-8.9-1-11.5-1.6-12.7-1.3-2.8-4.3-6.2-9.1-10.4-5.2-4.4-8.9-6.5-11.7-6.6-2.9,0-6.5,1.8-11.4,5.9-4.7,4-7.3,7.1-8.4,9.7-.5,1.3-1.1,3.8-.6,12.5l.5,10.5c.4,8.7,1.3,11.4,1.8,12.6,1.3,2.9,4.3,6.5,9,11,5,4.7,8.6,7.1,11.4,7.2.1,0,.2,0,.4,0,2.8,0,6.3-2,10.9-6.1,4.4-4,7.2-7.5,8.3-10.3.2-.5.4-1.1.6-2.4l.3,1.1c1.4,4.6,4.5,8.8,9.3,12.5,4.7,3.7,8.8,5.4,12.6,5.4h.4c2.4,0,5.6-1.9,10-5.6,4.1-3.5,6.7-6.2,8.2-8.3,1.5-2.7,2.3-5.9,2.3-9.5s-.4-6.3-1.3-7.6c-1.9-3.4-7.3-7.3-17.1-12ZM223.2,499.1c-.3.9-1,1.8-1.9,2.7-.8.8-1.3,1-1.3,1,0,0-.6-.2-1.7-1.3-1-1.1-1.8-2.1-2.2-3.1,0-.2-.6-1.6-.9-8.2l-.4-10.5c-.3-6.4.1-7.8.2-8,.4-.8,1-1.7,2-2.7.9-.9,1.4-1,1.4-1,0,0,.6.1,1.7,1.3,1.1,1.1,1.9,2,2.3,2.9,0,.2.6,1.6.9,8.2l.4,10.6c.2,6.5-.2,7.9-.2,8.1Z"/>
          <path class="cls-2" d="M327.8,463.1c-1.2-3-4-6.5-8.7-10.5-4.9-4.2-8.6-6.2-11.7-6-2.9.2-6.6,2.5-11.6,7.3-4.7,4.6-7.6,8.3-8.8,11.3-.5,1.3-1.1,4.2-1.1,12.9v37.8s0,2.3,0,2.3h2.3c4.2-.2,8.3-.4,12.4-.6h2.1c0,0,0-14,0-14,2.7-.1,5.4-.3,8.2-.4l-.2,14h2.4c4.2-.2,8.3-.3,12.5-.4h2.1s.9-40.7.9-40.7c.1-8.9-.4-11.7-.9-13.1ZM311.5,476.7v10.9c-2.9.1-5.7.3-8.4.4v-10.6c0-6.6.6-8.2.7-8.5.4-.9,1.1-2,2.2-3.2,1-1.1,1.6-1.4,1.6-1.4,0,0,.5.1,1.5,1.1,1,1,1.6,1.9,2,2.8,0,.2.5,1.6.4,8.4Z"/>
          <path class="cls-2" d="M367.9,479c3.4,3.7,5.7,6.9,6.9,9.6.4,1.1,1,3.6,1.5,13.1.4,6.8.4,12,.3,15.5v2.4c-.1,0-2.5-.3-2.5-.3-4.2-.5-8.3-.9-12.4-1.3l-2.1-.2v-2.1c.2-2.9.1-7.6-.2-14-.4-8.4-.9-10.1-1-10.4-1.4-2.9-2.9-4.3-4.6-4.4h-1.3s-1,30.4-1,30.4h-2.2c-4.2-.2-8.3-.4-12.4-.4h-2.3l1.1-43.7c.2-6-.3-8.6-.7-9.9-.6-1.7-2-4-4-6.5l-1.5-1.9,1.9-1.3c3.8-2.8,7.7-5.5,11.5-8.2l1.3-.9,1.3.9c2.4,1.6,4.3,4.4,5.8,8.4,1.4,3.8,2,8.5,1.9,13.9v3.3c0,0,.4,0,.4,0,.6,0,1.1-.4,1.8-1.1,1.1-1,1.9-1.9,2.4-2.8.1-.2.8-1.5,1.9-8.2.8-4.9,1.3-8.3,1.3-10.3v-2.2c0,0,2.3,0,2.3,0,4.4.2,8.7.5,13.1.9l2.1.2v2.1c-.2,2.6-.7,6.5-1.7,11.9-1.3,7.3-2,9.3-2.5,10.3-1,2-3,4.3-6.2,7.1Z"/>
        </g>
        <path d="M433.5,320.3c.9-.9,1.8-1.9,2.7-2.8.2-.2.5-.6.7-1-1,1.2-2.1,2.5-3.3,3.8Z"/>
        <path d="M211,355.4c1.4.5,2.9,1,4.3,1.5-1.6-.6-3-1.1-4.3-1.5Z"/>
        <path d="M473.5,91.9c3.9-14.5,7.1-29.5,6.5-44.8-.4-10-2.8-19.1-9.9-25.3-2.3-2-5.2-3.8-8.7-5.1-1-.4-2.1-.7-3.1-1-.4,0-.7-.1-1.1-.2-.7-.2-1.4-.4-2.1-.5-.4,0-.8-.1-1.2-.2-.7,0-1.3-.2-1.9-.3-.4,0-.9,0-1.3,0-.6,0-1.2,0-1.8,0h-1c-1.6,0-3.1,0-4.7.3-.2,0-.4,0-.6,0-1.6.2-3.3.5-4.9,1-2.6.6-5.2,1.5-7.8,2.6-16.4,6.7-28.2,18.6-39.6,31.2l-.3.3c-.4.4-.7.8-1.1,1-.1.1-.3.2-.4.3-.3.2-.5.4-.8.6-.1,0-.3.1-.4.2-.2.1-.5.2-.7.3-.1,0-.3,0-.4,0-.2,0-.4,0-.6,0s-.4,0-.6,0c-.2,0-.3,0-.5,0-.2,0-.4,0-.6-.2-.2,0-.4,0-.5-.2-.2,0-.4-.2-.7-.3-.2,0-.4-.1-.5-.2h0c-.4-.2-.8-.4-1.3-.7-9.6-5.1-19.1-10.5-29.2-14.7-15.1-6.4-31.2-9.1-47.6-10-5.5,0-11.1,0-16.6.1-5.5.7-11.1,1.3-16.6,2.1-17.4,2.7-33.8,8.3-49.1,17.2-.3.2-.8.3-1.2.4-.1,0-.3,0-.4,0-.2,0-.4,0-.6,0s-.2,0-.3,0c-.4,0-.9,0-1.3-.2-.2,0-.4,0-.6,0-.6-.2-1.1-.4-1.5-.7-6.2-4.7-12-9.9-18.1-14.6s-4.1-3.1-6.2-4.6c-1.2-.8-2.4-1.6-3.6-2.4-.4-.2-.7-.4-1-.6-.9-.5-1.8-1.1-2.7-1.6-.4-.3-.9-.5-1.4-.8-.8-.4-1.6-.9-2.4-1.3-.5-.3-1-.5-1.6-.7-.8-.4-1.5-.7-2.3-1-.5-.2-1.1-.4-1.7-.6-.8-.3-1.5-.6-2.3-.8-.6-.2-1.3-.3-1.8-.5-.8-.2-1.6-.4-2.3-.6-.6-.1-1.3-.2-1.9-.3-.8-.1-1.6-.3-2.4-.3-.7,0-1.3,0-2-.1s-1.3,0-1.9,0h-1c-.7,0-1.3,0-2,0-20,1.5-31.1,13.3-31.8,33.1,0,1.8,0,3.5,0,5.3,0,9.4.9,18.7,3.1,28,4.9,20.4,9.5,40.8,13.5,61.4.3,1.6.8,3.2,1.3,4.8.5,1.6,1,3.2,1.4,4.8.6,2.4.9,4.9.5,7.5-.1.9-.3,1.7-.6,2.6-1.7,5.1-2.9,10.3-3.7,15.5-.5,3.8-.8,7.7-.8,11.5s0,2.9,0,4.4c0,5.6,0,11.1.2,16.7.2,3.8.5,7.7.5,11.5,0,1.3-.2,2.7-.4,3.9-.1.4-.2.9-.3,1.3-.5,1.5-1,2.9-1.4,4.4-.4,1.5-.8,2.9-1.1,4.4,0,0,0,0,0,.1-.7,2-10.3,31.3,6,60.5.1.2.3.4.4.7,1.8,3.8,3.8,7.5,6,11,6.5,10.4,14.6,19.6,24.8,27.7,9.5,7.5,19.7,13.2,30.4,17.5h0c.4.2,1.8.7,3.9,1.6.5.2,1.1.4,1.8.6,1.3.4,2.7.9,4.3,1.5.9.3,1.8.6,2.8.9.7.2,1.5.5,2.3.7,10.9,3.3,26.6,7.5,44.5,9.7,5.9.8,12.1,1.3,18.4,1.6,8.7.4,17.7.1,26.6-.9.6,0,1.1,0,1.6,0,1.1,0,4.9-.9,6-1,1.6-.1,3-.4,4.4-.6,21.4-2.9,39.2-7.5,53.4-12.3,25.4-8.7,39.1-18,40.3-18.9,0,0,0,0,0,0,3.4-2.4,6.7-5,10-7.6,2.4-2,4.6-4.3,6.7-6.6.4-.5.9-.9,1.3-1.4,1.2-1.3,2.3-2.6,3.3-3.8,1.1-1.3,2.1-2.5,3.1-3.8,0-.2.2-.3.3-.4,8.7-11.4,10.2-18.2,10.2-18.2.2-.4.3-.7.4-1.1s.3-.7.4-1c.4-1,.8-2,1.1-3,.4-1.1.8-2.4,1.1-3.5.3-1.1.7-2.1.9-3.2.4-1.1.6-2.4.9-3.5.3-1,.5-2,.7-3.1.2-1.3.4-2.5.6-3.8,0-.5.1-1,.2-1.5s.1-1,.2-1.5c.1-1.3.2-2.8.3-4.2,0-.9.1-1.8.2-2.7,0-1.6,0-3.1,0-4.7v-2.2c0-1.8-.3-3.7-.5-5.4,0-.5,0-1.1-.1-1.6-.3-2.4-.8-4.8-1.3-7.2-1.9-8.3-3.1-17.5-1.5-25.7,2.7-13.7-.1-26.9-1.1-40.2-.4-6.6-1.5-12.4.7-19.1,7.2-21.1,14-42.4,19.8-63.9ZM147.2,82.5c-.4-2.1-.8-4.3-1.1-6.5-.1-.8-.2-1.5-.4-2.2-3.4-22.6-.7-31.9.4-34.5.3-.6.4-.8.4-.8,3.3-6.4,8.2-8.3,15.7-7.2,1.4.1,2.9.4,4.4.8,10.6,2.7,19.2,9.3,27.5,16.3,2.7,2.3,5.7,4.3,8.1,6.9,1.8,1.9,2.2,4.2-.6,6.1-10,6.7-18.1,15.5-25.9,24.5-2,2.3-2.9,2.8-3.8.4-.1-.2-.2-.5-.3-.9-.9-3.1-2-6.2-3-9.3-1.5-4.5-4.4-6.2-9.3-6-4.9.2-6.8,2.4-6.1,6.7,1.1,6.2,2.7,12.4,4,18.6,1.3,6.2,2.6,12.3,3.7,18.5.3,1.5.3,3.2-.3,4.6-.6,1.5-1.8,2.8-2.8,4.2-1-1.3-2.5-2.6-2.9-4.1-2.7-11.8-5.4-23.8-7.8-35.9ZM434.8,280c-3.3,14.7-11.9,26.8-22.6,36.5-9,8-19.9,14-30.6,19.9-3.7,2-7.5,3.8-11.3,5.5-10.5,4.6-21.5,7.8-32.8,9.9-14.6,2.8-29.5,4.2-44.2,6.3-23.2-1.1-45.1-5.4-65.8-13.4-12.6-4.9-24.7-11.2-36.4-19-19.1-12.8-31.9-29.9-35.5-52.4-2.2-14-2.8-29,6-42,1.1-1.6,1-4.4.9-6.6-.3-11.7-2.4-23.7-.9-35.1,2.2-17.4,7.7-34,17.6-49.1.8-1.1,1.6-2.3,2.4-3.5,8.8-12.4,19.5-22.6,31.9-31.5,5.9-4.2,11.8-.7,17.3,1.1,5.1,1.6,10.3,4.2,14.5,7.5,4.6,3.5,9.1,7.8,11.8,12.8,6.3,11.3,11.5,23,17.2,34.6,1,2,1.3,4.4,2.5,6.2,2.8,4.1,5,8.6,11.6,8,8.4-.8,17,.4,25.4-.5,4.9-.5,7-5.3,8.3-9.9,1.5-5,2.1-10.3,4.2-15,7.6-16.9,18.5-31.2,34.7-40.8,3.8-2.2,8-4.2,12.3-5.1,6.1-1.4,11.3,1.9,15.8,5.6,9.7,8.1,18.8,16.9,25.7,27.6.7,1,1.4,2.1,2,3.2,6.8,11.6,12.5,23.7,13.8,37.4.9,9.8,2.4,19.6,2.9,29.4.3,5.8-.9,11.6-1.3,17.5-.2,2.8-.4,5.7,0,8.4,1.3,6,2.8,12,4.7,18,3.1,9.7,0,19.1-2,28.5ZM451.5,106.1c-2.2,8.8-4.8,17.5-7.2,26.3-.2.6-1.3,1-2,1.5-1.2-3.6-4-7.6-3.3-10.9,2.4-12.6,6.1-24.9,9.2-37.3.4-1.7,1-3.5.9-5.2,0-.3.9-4.7-1.6-6.6-4.2-3.4-8.3,0-10.6,2-3,2.9-4.3,7.7-6.2,11.8-.7,1.6-.9,3.4-1.6,5.1-1.4,3.4-2.8,2.8-5.1.3-.2-.2-.4-.4-.5-.6-7.7-8.5-15.5-17-23.7-25-1.8-1.8-2.1-2.3-.5-4,10.4-11,21.5-21,34.9-27.8,2.2-1.1,4.4-2.2,6.8-3.1,6.5-2.7,14-.7,18.1,6.2,0,.1.2.3.3.4.2.3.4.6.5,1,0,.2.2.5.3.8,1.8,4.8,1.6,13,.4,21.9-2.4,19.6-9.2,43.1-9.2,43.1Z"/>
        <path d="M343.9,282.3c-.7-.3-2.3,1.6-3.6,2.4-2,1.3-4,2.9-6.2,3.7-13.7,5.2-24.6-.8-33.1-10.3-4.2-4.7-5.3-2.9-8.2,0-8.9,9.1-19.6,13.2-32.3,11.6-4.3-.5-8.4-1.5-11.1-5.5-.7-1-2.4-2.1-3.2-1.9-1.2.4-2.6,1.8-2.9,3-.6,2.6,0,4.6,3.1,6,5.9,2.9,11.8,5.3,18.5,4.6,3-.4,4.3.5,4.9,3.9.9,5.1,2.6,10.1,4.3,15.1,3.5,10,12.1,16.5,20,16.5,9.3.3,15.6-2.1,19.7-8.3,4.4-6.7,7.3-14.2,8.2-22.3.4-3.7,1.9-4.3,5.2-5,6.1-1.2,12-3.3,17.9-5.5,1.3-.5,3.2-3,2.9-3.9-.6-1.7-2.4-3.3-4.1-4.1ZM296.7,326.9c-8.1,0-15.8-5.6-15.8-11.6s10.2-11.5,14.8-11.5c5.2,0,13.9,7.8,14,12.5.2,6.7-4.6,10.6-13.1,10.6Z"/>
        <path d="M257,229.7c-.2,3.8-2.6,4.5-5.3,2.8-5.4-3.3-9.7-7.2-11.8-13.9-1.6-5.3-5.4-10.1-9-14.5-3.1-3.8-6.8-3.7-9.3.4-3.6,5.9-6.6,12.3-9.2,18.7-1.6,4,0,5,4.8,4.1,2.2-.4,4.6-.9,6.8-.6,1.7.2,4.9.7,4.8,2.4,0,1.7-3,1.5-4.7,1.8-4.7,1.1-9.4,1.6-14,2.9-3.1.9-5.9,2.6-8.7,4.2-2.3,1.2-3.3.9-3.3-1.8,0-18.2,2.7-35.4,15.9-49.4,3.8-4,8.5-5,13.5-5.3,7.3-.3,16.9,6.5,21.5,17.9,3.2,8.1,5.3,16.6,7.8,24.9.5,1.6.4,3.5.3,5.3Z"/>
        <path d="M391.7,235c-.9,1.4-3.9,3-4.7,2.5-7-4.5-14.5-6.3-22.6-6.6-1.4,0-2.8-.9-4.2-1.4-.6-.2-1.2-.5-1.8-.8.7-.3,1.3-.9,2-.9,4.3-.3,8.9-1.5,12.9-.5,4.4,1,5.7-.3,4.4-3.8-2.4-6.6-5.3-13-8.7-19.1-2-3.7-6.2-4.5-9-.9-3.8,4.9-7.5,10.2-9.7,15.9-2.7,6.8-7.8,10.2-13.9,12.9-.5.2-2.6-1.3-2.5-1.9,1.6-14.4,5.3-28.5,14.3-39.9,11.4-14.4,26-10.9,34.1,3.8,6.1,10.9,8.9,22.9,9.6,34.4,0,2.9.7,5.1-.2,6.3Z"/>
        <path d="M313.9,250.1c-.1,2-3.5,4.6-6,5.4-3,1.1-6.6.8-10.6,1.1-2.9-.3-6.6,0-10-1.1-2.1-.6-4.8-2.7-5.2-4.6-.4-1.9,1-5,2.6-6.5,4.9-4.4,19.1-5.5,24.7-1.6,2.3,1.6,4.7,4.9,4.5,7.2Z"/>
        <path d="M245.9,166.4c.1.7-1.5,2.5-2.2,2.5-1.6-.1-3.3-1.1-4.8-1.8-7.8-3.3-15.3-4.4-22.5,1.5-1.1.9-3,.6-4.6.9.4-1.5.2-3.2,1-4.3,4.4-6,9.1-11.5,17.5-11.1,4.4,0,14.8,8.1,15.6,12.3Z"/>
        <path d="M384.7,170.7c-2-.6-3.3-.7-4.2-1.3-6-4.6-12.8-6.6-20.2-4.7-3.1.8-5.9,2.5-8.9,3.8-.8.3-1.8.3-2.7.4,0-.9-.4-2-.1-2.9,4.5-11.7,19.6-15,28.3-6.1,2.3,2.3,4.2,5.1,6.2,7.6.4.6.7,1.3,1.6,3.2Z"/>
        <path d="M205.3,353.1h-.1.1Z"/>
        <path d="M578.9,306.4c-1.5-2.2-3.7-3.9-6.2-4.9,1-4.2,0-8.6-2.8-12-2.3-2.6-5.5-4.2-9.1-4.4-.3,0-.6,0-.9,0s-.6,0-.9,0c.2-6.9-3.5-13.2-9.6-15.6-1.4-.5-2.8-.9-4.3-.9h-.9c-.4,0-.8,0-1.1,0-.2,0-.4,0-.7,0-.7,0-1.4.2-2,.4-2.3.6-4.4,1.8-6.4,3.4,0,0-.2.1-.3.2-.1.1-.2.2-.3.3l-.2.2c0-.1-.2-.3-.2-.4,0-.1-.2-.3-.3-.4-.2-.3-.4-.7-.6-.9-1.3-2-3-3.7-5-4.9-2-1.3-4.2-2.1-6.6-2.4-.3,0-.6,0-.9,0-.5,0-1.1,0-1.6,0s-.6,0-.9,0c-.4,0-.8,0-1.1.1-.3,0-.6,0-.9.2-.4,0-.7.2-1.1.3-.3,0-.6.1-.9.3-.4.1-.7.3-1,.4-.3,0-.5.2-.8.4-.4.2-.7.4-1,.6-.3.1-.5.3-.8.4-.4.2-.7.5-1,.7-.2.2-.4.4-.6.5-.4.3-.7.6-1,.9-.2.2-.4.3-.5.5-.4.5-.9,1-1.3,1.6h0c-.2.2-.4.4-.5.7-.4.5-.6,1.1-.9,1.8,0,.2-.1.4-.2.7-.2.7-.4,1.4-.9,2.1-.2.4-.5.8-.9,1.1-.1.1-.3.2-.4.4h0c-.2.2-.4.4-.5.6-.5.5-1,1.1-1.4,1.6-1,1.1-1.9,2.2-2.9,3.3-.7.8-1.4,1.6-2.1,2.4-.7.8-1.5,1.6-2.2,2.4-.7.7-1.6,1.3-2.7,1.8-.6.3-1.3.5-2,.7-4.1,1-8.3,1.8-12.4,2.2-.9,0-1.7.1-2.5.2h-.5c-.4,0-.9,0-1.4,0,0,0-.2,0-.3,0h-.1c-.7-.1-1.3-.2-1.9-.4-4.6-1.6-10-.9-14.5,1.4-.2,0-.4.2-.5.3,0,0,0,0-.1,0,0,0,0,0,0,0h0c-1.3.7-2.4,1.4-3.5,2.3-.4.4-.9.7-1.3,1.1-.2.2-.4.4-.6.6,0,0,0,0,0,0,0,0,0,0,0,0-2.9,2.9-4.7,6.4-4.9,10.2-.3,6.2,2.1,12.5,8.6,14.6,2,.7,2.9,1.5,3,2.4.3,1.3-.6,2.7-.9,3.9-.8,2.9-1.9,5.7-3.5,8.2-.9,1.3-3,2.8-4.6,2.8-9,0-17.7,1-26.4,2.7,0,.2,0,.4,0,.6-2.4.3-4.8.5-7.3.9-2.7.4-5.2,1.4-7.8,2.4-.9.7-1.7,1.5-2.5,2.2-2.7.6-5.3,1.3-8.1,1.9-2.2,1.3-4.5,2.7-6.8,3.8-23.4,11.6-47,22-73.8,24.2-16.2,1.3-32.1,0-48.1-.8l-47.7-11.6c-22-9-43.9-23.9-68.6-25.5-1.6,0-3.5-1.6-4.4-3.1-1.4-2.5-2.4-5.5-3-8.4-.4-2.3-2.4-4.9,2.5-6.2,6.6-1.6,9.4-7.8,9.5-14,0-.5,0-.9,0-1.4-2.2-3.5-4.2-7.2-6-11h-.1c-.9-.9-2-1.7-3-2.4,0,0-.1,0-.2-.1-1-.6-2.1-1.1-3.2-1.6-.1,0-.3-.1-.4-.2-1.1-.4-2.2-.8-3.3-1-.2,0-.3,0-.5,0-1.1-.2-2.3-.4-3.4-.4h0c-1.4,0-2.8.2-4.2.5h0c-.9.2-1.8.3-2.8.4h-.4c-1.3,0-2.5-.2-3.7-.4-4.2-.8-8.2-1.8-12.3-3-1.6-.5-3.4-1.5-4.4-2.8-1.4-1.6-2.7-3.3-4.1-5.1-1.3-1.8-2.6-3.5-3.9-5.2,0-.1-.2-.2-.3-.3,0,0-.2-.2-.3-.3,0,0-.1-.1-.2-.2l-.2-.2c-.2-.2-.4-.4-.5-.6-.6-.9-.9-1.8-1-2.7,0-.2,0-.5-.1-.7,0-.3-.2-.6-.3-.9t0,0c0,0,0-.1,0-.2,0,0,0-.1-.1-.2s0-.2-.1-.3c0,0,0-.1,0-.2-.1-.2-.3-.4-.4-.7-1.6-2.4-3.7-4.4-6-5.8-1.2-.7-2.4-1.2-3.8-1.6-.7-.2-1.3-.4-2-.4-.7,0-1.4-.1-2.1-.1h-.9c-1.2,0-2.4.3-3.5.6-3.4,1-6.3,3.1-8.5,6-.4.6-.9,1.1-1.2,1.8-.2-.2-.4-.4-.6-.5,0,0,0-.1-.2-.2-1.8-1.7-3.9-3-6.1-3.8h0c-1.6-.6-3.2-.9-4.8-.9s-2.9.2-4.3.6c-3.1,1-5.7,3-7.5,5.7-1.8,2.6-2.9,5.8-3,9.3-.6,0-1.1,0-1.8,0-3.6,0-7,1.3-9.4,3.8-2.3,2.3-3.5,5.3-3.8,8.5,0,1.1,0,2.1.1,3.2-.6.2-1.3.4-1.9.7-1.8.9-3.4,2.1-4.7,3.8-1.5,1.9-2.4,4.1-2.7,6.4,0,.9-.1,1.6,0,2.5h0c0,.1,0,.2,0,.4s0,.3,0,.4c0,.5,0,1,.2,1.5,0,.1,0,.3,0,.4,0,.1,0,.3.1.4,0,0,0,0,0,0,.5.8,1.1,1.6,1.6,2.4.2.3.4.6.6.9.8,1.3,1.6,2.6,2.4,3.9,0,0,0,0,0,0h0c3.3,5.3,6.6,10.5,10.3,15.4,1.3,1.6,2.5,3.2,3.9,4.8,3.3,3.8,6.6,7.8,10.3,11.5,3.5,3.7,7.4,7.2,11.9,10,.7.4,1.3,1,1.9,1.6.6.7,1.1,1.4,1.6,2.1,1,1.6,1.8,3.3,2.4,4.9.3.8.5,1.5.7,2.3.4,2.4.4,4.9.9,7.3,1.9,8.6,4.6,16.9,8,24.8,1.1,2.7,2.3,5.3,3.6,7.8,5.2,10.2,11.6,19.7,19.5,28.5.8.9,1.5,1.7,2.3,2.5.1,0,.2.2.4.3.9.9,1.8,1.9,2.7,2.9,1.6,1.6,3.2,3.2,4.9,4.7,1.1,1.1,2.4,2.2,3.5,3.3.3.3.6.5.9.8.1.1.3.3.5.4,0,0,.2.2.4.3.8.7,1.6,1.4,2.4,2,.8.6,1.6,1.3,2.4,1.9.3.3.6.5.9.7.4.3.9.7,1.3,1,.4.3.8.5,1.1.8,1,.7,1.9,1.4,2.9,2,.1.1.3.2.4.3.7.4,1.3.9,2,1.3.7.4,1.4.9,2.1,1.3,0,0,.2.1.3.2,0,0,0,0,.1,0,.8.5,1.6.9,2.4,1.4s1.6.9,2.4,1.3c.2.1.4.2.6.3,0,0,.2,0,.3.2.6.3,1.1.6,1.8.9.6.3,1.1.6,1.8.9.6.3,1.1.5,1.8.8.3.1.6.3.9.4,2,.9,4.2,1.8,6.3,2.5,3,1.1,5.4,2.3,7.4,3.8,1.1.8,2.1,1.6,2.9,2.7,0,0,0,0,.1.2.4.4.8.9,1.1,1.5h0c0,.2.2.4.2.5.2.3.4.6.6,1,0,0,0,0,0,0,.2.3.4.6.5.9.2.4.4.7.5,1.1.2.4.4.7.5,1.1.1.3.3.6.4.9.1.3.2.6.4,1,.4,1.3.9,2.8,1.3,4.4,6.8,27,15.9,53.5,23.9,80.3.3.9.4,2,.4,3.1v.4c0,.9-.1,1.9-.4,2.7-2.7,8.9-5.8,17.7-8.6,26.6-.9,3-2,6.1-3.1,9.1-.7,2-1.3,4.1-1.9,6.2-.9,3.1-1.5,6.2-1.6,9.3-.2,3-.3,6.1-.3,9.1,0,10.2.9,20.4,1.6,30.6.2,3.1.7,6.2,1.3,9.3.4,1.6.8,3.1,1.2,4.6.4,1.5,1,3,1.6,4.4,3.5,8.7,7.1,17.5,10.9,26.1,3.8,8.7,7.6,17.3,11.7,25.8,1.8,3.6,2.8,6.9,3.2,10.3,0,.8.1,1.6.1,2.5,0,2.5-.5,5.2-1.4,8.1-3.2,10.2-5.6,20.6-6.2,30.9-.1,2-.2,3.9-.2,5.8,0,5.9.6,11.8,1.9,17.6.6,2.7,1.3,5.2,2.2,7.8,1.9,5.6,3.8,11.3,5.9,16.8,4,11.2,8.2,22.3,12.5,33.5,2.1,5.5,4.2,11.1,6.2,16.7,1.1,3,1.9,6.2,3.3,9.1.4.9.8,1.8,1.2,2.7,1.1,2.8,2.1,5.6,2.8,8.4.6,2.6,1,5.2,1,7.9s0,2.6-.3,3.9c-1.6,11.3-2.6,22.6-5.3,33.7-3.5,14.1-6.2,28.2-6.2,42.8s0,2.8,0,4.2c0,1.1.1,2.2.4,3.3,0,0,0,0,0,.1,0,0,0,0,0,.1.1.8.3,1.5.5,2.2.2.7.4,1.4.8,2,0,.3.2.6.4.9.3.5.5,1,.9,1.5.4.5.8,1,1.3,1.5.9,1,2,1.8,3.4,2.4,5.8,3,12.3,5.7,18.7,6.4,4.2.5,8.5.8,12.8,1,.9,0,1.8.1,2.7.2,4.2.2,8.3.3,12.5.3h.6c2.4,0,4.9,0,7.3,0,7.2-.2,14.6-1.4,21.5-3.6,6.4-2.1,13.4-4.9,15.4-12.4,1.6-6.1,2.7-12.5,2.4-18.8-.7-17-4.8-33.4-8.9-49.8-3.3-13.2-5.6-26.7-5.3-40.5.3-12.9-.4-25.8.3-38.7.5-11.1,1.8-22.1,3.9-33,1.9-10,5.1-19.6,3.8-29.9-.2-1.8.1-3.6.2-5.4,0-.6,0-1,.2-1.5,0-.1,0-.3,0-.4,0-.4.2-.6.3-.9,0,0,0-.2.1-.2.1-.3.3-.5.6-.7,0,0,.1,0,.2,0,.2,0,.4-.2.8-.2s0,0,.1,0,.1,0,.2,0c.3,0,.5,0,.8.1.1,0,.3,0,.4,0,.5.1,1,.3,1.6.5.3,0,.5.2.7.4.1,0,.3,0,.4.2h0c.2.1.4.2.5.4,0,0,0,0,0,0,.2.1.4.3.5.4.1.1.3.3.4.5.3.4.4.8.6,1.2.2.5.3,1,.4,1.6,2.7,13.1,5.8,26.1,14.9,36.6,2.4,2.7,4.7,5.4,7,8.2h.2s0,0,0,0t0,0s0,0,.1,0h.1c0,0,.2.2.2.2,0,0,0,0,0,0h0s0,0,0,.1c3.4.2,6.9.4,10.3.6,2.9-.2,5.9-.3,8.9-.5,1.5-.2,3.1-.1,4.6-.6,22.8-7,38.1-28.8,41.8-53.8,2-14-1.5-27.1-4.2-40.5-.5-2.3-1-4.7-1.3-7.1-.3-2.4-.4-4.7.1-6.9,2.6-11.3,6.8-22.1,9.4-33.3,3.8-16.1,2.7-32.3-.4-48.5-2.9-15.4-9.4-29.6-14.8-44.2-4.5-12.4-9.5-24.8-3-38.3,3.8-8,6.2-16.6,8.9-24.9,6.4-19.6,12.7-39.2,19.1-58.8.5-1.5,2.4-3.4,3.9-3.8,11.4-2.4,21.7-6.8,31.3-12.4,4.8-2.8,9.4-5.9,13.9-9.2,4.5-3.3,8.9-7,13.1-10.6,12-10.4,21.9-22.1,29.8-35.1,0-.2,0-.4,0-.5,0,0,0-.2,0-.3,0,0,0-.2,0-.3,0-.2,0-.4,0-.7,0,0,0,0,0,0h0c.2-.4.4-.8.6-1.1.8-1.5,1.6-3,2.4-4.6.5-1,.9-2,1.4-3,.7-1.4,1.3-2.8,1.9-4.3.4-1.1.9-2.1,1.3-3.2.6-1.5,1.1-2.9,1.6-4.4.9-2.5,1.7-5.1,2.4-7.6.9-3.1.8-6.6,2.2-9.5,1.5-3.1,3.5-6.6,6.3-8.2,9.2-5.2,16.3-12.9,23.5-20.1,5.8-5.8,10.6-12.5,15.4-19.2,1.8-2.4,3.4-4.8,5.2-7.2.1-.3.2-.6.3-.9.1-.4.2-.7.3-1.1,0-.4.1-.7.2-1.1,0-.3,0-.6,0-.9,0-.6,0-1.2,0-1.8-.2-2.4-1-4.7-2.3-6.6ZM133.2,297.9c6.5-.1,10.4,3.8,10.3,10.4,0,5.6-3.4,9.7-8.2,9.8-5.1.2-8.9-4.3-8.9-10.2,0-6.5,2.4-10,6.7-10ZM69.4,279.8c0-.7,0-1.3,0-2,.2-2,.9-3.9,1.8-5.4.5-.9,1.2-1.6,1.9-2.3l.4-.4c.2,0,.3-.2.4-.3,1.3-.9,2.7-1.5,4.2-1.6h.4c.8,0,1.6.1,2.3.4,0,0,0,0,.1,0h.1c0,0,.1,0,.2,0,.2,0,.4.2.5.2.2,0,.4.2.5.3.5.2.9.5,1.4.9h0c.2.2.4.4.6.6s.4.4.6.6c0,0,0,0,0,.1,0,0,0,0,0,0,.3.4.6.7.9,1.1,0,0,0,.1.1.2.1.2.3.5.4.7.1.2.2.3.3.5h0c0,.1,0,.2.1.4,0,.2.2.4.2.5,0,.1.1.3.2.5,0,0,0,.1,0,.2,0,.2.2.4.2.7,0,.2.1.5.2.7,0,0,0,.2,0,.2,0,.3,0,.5.1.8,0,.4,0,.9.1,1.3v.3c0,.9,0,1.8-.2,2.6,0,.3,0,.6-.2.9,0,0,0,.1,0,.2,0,.4-.2.8-.4,1.2,0,.3-.2.6-.3.9,0,.2-.1.4-.2.5,0,0,0,0,0,0q0,0,0,.1c-.4.9-1.1,1.8-1.7,2.4,0,0-.2.1-.2.2-.7.7-1.4,1.2-2.2,1.6,0,0,0,0-.2.1-.1,0-.2,0-.4.1-.1,0-.3.1-.5.2-.3.1-.5.2-.9.3h-.8c-.2.2-.4.2-.5.2h-.4c-.5,0-.9,0-1.4-.1-.2,0-.5,0-.7-.2-.2,0-.4,0-.5-.1,0,0,0,0-.2,0-.1,0-.3,0-.4-.2-.2,0-.4-.2-.5-.3-.3-.1-.6-.3-.9-.5,0,0,0,0,0,0-.2,0-.3-.2-.5-.4-.3-.2-.5-.4-.8-.7-.5-.5-.9-1-1.3-1.6,0,0,0,0,0,0h0s0,0,0,0c-.1-.2-.2-.3-.4-.5,0-.1-.1-.2-.2-.4-.2-.3-.4-.6-.5-1-.3-.6-.6-1.3-.8-2-.3-.9-.4-1.8-.4-2.8h0s.1,0,.1,0ZM45.8,279c0-.4,0-.7,0-1.1,0-.1,0-.3,0-.4,0-.2,0-.4.1-.5,0-.2,0-.4.1-.5,0,0,0-.1,0-.2.2-.5.4-1,.6-1.4,0-.2.2-.3.3-.5.2-.3.4-.5.5-.8.2-.3.4-.5.7-.8.2-.2.4-.4.6-.5l.2-.2c.5-.4,1.1-.7,1.8-.9.4-.1.7,0,1-.2.4,0,.7-.1,1-.1s.9,0,1.3.1c0,0,.1,0,.2,0,.4,0,.9.3,1.3.4.3.1.6.3.9.5,0,0,.2,0,.3.2,0,0,0,0,.1,0h0c.2.2.4.3.6.4.2.2.4.3.5.4.3.3.6.5.9.8.2.2.3.4.5.6.1.2.3.4.4.5.1.2.2.3.3.4.2.3.4.7.5,1,0,0,0,.1,0,.2.2.4.4.9.6,1.4,0,0,0,.2,0,.3h0c0,0,0,.1,0,.2.2.4.2.9.3,1.4.3,1.2.4,2.4.2,3.5,0,.5-.1.9-.3,1.4,0,0,0,.1,0,.2,0,.4-.3.9-.4,1.2-.3.6-.6,1.1-.9,1.6-.2.2-.4.4-.6.7-.2.2-.4.4-.7.6-.2.2-.4.3-.7.5-.4.3-.9.5-1.4.7-.7.2-1.3.3-2,.3s-1.6-.2-2.4-.4c-.3-.1-.6-.2-.9-.3-1.4-.7-2.6-1.8-3.6-3.2-.4-.5-.7-1.1-1-1.6-.4-.6-.6-1.2-.8-1.9-.1-.4-.2-.7-.3-1.1-.2-.8-.3-1.6-.3-2.4s0-.1,0-.2c.1,0,.2-.2.2-.4ZM34.7,312.5l-.5.5c-1.1,1-2.5,1.6-4.1,1.6s-3.5-.6-5.1-1.8c0,0-.1-.1-.2-.2-2.2-1.9-3.3-4.7-2.9-7,.2-.8.5-1.6,1-2.2.1-.2.3-.3.4-.4s.3-.2.4-.4c0,0,.1,0,.2-.1,0,0,.1,0,.2-.1.3-.2.6-.4.9-.5.4-.2.9-.4,1.3-.5.4,0,.8,0,1.1,0,1.7,0,3.5.6,5.1,1.8,1,.8,1.6,1.8,2.2,2.7.4.6.7,1.3.8,2,.1.6.2,1.1.1,1.8,0,1.1-.4,2.1-1.1,3ZM36.9,300c-.1,0-.3,0-.4-.1-1-.4-2-1.1-2.9-2s-1.1-1.3-1.5-2c-.4-.6-.6-1.2-.8-1.8,0,0,0-.1,0-.2,0-.2-.1-.4-.2-.6h0v-.2c0-.1,0-.3,0-.4,0,0,0,0,0-.1,0,0,0-.2,0-.3v-.2c0-.4,0-.9,0-1.3,0-.4.2-.8.3-1.1.3-.6.6-1.1,1.1-1.6h0c.1-.2.2-.2.4-.4,0,0,.1-.1.2-.1,0,0,.1,0,.2-.1h0c.9-.7,2-.9,3.1-.9h.3c.2,0,.4,0,.6,0h0c.2,0,.5,0,.8.1.2,0,.4.1.6.2.1,0,.2,0,.4.2.1,0,.2,0,.4.1,0,0,.1,0,.2,0,.5.2,1,.5,1.4.8.4.3.7.5,1.1.9,0,0,.1,0,.2.2h0c.4.4.8.8,1,1.3.6.9,1.1,1.8,1.3,2.8.1.5.2,1,.3,1.4v.7c0,.3,0,.7,0,1h0c0,.4-.1.7-.3,1h0c-.1.4-.3.7-.5.9h0c-.2.3-.4.6-.7.9,0,0-.2.1-.3.2-.7.6-1.5,1.1-2.4,1.2h0c-.3,0-.7,0-1.1,0s-1,0-1.6-.2c-.4-.1-.8-.3-1.2-.4ZM147.9,455c-.9-.3-1.8-.4-2.5-.8-.9-.6-1.8-1.1-2.7-1.6-4.9-3-9.8-5.8-14.4-9.2-11.5-8.5-21.8-18.2-29.9-30.1-8.5-12.4-11.6-26.5-14.9-40.6-1.6-6.8-3.4-12.3-9.5-17.1-9.6-7.7-17.6-17.3-26.4-26-2.5-2.4-1.9-4,0-6.4,4.7-5.8,10.6-6.6,17.2-4.9,2.7.7,5.2,1.7,7.8,2.4.8.2,1.6-.4,2.5-.5-.6-.6-1.1-1.7-1.8-1.8-4.9-1.1-10-1.8-14.7-3.3-6.7-2.1-10.7.7-14.3,5.8-.9,1.2-1.5,1.9-2,2h0c-.1,0-.2,0-.3-.1,0,0,0,0,0,0,0,0,0,0,0-.1,0,0,0-.1,0-.2,0,0,0-.2,0-.3,0,0,0,0,0-.1h0c0,0,0-.1,0-.2,0,0,0,0,0-.2,0,0,0-.1,0-.2,0-.2.1-.4.2-.6,0-.2.2-.4.4-.7.5-1,1.2-2.2,2-3.4.2-.3.4-.6.6-1,.2-.3.4-.6.6-.9l.7-.9c1-1.6,2.1-3,2.8-4,.4-.5.7-.9.9-1.2q0,0,0-.1s0,0,0,0c0,0,0,0,0,0,1.6-2.9,3.1-5.2,4.7-6.9.5-.5,1-1,1.6-1.5,2-1.8,4.4-2.5,7.3-2.5s5.1.5,8.6,1.4c3.9,1,8.2.8,12.3,1.1,0,0,0,0,0,0,0,0,.1,0,.2.1,0,0,0,0-.2,0,4.6,9.1,8.9,18.4,13.8,27.4.9,1.6,2.1,3,3.5,4.1,3.4,2.7,7.8,3.5,11.5,2.3s.7-.4,1.1-.5c-.4-.3-.7-.8-1.1-.9-8.6-2.2-12.3-8.9-15.3-16.4-3.1-7.7,2-18,10.1-19.2,2.5-.4,5.1-.2,7.7,0,3.8.2,5.2,2.9,3.9,5.8-2.8,6.5-1.1,11.6,2.9,16.9,2.9,3.9,3.3,8.5-.1,12.6-.4.4-.9.8-.9,1.2-1.6,8.2-7.5,12.7-13.5,17.3-1,.8-2,1.5-2.9,2.3-3,2.4-4.8,6.4-7.1,9.7-.4.4-.4,1.1-.6,1.7.7,0,1.6,0,2-.3,3.5-2.9,6.7-6,10.2-8.7.9-.7,1.7-1.3,2.5-1.9,3.4-2.4,7.3-4.2,11.3-5.4,3.9-1.3,7,.4,8.2,4.6,1.1,3.6,2.8,7.1,3.3,10.8,1,6.2,1.3,12.6,1.9,19,.9,9.3,2.4,18.6,2.9,27.9.7,14.7,3.9,28.9,7.9,43,.3.4,0,1.2-.1,2ZM215.5,812c-2.5-13.7-2.9-29,4.2-41.8,7.7-13.9,3.9-25.7-2.1-38.3-6.9-14.5-13.3-29.4-19.1-44.3-4.4-11.5-5.6-23.8-6.3-36.1,0-4.2,0-8.3,0-12.5-.2-10.5,2.1-20.6,5.3-30.5,1.5-4.5,3-5,7.1-3,18.6,9.1,38.5,14.6,58.8,16.8,16.2,1.7,32.8-.1,49.1-1.3,10-.7,19.9-2.5,29.7-4.6,8.7-1.8,17.3-4.4,25.9-7.1,4.6-1.4,7.8-1.1,9.2,4.2,0,.3.2.5.3.7,1.4,3.1,2.8,6.2,4.2,9.4-3.2.3-6.5.5-9.7.9-18,2-33.7,9.3-48.2,19.9-12.3,9-20.7,20.7-27.3,34.2-4.1,8.4-6.4,8.9-11.1,1.5-6.1-9.4-14.8-15.5-23.8-21.1-15.7-9.9-31.1-19.9-43.7-33.7-1.1-1.1-2.3-2.1-3.5-3.1-.4-.3-1.3-.2-1.9-.3.2.7.1,1.4.5,1.9,3.3,4.8,6.2,9.7,10,14.2,9.3,10.9,21,18.9,33,26.6,6.5,4.2,12.8,9,18.6,14.1,5.9,5.2,5.1,6.5,1.5,13.8-7.8,15.8-10.6,32.4-3.8,49.5,5.7,14.3,12,28.4,17.1,42.9,3,8.4,4.4,17.2,1.6,26.6-2.5,8.6-2.4,17.9-3.5,27-1.1,9.3-2.6,18.6-3,27.9-.5,11.5,0,22.9,0,34.4,0,10.1-.6,20.4,2.9,30.1.2.5-.2,1.3-.4,2-.5-.5-1-1-1.5-1.6-7.3-9.4-22.5-8.5-30.9-2.6-.7.5-1.6.8-2.4,1.2,0-1-.5-2.1-.2-3,4.2-12.6-1.1-23.7-5.7-34.8-5.1-12.2-11.3-23.9-16-36.3-5.7-14.4-12.1-28.9-14.8-43.9ZM267.1,578.9c0-3.8.9-5.9,5.1-5.1,1.3.3,2.6,0,3.9.1,7.7,0,15.3-.1,23-.2,1.1,1.8,3.2,3.4,3.3,5.2.4,9.7.2,19.5.2,29.3,0,3.4-1.1,5.2-4.9,5.1-9-.1-18-.1-27,.1-3.8.1-3.3-2.2-3.3-4.4,0-10,0-20.1-.2-30.1ZM279.2,941.4c5.8.4,8.5,4.5,10.5,9.2.4.8.1,1.8.2,2.7-.6-.4-1.2-.8-1.8-1.2-1.8-1.3-3.5-2.7-5.4-3.9-11.8-7.7-23.3-7.3-32.9,2-.6.5-1.3,1.1-2,1.7.3-1,.6-1.9.9-2.9,1.1-4.9,5.5-9.1,10.9-9.1,6.6,0,13.1,1,19.6,1.5ZM260.6,933c2.7-.3,5.3-.9,7.9-.8,1.6,0,3.3,1.1,4.9,1.7h-6.3c-1.6-.2-4-.6-6.5-.9ZM287.4,1006.3c-7.1.9-14.2,1.3-22.2,1.9-5.4-.5-11.7-1.1-18-1.8-3.8-.4-6.8-2.5-6.1-6.2.5-2.3,3.3-5.2,5.7-5.8,13.3-3.5,26.6-1.8,39.7,1.4.9.2,2.1.7,2.7,1.4,1.2,1.7,3.1,3.8,2.8,5.4-.2,1.5-2.8,3.5-4.6,3.7ZM294.6,993c-9.1-4.9-19.2-5.8-29.2-6.6-8.4-.6-16.5,1.5-24.1,5.3-5,2.4-5.1,2.3-6.1-3.5,3-9,4.9-18.5,9.2-26.8,6.6-12.4,24.9-15.2,38-7.3,9.6,5.8,14,14.6,15.9,25.1.6,3.5,1.2,7,1.5,10.4.3,4-.7,5.8-5.3,3.4ZM393.2,672.5c-2.7,24.6-4.6,48.3-14.8,70.2-6.1,13.1-15.7,23.5-29.3,29.5-3.9,1.7-8.2,2.4-12.4,3.4-1.2.3-2.5,0-3.8-.2,1.1-.3,2.2-.5,3.2-.9,17.3-7.2,31.1-18.3,38.8-35.9.4-1.1.4-2.4.5-3.5-.9.8-2.1,1.5-2.8,2.4-5.5,7.9-11.4,15.3-19,21.6-10.4,8.6-22.3,8.7-33.9,7.1-9-1.3-17.8-5.1-24.5-12.3-4.4-4.9-7.3-10.1-7.8-16.8-.7-10,.2-19.7,4-29.2,6.4-16.2,13.2-32.3,24.4-45.6,14.4-17.1,31.8-29.7,54.7-33,2.5-.4,5.2-.3,7.7-.2,4.8.2,8.3,2,9.2,7.2,1.3,7.4,2.7,14.8,3.9,22.2.8,5,1.4,10,2,14.1ZM402,459.8c-1.1,26.1-6.9,51.2-18,75.1-2.1,4.6-3.1,9.6-5.3,14.1-1.1,2.2-3.4,4.7-5.6,5.3-33.3,9.7-67.4,12.2-102,10.6-2.1-.1-4.3-.3-6.4-.4-6.7-.4-13.6.1-20.1-1.2-13.9-2.9-27.5-6.9-41.4-10-3.8-.9-5.4-3-6.3-6.3-4.4-15.9-9.1-31.8-12.8-47.8-1.5-6.1-.8-12.8-1-19.2-.1-1.1-.3-2.2-.4-3.2-.1-13.2-1.4-26.4,0-39.4,1.5-14.2,5.3-28.1,8.2-42.1,1.1-5.1,2.6-10.2,3.9-15.3.4-1.6,1-3,1.6-4.5,1,1.3,2.2,2.6,3,4,6.3,10.9,14.5,19.9,25.5,26.4,11.8,7.1,24.5,11.3,37.9,12.4,17.1,1.4,34.3,2.2,51.4,1.4,13.9-.7,27.5-4.6,40.7-9.9,15.1-6.1,25.4-17.1,34.4-30,.8-1.1,1.8-1.9,2.8-2.9.4,1.1.9,2.2,1,3.3,1.3,7.1,2.9,14.2,3.9,21.4,1.5,10.4,2.8,20.9,3.8,31.4.9,8.9,2,17.9,1.6,26.7ZM534.6,288c0-.5,0-1,0-1.5,0-1,.3-2,.7-2.9,0,0,0-.1,0-.2h0s0,0,0,0c.3-.8.7-1.5,1.1-2.2,0,0,0-.2,0-.2,0-.1.2-.3.3-.4t0,0s0,0,0,0c.3-.4.6-.7.9-1t0,0c.3-.2.5-.4.7-.6,0,0,.1-.1.2-.2.1,0,.2-.2.4-.3.3-.2.6-.4.9-.6.2-.1.3-.2.4-.2,0,0,0,0,.1,0,.1,0,.3-.1.4-.2.1,0,.3,0,.4-.1,0,0,.1,0,.2,0,.3,0,.6-.1,1-.2h0s0,0,.1,0c.1,0,.3,0,.4,0,0,0,.2,0,.3,0h.6c.2,0,.4,0,.6.1.4,0,.9.1,1.3.3.4.2.9.4,1.3.7,0,0,0,0,0,0,0,0,.1,0,.2.1.4.3.6.5.9.9,0,0,0,0,0,0,0,0,.2.3.3.4,0,.1.2.3.3.4,0,0,.1.2.2.3,0,0,0,.1,0,.2,0,0,0,.1,0,.2.1.2.3.4.4.7,0,.1,0,.2.1.4s0,.3.1.5c0,.1,0,.3.1.4,0,.2.1.5.2.7,0,0,0,.2,0,.3,0,.4,0,.8.1,1.1v1.3c0,.1,0,.2,0,.4,0,.3,0,.5-.1.8,0,.2,0,.5,0,.7,0,0,0,.2,0,.3,0,.2,0,.4,0,.5,0,0,0,.2,0,.3,0,.3-.2.5-.3.8-1.2,3-3.4,5.3-5.8,6.3-.8.3-1.5.4-2.2.5-.3,0-.6,0-.9,0h-.2c-.7,0-1.3-.2-2-.4,0,0,0,0,0,0s0,0,0,0c-.7-.3-1.3-.7-1.8-1.1-.5-.5-1-1-1.3-1.6-.3-.4-.5-.9-.7-1.5l-.5-1.6c0-.4,0-.8-.1-1.1v-.7h.1ZM508.7,282.2c0,0,0-.2,0-.3,0-.2,0-.5,0-.7,0-.2,0-.3,0-.4,0-.3.1-.4.2-.7,0-.1,0-.2,0-.3.2-.7.4-1.3.7-1.8h0c0-.1,0-.2,0-.2.1-.2.2-.4.3-.6,0-.1.2-.2.3-.4.3-.5.7-1,1.1-1.5,0,0,0-.1,0-.2h0s0,0,0-.1c.1,0,.2-.2.3-.3,0,0,0,0,0-.1.4-.3.7-.6,1-.9.2-.2.4-.4.7-.5,0,0,.2-.2.3-.2.1,0,.2-.1.3-.1.3-.1.6-.3.9-.4,0,0,0,0,.1,0,.2,0,.4-.1.6-.2.3,0,.5-.1.8-.2.2,0,.4,0,.5,0,.2,0,.4,0,.7,0,.2,0,.3,0,.4,0s.3,0,.4,0h0c.1,0,.3,0,.4,0,0,0,0,0,.1,0,.2,0,.4,0,.7,0,.3,0,.5.1.8.2h0c0,0,.2,0,.3.1.2,0,.4.2.6.3,0,0,.2.1.3.2,0,0,.2,0,.3.1,0,0,.1,0,.2.1.1,0,.2.1.3.2.3.2.6.4.9.6,0,0,.2.2.2.2,1.1,1.1,2.1,2.5,2.7,4.2,0,0,0,0,0,.1,0,.1,0,.2,0,.4,0,.2.1.4.2.6h0c0,.3.1.6.2.9,0,0,0,.2,0,.2,0,.6.1,1.2.2,1.8,0,.4,0,.9,0,1.3v.4c0,.1,0,.3,0,.4,0,.4-.2.8-.3,1.2,0,.5-.2,1.1-.4,1.6-1.6,4.7-5.5,7.8-9.7,7.6h-.4c-1.6-.2-3.1-1-4.3-2-.2-.2-.4-.4-.6-.6-.2-.2-.4-.4-.6-.7-.8-.9-1.3-2-1.8-3.3-.2-.6-.4-1.2-.5-1.9,0-.4-.1-.9-.2-1.3,0-.4,0-.9,0-1.3,0-.6.1-1.1.2-1.6ZM451.8,307.9c.2-2.9,1.1-5.2,2.7-6.9,1.8-1,3.9-1.6,6.3-1.6s5.9,1.4,7.6,3.6c.4,1.6.6,3.4.5,5.6-.2,4.4-2.6,7.8-5.8,9.1-1.1.4-2.3.7-3.6.5-.7,0-1.3-.2-1.9-.4-3.7-1.3-6-5.1-5.7-10ZM551.9,329c-.5-.2-1.1-.9-2-2.2-.7-1.1-1.3-2-2-2.9h0c-.4-.5-.7-.9-1.1-1.3-1.1-1.1-2.4-2-4-2.5,0,0-.2,0-.3,0,0,0-.2,0-.4-.1-.1,0-.3,0-.4,0-.2,0-.3,0-.4,0-1-.2-2.1-.2-3.4,0,0,0-.2,0-.3,0,0,0-.2,0-.3,0,0,0,0,0,0,0h0s0,0,0,0c0,0-.2,0-.3,0h-.1s0,0,0,0h0s0,0,0,0c0,0-.2,0-.4,0-1.2.3-2.4.5-3.7.7,0,0,0,0-.1,0-.7,0-1.3.2-1.9.3-.6,0-1.2.2-1.8.3h-.2s0,0,0,0c-1,0-1.9.2-2.9.4-1,0-2,.3-3.1.4-.2,0-.4,0-.6,0-.2,0-.3,0-.5,0-.7.1-1.3,1.1-1.9,1.8.8.2,1.7.8,2.4.7,2.7-.5,5.3-1.4,8-1.9,6.8-1.3,12.6,0,16.8,6.1h0c.9,1.3,1.5,2.4,1.5,3.4s0,.2,0,.3h0c0,.1,0,.2,0,.2h0c0,.2,0,.4-.2.6,0,.2-.2.4-.3.5h0c-.3.4-.6.8-1.1,1.3,0,0,0,0-.1.1-9.3,8.1-17.9,17.2-28,24.3-.6.4-1.1.8-1.6,1.2-.6.4-1.1.9-1.6,1.4-.5.5-.9,1-1.4,1.5h0c-.4.5-.7.9-1.1,1.3h0c-.3.5-.6.9-.9,1.4h0c-.3.5-.6.9-.9,1.4h0c-.3.5-.5,1-.7,1.5h0c-.3.5-.5,1.1-.7,1.6-.7,1.6-1.2,3.3-1.8,5.1-3.8,12.4-7.5,24.9-14.8,35.9-.9,1.3-1.7,2.5-2.7,3.7-1.3,1.7-2.7,3.2-4.1,4.8-.8.9-1.5,1.8-2.3,2.7-.6.7-1.3,1.3-2,2-.6.7-1.3,1.3-2,2-1.1,1-2.1,2-3.2,3-.7.6-1.3,1.2-2,1.8l-.9.8c-2.1,1.8-4.3,3.5-6.5,5.1-2.9,2.1-5.8,4.1-8.8,6.1-.3.2-.6.4-.9.5,0,0,0,0-.1,0-1.1.7-2.3,1.3-3.4,2-2.4,1.3-4.7,2.6-7.1,3.8-1.2.6-2.4,1.3-3.6,1.9-.9.4-1.7.9-2.5,1.3-.5.3-1.1.4-1.7.4,0,0-.1,0-.2,0-.3,0-.5,0-.7.1,0-.6-.2-1.1-.2-1.7s0-.4,0-.5c1-2.8,2-5.7,2.9-8.5,2.9-9.1,5.3-18.3,6.8-27.8.3-2,.7-4.1.9-6.1.2-1.8.5-3.6.8-5.4.2-1.5.4-2.9.7-4.4.8-4.6,1.6-9.2,2.5-13.8.2-1.3.5-2.7.7-4.1.1-.9.3-1.7.4-2.5.9-5.4,1.5-10.9,2.7-16.3.8-3.6,2.7-7,4-10.5.9-2.4,2.4-3.9,4.3-4.4.4,0,.8-.1,1.2-.2.5,0,1,0,1.6.1.4,0,.9.2,1.4.4,3.9,1.5,7.7,3.6,10.9,6.2,4.3,3.4,8,7.6,12,11.4.4.4,1.3.3,2,.4,0-.1,0-.3,0-.5,0-.4-.1-.9-.4-1.3-.5-.8-.9-1.6-1.3-2.4-1.1-2.2-2.4-4.4-3.9-6.3h0c-.2-.3-.4-.5-.6-.7-.2-.3-.4-.5-.6-.7-3.4-3.2-7.1-6.1-10-9.6-2.5-3-4.4-6.5-5.1-11,0-.4-.6-.9-.9-1.3-1.4-2-2-4-2-5.9s1-4.7,2.7-6.7c2-2.3,3.4-4.6,4.2-7,1-2.9,1-6.1-.3-9.7-.2-.6-.3-1.2-.3-1.8,0-.8.2-1.6.6-2.1.2-.3.4-.5.7-.7.2-.2.4-.3.6-.4,0,0,.1,0,.2,0,.2,0,.4-.2.7-.2,0,0,0,0,.1,0,0,0,.1,0,.2,0,0,0,0,0,.2,0,0,0,.2,0,.3,0,.3,0,.5,0,.9,0h.2c1,0,2.1,0,3.2,0,1.5,0,3.1.1,4.6.4,1,.2,2,.6,2.9,1.1.9.5,1.7,1.1,2.4,1.8,1.5,1.4,2.7,3.1,3.5,5.1.2.5.4,1,.6,1.5.2.6.3,1.3.4,1.9.2,1,.3,2,.3,2.9s0,.9,0,1.4h0c0,.4,0,.8-.1,1.1,0,.1,0,.2,0,.4,0,0,0,.2,0,.3,0,.4-.2.8-.3,1.1,0,0,0,0,0,0h0c0,.2,0,.3-.1.4,0,0,0,0,0,0,0,.3-.2.6-.3.9-.4.7-.7,1.3-1,2-.7,1.3-1.4,2.7-2.2,3.8-.4.6-.8,1.2-1.2,1.8-1.4,1.9-3.1,3.5-5.1,4.9-.5.4-1,.6-1.5.9-.4.2-.8.4-1.2.6-.3.2-.6.3-1,.4-.2.1-.5.2-.8.3-.2,0-.5.1-.8.2-.5.2-1.1.3-1.6.4-.2,0-.4.2-.6.4-.2.1-.4.4-.5.5,0,0,.1,0,.2,0,0,0,0,0,.1,0,.2.1.4.3.7.4.3.1.6.2,1,.3.4.1.9.3,1.3.3,0,0,0,0,.2,0,.5,0,1,0,1.6,0s1.2,0,1.8-.1h0s0,0,0,0c.2,0,.4,0,.5-.1,1-.2,1.9-.5,2.8-.8h0c.3-.1.6-.3.9-.4.4-.2.9-.4,1.3-.8.4-.2.8-.5,1.1-.8l.2-.2h0c.3-.2.5-.5.8-.7l.2-.2c0,0,.1-.1.2-.3,0,0,.2-.2.3-.4.4-.4.7-.8.9-1.3,4.4-7.1,8.6-14.3,12.7-21.5.9-1.6,1.9-3.3,2.8-4.9h-.2c0,0,.2,0,.2,0t0,0c1.1,0,2.2,0,3.3,0,.7,0,1.4,0,2.1,0,2.4,0,4.7,0,7-.4,3.9-.8,6.9-1,9.5-.7.7,0,1.4.2,2,.4.3,0,.5.1.8.3.2,0,.4.2.7.3.3.1.5.3.8.4t0,0c.2,0,.4.2.5.3,0,0,.2.1.2.2.2.1.4.3.6.4t0,0c.2.2.5.4.7.6.3.3.5.5.8.8,1,1.2,2,2.7,3.1,4.5.5,1,1.1,2,1.6,3.2,0,0,0,0,0,0h0c0,0,0,.1,0,.2t0,0h0s.4.7.4.7l.6.9,1.4,2.3c1.1,1.8,2.2,3.8,3.2,5.6.4.8.8,1.6,1.1,2.3.9,1.5,1.2,2.9.4,2.9ZM558.6,306.5h0s0,0,0,0c0,0-.2,0-.4,0-.7.2-1.3.3-2,.2-.2,0-.5,0-.7,0-.1,0-.2,0-.4,0-.6-.2-1.2-.4-1.7-.8-.4-.2-.7-.5-1-.8,0,0,0-.1-.1-.2,0,0-.1-.2-.2-.3-.8-1.1-1.1-2.6-.9-4.1,0-.4.2-.9.3-1.3.4-1.4,1.3-2.8,2.7-3.9.1,0,.3-.2.4-.3.4-.4.9-.6,1.3-.9.4-.2.9-.4,1.3-.6,0,0,.2,0,.2,0,.2,0,.4-.1.5-.2,0,0,.1,0,.2,0,.2,0,.4,0,.6,0,0,0,.2,0,.3,0,.2,0,.4,0,.6,0h.9c.6,0,1.1.2,1.6.4.3,0,.5.2.7.3.2.1.4.3.7.4h0c0,0,.2.1.3.3.1,0,.3.2.4.3,0,0,0,0,0,0h0c.3.3.4.6.6.9,0,0,.1.2.1.4,0,0,.1.2.2.4,0,0,0,0,0,0h0c.3.8.4,1.6.3,2.4h0c0,0,0,.1,0,.1,0,.1,0,.3,0,.4,0,.4-.1.9-.3,1.3-.5,1.3-1.4,2.7-2.6,3.7-.7.6-1.5,1.1-2.3,1.5-.2,0-.4.3-.7.4-.3,0-.5,0-.7,0ZM572.4,317.2c-.6,1.1-1.5,2-2.6,2.8-.8.5-1.7.9-2.5,1.2-.4,0-.9,0-1.3.1-.2,0-.4,0-.5,0s-.5,0-.7,0c-.5,0-1.1-.2-1.6-.3-1-.3-1.9-.9-2.5-1.7,0-.1-.2-.2-.3-.4,0,0,0,0,0,0,0-.1,0-.2-.2-.4-.5-.9-.7-1.8-.7-2.7s0-.4,0-.7c0-.4,0-.8.2-1.1.3-.8.7-1.6,1.2-2.4h0s0,0,0,0c.3-.4.6-.7.9-1.1.3-.3.7-.6,1.1-.9.5-.4,1-.5,1.5-.7,1.1-.5,2.1-.8,3.2-.8h.4c.4,0,.8,0,1.1.2.8.2,1.5.5,2.1,1,.5.4.9.7,1.3,1.3.7,1,.9,2.2.9,3.4-.2,1.1-.5,2.1-1.1,3.1Z"/>
      </g>
    </g>
    <metadata>
      <sfw xmlns="http://ns.adobe.com/SaveForWeb/1.0/">
        <slices/>
        <sliceSourceBounds x="1202.26" y="-1270.27" width="595.48" height="1040.54" bottomLeftOrigin="true"/>
      </sfw>
    </metadata>
  </g>
</svg>