<?xml version="1.0" encoding="UTF-8"?>
<svg xmlns="http://www.w3.org/2000/svg" version="1.1" viewBox="0 0 2000 2000">
  <defs>
    <style>
      .cls-1 {
        stroke: #fff;
        stroke-linejoin: round;
        stroke-width: 69.6px;
      }

      .cls-1, .cls-2 {
        fill: #fff;
      }

      .cls-3 {
        fill: #be251e;
      }

      .cls-4 {
        fill: #fb0001;
      }
    </style>
  </defs>
  <!-- Generator: Adobe Illustrator 28.6.0, SVG Export Plug-In . SVG Version: 1.2.0 Build 709)  -->
  <g>
    <g id="Capa_1">
      <rect class="cls-4" x="0" y="0" width="2000" height="2000" rx="1000" ry="1000"/>
      <g>
        <g>
          <g>
            <path class="cls-2" d="M456.4,371.3c2.5,0,4.7,0,7.2.4s5.1,0,7.7.4c3,0,6,.9,8.9,1.3,2.5.4,5.1.9,7.2,1.3,3,.9,6,1.3,8.9,2.1,2.1.9,4.7,1.3,6.8,1.7,3,.9,6,2.1,8.5,3,2.1.9,4.2,1.7,6.4,2.5,3,1.3,6,2.5,8.9,3.8,2.1.9,4.2,1.7,6,2.5l9.3,4.7c1.7.9,3.4,1.7,5.1,3,3.4,1.7,6.8,3.8,10.2,6,1.3.9,2.5,1.7,3.8,2.5l13.6,9.4c8.1,5.5,16.2,11.5,23.8,17.4,23.4,18.3,45.5,37.8,68.9,55.7,1.7,1.3,3.4,2.1,6,2.5.8,0,1.3,0,2.1.4,1.7.4,3,.8,4.7.8h5.1c1.7-.4,3.4-.8,4.7-1.7,58.2-34,120.7-55.2,187-65.5,20.8-3.4,42.1-5.1,62.9-8.1,20.8,0,42.1-.4,62.9-.4,62.5,3.4,124.1,13.6,181.5,37.8,38.2,16.1,74.4,36.5,111.4,56.1,1.7.8,3.4,1.7,4.7,2.5h0s1.3.8,2.1.8c.9.4,1.7.8,2.6.8.4.4,1.3.4,1.7.8.9.4,1.7.4,2.1.8.9,0,1.3,0,1.7.4h2.1c.9,0,1.7,0,2.6-.4h1.7c.9-.4,1.7-.8,2.6-1.3.4,0,.9-.4,1.7-.8.9-.4,2.1-1.3,3-2.1s.9-.8,1.7-1.3c1.3-.8,2.6-2.5,4.2-3.8l.9-.8c43.4-47.6,88.4-93.5,150.9-119,9.8-4.2,20-7.6,29.8-9.8,6.4-1.7,12.8-3,18.7-3.8.9,0,1.3,0,2.1-.4,5.9-.9,11.9-1.3,17.9-1.3h10.6c1.7,0,3.4.4,5.1.4,2.6.4,4.7.9,7.2.9s3,.4,4.7.9c2.6.4,5.1,1.3,8.1,1.7,1.3.4,2.6.4,4.2.9,3.8,1.3,8.1,2.5,11.9,3.8,13.2,5.1,24.2,11.5,33.1,19.1,27.2,23.4,36.1,58.2,37.8,96.1,2.6,57.8-9.8,115.2-24.6,170.4-22.1,82-48.4,163.2-75.2,244-8.5,25.1-4.2,47.6-2.6,72.7,3.4,50.6,14,101.2,4.2,153.4-5.9,31.4-1.7,66.3,5.5,98.2,2.1,9.3,3.8,18.3,5.1,27.2.4,2.1.4,4.2.4,5.9.9,6.8,1.7,13.6,2.1,20.8v8.5c0,5.9.4,11.9,0,17.9,0,3.4-.4,6.8-.9,10.2-.4,5.1-.9,10.6-1.3,15.7-.4,1.7-.4,3.8-.9,5.5s-.4,3.8-.9,5.5c-.9,5.1-1.7,9.8-2.6,14.4-.9,4.2-1.7,8.1-2.6,11.9-.9,4.7-2.1,9.4-3.4,13.6-.9,4.2-2.6,8.1-3.4,11.9-1.3,4.2-3,8.9-4.2,13.6-1.3,3.8-3,7.6-4.2,11.5-.4,1.3-.9,2.6-1.7,3.8-.4,1.3-.9,2.6-1.7,4.2,0,0-5.5,25.9-38.7,69.3-.4.4-.9.9-1.3,1.7-3.4,4.7-7.6,9.4-11.9,14.4h0c-.9,1.7-1.7,3.4-2.6,4.2-3.4,3.4-6.4,6.8-10.2,10.2-1.7,1.7-3,3.4-4.7,5.1-8.1,8.9-16.1,17.9-25.5,25.5-12.3,10.2-25.1,19.6-38.2,28.9h-.4c-4.7,3.4-56.9,38.7-153.9,71.8-54,18.3-122,36.1-203.2,46.8-5.1.9-10.6,1.7-16.6,2.6-4.2,0-18.7,3.4-22.9,3.8h-6.4c-24.2,3-48.4,4.2-72.2,4.2s-19.6,0-28.9-.9c-23.8-.9-47.6-3-70.1-5.9-68-8.5-128.3-24.6-169.6-37.4-3-.9-6-1.7-8.5-2.6-3.8-1.3-7.2-2.6-10.6-3.4-6-2.1-11.5-4.2-16.2-5.5-2.5-.9-4.7-1.7-6.8-2.6-8.5-3.4-13.6-5.1-14.9-5.9h0c-40.8-16.6-79.9-38.2-116-67.1-39.1-31-70.1-66.3-94.8-105.8-8.5-13.6-16.1-27.2-23-41.6-.4-.9-.9-1.7-1.3-2.6-62-111.4-25.5-222.7-23-230.3v-.4c1.3-5.9,2.5-11.5,4.2-17s3.4-11.1,5.1-17l1.3-5.1c.9-4.7,1.7-9.8,1.7-14.9,0-14.4-1.3-29.3-2.1-44.2-.4-21.2-.4-42.5-.9-63.8-.4-5.5-.4-11.1-.4-17,0-14.9.9-29.3,3-44.2,3-20,7.6-39.9,14-59.1,1.3-3.4,1.7-6.8,2.5-9.8,1.7-9.8,0-19.1-2.1-28.5-1.7-5.9-3.4-12.3-5.5-18.3-1.7-5.9-3.8-11.9-5.1-18.3-15.3-78.2-32.7-156.4-51.4-233.8-8.5-35.3-11.9-71-11.9-106.7s0-13.6.4-20c2.5-75.6,44.6-120.7,121.1-126.2,2.5,0,5.1-.4,7.7-.4l6.4,1.7"/>
            <path class="cls-1" d="M1590.8,917c-5.9,17.4-4.2,34-2.6,53.1.4,4.2.9,8.5.9,12.8.9,12.8,2.1,25.5,3.4,37.8,4.2,38.7,8.5,78.2.4,119.8-4.7,23.8-3,54,5.5,90.9,2.1,10.2,4.2,20,5.1,28.1.4,2.1.4,3.8.4,5.9v.8c.9,7.7,1.7,14.4,2.1,23v8.1c0,6.4.4,12.8,0,19.1,0,1.7,0,3.4-.4,5.5,0,1.7-.4,3-.4,4.7v.9c-.4,5.1-.9,10.6-1.3,15.7v1.3s-.4,1.3-.4,2.1c0,1.3-.4,2.6-.4,3.4s0,1.3-.4,2.1c0,1.3-.4,2.6-.4,3-.9,5.1-1.7,10.2-2.6,15.7-.9,4.2-1.7,8.5-2.6,11.9-.9,4.7-2.1,9.4-3.4,14.4-.9,2.6-1.7,5.5-2.6,8.1l-1.3,4.2c-1.7,4.7-3,9.4-4.7,14.4-1.3,3.8-3,8.1-4.2,11.5l-.9,2.1-.9,1.7c-.4,1.3-.9,2.6-1.7,3.8-.9,3.8-3.8,12.3-10.2,25.1s-16.1,28.9-31.4,48.9v.4l-1.3,1.3c-3.4,4.2-6.8,8.5-11.1,13.2-1.7,2.6-3.4,4.7-5.1,6.8-1.7,1.7-3,3.4-4.7,4.7-1.7,1.7-3.4,3.8-5.1,5.1l-4.2,5.1c-8.5,9.8-17.4,19.1-27.6,27.2-11.9,9.4-24.6,19.1-37.8,28.9l-4.2,4.2h-1.3c-14.9,10.2-66.3,41.2-153.4,71-64.6,22.1-133.9,37.8-206.1,47.6-5.9,1.3-11.9,2.1-18.7,2.6-2.1,0-5.5.9-9.3,1.7-6.8,1.3-10.6,2.1-14.4,2.1h-4.2c-23.8,3-48.9,4.2-74.4,4.2s-19.6-.4-29.8-.9c-23.8-.9-47.6-3-71.4-5.9-56.1-7.2-114.3-20-172.1-37.8-2.1-.4-4.2-1.3-6-1.7l-3-.9-4.2-1.7c-2.1-.9-3.8-1.3-6-1.7h-.4l-.4-.4c-6-2.1-11-3.8-16.2-5.5-2.1-.9-4.7-1.7-6.4-2.1l-.8-.4h-.4c-10.6-4.2-14-5.5-15.7-6.4l-.8-.4c-42.9-17.9-82.9-40.8-117.7-68.4-39.5-31.4-71.8-67.6-98.6-110.1-8.5-14-16.6-28.5-23.8-43.8l-.9-1.3c-63.3-113.9-28.9-229.1-24.2-243.9,1.3-5.9,2.5-11.5,4.2-17,1.7-5.9,3.4-11.9,5.5-17.4v-.8c.4-.8.4-2.1.9-3,.9-3.8,1.3-7.7,1.3-10.6,0-9.3-.9-19.1-1.3-28.9-.4-5.1-.9-9.8-.9-15.3-.4-21.2-.4-42.5-.9-63.3-.4-5.9-.4-11.5-.4-17.4,0-16.6.9-31.4,3-46.3,3-20.8,8.1-41.7,14.9-62.5.9-1.7,1.3-4.2,1.7-6.8.9-5.9.4-12.8-1.7-21.7-.9-4.2-2.5-8.5-3.8-12.8l-1.7-4.7-.4-1.3c-1.7-5.9-3.4-11.9-5.1-18.7-14.5-73.5-31-149.6-51-232.9-8.5-34-12.3-70.1-12.3-110.9s0-13.6.4-20.4c2.5-84.1,52.7-136.4,137.7-142.8,3,0,5.5-.4,8.5-.4h3.8c2.5,0,5.1,0,8.5.4h2.1c2.1,0,3.8.4,6,.4,3.4,0,6.4.9,9.3,1.3h.8c2.5.4,5.1.9,8.1,1.7,3,.9,6,1.7,9.8,2.5.8.4,2.1.4,3,.9,1.3.4,2.5.9,3.8.9,2.5.9,4.7,1.7,6.8,2.5l2.1.9c2.5.9,5.5,1.7,7.7,2.5,3.4,1.3,6.8,3,9.3,4.2,2.5.9,5.1,2.1,7.2,3.4,3.4,1.7,6.4,3.4,10.2,5.5.4.4.8.9,1.7.9,1.3.4,2.5,1.3,3,1.7,3.4,2.1,7.2,4.2,10.6,6.4l.4.4.4.4s1.3.9,1.7.9l.8.4.8.4,5.5,3.8,8.5,5.5c8.1,6,16.2,11.5,24.7,18.3,10.6,8.1,20.8,17,31,25.1,11.9,10.2,24.7,20.4,37.4,30.2.4,0,1.3,0,1.7.4.4,0,.8.4.8.4h2.5c58.2-33.6,122.8-56.1,192.1-67.1,13.6-2.1,27.6-3.8,40.8-5.1,7.7-.9,15.3-1.7,22.5-2.5h1.7l64.2-1.7h.8c72.2,3.8,133.4,16.6,187,39.1,30.6,12.8,60.3,28.9,88.8,44.2,8.1,4.2,16.1,8.5,23.8,12.8l1.7.8s1.7.8,2.1.8l2.6,1.3,1.7.4.4.8h.4l.9-.4.9-.8h0v-.4l.9-.8s.9-.8,1.7-1.7l.4-.4.4-.4.4-.4c42.9-47.6,90.5-96,157.2-123.2,11.1-4.7,22.1-8.1,31.9-10.6,6.4-1.7,13.2-3,20.4-4.2h2.6c6.4-.9,13.2-1.3,20.4-1.3h13.2s1.7.4,2.6.4h2.6l6.8,1.3c.9,0,2.1.4,3.4.4h3c2.6.9,5.1,1.3,7.6,1.7l1.3.4h.9c.9.4,2.1.4,3.8.9l1.3.4c3.8,1.3,8.1,2.5,11.5,3.8,15.3,5.5,28.1,13.2,38.2,22.1,27.2,23.8,41.2,58.2,43.4,108.4,2.6,61.6-10.6,120.7-25.1,175.5-22.5,85-49.7,168.3-75.2,246.5h0Z"/>
          </g>
          <path class="cls-2" d="M649.4,1671.4c4.7,1.7,10.2,3.4,16.2,5.5-5.1-1.7-10.6-3.4-16.2-5.5"/>
        </g>
        <g>
          <path class="cls-3" d="M971.9,1475.4c-17.8-.4-56.9,29.8-56.9,43.8,0,22.5,29.3,44.2,60.3,44.2s50.6-14.9,49.7-40.4c-.4-17.8-33.6-47.6-53.1-47.6Z"/>
          <g>
            <path d="M1497.2,1537.5c3.4-3.4,6.8-7.2,10.2-10.6s1.7-2.1,2.6-3.8c-3.8,4.7-8.1,9.8-12.8,14.4Z"/>
            <path d="M649.4,1671.4c5.1,2.1,11,3.8,16.2,5.5-6-2.1-11.1-4.2-16.2-5.5Z"/>
            <path d="M1649.8,667.5c14.9-55.2,27.2-112.6,24.6-170.4-1.7-38.2-10.6-72.7-37.8-96-8.9-7.6-20-14.5-33.1-19.1-3.8-1.7-8.1-2.5-11.9-3.8-1.3-.4-2.6-.4-4.2-.9-2.6-.9-5.1-1.3-8.1-1.7-1.7,0-3-.4-4.7-.9-2.6-.4-5.1-.9-7.2-.9s-3.4,0-5.1-.4h-10.6c-5.9,0-11.9.4-17.9,1.3-.9,0-1.7,0-2.1.4-6.4.9-12.8,2.1-18.7,3.8-9.8,2.5-20,6-29.8,9.8-62.5,25.5-107.5,71-150.9,119l-.9.8c-1.3,1.7-2.6,3-4.2,3.8-.4.4-.9.8-1.7,1.3-.9.8-2.1,1.7-3,2.1-.4.4-.9.4-1.7.8-.9.4-1.7.8-2.6,1.3h-1.7c-.9,0-1.7.4-2.6.4h-2.1c-.9,0-1.3,0-1.7-.4-.9,0-1.7-.4-2.1-.8-.9,0-1.3-.4-1.7-.8-.9,0-1.7-.8-2.6-.8-.9-.4-1.3-.4-2.1-.8h0c-1.7-.8-3-1.7-4.7-2.5-36.6-19.5-73.1-40-111.3-56.1-57.8-24.2-119-34.9-181.5-37.8-21.2,0-42.1.4-62.9.4-21.2,2.5-42.1,4.7-62.9,8.1-66.3,10.2-128.8,31.5-187,65.5-1.3.8-3,1.3-4.7,1.7h-5.1c-1.7,0-3.4-.4-4.7-.8-.8,0-1.7,0-2.1-.4-2.1-.8-4.2-1.7-6-2.5-23.8-17.8-45.9-37.4-68.8-55.7-7.7-6-15.7-11.9-23.8-17.4l-13.6-9.4c-1.3-.9-2.5-1.7-3.8-2.5-3.4-2.1-6.8-4.2-10.2-6s-3.4-1.7-5.1-3c-3-1.7-6-3.4-9.3-4.7-1.7-.9-3.8-1.7-6-2.5-3-1.3-6-2.5-8.9-3.8-2.1-.9-4.2-1.7-6.4-2.5-3-.9-6-2.1-8.5-3s-4.7-1.3-6.8-1.7c-3-.9-6-1.7-8.9-2.1-2.5-.4-5.1-.9-7.2-1.3-3-.4-6-.9-8.9-1.3-2.5-.4-5.1-.4-7.7-.4s-5.1-.4-7.2-.4h-3.8c-2.5,0-5.1,0-7.7.4-76.5,6-118.6,51-121.1,126.2,0,6.8-.4,13.2-.4,20,0,35.7,3.4,71.4,11.9,106.7,18.7,77.3,36.1,155.5,51.4,233.8,1.3,5.9,3,11.9,5.1,18.3,1.7,5.9,3.8,12.3,5.5,18.3,2.1,9.3,3.4,18.7,2.1,28.5-.4,3.4-1.3,6.4-2.5,9.8-6.4,19.6-11,39.1-14,59.1-2.1,14.4-3,29.3-3,44.2s0,11.1.4,17c0,21.2.4,42.5.9,63.8.9,14.4,1.7,29.3,2.1,44.2,0,5.1-.9,10.2-1.7,14.9l-1.3,5.1c-1.7,5.5-3.8,11.1-5.1,17-1.7,5.5-3,11.1-4.2,17v.4c-2.5,7.7-39.1,119.4,23,230.4.4.9.9,1.7,1.3,2.6,6.8,14.4,14.5,28.5,23,41.6,24.7,39.5,55.7,74.8,94.8,105.8,36.1,28.5,75.2,50.1,116,66.7h0c1.3.9,6.8,3,14.9,5.9,2.1.9,4.2,1.7,6.8,2.6,4.7,1.7,10.2,3.4,16.2,5.5,3.4.9,6.8,2.1,10.6,3.4,2.5.9,6,1.7,8.5,2.6,41.2,12.8,101.1,28.5,169.6,37.4,22.5,3,45.9,5.1,70.1,5.9,33.2,1.3,67.2.4,101.2-3.4h6.4c4.2,0,18.7-3.4,22.9-3.8,5.9-.4,11.5-1.3,16.6-2.6,81.6-11.1,149.2-28.5,203.2-46.8,96.9-33.1,148.8-68.4,153.9-71.8h.4c12.8-9.4,25.5-19.1,38.2-28.9,9.4-7.6,17.4-16.1,25.5-25.5,1.7-1.7,3.4-3.4,4.7-5.1,4.7-5.1,8.9-9.8,12.8-14.4,4.2-5.1,8.1-9.8,11.9-14.4.4-.9.9-1.3,1.3-1.7,33.1-43.4,38.7-69.3,38.7-69.3.9-1.3,1.3-2.6,1.7-4.2.4-1.3.9-2.6,1.7-3.8,1.7-3.8,3-7.6,4.2-11.5,1.7-4.2,3-8.9,4.2-13.6,1.3-4.2,2.6-8.1,3.4-11.9,1.3-4.2,2.6-8.9,3.4-13.6.9-3.8,1.7-7.6,2.6-11.9.9-4.7,1.7-9.4,2.6-14.4.4-1.7.4-3.8.9-5.5s.4-3.8.9-5.5c.4-5.1.9-10.6,1.3-15.7,0-3.4.4-6.8.9-10.2v-26.4c-.4-6.8-1.3-14-2.1-20.8,0-2.1,0-4.2-.4-5.9-1.3-8.9-3-18.3-5.1-27.2-7.2-31.4-11.9-66.7-5.5-98.2,10.2-52.3-.4-102.8-4.2-153.4-1.7-25.1-5.9-47.6,2.6-72.7,24.7-82.5,51-163.2,72.7-245.2h0ZM406.7,631.8c-1.7-8.1-3-16.6-4.2-24.7-.4-3-.9-5.5-1.3-8.5-13.2-86.3-2.5-121.5,1.7-131.3.9-2.1,1.7-3,1.7-3,12.8-24.2,31.4-31.9,59.9-27.6,5.1.4,11,1.7,17,3,40.8,10.2,73.1,35.7,105,62,10.2,8.5,21.7,16.6,30.6,26.3,6.8,7.2,8.5,15.7-2.5,23-38.2,25.5-68.9,59.1-98.6,93.5-7.7,8.9-11,10.6-14.5,1.3-.4-.8-.8-2.1-1.3-3.4-3.4-11.9-7.7-23.8-11.5-35.7-6-17-17-23.8-35.7-23s-25.9,8.9-23,25.5c4.2,23.8,10.2,47.2,15.3,70.5s9.8,46.8,14,70.5c.8,5.5.8,11.9-.8,17.4-2.1,5.9-6.8,10.6-10.6,15.7-3.8-5.1-9.8-9.8-11-15.7-11.1-44.6-21.3-90.1-30.2-136ZM1502.4,1384.1c-12.3,56.1-45.1,102.4-86.3,139-34,30.6-76.1,53.6-116.4,75.6-14,7.6-28.5,14.4-42.9,20.8-39.9,17.4-82,29.8-124.9,37.8-55.7,10.6-89.2,21.2-168.3,23.8-88.4-4.2-171.7-20.4-250.8-51-48-18.7-94.3-42.5-138.5-72.2-72.7-48.4-121.5-113.9-135.1-199.8-8.5-53.6-10.6-110.5,23-160.2,4.2-6.4,3.8-16.6,3.4-25.1-1.3-44.6-8.9-90.1-3.4-133.9,8.5-66.3,29.3-129.6,67.2-187,3-4.2,6-8.9,9.3-13.2,33.6-47.2,74.4-86.3,121.5-119.8,22.5-16.2,45.1-2.5,65.9,4.2,19.6,6.4,39.1,15.7,55.2,28.5,17.4,13.6,34.4,29.8,45.1,48.9,23.8,42.9,44.2,87.6,65.4,131.8,3.8,7.7,4.7,17,9.3,23.4,10.6,15.3,19.1,32.7,44.2,30.6,32.3-3,64.6,1.3,96.9-1.7,18.7-1.7,26.8-20.4,31.4-37.4,5.5-19.1,8.1-39.1,16.2-56.9,28.9-64.6,70.6-119,132.2-155.5,14.4-8.5,30.6-15.7,46.7-19.5,23.4-5.5,43.4,7.2,60.4,21.2,37,31,71.8,64.6,97.8,105.4,2.6,3.8,5.1,8.1,7.6,11.9,25.9,44.2,47.6,90.5,52.7,142.8,3.4,37.4,9.4,74.8,11.1,112.2,1.3,22.1-3.4,44.2-5.1,66.7-.9,10.6-1.7,21.7.4,31.9,5.1,22.9,10.6,45.9,17.9,68.4,10.2,37-1.3,72.7-8.9,108.4ZM1566.1,721c-8.5,33.6-18.3,66.7-27.2,100.3-.9,2.6-5.1,3.8-7.6,5.5-4.7-13.6-15.3-28.9-12.8-41.2,9.4-48,22.9-94.8,34.9-142.4,1.7-6.4,3.8-13.6,3.4-20,0-1.3,3.4-17.8-5.9-25.5-16.1-13.2-31.4-.4-40.4,7.7-11.5,11-16.6,29.3-23.8,45-2.6,6-3.4,13.2-5.9,19.5-5.1,13.2-10.6,10.6-19.1,1.3-.9-.8-1.3-1.7-2.1-2.1-29.3-32.3-59.1-64.6-90.5-95.2-6.8-6.8-8.1-8.5-2.1-15.3,39.5-41.7,81.6-79.9,133-106.2,8.5-4.2,17-8.5,25.9-11.9,24.6-10.2,53.6-2.5,68.9,23.8.4.4.9,1.3.9,1.7.9,1.3,1.3,2.5,2.1,3.8.4.9.9,1.7,1.3,3,6.8,18.3,5.9,49.3,1.7,83.7-8.9,75.2-34.4,164.5-34.4,164.5h0Z"/>
            <path class="cls-2" d="M1510,1275.2c-6.8-22.5-12.8-45.5-17.9-68.4-2.1-10.2-.9-21.2-.4-31.9,1.7-22.5,6.4-44.6,5.1-66.7-1.7-37.4-7.2-74.8-11.1-112.2-5.1-52.3-26.8-98.6-52.7-142.8-2.6-4.2-5.1-8.1-7.6-11.9-26.4-40.8-60.8-74.4-97.8-105.4-17-14-37-26.8-60.4-21.2-16.1,3.8-32.3,11-46.8,19.5-62.1,36.5-103.3,91-132.2,155.5-8.1,17.8-10.2,38.2-16.2,56.9-5.1,17-13.2,35.7-31.4,37.4-31.9,3.4-64.6-.8-96.9,1.7-25.5,2.1-34-14.9-44.2-30.6-4.7-6.8-5.9-15.7-9.3-23.4-21.2-44.2-41.7-89.2-65.4-131.8-10.6-18.7-27.6-35.3-45.1-48.9-16.2-12.8-35.7-22.1-55.2-28.5-20.8-6.8-43.3-20-65.9-4.2-47.2,33.6-88,72.7-121.5,119.8-3.4,4.2-6.4,8.9-9.3,13.2-37.8,57.4-58.7,120.7-67.2,187-5.5,43.8,2.1,89.2,3.4,133.9.4,8.5.8,18.7-3.4,25.1-33.6,49.7-31.5,106.7-23,160.2,13.6,85.4,62.5,150.9,135.2,199.8,44.6,29.8,91,53.6,138.6,72.2,79.1,30.6,162.3,51.4,250.8,51,71.4-.4,106.2-5.9,168.7-21.2,42.9-8.1,85-22.9,125-40.4,14.4-6.4,28.9-13.2,42.9-20.8,40.8-22.1,82.4-45.1,116.4-75.6,41.2-36.6,73.9-82.9,86.3-139,8.5-35.3,20-71,8.5-108.4ZM1173.8,949.3c17-44.6,74.8-56.9,107.9-22.9,8.9,8.9,15.7,19.1,23.4,28.9,1.7,2.1,2.6,5.1,5.9,12.3-7.6-2.6-12.8-2.6-16.1-5.1-22.9-17.4-48.4-25.1-76.9-17.8-11.9,3-22.5,9.8-34,14.4-3,1.3-6.8.8-10.2,1.3.4-3.4-1.3-7.7,0-11.1ZM930.7,1248.9c18.7-17,72.7-20.8,93.9-6.4,8.5,5.9,17.8,18.7,17,27.2-.4,7.7-13.6,17.4-22.9,20.8-11.5,4.2-25.1,3-40.4,4.2-11.1-.9-25.1-.4-37.8-4.2-8.1-2.1-18.3-10.2-20-17.4-1.3-6.8,3.8-18.7,10.2-24.2ZM656.6,946.7c16.6-22.9,34.8-43.8,66.7-42.5,17,0,56.5,31,59.5,46.8.4,2.6-5.9,9.8-8.5,9.3-6.4-.4-12.3-4.2-18.3-6.8-29.8-12.8-58.7-17-85.8,5.9-4.2,3.4-11.5,2.6-17.4,3.4,1.3-5.5.9-11.9,3.8-16.1ZM725,1094.6c-11.9-14.4-25.9-14-35.3,1.7-13.6,22.5-25.5,46.8-35.3,71.4-6,15.3,0,19.1,18.3,15.7,8.5-1.7,17.4-3.4,25.9-2.6,6.4.8,18.7,2.6,18.3,9.3-.4,6.4-11.5,5.5-17.8,6.8-17.8,4.2-35.7,5.9-53.1,11.1-11.9,3.4-22.5,9.8-33.2,15.7-8.5,4.7-12.8,3.4-12.8-6.8,0-69.3,10.2-135.2,60.3-188.3,14.5-15.3,32.3-19.1,51.8-20.4,28.1-.8,64.6,24.7,82,68,12.3,30.6,20.4,62.9,29.8,95.2,1.7,6.4,1.7,13.6,1.3,20.4-.8,14.4-9.8,17-20.4,10.6-20.4-12.8-37.4-27.2-45.1-52.7-6.8-20-21.2-38.2-34.8-55.2ZM1160.7,1423.6c-22.5,8.1-45.1,16.1-68,20.8-12.8,2.6-18.3,5.1-20,19.1-3.4,30.6-14.4,59.5-31.4,85-15.7,23.8-39.9,33.1-75.2,31.9-29.8,0-62.9-24.6-76.1-62.9-6.4-18.7-13.2-37.8-16.2-57.4-2.1-12.8-7.2-16.1-18.7-14.9-25.5,3-48-6.4-70.6-17.4-11.5-5.5-14-13.2-11.9-22.9.8-4.7,6.4-10.2,11.1-11.5,3-.9,9.3,3.4,11.9,7.2,10.2,15.3,25.9,19.1,42.1,21.2,48.4,5.9,89.2-9.4,123.2-44.2,10.6-11.1,14.9-17.9,31,0,32.3,36.1,73.9,58.6,126.2,39.1,8.5-3.4,16.2-9.4,23.8-14,5.1-3,11.1-10.2,13.6-8.9,6.8,3.4,13.6,9.4,16.2,15.7,1.3,2.5-6,12.3-11.1,14h0ZM1338.3,1212.8c-3.4,5.1-14.9,11.5-17.9,9.8-26.4-17-55.2-23.8-86.3-25.1-5.5,0-10.6-3.4-16.2-5.5-2.6-.8-4.7-2.1-6.8-3,2.6-1.3,5.1-3.4,7.7-3.4,16.2-1.3,33.6-5.5,48.9-2.1,17,3.8,21.7-1.3,17-14.4-9.4-25.1-20.4-49.3-33.1-72.7-7.6-14-23.8-17-34-3.4-14.4,18.7-28.5,39.1-37,60.8-10.2,25.9-29.8,39.1-52.7,49.3-1.7.8-9.8-5.1-9.8-7.2,5.9-55.2,20-108.4,54.4-152.2,43.3-54.8,99-41.7,130,14.4,22.9,41.7,34,87.6,36.6,131.3,0,9.8,2.5,18.3-.9,23.4Z"/>
            <path class="cls-2" d="M1600.9,556.6c-9.4,74.8-34.9,164.5-34.9,164.5-8.5,33.6-18.3,66.7-27.2,100.3-.9,2.6-5.1,3.8-7.6,5.5-4.7-13.6-15.3-28.9-12.8-41.2,9.4-48,22.9-94.8,34.9-142.4,1.7-6.4,3.8-13.6,3.4-20,0-1.3,3.4-17.8-5.9-25.5-16.1-13.2-31.4-.4-40.4,7.7-11.5,11-16.6,29.3-23.8,45-2.6,6-3.4,13.2-5.9,19.5-5.1,13.2-10.6,10.6-19.1,1.3-.9-.8-1.3-1.7-2.1-2.1-29.3-32.3-59.1-64.6-90.5-95.2-6.8-6.8-8.1-8.5-2.1-15.3,39.5-41.7,81.6-79.9,133-106.2,8.5-4.2,17-8.5,25.9-11.9,24.6-10.2,53.6-2.5,68.9,23.8.4.4.9,1.3.9,1.7.9,1.3,1.3,2.5,2.1,3.8.4.9.9,1.7,1.3,3,7.2,18.7,6.4,49.7,2.1,83.7h0Z"/>
            <path class="cls-2" d="M614.1,551c-38.2,25.5-68.8,59.1-98.6,93.5-7.7,8.9-11,10.6-14.5,1.3-.4-.8-.8-2.1-1.3-3.4-3.4-11.9-7.7-23.8-11.5-35.7-6-17-17-23.8-35.7-23s-25.9,8.9-23,25.5c4.2,23.8,10.2,47.2,15.3,70.5s9.8,46.8,14,70.6c.8,5.5.8,11.9-.8,17.4-2.1,5.9-6.8,10.6-10.6,15.7-3.8-5.1-9.8-9.8-11-15.7-10.6-45.5-20.8-91-29.8-136.8-1.7-8.1-3-16.6-4.2-24.7-.4-3-.9-5.5-1.3-8.5-13.2-86.3-2.5-121.5,1.7-131.3.9-2.1,1.7-3,1.7-3,12.8-24.2,31.4-31.9,59.9-27.6,5.1.4,11,1.7,17,3,40.8,10.2,73.1,35.7,105,62,10.2,8.5,21.7,16.6,30.6,26.3,5.9,7.7,7.6,16.6-3,23.8Z"/>
            <path d="M1156,1393c-2.6-1.3-8.9,5.9-13.6,8.9-7.7,5.1-15.3,11.1-23.8,14-51.8,19.6-93.9-3-126.2-39.1-16.2-17.9-20.4-11.1-31,0-34,34.9-74.8,50.1-123.2,44.2-16.2-2.1-31.9-5.9-42.1-21.2-2.6-3.8-8.9-8.1-11.9-7.2-4.7,1.7-9.8,6.8-11.1,11.5-2.1,9.8,0,17.4,11.9,22.9,22.5,11.1,45.1,20.4,70.6,17.4,11.5-1.3,16.6,2.1,18.7,14.9,3.4,19.6,9.8,38.7,16.2,57.4,13.2,38.2,46.3,62.9,76.1,62.9,35.3,1.3,59.5-8.1,75.2-31.9,17-25.5,28.1-54.4,31.4-85,1.7-14,7.2-16.6,20-19.1,22.9-4.7,45.9-12.8,68-20.8,5.1-1.7,12.3-11.5,11.1-14.9-2.5-5.5-9.8-11.5-16.1-14.9h0ZM1020.4,1544.3c-.8,1.3-1.7,2.1-2.6,3.4-.8.9-1.3,1.7-2.1,2.1-.8.9-1.7,1.7-3,2.6s-2.1,1.7-3.4,2.6c-8.5,5.1-19.6,7.6-33.6,7.6-30.6,0-60.3-21.2-60.3-44.2s.8-3.8,1.7-5.9c2.1-4.2,6.4-9.4,11.5-14,2.6-2.1,5.1-4.2,7.7-6.4,11.9-9.8,26.8-17.4,35.7-17.4,19.6.4,52.7,29.8,53.6,47.6s-1.3,16.1-5.1,22.1h0Z"/>
            <path d="M824.9,1192.4c-.8,14.4-9.8,17-20.4,10.6-20.4-12.8-37.4-27.2-45.1-52.7-6.4-20-20.8-38.7-34.4-55.2-11.9-14.4-25.9-14-35.3,1.7-13.6,22.5-25.5,46.8-35.3,71.4-6,15.3,0,19.1,18.3,15.7,8.5-1.7,17.4-3.4,25.9-2.6,6.4.8,18.7,2.6,18.3,9.3-.4,6.4-11.5,5.5-17.8,6.8-17.8,4.2-35.7,5.9-53.1,11.1-11.9,3.4-22.5,9.8-33.2,15.7-8.5,4.7-12.8,3.4-12.8-6.8,0-69.3,10.2-135.2,60.3-188.3,14.5-15.3,32.3-19.1,51.8-20.4,28.1-.8,64.6,24.7,82,68,12.3,30.6,20.4,62.9,29.8,95.2,1.3,6.4,1.3,13.6.9,20.4Z"/>
            <path d="M1338.3,1212.8c-3.4,5.1-14.9,11.5-17.9,9.8-26.4-17-55.2-23.8-86.3-25.1-5.5,0-10.6-3.4-16.2-5.5-2.6-.8-4.7-2.1-6.8-3,2.6-1.3,5.1-3.4,7.7-3.4,16.2-1.3,33.6-5.5,48.9-2.1,17,3.8,21.7-1.3,17-14.4-9.4-25.1-20.4-49.3-33.1-72.7-7.6-14-23.8-17-34-3.4-14.4,18.7-28.5,39.1-37,60.8-10.2,25.9-29.8,39.1-52.7,49.3-1.7.8-9.8-5.1-9.8-7.2,5.9-55.2,20-108.4,54.4-152.2,43.3-54.8,99-41.7,130,14.4,22.9,41.7,34,87.6,36.6,131.3,0,9.8,2.5,18.3-.9,23.4Z"/>
            <path d="M1041.7,1270.2c-.4,7.7-13.6,17.4-22.9,20.8-11.5,4.2-25.1,3-40.4,4.2-11.1-.9-25.1-.4-37.8-4.2-8.1-2.1-18.3-10.2-20-17.4-1.7-7.2,3.8-19.1,9.8-24.7,18.7-17,72.7-20.8,93.9-6.4,8.9,5.9,18.3,18.7,17.4,27.6Z"/>
            <path d="M782.8,951c.4,2.6-5.9,9.8-8.5,9.3-6.4-.4-12.3-4.2-18.3-6.8-29.8-12.8-58.7-17-85.8,5.9-4.2,3.4-11.5,2.6-17.4,3.4,1.3-5.5.8-12.3,3.8-16.6,16.6-22.9,34.8-43.8,66.7-42.5,17,.4,56.5,31,59.5,47.2Z"/>
            <path d="M1311.1,967.6c-7.6-2.6-12.8-2.6-16.1-5.1-22.9-17.4-48.4-25.1-76.9-17.8-11.9,3-22.5,9.8-34,14.4-3,1.3-6.8.8-10.2,1.3-.4-3.4-1.7-7.7-.4-11.1,17-44.6,74.8-56.9,107.9-22.9,8.9,8.9,15.7,19.1,23.4,28.9,2.1,2.5,3,5.1,6.4,12.3Z"/>
          </g>
        </g>
      </g>
    </g>
    <metadata>
      <sfw xmlns="http://ns.adobe.com/SaveForWeb/1.0/">
        <slices/>
        <sliceSourceBounds x="0" y="0" width="2000" height="2000" bottomLeftOrigin="true"/>
      </sfw>
    </metadata>
  </g>
</svg>